<svg width="488" height="270" viewBox="0 0 488 270" fill="none" xmlns="http://www.w3.org/2000/svg">
<rect x="147" y="55" width="339" height="175" fill="#B8E8DF"/>
<mask id="mask0_10736_104086" style="mask-type:alpha" maskUnits="userSpaceOnUse" x="147" y="55" width="339" height="175">
<rect x="147" y="55" width="339" height="175" fill="white"/>
</mask>
<g mask="url(#mask0_10736_104086)">
</g>
<g clip-path="url(#clip0_10736_104086)">
<path d="M648 -17H-16V303H648V-17Z" fill="url(#paint0_radial_10736_104086)"/>
<mask id="mask1_10736_104086" style="mask-type:alpha" maskUnits="userSpaceOnUse" x="-3" y="-63" width="347" height="315">
<rect x="-2.73828" y="-62.082" width="346.533" height="313.871" fill="#D9D9D9"/>
</mask>
<g mask="url(#mask1_10736_104086)">
<path d="M622.897 56.3192C622.897 54.7579 622.884 22.6902 622.878 1.40952C622.878 -3.96146 622.907 -6.65178 622.872 -9.455C622.862 -17.2389 622.846 -26.3356 622.552 -32.8808C622.251 -39.5195 621.69 -43.6002 621.057 -45.1034C620.94 -45.3776 620.831 -45.5098 620.721 -45.5228V-45.5324C620.956 -45.484 621.17 -46.0099 621.363 -46.9808C621.644 -48.3873 621.893 -50.7227 622.019 -53.5873C622.051 -54.3034 622.09 -55.0518 622.109 -55.8292C622.119 -56.6066 622.132 -57.4066 622.145 -58.2292C622.151 -59.0518 622.161 -59.8969 622.151 -60.7518C622.132 -61.6098 622.113 -62.4776 622.096 -63.3582C622.013 -66.8712 621.77 -70.5002 621.447 -73.8324C621.215 -76.1744 620.853 -79.526 620.388 -82.9647C620.285 -83.826 620.149 -84.6905 620.023 -85.5453C619.894 -86.4002 619.768 -87.2486 619.642 -88.0744C619.374 -89.7228 619.096 -91.2744 618.86 -92.626C617.372 -100.59 615.741 -106.51 614.559 -110.678C612.976 -116.21 611.219 -121.329 609.291 -126.187C607.36 -131.045 605.258 -135.642 602.926 -140.12C600.591 -144.594 598.017 -148.945 595.11 -153.278C592.204 -157.61 588.945 -161.92 585.186 -166.255C581.669 -170.31 577.916 -174.126 573.973 -177.726C570.026 -181.323 565.879 -184.69 561.545 -187.8C552.887 -194.036 543.453 -199.171 533.535 -203.223C528.397 -205.323 523.146 -207.116 517.823 -208.616C512.495 -210.107 507.095 -211.303 501.65 -212.236C490.759 -214.094 479.714 -214.9 468.65 -214.842L464.535 -214.791C463.166 -214.755 461.793 -214.674 460.424 -214.62L458.37 -214.529C457.685 -214.487 457.004 -214.426 456.319 -214.378L452.218 -214.055L448.129 -213.6C447.448 -213.516 446.763 -213.465 446.088 -213.358L444.053 -213.061L442.019 -212.765L441.001 -212.616C440.662 -212.561 440.326 -212.497 439.987 -212.436L435.941 -211.7C435.263 -211.587 434.597 -211.426 433.925 -211.284L431.917 -210.845L429.908 -210.407L427.915 -209.9C426.588 -209.552 425.254 -209.236 423.933 -208.861L419.99 -207.694L419.005 -207.4L418.03 -207.071L416.079 -206.416L414.128 -205.761C413.479 -205.545 412.843 -205.284 412.2 -205.045C410.918 -204.555 409.633 -204.084 408.357 -203.581L404.569 -201.981L403.622 -201.581C403.309 -201.442 402.999 -201.294 402.689 -201.149L400.826 -200.278L398.962 -199.407C398.336 -199.126 397.738 -198.79 397.125 -198.484C395.907 -197.855 394.683 -197.239 393.469 -196.6L389.884 -194.587C388.676 -193.936 387.529 -193.187 386.354 -192.481C385.185 -191.761 384.006 -191.071 382.876 -190.278L379.456 -187.965L376.152 -185.494C375.031 -184.691 373.998 -183.787 372.932 -182.923C371.876 -182.045 370.791 -181.197 369.786 -180.265L366.718 -177.516L363.763 -174.652C359.878 -170.784 356.148 -166.752 352.718 -162.471C349.211 -158.136 345.878 -153.629 342.894 -148.884C339.893 -144.149 337.122 -139.245 334.732 -134.129C334.154 -132.839 333.599 -131.539 333.03 -130.242C332.737 -129.6 332.498 -128.929 332.242 -128.268L331.487 -126.278L331.109 -125.281C330.989 -124.942 330.883 -124.597 330.767 -124.255L330.431 -123.226L330.127 -122.2L329.823 -121.174L329.546 -120.149C329.362 -119.465 329.174 -118.781 329.01 -118.1C327.637 -112.639 326.558 -107.168 325.525 -101.697C323.503 -90.8486 321.792 -79.9776 320.122 -69.1066C318.462 -58.2324 316.873 -47.355 315.284 -36.4776C313.139 -21.8098 310.96 -7.18404 308.595 7.40308C306.228 21.9902 303.69 36.5417 300.773 51.0353C298.309 63.2224 295.609 75.3547 292.435 87.3256C290.31 94.9869 287.955 102.574 285.272 110.006C283.909 113.71 282.462 117.374 280.879 120.955C279.303 124.535 277.553 128.019 275.602 131.316C275.315 131.832 275.001 132.319 274.685 132.81L273.748 134.28C273.416 134.748 273.083 135.219 272.75 135.687L272.25 136.393L271.717 137.061L271.042 137.906C270.929 138.045 270.819 138.19 270.703 138.329L270.344 138.719L269.631 139.503L269.275 139.897C269.153 140.029 269.007 140.161 268.875 140.293L265.613 143.464L264.958 144.1L264.27 144.697L262.9 145.89L261.534 147.08L260.853 147.677C260.824 147.703 260.795 147.726 260.766 147.748C260.908 147.632 261.043 147.506 261.182 147.39C261.014 147.542 260.843 147.687 260.669 147.826L260.652 147.839C260.478 147.977 260.304 148.113 260.126 148.248L259.054 149.081C258.34 149.635 257.626 150.187 256.916 150.739C256.567 151.026 256.189 151.271 255.821 151.526L254.71 152.287C253.971 152.793 253.231 153.3 252.495 153.806C251.539 154.416 250.554 154.977 249.588 155.568L248.135 156.442C247.641 156.716 247.134 156.968 246.633 157.232C245.629 157.751 244.634 158.287 243.626 158.793L240.539 160.184C239.521 160.674 238.452 161.045 237.403 161.458C236.347 161.855 235.31 162.297 234.225 162.619L231.002 163.664L227.724 164.551C226.639 164.868 225.521 165.087 224.417 165.335C223.309 165.577 222.208 165.842 221.081 166.022C219.96 166.219 218.842 166.429 217.719 166.616L214.324 167.093C209.78 167.668 205.191 168.058 200.553 168.303C199.229 168.364 197.934 168.374 196.626 168.413L194.669 168.461L192.715 168.403L190.765 168.345L189.789 168.316L189.302 168.303L188.817 168.261L184.942 167.926C179.797 167.342 174.714 166.397 169.785 164.961C164.873 163.484 160.113 161.58 155.578 159.268L152.22 157.458C151.134 156.793 150.053 156.129 148.967 155.468C148.418 155.151 147.905 154.774 147.382 154.416L145.815 153.332L145.034 152.793L144.643 152.522L144.265 152.229L142.76 151.061L141.32 149.945C141.078 149.764 140.848 149.564 140.619 149.364L139.931 148.768L138.559 147.571C138.106 147.168 137.632 146.79 137.209 146.355C136.34 145.509 135.471 144.664 134.606 143.819L134.283 143.503L133.973 143.171L133.356 142.503L132.125 141.171L131.512 140.506C131.305 140.287 131.101 140.064 130.917 139.829L129.777 138.448C129.025 137.526 128.237 136.632 127.559 135.651C126.861 134.687 126.144 133.742 125.466 132.768L123.531 129.777C123.373 129.526 123.202 129.284 123.053 129.029L122.614 128.255L121.732 126.706L120.848 125.161L120.05 123.564L119.249 121.971L118.848 121.174C118.71 120.913 118.606 120.629 118.48 120.358C118.002 119.268 117.521 118.174 117.04 117.084C116.914 116.813 116.804 116.535 116.701 116.255L116.381 115.416L115.738 113.739C115.528 113.177 115.299 112.626 115.102 112.058L114.537 110.342L113.969 108.626L113.681 107.768C113.581 107.484 113.513 107.187 113.426 106.897C113.093 105.732 112.761 104.564 112.428 103.397C110.784 97.2579 109.667 90.9353 108.959 84.5288L108.695 82.1256C108.604 81.3256 108.569 80.5127 108.504 79.7063L108.33 77.2837L108.239 76.074C108.213 75.6708 108.207 75.2611 108.191 74.8546C108.129 73.2289 108.068 71.6063 108.01 69.9805C108.004 68.3482 107.997 66.716 107.994 65.0805C108.055 58.2708 108.117 51.445 108.181 44.5999C108.226 37.7353 108.272 30.8514 108.317 23.9353C108.394 7.49338 108.469 -9.05823 108.485 -25.5873C108.485 -30.7002 108.482 -35.8099 108.478 -40.9163C108.43 -68.5937 108.133 -95.984 107.761 -123.378C107.471 -144.51 107.035 -165.597 106.586 -186.661C106.366 -197.194 106.143 -207.72 105.924 -218.245C105.824 -223.507 105.72 -228.768 105.617 -234.029L105.546 -237.974L105.51 -239.949L105.475 -242.549L105.346 -255.52L104.164 -255.51C99.5647 -255.465 94.9593 -255.423 90.3539 -255.378C87.499 -255.336 84.6408 -255.294 81.7827 -255.252C76.0663 -255.171 70.3467 -255.091 64.6272 -255.01C53.188 -254.849 41.7489 -254.691 30.3388 -254.529H30.3097C22.7784 -254.542 15.2567 -254.558 7.78347 -254.571C7.76732 -249.739 7.74795 -244.92 7.7318 -240.113C7.70597 -236.887 7.68012 -233.671 7.65429 -230.458C7.45082 -218.103 7.16985 -206.074 6.84689 -194.003C6.49164 -180.813 6.18483 -168.194 6.05242 -154.403C5.83281 -132.955 6.1041 -111.32 6.25589 -89.8937C6.40768 -69.5518 6.55947 -49.2131 6.71126 -28.8679C6.75001 -24.2292 6.78876 -19.5808 6.82752 -14.9356C6.7597 -11.8389 6.69511 -8.74857 6.62728 -5.65178C6.47227 2.86758 6.31725 11.3773 6.16223 19.8934C5.73592 33.2902 5.28378 46.6676 4.71861 60.1902C4.56036 63.9579 4.43118 67.3901 4.33106 70.6708C4.27616 72.2902 4.25354 73.9611 4.23094 75.5837C4.19864 77.2127 4.22125 78.8257 4.24386 80.4482C4.35366 86.9353 4.76705 93.5515 5.83604 101.742C7.64783 115.406 10.351 128.581 14.2362 141.293C16.1707 147.651 18.454 153.877 21.0699 159.961C23.6891 166.045 26.6571 171.99 30.0611 177.719C33.4521 183.455 37.2275 189.01 41.4647 194.271C41.9943 194.929 42.5272 195.584 43.0601 196.242C43.6091 196.887 44.1581 197.529 44.7104 198.174L45.5372 199.142L46.393 200.087C46.9646 200.716 47.5363 201.348 48.1079 201.98C50.4364 204.442 52.8102 206.89 55.3357 209.219C60.3351 213.929 65.7898 218.293 71.616 222.322C77.4712 226.306 83.7172 229.942 90.3604 233.045C102.265 238.664 115.131 242.613 128.263 244.955C134.828 246.148 141.468 246.906 148.112 247.348C151.435 247.58 154.758 247.69 158.078 247.758C159.738 247.79 161.398 247.774 163.055 247.784L168.045 247.668C174.694 247.432 181.337 246.871 187.919 245.935C194.498 244.99 201.006 243.619 207.371 241.887C208.963 241.448 210.555 241.032 212.118 240.513C212.903 240.264 213.688 240.016 214.47 239.771C215.251 239.526 216.036 239.28 216.805 238.993C218.348 238.439 219.886 237.884 221.423 237.332C222.938 236.722 224.449 236.113 225.96 235.506C231.955 232.974 237.723 230.077 243.216 226.874L246.368 224.987C247.414 224.351 248.425 223.661 249.452 223C251.51 221.713 253.515 220.213 255.527 218.771C255.776 218.587 256.031 218.41 256.276 218.226L257 217.648L258.443 216.493L259.884 215.339L260.604 214.761C260.84 214.564 261.066 214.358 261.298 214.158C263.133 212.526 265.012 210.945 266.737 209.219C277.117 199.674 285.979 188.735 293.281 176.822C296.924 170.861 300.179 164.645 302.879 158.119L303.141 157.513L303.38 156.893L303.851 155.651L304.788 153.164C305.353 151.535 305.902 149.922 306.448 148.297C306.971 146.668 307.507 145.045 308.014 143.413C308.508 141.777 309.025 140.151 309.5 138.513C312.946 126.832 315.772 115.09 318.268 103.329C320.764 91.5643 322.915 79.7708 324.882 67.9418C328.829 44.2837 332.042 20.4676 335.621 -3.67113C335.727 -4.38081 335.834 -5.07759 335.943 -5.78726C337.946 -18.4744 339.993 -31.0873 342.315 -43.6066C343.187 -47.9969 344.085 -52.3744 345.044 -56.7357C346.31 -62.5163 347.67 -68.3228 349.185 -74.1002C350.693 -79.8776 352.388 -85.6163 354.371 -91.1905C355.379 -93.9679 356.461 -96.7002 357.653 -99.3421C358.851 -101.978 360.178 -104.507 361.654 -106.832C362.009 -107.432 362.41 -107.968 362.794 -108.526C363.169 -109.097 363.592 -109.594 363.992 -110.116L364.296 -110.507C364.399 -110.632 364.509 -110.745 364.616 -110.868L365.252 -111.584C365.442 -111.816 365.717 -112.084 365.975 -112.345L366.75 -113.129L368.297 -114.694C368.549 -114.958 368.817 -115.207 369.089 -115.455L369.89 -116.2L371.491 -117.691L371.892 -118.061L372.309 -118.413L373.138 -119.12C377.837 -123.139 382.895 -126.661 388.272 -129.555C393.646 -132.452 399.334 -134.716 405.224 -136.329C411.115 -137.949 417.2 -138.92 423.358 -139.358L425.674 -139.494C426.446 -139.536 427.214 -139.603 427.993 -139.59L432.65 -139.636L437.346 -139.487C437.736 -139.471 438.13 -139.471 438.518 -139.442L439.684 -139.355L442.019 -139.184C448.232 -138.674 454.365 -137.726 460.314 -136.232C466.263 -134.742 472.022 -132.703 477.454 -130.068C482.889 -127.436 487.992 -124.21 492.658 -120.436C497.322 -116.665 501.585 -112.339 505.28 -107.632C509.307 -102.5 512.714 -96.8647 515.482 -90.8679C518.256 -84.8711 520.394 -78.5195 521.973 -71.9679C523.914 -64.1066 524.983 -55.9421 525.513 -47.7002L525.681 -44.6034C525.707 -44.0873 525.745 -43.5712 525.762 -43.055L525.794 -41.4969L525.858 -38.384C525.868 -37.8615 525.884 -37.355 525.888 -36.8163L525.894 -35.1937C525.92 -30.8711 525.942 -26.5453 525.968 -22.226C526.107 -4.94533 526.246 12.2934 526.385 29.416C526.646 54.5579 526.905 79.5224 527.166 104.664C527.409 134.219 527.26 165.519 527.974 194.232C528.261 205.703 528.688 216.939 528.988 228.413C529.298 240.271 529.576 252.448 529.782 264.548C530.212 289.332 530.47 314.416 530.809 339.38C530.858 342.8 530.906 346.216 530.955 349.629C531.003 353.88 531.052 358.129 531.1 362.38C547.28 362.174 563.46 361.964 579.779 361.755C586.565 361.69 593.366 361.629 600.187 361.564C607.521 361.513 614.872 361.464 622.251 361.413C622.184 346.235 622.116 331.006 622.051 315.768C622.035 301.045 622.019 286.316 622 271.622C622.006 251.49 622.18 231.442 622.261 211.384C622.358 187.7 622.487 164.148 622.755 140.548C623.123 112.568 622.936 84.6805 622.884 56.3386L622.897 56.3192ZM260.565 147.916C260.43 148.022 260.294 148.126 260.158 148.232L260.565 147.916Z" fill="url(#paint1_linear_10736_104086)"/>
</g>
<mask id="mask2_10736_104086" style="mask-type:alpha" maskUnits="userSpaceOnUse" x="328" y="94" width="310" height="221">
<rect x="328.82" y="94.8242" width="308.917" height="219.227" fill="#D9D9D9"/>
</mask>
<g mask="url(#mask2_10736_104086)">
<path d="M633.827 545.212C633.699 493.291 633.575 441.291 633.447 389.3C633.336 363.046 632.601 339.214 632.451 312.964C632.38 301.194 632.154 274.944 632.154 263.276C632.154 255.877 631.973 251.042 631.168 251.042C631.504 251.042 631.734 250.06 631.862 248.032C631.929 247.019 631.969 245.742 631.982 244.2C631.982 243.43 632.008 242.591 631.964 241.685C631.924 240.779 631.88 239.806 631.831 238.767C631.831 238.767 631.765 237.446 631.663 235.404C631.637 234.896 631.61 234.339 631.579 233.751C631.531 233.163 631.477 232.54 631.42 231.89C631.309 230.591 631.19 229.19 631.066 227.758C630.544 222.038 629.681 215.908 629.362 214.162C628.19 205.998 626.336 197.119 623.557 188.482C620.818 179.842 617.224 171.448 613.22 164.12C609.096 156.531 603.962 149.265 598.011 142.719C592.068 136.173 585.395 130.286 578.293 125.243C571.177 120.186 563.664 116.045 555.906 112.765C548.145 109.481 540.149 107.05 532.016 105.335C529.976 104.938 527.949 104.451 525.887 104.182L522.803 103.704C521.776 103.545 520.745 103.373 519.71 103.28C517.639 103.064 515.568 102.816 513.484 102.617C511.399 102.485 509.306 102.348 507.213 102.211C503.018 102.065 498.792 101.95 494.531 102.056C493.465 102.056 492.398 102.14 491.327 102.175C490.256 102.228 489.181 102.255 488.11 102.334C487.035 102.418 485.96 102.502 484.88 102.582C484.34 102.626 483.8 102.67 483.26 102.71C482.721 102.772 482.181 102.829 481.636 102.891C469.981 103.948 458.533 106.379 447.519 110.321C442.015 112.292 436.62 114.653 431.39 117.406C430.098 118.122 428.801 118.838 427.505 119.559C426.222 120.297 424.96 121.088 423.686 121.857C421.168 123.457 418.659 125.154 416.279 127.006C411.269 130.847 406.627 135.125 402.322 139.704C398.021 144.288 394.051 149.176 390.445 154.317C386.839 159.461 383.586 164.867 380.807 170.538L379.781 172.672C379.431 173.38 379.143 174.122 378.825 174.847L377.891 177.03L377.055 179.267C376.785 180.023 376.48 180.739 376.245 181.525L375.873 182.683L375.541 183.833C375.099 185.366 374.718 186.891 374.356 188.416C373.21 193.304 372.271 198.184 371.395 203.064C370.523 207.943 369.714 212.827 368.935 217.707C367.377 227.47 365.917 237.238 364.452 246.997C361.523 266.516 358.585 286.016 355.244 305.424L354.629 308.765C351.841 323.258 348.814 337.3 345.256 351.293C343.172 359.457 340.973 367.771 338.482 376.009C335.968 384.222 333.194 392.412 329.649 399.921C327.99 403.404 326.158 406.776 324.038 409.716L323.224 410.776C323.087 410.949 322.959 411.139 322.813 411.302L322.383 411.788L321.959 412.279C321.813 412.443 321.689 412.602 321.507 412.779L320.485 413.808L318.441 415.877C318.109 416.23 317.742 416.544 317.383 416.871L316.308 417.844C315.586 418.48 314.892 419.161 314.148 419.766L311.905 421.579C311.529 421.879 311.161 422.188 310.781 422.48L309.613 423.316L307.276 424.986L304.851 426.511L303.639 427.271L302.387 427.956C301.55 428.412 300.723 428.885 299.878 429.322L297.298 430.546C293.89 432.08 290.386 433.424 286.748 434.427L285.394 434.825C284.939 434.949 284.474 435.05 284.018 435.165C283.098 435.386 282.182 435.625 281.257 435.828C279.39 436.2 277.536 436.597 275.637 436.876C273.757 437.212 271.836 437.419 269.929 437.676C268.004 437.875 266.083 438.096 264.141 438.237C262.181 438.432 260.313 438.476 258.415 438.577C257.468 438.648 256.521 438.617 255.574 438.613L252.738 438.595C245.472 438.317 238.272 437.075 231.391 434.843C230.537 434.547 229.692 434.224 228.842 433.919L227.568 433.455C227.143 433.305 226.736 433.101 226.316 432.929L223.824 431.85C223.001 431.475 222.205 431.046 221.39 430.648C219.749 429.879 218.213 428.907 216.629 428.023C215.85 427.559 215.102 427.042 214.337 426.555C213.576 426.065 212.806 425.578 212.085 425.026L209.881 423.422C209.155 422.874 208.465 422.281 207.752 421.711L206.69 420.849C206.332 420.566 206.009 420.244 205.664 419.943L203.628 418.113C202.965 417.49 202.327 416.832 201.672 416.191L200.699 415.227C200.371 414.909 200.084 414.56 199.774 414.228L197.942 412.217C197.349 411.532 196.796 410.812 196.221 410.113C191.636 404.482 188.048 398.06 185.22 391.316C184.835 390.485 184.548 389.614 184.22 388.756C183.906 387.895 183.57 387.042 183.269 386.175L182.432 383.55L182.012 382.237C181.875 381.8 181.769 381.349 181.645 380.907L180.928 378.237L180.746 377.57L180.596 376.893L180.295 375.541L179.698 372.836L179.211 370.1C177.932 362.803 177.317 355.364 177.18 347.899C176.954 332.708 176.733 317.548 176.507 302.436C176.419 260.867 176.476 219.209 176.861 177.848C177.118 163.934 177.375 150.149 177.636 136.195C177.91 119.081 178.069 101.746 178.069 84.4161C178.06 78.9089 178.052 73.3973 178.038 67.8945L164.799 67.9431L154.993 68.005C148.629 68.0536 142.266 68.1023 135.903 68.1509C129.54 68.1951 123.177 68.2393 116.809 68.2879C109.277 68.3144 101.746 68.3365 94.2102 68.363C94.2013 75.1078 94.1969 81.8746 94.188 88.6459C93.9668 99.0282 93.7499 109.287 93.5287 119.744C93.2632 134.445 93.2234 149.362 93.2234 164.213C93.2322 193.22 93.3827 222.352 93.1747 251.324C92.5419 256.54 91.9976 262.144 91.4312 270.043C90.8206 278.524 90.4046 287.669 90.0108 297.322C89.347 313.486 89.1036 330.012 88.8868 347.276C88.8603 349.645 88.8293 352.014 88.8027 354.387C88.816 356.84 88.8293 359.289 88.8426 361.746L88.8603 363.59L88.9311 365.433L89.0771 369.123C89.1346 370.352 89.1567 371.585 89.2452 372.818L89.524 376.518C90.2719 386.379 91.6303 396.266 93.8163 406.051C94.1217 407.346 94.427 408.637 94.7323 409.932L95.1925 411.877L95.427 412.849L95.7014 413.813L96.8077 417.676C97.1838 418.962 97.5201 420.257 97.9759 421.526C98.5202 423.13 99.0644 424.739 99.6131 426.356C99.7547 426.759 99.8831 427.165 100.029 427.567L100.503 428.765C100.817 429.565 101.135 430.365 101.454 431.17C102.653 434.405 104.184 437.543 105.64 440.721C106.414 442.29 107.264 443.833 108.078 445.388C108.494 446.162 108.901 446.944 109.326 447.713L110.698 449.976L112.079 452.239C112.548 452.986 112.981 453.755 113.503 454.471C114.517 455.921 115.53 457.371 116.543 458.821L117.158 459.696L117.822 460.535L119.154 462.211C119.632 462.807 120.11 463.4 120.588 464.001C121.075 464.588 121.526 465.212 122.057 465.773C123.088 466.913 124.123 468.063 125.159 469.216C125.686 469.782 126.19 470.383 126.739 470.922C127.287 471.466 127.836 472.009 128.385 472.553C129.491 473.636 130.58 474.741 131.708 475.806C132.872 476.84 134.04 477.875 135.213 478.909C135.801 479.422 136.372 479.952 136.983 480.443L138.824 481.901C140.058 482.865 141.271 483.859 142.532 484.787C143.815 485.689 145.098 486.586 146.381 487.484L147.342 488.155C147.66 488.385 147.983 488.602 148.32 488.801L150.311 490.034L152.302 491.262C152.97 491.665 153.616 492.098 154.307 492.451C157.041 493.919 159.719 495.461 162.52 496.695C168.016 499.382 173.688 501.375 179.198 503.148C186.353 505.274 193.544 506.701 200.699 507.665C202.491 507.859 204.279 508.054 206.067 508.248C206.956 508.359 207.85 508.412 208.744 508.465L211.421 508.633L214.094 508.796C214.983 508.854 215.872 508.84 216.762 508.867C218.536 508.902 220.315 508.933 222.09 508.969C223.842 508.933 225.599 508.898 227.36 508.863C228.24 508.84 229.117 508.836 229.997 508.801L232.639 508.655L235.276 508.504L237.914 508.275C238.79 508.195 239.666 508.12 240.542 508.04C241.414 507.934 242.29 507.828 243.162 507.727C244.06 507.616 244.967 507.506 245.879 507.395C246.786 507.254 247.702 507.117 248.613 506.975C249.525 506.829 250.441 506.701 251.348 506.542C252.255 506.37 253.158 506.197 254.052 506.025C254.946 505.844 255.835 505.698 256.707 505.49C257.579 505.282 258.437 505.079 259.287 504.88C260.132 504.668 260.964 504.491 261.769 504.248C262.574 504.009 263.358 503.78 264.123 503.554C266.154 503.143 268.15 502.595 270.159 502.087C271.168 501.844 272.155 501.525 273.15 501.238C274.141 500.942 275.142 500.659 276.133 500.345L279.084 499.351L280.558 498.851L282.014 498.303L284.925 497.194C285.894 496.818 286.841 496.39 287.802 495.992C291.638 494.392 295.355 492.522 299.024 490.573L301.732 489.035L303.086 488.261C303.533 487.996 303.971 487.718 304.413 487.448L307.059 485.804C307.94 485.251 308.807 484.624 309.679 484.036C313.06 481.76 316.188 479.201 319.25 476.584C320.012 475.921 320.733 475.227 321.476 474.551C322.206 473.861 322.972 473.203 323.671 472.487L325.791 470.356L326.848 469.291L327.862 468.186C332.995 462.666 337.641 456.739 341.796 450.485C345.964 444.235 349.584 437.614 352.571 430.626L353.133 429.318L353.646 427.979L354.66 425.3C355.253 423.559 355.877 421.826 356.439 420.08C357.607 416.597 358.66 413.088 359.704 409.574C361.744 402.542 363.558 395.475 365.218 388.39C368.784 372.991 371.572 357.583 373.984 342.193C376.4 326.803 378.44 311.426 380.449 296.054L380.223 297.817C381.219 290.206 382.219 282.604 383.259 275.019C384.949 265.079 386.635 255.156 388.427 245.384C389.503 239.483 390.697 233.64 392.047 227.859C393.41 222.087 394.945 216.367 396.83 210.825C397.667 208.421 398.507 206.074 399.428 203.819C400.357 201.57 401.353 199.399 402.481 197.353C403.618 195.302 404.866 193.411 406.38 191.74C407.22 190.847 408.061 189.95 408.906 189.044C409.791 188.182 410.69 187.324 411.597 186.463C415.579 182.834 419.858 179.696 424.394 177.03C428.934 174.365 433.726 172.169 438.771 170.365C448.196 167.099 456.507 165.565 466.888 165.764C477.53 166.074 487.986 167.709 497.757 171.121C507.505 174.564 516.466 179.864 524.051 186.904C528.489 191.117 532.414 195.833 535.657 201.048C538.919 206.25 541.565 211.881 543.636 217.822C545.149 222.233 546.463 226.776 547.41 231.457C548.375 236.124 549.163 240.876 549.614 245.689L549.809 247.488C549.866 248.089 549.897 248.695 549.946 249.296C550.034 250.502 550.118 251.709 550.207 252.911C550.256 254.122 550.3 255.329 550.349 256.54L550.419 258.352L550.459 260.208C550.557 265.159 550.65 270.078 550.742 274.94C550.915 283.669 551.083 292.314 551.251 300.977V317.061C551.251 328.642 550.831 339.89 550.804 351.461C550.747 374.918 550.791 399.643 551.428 422.697C552.008 443.638 551.725 464.92 551.968 486.016C552.043 492.46 552.181 498.714 552.296 505.004C552.269 506.498 552.243 507.996 552.216 509.503C552.07 517.627 552.269 525.57 552.433 533.508C552.256 540.734 552.296 547.541 552.269 554.79C552.154 560.257 552.012 565.521 551.946 571.223C551.906 574.502 551.919 577.897 551.955 581.322C551.968 590.365 551.981 600.584 551.995 607.709C551.995 608.292 551.995 608.871 551.995 609.433C561.062 609.433 570.036 609.433 578.979 609.428C586.997 609.384 594.988 609.344 603.002 609.3C607.29 609.313 611.582 609.327 615.875 609.344C621.871 609.358 627.871 609.366 633.898 609.38C633.898 598.255 633.902 587.112 633.907 575.965C633.885 565.724 633.863 555.475 633.84 545.229L633.827 545.212Z" fill="url(#paint2_linear_10736_104086)"/>
</g>
</g>
<defs>
<radialGradient id="paint0_radial_10736_104086" cx="0" cy="0" r="1" gradientUnits="userSpaceOnUse" gradientTransform="translate(324.621 334.16) rotate(-89.811) scale(372.775 373.21)">
<stop stop-color="#063844"/>
<stop offset="0.979167" stop-color="#128081"/>
</radialGradient>
<linearGradient id="paint1_linear_10736_104086" x1="4.23094" y1="53.416" x2="393.805" y2="53.2788" gradientUnits="userSpaceOnUse">
<stop stop-color="#128081"/>
<stop offset="0.495864" stop-color="#063844"/>
</linearGradient>
<linearGradient id="paint2_linear_10736_104086" x1="258.211" y1="338.657" x2="708.92" y2="338.657" gradientUnits="userSpaceOnUse">
<stop offset="0.33" stop-color="#128081"/>
<stop offset="0.9" stop-color="#BBE0D9"/>
</linearGradient>
<clipPath id="clip0_10736_104086">
<rect width="664" height="320" fill="white" transform="translate(-16 -17)"/>
</clipPath>
</defs>
</svg>
