<svg width="164" height="164" viewBox="0 0 164 164" fill="none" xmlns="http://www.w3.org/2000/svg">
<path d="M79.3295 28.073C77.1662 28.2469 75.3611 29.0713 73.9944 32.0897C72.7008 34.9443 73.3761 38.2448 73.3761 40.6346C73.3761 43.7597 85.5752 43.1356 87.452 40.6346C88.2486 39.572 88.063 34.9093 86.7577 32.0604C85.4525 29.2116 82.0804 27.4839 79.0269 28.092" fill="#063844"/>
<path d="M79.3222 28.1124L79.5707 28.0774C79.654 28.0686 79.7388 28.0701 79.8221 28.0671C79.9902 28.0671 80.1568 28.0481 80.3249 28.0671C80.493 28.0861 80.6421 28.0671 80.7999 28.0876L81.2735 28.1417C81.4343 28.1665 81.7617 28.263 81.9181 28.2995C82.0745 28.3361 82.3215 28.4092 82.4619 28.4589C82.7323 28.5714 82.7293 28.5875 82.9954 28.703L83.3842 28.9032C83.5143 28.9675 83.6327 29.0494 83.7584 29.1283L83.9528 29.2452L84.1399 29.3753C84.2626 29.4645 84.3956 29.539 84.5097 29.6399L84.8415 29.9118C84.9452 30.0082 85.0461 30.1106 85.1484 30.2041C85.2582 30.3115 85.3621 30.4247 85.4597 30.5432L85.6059 30.7172C85.6556 30.7756 85.6995 30.8385 85.7521 30.8984C85.87 31.0385 85.9803 31.1849 86.0824 31.3369C86.1884 31.4873 86.286 31.6435 86.3748 31.8046C86.5384 32.0915 86.6725 32.3941 86.7752 32.708C86.9325 33.2342 87.0493 33.7717 87.1246 34.3158C87.1772 34.6651 87.2254 35.0145 87.2634 35.3697C87.2883 35.6021 87.3131 35.8374 87.338 36.0727L87.357 36.2335C87.3965 36.5566 87.4315 36.8767 87.4564 37.1982C87.4856 37.5724 87.5017 37.9452 87.5134 38.315C87.542 38.8683 87.5057 39.4232 87.4052 39.9681C87.3921 40.0295 87.3745 40.0865 87.3599 40.1464C87.3453 40.2064 87.3234 40.2604 87.3 40.3101L87.2664 40.3861L87.2284 40.4519C87.1972 40.4999 87.1631 40.5458 87.1261 40.5893C86.9953 40.7319 86.8481 40.8585 86.6876 40.9664C86.4449 41.1275 86.1909 41.2706 85.9275 41.3947C85.5073 41.5926 85.0742 41.7616 84.631 41.9004C84.4366 41.956 84.2422 42.0072 84.0463 42.0466L83.3988 42.1928C82.8245 42.3178 82.2432 42.4076 81.6579 42.4617C81.03 42.524 80.399 42.5513 79.768 42.5436L78.8822 42.526C78.5899 42.526 78.2976 42.5187 78.0052 42.5027C77.6924 42.488 77.3782 42.4661 77.0668 42.4296C76.7555 42.393 76.4588 42.3404 76.1606 42.2732C76.0144 42.2352 75.8683 42.1942 75.7323 42.1475C75.5964 42.1007 75.44 42.0408 75.2938 41.9823C74.915 41.8408 74.5567 41.6496 74.2283 41.4137C74.0019 41.2609 73.8384 41.0315 73.7678 40.7676C73.7605 40.7365 73.7561 40.7047 73.7547 40.6726V40.6244V40.5499C73.7547 40.4505 73.7459 40.3525 73.743 40.2575C73.7328 40.0602 73.7138 39.8687 73.6991 39.6729C73.6904 39.5267 73.6831 39.3805 73.6801 39.2344C73.6801 39.1379 73.6801 39.0443 73.6801 38.9493C73.6801 38.8032 73.6626 38.6658 73.6494 38.5254L73.6085 38.0869C73.5822 37.7464 73.5559 37.4029 73.531 37.0638L73.4916 36.5595C73.4814 36.3914 73.4711 36.2233 73.4623 36.0552C73.4521 35.7453 73.4492 35.4311 73.4623 35.1183L73.4726 34.8581L73.496 34.6008C73.5091 34.4298 73.5237 34.2573 73.553 34.0863C73.5993 33.8002 73.6648 33.5174 73.7488 33.24C73.8357 32.9686 73.9362 32.7018 74.0499 32.4405C74.2906 31.8749 74.5812 31.332 74.9182 30.818C75.2631 30.2947 75.6271 29.7671 76.1211 29.3709C76.4391 29.1214 76.782 28.9054 77.1443 28.7263C77.6617 28.5173 78.1075 28.2878 78.7872 28.1885C79.0796 28.1475 79.3456 28.1139 79.3412 28.0598C79.3368 28.0057 79.0781 28.0145 78.7697 28.0598C78.4063 28.1105 78.0468 28.1862 77.6939 28.2864C77.5357 28.331 77.38 28.3841 77.2276 28.4457C77.1487 28.4793 77.0624 28.5071 76.9791 28.5495L76.7102 28.684C76.2589 28.9519 75.8484 29.2832 75.4911 29.6677C75.3362 29.8138 75.1988 29.9805 75.0526 30.1354C74.9839 30.2158 74.9182 30.3006 74.8509 30.3839C74.7822 30.4672 74.7192 30.5551 74.6624 30.647C74.5031 30.8955 74.4154 31.0416 74.3569 31.1527C74.2984 31.2638 74.2546 31.3311 74.1946 31.4231L73.9535 31.8105C73.9169 31.8704 73.8818 31.9303 73.8468 31.9903C73.8117 32.0502 73.7839 32.1174 73.7547 32.1861C73.6134 32.5004 73.499 32.8261 73.4127 33.1596C73.2643 33.7909 73.1497 34.4295 73.0692 35.073C73.0255 35.3634 72.9996 35.6563 72.9917 35.95C72.9917 36.2701 72.9654 36.5858 72.9727 36.9059C72.9733 37.2239 72.9923 37.5416 73.0297 37.8574C73.0648 38.1352 73.0677 38.4173 73.1057 38.6921C73.1218 38.8134 73.1349 38.9376 73.1466 39.0619V39.0838C73.1364 39.2914 73.1466 39.5106 73.1466 39.7255V40.1494C73.1466 40.3028 73.1466 40.4563 73.1466 40.6098C73.1504 40.7954 73.1901 40.9786 73.2636 41.1491C73.4163 41.463 73.6544 41.7274 73.9505 41.9121C74.0578 41.9833 74.1691 42.0482 74.2838 42.1065L74.3394 42.1445C74.7238 42.4062 75.2032 42.529 75.6432 42.6357C75.6752 42.6435 75.7081 42.6474 75.7411 42.6474C76.4062 42.7897 77.0801 42.8873 77.7582 42.9397C78.1499 42.9719 78.5387 43.0011 78.9275 43.0172C79.3163 43.0332 79.6949 43.0347 80.0779 43.0362C80.5164 43.0449 80.9549 43.0362 81.3817 43.0362C81.9155 43.017 82.4479 42.9682 82.9764 42.89C83.502 42.8088 84.0201 42.6851 84.5257 42.5202C84.7348 42.4559 84.9409 42.3872 85.1426 42.3112C85.4171 42.2373 85.6846 42.1394 85.9421 42.0188C86.2198 41.8727 86.4668 41.6987 86.7329 41.5321C87.0036 41.3815 87.25 41.1908 87.4637 40.9664C87.5659 40.8519 87.6529 40.7247 87.7224 40.5879C87.7853 40.4536 87.838 40.3148 87.8803 40.1727C87.927 40.0286 87.9665 39.8823 87.9987 39.7342C88.025 39.5881 88.0308 39.4521 88.044 39.3089C88.0615 39.1057 88.0644 38.9055 88.0688 38.7038C88.1093 38.2968 88.1264 37.8878 88.12 37.4789C88.1119 37.1016 88.0802 36.7252 88.025 36.3519C87.984 36.0727 87.9344 35.7979 87.8788 35.5217C87.8437 35.3244 87.8057 35.1285 87.7619 34.937C87.718 34.7455 87.6888 34.595 87.6522 34.421C87.6055 34.2047 87.5631 33.9825 87.5061 33.7706C87.3992 33.3086 87.264 32.8537 87.1012 32.4083C87.0216 32.191 86.9238 31.9807 86.8089 31.7798L86.6422 31.4758C86.5808 31.3793 86.5136 31.2857 86.4493 31.1922C86.385 31.0987 86.3309 31.011 86.2651 30.9262L86.0634 30.6733C85.9303 30.5038 85.7868 30.3427 85.6337 30.1909C85.3486 29.9044 85.0454 29.6363 84.726 29.3885C84.6347 29.3162 84.5368 29.2526 84.4337 29.1985C84.3343 29.1415 84.2349 29.0845 84.1413 29.0187C83.9805 28.9149 83.8095 28.8287 83.6444 28.7263C83.4792 28.624 83.2658 28.5407 83.0787 28.4442C82.8916 28.3478 82.6899 28.2849 82.494 28.2075C82.2811 28.1361 82.0645 28.0766 81.845 28.0291C81.6594 28.0043 81.4621 27.978 81.275 27.959L80.7941 27.9093C80.6318 27.9005 80.4711 27.9005 80.3088 27.8947H80.1758L80.0486 27.9049L79.8045 27.9268C79.7241 27.9356 79.6438 27.9385 79.5619 27.9502L79.3076 27.9926C79.1702 28.013 79.0152 28.0467 79.0152 28.0847C79.0152 28.1227 79.1395 28.1402 79.3222 28.1124Z" fill="#063844"/>
<path d="M81.7501 29.2948C81.3115 29.3314 80.9388 29.4995 80.6582 30.1178C80.5324 30.4138 80.5055 30.7424 80.5813 31.055C80.6571 31.3675 80.8317 31.6473 81.0791 31.8528C81.3351 32.0454 81.6468 32.1497 81.9671 32.1497C82.2875 32.1497 82.5991 32.0454 82.8551 31.8528C83.1079 31.6518 83.2862 31.372 83.3612 31.0578C83.4363 30.7437 83.404 30.4135 83.2693 30.12C83.1347 29.8264 82.9055 29.5865 82.6184 29.4385C82.3314 29.2905 82.003 29.243 81.6857 29.3036" fill="white"/>
<path d="M81.7602 29.4192C81.8172 29.409 81.8757 29.4441 81.9298 29.4485C81.9839 29.4529 82.0321 29.4572 82.0847 29.4631C82.1125 29.4631 82.1564 29.5289 82.1812 29.5347C82.2114 29.5364 82.2409 29.5449 82.2674 29.5596C82.3069 29.5888 82.2938 29.6297 82.3288 29.6604C82.3629 29.6954 82.3928 29.7341 82.418 29.7759C82.4469 29.8081 82.4792 29.837 82.5145 29.8621C82.5446 29.8902 82.5702 29.9227 82.5905 29.9586C82.6153 29.9922 82.6241 30.0419 82.6592 30.0624C82.7007 30.0903 82.7437 30.1162 82.7878 30.1398C82.8067 30.1523 82.8217 30.17 82.8307 30.1907C82.8398 30.2115 82.8427 30.2344 82.839 30.2568C82.8038 30.3543 82.7445 30.4413 82.6665 30.5096L82.5408 30.6251C82.5189 30.6456 82.4925 30.6646 82.4896 30.6821C82.489 30.686 82.489 30.6899 82.4896 30.6938C82.4962 30.7208 82.505 30.7472 82.5159 30.7727C82.5285 30.8117 82.5457 30.849 82.5671 30.8838C82.6158 30.9538 82.6538 31.0306 82.6796 31.1119C82.6886 31.1498 82.694 31.1884 82.6957 31.2273C82.6904 31.2529 82.6825 31.2778 82.6723 31.3019C82.6588 31.3395 82.6481 31.3781 82.6402 31.4173C82.6271 31.4878 82.6045 31.5562 82.5729 31.6205C82.553 31.6399 82.5309 31.6571 82.5072 31.6717C82.4785 31.689 82.454 31.7125 82.4355 31.7404C82.3707 31.8029 82.2844 31.8384 82.1944 31.8398C82.0957 31.847 81.9973 31.8224 81.9137 31.7696C81.8796 31.7425 81.8403 31.7226 81.7982 31.7111C81.7602 31.7009 81.7193 31.7111 81.6798 31.6994C81.6373 31.6972 81.5956 31.6868 81.5571 31.6688C81.5201 31.648 81.489 31.6184 81.4664 31.5825C81.459 31.5548 81.4546 31.5264 81.4533 31.4977C81.4533 31.4641 81.4533 31.4276 81.4533 31.3969C81.4613 31.3344 81.4643 31.2713 81.4621 31.2083C81.4587 31.1751 81.4466 31.1433 81.427 31.1162C81.3932 31.0911 81.3557 31.0714 81.3159 31.0578C81.3113 31.0518 81.3079 31.045 81.3062 31.0377C81.3044 31.0304 81.3042 31.0228 81.3057 31.0154C81.3092 31.0027 81.3141 30.9905 81.3203 30.9788C81.3276 30.9628 81.3086 30.9555 81.2954 30.9438L81.2545 30.9101C81.2287 30.8759 81.1998 30.8441 81.1683 30.8151C81.1273 30.783 81.0732 30.7479 81.0221 30.707C80.9859 30.6702 80.9566 30.6271 80.9358 30.5798C80.9087 30.5293 80.8862 30.4765 80.8686 30.4219C80.8688 30.3787 80.8849 30.3371 80.9139 30.305L81.0089 30.2056C81.0776 30.1311 81.1317 30.0594 81.1843 29.9951C81.237 29.9308 81.2063 29.7832 81.2867 29.7393C81.3363 29.716 81.3714 29.6721 81.4226 29.6429C81.4664 29.6429 81.4869 29.5976 81.5191 29.5449C81.5512 29.4923 81.5907 29.4368 81.6506 29.4368C81.7105 29.4368 81.7442 29.3958 81.7369 29.2906C81.7295 29.1854 81.6769 29.1664 81.6155 29.1766C81.4445 29.2117 81.3451 29.1766 81.177 29.2394C81.0952 29.2745 81.0455 29.3856 80.9373 29.4733C80.873 29.5289 80.7473 29.5362 80.6932 29.6107C80.6216 29.713 80.6245 29.735 80.5704 29.7569C80.49 29.789 80.3921 29.7934 80.3512 29.846C80.33 29.8753 80.3109 29.9061 80.2942 29.9381C80.279 29.9754 80.2678 30.0141 80.2605 30.0536C80.2527 30.2067 80.2119 30.3563 80.1407 30.4921C80.0996 30.5513 80.0777 30.6217 80.0778 30.6938C80.0866 30.7698 80.0471 30.8473 80.0588 30.9233C80.057 30.963 80.0631 31.0027 80.0766 31.04C80.0902 31.0774 80.111 31.1117 80.1378 31.1411C80.1977 31.1922 80.1875 31.2639 80.2474 31.3121C80.2725 31.3307 80.2942 31.3535 80.3117 31.3793V31.3866C80.2931 31.4406 80.2885 31.4985 80.2986 31.5547C80.2996 31.591 80.306 31.627 80.3176 31.6614C80.3451 31.7333 80.3922 31.7961 80.4535 31.8427C80.512 31.8924 80.5631 31.9465 80.623 31.9889L80.6903 32.0444V32.0678C80.689 32.0997 80.6949 32.1315 80.7075 32.1609C80.7202 32.1902 80.7393 32.2164 80.7634 32.2373C80.8087 32.2753 80.8642 32.2987 80.9095 32.3309C80.9168 32.3309 80.9271 32.3309 80.9402 32.3309C81.082 32.4156 81.2284 32.4922 81.3787 32.5604C81.4679 32.5984 81.5556 32.6451 81.6477 32.6832C81.7398 32.7212 81.8348 32.746 81.94 32.7767C82.0561 32.8291 82.1752 32.8745 82.2967 32.9126C82.4502 32.9514 82.6109 32.9514 82.7644 32.9126C82.9203 32.8628 83.0535 32.7592 83.1401 32.6203C83.1831 32.5705 83.2213 32.5166 83.2541 32.4595C83.3184 32.4171 83.4002 32.3806 83.4222 32.2943C83.4441 32.2081 83.4105 32.0576 83.4353 31.9815C83.4602 31.9055 83.5201 31.8646 83.523 31.7828C83.5196 31.7139 83.5311 31.6451 83.5566 31.581C83.5742 31.5518 83.599 31.5255 83.6151 31.4963C83.6312 31.467 83.6151 31.4246 83.6151 31.391C83.6151 31.3574 83.6151 31.2931 83.6151 31.2449C83.6774 31.1719 83.7268 31.0888 83.7613 30.9993C83.789 30.9158 83.789 30.8256 83.7613 30.742C83.7423 30.6777 83.7043 30.6163 83.6809 30.5564C83.6575 30.4965 83.6487 30.4716 83.6312 30.4322C83.6172 30.3969 83.6074 30.3601 83.602 30.3225C83.602 30.2743 83.602 30.2246 83.602 30.1764C83.5992 30.0655 83.582 29.9554 83.5508 29.849C83.5068 29.751 83.4311 29.6707 83.3359 29.6209C83.2512 29.5698 83.1898 29.5025 83.1021 29.4602C83.0246 29.4237 82.9516 29.3786 82.8843 29.3257C82.8492 29.2906 82.7703 29.3257 82.7381 29.2994C82.7062 29.277 82.6713 29.2592 82.6343 29.2468C82.5583 29.2088 82.4882 29.1444 82.4063 29.1094C82.3662 29.0817 82.3173 29.0697 82.2689 29.0757C82.2265 29.086 82.1797 29.124 82.1403 29.1313C82.0745 29.1313 82.0102 29.1313 81.9444 29.1313C81.8782 29.148 81.8128 29.168 81.7485 29.1912C81.7208 29.1912 81.693 29.2204 81.7091 29.2965C81.7076 29.4032 81.7295 29.4236 81.7602 29.4192Z" fill="white"/>
<path d="M61.0206 137.298L60.221 68.9166C60.221 68.9166 57.5652 38.6424 80.8014 39.572C102.183 39.173 100.324 68.9166 100.324 68.9166L100.59 139.152" fill="#BADFD8"/>
<path d="M61.0088 137.298C61.193 137.298 61.155 135.983 61.1243 133.832C60.9182 116.089 60.832 98.8342 60.8159 80.8862C60.8159 78.7551 60.7993 76.6488 60.7662 74.5674C60.7486 73.5257 60.7316 72.4884 60.715 71.4555C60.7048 70.9381 60.6946 70.4236 60.6843 69.9091L60.6683 69.1388V68.9458C60.6695 68.9215 60.6695 68.8971 60.6683 68.8727V68.8216L60.6609 68.728L60.6332 68.3509C60.5125 66.3343 60.5213 64.3121 60.6595 62.2966C60.7893 60.2954 61.0643 58.3061 61.4824 56.3447C61.8788 54.4772 62.4519 52.6516 63.194 50.8927C63.909 49.195 64.8426 47.598 65.9712 46.1422C67.114 44.6798 68.5017 43.4266 70.0727 42.4383C70.8858 41.9324 71.7435 41.5019 72.635 41.1521C73.5629 40.7934 74.5206 40.5171 75.497 40.3262C76.7013 40.0907 77.9241 39.9625 79.1511 39.9432C79.7665 39.9199 80.3994 39.9579 81.0265 39.9637C81.3407 39.9637 81.6579 39.9637 81.9678 39.9798C82.2777 39.9959 82.5905 40.0061 82.9003 40.0397C84.1402 40.1434 85.3653 40.3801 86.5545 40.7457C87.1517 40.9302 87.7373 41.1498 88.3085 41.4035C89.4457 41.9221 90.5149 42.5785 91.4921 43.3577C91.9781 43.7519 92.4413 44.1736 92.8792 44.6206C93.7581 45.5208 94.5418 46.5092 95.2179 47.5703C96.5743 49.6926 97.5566 52.0445 98.2757 54.4475C99.0098 56.9481 99.4922 59.5159 99.7155 62.1125C99.8314 63.3724 99.8967 64.6241 99.9113 65.8675C99.9201 66.4902 99.9162 67.1109 99.8996 67.7297C99.8909 68.0386 99.8777 68.3465 99.8602 68.6535L99.8455 68.8917V69.1285V69.5977C99.7856 74.601 99.714 79.638 99.7403 85.2186C99.7856 94.455 100.065 104.052 100.21 113.349C100.326 120.935 100.421 128.138 100.449 135.693C100.449 137.431 100.449 139.159 100.595 139.157C100.78 139.157 100.742 137.842 100.742 135.693C100.698 124.074 100.888 113.02 100.72 101.337C100.573 91.2977 100.755 82.7733 100.591 73.2724C100.566 71.8443 100.562 70.5054 100.569 69.2162V68.975C100.569 68.9341 100.569 68.8976 100.569 68.8596V68.7397C100.578 68.5789 100.585 68.4181 100.592 68.2588C100.606 67.9402 100.614 67.623 100.622 67.3087C100.633 66.6802 100.636 66.0605 100.622 65.4422C100.606 62.9017 100.373 60.3672 99.9259 57.8663C99.3413 54.7515 98.4453 51.9319 97.1064 49.2863C96.4288 47.9419 95.6184 46.6688 94.6873 45.4859C94.1994 44.876 93.6762 44.2952 93.1204 43.7465C92.535 43.1812 91.9124 42.6558 91.2567 42.1738C89.4819 40.8953 87.4531 40.013 85.3077 39.5866C84.2718 39.3749 83.2192 39.255 82.1622 39.2285C82.0321 39.2285 81.9005 39.2168 81.7705 39.2153H81.3817C81.1229 39.2153 80.8642 39.2226 80.607 39.2153H79.8323C79.5736 39.2153 79.3119 39.2314 79.0532 39.2387C76.9507 39.3071 74.8722 39.7082 72.8952 40.4271C70.8527 41.1839 68.9796 42.3363 67.3832 43.8181C65.885 45.2241 64.6204 46.8597 63.6369 48.6636C62.667 50.4326 61.8912 52.3012 61.3231 54.237C60.7566 56.1465 60.335 58.0961 60.0617 60.0691C59.786 62.0285 59.6303 64.0031 59.5954 65.9815C59.5866 66.477 59.5866 66.9711 59.5954 67.4666C59.5954 67.7136 59.6056 67.9621 59.6144 68.2106L59.6305 68.5833L59.6509 68.9443V71.8545C59.6597 73.8122 59.6685 75.7743 59.6772 77.7407C59.7065 81.677 59.7635 85.6455 59.8658 89.6826C60.05 96.9515 60.047 104.808 60.3262 112.283C60.563 118.622 60.734 124.758 60.8466 131.468V133.837C60.8568 135.573 60.8685 137.301 61.0088 137.298Z" fill="#063844"/>
<path d="M67.3934 60.4184C69.9177 57.6967 79.6715 46.2197 80.1407 46.0779L92.3574 59.8878L87.3117 58.0285L84.3883 111.672H77.4848L72.4391 58.0285L67.3934 60.4184Z" fill="white"/>
<path d="M69.8856 59.3016L72.3836 58.1323L72.6643 61.2837C72.7617 62.3653 72.864 63.4455 72.9712 64.5242C73.4901 69.6795 73.4609 70.0391 73.7401 72.9932C73.8789 74.4958 74.2005 77.9921 74.3394 79.4947C74.4724 80.9067 74.7779 83.6415 74.9079 85.0374C74.9255 85.2318 74.9416 85.4072 74.9562 85.5738C75.4897 91.5097 75.8873 97.6487 76.4003 103.114C76.5363 104.557 76.681 105.986 76.8271 107.413C76.9733 108.907 77.1326 110.396 77.2861 111.893H78.2917L84.5594 111.859C84.6062 110.922 84.6544 109.974 84.7056 109.023L85.1864 99.353C85.3326 96.6226 85.4788 93.958 85.6337 91.2159C85.7867 88.5322 85.9402 85.8525 86.0941 83.1767C86.4157 77.3913 86.7358 71.6411 87.0574 65.8616C87.1261 64.5154 87.1933 63.1999 87.2591 61.902C87.3146 60.6581 87.3702 59.4288 87.4257 58.2039L89.7966 59.0488L92.603 60.0603L89.7118 56.811L80.7225 46.588L80.3921 46.208L80.2825 46.0837C80.246 46.0457 80.208 46.015 80.1714 45.9799L80.1568 45.9682V45.9609H80.1481L80.113 45.9785C80.0925 45.9916 80.0706 46.0033 80.0501 46.0179L79.9873 46.0618L79.9259 46.1144C79.8367 46.1948 79.7929 46.2401 79.7344 46.2986L79.5692 46.4667L79.252 46.8014C78.8384 47.2399 78.4496 47.6784 78.0725 48.1038C77.3182 48.953 76.6108 49.7671 75.88 50.6061C74.4271 52.2856 72.9011 54.0689 70.8138 56.4528L68.4064 59.2169L67.6566 60.0836C67.5566 60.1859 67.4679 60.2986 67.392 60.4198C67.5037 60.3376 67.6053 60.2424 67.6946 60.1363C67.8802 59.9448 68.1433 59.6612 68.462 59.309C69.1022 58.6059 69.9675 57.6236 70.9059 56.5464C73.5954 53.4579 75.5599 51.1923 77.5068 48.9983C77.9935 48.4502 78.4788 47.9064 78.9787 47.3598C79.2287 47.0864 79.483 46.8131 79.7446 46.5427C79.8104 46.4754 79.8776 46.4082 79.9449 46.3424L80.0267 46.2664C80.0517 46.2429 80.0781 46.221 80.1057 46.2006L80.1276 46.189C80.1341 46.194 80.14 46.1999 80.1451 46.2065L80.1802 46.246L80.2474 46.3234L80.4375 46.5383L83.8505 50.4059L92.0139 59.6554L90.9469 59.2607L87.205 57.8707C87.1232 59.2242 87.0423 60.5782 86.9624 61.9327C86.8883 63.2384 86.8133 64.5466 86.7373 65.8573C86.4449 71.2289 86.4055 72.0898 86.2783 74.1099C86.0839 77.1969 85.9246 79.3573 85.7711 82.0614C85.6045 85.1309 85.4335 88.2662 85.2668 91.3328C84.9657 97.1722 84.6529 103.104 84.3021 108.917C84.251 109.747 84.2013 110.58 84.156 111.422L79.2009 111.41H77.7246C77.517 109.158 77.3139 106.935 77.1063 104.679C76.2951 96.1096 75.1681 86.0328 75.0322 84.6003C74.8436 82.554 74.6595 80.5179 74.4607 78.5183C74.2999 76.8257 74.1099 74.8349 73.9476 73.1379C73.6684 70.1984 73.3907 67.2839 73.1115 64.3357L72.4991 57.935L69.8374 59.1979C69.263 59.4697 68.6534 59.7621 68.1857 59.993C67.912 60.1149 67.6469 60.2551 67.392 60.4125C67.3832 60.4739 68.3202 60.0427 69.8856 59.3016Z" fill="white"/>
<path d="M81.7852 126.898C93.7972 126.898 103.535 125.567 103.535 123.925C103.535 122.283 93.7972 120.952 81.7852 120.952C69.7731 120.952 60.0354 122.283 60.0354 123.925C60.0354 125.567 69.7731 126.898 81.7852 126.898Z" fill="#063844"/>
<path d="M103.547 123.925C103.447 123.925 103.433 124.033 103.289 124.178C103.052 124.397 102.776 124.57 102.475 124.687C101.646 125.012 100.787 125.257 99.9114 125.418C99.0344 125.595 98.1574 125.73 97.2716 125.847C95.5059 126.078 93.7314 126.225 91.954 126.328C88.3963 126.531 84.8196 126.553 81.18 126.447C77.7261 126.34 74.4344 126.407 71.1676 126.216C69.5597 126.119 68.0761 125.975 66.5852 125.764C65.8383 125.659 65.0914 125.535 64.3313 125.383C63.5482 125.231 62.7742 125.036 62.0131 124.798C61.5575 124.664 61.1209 124.472 60.7137 124.228C60.6914 124.213 60.6699 124.198 60.6494 124.181C60.6309 124.169 60.6134 124.156 60.5967 124.142C60.5755 124.124 60.5559 124.105 60.5383 124.085C60.4999 124.045 60.4771 123.993 60.474 123.938C60.4726 123.912 60.4765 123.885 60.4855 123.86C60.4946 123.835 60.5085 123.812 60.5266 123.792C60.5436 123.773 60.5622 123.755 60.5821 123.738L60.6128 123.713L60.6727 123.674C60.8663 123.551 61.072 123.448 61.2867 123.367C61.5117 123.276 61.7485 123.199 61.9883 123.126C62.4706 122.98 62.969 122.866 63.4718 122.759C65.489 122.345 67.5645 122.094 69.6109 121.854C71.6854 121.636 73.7708 121.538 75.8566 121.562C77.8869 121.562 79.9288 121.614 82.1886 121.614C85.9261 121.614 89.8214 121.505 93.5896 121.728C95.1259 121.82 96.6211 121.948 98.1033 122.149C98.8443 122.252 99.584 122.37 100.318 122.526C101.056 122.671 101.779 122.884 102.478 123.162C102.761 123.275 103.025 123.432 103.26 123.627C103.435 123.782 103.452 123.919 103.526 123.919C103.57 123.919 103.606 123.883 103.614 123.802C103.613 123.689 103.573 123.58 103.5 123.493C103.332 123.263 103.003 123.07 102.592 122.892C102.04 122.667 101.472 122.484 100.892 122.342C100.322 122.196 99.7491 122.07 99.1776 121.956C98.0331 121.73 96.8886 121.549 95.7412 121.395C93.4222 121.085 91.0877 120.904 88.7486 120.854C86.7022 120.815 84.8137 120.746 82.9501 120.708C81.0865 120.67 79.2477 120.666 77.3139 120.786C74.9928 120.932 73.2314 120.777 71.0433 120.917C69.7629 121.002 68.5892 121.15 67.4081 121.319C66.2271 121.489 65.0358 121.677 63.7145 121.895C62.8374 122.03 61.9764 122.255 61.1449 122.564C60.9331 122.648 60.7271 122.746 60.528 122.857C60.4227 122.915 60.3212 122.979 60.224 123.05L60.148 123.107L60.0559 123.186C59.9963 123.241 59.9406 123.3 59.8893 123.363C59.7895 123.484 59.7226 123.629 59.6949 123.783C59.6672 123.936 59.6876 124.094 59.7534 124.235C59.8202 124.376 59.9146 124.502 60.0311 124.606C60.0603 124.633 60.091 124.658 60.1217 124.682L60.1685 124.719L60.2065 124.745C60.2576 124.78 60.3088 124.813 60.3526 124.842C60.7436 125.054 61.1574 125.222 61.5863 125.34C61.9999 125.463 62.418 125.561 62.8389 125.653C63.6809 125.833 64.5403 125.98 65.4261 126.131C67.0705 126.409 68.69 126.629 70.2964 126.822C71.9028 127.015 73.4931 127.176 75.0863 127.299C78.3025 127.569 81.5328 127.629 84.7567 127.479C87.721 127.324 90.9352 127.273 93.9653 126.802C95.2472 126.6 96.5057 126.394 97.7788 126.156C98.4146 126.037 99.0534 125.91 99.6994 125.766C100.345 125.621 100.997 125.462 101.654 125.254C101.969 125.175 102.28 125.077 102.585 124.962C102.906 124.841 103.198 124.654 103.441 124.412C103.529 124.321 103.584 124.204 103.599 124.079C103.612 123.975 103.579 123.922 103.547 123.925Z" fill="#063844"/>
<path d="M59.8191 123.925L56.374 138.323C56.374 138.323 81.354 146.774 107.626 138.323L103.32 123.925C103.32 123.925 85.7536 130.981 59.8191 123.925Z" fill="white"/>
<path d="M60.5353 124.177C61.3758 124.39 62.206 124.637 63.0553 124.826C63.8577 125.013 64.6631 125.206 65.4685 125.358C65.8807 125.436 66.7387 125.65 67.1523 125.72L68.614 125.979C69.358 126.125 69.3668 126.125 70.1151 126.255L71.245 126.442L72.3793 126.604C72.7725 126.657 73.17 126.714 73.5676 126.758L74.7603 126.881C75.5116 126.967 76.2615 127.027 77.0142 127.085L77.6238 127.135L78.2347 127.171L79.4567 127.237C80.4346 127.259 81.4139 127.287 82.3932 127.271C83.2702 127.271 84.1282 127.25 85.0023 127.249C86.445 127.229 87.873 127.21 89.2967 127.123C89.7586 127.103 90.2219 127.066 90.6853 127.028L91.3825 126.971L92.0826 126.9C92.6965 126.84 93.3148 126.753 93.9331 126.67C94.0793 126.651 94.2152 126.628 94.3556 126.604C95.2033 126.466 96.0409 126.312 96.874 126.132C97.8475 125.933 98.8122 125.694 99.7579 125.438C100.382 125.268 100.997 125.08 101.61 124.883C101.917 124.78 102.222 124.678 102.526 124.57C102.672 124.517 102.83 124.457 102.981 124.403L103.115 124.343C103.127 124.365 103.137 124.396 103.149 124.425L103.165 124.47L103.21 124.616C103.424 125.284 103.636 125.95 103.849 126.62C104.01 127.144 104.171 127.668 104.331 128.193C104.564 128.942 104.796 129.686 105.029 130.431C105.394 131.587 105.76 132.736 106.123 133.894C106.27 134.395 106.425 134.894 106.578 135.398C106.742 135.947 106.913 136.494 107.085 137.039C107.207 137.435 107.329 137.83 107.452 138.231L106.088 138.647C105.587 138.793 105.086 138.956 104.574 139.086L103.396 139.391C103.004 139.493 102.613 139.597 102.215 139.683L101.03 139.944C100.633 140.03 100.24 140.12 99.8412 140.186L97.599 140.596L95.3802 140.965C94.5806 141.073 93.7723 141.193 92.9713 141.291C92.1703 141.389 91.3913 141.456 90.5947 141.519L89.4253 141.578C89.0073 141.594 88.5922 141.62 88.1727 141.625L86.4991 141.668C85.9392 141.683 85.375 141.682 84.8079 141.692L84.1107 141.705H82.0146L80.5383 141.69H79.8075L79.0767 141.671C78.7069 141.658 78.3458 141.642 77.9746 141.623C77.7305 141.608 77.4907 141.585 77.251 141.568C76.8871 141.538 76.5304 141.524 76.1694 141.506C75.8084 141.489 75.4283 141.458 75.0571 141.435C74.6186 141.401 74.1801 141.376 73.7416 141.335L72.426 141.221C71.9875 141.187 71.5578 141.141 71.1252 141.101L70.4762 141.041L69.8272 140.97C69.4282 140.923 69.0277 140.879 68.6257 140.824L67.4183 140.658C66.5311 140.527 65.6526 140.394 64.7683 140.239C64.3956 140.173 64.0287 140.093 63.6618 140.024C63.295 139.955 62.931 139.878 62.5568 139.786C61.8309 139.621 61.1083 139.447 60.3892 139.262C59.6101 139.068 58.8383 138.858 58.0709 138.64C57.6865 138.53 57.3036 138.418 56.9221 138.299L56.7277 138.238L56.6487 138.212H56.6297H56.6195C56.6195 138.212 56.6195 138.212 56.6195 138.203L56.6297 138.162L56.735 137.723C57.1208 136.115 57.4453 134.492 57.8371 132.882C58.0885 131.847 58.3253 130.817 58.5679 129.785C58.9333 128.35 59.1292 127.091 59.5472 125.381C59.7314 124.63 59.8703 123.966 59.822 123.954C59.7738 123.943 59.6057 124.578 59.423 125.35C58.8968 127.562 58.622 128.582 58.1206 130.652C57.8838 131.634 57.6529 132.738 57.2275 134.511C56.9761 135.563 56.6823 136.598 56.4309 137.656C56.3827 137.858 56.3403 138.039 56.3008 138.201L56.2702 138.333L56.2555 138.397C56.2555 138.406 56.2453 138.421 56.2555 138.425L56.2848 138.435L56.5099 138.507L57.1179 138.695L57.8824 138.931C58.7024 139.188 59.2754 139.382 60.0047 139.569C60.4184 139.676 60.8393 139.78 61.2603 139.875C61.6813 139.97 62.1037 140.065 62.5217 140.151C64.115 140.479 65.7374 140.771 67.3336 141.066C68.0542 141.193 68.7835 141.323 69.5144 141.416C70.3198 141.531 71.1091 141.639 71.9159 141.737C72.3223 141.785 72.7242 141.822 73.1247 141.863C73.5252 141.904 73.9257 141.942 74.3335 141.958C75.0424 141.99 75.7601 142.075 76.4661 142.091C76.7833 142.101 77.1019 142.116 77.4206 142.132H77.4761C78.0023 142.19 78.5695 142.211 79.1205 142.247C79.4801 142.266 79.8514 142.294 80.2168 142.3C80.6158 142.312 81.0148 142.319 81.4124 142.325H82.0102L82.6066 142.317C83.3901 142.304 84.175 142.304 84.9584 142.269L85.8837 142.238H86.0445C86.6014 142.252 87.1787 142.221 87.759 142.195C88.0514 142.179 88.3437 142.164 88.636 142.145L89.494 142.075C89.5861 142.075 89.6665 142.057 89.7367 142.045C90.1635 142.009 90.5903 141.981 91.0171 141.939L92.2931 141.806C93.1467 141.728 93.996 141.606 94.8481 141.497L95.579 141.402L96.3098 141.288L97.7715 141.065C98.2524 140.986 98.7289 140.891 99.2068 140.805L99.9231 140.672C100.161 140.629 100.401 140.587 100.636 140.533C101.712 140.306 102.795 140.104 103.852 139.835L104.828 139.599C104.991 139.558 105.156 139.52 105.318 139.476L105.803 139.33L108.168 138.634L107.756 137.248L107.464 136.295L106.859 134.411C106.692 133.896 106.526 133.383 106.362 132.873C106.164 132.21 105.971 131.514 105.751 130.864C105.508 130.145 105.239 129.463 105.007 128.733C104.786 128.038 104.584 127.331 104.356 126.641C104.147 126.008 103.918 125.325 103.729 124.676L103.437 123.675C103.308 123.723 103.175 123.776 103.048 123.821L102.475 124.035C102.311 124.095 102.149 124.153 101.98 124.21C101.5 124.368 101.024 124.529 100.538 124.668C99.5445 124.925 98.5418 125.153 97.5332 125.363C96.6036 125.553 95.6564 125.745 94.7327 125.912C94.034 126.045 93.3368 126.159 92.6337 126.271L91.1326 126.474L89.8068 126.62C89.2455 126.666 88.6828 126.708 88.1274 126.743C87.5295 126.771 86.9346 126.81 86.3383 126.827L85.4423 126.851C85.1499 126.863 84.8459 126.87 84.5477 126.87C83.3959 126.891 82.2412 126.907 81.1025 126.905L79.4859 126.876L77.8693 126.808C77.3636 126.789 76.8578 126.745 76.3506 126.713L75.5891 126.657L74.829 126.581C74.5367 126.55 74.2546 126.53 73.9667 126.509C73.6787 126.489 73.3908 126.468 73.1057 126.428L71.666 126.248C71.1383 126.185 70.6165 126.09 70.0918 126.009C69.567 125.929 69.0452 125.843 68.5234 125.743C67.9636 125.641 67.4067 125.536 66.8556 125.451C66.3923 125.366 65.8967 125.287 65.4319 125.2C64.6265 125.054 63.8372 124.862 63.0362 124.679C62.1402 124.483 61.4386 124.308 60.5514 124.084C60.2108 123.997 59.8206 123.906 59.8059 123.938C59.7913 123.97 60.0749 124.057 60.5353 124.177Z" fill="#063844"/>
<path d="M81.8919 114.721C87.9326 114.721 92.8296 113.983 92.8296 113.074C92.8296 112.164 87.9326 111.426 81.8919 111.426C75.8512 111.426 70.9542 112.164 70.9542 113.074C70.9542 113.983 75.8512 114.721 81.8919 114.721Z" fill="#063844"/>
<path d="M92.8413 113.074C92.8053 113.076 92.7702 113.086 92.7384 113.103C92.7067 113.121 92.6789 113.144 92.6571 113.173C92.5493 113.278 92.4242 113.364 92.2873 113.427C91.882 113.607 91.4579 113.742 91.0229 113.828C90.5844 113.924 90.1459 113.999 89.6987 114.062C88.81 114.185 87.9154 114.258 87.018 114.303C85.2086 114.388 83.396 114.377 81.5878 114.269C79.8499 114.169 78.1909 114.287 76.5436 114.205C75.7717 114.168 75.0026 114.087 74.24 113.962C73.8658 113.901 73.4931 113.828 73.1159 113.739C72.7305 113.65 72.3511 113.537 71.9802 113.4L71.8984 113.368C71.8691 113.356 71.8662 113.353 71.8501 113.346C71.834 113.338 71.7975 113.321 71.7727 113.306C71.7246 113.281 71.6795 113.251 71.6382 113.216C71.6171 113.2 71.5997 113.18 71.587 113.157C71.5744 113.134 71.5669 113.109 71.5651 113.082C71.5694 113.056 71.5797 113.03 71.5955 113.008C71.6112 112.985 71.6318 112.967 71.6557 112.954C71.7017 112.925 71.7508 112.902 71.8019 112.884L71.8721 112.859L71.9875 112.821C72.2185 112.746 72.4626 112.683 72.7184 112.626C73.7138 112.406 74.7574 112.262 75.7791 112.109C76.8207 111.972 77.8726 111.931 78.9217 111.986C79.9449 112.023 80.9681 112.091 82.1082 112.089C83.9864 112.089 85.9495 111.916 87.8496 111.992C88.6243 112.024 89.3786 112.078 90.1255 112.179C90.4982 112.229 90.8695 112.292 91.2364 112.375C91.6025 112.451 91.9593 112.567 92.3004 112.72C92.4298 112.782 92.5506 112.861 92.66 112.954C92.736 113.018 92.7565 113.066 92.831 113.074C92.8522 113.076 92.8734 113.071 92.8909 113.059C92.9084 113.047 92.9209 113.029 92.9261 113.008C92.9332 112.976 92.9338 112.942 92.9278 112.91C92.9218 112.878 92.9092 112.847 92.891 112.819C92.774 112.658 92.6132 112.534 92.4276 112.461C92.1501 112.333 91.8633 112.226 91.5696 112.141C91.2773 112.056 90.9849 111.982 90.7043 111.913C90.1196 111.777 89.5496 111.665 88.9693 111.568C87.7995 111.37 86.6155 111.268 85.4291 111.263C83.3594 111.271 81.6024 111.046 79.6423 111.233C78.473 111.349 77.5726 111.156 76.4603 111.223C75.842 111.269 75.227 111.351 74.6185 111.47C74.0193 111.58 73.4185 111.692 72.7403 111.798C72.5136 111.834 72.2891 111.883 72.0679 111.944C71.9583 111.975 71.8487 112.008 71.739 112.046C71.5948 112.097 71.4537 112.156 71.3166 112.223C71.04 112.338 70.8111 112.545 70.6676 112.808C70.6073 112.935 70.5974 113.081 70.6399 113.216C70.6849 113.346 70.7641 113.461 70.8693 113.55C71.1028 113.741 71.373 113.881 71.663 113.962C71.8837 114.031 72.0942 114.081 72.3106 114.129C72.7491 114.224 73.1788 114.303 73.6261 114.394C75.2763 114.721 76.8841 114.993 78.492 115.18C80.1191 115.389 81.7631 115.432 83.3988 115.309C84.9 115.179 86.5356 115.19 88.0645 114.842C88.7106 114.696 89.3435 114.55 89.9837 114.394C90.6448 114.246 91.2977 114.063 91.9394 113.845C92.1022 113.803 92.2619 113.75 92.4174 113.686C92.5886 113.615 92.7394 113.503 92.8559 113.359C92.899 113.3 92.9206 113.228 92.9173 113.156C92.9041 113.1 92.8749 113.074 92.8413 113.074Z" fill="#063844"/>
<path d="M70.846 113.074L69.1124 121.053C69.1124 121.053 81.6755 125.73 94.8876 121.053L92.7214 113.074C92.7214 113.074 83.1913 115.676 70.846 113.074Z" fill="white"/>
<path d="M71.2143 113.21C71.6528 113.292 72.0913 113.392 72.5298 113.479C72.7374 113.518 72.9449 113.56 73.1539 113.597L73.7825 113.688C73.9959 113.717 74.4417 113.81 74.6595 113.841L75.4122 113.948C75.7981 113.996 75.801 114.019 76.1884 114.068L77.3577 114.224C77.7641 114.268 78.1792 114.29 78.587 114.321L79.1717 114.366L79.464 114.389L79.7563 114.404C80.1758 114.423 80.5924 114.448 81.0134 114.455L81.392 114.462L81.7691 114.455L82.5248 114.436L83.8666 114.417L84.976 114.433H86.081C86.5575 114.433 87.0355 114.399 87.5193 114.378C87.8365 114.363 88.1566 114.332 88.4767 114.296L88.696 114.269C89.1345 114.218 89.573 114.139 89.9998 114.069C90.2526 114.03 90.5041 113.977 90.754 113.923C91.0039 113.869 91.2539 113.822 91.4995 113.762C91.8362 113.693 92.1682 113.603 92.4934 113.492C92.5026 113.506 92.5105 113.521 92.5168 113.537L92.5299 113.565V113.579V113.587L92.5387 113.615L92.6849 114.066L93.0035 115.1C93.0805 115.37 93.1585 115.64 93.2374 115.912C93.347 116.3 93.461 116.683 93.578 117.067L94.1202 118.852C94.1933 119.112 94.2664 119.369 94.3366 119.629C94.414 119.922 94.4974 120.196 94.5821 120.479L94.7137 120.917V120.94C94.7137 120.949 94.721 120.958 94.7137 120.958L94.6684 120.974L94.5748 121.008L94.357 121.082C93.9901 121.205 93.6262 121.335 93.2476 121.435C92.4495 121.667 91.6398 121.873 90.8285 122.019L90.2556 122.126C90.0655 122.165 89.8755 122.202 89.6811 122.234C89.3025 122.298 88.9269 122.38 88.5483 122.44C88.1391 122.499 87.7283 122.578 87.3147 122.62C86.901 122.662 86.5064 122.713 86.0971 122.732L85.5022 122.751C85.2873 122.751 85.0739 122.751 84.8591 122.751H83.124L82.4107 122.744C82.1725 122.744 81.9328 122.744 81.696 122.744C81.4592 122.744 81.1917 122.744 80.9403 122.744L80.1905 122.732C80.0019 122.732 79.8163 122.715 79.6277 122.696L79.2579 122.656C79.0723 122.639 78.8896 122.633 78.7054 122.62L78.1353 122.583C77.9117 122.569 77.6866 122.544 77.4615 122.525C77.2364 122.506 77.0128 122.485 76.7921 122.464C76.3448 122.426 75.9034 122.386 75.459 122.338C75.0512 122.29 74.6375 122.237 74.2268 122.17C73.7708 122.101 73.322 122.024 72.8704 121.939C72.4889 121.861 72.1205 121.772 71.7449 121.67C71.3692 121.568 71.014 121.462 70.6472 121.351L70.0625 121.168L69.7702 121.072L69.5144 120.986L69.3536 120.929C69.3593 120.873 69.3695 120.818 69.3843 120.764L69.5071 120.205C69.6883 119.375 69.8082 118.532 69.9938 117.701C70.1137 117.166 70.2204 116.634 70.3314 116.094C70.5127 115.363 70.5522 114.696 70.7524 113.813C70.8401 113.426 70.8986 113.082 70.8474 113.071C70.7963 113.059 70.7115 113.388 70.6267 113.787C70.3826 114.929 70.2379 115.452 69.9996 116.52C69.8871 117.026 69.7965 117.599 69.5977 118.516C69.4793 119.058 69.3185 119.588 69.2016 120.135C69.1153 120.539 69.0642 120.774 69.0276 120.945C69.0174 120.995 69.0072 121.038 68.9984 121.081L68.9911 121.111V121.12H69.0057L69.0613 121.142L69.2863 121.23L69.871 121.467C70.0406 121.535 70.2043 121.597 70.3914 121.654C70.8123 121.784 71.2465 121.901 71.6762 122L74.1377 122.548C74.5045 122.636 74.8787 122.709 75.2529 122.772C75.668 122.832 76.0715 122.918 76.4866 122.969C76.9017 123.02 77.311 123.079 77.7305 123.099C78.0959 123.117 78.4613 123.159 78.8282 123.174C78.9919 123.174 79.1556 123.174 79.3208 123.19H79.3485C79.6189 123.231 79.9098 123.262 80.1934 123.281L80.7576 123.323C81.1683 123.346 81.5805 123.342 81.9883 123.342C82.3961 123.342 82.7966 123.33 83.2001 123.316L83.6766 123.295H83.7599C83.906 123.305 84.0522 123.313 84.1984 123.313C84.3445 123.313 84.4907 123.304 84.6442 123.295C84.9365 123.276 85.2435 123.262 85.5343 123.232C85.5767 123.229 85.6187 123.222 85.66 123.212C86.0986 123.172 86.5371 123.137 86.9756 123.083L87.6333 123.01L88.2911 122.92C88.7983 122.857 89.3011 122.773 89.8054 122.693C90.3097 122.613 90.7905 122.504 91.2831 122.417L92.1177 122.244L92.5358 122.158L92.9494 122.059C93.2842 121.977 93.6247 121.898 93.958 121.794C94.3249 121.68 94.4857 121.63 95.2823 121.373L95.4051 121.332H95.4197C95.4197 121.332 95.4314 121.332 95.4197 121.322V121.291L95.4021 121.23L95.3364 120.983L95.2033 120.496C95.1551 120.332 95.1054 120.169 95.0572 120.005C94.9549 119.679 94.8525 119.355 94.7531 119.033C94.6684 118.767 94.5836 118.504 94.5003 118.241C94.4082 117.897 94.3249 117.536 94.2079 117.203C94.0793 116.833 93.9156 116.488 93.806 116.111C93.6964 115.734 93.6057 115.38 93.4873 115.032C93.3792 114.706 93.2652 114.354 93.1745 114.019L93.0284 113.461L92.9845 113.308L92.9363 113.148C92.9027 113.043 92.872 112.939 92.8384 112.84L92.7419 112.868L92.2259 113.014L91.8503 113.11C91.5915 113.158 91.3314 113.198 91.0712 113.243L90.2877 113.363C90.048 113.406 89.8039 113.436 89.5569 113.476C89.3099 113.515 89.0745 113.56 88.8363 113.596L87.7576 113.767L86.9843 113.859C86.7578 113.883 86.5327 113.911 86.3032 113.927C86.0109 113.945 85.7258 113.955 85.4393 113.968C84.8269 114.006 84.213 113.997 83.6006 114.014L83.162 114.027L82.7235 114.034L81.8465 114.062L81.4329 114.074C81.2867 114.074 81.1552 114.074 81.0178 114.074L80.1861 114.063C79.9274 114.063 79.6657 114.063 79.4055 114.049C79.1454 114.034 78.8837 114.018 78.6221 113.997C78.3297 113.976 78.0374 113.99 77.7348 113.967C77.4878 113.951 77.2393 113.926 76.9938 113.9C76.45 113.843 75.9121 113.768 75.3698 113.707C75.0775 113.663 74.7939 113.612 74.5104 113.582C74.2692 113.558 74.012 113.541 73.7708 113.514L73.1466 113.429L72.5269 113.315C72.065 113.229 71.6952 113.18 71.2362 113.094C71.0579 113.061 70.8547 113.033 70.8445 113.069C70.8343 113.106 70.9717 113.164 71.2143 113.21Z" fill="#063844"/>
<path d="M60.9124 85.508C61.456 85.3816 62.0059 85.284 62.5597 85.2157C62.8331 85.1733 63.1093 85.147 63.3827 85.1133L64.21 85.0344C64.761 84.9891 65.3135 84.9628 65.8675 84.9496C66.4232 84.9331 66.9794 84.9458 67.5338 84.9876C66.9928 85.1172 66.4454 85.2182 65.8938 85.2902C65.3462 85.3663 64.7966 85.4267 64.2451 85.4715L63.4163 85.5256C63.14 85.5358 62.8638 85.5534 62.5861 85.5563C62.0277 85.5696 61.4691 85.5535 60.9124 85.508Z" fill="#063844"/>
<path d="M60.3804 76.7512C60.9249 76.6428 61.4747 76.5638 62.0277 76.5144C62.3025 76.4822 62.5787 76.4676 62.8535 76.4442L63.6794 76.3989C64.2304 76.3755 64.7829 76.3712 65.3354 76.3799C65.8904 76.386 66.4446 76.4211 66.9959 76.4852C66.4513 76.5928 65.9014 76.6718 65.3486 76.7219C64.799 76.7755 64.2484 76.814 63.6969 76.8374L62.8696 76.8579C62.5933 76.8579 62.3186 76.8579 62.0408 76.8579C61.4859 76.8514 60.9316 76.8158 60.3804 76.7512Z" fill="#063844"/>
<path d="M60.9124 68.5174C61.457 68.4101 62.0069 68.3316 62.5597 68.2821C62.8345 68.2499 63.1108 68.2339 63.3856 68.2119L64.2114 68.1666C64.7639 68.1432 65.315 68.1389 65.8675 68.1476C66.4231 68.1553 66.9779 68.1928 67.5294 68.2602C66.9854 68.3679 66.436 68.4469 65.8836 68.497C65.3325 68.551 64.783 68.5905 64.2319 68.611L63.4031 68.6329C63.1283 68.6329 62.8521 68.6329 62.5758 68.6329C62.0197 68.6236 61.4645 68.5851 60.9124 68.5174Z" fill="#063844"/>
<path d="M60.9124 94.278C61.4558 94.1482 62.0057 94.0472 62.5597 93.9754C62.8331 93.933 63.1093 93.9067 63.3827 93.8716L64.21 93.7942C64.761 93.7474 65.3135 93.7211 65.8675 93.7079C66.4232 93.6914 66.9794 93.7041 67.5338 93.7459C66.993 93.8767 66.4456 93.9782 65.8938 94.05C65.3457 94.126 64.7961 94.1874 64.2451 94.2298L63.4163 94.2853C63.14 94.2955 62.8638 94.3131 62.5861 94.3146C62.0279 94.3311 61.4693 94.3189 60.9124 94.278Z" fill="#063844"/>
<path d="M60.5134 103.048C61.0543 102.919 61.6018 102.818 62.1534 102.746C62.4267 102.703 62.703 102.677 62.9778 102.643L63.8036 102.564C64.3547 102.519 64.9072 102.493 65.4611 102.48C66.0169 102.463 66.5731 102.476 67.1275 102.518C66.5865 102.647 66.0391 102.748 65.4875 102.82C64.9393 102.896 64.3897 102.966 63.8387 103.001L63.0099 103.056C62.7337 103.066 62.4574 103.083 62.1797 103.086C61.624 103.103 61.0678 103.09 60.5134 103.048Z" fill="#063844"/>
<path d="M60.5952 111.805C61.1125 111.676 61.6366 111.575 62.165 111.502C62.6912 111.423 63.2174 111.366 63.7451 111.321C64.2727 111.276 64.8033 111.245 65.3339 111.236C65.8672 111.219 66.4011 111.231 66.933 111.273C66.4158 111.403 65.8917 111.505 65.3632 111.577C64.837 111.656 64.3107 111.713 63.7816 111.758C63.2525 111.804 62.7248 111.833 62.1942 111.842C61.6609 111.858 61.1272 111.846 60.5952 111.805Z" fill="#063844"/>
<path d="M60.5952 119.507C61.1124 119.377 61.6365 119.276 62.165 119.204C62.6912 119.124 63.2174 119.067 63.7451 119.021C64.2727 118.976 64.8033 118.947 65.3339 118.937C65.8672 118.92 66.4011 118.933 66.933 118.975C66.4157 119.103 65.8916 119.203 65.3632 119.273C64.837 119.352 64.3107 119.409 63.7816 119.453C63.2525 119.496 62.7248 119.527 62.1942 119.537C61.6611 119.555 61.1273 119.545 60.5952 119.507Z" fill="#063844"/>
<path d="M67.0719 59.6993C66.5706 59.6993 66.0707 59.6833 65.5664 59.6818C65.0913 59.6818 64.6368 59.7052 64.1603 59.7081C63.9176 59.7081 63.3534 59.6979 63.1122 59.6979C62.8711 59.6979 62.4822 59.6979 62.2571 59.6979C61.8186 59.6979 61.845 59.7271 61.4065 59.7198C60.968 59.7125 60.5294 59.6979 60.0836 59.6876C59.6378 59.6774 59.1584 59.6803 58.6994 59.6789C58.2609 59.6789 57.8224 59.6701 57.3927 59.6657C56.9206 59.6657 56.4528 59.6482 55.9807 59.654C55.415 59.654 54.8508 59.6716 54.2852 59.6833C53.778 59.6935 53.2839 59.6906 52.7796 59.6833C51.9465 59.6511 51.1236 59.6073 50.3021 59.5634C49.7701 59.5356 49.2351 59.5152 48.6943 59.4962C48.3405 59.4845 47.981 59.4742 47.6229 59.4728C47.541 59.4728 47.4577 59.4728 47.3758 59.4728C47.1273 59.4728 46.8789 59.4728 46.6318 59.4815C45.9872 59.4713 45.3163 59.5561 44.679 59.5824C44.5957 59.5824 44.5109 59.5824 44.4276 59.5824L44.0067 59.5707C43.7933 59.5707 43.5857 59.5707 43.3767 59.578L42.7292 59.5956C42.2176 59.6058 41.706 59.6146 41.1973 59.6336C40.6887 59.6526 40.1888 59.6803 39.683 59.7023C39.2168 59.7227 38.7461 59.7388 38.274 59.7534L36.7188 59.8046C36.2803 59.8119 35.852 59.8046 35.4032 59.8046L34.1097 59.7841C33.1786 59.7739 32.2533 59.771 31.3237 59.7724C30.3663 59.7724 29.4089 59.8397 28.4515 59.8367C27.8347 59.8367 27.2222 59.8031 26.6098 59.809C25.7518 59.79 25.0166 59.8353 23.9978 59.8294C23.5505 59.8294 23.1588 59.847 23.1588 59.8967C23.1588 59.9464 23.5388 59.961 23.9978 59.9581C25.3133 59.9507 25.9257 60.0384 27.1579 60.0399C27.7426 60.0399 28.3945 60.0501 29.4498 60.0472C30.0769 60.0472 30.6981 60.0881 31.3281 60.0852C32.1919 60.0852 32.3308 60.075 32.6553 60.0852C33.1523 60.1086 33.5001 60.151 33.9357 60.1554C34.4298 60.1554 34.934 60.1554 35.4266 60.1554C36.3665 60.1364 37.3268 60.1232 38.2564 60.1554C38.6789 60.17 39.1057 60.1817 39.531 60.1773C40.0017 60.1773 40.4621 60.1919 40.9298 60.1905C41.3976 60.189 41.8624 60.1905 42.3316 60.1656C42.7409 60.1408 43.1589 60.1539 43.5667 60.132C43.7494 60.1232 43.9321 60.1159 44.1178 60.113H44.1499C44.4554 60.1349 44.7828 60.1422 45.1015 60.151C45.309 60.151 45.5224 60.1627 45.7344 60.1656C46.1597 60.1656 46.3117 60.1656 46.702 60.1481C46.8292 60.1481 47.3802 60.1262 47.5059 60.1218C47.7135 60.1218 47.9181 60.132 48.1447 60.1218C48.5466 60.1028 48.9413 60.0618 49.3418 60.0414C49.5508 60.0414 49.7569 60.0414 49.9688 60.0414C50.2948 60.0414 50.6208 60.0501 50.9452 60.0545C51.6366 60.0662 52.3294 60.0823 53.0223 60.0896C53.6903 60.0969 54.3597 60.0794 55.0204 60.0604C55.6431 60.0414 56.2701 60.0414 56.8957 60.0268C57.4804 60.0151 58.0724 60.0063 58.6629 60.0107C58.9961 60.0107 59.3309 59.9771 59.6641 59.98C59.9448 59.98 60.224 59.98 60.5046 59.98C61.1214 59.98 61.7017 59.9391 62.3185 59.9434C62.6474 59.9434 62.9763 59.9537 63.2993 59.9434C63.5727 59.9332 63.8928 59.8718 64.1676 59.8645C64.6411 59.8645 65.1118 59.8543 65.5868 59.8528C66.1189 59.8528 66.5369 59.8294 67.0646 59.828C67.2678 59.828 67.5031 59.8104 67.5031 59.771C67.5031 59.7315 67.3496 59.6979 67.0719 59.6993Z" fill="#063844"/>
<path d="M28.2103 55.2177C27.2078 55.2255 26.2077 55.1176 25.23 54.8961C24.454 54.7291 23.6987 54.4777 22.9775 54.1463L23.2699 50.4248C24.0113 50.8121 24.7838 51.1367 25.5793 51.3954C26.2911 51.6371 27.0363 51.7658 27.7879 51.7769C28.5314 51.7769 29.0674 51.6263 29.3957 51.3252C29.7241 51.0241 29.8869 50.592 29.8839 50.0287C29.8839 49.444 29.6925 49.0099 29.3095 48.7264C28.9265 48.4428 28.3906 48.3015 27.7017 48.3025C27.3308 48.3042 26.9611 48.3434 26.5981 48.4194C26.2167 48.4997 25.8509 48.6414 25.515 48.8389L23.761 48.7103V40.1317H33.4724V43.6485H27.4166C27.4166 43.9408 27.4035 44.2229 27.3962 44.5124C27.3889 44.8018 27.3816 45.097 27.3742 45.3894L27.364 46.053H27.6564C27.9921 45.8892 28.3445 45.7618 28.7073 45.6729C29.0864 45.5817 29.4751 45.5366 29.8649 45.5385C30.6181 45.525 31.3628 45.6983 32.0326 46.0427C32.6857 46.3875 33.223 46.9166 33.5776 47.5643C33.9596 48.2396 34.1506 49.0742 34.1506 50.0682C34.1707 51.001 33.9529 51.9236 33.5177 52.7489C33.0757 53.5431 32.3951 54.1782 31.5722 54.5643C30.6903 54.9999 29.5697 55.2177 28.2103 55.2177Z" fill="#063844"/>
<path d="M36.9468 55.2177C37.0257 54.5473 37.1085 53.8676 37.1952 53.1787C37.282 52.4898 37.3745 51.7458 37.473 50.9467L38.0372 46.4886C38.1346 45.6935 38.2287 44.9368 38.3193 44.2186C38.4099 43.5005 38.501 42.7696 38.5926 42.0261H42.4383C42.6858 42.679 42.9187 43.2973 43.137 43.881L43.7889 45.6145L45.0839 49.0349H45.3236L46.5354 45.6233C46.7439 45.0445 46.949 44.471 47.1507 43.9029C47.3524 43.3348 47.5727 42.7092 47.8114 42.0261H51.5971C51.6946 42.7599 51.792 43.4844 51.8895 44.1996C51.9869 44.9149 52.0844 45.6793 52.1818 46.493L52.7665 50.9497C52.8703 51.7565 52.9667 52.499 53.0588 53.1729C53.1509 53.8467 53.2313 54.5278 53.3175 55.2119H49.6926C49.5951 54.4245 49.5026 53.6771 49.4149 52.9697C49.3272 52.2622 49.2458 51.6001 49.1708 50.9833L48.8375 48.3201H48.5876L47.7369 51.1777C47.5283 51.8812 47.3203 52.576 47.1127 53.262L46.5281 55.2177H44.0198C43.8045 54.6029 43.5721 53.9466 43.3226 53.2489C43.0731 52.5512 42.8247 51.8608 42.5771 51.1777L41.554 48.3201H41.3055L40.981 50.9511C40.9079 51.5796 40.8265 52.2515 40.7369 52.9668C40.6472 53.682 40.5561 54.4309 40.4636 55.2134L36.9468 55.2177Z" fill="#063844"/>
<path d="M106.549 76.0672L105.528 76.7565C105.273 76.9286 105.206 77.2748 105.378 77.5297L130.654 114.975C130.826 115.23 131.172 115.297 131.427 115.125L132.448 114.435C132.703 114.263 132.77 113.917 132.598 113.662L107.322 76.2172C107.15 75.9622 106.804 75.8951 106.549 76.0672Z" fill="#063844"/>
<path d="M132.755 113.945C132.75 113.852 132.724 113.762 132.679 113.68C132.631 113.6 132.587 113.534 132.533 113.467L132.261 113.052C132.079 112.776 131.897 112.498 131.715 112.22L130.674 110.649C130.493 110.383 130.14 109.808 129.961 109.542C129.781 109.276 129.493 108.854 129.331 108.605C129.013 108.12 129.028 108.103 128.711 107.619C128.394 107.135 128.078 106.639 127.762 106.148C127.447 105.657 127.087 105.125 126.751 104.625L125.792 103.194C125.45 102.674 125.114 102.154 124.761 101.639C124.338 101.025 123.913 100.411 123.488 99.7959C123.105 99.2448 122.744 98.7011 122.383 98.1412C121.799 97.2102 121.226 96.2835 120.657 95.3641C120.289 94.7648 119.912 94.164 119.527 93.5618C119.277 93.1672 119.021 92.7681 118.758 92.372L118.577 92.1031L117.475 90.4952C117.047 89.874 116.618 89.2557 116.186 88.6491C115.522 87.7195 114.87 86.8001 114.199 85.8719L113.268 84.5564L112.549 83.5157L111.526 82.0438L109.925 79.7738L109.254 78.7843C109.009 78.4203 108.757 78.0534 108.506 77.7026L107.525 76.276C107.483 76.2105 107.438 76.147 107.389 76.086C107.33 76.0171 107.258 75.9605 107.177 75.9194C107.013 75.8364 106.823 75.8211 106.648 75.877C106.605 75.8908 106.564 75.9089 106.524 75.9311L106.467 75.9647L106.422 75.9954L106.24 76.1167L105.879 76.3579L105.491 76.6166L105.441 76.6502L105.382 76.6941C105.345 76.7263 105.311 76.7621 105.28 76.8008C105.22 76.8795 105.177 76.9695 105.153 77.0653C105.129 77.1615 105.126 77.2614 105.144 77.3588C105.161 77.4562 105.199 77.5489 105.254 77.631L105.51 78.0198C105.852 78.5373 106.19 79.0566 106.526 79.578C106.841 80.0691 107.154 80.55 107.484 81.0396L108.453 82.4648L109.501 84.0083C109.842 84.5155 110.175 85.0227 110.509 85.5358L110.981 86.2929C111.149 86.5677 111.314 86.8396 111.482 87.1129C111.929 87.8389 112.391 88.5668 112.868 89.2966C113.255 89.8915 113.657 90.4938 114.056 91.0828C114.483 91.7143 114.916 92.3223 115.348 92.9377C115.509 93.1716 115.664 93.404 115.819 93.6422L116.111 94.1114C116.257 94.3467 116.423 94.5704 116.582 94.7969L117.073 95.4985C117.457 96.054 117.843 96.6138 118.232 97.1575L119.401 98.78L120.482 100.297L121.67 101.975C121.999 102.453 122.315 102.924 122.635 103.412L123.572 104.842C124.247 105.865 124.927 106.888 125.618 107.911C126.324 108.959 127.08 109.974 127.789 111.026C128.242 111.704 128.701 112.369 129.158 113.039C129.467 113.514 129.776 113.939 130.104 114.385L130.615 115.082C130.701 115.183 130.816 115.255 130.944 115.287C131.072 115.32 131.207 115.311 131.33 115.263C131.373 115.246 131.413 115.225 131.451 115.2L131.555 115.13C132.048 114.803 132.467 114.497 132.432 114.455C132.397 114.413 131.979 114.683 131.476 115.024C131.401 115.086 131.313 115.134 131.219 115.162C131.136 115.183 131.049 115.182 130.967 115.159C130.885 115.135 130.81 115.092 130.75 115.031C130.696 114.966 130.648 114.898 130.604 114.826L130.089 114.011L128.961 112.303C128.531 111.662 128.021 110.965 127.242 109.81C126.779 109.123 126.355 108.417 125.888 107.728C125.248 106.783 125.141 106.634 124.916 106.267C124.57 105.708 124.348 105.303 124.031 104.824C123.671 104.28 123.3 103.726 122.927 103.191C122.22 102.168 121.505 101.132 120.843 100.088C120.543 99.6161 120.238 99.141 119.922 98.6762C119.572 98.1632 119.248 97.653 118.899 97.1341C118.549 96.6153 118.215 96.111 117.845 95.6111C117.523 95.1726 117.226 94.7092 116.908 94.2751C116.762 94.0807 116.624 93.8819 116.485 93.6817L116.463 93.6437C116.257 93.2972 116.025 92.9348 115.794 92.5796C115.648 92.3486 115.491 92.1133 115.339 91.8765C115.005 91.3678 114.657 90.868 114.316 90.371L113.293 88.8932L112.893 88.3086L112.831 88.2019C112.406 87.471 111.874 86.7226 111.39 86.0093C111.355 85.9585 111.318 85.9097 111.277 85.8632C110.546 84.7815 109.818 83.696 109.095 82.6066C108.681 81.9737 108.268 81.3451 107.854 80.7064L106.642 78.8457L105.972 77.7786L105.805 77.5141L105.72 77.3811L105.7 77.3474L105.689 77.3314C105.685 77.3234 105.682 77.3151 105.679 77.3065C105.669 77.2756 105.668 77.2423 105.676 77.2107C105.684 77.1792 105.701 77.1505 105.725 77.1282C105.731 77.1219 105.738 77.1161 105.745 77.1107H105.758L105.793 77.0887L105.955 76.9864L106.277 76.7803L106.6 76.5713L106.761 76.4661L106.797 76.4427H106.808L106.828 76.4354C106.856 76.4259 106.885 76.4259 106.913 76.4354C106.925 76.4414 106.936 76.4493 106.946 76.4588C106.952 76.4634 106.956 76.4688 106.96 76.4748V76.4836L106.986 76.5216L107.41 77.1662C107.97 78.0184 108.579 78.8471 109.154 79.6613C109.396 79.9975 109.636 80.3337 109.874 80.6655C110.167 81.104 110.468 81.5702 110.78 81.9912C111.128 82.4575 111.491 82.8857 111.831 83.3637C112.153 83.8183 112.46 84.2904 112.787 84.7391C113.088 85.1513 113.411 85.5957 113.701 86.0254L114.174 86.7416C114.321 86.9697 114.487 87.1801 114.645 87.4009L115.316 88.348C115.743 89.0102 116.17 89.6738 116.605 90.333C117.007 90.941 117.427 91.552 117.842 92.1396L118.786 93.4712L119.451 94.4242L120.026 95.2691C120.262 95.6286 120.499 95.9897 120.733 96.3478L122.236 98.6455C122.721 99.3764 123.23 100.107 123.732 100.82L125.141 102.867C125.58 103.503 126.026 104.147 126.457 104.796C126.701 105.165 126.977 105.511 127.22 105.879C127.426 106.185 127.634 106.493 127.841 106.799C128.294 107.476 128.733 108.157 129.183 108.835C129.424 109.197 129.659 109.566 129.914 109.909C130.123 110.202 130.352 110.51 130.563 110.805L131.62 112.358C131.815 112.65 131.995 112.906 132.175 113.161L132.447 113.55C132.491 113.616 132.542 113.686 132.581 113.75C132.622 113.817 132.645 113.893 132.649 113.971C132.656 114.091 132.624 114.21 132.559 114.31C132.505 114.398 132.444 114.445 132.454 114.464C132.464 114.483 132.524 114.474 132.6 114.399C132.658 114.34 132.702 114.268 132.729 114.19C132.756 114.111 132.765 114.027 132.755 113.945Z" fill="#063844"/>
<path d="M117.14 117.215L138.646 105.84C138.987 105.626 139.361 105.47 139.752 105.378C142.968 104.603 147.708 107.698 150.997 112.939C154.689 118.823 155.145 125.184 152.02 127.147L130.146 139.562" fill="#BADFD8"/>
<path d="M130.865 139.219L133.251 137.89C134.004 137.466 134.712 137.039 135.459 136.611L137.12 135.683L138.469 134.92C139.165 134.535 139.106 134.527 139.802 134.141L141.908 132.988C142.639 132.586 143.37 132.168 144.101 131.76L146.171 130.604C146.917 130.187 147.663 129.779 148.407 129.352L151.069 127.813L151.664 127.471C151.865 127.363 152.06 127.244 152.248 127.113C152.631 126.842 152.963 126.505 153.229 126.119C153.455 125.802 153.641 125.459 153.783 125.096C153.929 124.74 154.042 124.372 154.121 123.995C154.277 123.247 154.344 122.483 154.319 121.72C154.309 121.225 154.268 120.732 154.197 120.243C154.131 119.751 154.031 119.264 153.917 118.782C153.765 118.14 153.573 117.508 153.344 116.89C153.293 116.744 153.239 116.598 153.181 116.465C153.096 116.251 153.008 116.041 152.913 115.833C152.818 115.626 152.726 115.417 152.621 115.211C152.367 114.667 152.079 114.14 151.759 113.634C151.443 113.12 151.101 112.625 150.762 112.144C150.675 112.017 150.594 111.888 150.504 111.763C150.358 111.548 150.212 111.336 150.066 111.13C149.953 110.972 149.835 110.82 149.714 110.671C149.592 110.522 149.47 110.378 149.345 110.232C149.088 109.93 148.821 109.637 148.547 109.355C147.903 108.669 147.205 108.036 146.46 107.462C145.723 106.894 144.929 106.404 144.091 106.001C143.316 105.622 142.489 105.362 141.636 105.23C141.162 105.165 140.681 105.165 140.207 105.23C139.732 105.292 139.273 105.441 138.852 105.669C138.764 105.716 138.674 105.774 138.593 105.815L138.332 105.961L137.81 106.239L136.754 106.789L134.67 107.864C133.17 108.642 131.685 109.421 130.193 110.203C128.658 111.014 127.151 111.881 125.612 112.688C124.621 113.208 123.623 113.696 122.642 114.221C121.258 114.929 120.099 115.589 118.46 116.447C117.741 116.823 117.121 117.178 117.145 117.218C117.168 117.257 117.785 116.952 118.521 116.56C120.629 115.442 121.651 115.002 123.63 113.962C124.568 113.468 125.618 112.919 127.313 112.03C128.318 111.498 129.335 111.007 130.345 110.475C131.729 109.744 131.953 109.618 132.478 109.358C133.287 108.959 133.865 108.7 134.565 108.335C135.36 107.921 136.173 107.494 136.956 107.068L139.203 105.86C139.945 105.548 140.765 105.465 141.555 105.624C142.283 105.761 142.99 105.995 143.656 106.318C144.398 106.679 145.101 107.113 145.755 107.614C146.419 108.117 147.053 108.657 147.656 109.231C148.184 109.744 148.684 110.285 149.152 110.852L149.467 111.231L149.769 111.621L149.803 111.67C150.107 112.125 150.43 112.613 150.727 113.101C150.917 113.423 151.108 113.75 151.291 114.085C151.652 114.755 151.782 114.99 152.095 115.616C152.147 115.718 152.276 115.991 152.399 116.267C152.522 116.544 152.636 116.824 152.679 116.928C152.748 117.101 152.808 117.275 152.871 117.453C152.934 117.631 152.988 117.815 153.057 118.005C153.298 118.675 153.498 119.358 153.656 120.052C153.687 120.234 153.72 120.417 153.748 120.601C153.776 120.785 153.801 120.971 153.815 121.158C153.873 121.734 153.883 122.313 153.844 122.89C153.806 123.497 153.692 124.096 153.505 124.674C153.412 124.957 153.295 125.233 153.154 125.496C153.077 125.621 153.008 125.755 152.922 125.872C152.878 125.931 152.839 125.993 152.795 126.05L152.649 126.219C152.603 126.273 152.555 126.325 152.503 126.373C152.453 126.423 152.405 126.474 152.356 126.52C152.253 126.612 152.145 126.699 152.032 126.78L151.862 126.898L151.665 127.011L151.272 127.237L149.712 128.148L146.768 129.852C145.849 130.384 144.919 130.919 143.991 131.443C143.464 131.735 142.953 132.068 142.424 132.363L141.099 133.115C140.127 133.666 139.228 134.22 138.254 134.766C137.731 135.059 137.209 135.351 136.705 135.643C136.279 135.896 135.803 136.237 135.373 136.487L133.137 137.766L130.817 139.106C130.496 139.289 130.139 139.511 130.152 139.545C130.165 139.578 130.427 139.469 130.865 139.219Z" fill="#063844"/>
<path d="M130.101 139.627C126.971 141.59 121.442 138.412 117.751 132.529C114.06 126.645 113.603 120.283 116.728 118.32C117.069 118.106 117.443 117.95 117.834 117.856C121.05 117.083 125.79 120.178 129.079 125.418C132.774 131.302 133.23 137.664 130.101 139.627Z" fill="#063844"/>
<path d="M130.107 139.637C130.003 139.473 129.733 139.713 129.171 139.89C128.589 140.056 127.979 140.101 127.378 140.024C126.775 139.943 126.186 139.785 125.624 139.554C124.5 139.078 123.455 138.434 122.525 137.643C120.651 136.075 119.121 134.107 117.919 131.943C117.627 131.427 117.357 130.919 117.095 130.403C116.833 129.887 116.58 129.38 116.347 128.863C115.873 127.845 115.501 126.782 115.236 125.691C115.113 125.173 115.027 124.647 114.98 124.117C114.931 123.607 114.923 123.094 114.955 122.583C114.99 122.073 115.078 121.567 115.218 121.075C115.359 120.567 115.583 120.086 115.883 119.653C116.247 119.123 116.754 118.708 117.345 118.454C117.493 118.393 117.645 118.341 117.799 118.301C117.877 118.28 117.956 118.263 118.036 118.25C118.117 118.236 118.194 118.216 118.276 118.212C118.603 118.17 118.934 118.166 119.263 118.2C119.599 118.231 119.932 118.291 120.258 118.38C120.59 118.467 120.916 118.576 121.234 118.704C121.878 118.965 122.499 119.279 123.091 119.643C123.708 120.021 124.284 120.462 124.811 120.958C125.317 121.433 125.79 121.943 126.226 122.483C127.115 123.605 127.929 124.784 128.664 126.013C128.998 126.55 129.322 127.101 129.635 127.664C129.945 128.227 130.246 128.801 130.512 129.392C131.067 130.564 131.481 131.798 131.744 133.068C131.948 134.078 131.997 135.113 131.89 136.138C131.832 136.643 131.711 137.139 131.529 137.614C131.35 138.093 131.081 138.534 130.737 138.912C130.576 139.084 130.398 139.236 130.268 139.35C130.137 139.464 130.053 139.559 130.089 139.618C130.177 139.764 130.516 139.561 130.949 139.1C131.504 138.472 131.902 137.72 132.109 136.908C132.322 136.113 132.424 135.293 132.413 134.47C132.392 132.816 132.06 131.182 131.435 129.651C131.169 128.986 130.895 128.354 130.61 127.751C130.325 127.147 130.032 126.555 129.712 125.986C129.085 124.829 128.323 123.75 127.444 122.771C126.894 122.171 126.439 121.623 125.973 121.093C125.501 120.537 124.98 120.026 124.415 119.565C123.728 119.033 122.98 118.586 122.186 118.234C121.37 117.862 120.513 117.591 119.632 117.425C118.992 117.304 118.333 117.325 117.701 117.487C117.39 117.571 117.091 117.694 116.81 117.852C116.671 117.929 116.538 118.017 116.412 118.115C116.349 118.165 116.284 118.21 116.224 118.261L116.048 118.422C115.6 118.859 115.247 119.385 115.012 119.966C114.771 120.545 114.603 121.152 114.511 121.772C114.335 122.923 114.321 124.093 114.47 125.248C114.535 125.815 114.629 126.378 114.753 126.935C114.875 127.489 115.019 128.038 115.192 128.578C115.875 130.77 116.977 132.81 118.435 134.584C119.119 135.425 119.852 136.226 120.628 136.982C121.026 137.367 121.446 137.728 121.886 138.064C122.322 138.399 122.785 138.698 123.269 138.959C124.072 139.399 124.92 139.754 125.798 140.017C126.241 140.148 126.696 140.24 127.156 140.292C127.628 140.348 128.106 140.342 128.578 140.276C128.807 140.258 129.034 140.22 129.258 140.165C129.377 140.128 129.494 140.086 129.608 140.037C129.709 139.995 129.807 139.946 129.901 139.891C130.054 139.786 130.145 139.695 130.107 139.637Z" fill="#063844"/>
<path d="M64.6937 28.111L60.1728 25.9799L60.5367 25.6378" fill="#063844"/>
<path d="M60.4578 25.6335C60.4125 25.6759 60.3555 25.7051 60.3117 25.7446C60.2678 25.7841 60.2415 25.8381 60.1991 25.8805C60.186 25.8937 60.1553 25.9141 60.1319 25.9317L60.0573 25.9828L60.148 26.0384L60.1874 26.0618C60.2207 26.075 60.2529 26.0906 60.2839 26.1085C60.3292 26.1392 60.3409 26.1085 60.3862 26.1363C60.4315 26.1641 60.4754 26.205 60.5192 26.2386C60.566 26.2706 60.6148 26.2994 60.6654 26.3249C60.7136 26.3512 60.7589 26.3804 60.8115 26.4096C60.8578 26.4433 60.9066 26.4731 60.9577 26.4988C61.0235 26.5237 61.0907 26.5456 61.1594 26.566C61.219 26.5858 61.2748 26.6155 61.3246 26.6537C61.4021 26.7298 61.4708 26.8145 61.5468 26.8993C61.5923 26.9511 61.6412 26.9999 61.6929 27.0455C61.7257 27.0769 61.762 27.1043 61.8011 27.1273L61.8289 27.1405L61.9151 27.1741C61.9823 27.2194 62.092 27.1741 62.1738 27.1916C62.1836 27.1961 62.1929 27.2015 62.2016 27.2077L62.2425 27.2428C62.2648 27.2568 62.2897 27.2662 62.3156 27.2706L62.3945 27.291C62.4551 27.3125 62.5171 27.3296 62.5802 27.3422C62.6445 27.3539 62.7117 27.3568 62.7775 27.3641C62.8375 27.3717 62.897 27.3825 62.9558 27.3963L63.1502 27.4372C63.2016 27.4553 63.2506 27.4794 63.2964 27.5088L63.4309 27.5994C63.5271 27.6622 63.6267 27.7198 63.729 27.7719C63.8357 27.8231 63.9702 27.8172 64.0755 27.8742C64.1371 27.9198 64.201 27.9623 64.2669 28.0014C64.3622 28.0483 64.4597 28.0902 64.5593 28.1271C64.609 28.1549 64.6601 28.1593 64.6821 28.114C64.704 28.0686 64.6674 28.035 64.6148 28.0116C64.4686 27.9444 64.435 27.8319 64.2991 27.7617C64.2348 27.7281 64.1661 27.6842 64.0477 27.6272C63.9775 27.5951 63.9278 27.522 63.8562 27.4898C63.7583 27.4445 63.7407 27.443 63.71 27.4109C63.6793 27.3787 63.6443 27.3042 63.5975 27.2764C63.5452 27.2437 63.4893 27.2172 63.4309 27.1975C63.3205 27.1673 63.2179 27.114 63.1298 27.0411C63.0915 27.0034 63.047 26.9728 62.9982 26.9505C62.9441 26.9271 62.9003 26.8847 62.852 26.8613C62.8021 26.8301 62.7455 26.8111 62.6869 26.8058C62.6313 26.8058 62.5904 26.7692 62.5407 26.7663C62.5168 26.765 62.4933 26.7606 62.4705 26.7531C62.4453 26.7196 62.4153 26.6901 62.3814 26.6654C62.3608 26.6482 62.3394 26.6321 62.3171 26.6172C62.2837 26.5934 62.244 26.5802 62.2031 26.5792C62.1855 26.5792 62.1183 26.5617 62.1022 26.5587C62.0861 26.5558 62.0613 26.5251 62.032 26.5222C61.9794 26.5222 61.918 26.531 61.8654 26.5222C61.8409 26.5135 61.817 26.5032 61.7938 26.4915C61.7587 26.4725 61.7251 26.4462 61.6915 26.4243C61.6199 26.376 61.5453 26.3219 61.4766 26.2781C61.4032 26.2379 61.3237 26.2097 61.2413 26.1948C61.1653 26.1758 61.0951 26.1422 61.0191 26.1217C60.9492 26.1001 60.8817 26.0717 60.8174 26.0369C60.7809 26.0165 60.7282 26.0296 60.6932 26.0091C60.663 25.992 60.6318 25.9769 60.5996 25.9638C60.5309 25.9302 60.4534 25.9346 60.3818 25.8951C60.3486 25.8717 60.3115 25.8544 60.2722 25.844C60.2645 25.8425 60.2565 25.8425 60.2488 25.844L60.2868 26.091C60.2941 26.0574 60.2868 26.0062 60.3058 25.9843C60.3453 25.9405 60.3862 25.8995 60.4286 25.8586C60.471 25.8177 60.5002 25.7621 60.5484 25.7124C60.5536 25.7074 60.5577 25.7014 60.5605 25.6947C60.5633 25.6881 60.5648 25.6809 60.5648 25.6737C60.5648 25.6665 60.5633 25.6593 60.5605 25.6527C60.5577 25.646 60.5536 25.64 60.5484 25.635C60.5031 25.5999 60.4841 25.6101 60.4578 25.6335Z" fill="#063844"/>
<path d="M74.5601 22.8197L73.3162 17.9786L73.8117 18.0415" fill="#063844"/>
<path d="M73.7649 17.9786C73.7035 17.9786 73.645 17.9449 73.5836 17.9333C73.5222 17.9216 73.4667 17.9333 73.4068 17.9333C73.3791 17.9287 73.3517 17.9224 73.3249 17.9143L73.2372 17.8894L73.2518 17.9961C73.2539 18.0114 73.2568 18.0265 73.2606 18.0414C73.2713 18.0748 73.2791 18.109 73.284 18.1437C73.284 18.1993 73.3234 18.1876 73.3293 18.2417C73.3351 18.2958 73.3293 18.3542 73.3293 18.4098C73.3355 18.4668 73.3452 18.5235 73.3585 18.5793C73.3688 18.6319 73.3761 18.686 73.3819 18.7401C73.3864 18.7988 73.3962 18.8571 73.4111 18.914C73.4331 18.9798 73.4594 19.0456 73.4871 19.1114C73.5103 19.1695 73.5227 19.2315 73.5237 19.2941C73.5145 19.4045 73.4988 19.5143 73.4769 19.6229C73.4656 19.6931 73.4592 19.7639 73.4579 19.8349C73.452 19.8795 73.452 19.9247 73.4579 19.9694C73.4597 19.9797 73.4621 19.99 73.4652 20.0001C73.474 20.0293 73.4842 20.0585 73.4945 20.0878C73.5018 20.1682 73.6041 20.2339 73.6406 20.2982V20.3289V20.383C73.6431 20.4094 73.6516 20.4349 73.6655 20.4576L73.7005 20.5306C73.7221 20.5914 73.748 20.6505 73.778 20.7075C73.8116 20.7631 73.8526 20.8171 73.8891 20.8727C73.9256 20.9282 73.949 20.9779 73.9768 21.0305L74.0703 21.2059C74.089 21.2568 74.1013 21.3099 74.1069 21.3638C74.1069 21.4179 74.1171 21.472 74.123 21.5246C74.1395 21.6392 74.1619 21.7529 74.1902 21.8652C74.218 21.9792 74.3086 22.08 74.3364 22.1955C74.3408 22.2724 74.3491 22.3489 74.3612 22.425C74.3862 22.5304 74.4169 22.6343 74.4533 22.7363C74.4635 22.7904 74.4942 22.8328 74.5425 22.8211C74.5907 22.8094 74.5936 22.7582 74.579 22.7042C74.5337 22.5463 74.6024 22.4513 74.5702 22.3022C74.5542 22.2306 74.5454 22.156 74.5118 22.023C74.4928 21.947 74.5118 21.8622 74.4972 21.7862C74.4679 21.6839 74.4592 21.6678 74.465 21.6254C74.483 21.5695 74.4938 21.5116 74.4972 21.453C74.489 21.3913 74.4733 21.331 74.4504 21.2732C74.3989 21.167 74.3719 21.0506 74.3715 20.9326C74.3755 20.8786 74.3706 20.8242 74.3568 20.7718C74.3393 20.7163 74.3451 20.6564 74.3305 20.6008C74.3213 20.5422 74.2994 20.4863 74.2662 20.4371C74.2326 20.3933 74.2326 20.3392 74.2004 20.2909C74.1862 20.2715 74.1744 20.2504 74.1654 20.2281C74.1752 20.1875 74.1787 20.1455 74.1756 20.1038C74.177 20.0771 74.177 20.0502 74.1756 20.0234C74.1711 19.9825 74.1554 19.9436 74.1303 19.9109C74.1215 19.8977 74.0908 19.8349 74.0835 19.8203C74.0762 19.8057 74.0835 19.7677 74.066 19.7428C74.0484 19.718 73.9856 19.6624 73.9549 19.6186C73.946 19.5942 73.9387 19.5693 73.933 19.544C73.9263 19.5039 73.9219 19.4634 73.9198 19.4227C73.911 19.3365 73.9081 19.2488 73.8949 19.1625C73.8794 19.0805 73.8508 19.0015 73.8102 18.9287C73.7751 18.8585 73.7576 18.7825 73.7254 18.7109C73.6961 18.6439 73.6745 18.5737 73.6611 18.5018C73.6538 18.4609 73.6099 18.4288 73.6041 18.3878C73.5975 18.3537 73.5888 18.32 73.5778 18.287C73.5617 18.2124 73.5047 18.1525 73.493 18.0765C73.4895 18.0356 73.4792 17.9955 73.4623 17.9581C73.4582 17.9512 73.4527 17.9452 73.4462 17.9406L73.2971 18.1247C73.3278 18.1087 73.3629 18.0721 73.3907 18.0707C73.4506 18.0707 73.5076 18.0707 73.5661 18.0853C73.6245 18.0999 73.6859 18.0853 73.7517 18.0853C73.7588 18.0863 73.7661 18.0858 73.7731 18.0839C73.78 18.082 73.7865 18.0787 73.7921 18.0742C73.7978 18.0696 73.8024 18.064 73.8058 18.0576C73.8091 18.0512 73.8111 18.0442 73.8116 18.037C73.8146 17.9903 73.7999 17.9786 73.7649 17.9786Z" fill="#063844"/>
<path d="M86.3003 22.7349C87.0618 21.0876 87.7444 19.5645 88.506 17.9114L86.3003 22.7349Z" fill="#063844"/>
<path d="M88.4313 17.9406C88.4064 17.9947 88.364 18.0415 88.3363 18.0941C88.3085 18.1467 88.3085 18.2037 88.2866 18.2563C88.2749 18.2826 88.2339 18.3382 88.2223 18.3645C88.2094 18.396 88.1948 18.4267 88.1784 18.4566C88.1492 18.5004 88.1784 18.5136 88.1536 18.5574C88.1287 18.6013 88.0863 18.6422 88.0542 18.6861C88.0245 18.7331 87.9976 18.7819 87.9738 18.8322C87.9489 18.8775 87.9212 18.9229 87.8934 18.9667C87.86 19.0122 87.8315 19.0612 87.8086 19.1129C87.7838 19.1757 87.7648 19.2415 87.7458 19.3073C87.7287 19.3653 87.7003 19.4194 87.6624 19.4666C87.5868 19.5428 87.5073 19.615 87.4242 19.6829C87.3715 19.7275 87.3226 19.7763 87.278 19.8291C87.2475 19.8608 87.221 19.8961 87.1991 19.9343L87.1859 19.9606C87.1743 19.9884 87.1655 20.0162 87.1553 20.044C87.1129 20.1083 87.1553 20.2164 87.145 20.2954L87.1289 20.3217L87.0953 20.3611C87.0814 20.3828 87.0725 20.4073 87.069 20.4328L87.0515 20.5088C87.0316 20.5675 87.016 20.6276 87.0047 20.6886C86.9959 20.7514 86.9945 20.8172 86.9886 20.8815C86.9852 20.9373 86.9789 20.9929 86.9696 21.0481C86.9565 21.111 86.9477 21.1738 86.9345 21.2367C86.9181 21.2882 86.895 21.3373 86.8658 21.3828C86.8366 21.4267 86.8074 21.4705 86.7796 21.5144C86.7218 21.6087 86.6696 21.7063 86.6232 21.8067C86.575 21.9105 86.5837 22.0406 86.5311 22.1415C86.4865 22.2013 86.4455 22.2638 86.4083 22.3286C86.347 22.4119 86.3484 22.5098 86.29 22.6209C86.2651 22.6691 86.2622 22.7188 86.3075 22.7393C86.3528 22.7597 86.385 22.7261 86.4069 22.675C86.4697 22.5288 86.5808 22.501 86.6481 22.3695C86.6788 22.3081 86.7211 22.2409 86.7738 22.1268C86.8059 22.0581 86.8761 22.0099 86.9068 21.9412C86.9477 21.8462 86.9506 21.8287 86.9813 21.795C87.012 21.7614 87.0851 21.7307 87.1129 21.6869C87.1443 21.6363 87.1689 21.5817 87.1859 21.5246C87.2103 21.4133 87.2603 21.3092 87.3321 21.2206C87.3686 21.1832 87.3983 21.1396 87.4198 21.092C87.4403 21.0408 87.4812 20.9984 87.5046 20.9458C87.5337 20.8968 87.5512 20.8418 87.5557 20.785C87.5557 20.7309 87.5894 20.6915 87.5908 20.6389C87.5913 20.6161 87.5947 20.5935 87.6011 20.5716C87.6331 20.5474 87.6612 20.5183 87.6844 20.4854C87.7004 20.4649 87.718 20.4445 87.7311 20.424C87.7534 20.3906 87.7656 20.3515 87.7662 20.3114C87.7662 20.2954 87.7823 20.231 87.7838 20.215C87.7852 20.1989 87.8159 20.1755 87.8188 20.1463C87.8218 20.117 87.8057 20.0366 87.8086 19.984C87.8171 19.9606 87.8269 19.9377 87.8378 19.9153C87.8554 19.8817 87.8802 19.8496 87.9007 19.8159C87.9475 19.7472 87.9986 19.68 88.0469 19.6084C88.0843 19.5374 88.1105 19.4609 88.1243 19.3818C88.1404 19.3073 88.1726 19.2356 88.1916 19.1655C88.2106 19.0977 88.2366 19.0321 88.269 18.9696C88.2895 18.9345 88.269 18.8834 88.2953 18.8498C88.3216 18.8161 88.3231 18.7884 88.3377 18.7577C88.3699 18.6919 88.3626 18.6115 88.3991 18.5487C88.4218 18.5163 88.4386 18.4802 88.4488 18.442C88.4488 18.4083 88.4137 18.3484 88.4225 18.3163C88.4313 18.2841 88.4634 18.2096 88.4868 18.1584C88.5102 18.1072 88.5146 18.0458 88.5409 17.9888C88.544 17.9824 88.5456 17.9753 88.5458 17.9682C88.546 17.961 88.5446 17.9539 88.5419 17.9473C88.5391 17.9406 88.535 17.9347 88.5298 17.9298C88.5246 17.9248 88.5184 17.9211 88.5117 17.9187C88.4605 17.8938 88.4459 17.9099 88.4313 17.9406Z" fill="#063844"/>
<path d="M95.234 28.2395L99.5021 25.5457L95.234 28.2395Z" fill="#063844"/>
<path d="M99.429 25.5253C99.3807 25.556 99.3223 25.5706 99.2726 25.5983C99.2229 25.6261 99.1936 25.6714 99.1483 25.7021C99.1264 25.7167 99.0635 25.7401 99.0402 25.7547C99.0139 25.773 98.9866 25.7896 98.9583 25.8044C98.9115 25.8234 98.932 25.8527 98.8852 25.8717C98.8384 25.8907 98.7873 25.9053 98.7391 25.9228C98.6886 25.9429 98.6397 25.9669 98.5929 25.9945C98.549 26.0178 98.5037 26.0383 98.4584 26.0602C98.4072 26.0787 98.3582 26.1027 98.3122 26.1319C98.2596 26.1699 98.2114 26.2122 98.1661 26.2561C98.1232 26.293 98.0735 26.3213 98.0199 26.3394C97.9184 26.3588 97.8159 26.373 97.713 26.3818C97.6478 26.3898 97.5833 26.4025 97.52 26.4198C97.4795 26.4286 97.4402 26.4423 97.4031 26.4607L97.3782 26.4753C97.3548 26.4914 97.3329 26.509 97.311 26.5265C97.2423 26.5557 97.2218 26.6727 97.1736 26.7253L97.1473 26.737L97.099 26.7516C97.0771 26.7613 97.0577 26.7758 97.042 26.794L96.988 26.8466C96.9412 26.8832 96.8976 26.9238 96.8579 26.9679C96.8184 27.0132 96.7833 27.0659 96.7468 27.1141C96.7102 27.1623 96.6737 27.1989 96.6357 27.2398C96.5977 27.2807 96.5538 27.329 96.51 27.3728C96.4716 27.4043 96.4287 27.4299 96.3828 27.4488L96.2454 27.5073C96.1498 27.5508 96.0566 27.5996 95.9663 27.6535C95.8742 27.7119 95.8201 27.8216 95.7192 27.8756C95.6529 27.8998 95.588 27.9276 95.5248 27.9589C95.4313 27.9926 95.3787 28.073 95.2807 28.1285C95.2354 28.1519 95.2076 28.1914 95.234 28.2337C95.2603 28.2761 95.3056 28.2659 95.3494 28.2337C95.4737 28.1519 95.5804 28.1899 95.7017 28.1197C95.7587 28.0861 95.8289 28.0569 95.9297 27.9926C95.9896 27.9546 96.0759 27.9546 96.1329 27.9151C96.2162 27.861 96.2264 27.8479 96.2659 27.842C96.3209 27.8452 96.376 27.8403 96.4296 27.8274C96.4822 27.8034 96.5314 27.7724 96.5758 27.7353C96.6533 27.6592 96.7481 27.6031 96.852 27.5716C96.9002 27.561 96.9462 27.5422 96.988 27.5161C97.0318 27.4839 97.0874 27.4737 97.1341 27.4444C97.1828 27.4209 97.225 27.3858 97.2569 27.3421C97.2847 27.2983 97.3329 27.2851 97.3607 27.2427C97.3733 27.2249 97.3875 27.2083 97.4031 27.193C97.4417 27.1908 97.4797 27.1824 97.5156 27.1682L97.5858 27.1448C97.6205 27.1297 97.6499 27.1048 97.6706 27.0732C97.6793 27.06 97.7261 27.0147 97.7349 27.0045C97.7437 26.9942 97.7817 26.9899 97.7977 26.9679C97.8138 26.946 97.8445 26.8715 97.8723 26.8305C97.8911 26.8153 97.9111 26.8016 97.9322 26.7896C97.9644 26.7721 98.0009 26.7604 98.0345 26.7443C98.1076 26.7136 98.1807 26.6873 98.2567 26.6537C98.3244 26.6154 98.3852 26.566 98.4365 26.5075C98.4876 26.4563 98.5476 26.4183 98.6017 26.3701C98.6518 26.3253 98.7067 26.2861 98.7654 26.2532C98.8004 26.2371 98.8136 26.1859 98.8487 26.1699C98.8763 26.1547 98.9031 26.1381 98.9291 26.1202C98.989 26.0836 99.0241 26.0149 99.0869 25.9828C99.1221 25.9696 99.1543 25.9497 99.1819 25.9243C99.2039 25.8994 99.2009 25.8293 99.2243 25.8074C99.2477 25.7854 99.312 25.743 99.3573 25.7138C99.4026 25.6846 99.4377 25.6393 99.4889 25.6071C99.4946 25.603 99.4995 25.5979 99.5032 25.5919C99.5069 25.5859 99.5094 25.5793 99.5105 25.5723C99.5116 25.5654 99.5113 25.5583 99.5096 25.5514C99.5079 25.5446 99.5048 25.5382 99.5006 25.5326C99.4743 25.5033 99.4553 25.5077 99.429 25.5253Z" fill="#063844"/>
</svg>
