<svg width="350" height="222" viewBox="0 0 350 222" fill="none" xmlns="http://www.w3.org/2000/svg">
<mask id="mask0_739_8398" style="mask-type:alpha" maskUnits="userSpaceOnUse" x="0" y="0" width="447" height="285">
<rect y="0.5" width="447" height="284" fill="url(#paint0_linear_739_8398)"/>
</mask>
<g mask="url(#mask0_739_8398)">
<mask id="mask1_739_8398" style="mask-type:alpha" maskUnits="userSpaceOnUse" x="0" y="0" width="483" height="249">
<rect y="0.5" width="483" height="248" fill="url(#paint1_linear_739_8398)"/>
</mask>
<g mask="url(#mask1_739_8398)">
<g filter="url(#filter0_dd_739_8398)">
<rect x="33.9727" y="27.0078" width="401.736" height="398.184" rx="18.9303" fill="#F7F4F2" shape-rendering="crispEdges"/>
<g filter="url(#filter1_dd_739_8398)">
<rect x="59.213" y="52.2482" width="351.255" height="79.3573" rx="16.4877" fill="white"/>
<rect x="70.2048" y="63.24" width="56.8235" height="57.3737" rx="11.4196" fill="#F5F7F8"/>
<g clip-path="url(#clip0_739_8398)">
<path d="M117.388 91.2909C117.388 81.5425 109.56 73.657 99.9235 73.657C90.2686 73.657 82.4587 81.5425 82.4587 91.2909C82.4587 101.021 90.2686 108.925 99.9235 108.925C109.56 108.925 117.388 101.021 117.388 91.2909Z" fill="#026568"/>
<path fill-rule="evenodd" clip-rule="evenodd" d="M92.7592 87.2209H91.8685C91.1162 87.2209 90.5251 87.8178 90.5251 88.5774C90.5251 89.1617 90.8921 89.6673 91.4157 89.8555V96.262H90.974C90.2217 96.262 89.6306 96.8588 89.6306 97.6184C89.6306 98.36 90.2217 98.9749 90.974 98.9749H92.6848C92.7094 98.9762 92.7342 98.9769 92.7592 98.9769C92.7835 98.9769 92.8078 98.9762 92.8319 98.9749H97.4582C97.4828 98.9762 97.5076 98.9769 97.5326 98.9769C97.557 98.9769 97.5812 98.9762 97.6053 98.9749H102.243C102.268 98.9762 102.293 98.9769 102.318 98.9769C102.342 98.9769 102.366 98.9762 102.39 98.9749H107.021C107.045 98.9762 107.07 98.9769 107.095 98.9769C107.119 98.9769 107.144 98.9762 107.168 98.9749H108.887C109.621 98.9749 110.23 98.36 110.23 97.6184C110.23 96.8588 109.621 96.262 108.887 96.262H108.439V89.8545C108.957 89.6654 109.333 89.1606 109.333 88.5774C109.333 87.8178 108.724 87.2209 107.99 87.2209H107.095H106.518C105.985 84.5529 103.909 82.4645 101.274 81.9278V81.3406C101.274 80.581 100.665 79.9841 99.931 79.9841C99.1787 79.9841 98.5876 80.581 98.5876 81.3406V81.9278C95.9459 82.4647 93.8788 84.553 93.3489 87.2209H92.7592ZM98.876 96.262H100.974V89.9339H98.876V96.262ZM97.5326 87.2209H102.318H103.737C103.184 85.6336 101.687 84.5061 99.9337 84.5061C98.1658 84.5061 96.6771 85.6336 96.1288 87.2209H97.5326ZM96.1891 89.9339V96.262H94.1026V89.9339H96.1891ZM105.752 96.262H103.661V89.9339H105.752V96.262Z" fill="white"/>
</g>
<rect x="138.448" y="84.038" width="107.965" height="15.7778" rx="7.25304" fill="#F5F8F9"/>
<g opacity="0.5">
<rect x="257.832" y="77.9173" width="97.0665" height="28.0192" rx="5.15442" fill="#026568"/>
<path d="M288.75 94.5983C288.154 94.5983 287.643 94.496 287.216 94.2916C286.789 94.0811 286.441 93.8075 286.17 93.4707C285.899 93.128 285.698 92.7611 285.566 92.3703C285.439 91.9734 285.376 91.5885 285.376 91.2157V91.0172C285.376 90.6083 285.442 90.2054 285.575 89.8085C285.707 89.4056 285.908 89.0418 286.179 88.7171C286.456 88.3923 286.801 88.1338 287.216 87.9413C287.637 87.7429 288.133 87.6437 288.705 87.6437C289.3 87.6437 289.826 87.7549 290.283 87.9774C290.74 88.1999 291.104 88.5096 291.375 88.9065C291.651 89.2974 291.814 89.7574 291.862 90.2866H290.373C290.331 90.022 290.235 89.7965 290.085 89.6101C289.934 89.4237 289.739 89.2793 289.498 89.1771C289.264 89.0749 288.999 89.0238 288.705 89.0238C288.41 89.0238 288.148 89.0749 287.92 89.1771C287.691 89.2793 287.499 89.4237 287.343 89.6101C287.192 89.7965 287.075 90.019 286.991 90.2776C286.913 90.5301 286.874 90.8128 286.874 91.1255C286.874 91.4322 286.913 91.7148 286.991 91.9734C287.075 92.2259 287.195 92.4484 287.352 92.6409C287.514 92.8273 287.712 92.9716 287.947 93.0738C288.182 93.1701 288.449 93.2182 288.75 93.2182C289.207 93.2182 289.592 93.1069 289.904 92.8844C290.223 92.6619 290.416 92.3552 290.482 91.9644H291.961C291.907 92.4454 291.745 92.8874 291.474 93.2903C291.209 93.6872 290.845 94.0059 290.382 94.2465C289.925 94.481 289.381 94.5983 288.75 94.5983ZM295.27 94.5983C294.837 94.5983 294.452 94.5321 294.115 94.3998C293.778 94.2615 293.493 94.0751 293.258 93.8406C293.03 93.606 292.855 93.3384 292.735 93.0378C292.615 92.7311 292.555 92.4094 292.555 92.0726V91.8651C292.555 91.5224 292.615 91.1976 292.735 90.8909C292.861 90.5782 293.042 90.3046 293.276 90.0701C293.517 89.8356 293.805 89.6522 294.142 89.5199C294.479 89.3816 294.855 89.3124 295.27 89.3124C295.697 89.3124 296.075 89.3816 296.406 89.5199C296.743 89.6522 297.029 89.8356 297.263 90.0701C297.498 90.3046 297.678 90.5782 297.804 90.8909C297.931 91.1976 297.994 91.5224 297.994 91.8651V92.0726C297.994 92.4094 297.934 92.7311 297.813 93.0378C297.693 93.3384 297.516 93.606 297.281 93.8406C297.053 94.0751 296.77 94.2615 296.433 94.3998C296.097 94.5321 295.709 94.5983 295.27 94.5983ZM295.27 93.3805C295.552 93.3805 295.787 93.3204 295.973 93.2001C296.16 93.0799 296.301 92.9115 296.397 92.695C296.499 92.4785 296.551 92.238 296.551 91.9734C296.551 91.6907 296.499 91.4442 296.397 91.2337C296.295 91.0172 296.148 90.8458 295.955 90.7196C295.769 90.5933 295.54 90.5301 295.27 90.5301C295.005 90.5301 294.777 90.5933 294.584 90.7196C294.392 90.8458 294.244 91.0172 294.142 91.2337C294.046 91.4442 293.998 91.6907 293.998 91.9734C293.998 92.238 294.046 92.4785 294.142 92.695C294.238 92.9115 294.383 93.0799 294.575 93.2001C294.768 93.3204 294.999 93.3805 295.27 93.3805ZM299.001 94.4269V89.4838H300.147V91.6035H300.065C300.065 91.0984 300.129 90.6775 300.255 90.3407C300.387 90.004 300.586 89.7514 300.85 89.583C301.115 89.4146 301.436 89.3304 301.815 89.3304H301.878C302.456 89.3304 302.895 89.5199 303.195 89.8987C303.502 90.2716 303.655 90.8398 303.655 91.6035V94.4269H302.212V91.5224C302.212 91.2578 302.134 91.0413 301.978 90.8729C301.821 90.7045 301.611 90.6203 301.346 90.6203C301.076 90.6203 300.856 90.7075 300.688 90.8819C300.525 91.0503 300.444 91.2728 300.444 91.5494V94.4269H299.001ZM304.885 94.4269V89.4838H306.031V91.6035H305.95C305.95 91.0984 306.013 90.6775 306.139 90.3407C306.271 90.004 306.47 89.7514 306.734 89.583C306.999 89.4146 307.321 89.3304 307.7 89.3304H307.763C308.34 89.3304 308.779 89.5199 309.08 89.8987C309.386 90.2716 309.54 90.8398 309.54 91.6035V94.4269H308.097V91.5224C308.097 91.2578 308.018 91.0413 307.862 90.8729C307.706 90.7045 307.495 90.6203 307.231 90.6203C306.96 90.6203 306.74 90.7075 306.572 90.8819C306.41 91.0503 306.329 91.2728 306.329 91.5494V94.4269H304.885ZM313.034 94.5983C312.613 94.5983 312.24 94.5261 311.915 94.3818C311.596 94.2375 311.329 94.045 311.112 93.8045C310.902 93.5579 310.74 93.2843 310.625 92.9836C310.517 92.677 310.463 92.3643 310.463 92.0455V91.8651C310.463 91.5344 310.517 91.2187 310.625 90.918C310.74 90.6113 310.902 90.3377 311.112 90.0972C311.323 89.8566 311.584 89.6672 311.897 89.5289C312.216 89.3846 312.577 89.3124 312.98 89.3124C313.509 89.3124 313.954 89.4327 314.315 89.6732C314.681 89.9077 314.961 90.2174 315.153 90.6023C315.346 90.9811 315.442 91.3961 315.442 91.8471V92.3342H311.067V91.5133H314.567L314.098 91.8922C314.098 91.5975 314.056 91.345 313.972 91.1345C313.888 90.924 313.761 90.7647 313.593 90.6564C313.431 90.5422 313.226 90.485 312.98 90.485C312.727 90.485 312.514 90.5422 312.339 90.6564C312.165 90.7707 312.032 90.9391 311.942 91.1616C311.852 91.378 311.807 91.6456 311.807 91.9644C311.807 92.259 311.849 92.5176 311.933 92.7401C312.017 92.9566 312.15 93.125 312.33 93.2452C312.51 93.3655 312.745 93.4256 313.034 93.4256C313.298 93.4256 313.515 93.3745 313.683 93.2723C313.852 93.1701 313.966 93.0438 314.026 92.8934H315.352C315.28 93.2242 315.138 93.5188 314.928 93.7774C314.717 94.036 314.453 94.2375 314.134 94.3818C313.815 94.5261 313.449 94.5983 313.034 94.5983ZM318.617 94.5983C318.19 94.5983 317.818 94.5291 317.499 94.3908C317.186 94.2465 316.925 94.054 316.714 93.8135C316.504 93.573 316.347 93.3024 316.245 93.0017C316.143 92.695 316.092 92.3793 316.092 92.0546V91.8832C316.092 91.5464 316.146 91.2247 316.254 90.918C316.362 90.6053 316.522 90.3287 316.732 90.0881C316.943 89.8476 317.204 89.6582 317.517 89.5199C317.836 89.3816 318.199 89.3124 318.608 89.3124C319.053 89.3124 319.447 89.3996 319.79 89.574C320.133 89.7424 320.406 89.9799 320.611 90.2866C320.815 90.5933 320.93 90.9451 320.954 91.342H319.537C319.513 91.1195 319.423 90.933 319.267 90.7827C319.117 90.6264 318.897 90.5482 318.608 90.5482C318.368 90.5482 318.166 90.6083 318.004 90.7286C317.848 90.8489 317.73 91.0142 317.652 91.2247C317.574 91.4352 317.535 91.6847 317.535 91.9734C317.535 92.238 317.571 92.4785 317.643 92.695C317.715 92.9055 317.83 93.0708 317.986 93.1911C318.148 93.3054 318.359 93.3625 318.617 93.3625C318.81 93.3625 318.972 93.3294 319.105 93.2633C319.243 93.1911 319.351 93.0949 319.429 92.9746C319.513 92.8483 319.565 92.704 319.583 92.5417H320.99C320.972 92.9506 320.857 93.3114 320.647 93.6241C320.436 93.9308 320.157 94.1713 319.808 94.3457C319.459 94.5141 319.062 94.5983 318.617 94.5983ZM324.159 94.49C323.66 94.49 323.257 94.4299 322.95 94.3096C322.643 94.1833 322.418 93.9759 322.274 93.6872C322.135 93.3926 322.066 92.9957 322.066 92.4965V88.1488H323.41V92.5507C323.41 92.7852 323.47 92.9656 323.591 93.0919C323.717 93.2122 323.894 93.2723 324.123 93.2723H324.853V94.49H324.159ZM321.317 90.5392V89.4838H324.853V90.5392H321.317Z" fill="white"/>
</g>
</g>
<g filter="url(#filter2_dd_739_8398)">
<rect x="59.213" y="142.597" width="351.255" height="79.0815" rx="16.4877" fill="white"/>
<rect x="70.2048" y="153.589" width="57.098" height="57.098" rx="11.4196" fill="#F5F7F8"/>
<path d="M98.6981 192.174C104.558 187.163 112.79 182.291 117.311 180.538C116.613 180.092 115.525 179.452 114.297 178.756C108.465 180.677 101.656 184.936 95.5726 189.752C96.605 190.531 97.6934 191.339 98.6981 192.174Z" fill="#E31837"/>
<path d="M96.0191 178.561C95.154 178.143 94.2051 177.754 93.4797 177.42C91.2752 178.505 88.4009 180.148 84.7733 182.737C85.5548 183.154 86.3919 183.655 87.2847 184.156C90.0752 182.096 92.8938 180.148 96.0191 178.561Z" fill="#012169"/>
<path d="M101.237 176.167C100.177 175.582 96.4935 174.218 93.9541 173.634C93.2008 173.912 92.1404 174.33 91.4149 174.636C92.3358 174.886 95.768 175.805 98.6981 177.281C99.4514 176.918 100.512 176.473 101.237 176.167Z" fill="#E31837"/>
<path d="M88.7639 175.805C85.4988 177.308 82.0666 179.368 80.1969 180.565C80.8666 180.872 81.5365 181.122 82.4573 181.567C86.5873 178.784 89.8241 177.086 91.1079 176.529C90.1868 176.195 89.3218 175.972 88.7639 175.805Z" fill="#012169"/>
<path d="M103.693 175.304C104.446 175.053 105.311 174.831 106.065 174.608C103.888 173.689 101.154 172.715 98.698 172.103C98.3073 172.214 97.1353 172.52 96.326 172.771C97.163 173.021 99.9258 173.661 103.693 175.304ZM89.9359 185.771C90.8287 186.3 91.7775 187.024 92.6984 187.636C98.8096 182.904 104.837 179.257 111.45 177.197C110.53 176.724 109.72 176.306 108.688 175.805C104.725 176.807 97.9445 179.507 89.9359 185.771Z" fill="#E31837"/>
<rect x="149.286" y="173.854" width="164.084" height="16.5673" rx="8.28365" fill="#F0F3F4"/>
<rect x="324.362" y="173.854" width="64.2135" height="16.5673" rx="8.28365" fill="#F0F3F4"/>
</g>
</g>
<g filter="url(#filter3_dd_739_8398)">
<rect x="10.8516" y="106.5" width="282.795" height="274.073" rx="13.2616" fill="#F7F4F2" shape-rendering="crispEdges"/>
<g filter="url(#filter4_dd_739_8398)">
<rect x="28.5337" y="124.182" width="247.431" height="53.9021" rx="11.5504" fill="white"/>
<rect x="36.2339" y="131.883" width="38.5015" height="38.5015" rx="7.70029" fill="#F0F3F4"/>
<g clip-path="url(#clip1_739_8398)">
<path d="M63.5574 158.992C61.3874 160.593 58.1324 161.575 55.4974 161.575C51.7258 161.575 48.3674 160.077 45.7841 157.752C45.5774 157.545 45.7841 157.338 45.9908 157.442C48.7808 159.043 51.9324 159.973 55.4458 159.973C57.8224 159.973 60.8191 159.457 63.2474 158.423C63.6091 158.32 63.9191 158.733 63.5574 158.992ZM64.3324 157.907C64.0741 157.545 62.5241 157.752 61.8524 157.803C61.6458 157.803 61.5941 157.648 61.8008 157.493C62.9891 156.615 65.0041 156.873 65.2108 157.183C65.4174 157.493 65.1591 159.508 64.0224 160.438C63.8674 160.593 63.6608 160.49 63.7641 160.335C64.0224 159.715 64.5908 158.268 64.3324 157.907Z" fill="#FFB300"/>
<path d="M62.1623 154.238C61.6457 153.567 61.129 152.998 61.129 151.707V147.418C61.129 145.61 61.129 144.008 59.8373 142.768C58.804 141.787 57.099 141.425 55.7557 141.425C52.914 141.425 50.434 142.562 49.814 145.765C49.7623 146.127 50.0207 146.282 50.2273 146.333L52.8623 146.643C53.1207 146.643 53.2757 146.385 53.3273 146.127C53.534 145.042 54.4123 144.525 55.4457 144.525C56.014 144.525 57.099 144.835 57.099 146.075V147.625C55.4457 147.625 53.689 147.625 52.2423 148.245C50.5373 148.968 49.349 150.467 49.349 152.688C49.349 155.53 51.1057 156.925 53.379 156.925C55.2907 156.925 56.4273 156.46 57.9257 154.962C58.3907 155.685 58.5973 156.098 59.4757 156.873C59.6823 156.977 59.9407 156.977 60.0957 156.822C60.6123 156.357 61.594 155.478 62.1623 155.013C62.4207 154.807 62.369 154.497 62.1623 154.238ZM57.0473 150.26C57.0473 151.293 56.9957 153.825 54.464 153.825C52.914 153.825 52.914 152.275 52.914 152.275C52.914 149.95 55.084 149.692 57.0473 149.692V150.26Z" fill="#37474F"/>
</g>
<rect x="90.1361" y="131.882" width="115.504" height="11.5504" rx="5.77522" fill="#F0F3F4"/>
<rect x="213.341" y="131.882" width="45.2392" height="11.5504" rx="5.77522" fill="#F0F3F4"/>
<path d="M90.6058 161.005C90.6058 156.085 94.5945 152.096 99.5148 152.096H155.787C160.708 152.096 164.696 156.085 164.696 161.005C164.696 165.926 160.708 169.914 155.787 169.914H99.5148C94.5945 169.914 90.6058 165.926 90.6058 161.005Z" fill="#EAF6F6"/>
<path d="M90.6058 161.005C90.6058 156.085 94.5945 152.096 99.5148 152.096H155.787C160.708 152.096 164.696 156.085 164.696 161.005C164.696 165.926 160.708 169.914 155.787 169.914H99.5148C94.5945 169.914 90.6058 165.926 90.6058 161.005Z" stroke="#C1E5E6" stroke-width="0.939365"/>
<path d="M105.361 159.973H104.112C104.064 159.706 103.974 159.471 103.844 159.269C103.713 159.066 103.553 158.894 103.363 158.752C103.174 158.611 102.962 158.504 102.727 158.432C102.495 158.36 102.248 158.324 101.986 158.324C101.514 158.324 101.091 158.443 100.717 158.68C100.346 158.918 100.053 159.266 99.8366 159.725C99.6231 160.184 99.5164 160.744 99.5164 161.406C99.5164 162.073 99.6231 162.636 99.8366 163.095C100.053 163.554 100.348 163.901 100.721 164.136C101.095 164.371 101.515 164.488 101.982 164.488C102.241 164.488 102.487 164.454 102.719 164.384C102.954 164.312 103.166 164.207 103.355 164.068C103.545 163.929 103.705 163.76 103.836 163.56C103.969 163.357 104.061 163.125 104.112 162.863L105.361 162.867C105.294 163.27 105.165 163.641 104.972 163.98C104.783 164.316 104.539 164.607 104.24 164.853C103.944 165.096 103.605 165.284 103.223 165.417C102.842 165.551 102.425 165.617 101.974 165.617C101.264 165.617 100.632 165.449 100.077 165.113C99.5217 164.774 99.0841 164.29 98.7638 163.66C98.4463 163.03 98.2875 162.279 98.2875 161.406C98.2875 160.531 98.4476 159.78 98.7678 159.152C99.0881 158.523 99.5257 158.04 100.081 157.703C100.636 157.364 101.267 157.195 101.974 157.195C102.409 157.195 102.815 157.258 103.191 157.383C103.57 157.506 103.91 157.687 104.212 157.928C104.513 158.165 104.763 158.456 104.96 158.8C105.158 159.142 105.291 159.533 105.361 159.973ZM109.335 165.629C108.758 165.629 108.255 165.497 107.826 165.233C107.396 164.969 107.062 164.599 106.825 164.124C106.587 163.649 106.469 163.094 106.469 162.459C106.469 161.821 106.587 161.263 106.825 160.786C107.062 160.308 107.396 159.937 107.826 159.673C108.255 159.409 108.758 159.277 109.335 159.277C109.911 159.277 110.414 159.409 110.844 159.673C111.273 159.937 111.607 160.308 111.845 160.786C112.082 161.263 112.201 161.821 112.201 162.459C112.201 163.094 112.082 163.649 111.845 164.124C111.607 164.599 111.273 164.969 110.844 165.233C110.414 165.497 109.911 165.629 109.335 165.629ZM109.339 164.625C109.712 164.625 110.022 164.526 110.267 164.328C110.513 164.131 110.694 163.868 110.812 163.54C110.932 163.211 110.992 162.85 110.992 162.455C110.992 162.063 110.932 161.702 110.812 161.374C110.694 161.043 110.513 160.778 110.267 160.578C110.022 160.377 109.712 160.277 109.339 160.277C108.962 160.277 108.65 160.377 108.402 160.578C108.156 160.778 107.974 161.043 107.854 161.374C107.736 161.702 107.677 162.063 107.677 162.455C107.677 162.85 107.736 163.211 107.854 163.54C107.974 163.868 108.156 164.131 108.402 164.328C108.65 164.526 108.962 164.625 109.339 164.625ZM114.734 161.854V165.505H113.537V159.357H114.686V160.357H114.762C114.903 160.032 115.125 159.77 115.426 159.573C115.73 159.375 116.113 159.277 116.575 159.277C116.994 159.277 117.361 159.365 117.676 159.541C117.991 159.714 118.235 159.973 118.408 160.317C118.582 160.662 118.669 161.087 118.669 161.594V165.505H117.472V161.738C117.472 161.293 117.356 160.944 117.123 160.694C116.891 160.44 116.572 160.313 116.167 160.313C115.889 160.313 115.642 160.373 115.426 160.493C115.213 160.614 115.043 160.79 114.918 161.022C114.795 161.251 114.734 161.529 114.734 161.854ZM121.471 161.854V165.505H120.274V159.357H121.423V160.357H121.499C121.64 160.032 121.862 159.77 122.163 159.573C122.467 159.375 122.85 159.277 123.312 159.277C123.731 159.277 124.098 159.365 124.413 159.541C124.728 159.714 124.972 159.973 125.145 160.317C125.319 160.662 125.406 161.087 125.406 161.594V165.505H124.209V161.738C124.209 161.293 124.093 160.944 123.86 160.694C123.628 160.44 123.309 160.313 122.904 160.313C122.626 160.313 122.379 160.373 122.163 160.493C121.95 160.614 121.78 160.79 121.655 161.022C121.532 161.251 121.471 161.529 121.471 161.854ZM129.661 165.629C129.055 165.629 128.533 165.5 128.096 165.241C127.661 164.979 127.324 164.613 127.087 164.14C126.852 163.665 126.735 163.109 126.735 162.471C126.735 161.841 126.852 161.286 127.087 160.806C127.324 160.325 127.655 159.95 128.08 159.681C128.507 159.411 129.006 159.277 129.577 159.277C129.924 159.277 130.26 159.334 130.585 159.449C130.911 159.563 131.203 159.744 131.462 159.989C131.721 160.235 131.925 160.554 132.075 160.946C132.224 161.335 132.299 161.809 132.299 162.367V162.791H127.411V161.895H131.126C131.126 161.58 131.062 161.301 130.934 161.058C130.806 160.812 130.626 160.619 130.393 160.477C130.164 160.336 129.894 160.265 129.585 160.265C129.248 160.265 128.955 160.348 128.704 160.513C128.456 160.676 128.264 160.89 128.128 161.154C127.994 161.415 127.927 161.7 127.927 162.007V162.707C127.927 163.118 128 163.468 128.144 163.756C128.29 164.044 128.495 164.264 128.756 164.416C129.018 164.566 129.323 164.641 129.673 164.641C129.9 164.641 130.106 164.609 130.293 164.544C130.48 164.478 130.642 164.379 130.778 164.248C130.914 164.117 131.018 163.956 131.09 163.764L132.223 163.968C132.132 164.302 131.969 164.594 131.734 164.845C131.502 165.093 131.21 165.286 130.858 165.425C130.508 165.561 130.109 165.629 129.661 165.629ZM136.217 165.629C135.622 165.629 135.109 165.495 134.68 165.225C134.253 164.953 133.924 164.578 133.695 164.1C133.465 163.622 133.351 163.075 133.351 162.459C133.351 161.834 133.468 161.283 133.703 160.806C133.938 160.325 134.269 159.95 134.696 159.681C135.123 159.411 135.626 159.277 136.205 159.277C136.672 159.277 137.088 159.363 137.454 159.537C137.819 159.708 138.114 159.948 138.338 160.257C138.565 160.567 138.7 160.928 138.743 161.342H137.578C137.514 161.054 137.367 160.806 137.137 160.598C136.911 160.389 136.606 160.285 136.225 160.285C135.891 160.285 135.599 160.373 135.348 160.55C135.1 160.723 134.906 160.971 134.768 161.294C134.629 161.614 134.559 161.993 134.559 162.431C134.559 162.879 134.627 163.266 134.764 163.592C134.9 163.917 135.092 164.17 135.34 164.348C135.591 164.527 135.886 164.617 136.225 164.617C136.451 164.617 136.657 164.575 136.841 164.492C137.028 164.407 137.184 164.286 137.309 164.128C137.438 163.971 137.527 163.781 137.578 163.56H138.743C138.7 163.957 138.57 164.312 138.354 164.625C138.138 164.937 137.849 165.182 137.486 165.361C137.125 165.54 136.702 165.629 136.217 165.629ZM142.893 159.357V160.317H139.534V159.357H142.893ZM140.435 157.884H141.632V163.7C141.632 163.932 141.666 164.107 141.736 164.224C141.805 164.339 141.895 164.418 142.004 164.46C142.116 164.5 142.237 164.52 142.368 164.52C142.464 164.52 142.548 164.514 142.62 164.5C142.692 164.487 142.749 164.476 142.789 164.468L143.005 165.457C142.935 165.484 142.837 165.511 142.708 165.537C142.58 165.567 142.42 165.583 142.228 165.585C141.913 165.591 141.62 165.535 141.347 165.417C141.075 165.3 140.855 165.118 140.687 164.873C140.519 164.627 140.435 164.319 140.435 163.948V157.884ZM146.801 165.629C146.195 165.629 145.673 165.5 145.235 165.241C144.8 164.979 144.464 164.613 144.227 164.14C143.992 163.665 143.874 163.109 143.874 162.471C143.874 161.841 143.992 161.286 144.227 160.806C144.464 160.325 144.795 159.95 145.219 159.681C145.646 159.411 146.145 159.277 146.716 159.277C147.063 159.277 147.4 159.334 147.725 159.449C148.051 159.563 148.343 159.744 148.602 159.989C148.861 160.235 149.065 160.554 149.214 160.946C149.364 161.335 149.438 161.809 149.438 162.367V162.791H144.551V161.895H148.266C148.266 161.58 148.202 161.301 148.073 161.058C147.945 160.812 147.765 160.619 147.533 160.477C147.304 160.336 147.034 160.265 146.724 160.265C146.388 160.265 146.095 160.348 145.844 160.513C145.596 160.676 145.403 160.89 145.267 161.154C145.134 161.415 145.067 161.7 145.067 162.007V162.707C145.067 163.118 145.139 163.468 145.283 163.756C145.43 164.044 145.634 164.264 145.896 164.416C146.157 164.566 146.463 164.641 146.813 164.641C147.039 164.641 147.246 164.609 147.433 164.544C147.62 164.478 147.781 164.379 147.917 164.248C148.053 164.117 148.158 163.956 148.23 163.764L149.362 163.968C149.272 164.302 149.109 164.594 148.874 164.845C148.642 165.093 148.35 165.286 147.997 165.425C147.648 165.561 147.249 165.629 146.801 165.629ZM153.068 165.625C152.572 165.625 152.129 165.499 151.739 165.245C151.352 164.989 151.048 164.625 150.827 164.152C150.608 163.677 150.498 163.107 150.498 162.443C150.498 161.778 150.609 161.21 150.831 160.738C151.055 160.265 151.362 159.904 151.751 159.653C152.141 159.402 152.582 159.277 153.076 159.277C153.458 159.277 153.765 159.341 153.997 159.469C154.232 159.594 154.413 159.741 154.541 159.909C154.672 160.077 154.773 160.225 154.846 160.353H154.918V157.307H156.114V165.505H154.946V164.548H154.846C154.773 164.679 154.669 164.829 154.533 164.997C154.4 165.165 154.216 165.312 153.981 165.437C153.746 165.563 153.442 165.625 153.068 165.625ZM153.332 164.605C153.677 164.605 153.968 164.514 154.205 164.332C154.445 164.148 154.627 163.893 154.749 163.568C154.875 163.242 154.938 162.863 154.938 162.431C154.938 162.004 154.876 161.63 154.753 161.31C154.631 160.99 154.451 160.74 154.213 160.562C153.976 160.383 153.682 160.293 153.332 160.293C152.972 160.293 152.672 160.387 152.432 160.574C152.192 160.76 152.01 161.015 151.887 161.338C151.767 161.661 151.707 162.025 151.707 162.431C151.707 162.842 151.769 163.211 151.891 163.54C152.014 163.868 152.196 164.128 152.436 164.32C152.679 164.51 152.977 164.605 153.332 164.605Z" fill="#00696B"/>
</g>
<g filter="url(#filter5_dd_739_8398)">
<rect x="28.5337" y="185.785" width="247.431" height="53.9021" rx="11.5504" fill="white"/>
<rect x="36.2339" y="193.485" width="38.5015" height="38.5015" rx="7.70029" fill="#F7F7F7"/>
<g clip-path="url(#clip2_739_8398)">
<path d="M69.9241 212.493C69.9241 204.911 63.7765 198.777 56.208 198.777C48.6254 198.777 42.4918 204.911 42.4918 212.493C42.4918 220.062 48.6254 226.21 56.208 226.21C63.7765 226.21 69.9241 220.062 69.9241 212.493Z" fill="#ECECEC"/>
</g>
<rect x="90.1361" y="193.485" width="115.504" height="11.5504" rx="5.77522" fill="#F0F3F4"/>
<rect x="213.341" y="193.485" width="45.2392" height="11.5504" rx="5.77522" fill="#F0F3F4"/>
<rect x="90.1361" y="212.736" width="115.504" height="19.2507" rx="9.62537" fill="#F8F8F8"/>
</g>
</g>
<g filter="url(#filter6_bdd_739_8398)">
<path d="M160.726 163C160.726 156.373 166.098 151 172.726 151H368.275C374.902 151 380.275 156.373 380.275 163V188C380.275 194.627 374.902 200 368.275 200H172.726C166.098 200 160.726 194.627 160.726 188V163Z" fill="white" fill-opacity="0.8" shape-rendering="crispEdges"/>
<rect x="203.847" y="162.653" width="25.6941" height="25.6941" rx="12.847" transform="rotate(90 203.847 162.653)" fill="#128081"/>
<rect x="203.847" y="162.653" width="25.6941" height="25.6941" rx="12.847" transform="rotate(90 203.847 162.653)" stroke="#128081" stroke-width="2.8549"/>
<path d="M188.621 178.807L185.314 175.5L184.188 176.618L188.621 181.051L198.137 171.535L197.019 170.417L188.621 178.807Z" fill="white"/>
<path d="M220.583 182.072V180.526H224.251C224.958 180.526 225.503 180.328 225.887 179.932C226.282 179.525 226.48 178.985 226.48 178.314C226.48 177.631 226.288 177.097 225.905 176.714C225.521 176.318 224.97 176.121 224.251 176.121H220.583V174.97H223.999C224.838 174.97 225.575 175.072 226.211 175.275C226.858 175.479 227.361 175.821 227.721 176.3C228.092 176.768 228.278 177.409 228.278 178.224V178.476C228.278 179.243 228.122 179.896 227.811 180.436C227.499 180.963 227.026 181.371 226.39 181.658C225.755 181.934 224.958 182.072 223.999 182.072H220.583ZM219.18 182.072V168.803H220.942V182.072H219.18ZM220.583 175.797V174.646H223.765C224.508 174.646 225.054 174.448 225.401 174.053C225.761 173.645 225.941 173.13 225.941 172.507C225.941 171.871 225.761 171.356 225.401 170.96C225.054 170.553 224.508 170.349 223.765 170.349H220.583V168.803H223.46C224.898 168.803 225.971 169.108 226.678 169.72C227.385 170.319 227.739 171.188 227.739 172.327V172.578C227.739 173.382 227.559 174.023 227.199 174.502C226.84 174.97 226.336 175.305 225.689 175.509C225.054 175.701 224.311 175.797 223.46 175.797H220.583ZM234.476 182.288C233.337 182.288 232.462 181.916 231.851 181.173C231.239 180.43 230.934 179.357 230.934 177.954V172.381H232.66V178.296C232.66 179.051 232.864 179.645 233.271 180.076C233.679 180.496 234.23 180.705 234.925 180.705C235.644 180.705 236.232 180.478 236.687 180.022C237.143 179.555 237.371 178.919 237.371 178.116V172.381H239.097V182H237.73V177.883H237.946C237.946 178.83 237.82 179.633 237.568 180.292C237.317 180.939 236.939 181.437 236.436 181.784C235.944 182.12 235.315 182.288 234.548 182.288H234.476ZM245.586 182.288C244.328 182.288 243.351 182.018 242.655 181.479C241.972 180.939 241.619 180.202 241.595 179.267H243.213C243.237 179.639 243.423 179.992 243.77 180.328C244.13 180.652 244.735 180.813 245.586 180.813C246.353 180.813 246.941 180.663 247.348 180.364C247.756 180.052 247.959 179.675 247.959 179.231C247.959 178.836 247.81 178.53 247.51 178.314C247.21 178.086 246.725 177.937 246.054 177.865L245.011 177.757C244.1 177.661 243.357 177.391 242.781 176.948C242.206 176.492 241.918 175.857 241.918 175.042C241.918 174.43 242.074 173.909 242.386 173.477C242.697 173.034 243.129 172.698 243.68 172.471C244.232 172.231 244.867 172.111 245.586 172.111C246.665 172.111 247.54 172.351 248.211 172.83C248.882 173.31 249.23 174.023 249.254 174.97H247.636C247.624 174.586 247.444 174.263 247.096 173.999C246.761 173.723 246.257 173.585 245.586 173.585C244.915 173.585 244.405 173.723 244.058 173.999C243.71 174.275 243.536 174.622 243.536 175.042C243.536 175.401 243.656 175.689 243.896 175.905C244.148 176.121 244.555 176.258 245.119 176.318L246.161 176.426C247.192 176.534 248.019 176.822 248.643 177.289C249.266 177.745 249.578 178.392 249.578 179.231C249.578 179.83 249.404 180.364 249.056 180.831C248.721 181.287 248.253 181.646 247.654 181.91C247.054 182.162 246.365 182.288 245.586 182.288ZM252.547 182V172.399H254.273V182H252.547ZM251.072 173.765V172.399H254.273V173.765H251.072ZM253.032 170.852C252.649 170.852 252.361 170.751 252.169 170.547C251.989 170.343 251.899 170.085 251.899 169.774C251.899 169.462 251.989 169.204 252.169 169C252.361 168.797 252.649 168.695 253.032 168.695C253.416 168.695 253.697 168.797 253.877 169C254.069 169.204 254.165 169.462 254.165 169.774C254.165 170.085 254.069 170.343 253.877 170.547C253.697 170.751 253.416 170.852 253.032 170.852ZM257.61 182V172.399H258.977V176.516H258.761C258.761 175.569 258.887 174.772 259.139 174.125C259.402 173.465 259.798 172.968 260.325 172.632C260.853 172.285 261.518 172.111 262.321 172.111H262.393C263.604 172.111 264.497 172.489 265.072 173.244C265.659 173.999 265.953 175.09 265.953 176.516V182H264.227V176.156C264.227 175.413 264.017 174.82 263.598 174.376C263.178 173.921 262.603 173.693 261.872 173.693C261.116 173.693 260.505 173.927 260.038 174.394C259.57 174.862 259.336 175.485 259.336 176.264V182H257.61ZM273.193 182.324C272.354 182.324 271.628 182.18 271.017 181.892C270.406 181.604 269.908 181.227 269.525 180.759C269.141 180.28 268.853 179.747 268.662 179.159C268.482 178.572 268.392 177.972 268.392 177.361V177.038C268.392 176.414 268.482 175.809 268.662 175.222C268.853 174.634 269.141 174.107 269.525 173.639C269.908 173.16 270.394 172.782 270.981 172.507C271.58 172.219 272.282 172.075 273.085 172.075C274.128 172.075 274.985 172.303 275.656 172.758C276.339 173.202 276.843 173.777 277.166 174.484C277.502 175.192 277.67 175.947 277.67 176.75V177.523H269.147V176.228H276.411L276.015 176.93C276.015 176.246 275.908 175.659 275.692 175.168C275.476 174.664 275.152 174.275 274.721 173.999C274.289 173.723 273.744 173.585 273.085 173.585C272.401 173.585 271.832 173.741 271.377 174.053C270.933 174.364 270.597 174.79 270.37 175.329C270.154 175.869 270.046 176.492 270.046 177.199C270.046 177.883 270.154 178.5 270.37 179.051C270.597 179.591 270.945 180.022 271.413 180.346C271.88 180.657 272.473 180.813 273.193 180.813C273.948 180.813 274.559 180.646 275.027 180.31C275.506 179.974 275.794 179.585 275.89 179.141H277.508C277.376 179.8 277.112 180.37 276.717 180.849C276.321 181.329 275.824 181.694 275.224 181.946C274.625 182.198 273.948 182.324 273.193 182.324ZM283.267 182.288C282.008 182.288 281.031 182.018 280.336 181.479C279.653 180.939 279.299 180.202 279.275 179.267H280.894C280.917 179.639 281.103 179.992 281.451 180.328C281.81 180.652 282.416 180.813 283.267 180.813C284.034 180.813 284.621 180.663 285.029 180.364C285.436 180.052 285.64 179.675 285.64 179.231C285.64 178.836 285.49 178.53 285.191 178.314C284.891 178.086 284.406 177.937 283.734 177.865L282.692 177.757C281.781 177.661 281.037 177.391 280.462 176.948C279.887 176.492 279.599 175.857 279.599 175.042C279.599 174.43 279.755 173.909 280.066 173.477C280.378 173.034 280.81 172.698 281.361 172.471C281.912 172.231 282.548 172.111 283.267 172.111C284.346 172.111 285.221 172.351 285.892 172.83C286.563 173.31 286.911 174.023 286.935 174.97H285.317C285.305 174.586 285.125 174.263 284.777 173.999C284.442 173.723 283.938 173.585 283.267 173.585C282.596 173.585 282.086 173.723 281.739 173.999C281.391 174.275 281.217 174.622 281.217 175.042C281.217 175.401 281.337 175.689 281.577 175.905C281.828 176.121 282.236 176.258 282.799 176.318L283.842 176.426C284.873 176.534 285.7 176.822 286.323 177.289C286.947 177.745 287.258 178.392 287.258 179.231C287.258 179.83 287.085 180.364 286.737 180.831C286.401 181.287 285.934 181.646 285.335 181.91C284.735 182.162 284.046 182.288 283.267 182.288ZM292.907 182.288C291.648 182.288 290.671 182.018 289.976 181.479C289.293 180.939 288.939 180.202 288.915 179.267H290.533C290.557 179.639 290.743 179.992 291.091 180.328C291.45 180.652 292.055 180.813 292.907 180.813C293.674 180.813 294.261 180.663 294.669 180.364C295.076 180.052 295.28 179.675 295.28 179.231C295.28 178.836 295.13 178.53 294.83 178.314C294.531 178.086 294.045 177.937 293.374 177.865L292.331 177.757C291.42 177.661 290.677 177.391 290.102 176.948C289.526 176.492 289.239 175.857 289.239 175.042C289.239 174.43 289.394 173.909 289.706 173.477C290.018 173.034 290.449 172.698 291.001 172.471C291.552 172.231 292.187 172.111 292.907 172.111C293.985 172.111 294.86 172.351 295.532 172.83C296.203 173.31 296.55 174.023 296.574 174.97H294.956C294.944 174.586 294.764 174.263 294.417 173.999C294.081 173.723 293.578 173.585 292.907 173.585C292.235 173.585 291.726 173.723 291.378 173.999C291.031 174.275 290.857 174.622 290.857 175.042C290.857 175.401 290.977 175.689 291.216 175.905C291.468 176.121 291.876 176.258 292.439 176.318L293.482 176.426C294.513 176.534 295.34 176.822 295.963 177.289C296.586 177.745 296.898 178.392 296.898 179.231C296.898 179.83 296.724 180.364 296.377 180.831C296.041 181.287 295.574 181.646 294.974 181.91C294.375 182.162 293.686 182.288 292.907 182.288ZM307.5 182.324C306.817 182.324 306.188 182.198 305.612 181.946C305.037 181.694 304.534 181.341 304.102 180.885C303.683 180.43 303.353 179.902 303.113 179.303C302.886 178.704 302.772 178.056 302.772 177.361V177.038C302.772 176.354 302.886 175.713 303.113 175.114C303.341 174.514 303.659 173.987 304.066 173.531C304.486 173.076 304.977 172.722 305.541 172.471C306.116 172.207 306.751 172.075 307.446 172.075C308.178 172.075 308.843 172.231 309.442 172.543C310.042 172.842 310.533 173.316 310.917 173.963C311.3 174.61 311.516 175.449 311.564 176.48L310.845 175.329V168.875H312.571V182H311.204V177.739H311.708C311.66 178.83 311.432 179.717 311.024 180.4C310.617 181.071 310.101 181.562 309.478 181.874C308.867 182.174 308.208 182.324 307.5 182.324ZM307.734 180.813C308.321 180.813 308.855 180.681 309.334 180.418C309.814 180.154 310.197 179.776 310.485 179.285C310.773 178.782 310.917 178.194 310.917 177.523V176.696C310.917 176.037 310.767 175.479 310.467 175.024C310.179 174.556 309.79 174.203 309.298 173.963C308.819 173.711 308.292 173.585 307.716 173.585C307.081 173.585 306.517 173.735 306.026 174.035C305.547 174.335 305.169 174.754 304.893 175.293C304.63 175.833 304.498 176.468 304.498 177.199C304.498 177.931 304.636 178.572 304.911 179.123C305.187 179.663 305.571 180.082 306.062 180.382C306.553 180.669 307.111 180.813 307.734 180.813ZM319.969 182.324C319.13 182.324 318.404 182.18 317.793 181.892C317.182 181.604 316.684 181.227 316.301 180.759C315.917 180.28 315.63 179.747 315.438 179.159C315.258 178.572 315.168 177.972 315.168 177.361V177.038C315.168 176.414 315.258 175.809 315.438 175.222C315.63 174.634 315.917 174.107 316.301 173.639C316.684 173.16 317.17 172.782 317.757 172.507C318.356 172.219 319.058 172.075 319.861 172.075C320.904 172.075 321.761 172.303 322.432 172.758C323.115 173.202 323.619 173.777 323.942 174.484C324.278 175.192 324.446 175.947 324.446 176.75V177.523H315.923V176.228H323.187L322.792 176.93C322.792 176.246 322.684 175.659 322.468 175.168C322.252 174.664 321.928 174.275 321.497 173.999C321.065 173.723 320.52 173.585 319.861 173.585C319.178 173.585 318.608 173.741 318.153 174.053C317.709 174.364 317.374 174.79 317.146 175.329C316.93 175.869 316.822 176.492 316.822 177.199C316.822 177.883 316.93 178.5 317.146 179.051C317.374 179.591 317.721 180.022 318.189 180.346C318.656 180.657 319.249 180.813 319.969 180.813C320.724 180.813 321.335 180.646 321.803 180.31C322.282 179.974 322.57 179.585 322.666 179.141H324.284C324.152 179.8 323.888 180.37 323.493 180.849C323.097 181.329 322.6 181.694 322 181.946C321.401 182.198 320.724 182.324 319.969 182.324ZM330.636 182.108C329.917 182.108 329.294 182.006 328.766 181.802C328.251 181.598 327.849 181.251 327.562 180.759C327.286 180.256 327.148 179.579 327.148 178.728V169.486H328.802V178.943C328.802 179.459 328.94 179.86 329.216 180.148C329.504 180.424 329.905 180.562 330.421 180.562H332.111V182.108H330.636ZM325.494 173.693V172.399H332.111V173.693H325.494ZM340.324 182V179.123H340.037V175.797C340.037 175.138 339.863 174.64 339.515 174.305C339.18 173.969 338.682 173.801 338.023 173.801C337.651 173.801 337.268 173.807 336.872 173.819C336.477 173.831 336.099 173.843 335.74 173.855C335.38 173.867 335.068 173.885 334.805 173.909V172.399C335.068 172.375 335.344 172.357 335.632 172.345C335.931 172.321 336.237 172.309 336.549 172.309C336.86 172.297 337.16 172.291 337.448 172.291C338.431 172.291 339.234 172.411 339.857 172.65C340.48 172.878 340.942 173.256 341.241 173.783C341.541 174.311 341.691 175.024 341.691 175.923V182H340.324ZM337.178 182.252C336.459 182.252 335.835 182.132 335.308 181.892C334.793 181.64 334.391 181.281 334.103 180.813C333.828 180.346 333.69 179.782 333.69 179.123C333.69 178.44 333.84 177.871 334.139 177.415C334.451 176.96 334.9 176.618 335.488 176.39C336.075 176.151 336.782 176.031 337.609 176.031H340.217V177.325H337.538C336.842 177.325 336.309 177.493 335.937 177.829C335.566 178.164 335.38 178.596 335.38 179.123C335.38 179.651 335.566 180.076 335.937 180.4C336.309 180.723 336.842 180.885 337.538 180.885C337.945 180.885 338.335 180.813 338.706 180.669C339.078 180.514 339.383 180.262 339.623 179.914C339.875 179.555 340.013 179.063 340.037 178.44L340.504 179.123C340.444 179.806 340.276 180.382 340.001 180.849C339.737 181.305 339.365 181.652 338.886 181.892C338.419 182.132 337.849 182.252 337.178 182.252ZM345.326 182V172.399H347.052V182H345.326ZM343.852 173.765V172.399H347.052V173.765H343.852ZM345.812 170.852C345.428 170.852 345.141 170.751 344.949 170.547C344.769 170.343 344.679 170.085 344.679 169.774C344.679 169.462 344.769 169.204 344.949 169C345.141 168.797 345.428 168.695 345.812 168.695C346.195 168.695 346.477 168.797 346.657 169C346.849 169.204 346.945 169.462 346.945 169.774C346.945 170.085 346.849 170.343 346.657 170.547C346.477 170.751 346.195 170.852 345.812 170.852ZM350.498 182V168.875H352.224V182H350.498ZM349.167 170.241V168.875H352.224V170.241H349.167ZM358.681 182.288C357.422 182.288 356.446 182.018 355.75 181.479C355.067 180.939 354.713 180.202 354.689 179.267H356.308C356.332 179.639 356.517 179.992 356.865 180.328C357.225 180.652 357.83 180.813 358.681 180.813C359.448 180.813 360.036 180.663 360.443 180.364C360.851 180.052 361.054 179.675 361.054 179.231C361.054 178.836 360.905 178.53 360.605 178.314C360.305 178.086 359.82 177.937 359.148 177.865L358.106 177.757C357.195 177.661 356.451 177.391 355.876 176.948C355.301 176.492 355.013 175.857 355.013 175.042C355.013 174.43 355.169 173.909 355.481 173.477C355.792 173.034 356.224 172.698 356.775 172.471C357.327 172.231 357.962 172.111 358.681 172.111C359.76 172.111 360.635 172.351 361.306 172.83C361.977 173.31 362.325 174.023 362.349 174.97H360.731C360.719 174.586 360.539 174.263 360.191 173.999C359.856 173.723 359.352 173.585 358.681 173.585C358.01 173.585 357.5 173.723 357.153 173.999C356.805 174.275 356.631 174.622 356.631 175.042C356.631 175.401 356.751 175.689 356.991 175.905C357.243 176.121 357.65 176.258 358.214 176.318L359.256 176.426C360.287 176.534 361.114 176.822 361.738 177.289C362.361 177.745 362.673 178.392 362.673 179.231C362.673 179.83 362.499 180.364 362.151 180.831C361.816 181.287 361.348 181.646 360.749 181.91C360.149 182.162 359.46 182.288 358.681 182.288Z" fill="#616C74"/>
</g>
<g filter="url(#filter7_bdd_739_8398)">
<rect x="17" y="15" width="237" height="49" rx="12" fill="white" fill-opacity="0.9" shape-rendering="crispEdges"/>
<path d="M50.75 34.75L52.2383 31.4725L55.5 30L52.2383 28.5275L50.75 25.25L49.2933 28.5275L46 30L49.2933 31.4725L50.75 34.75Z" fill="#128081"/>
<path d="M60.25 33.1667C57.9541 33.1667 56.6716 35.4467 57.1941 37.1408L51.5733 42.7775C51.0983 42.635 50.4016 42.635 49.9266 42.7775L45.8891 38.74C46.4275 37.0458 45.145 34.75 42.8333 34.75C40.5375 34.75 39.2391 37.03 39.7775 38.74L32.5575 45.9442C30.8633 45.4217 28.5833 46.7042 28.5833 49C28.5833 50.7417 30.0083 52.1667 31.75 52.1667C34.0458 52.1667 35.3283 49.8867 34.8058 48.1925L42.01 40.9725C42.485 41.115 43.1816 41.115 43.6566 40.9725L47.6941 45.01C47.1558 46.7042 48.4383 49 50.75 49C53.0458 49 54.3442 46.72 53.8058 45.01L59.4425 39.3892C61.1367 39.9117 63.4166 38.6292 63.4166 36.3333C63.4166 34.5917 61.9916 33.1667 60.25 33.1667Z" fill="#128081"/>
<path d="M33.3333 34.75L32.5416 37.9167L31.75 34.75L28.5833 33.9583L31.75 33.1667L32.5416 30L33.3333 33.1667L36.5 33.9583L33.3333 34.75Z" fill="#128081"/>
<path d="M84.6055 46.3236C83.4069 46.3236 82.382 46.1139 81.531 45.6943C80.6919 45.2748 80.0146 44.7294 79.4992 44.0582C78.9838 43.3869 78.6062 42.6617 78.3665 41.8826C78.1267 41.0915 78.0069 40.3303 78.0069 39.5991V39.2036C78.0069 38.4124 78.1267 37.6213 78.3665 36.8302C78.6182 36.0391 79.0018 35.3199 79.5172 34.6726C80.0326 34.0253 80.7039 33.5039 81.531 33.1083C82.358 32.7128 83.3469 32.515 84.4977 32.515C85.6724 32.515 86.6792 32.7188 87.5183 33.1263C88.3574 33.5339 89.0226 34.1032 89.5141 34.8344C90.0055 35.5656 90.3052 36.4286 90.4131 37.4235H88.6151C88.5192 36.6804 88.2795 36.069 87.8959 35.5896C87.5123 35.0981 87.0268 34.7325 86.4395 34.4928C85.8641 34.2531 85.2169 34.1332 84.4977 34.1332C83.7185 34.1332 83.0353 34.271 82.4479 34.5467C81.8606 34.8104 81.3691 35.188 80.9736 35.6795C80.59 36.1589 80.2963 36.7163 80.0926 37.3516C79.9008 37.9869 79.8049 38.6761 79.8049 39.4193C79.8049 40.1265 79.9008 40.7978 80.0926 41.4331C80.2963 42.0684 80.596 42.6317 80.9916 43.1232C81.3991 43.6147 81.9025 44.0042 82.5019 44.2919C83.1012 44.5676 83.8024 44.7054 84.6055 44.7054C85.7323 44.7054 86.6792 44.4238 87.4464 43.8604C88.2135 43.297 88.681 42.4819 88.8488 41.4151H90.6468C90.527 42.3141 90.2213 43.1352 89.7298 43.8784C89.2504 44.6215 88.5791 45.2149 87.7161 45.6584C86.865 46.1019 85.8282 46.3236 84.6055 46.3236ZM97.3699 46.3236C96.5309 46.3236 95.7937 46.1798 95.1584 45.8921C94.5231 45.6044 93.9837 45.2269 93.5402 44.7594C93.1087 44.2799 92.779 43.7465 92.5513 43.1592C92.3355 42.5718 92.2277 41.9725 92.2277 41.3612V41.0375C92.2277 40.4262 92.3415 39.8269 92.5693 39.2395C92.797 38.6402 93.1326 38.1068 93.5762 37.6393C94.0197 37.1598 94.5591 36.7823 95.1944 36.5066C95.8296 36.2189 96.5548 36.075 97.3699 36.075C98.185 36.075 98.9102 36.2189 99.5455 36.5066C100.181 36.7823 100.72 37.1598 101.164 37.6393C101.607 38.1068 101.943 38.6402 102.171 39.2395C102.398 39.8269 102.512 40.4262 102.512 41.0375V41.3612C102.512 41.9725 102.398 42.5718 102.171 43.1592C101.955 43.7465 101.625 44.2799 101.182 44.7594C100.75 45.2269 100.217 45.6044 99.5815 45.8921C98.9462 46.1798 98.209 46.3236 97.3699 46.3236ZM97.3699 44.7774C98.0891 44.7774 98.7005 44.6215 99.2039 44.3099C99.7193 43.9862 100.109 43.5547 100.373 43.0153C100.648 42.4759 100.786 41.8706 100.786 41.1993C100.786 40.5161 100.648 39.9048 100.373 39.3654C100.097 38.826 99.7013 38.4005 99.1859 38.0888C98.6825 37.7771 98.0771 37.6213 97.3699 37.6213C96.6747 37.6213 96.0694 37.7771 95.554 38.0888C95.0385 38.4005 94.643 38.826 94.3673 39.3654C94.0916 39.9048 93.9537 40.5161 93.9537 41.1993C93.9537 41.8706 94.0856 42.4759 94.3493 43.0153C94.625 43.5547 95.0146 43.9862 95.518 44.3099C96.0334 44.6215 96.6507 44.7774 97.3699 44.7774ZM105.097 46V36.3987H106.464V40.5161H106.248C106.248 39.5692 106.374 38.772 106.626 38.1248C106.889 37.4655 107.285 36.968 107.812 36.6324C108.34 36.2848 109.005 36.111 109.808 36.111H109.88C111.091 36.111 111.984 36.4886 112.559 37.2437C113.146 37.9989 113.44 39.0897 113.44 40.5161V46H111.714V40.1565C111.714 39.4133 111.504 38.82 111.085 38.3765C110.665 37.921 110.09 37.6932 109.359 37.6932C108.604 37.6932 107.992 37.927 107.525 38.3945C107.057 38.8619 106.823 39.4852 106.823 40.2644V46H105.097ZM120.338 46.1079C119.619 46.1079 118.996 46.006 118.468 45.8022C117.953 45.5984 117.551 45.2508 117.264 44.7594C116.988 44.2559 116.85 43.5787 116.85 42.7276V33.4859H118.504V42.9434C118.504 43.4588 118.642 43.8604 118.918 44.1481C119.205 44.4238 119.607 44.5616 120.122 44.5616H121.812V46.1079H120.338ZM115.196 37.6932V36.3987H121.812V37.6932H115.196ZM124.721 46V36.3987H126.447V46H124.721ZM123.247 37.7652V36.3987H126.447V37.7652H123.247ZM125.207 34.8524C124.823 34.8524 124.536 34.7505 124.344 34.5467C124.164 34.343 124.074 34.0853 124.074 33.7736C124.074 33.4619 124.164 33.2042 124.344 33.0005C124.536 32.7967 124.823 32.6948 125.207 32.6948C125.59 32.6948 125.872 32.7967 126.052 33.0005C126.244 33.2042 126.34 33.4619 126.34 33.7736C126.34 34.0853 126.244 34.343 126.052 34.5467C125.872 34.7505 125.59 34.8524 125.207 34.8524ZM129.785 46V36.3987H131.151V40.5161H130.936C130.936 39.5692 131.061 38.772 131.313 38.1248C131.577 37.4655 131.972 36.968 132.5 36.6324C133.027 36.2848 133.692 36.111 134.496 36.111H134.567C135.778 36.111 136.671 36.4886 137.246 37.2437C137.834 37.9989 138.128 39.0897 138.128 40.5161V46H136.401V40.1565C136.401 39.4133 136.192 38.82 135.772 38.3765C135.353 37.921 134.777 37.6932 134.046 37.6932C133.291 37.6932 132.68 37.927 132.212 38.3945C131.745 38.8619 131.511 39.4852 131.511 40.2644V46H129.785ZM144.612 46.2877C143.473 46.2877 142.598 45.9161 141.987 45.1729C141.376 44.4297 141.07 43.3569 141.07 41.9545V36.3807H142.796V42.2961C142.796 43.0513 143 43.6446 143.407 44.0761C143.815 44.4957 144.366 44.7054 145.061 44.7054C145.781 44.7054 146.368 44.4777 146.824 44.0222C147.279 43.5547 147.507 42.9194 147.507 42.1163V36.3807H149.233V46H147.866V41.8826H148.082C148.082 42.8295 147.956 43.6326 147.705 44.2919C147.453 44.9392 147.075 45.4366 146.572 45.7842C146.08 46.1199 145.451 46.2877 144.684 46.2877H144.612ZM156.657 46.3236C155.818 46.3236 155.093 46.1798 154.482 45.8921C153.87 45.6044 153.373 45.2269 152.989 44.7594C152.606 44.2799 152.318 43.7465 152.126 43.1592C151.947 42.5718 151.857 41.9725 151.857 41.3612V41.0375C151.857 40.4142 151.947 39.8089 152.126 39.2215C152.318 38.6342 152.606 38.1068 152.989 37.6393C153.373 37.1598 153.858 36.7823 154.446 36.5066C155.045 36.2189 155.746 36.075 156.549 36.075C157.592 36.075 158.449 36.3028 159.121 36.7583C159.804 37.2018 160.307 37.7771 160.631 38.4844C160.967 39.1916 161.134 39.9467 161.134 40.7498V41.523H152.612V40.2284H159.876L159.48 40.9296C159.48 40.2464 159.372 39.6591 159.157 39.1676C158.941 38.6642 158.617 38.2746 158.186 37.9989C157.754 37.7232 157.209 37.5854 156.549 37.5854C155.866 37.5854 155.297 37.7412 154.841 38.0528C154.398 38.3645 154.062 38.79 153.834 39.3294C153.619 39.8688 153.511 40.4921 153.511 41.1993C153.511 41.8826 153.619 42.4999 153.834 43.0513C154.062 43.5907 154.41 44.0222 154.877 44.3458C155.345 44.6575 155.938 44.8133 156.657 44.8133C157.412 44.8133 158.024 44.6455 158.491 44.3099C158.971 43.9743 159.258 43.5847 159.354 43.1412H160.972C160.841 43.8004 160.577 44.3698 160.181 44.8493C159.786 45.3287 159.288 45.6943 158.689 45.9461C158.09 46.1978 157.412 46.3236 156.657 46.3236ZM171.416 46.1079C170.697 46.1079 170.074 46.006 169.546 45.8022C169.031 45.5984 168.629 45.2508 168.341 44.7594C168.066 44.2559 167.928 43.5787 167.928 42.7276V33.4859H169.582V42.9434C169.582 43.4588 169.72 43.8604 169.996 44.1481C170.283 44.4238 170.685 44.5616 171.2 44.5616H172.89V46.1079H171.416ZM166.274 37.6932V36.3987H172.89V37.6932H166.274ZM179.685 46.3236C178.846 46.3236 178.108 46.1798 177.473 45.8921C176.838 45.6044 176.298 45.2269 175.855 44.7594C175.423 44.2799 175.094 43.7465 174.866 43.1592C174.65 42.5718 174.542 41.9725 174.542 41.3612V41.0375C174.542 40.4262 174.656 39.8269 174.884 39.2395C175.112 38.6402 175.447 38.1068 175.891 37.6393C176.334 37.1598 176.874 36.7823 177.509 36.5066C178.144 36.2189 178.87 36.075 179.685 36.075C180.5 36.075 181.225 36.2189 181.86 36.5066C182.495 36.7823 183.035 37.1598 183.478 37.6393C183.922 38.1068 184.258 38.6402 184.485 39.2395C184.713 39.8269 184.827 40.4262 184.827 41.0375V41.3612C184.827 41.9725 184.713 42.5718 184.485 43.1592C184.27 43.7465 183.94 44.2799 183.496 44.7594C183.065 45.2269 182.531 45.6044 181.896 45.8921C181.261 46.1798 180.524 46.3236 179.685 46.3236ZM179.685 44.7774C180.404 44.7774 181.015 44.6215 181.519 44.3099C182.034 43.9862 182.424 43.5547 182.687 43.0153C182.963 42.4759 183.101 41.8706 183.101 41.1993C183.101 40.5161 182.963 39.9048 182.687 39.3654C182.412 38.826 182.016 38.4005 181.501 38.0888C180.997 37.7771 180.392 37.6213 179.685 37.6213C178.989 37.6213 178.384 37.7771 177.869 38.0888C177.353 38.4005 176.958 38.826 176.682 39.3654C176.406 39.9048 176.268 40.5161 176.268 41.1993C176.268 41.8706 176.4 42.4759 176.664 43.0153C176.94 43.5547 177.329 43.9862 177.833 44.3099C178.348 44.6215 178.965 44.7774 179.685 44.7774ZM194.65 46.2877C193.391 46.2877 192.414 46.018 191.719 45.4786C191.036 44.9392 190.682 44.202 190.658 43.267H192.276C192.3 43.6386 192.486 43.9922 192.834 44.3279C193.193 44.6515 193.799 44.8133 194.65 44.8133C195.417 44.8133 196.004 44.6635 196.412 44.3638C196.819 44.0522 197.023 43.6746 197.023 43.2311C197.023 42.8355 196.873 42.5299 196.574 42.3141C196.274 42.0864 195.788 41.9365 195.117 41.8646L194.074 41.7567C193.163 41.6608 192.42 41.3911 191.845 40.9476C191.27 40.4921 190.982 39.8568 190.982 39.0417C190.982 38.4304 191.138 37.909 191.449 37.4775C191.761 37.034 192.192 36.6983 192.744 36.4706C193.295 36.2309 193.931 36.111 194.65 36.111C195.729 36.111 196.604 36.3507 197.275 36.8302C197.946 37.3097 198.294 38.0229 198.318 38.9698H196.699C196.687 38.5862 196.508 38.2626 196.16 37.9989C195.824 37.7232 195.321 37.5854 194.65 37.5854C193.978 37.5854 193.469 37.7232 193.121 37.9989C192.774 38.2746 192.6 38.6222 192.6 39.0417C192.6 39.4013 192.72 39.689 192.96 39.9048C193.211 40.1205 193.619 40.2584 194.182 40.3183L195.225 40.4262C196.256 40.5341 197.083 40.8218 197.706 41.2892C198.33 41.7447 198.641 42.392 198.641 43.2311C198.641 43.8304 198.467 44.3638 198.12 44.8313C197.784 45.2868 197.317 45.6464 196.717 45.9101C196.118 46.1618 195.429 46.2877 194.65 46.2877ZM205.26 46.3236C204.433 46.3236 203.714 46.1798 203.103 45.8921C202.503 45.6044 202.006 45.2209 201.61 44.7414C201.215 44.2499 200.915 43.7105 200.711 43.1232C200.52 42.5359 200.424 41.9485 200.424 41.3612V41.0375C200.424 40.4262 200.52 39.8269 200.711 39.2395C200.915 38.6522 201.215 38.1248 201.61 37.6573C202.018 37.1778 202.521 36.7942 203.121 36.5066C203.72 36.2189 204.421 36.075 205.224 36.075C206.027 36.075 206.747 36.2249 207.382 36.5245C208.029 36.8242 208.545 37.2497 208.928 37.8011C209.324 38.3405 209.546 38.9818 209.594 39.725H207.939C207.855 39.1256 207.58 38.6282 207.112 38.2326C206.645 37.8251 206.015 37.6213 205.224 37.6213C204.541 37.6213 203.972 37.7771 203.516 38.0888C203.061 38.4005 202.719 38.826 202.491 39.3654C202.264 39.9048 202.15 40.5161 202.15 41.1993C202.15 41.8586 202.264 42.4639 202.491 43.0153C202.719 43.5547 203.061 43.9862 203.516 44.3099C203.984 44.6215 204.565 44.7774 205.26 44.7774C205.8 44.7774 206.267 44.6815 206.663 44.4897C207.058 44.2979 207.376 44.0402 207.616 43.7165C207.855 43.3929 207.999 43.0273 208.047 42.6198H209.701C209.665 43.3749 209.444 44.0282 209.036 44.5796C208.641 45.131 208.113 45.5625 207.454 45.8741C206.807 46.1738 206.075 46.3236 205.26 46.3236ZM217.854 46V43.1232H217.567V39.7969C217.567 39.1376 217.393 38.6402 217.045 38.3046C216.71 37.9689 216.212 37.8011 215.553 37.8011C215.181 37.8011 214.798 37.8071 214.402 37.8191C214.007 37.8311 213.629 37.8431 213.269 37.8551C212.91 37.867 212.598 37.885 212.334 37.909V36.3987C212.598 36.3747 212.874 36.3567 213.162 36.3447C213.461 36.3208 213.767 36.3088 214.079 36.3088C214.39 36.2968 214.69 36.2908 214.978 36.2908C215.96 36.2908 216.764 36.4107 217.387 36.6504C218.01 36.8781 218.472 37.2557 218.771 37.7831C219.071 38.3106 219.221 39.0238 219.221 39.9228V46H217.854ZM214.708 46.2517C213.989 46.2517 213.365 46.1319 212.838 45.8921C212.322 45.6404 211.921 45.2808 211.633 44.8133C211.358 44.3458 211.22 43.7825 211.22 43.1232C211.22 42.44 211.37 41.8706 211.669 41.4151C211.981 40.9596 212.43 40.618 213.018 40.3902C213.605 40.1505 214.312 40.0306 215.139 40.0306H217.746V41.3252H215.067C214.372 41.3252 213.839 41.493 213.467 41.8286C213.096 42.1643 212.91 42.5958 212.91 43.1232C212.91 43.6506 213.096 44.0761 213.467 44.3998C213.839 44.7234 214.372 44.8852 215.067 44.8852C215.475 44.8852 215.865 44.8133 216.236 44.6695C216.608 44.5137 216.913 44.2619 217.153 43.9143C217.405 43.5547 217.543 43.0633 217.567 42.44L218.034 43.1232C217.974 43.8064 217.806 44.3818 217.531 44.8493C217.267 45.3048 216.895 45.6524 216.416 45.8921C215.948 46.1319 215.379 46.2517 214.708 46.2517ZM222.497 46V32.8746H224.223V46H222.497ZM221.166 34.2411V32.8746H224.223V34.2411H221.166ZM231.615 46.3236C230.776 46.3236 230.051 46.1798 229.439 45.8921C228.828 45.6044 228.331 45.2269 227.947 44.7594C227.563 44.2799 227.276 43.7465 227.084 43.1592C226.904 42.5718 226.814 41.9725 226.814 41.3612V41.0375C226.814 40.4142 226.904 39.8089 227.084 39.2215C227.276 38.6342 227.563 38.1068 227.947 37.6393C228.331 37.1598 228.816 36.7823 229.403 36.5066C230.003 36.2189 230.704 36.075 231.507 36.075C232.55 36.075 233.407 36.3028 234.078 36.7583C234.761 37.2018 235.265 37.7771 235.589 38.4844C235.924 39.1916 236.092 39.9467 236.092 40.7498V41.523H227.569V40.2284H234.833L234.438 40.9296C234.438 40.2464 234.33 39.6591 234.114 39.1676C233.898 38.6642 233.575 38.2746 233.143 37.9989C232.712 37.7232 232.166 37.5854 231.507 37.5854C230.824 37.5854 230.254 37.7412 229.799 38.0528C229.355 38.3645 229.02 38.79 228.792 39.3294C228.576 39.8688 228.468 40.4921 228.468 41.1993C228.468 41.8826 228.576 42.4999 228.792 43.0513C229.02 43.5907 229.367 44.0222 229.835 44.3458C230.302 44.6575 230.896 44.8133 231.615 44.8133C232.37 44.8133 232.981 44.6455 233.449 44.3099C233.928 43.9743 234.216 43.5847 234.312 43.1412H235.93C235.798 43.8004 235.535 44.3698 235.139 44.8493C234.743 45.3287 234.246 45.6943 233.647 45.9461C233.047 46.1978 232.37 46.3236 231.615 46.3236Z" fill="#616C74"/>
</g>
<mask id="path-42-outside-1_739_8398" maskUnits="userSpaceOnUse" x="297" y="100.5" width="28" height="33" fill="black">
<rect fill="white" x="297" y="100.5" width="28" height="33"/>
<path fill-rule="evenodd" clip-rule="evenodd" d="M305.457 119.334L303.964 117.054C302.945 115.497 300.774 114.929 299.114 115.782L299.501 115.583C299.089 115.795 298.891 116.323 299.061 116.762L301.127 122.108C301.454 122.955 302.291 124.153 302.984 124.755C302.984 124.755 307.14 128.196 307.14 129.485V131.118H313.874L315.557 127.751L317.241 131.118H318.924V129.485C318.924 128.196 321.464 124.133 321.464 124.133C321.932 123.343 322.322 121.952 322.322 121.029V114.237C322.291 112.733 321.013 111.514 319.436 111.514C318.646 111.514 318.007 112.123 318.007 112.876V113.42C318.007 111.916 316.729 110.697 315.152 110.697C314.363 110.697 313.724 111.306 313.724 112.059V112.603C313.724 111.099 312.445 109.88 310.868 109.88C310.079 109.88 309.44 110.49 309.44 111.242V111.786C309.44 111.544 309.414 111.352 309.364 111.2L308.928 104.185C308.869 103.237 308.07 102.5 307.14 102.5C306.204 102.5 305.457 103.254 305.457 104.183V110.917V119.334ZM317.271 117.651H318.955V124.385H317.271V117.651ZM313.904 117.651H315.588V124.385H313.904V117.651ZM310.538 117.651H312.221V124.385H310.538V117.651Z"/>
</mask>
<path fill-rule="evenodd" clip-rule="evenodd" d="M305.457 119.334L303.964 117.054C302.945 115.497 300.774 114.929 299.114 115.782L299.501 115.583C299.089 115.795 298.891 116.323 299.061 116.762L301.127 122.108C301.454 122.955 302.291 124.153 302.984 124.755C302.984 124.755 307.14 128.196 307.14 129.485V131.118H313.874L315.557 127.751L317.241 131.118H318.924V129.485C318.924 128.196 321.464 124.133 321.464 124.133C321.932 123.343 322.322 121.952 322.322 121.029V114.237C322.291 112.733 321.013 111.514 319.436 111.514C318.646 111.514 318.007 112.123 318.007 112.876V113.42C318.007 111.916 316.729 110.697 315.152 110.697C314.363 110.697 313.724 111.306 313.724 112.059V112.603C313.724 111.099 312.445 109.88 310.868 109.88C310.079 109.88 309.44 110.49 309.44 111.242V111.786C309.44 111.544 309.414 111.352 309.364 111.2L308.928 104.185C308.869 103.237 308.07 102.5 307.14 102.5C306.204 102.5 305.457 103.254 305.457 104.183V110.917V119.334ZM317.271 117.651H318.955V124.385H317.271V117.651ZM313.904 117.651H315.588V124.385H313.904V117.651ZM310.538 117.651H312.221V124.385H310.538V117.651Z" fill="white"/>
<path d="M305.457 119.334L304.048 120.256L307.14 124.98V119.334H305.457ZM303.964 117.054L305.373 116.132H305.373L303.964 117.054ZM299.061 116.762L297.491 117.369V117.369L299.061 116.762ZM301.127 122.108L302.697 121.501L301.127 122.108ZM302.984 124.755L301.88 126.026L301.895 126.039L301.911 126.052L302.984 124.755ZM307.14 131.118H305.457V132.802H307.14V131.118ZM313.874 131.118V132.802H314.914L315.38 131.871L313.874 131.118ZM315.557 127.751L317.063 126.999L315.557 123.987L314.052 126.999L315.557 127.751ZM317.241 131.118L315.735 131.871L316.2 132.802H317.241V131.118ZM318.924 131.118V132.802H320.608V131.118H318.924ZM321.464 124.133L322.892 125.026L322.902 125.008L322.913 124.991L321.464 124.133ZM322.322 114.237H324.005V114.219L324.005 114.202L322.322 114.237ZM309.364 111.2L307.684 111.304L307.697 111.519L307.764 111.724L309.364 111.2ZM308.928 104.185L307.248 104.29L308.928 104.185ZM305.457 104.183H303.773H305.457ZM318.955 117.651H320.638V115.967H318.955V117.651ZM318.955 124.385V126.068H320.638V124.385H318.955ZM317.271 124.385H315.588V126.068H317.271V124.385ZM315.588 117.651H317.271V115.967H315.588V117.651ZM315.588 124.385V126.068H317.271V124.385H315.588ZM313.904 124.385H312.221V126.068H313.904V124.385ZM312.221 117.651H313.904V115.967H312.221L312.221 117.651ZM312.221 124.385V126.068H313.904V124.385H312.221ZM310.538 124.385H308.854V126.068H310.538V124.385ZM306.865 118.412L305.373 116.132L302.556 117.976L304.048 120.256L306.865 118.412ZM305.373 116.132C303.879 113.849 300.766 113.04 298.344 114.285L299.884 117.279C300.783 116.817 302.012 117.144 302.556 117.976L305.373 116.132ZM299.884 117.279L300.271 117.08L298.731 114.086L298.344 114.285L299.884 117.279ZM298.731 114.086C297.537 114.7 297.017 116.145 297.491 117.369L300.631 116.155C300.708 116.354 300.691 116.539 300.64 116.677C300.588 116.814 300.475 116.975 300.271 117.08L298.731 114.086ZM297.491 117.369L299.557 122.714L302.697 121.501L300.631 116.155L297.491 117.369ZM299.557 122.714C299.982 123.815 300.977 125.242 301.88 126.026L304.088 123.484C303.604 123.064 302.927 122.095 302.697 121.501L299.557 122.714ZM302.984 124.755C301.911 126.052 301.911 126.052 301.91 126.052C301.91 126.052 301.91 126.052 301.91 126.052C301.91 126.052 301.91 126.052 301.91 126.052C301.911 126.052 301.911 126.053 301.912 126.053C301.913 126.054 301.915 126.056 301.919 126.059C301.925 126.064 301.936 126.073 301.949 126.085C301.977 126.108 302.019 126.143 302.072 126.188C302.18 126.28 302.335 126.413 302.522 126.577C302.897 126.907 303.392 127.355 303.882 127.837C304.38 128.326 304.838 128.816 305.159 129.232C305.321 129.441 305.419 129.594 305.47 129.691C305.538 129.822 305.457 129.728 305.457 129.485H308.824C308.824 128.92 308.613 128.437 308.454 128.132C308.277 127.794 308.051 127.467 307.823 127.172C307.365 126.58 306.784 125.968 306.242 125.436C305.693 124.897 305.149 124.404 304.745 124.049C304.542 123.871 304.373 123.725 304.253 123.623C304.193 123.572 304.145 123.532 304.112 123.504C304.095 123.49 304.082 123.479 304.073 123.472C304.069 123.468 304.065 123.465 304.062 123.463C304.061 123.462 304.06 123.461 304.059 123.46C304.059 123.46 304.058 123.459 304.058 123.459C304.058 123.459 304.058 123.459 304.058 123.459C304.058 123.459 304.057 123.459 302.984 124.755ZM305.457 129.485V131.118H308.824V129.485H305.457ZM307.14 132.802H313.874V129.435H307.14V132.802ZM315.38 131.871L317.063 128.504L314.052 126.999L312.368 130.365L315.38 131.871ZM314.052 128.504L315.735 131.871L318.747 130.365L317.063 126.999L314.052 128.504ZM317.241 132.802H318.924V129.435H317.241V132.802ZM320.608 131.118V129.485H317.241V131.118H320.608ZM320.608 129.485C320.608 129.546 320.626 129.34 320.871 128.761C321.08 128.269 321.37 127.692 321.676 127.125C321.979 126.563 322.284 126.036 322.515 125.648C322.63 125.454 322.725 125.297 322.791 125.188C322.824 125.134 322.85 125.092 322.867 125.065C322.876 125.051 322.882 125.041 322.886 125.034C322.888 125.031 322.89 125.028 322.891 125.027C322.891 125.026 322.892 125.026 322.892 125.026C322.892 125.025 322.892 125.025 322.892 125.025C322.892 125.025 322.892 125.025 322.892 125.025C322.892 125.026 322.892 125.026 321.464 124.133C320.037 123.241 320.037 123.241 320.037 123.241C320.037 123.241 320.037 123.241 320.037 123.241C320.036 123.242 320.036 123.242 320.036 123.242C320.035 123.243 320.035 123.244 320.034 123.245C320.032 123.248 320.03 123.251 320.028 123.256C320.022 123.264 320.014 123.277 320.004 123.293C319.984 123.326 319.955 123.373 319.919 123.432C319.846 123.551 319.743 123.721 319.62 123.929C319.374 124.342 319.045 124.911 318.713 125.526C318.384 126.136 318.039 126.817 317.771 127.448C317.54 127.994 317.241 128.78 317.241 129.485H320.608ZM322.913 124.991C323.246 124.429 323.51 123.733 323.69 123.081C323.871 122.43 324.005 121.692 324.005 121.029H320.638C320.638 121.289 320.577 121.708 320.446 122.181C320.315 122.653 320.15 123.048 320.016 123.275L322.913 124.991ZM324.005 121.029V114.237H320.638V121.029H324.005ZM324.005 114.202C323.955 111.728 321.874 109.831 319.436 109.831V113.197C320.151 113.197 320.628 113.737 320.638 114.271L324.005 114.202ZM319.436 109.831C317.793 109.831 316.324 111.119 316.324 112.876H319.691C319.691 112.991 319.639 113.082 319.587 113.131C319.537 113.179 319.479 113.197 319.436 113.197V109.831ZM316.324 112.876V113.42H319.691V112.876H316.324ZM319.691 113.42C319.691 110.911 317.582 109.014 315.152 109.014V112.381C315.876 112.381 316.324 112.92 316.324 113.42H319.691ZM315.152 109.014C313.51 109.014 312.04 110.302 312.04 112.059H315.407C315.407 112.174 315.355 112.265 315.303 112.314C315.253 112.362 315.196 112.381 315.152 112.381V109.014ZM312.04 112.059V112.603H315.407V112.059H312.04ZM315.407 112.603C315.407 110.094 313.298 108.197 310.868 108.197V111.564C311.592 111.564 312.04 112.104 312.04 112.603H315.407ZM310.868 108.197C309.226 108.197 307.756 109.485 307.756 111.242H311.123C311.123 111.357 311.071 111.448 311.02 111.497C310.969 111.546 310.912 111.564 310.868 111.564V108.197ZM307.756 111.242V111.786H311.123V111.242H307.756ZM311.123 111.786C311.123 111.437 311.088 111.053 310.964 110.676L307.764 111.724C307.751 111.684 307.75 111.665 307.751 111.677C307.753 111.689 307.756 111.724 307.756 111.786H311.123ZM311.044 111.096L310.609 104.081L307.248 104.29L307.684 111.304L311.044 111.096ZM310.609 104.081C310.494 102.239 308.953 100.817 307.14 100.817V104.183C307.155 104.183 307.182 104.189 307.21 104.216C307.237 104.241 307.247 104.267 307.248 104.29L310.609 104.081ZM307.14 100.817C305.27 100.817 303.773 102.328 303.773 104.183H307.14V104.183V100.817ZM303.773 104.183V110.917H307.14V104.183H303.773ZM303.773 110.917V119.334H307.14V110.917H303.773ZM317.271 119.334H318.955V115.967L317.271 115.967V119.334ZM317.271 117.651V124.385H320.638V117.651H317.271ZM318.955 122.701H317.271V126.068H318.955V122.701ZM318.955 124.385V117.651H315.588V124.385H318.955ZM313.904 119.334H315.588V115.967L313.904 115.967V119.334ZM313.904 117.651V124.385H317.271V117.651H313.904ZM315.588 122.701H313.904V126.068H315.588V122.701ZM315.588 124.385V117.651H312.221V124.385H315.588ZM310.538 119.334H312.221L312.221 115.967L310.538 115.967V119.334ZM310.538 117.651V124.385H313.904V117.651H310.538ZM312.221 122.701H310.538V126.068H312.221V122.701ZM312.221 124.385V117.651H308.854V124.385H312.221Z" fill="#026568" mask="url(#path-42-outside-1_739_8398)"/>
</g>
</g>
<defs>
<filter id="filter0_dd_739_8398" x="12.4895" y="5.5247" width="444.702" height="441.151" filterUnits="userSpaceOnUse" color-interpolation-filters="sRGB">
<feFlood flood-opacity="0" result="BackgroundImageFix"/>
<feColorMatrix in="SourceAlpha" type="matrix" values="0 0 0 0 0 0 0 0 0 0 0 0 0 0 0 0 0 0 127 0" result="hardAlpha"/>
<feMorphology radius="1.57752" operator="dilate" in="SourceAlpha" result="effect1_dropShadow_739_8398"/>
<feOffset/>
<feGaussianBlur stdDeviation="3.94381"/>
<feComposite in2="hardAlpha" operator="out"/>
<feColorMatrix type="matrix" values="0 0 0 0 0 0 0 0 0 0 0 0 0 0 0 0 0 0 0.08 0"/>
<feBlend mode="normal" in2="BackgroundImageFix" result="effect1_dropShadow_739_8398"/>
<feColorMatrix in="SourceAlpha" type="matrix" values="0 0 0 0 0 0 0 0 0 0 0 0 0 0 0 0 0 0 127 0" result="hardAlpha"/>
<feOffset/>
<feGaussianBlur stdDeviation="10.7416"/>
<feComposite in2="hardAlpha" operator="out"/>
<feColorMatrix type="matrix" values="0 0 0 0 0 0 0 0 0 0 0 0 0 0 0 0 0 0 0.02 0"/>
<feBlend mode="normal" in2="effect1_dropShadow_739_8398" result="effect2_dropShadow_739_8398"/>
<feBlend mode="normal" in="SourceGraphic" in2="effect2_dropShadow_739_8398" result="shape"/>
</filter>
<filter id="filter1_dd_739_8398" x="50.9692" y="45.3783" width="367.743" height="95.845" filterUnits="userSpaceOnUse" color-interpolation-filters="sRGB">
<feFlood flood-opacity="0" result="BackgroundImageFix"/>
<feColorMatrix in="SourceAlpha" type="matrix" values="0 0 0 0 0 0 0 0 0 0 0 0 0 0 0 0 0 0 127 0" result="hardAlpha"/>
<feOffset dy="1.37397"/>
<feGaussianBlur stdDeviation="4.12192"/>
<feComposite in2="hardAlpha" operator="out"/>
<feColorMatrix type="matrix" values="0 0 0 0 0 0 0 0 0 0 0 0 0 0 0 0 0 0 0.02 0"/>
<feBlend mode="normal" in2="BackgroundImageFix" result="effect1_dropShadow_739_8398"/>
<feColorMatrix in="SourceAlpha" type="matrix" values="0 0 0 0 0 0 0 0 0 0 0 0 0 0 0 0 0 0 127 0" result="hardAlpha"/>
<feOffset dy="1.37397"/>
<feGaussianBlur stdDeviation="1.37397"/>
<feComposite in2="hardAlpha" operator="out"/>
<feColorMatrix type="matrix" values="0 0 0 0 0 0 0 0 0 0 0 0 0 0 0 0 0 0 0.08 0"/>
<feBlend mode="normal" in2="effect1_dropShadow_739_8398" result="effect2_dropShadow_739_8398"/>
<feBlend mode="normal" in="SourceGraphic" in2="effect2_dropShadow_739_8398" result="shape"/>
</filter>
<filter id="filter2_dd_739_8398" x="50.9692" y="135.727" width="367.743" height="95.5692" filterUnits="userSpaceOnUse" color-interpolation-filters="sRGB">
<feFlood flood-opacity="0" result="BackgroundImageFix"/>
<feColorMatrix in="SourceAlpha" type="matrix" values="0 0 0 0 0 0 0 0 0 0 0 0 0 0 0 0 0 0 127 0" result="hardAlpha"/>
<feOffset dy="1.37397"/>
<feGaussianBlur stdDeviation="4.12192"/>
<feComposite in2="hardAlpha" operator="out"/>
<feColorMatrix type="matrix" values="0 0 0 0 0 0 0 0 0 0 0 0 0 0 0 0 0 0 0.02 0"/>
<feBlend mode="normal" in2="BackgroundImageFix" result="effect1_dropShadow_739_8398"/>
<feColorMatrix in="SourceAlpha" type="matrix" values="0 0 0 0 0 0 0 0 0 0 0 0 0 0 0 0 0 0 127 0" result="hardAlpha"/>
<feOffset dy="1.37397"/>
<feGaussianBlur stdDeviation="1.37397"/>
<feComposite in2="hardAlpha" operator="out"/>
<feColorMatrix type="matrix" values="0 0 0 0 0 0 0 0 0 0 0 0 0 0 0 0 0 0 0.08 0"/>
<feBlend mode="normal" in2="effect1_dropShadow_739_8398" result="effect2_dropShadow_739_8398"/>
<feBlend mode="normal" in="SourceGraphic" in2="effect2_dropShadow_739_8398" result="shape"/>
</filter>
<filter id="filter3_dd_739_8398" x="-4.19844" y="91.45" width="312.895" height="304.173" filterUnits="userSpaceOnUse" color-interpolation-filters="sRGB">
<feFlood flood-opacity="0" result="BackgroundImageFix"/>
<feColorMatrix in="SourceAlpha" type="matrix" values="0 0 0 0 0 0 0 0 0 0 0 0 0 0 0 0 0 0 127 0" result="hardAlpha"/>
<feMorphology radius="1.10513" operator="dilate" in="SourceAlpha" result="effect1_dropShadow_739_8398"/>
<feOffset/>
<feGaussianBlur stdDeviation="2.76284"/>
<feComposite in2="hardAlpha" operator="out"/>
<feColorMatrix type="matrix" values="0 0 0 0 0 0 0 0 0 0 0 0 0 0 0 0 0 0 0.12 0"/>
<feBlend mode="normal" in2="BackgroundImageFix" result="effect1_dropShadow_739_8398"/>
<feColorMatrix in="SourceAlpha" type="matrix" values="0 0 0 0 0 0 0 0 0 0 0 0 0 0 0 0 0 0 127 0" result="hardAlpha"/>
<feOffset/>
<feGaussianBlur stdDeviation="7.525"/>
<feComposite in2="hardAlpha" operator="out"/>
<feColorMatrix type="matrix" values="0 0 0 0 0 0 0 0 0 0 0 0 0 0 0 0 0 0 0.04 0"/>
<feBlend mode="normal" in2="effect1_dropShadow_739_8398" result="effect2_dropShadow_739_8398"/>
<feBlend mode="normal" in="SourceGraphic" in2="effect2_dropShadow_739_8398" result="shape"/>
</filter>
<filter id="filter4_dd_739_8398" x="22.7585" y="119.369" width="258.982" height="65.4525" filterUnits="userSpaceOnUse" color-interpolation-filters="sRGB">
<feFlood flood-opacity="0" result="BackgroundImageFix"/>
<feColorMatrix in="SourceAlpha" type="matrix" values="0 0 0 0 0 0 0 0 0 0 0 0 0 0 0 0 0 0 127 0" result="hardAlpha"/>
<feOffset dy="0.962537"/>
<feGaussianBlur stdDeviation="2.88761"/>
<feComposite in2="hardAlpha" operator="out"/>
<feColorMatrix type="matrix" values="0 0 0 0 0 0 0 0 0 0 0 0 0 0 0 0 0 0 0.02 0"/>
<feBlend mode="normal" in2="BackgroundImageFix" result="effect1_dropShadow_739_8398"/>
<feColorMatrix in="SourceAlpha" type="matrix" values="0 0 0 0 0 0 0 0 0 0 0 0 0 0 0 0 0 0 127 0" result="hardAlpha"/>
<feOffset dy="0.962537"/>
<feGaussianBlur stdDeviation="0.962537"/>
<feComposite in2="hardAlpha" operator="out"/>
<feColorMatrix type="matrix" values="0 0 0 0 0 0 0 0 0 0 0 0 0 0 0 0 0 0 0.08 0"/>
<feBlend mode="normal" in2="effect1_dropShadow_739_8398" result="effect2_dropShadow_739_8398"/>
<feBlend mode="normal" in="SourceGraphic" in2="effect2_dropShadow_739_8398" result="shape"/>
</filter>
<filter id="filter5_dd_739_8398" x="22.7585" y="180.972" width="258.982" height="65.4525" filterUnits="userSpaceOnUse" color-interpolation-filters="sRGB">
<feFlood flood-opacity="0" result="BackgroundImageFix"/>
<feColorMatrix in="SourceAlpha" type="matrix" values="0 0 0 0 0 0 0 0 0 0 0 0 0 0 0 0 0 0 127 0" result="hardAlpha"/>
<feOffset dy="0.962537"/>
<feGaussianBlur stdDeviation="2.88761"/>
<feComposite in2="hardAlpha" operator="out"/>
<feColorMatrix type="matrix" values="0 0 0 0 0 0 0 0 0 0 0 0 0 0 0 0 0 0 0.02 0"/>
<feBlend mode="normal" in2="BackgroundImageFix" result="effect1_dropShadow_739_8398"/>
<feColorMatrix in="SourceAlpha" type="matrix" values="0 0 0 0 0 0 0 0 0 0 0 0 0 0 0 0 0 0 127 0" result="hardAlpha"/>
<feOffset dy="0.962537"/>
<feGaussianBlur stdDeviation="0.962537"/>
<feComposite in2="hardAlpha" operator="out"/>
<feColorMatrix type="matrix" values="0 0 0 0 0 0 0 0 0 0 0 0 0 0 0 0 0 0 0.08 0"/>
<feBlend mode="normal" in2="effect1_dropShadow_739_8398" result="effect2_dropShadow_739_8398"/>
<feBlend mode="normal" in="SourceGraphic" in2="effect2_dropShadow_739_8398" result="shape"/>
</filter>
<filter id="filter6_bdd_739_8398" x="145.726" y="139.429" width="249.549" height="79" filterUnits="userSpaceOnUse" color-interpolation-filters="sRGB">
<feFlood flood-opacity="0" result="BackgroundImageFix"/>
<feGaussianBlur in="BackgroundImageFix" stdDeviation="1.10513"/>
<feComposite in2="SourceAlpha" operator="in" result="effect1_backgroundBlur_739_8398"/>
<feColorMatrix in="SourceAlpha" type="matrix" values="0 0 0 0 0 0 0 0 0 0 0 0 0 0 0 0 0 0 127 0" result="hardAlpha"/>
<feMorphology radius="0.857317" operator="dilate" in="SourceAlpha" result="effect2_dropShadow_739_8398"/>
<feOffset/>
<feGaussianBlur stdDeviation="2"/>
<feComposite in2="hardAlpha" operator="out"/>
<feColorMatrix type="matrix" values="0 0 0 0 0 0 0 0 0 0 0 0 0 0 0 0 0 0 0.15 0"/>
<feBlend mode="normal" in2="effect1_backgroundBlur_739_8398" result="effect2_dropShadow_739_8398"/>
<feColorMatrix in="SourceAlpha" type="matrix" values="0 0 0 0 0 0 0 0 0 0 0 0 0 0 0 0 0 0 127 0" result="hardAlpha"/>
<feOffset dy="3.42927"/>
<feGaussianBlur stdDeviation="7.5"/>
<feComposite in2="hardAlpha" operator="out"/>
<feColorMatrix type="matrix" values="0 0 0 0 0 0 0 0 0 0 0 0 0 0 0 0 0 0 0.05 0"/>
<feBlend mode="normal" in2="effect2_dropShadow_739_8398" result="effect3_dropShadow_739_8398"/>
<feBlend mode="normal" in="SourceGraphic" in2="effect3_dropShadow_739_8398" result="shape"/>
</filter>
<filter id="filter7_bdd_739_8398" x="2" y="3.42927" width="267" height="79" filterUnits="userSpaceOnUse" color-interpolation-filters="sRGB">
<feFlood flood-opacity="0" result="BackgroundImageFix"/>
<feGaussianBlur in="BackgroundImageFix" stdDeviation="1.10513"/>
<feComposite in2="SourceAlpha" operator="in" result="effect1_backgroundBlur_739_8398"/>
<feColorMatrix in="SourceAlpha" type="matrix" values="0 0 0 0 0 0 0 0 0 0 0 0 0 0 0 0 0 0 127 0" result="hardAlpha"/>
<feMorphology radius="0.857317" operator="dilate" in="SourceAlpha" result="effect2_dropShadow_739_8398"/>
<feOffset/>
<feGaussianBlur stdDeviation="1.28598"/>
<feComposite in2="hardAlpha" operator="out"/>
<feColorMatrix type="matrix" values="0 0 0 0 0 0 0 0 0 0 0 0 0 0 0 0 0 0 0.2 0"/>
<feBlend mode="normal" in2="effect1_backgroundBlur_739_8398" result="effect2_dropShadow_739_8398"/>
<feColorMatrix in="SourceAlpha" type="matrix" values="0 0 0 0 0 0 0 0 0 0 0 0 0 0 0 0 0 0 127 0" result="hardAlpha"/>
<feOffset dy="3.42927"/>
<feGaussianBlur stdDeviation="7.5"/>
<feComposite in2="hardAlpha" operator="out"/>
<feColorMatrix type="matrix" values="0 0 0 0 0 0 0 0 0 0 0 0 0 0 0 0 0 0 0.1 0"/>
<feBlend mode="normal" in2="effect2_dropShadow_739_8398" result="effect3_dropShadow_739_8398"/>
<feBlend mode="normal" in="SourceGraphic" in2="effect3_dropShadow_739_8398" result="shape"/>
</filter>
<linearGradient id="paint0_linear_739_8398" x1="417.419" y1="142.5" x2="0" y2="142.5" gradientUnits="userSpaceOnUse">
<stop offset="0.1" stop-opacity="0"/>
<stop offset="0.130182" stop-opacity="0.01"/>
<stop offset="0.154742" stop-opacity="0.0324148"/>
<stop offset="0.174547" stop-opacity="0.0704"/>
<stop offset="0.190461" stop-opacity="0.120652"/>
<stop offset="0.203348" stop-opacity="0.181481"/>
<stop offset="0.214074" stop-opacity="0.2512"/>
<stop offset="0.223502" stop-opacity="0.328119"/>
<stop offset="0.232498" stop-opacity="0.410548"/>
<stop offset="0.241927" stop-opacity="0.4968"/>
<stop offset="0.252652" stop-opacity="0.585185"/>
<stop offset="0.265539" stop-opacity="0.674015"/>
<stop offset="0.281453" stop-opacity="0.7616"/>
<stop offset="0.301258" stop-opacity="0.846252"/>
<stop offset="0.325819" stop-opacity="0.926281"/>
<stop offset="0.356001"/>
</linearGradient>
<linearGradient id="paint1_linear_739_8398" x1="241.5" y1="0.5" x2="241.5" y2="248.5" gradientUnits="userSpaceOnUse">
<stop offset="0.56"/>
<stop offset="0.9" stop-opacity="0"/>
</linearGradient>
<clipPath id="clip0_739_8398">
<rect width="39.2192" height="39.599" fill="white" transform="translate(79.3962 71.8035)"/>
</clipPath>
<clipPath id="clip1_739_8398">
<rect width="30.8012" height="30.8012" fill="white" transform="translate(40 138)"/>
</clipPath>
<clipPath id="clip2_739_8398">
<rect width="30.8012" height="30.8012" fill="white" transform="translate(40.0856 197.335)"/>
</clipPath>
</defs>
</svg>
