<svg preserveAspectRatio="xMinYMid meet" overflow="visible" style="display: block;" viewBox="0 0 200.371 56" fill="none" xmlns="http://www.w3.org/2000/svg">
<g id="vector">
<path d="M48.0666 0.00594378C48.8136 -7.07528e-05 49.5534 0.0179728 50.2847 0.18638C52.6689 0.584541 54.9977 1.75978 56.6253 3.56414C57.7428 4.78389 58.5968 6.29955 58.9649 7.91745C59.3426 9.35132 59.3498 10.9019 59.1838 12.3682C58.8302 15.8205 57.5768 18.9842 55.8758 21.9818C53.9813 25.2874 51.6428 28.255 49.1239 31.1011C48.9604 31.2817 48.7974 31.4631 48.6343 31.6445C47.9242 32.4346 47.2129 33.2261 46.4499 33.9628C46.2986 34.114 46.1616 34.2772 46.0247 34.4404L46.0243 34.4409C45.8695 34.6253 45.7147 34.8098 45.5393 34.9768C44.096 36.4085 42.6555 37.8503 41.2178 39.2894L40.6026 39.9051C40.168 40.4411 39.6854 40.9147 39.1969 41.3941C39.1175 41.472 39.0377 41.5504 38.9582 41.6289C36.9144 43.8314 35.1787 46.3419 33.8735 49.0496C32.7668 51.2594 32.0499 53.5978 31.4954 56L31.397 55.9959L31.2729 55.9904C31.1991 55.9871 31.1253 55.9838 31.0515 55.9808C30.2949 55.1628 30.0735 53.9731 29.9412 52.9013C29.7199 51.3652 29.9015 49.7461 30.2431 48.2401C30.7423 46.2071 31.7287 44.3463 32.839 42.5864C34.3306 40.3502 36.0219 38.2836 37.8178 36.288C38.2299 35.8072 38.6625 35.3439 39.0952 34.8807L39.0957 34.8801C39.557 34.3861 40.0183 33.8921 40.4546 33.377C42.9795 30.6812 45.437 28.0276 47.7394 25.1383C49.5377 22.866 51.2711 20.3892 52.5173 17.7668C53.5278 15.8049 54.2339 13.6734 54.6513 11.5081C54.8522 10.4724 54.9484 9.44996 54.9123 8.39381C54.9905 6.83725 54.4348 5.21453 53.2595 4.16078C52.124 3.17079 50.5181 2.71609 49.0289 2.77624C48.8265 2.77916 48.6275 2.77789 48.4304 2.77662C47.8182 2.77268 47.2242 2.76887 46.6026 2.89171C45.3624 3.12628 44.1439 3.41738 42.9783 3.91298C40.9093 4.68525 38.963 5.81718 37.2224 7.17165C36.0243 8.10872 35.0018 9.17209 33.9625 10.2739C33.1554 11.2098 32.4156 12.1962 31.7047 13.2054C30.6617 14.7704 29.8005 16.4521 29.1449 18.2143C28.8165 19.167 28.5891 20.1474 28.4207 21.141C28.3567 21.69 28.3648 22.2481 28.3728 22.8054C28.3788 23.2224 28.3848 23.6389 28.3606 24.0508C27.948 24.7233 27.1204 24.2962 26.7318 23.8319C26.7174 23.3279 26.6537 22.8335 26.5298 22.3451C26.1484 20.7705 25.4652 19.2585 24.6292 17.8751C23.8954 16.6072 23.0221 15.4188 22.0429 14.3289C20.9868 13.0635 19.7105 11.9749 18.3584 11.0378C17.2241 10.2415 15.9261 9.67249 14.5993 9.28396C13.0247 8.89542 11.2577 8.87497 9.71795 9.4247C9.55195 8.50086 9.18867 7.86573 8.46332 7.27149C8.54653 7.25385 8.6294 7.23607 8.71199 7.21836C9.55829 7.03685 10.3765 6.86136 11.2577 6.88656C13.1931 6.8192 15.113 7.33765 16.8825 8.08827C18.949 9.00849 20.8268 10.4303 22.3918 12.0555C23.917 13.6481 25.1488 15.4573 26.2062 17.3879L26.2162 17.406C26.4678 17.8569 26.7173 18.304 26.8834 18.7953L27.1108 18.8278C27.6557 17.1762 28.2487 15.5788 29.0547 14.0318C30.3502 11.4516 31.9849 9.03736 33.9745 6.9407C34.3275 6.46588 34.7575 6.09381 35.1914 5.7184C35.4215 5.51937 35.6526 5.31938 35.8739 5.10266C37.4365 3.75179 39.1278 2.58618 40.9911 1.6864C43.1587 0.650701 45.6475 -0.073448 48.0666 0.00594378Z" fill="var(--fill-0, white)"/>
<path d="M6.87192 8.01374C7.32782 7.80443 7.70554 7.89706 8.08926 8.19057C8.70635 8.69338 8.92047 9.55466 8.92167 10.3185C8.94693 11.1714 8.6426 12.0182 8.00506 12.5992C7.73801 12.8434 7.41323 12.9829 7.04755 12.9541C6.55917 12.9601 6.23318 12.5968 5.98177 12.2239C5.42723 11.2616 5.45009 10.0479 5.88794 9.04703C6.08402 8.59234 6.40519 8.2038 6.87192 8.01374Z" fill="var(--fill-0, white)"/>
<path d="M4.41913 9.82048C3.88624 9.24309 3.24028 8.78839 2.41268 8.9556C1.97482 9.07107 1.66207 9.43074 1.54418 9.86018C1.32525 10.5531 1.53937 11.2724 1.85935 11.8967C2.2118 12.5956 2.76513 13.1886 3.48928 13.5062C3.92834 13.6926 4.42153 13.6698 4.79804 13.3582C5.21064 13.0238 5.29966 12.5078 5.30326 12.0038C5.34657 11.2122 4.92916 10.4027 4.41913 9.82048Z" fill="var(--fill-0, white)"/>
<path d="M9.98747 11.098C10.3471 10.9392 10.7658 10.9657 11.0725 11.2219C11.5368 11.6189 11.8267 12.2336 11.8412 12.8446C11.8736 13.6903 11.7425 14.4962 11.1254 15.1181C10.7633 15.5319 10.0115 15.6149 9.61337 15.2132C9.11176 14.7548 8.85674 14.1269 8.88681 13.4461C8.8387 12.5944 9.20438 11.5287 9.98747 11.098Z" fill="var(--fill-0, white)"/>
<path d="M3.07431 14.418C2.46444 13.8346 1.41911 13.4388 0.604743 13.754C0.166886 13.9392 -0.0580584 14.43 0.012913 14.8895C0.0718554 15.4344 0.348524 15.8915 0.719019 16.2837C1.28438 16.8803 1.99049 17.3146 2.84335 17.2508C3.34857 17.2677 3.80928 16.9561 3.93439 16.4581C4.05708 15.6534 3.6505 14.9449 3.07431 14.418Z" fill="var(--fill-0, white)"/>
<path d="M7.86906 14.3217C8.8795 14.8209 9.64214 15.8145 10.2628 16.7275L10.2803 16.7544C10.7256 17.4405 11.1678 18.122 11.1061 18.9805C11.1037 19.5351 10.6418 19.8454 10.1714 20.0138C9.66636 20.1812 9.0768 20.1538 8.51601 20.1277C8.1619 20.1113 7.81923 20.0953 7.51661 20.1293C7.2022 20.1969 6.91202 20.3798 6.62278 20.562C6.43838 20.6783 6.25437 20.7942 6.0647 20.8799C5.54023 21.1385 4.89788 21.3479 4.33973 21.0628C3.93075 20.7909 3.69257 20.3085 3.65167 19.8262C3.52777 18.5836 3.92112 17.3277 4.39627 16.1934C4.75233 15.3526 5.34416 14.543 6.20063 14.1665C6.73352 13.8995 7.35903 14.0835 7.86906 14.3217Z" fill="var(--fill-0, white)"/>
<path d="M20.3865 16.1055C20.075 15.83 19.6985 15.5895 19.2678 15.7386C18.5365 15.8938 18.0637 16.5674 17.8171 17.2278C17.4863 18.1685 17.443 19.3979 18.0625 20.2315C18.4054 20.7271 19.0718 20.8702 19.595 20.5827C20.6283 19.9969 21.0542 18.8 20.9543 17.6573C20.9471 17.1075 20.757 16.5169 20.3865 16.1055Z" fill="var(--fill-0, white)"/>
<path d="M14.4478 16.3005C15.3139 16.096 15.9599 16.6109 16.4723 17.2424C16.9222 17.8691 17.277 18.675 17.2037 19.463C17.158 20.0091 17.0268 20.56 16.5493 20.8896C16.1042 21.212 15.5184 21.0893 15.0854 20.8126C14.5344 20.4409 14.0845 19.9044 13.8355 19.2861C13.5781 18.657 13.3881 17.993 13.5901 17.317C13.7032 16.8599 13.9967 16.4629 14.4478 16.3005Z" fill="var(--fill-0, white)"/>
<path d="M132.129 17.436C131.436 16.8814 130.519 16.7696 129.678 17.0053C128.587 17.3494 127.84 18.438 127.923 19.5832C127.941 20.9268 129.124 22.0599 130.466 22.0371C131.82 22.0936 133.095 20.9605 133.07 19.5807C133.137 18.7399 132.785 17.958 132.129 17.436Z" fill="var(--fill-0, white)"/>
<path d="M1.18457 17.6839C1.75114 17.91 2.28643 18.0857 2.90593 18.0869C2.68046 18.6685 2.74507 19.3734 2.8017 19.9913L2.80849 20.0656C2.88307 20.803 3.32213 21.467 3.97772 21.8135C4.14641 21.8972 4.3284 21.9466 4.50991 21.9958C4.66489 22.0379 4.8196 22.0799 4.9653 22.1431C5.01823 22.2056 5.05913 22.2778 5.08559 22.3608C5.99379 25.593 7.821 28.5798 9.80339 31.2611C10.5227 32.1717 11.2553 33.0955 12.1021 33.8918C12.3053 34.0893 12.502 34.2901 12.6979 34.4901C13.1178 34.9188 13.5341 35.3438 14.0015 35.7227C15.8047 37.3586 17.7281 38.8346 19.7153 40.2384C21.6292 41.5399 23.5249 42.8066 25.5951 43.8555C25.9187 44.0179 26.2435 44.1466 26.5996 44.2176L26.606 44.2572L26.6249 44.3779L26.6285 44.4004L26.6344 44.4365C26.5264 44.436 26.4157 44.4377 26.3039 44.4394C25.8967 44.4458 25.4729 44.4523 25.0935 44.3523C24.0334 44.0936 22.9784 43.6135 21.9742 43.1565L21.9699 43.1545C21.8828 43.1149 21.7961 43.0755 21.7098 43.0363C21.5253 42.9456 21.34 42.8559 21.1546 42.7662L21.1516 42.7648L21.1507 42.7643L21.1497 42.7638L21.1489 42.7634C20.6385 42.5164 20.1271 42.2689 19.6299 41.997C18.2201 41.1899 16.7983 40.3719 15.4895 39.406C13.388 37.9468 11.4333 36.2531 9.62055 34.45C9.43303 34.2422 9.24291 34.0371 9.05285 33.832C8.62357 33.3689 8.19465 32.9062 7.79694 32.4135C7.04946 31.5894 6.39756 30.6707 5.75247 29.7616C5.68855 29.6715 5.62461 29.5814 5.56074 29.4916C4.29168 27.6235 3.20906 25.6134 2.3971 23.5047C1.72588 21.6739 1.16171 19.6446 1.18457 17.6839Z" fill="var(--fill-0, white)"/>
<path d="M81.096 24.8749C80.829 23.1535 80.1433 21.5115 78.867 20.2954C77.1805 18.645 74.7952 17.9148 72.4664 18.1386C71.3693 18.2613 70.4407 18.7184 69.4819 19.2332C69.0417 19.4714 68.6832 19.8022 68.3235 20.145C68.3239 19.97 68.3241 19.7949 68.3242 19.6199C68.3245 19.2706 68.3247 18.9215 68.3272 18.5728C67.7836 18.5724 67.2403 18.5727 66.697 18.5731H66.6956C65.7184 18.5737 64.7415 18.5743 63.7645 18.5704C63.7641 20.992 63.7644 23.4135 63.7648 25.8351C63.7654 30.1967 63.766 34.5583 63.7621 38.92C64.9578 38.9134 66.1535 38.9149 67.3487 38.9165C67.6745 38.9169 68.0002 38.9173 68.3259 38.9176C68.3229 36.5265 68.3232 34.1354 68.3236 31.7443C68.3238 30.3763 68.324 29.0083 68.3235 27.6403C68.3079 26.6864 68.4559 25.6988 68.8215 24.8147C69.2786 23.7489 70.2217 22.8528 71.3416 22.522C72.3016 22.2357 73.3433 22.2333 74.2851 22.5881C74.9768 22.8576 75.535 23.352 75.8922 24.0027C76.525 25.1034 76.6428 26.5144 76.6561 27.7594C76.6585 31.4788 76.6573 35.1994 76.6561 38.9188C77.7647 38.9144 78.8726 38.9151 79.9804 38.9158C80.3956 38.9161 80.8107 38.9164 81.2259 38.9164C81.218 36.7331 81.2191 34.5498 81.2203 32.3667C81.2211 30.9114 81.2218 29.4562 81.2199 28.0012C81.218 27.7658 81.2193 27.5336 81.2205 27.3032C81.2249 26.4898 81.2291 25.6998 81.096 24.8749Z" fill="var(--fill-0, white)"/>
<path d="M104.349 18.5741C105.089 18.5717 105.828 18.5723 106.567 18.5729C107.306 18.5735 108.045 18.5741 108.784 18.5717C108.778 19.3676 108.778 20.1638 108.779 20.96C108.78 21.7234 108.781 22.4867 108.775 23.2498C109.82 23.2587 110.864 23.2562 111.909 23.2537L112.581 23.2522C112.584 24.4034 112.586 25.5558 112.581 26.707C111.313 26.7033 110.045 26.7033 108.777 26.707C108.781 27.9353 108.78 29.1658 108.779 30.3961V30.3968C108.779 31.4035 108.778 32.4104 108.78 33.4156C108.79 34.0122 108.938 34.5836 109.409 34.9854C109.802 35.3558 110.363 35.3607 110.864 35.2765C111.528 35.1429 112.009 34.7327 112.432 34.2263C112.683 34.6886 112.928 35.1541 113.173 35.6195L113.174 35.6203L113.175 35.622C113.47 36.1827 113.765 36.7436 114.071 37.2985C113.395 37.9397 112.592 38.493 111.717 38.8226C109.904 39.4962 107.69 39.2328 106.198 37.9553C105.202 37.1602 104.618 35.9874 104.435 34.7376C104.341 34.1567 104.345 33.5882 104.349 33.0098V33.0035C104.35 32.8605 104.351 32.7169 104.351 32.5723C104.35 30.6008 104.35 28.6294 104.35 26.6579V26.5683C104.351 23.9035 104.351 21.2388 104.349 18.5741Z" fill="var(--fill-0, white)"/>
<path d="M23.0654 19.4415C22.7562 19.1022 22.3304 18.9868 21.8986 19.1732C21.415 19.3825 21.0493 19.8889 20.8448 20.3593C20.5694 21.075 20.4418 21.9772 20.8087 22.6809C20.9747 23.0165 21.237 23.4074 21.6231 23.5013C21.9334 23.5422 22.3316 23.5482 22.5842 23.3329C23.093 22.9359 23.4238 22.3814 23.5321 21.745C23.7125 20.9258 23.6404 20.0898 23.0654 19.4415Z" fill="var(--fill-0, white)"/>
<path d="M12.3908 20.8571C13.7248 20.6357 14.9963 21.6498 15.38 22.8852C15.4654 23.3759 15.5183 24.0159 15.0588 24.3455C14.5452 24.74 13.7067 24.5548 13.1835 24.2733C12.3775 23.7909 11.6101 22.8467 11.645 21.8627C11.6257 21.414 11.9637 20.9761 12.3908 20.8571Z" fill="var(--fill-0, white)"/>
<path fill-rule="evenodd" clip-rule="evenodd" d="M137.578 18.5717C138.687 18.5738 139.797 18.5734 140.906 18.5729C142.318 18.5724 143.73 18.5718 145.141 18.5765C146.748 18.615 148.451 18.8363 149.939 19.4763C151.171 19.9996 152.206 20.9474 152.771 22.1672C153.446 23.5818 153.569 25.2575 153.458 26.7996C153.326 28.0951 153.014 29.3269 152.207 30.3758C151.541 31.2563 150.623 31.8157 149.61 32.2199C148.282 32.7443 146.917 32.8983 145.502 32.9813C144.881 32.9848 144.259 32.9837 143.638 32.9827H143.637C142.761 32.9812 141.886 32.9797 141.01 32.9909C141.011 33.8887 141.011 34.7867 141.011 35.6848V35.6999C141.011 36.7726 141.011 37.8453 141.013 38.9176C139.868 38.9152 138.722 38.914 137.577 38.9189C137.581 33.1049 137.58 27.2901 137.579 21.4759L137.578 18.5717ZM145.021 21.7052L145.106 21.7116C146.309 21.802 147.589 21.8982 148.619 22.5857C149.401 23.103 149.806 23.9583 149.902 24.8713C149.984 25.8276 149.937 26.844 149.557 27.7378C149.267 28.409 148.8 28.9864 148.126 29.2968C147.252 29.7045 146.215 29.8176 145.261 29.8465C144.002 29.8518 142.742 29.8496 141.483 29.8473L141.012 29.8465C141.013 28.8306 141.012 27.8141 141.011 26.7974V26.7966C141.009 25.1014 141.007 23.4051 141.019 21.7112C141.962 21.6968 142.906 21.6998 143.849 21.7027L143.852 21.7027C144.242 21.704 144.631 21.7052 145.021 21.7052Z" fill="var(--fill-0, white)"/>
<path d="M19.049 21.9073C19.8068 22.2068 20.4347 22.8756 20.9002 23.5276C21.3585 24.212 21.782 24.9338 22.0971 25.6964C22.292 26.2269 22.4688 26.8668 22.1982 27.4009C21.8457 27.9483 21.2575 28.0962 20.6404 28.089C20.281 28.1084 19.9348 28.0522 19.5951 27.997C19.1536 27.9254 18.7231 27.8555 18.2887 27.9555C18.0505 28.0433 17.8306 28.1486 17.6151 28.2519C17.0981 28.4997 16.606 28.7356 15.9455 28.688C15.3572 28.6917 14.9675 28.237 14.822 27.7065C14.6716 26.5673 14.9807 25.5208 15.4559 24.4983C15.9058 23.518 16.4387 22.5604 17.4166 22.0239C17.9074 21.7208 18.5197 21.6931 19.049 21.9073Z" fill="var(--fill-0, white)"/>
<path d="M125.452 25.6414C125.457 24.7567 125.463 23.8709 125.4 22.9911C123.569 23.0537 122.025 23.9703 120.744 25.2213C120.745 24.9308 120.745 24.6406 120.745 24.3505C120.745 23.9882 120.745 23.6262 120.747 23.2642C119.896 23.251 119.045 23.2526 118.193 23.2543C117.572 23.2555 116.95 23.2567 116.329 23.2522C116.327 25.4901 116.328 27.728 116.328 29.9659V29.9804C116.329 32.9594 116.33 35.9385 116.324 38.9176C116.956 38.913 117.589 38.9143 118.221 38.9156C119.064 38.9174 119.908 38.9192 120.751 38.9068C120.741 37.1977 120.743 35.4885 120.744 33.7794C120.744 33.1766 120.745 32.5737 120.745 31.9708C120.728 30.9039 120.934 29.7972 121.452 28.8577C121.85 28.1408 122.502 27.5309 123.306 27.3132C123.967 27.1186 124.624 27.1153 125.301 27.1119L125.454 27.1111C125.446 26.6223 125.449 26.132 125.452 25.6414Z" fill="var(--fill-0, white)"/>
<path d="M85.5335 23.2641C86.6482 23.2459 87.7671 23.2511 88.8838 23.2563L88.8852 23.2563C89.2454 23.258 89.6054 23.2596 89.965 23.2605C89.9626 26.2846 89.9602 29.3099 89.9662 32.334C89.9914 33.3204 90.2994 34.492 91.1932 35.043C92.3083 35.6901 93.86 35.4219 94.7646 34.5221C95.4899 33.8725 95.775 32.9222 95.781 31.972C95.784 30.1858 95.7833 28.3988 95.7826 26.612C95.7822 25.4939 95.7818 24.3758 95.7822 23.2581C96.5635 23.2524 97.3451 23.2534 98.1267 23.2543C98.8301 23.2552 99.5335 23.2561 100.237 23.2521C100.237 24.7023 100.236 26.1526 100.236 27.6028C100.234 31.3744 100.233 35.1459 100.24 38.9175C99.6025 38.9139 98.9648 38.915 98.3271 38.916C97.477 38.9174 96.627 38.9187 95.7774 38.9091C95.783 38.4744 95.7822 38.0392 95.7814 37.6042C95.781 37.3867 95.7806 37.1693 95.781 36.952C95.1459 37.8289 94.3315 38.5603 93.2898 38.9079C92.0412 39.3373 90.7216 39.2315 89.473 38.8682C88.0475 38.4159 86.7592 37.3826 86.1277 36.0101C85.6935 35.0586 85.5046 33.976 85.5239 32.9331C85.5256 31.7843 85.5244 30.6301 85.5232 29.4746V29.4633C85.521 27.3933 85.5188 25.3191 85.5335 23.2641Z" fill="var(--fill-0, white)"/>
<path d="M130.836 23.2544C130 23.2521 129.164 23.2498 128.331 23.2629C128.302 23.3952 128.285 23.5299 128.28 23.6671C128.28 24.7421 128.281 25.8194 128.281 26.8981V26.9271C128.283 30.9202 128.284 34.9314 128.278 38.9091C129.279 38.918 130.281 38.9165 131.282 38.915C131.756 38.9142 132.23 38.9135 132.704 38.9139C132.701 36.3882 132.702 33.8622 132.702 31.3361C132.703 28.642 132.704 25.9476 132.7 23.2533C132.079 23.2579 131.457 23.2561 130.836 23.2544Z" fill="var(--fill-0, white)"/>
<path d="M198.506 23.4627H198.507C199.129 23.4619 199.75 23.461 200.371 23.4663C199.941 24.8112 199.472 26.1434 199.003 27.4759L199.002 27.4782C198.603 28.6132 198.203 29.7484 197.827 30.8918C197.228 32.5841 196.643 34.2817 196.059 35.9794L196.058 35.9806C195.721 36.9603 195.384 37.94 195.044 38.9188C194.01 38.9129 192.977 38.9142 191.943 38.9156L191.255 38.9164C190.711 37.3473 190.167 35.7794 189.624 34.2118L189.58 34.0865L189.576 34.0746C188.922 32.1895 188.268 30.3048 187.616 28.4186C187.319 29.1877 187.052 29.9683 186.786 30.749L186.785 30.7496C186.657 31.125 186.529 31.5004 186.397 31.8746C186.074 32.848 185.732 33.8167 185.389 34.7856L185.388 34.7875C184.905 36.1527 184.422 37.5183 183.994 38.8983C182.716 38.926 181.422 38.926 180.143 38.8983C180.024 38.4538 179.871 38.0211 179.719 37.588L179.717 37.5833C179.676 37.4672 179.635 37.3511 179.595 37.2347C179.095 35.8204 178.607 34.4024 178.119 32.9846L178.118 32.9814C177.578 31.4158 177.039 29.8504 176.485 28.2899C176.218 27.4677 175.931 26.6519 175.645 25.8362C175.368 25.0482 175.091 24.2601 174.831 23.4663C175.972 23.4615 177.112 23.4603 178.251 23.4663C178.597 24.591 178.97 25.7076 179.343 26.8237C179.467 27.1961 179.592 27.5685 179.715 27.9411L179.818 28.2573C180.562 30.5396 181.306 32.8218 182.072 35.0984C182.405 34.0285 182.761 32.9652 183.116 31.9021L183.117 31.9012C183.389 31.087 183.662 30.2723 183.924 29.4555C184.241 28.4433 184.578 27.4375 184.915 26.4318L184.916 26.4307L184.917 26.4263C185.248 25.4403 185.578 24.4544 185.89 23.4627L186.319 23.4631C187.32 23.4643 188.32 23.4655 189.321 23.4603C189.829 25.0129 190.34 26.5642 190.852 28.1156C191.619 30.4429 192.387 32.7704 193.139 35.1032C193.46 34.1881 193.758 33.2651 194.055 32.3423C194.237 31.7779 194.419 31.2136 194.606 30.6512C195.069 29.285 195.516 27.9129 195.962 26.5407L195.963 26.5397L195.964 26.5362C196.297 25.5105 196.631 24.4848 196.972 23.4615C197.483 23.4642 197.995 23.4635 198.506 23.4627Z" fill="var(--fill-0, white)"/>
<path fill-rule="evenodd" clip-rule="evenodd" d="M162.701 23.2496C162.774 23.2472 162.848 23.2446 162.922 23.2419C163.735 23.2128 164.586 23.1822 165.349 23.4469C166.713 23.8595 167.874 24.9048 168.656 26.0716C168.656 25.8379 168.656 25.604 168.657 25.3701V25.3691C168.66 24.738 168.662 24.1065 168.647 23.4758C169.298 23.4579 169.949 23.4604 170.6 23.4628C171.048 23.4645 171.496 23.4662 171.943 23.4613C171.943 24.8772 171.942 26.2931 171.941 27.7091L171.941 27.8236C171.939 31.5196 171.937 35.2158 171.949 38.9114C171.051 38.9173 170.152 38.916 169.254 38.9147L168.654 38.9138C168.659 38.0959 168.658 37.2779 168.657 36.4611C167.874 37.5967 166.71 38.4195 165.405 38.8489C164.018 39.3252 162.511 39.2711 161.125 38.8236C159.623 38.31 158.304 37.2418 157.405 35.9439C156.391 34.4775 156.031 32.6443 156.054 30.8881C156.116 29.2617 156.499 27.6017 157.496 26.2833C158.715 24.645 160.653 23.4421 162.701 23.2496ZM163.129 26.1764C164.013 26.0284 164.999 26.0416 165.825 26.4278C167.449 27.1531 168.546 28.7951 168.672 30.561C168.722 31.5702 168.714 32.5422 168.296 33.4816C167.718 34.8553 166.407 35.962 164.928 36.2134C163.994 36.3493 163.043 36.2639 162.184 35.8574C161.116 35.3473 160.21 34.4524 159.749 33.3553C159.344 32.4195 159.301 31.4054 159.409 30.4034C159.663 28.4198 161.152 26.619 163.129 26.1764Z" fill="var(--fill-0, white)"/>
</g>
</svg>
