<svg width="176" height="100" viewBox="0 0 176 100" fill="none" xmlns="http://www.w3.org/2000/svg">
<path d="M44.5464 91V79.224H47.1704V91H44.5464ZM51.6344 91L48.2104 85.976H51.0904L54.6744 91H51.6344ZM46.4664 87.256V85.192H49.3464C49.7304 85.192 50.061 85.1173 50.3384 84.968C50.6264 84.808 50.845 84.5893 50.9944 84.312C51.1544 84.024 51.2344 83.6933 51.2344 83.32C51.2344 82.9467 51.1544 82.6213 50.9944 82.344C50.845 82.056 50.6264 81.8373 50.3384 81.688C50.061 81.528 49.7304 81.448 49.3464 81.448H46.4664V79.224H49.1384C50.109 79.224 50.9517 79.3733 51.6664 79.672C52.381 79.96 52.9304 80.392 53.3144 80.968C53.6984 81.544 53.8904 82.2693 53.8904 83.144V83.4C53.8904 84.264 53.693 84.984 53.2984 85.56C52.9144 86.1253 52.365 86.552 51.6504 86.84C50.9464 87.1173 50.109 87.256 49.1384 87.256H46.4664ZM59.9496 91.304C59.203 91.304 58.5416 91.176 57.9656 90.92C57.4003 90.664 56.9256 90.3227 56.5416 89.896C56.1683 89.4587 55.8803 88.9733 55.6776 88.44C55.4856 87.896 55.3896 87.3413 55.3896 86.776V86.456C55.3896 85.8693 55.4856 85.3093 55.6776 84.776C55.8803 84.232 56.1683 83.7467 56.5416 83.32C56.915 82.8933 57.379 82.5573 57.9336 82.312C58.499 82.056 59.139 81.928 59.8536 81.928C60.7923 81.928 61.5816 82.1413 62.2216 82.568C62.8723 82.984 63.3683 83.5333 63.7096 84.216C64.051 84.888 64.2216 85.624 64.2216 86.424V87.288H56.4616V85.832H62.6696L61.8376 86.504C61.8376 85.9813 61.763 85.5333 61.6136 85.16C61.4643 84.7867 61.2403 84.504 60.9416 84.312C60.6536 84.1093 60.291 84.008 59.8536 84.008C59.4056 84.008 59.027 84.1093 58.7176 84.312C58.4083 84.5147 58.1736 84.8133 58.0136 85.208C57.8536 85.592 57.7736 86.0667 57.7736 86.632C57.7736 87.1547 57.8483 87.6133 57.9976 88.008C58.147 88.392 58.3816 88.6907 58.7016 88.904C59.0216 89.1173 59.4376 89.224 59.9496 89.224C60.419 89.224 60.803 89.1333 61.1016 88.952C61.4003 88.7707 61.603 88.5467 61.7096 88.28H64.0616C63.9336 88.8667 63.683 89.3893 63.3096 89.848C62.9363 90.3067 62.467 90.664 61.9016 90.92C61.3363 91.176 60.6856 91.304 59.9496 91.304ZM69.854 91.304C69.0967 91.304 68.4353 91.1813 67.87 90.936C67.3153 90.68 66.8513 90.3387 66.478 89.912C66.1047 89.4853 65.8273 89.0053 65.646 88.472C65.4647 87.928 65.374 87.368 65.374 86.792V86.488C65.374 85.8907 65.47 85.32 65.662 84.776C65.854 84.2213 66.1367 83.7307 66.51 83.304C66.8833 82.8773 67.3473 82.5413 67.902 82.296C68.4673 82.0507 69.1127 81.928 69.838 81.928C70.6273 81.928 71.326 82.0827 71.934 82.392C72.542 82.6907 73.0273 83.112 73.39 83.656C73.7527 84.2 73.9553 84.824 73.998 85.528H71.486C71.4433 85.1333 71.2833 84.8027 71.006 84.536C70.7393 84.2587 70.35 84.12 69.838 84.12C69.4113 84.12 69.054 84.2267 68.766 84.44C68.4887 84.6533 68.2807 84.9467 68.142 85.32C68.0033 85.6933 67.934 86.136 67.934 86.648C67.934 87.1173 67.998 87.544 68.126 87.928C68.254 88.3013 68.4567 88.5947 68.734 88.808C69.022 89.0107 69.3953 89.112 69.854 89.112C70.1953 89.112 70.4833 89.0533 70.718 88.936C70.9633 88.808 71.1553 88.6373 71.294 88.424C71.4433 88.2 71.534 87.944 71.566 87.656H74.062C74.03 88.3813 73.8273 89.0213 73.454 89.576C73.0807 90.12 72.5847 90.5467 71.966 90.856C71.3473 91.1547 70.6433 91.304 69.854 91.304ZM79.7153 91.304C78.9686 91.304 78.3073 91.176 77.7313 90.92C77.1659 90.664 76.6913 90.3227 76.3073 89.896C75.9339 89.4587 75.6459 88.9733 75.4433 88.44C75.2513 87.896 75.1553 87.3413 75.1553 86.776V86.456C75.1553 85.8693 75.2513 85.3093 75.4433 84.776C75.6459 84.232 75.9339 83.7467 76.3073 83.32C76.6806 82.8933 77.1446 82.5573 77.6993 82.312C78.2646 82.056 78.9046 81.928 79.6193 81.928C80.5579 81.928 81.3473 82.1413 81.9873 82.568C82.6379 82.984 83.1339 83.5333 83.4753 84.216C83.8166 84.888 83.9873 85.624 83.9873 86.424V87.288H76.2273V85.832H82.4353L81.6033 86.504C81.6033 85.9813 81.5286 85.5333 81.3793 85.16C81.2299 84.7867 81.0059 84.504 80.7073 84.312C80.4193 84.1093 80.0566 84.008 79.6193 84.008C79.1713 84.008 78.7926 84.1093 78.4833 84.312C78.1739 84.5147 77.9393 84.8133 77.7793 85.208C77.6193 85.592 77.5393 86.0667 77.5393 86.632C77.5393 87.1547 77.6139 87.6133 77.7633 88.008C77.9126 88.392 78.1473 88.6907 78.4673 88.904C78.7873 89.1173 79.2033 89.224 79.7153 89.224C80.1846 89.224 80.5686 89.1333 80.8673 88.952C81.1659 88.7707 81.3686 88.5467 81.4753 88.28H83.8273C83.6993 88.8667 83.4486 89.3893 83.0753 89.848C82.7019 90.3067 82.2326 90.664 81.6673 90.92C81.1019 91.176 80.4513 91.304 79.7153 91.304ZM86.0996 91V82.232H88.6596V91H86.0996ZM84.9316 84.12V82.232H88.6596V84.12H84.9316ZM87.0916 81.368C86.6116 81.368 86.2543 81.2453 86.0196 81C85.7956 80.744 85.6836 80.424 85.6836 80.04C85.6836 79.6453 85.7956 79.3253 86.0196 79.08C86.2543 78.824 86.6116 78.696 87.0916 78.696C87.5716 78.696 87.9236 78.824 88.1476 79.08C88.3823 79.3253 88.4996 79.6453 88.4996 80.04C88.4996 80.424 88.3823 80.744 88.1476 81C87.9236 81.2453 87.5716 81.368 87.0916 81.368ZM92.7234 91L90.0994 82.232H92.7394L95.2034 91H92.7234ZM93.5234 91V88.872H96.0994V91H93.5234ZM94.4674 91L96.5954 82.232H99.0594L96.7874 91H94.4674ZM104.387 91.304C103.64 91.304 102.979 91.176 102.403 90.92C101.838 90.664 101.363 90.3227 100.979 89.896C100.606 89.4587 100.318 88.9733 100.115 88.44C99.9231 87.896 99.8271 87.3413 99.8271 86.776V86.456C99.8271 85.8693 99.9231 85.3093 100.115 84.776C100.318 84.232 100.606 83.7467 100.979 83.32C101.352 82.8933 101.816 82.5573 102.371 82.312C102.936 82.056 103.576 81.928 104.291 81.928C105.23 81.928 106.019 82.1413 106.659 82.568C107.31 82.984 107.806 83.5333 108.147 84.216C108.488 84.888 108.659 85.624 108.659 86.424V87.288H100.899V85.832H107.107L106.275 86.504C106.275 85.9813 106.2 85.5333 106.051 85.16C105.902 84.7867 105.678 84.504 105.379 84.312C105.091 84.1093 104.728 84.008 104.291 84.008C103.843 84.008 103.464 84.1093 103.155 84.312C102.846 84.5147 102.611 84.8133 102.451 85.208C102.291 85.592 102.211 86.0667 102.211 86.632C102.211 87.1547 102.286 87.6133 102.435 88.008C102.584 88.392 102.819 88.6907 103.139 88.904C103.459 89.1173 103.875 89.224 104.387 89.224C104.856 89.224 105.24 89.1333 105.539 88.952C105.838 88.7707 106.04 88.5467 106.147 88.28H108.499C108.371 88.8667 108.12 89.3893 107.747 89.848C107.374 90.3067 106.904 90.664 106.339 90.92C105.774 91.176 105.123 91.304 104.387 91.304ZM113.972 91.288C113.353 91.288 112.788 91.176 112.276 90.952C111.774 90.728 111.337 90.4187 110.964 90.024C110.59 89.6187 110.302 89.144 110.1 88.6C109.908 88.056 109.812 87.4693 109.812 86.84V86.472C109.812 85.8427 109.902 85.256 110.084 84.712C110.276 84.168 110.548 83.6933 110.9 83.288C111.262 82.872 111.694 82.552 112.196 82.328C112.697 82.0933 113.257 81.976 113.876 81.976C114.58 81.976 115.188 82.1307 115.7 82.44C116.212 82.7387 116.612 83.1867 116.9 83.784C117.188 84.3707 117.348 85.096 117.38 85.96L116.708 85.336V79.32H119.284V91H117.252V87.368H117.604C117.572 88.2 117.396 88.9093 117.076 89.496C116.766 90.0827 116.345 90.5307 115.812 90.84C115.278 91.1387 114.665 91.288 113.972 91.288ZM114.612 89.144C115.006 89.144 115.364 89.0587 115.684 88.888C116.014 88.7067 116.276 88.4453 116.468 88.104C116.67 87.7627 116.772 87.352 116.772 86.872V86.28C116.772 85.8107 116.67 85.416 116.468 85.096C116.265 84.776 115.998 84.5307 115.668 84.36C115.337 84.1893 114.98 84.104 114.596 84.104C114.169 84.104 113.785 84.216 113.444 84.44C113.113 84.6533 112.852 84.952 112.66 85.336C112.468 85.7093 112.372 86.1467 112.372 86.648C112.372 87.16 112.468 87.6027 112.66 87.976C112.852 88.3493 113.118 88.6373 113.46 88.84C113.801 89.0427 114.185 89.144 114.612 89.144ZM125.541 91V83.224C125.541 81.8907 125.946 80.8773 126.757 80.184C127.578 79.4907 128.698 79.144 130.117 79.144C130.362 79.144 130.65 79.1547 130.981 79.176C131.312 79.1867 131.637 79.208 131.957 79.24C132.288 79.2613 132.554 79.2827 132.757 79.304V81.384C132.554 81.3627 132.282 81.3413 131.941 81.32C131.61 81.288 131.274 81.2667 130.933 81.256C130.602 81.2347 130.33 81.224 130.117 81.224C129.584 81.224 129.152 81.304 128.821 81.464C128.49 81.6133 128.25 81.848 128.101 82.168C127.952 82.488 127.877 82.8773 127.877 83.336V91H125.541ZM124.453 91V89.016H132.069V91H124.453ZM124.549 85.992V84.28H131.653V85.992H124.549ZM131.493 91V87.608H133.493V91H131.493ZM136.257 91L140.353 81.704L140.177 81.464H134.497V79.32H143.345V80.984L139.041 91H136.257ZM134.497 83.352V79.32H136.625V83.352H134.497ZM144.648 91V88.6C144.648 88.0987 144.728 87.6613 144.888 87.288C145.058 86.9147 145.325 86.584 145.688 86.296C146.05 85.9973 146.53 85.72 147.128 85.464L149.016 84.648C149.496 84.4453 149.848 84.1947 150.072 83.896C150.306 83.5973 150.424 83.2187 150.424 82.76C150.424 82.2907 150.28 81.9067 149.992 81.608C149.704 81.3093 149.282 81.16 148.728 81.16C148.173 81.16 147.752 81.3147 147.464 81.624C147.176 81.9333 147.032 82.3493 147.032 82.872H144.488C144.488 82.136 144.648 81.4747 144.968 80.888C145.288 80.2907 145.762 79.8213 146.392 79.48C147.021 79.1387 147.8 78.968 148.728 78.968C149.656 78.968 150.429 79.1333 151.048 79.464C151.677 79.7947 152.152 80.2373 152.472 80.792C152.802 81.3467 152.968 81.9707 152.968 82.664V82.856C152.968 83.752 152.722 84.4933 152.232 85.08C151.741 85.656 150.984 86.168 149.96 86.616L148.088 87.432C147.768 87.5707 147.538 87.7147 147.4 87.864C147.272 88.0133 147.208 88.216 147.208 88.472V89.272L146.584 88.744H152.984V91H144.648ZM159.045 78.984C159.909 78.984 160.65 79.128 161.269 79.416C161.888 79.6933 162.389 80.0933 162.773 80.616C163.168 81.128 163.456 81.72 163.637 82.392C163.829 83.064 163.925 83.784 163.925 84.552V85.224C163.925 87.1653 163.429 88.632 162.437 89.624C161.445 90.6053 159.984 91.096 158.053 91.096C157.658 91.096 157.269 91.0853 156.885 91.064C156.501 91.0427 156.128 91.0107 155.765 90.968V88.776C156.117 88.808 156.496 88.84 156.901 88.872C157.306 88.8933 157.722 88.904 158.149 88.904C159.002 88.904 159.674 88.7653 160.165 88.488C160.656 88.2 161.002 87.7733 161.205 87.208C161.408 86.6427 161.509 85.944 161.509 85.112V83.896L162.085 83.512C162.074 84.312 161.909 84.984 161.589 85.528C161.28 86.0613 160.848 86.4613 160.293 86.728C159.738 86.9947 159.098 87.128 158.373 87.128C157.552 87.128 156.842 86.968 156.245 86.648C155.648 86.3173 155.189 85.8587 154.869 85.272C154.549 84.6853 154.389 83.992 154.389 83.192C154.389 82.3493 154.581 81.6133 154.965 80.984C155.349 80.344 155.888 79.8533 156.581 79.512C157.285 79.16 158.106 78.984 159.045 78.984ZM159.125 81.16C158.656 81.16 158.256 81.2453 157.925 81.416C157.605 81.5867 157.354 81.8213 157.173 82.12C157.002 82.408 156.917 82.7493 156.917 83.144C156.917 83.5493 157.002 83.9013 157.173 84.2C157.344 84.488 157.584 84.7173 157.893 84.888C158.213 85.048 158.602 85.128 159.061 85.128C159.477 85.128 159.856 85.0587 160.197 84.92C160.549 84.7707 160.826 84.552 161.029 84.264C161.232 83.9653 161.333 83.592 161.333 83.144C161.333 82.76 161.248 82.4187 161.077 82.12C160.917 81.8213 160.672 81.5867 160.341 81.416C160.01 81.2453 159.605 81.16 159.125 81.16ZM172.125 91L169.357 86.904H168.125L171.693 82.232H174.381L171.021 86.584L171.053 85.336L175.005 91H172.125ZM165.949 91V79.32H168.509V91H165.949Z" fill="white"/>
<path d="M171.117 51.0026V32.55H175.1V51.0026C175.1 53.0076 174.464 54.9604 173.286 56.5786C172.108 58.1968 170.449 59.3966 168.547 60.0044C166.646 60.6121 164.602 60.5965 162.71 59.9595C160.818 59.3227 159.177 58.0975 158.023 56.4615C156.87 54.8254 156.265 52.863 156.295 50.8583C156.325 48.8536 156.988 46.9105 158.19 45.3098C159.391 43.7092 161.069 42.5341 162.979 41.9545C164.889 41.3749 166.932 41.4208 168.815 42.0856V46.5457C168.409 46.2558 167.965 46.0256 167.494 45.8621C166.411 45.4803 165.234 45.4546 164.135 45.7889C163.036 46.1231 162.071 46.7999 161.38 47.7214C160.688 48.643 160.307 49.7616 160.289 50.9154C160.272 52.0692 160.621 53.1988 161.285 54.1404C161.948 55.0822 162.893 55.7876 163.982 56.1544C165.071 56.5214 166.247 56.5308 167.342 56.1815C168.436 55.8323 169.392 55.1422 170.071 54.2112C170.749 53.2803 171.116 52.1566 171.117 51.0026Z" fill="white"/>
<path d="M122.558 55.4379C121.749 56.0202 120.796 56.3675 119.804 56.4419C118.812 56.5164 117.819 56.3151 116.933 55.8601C116.047 55.4051 115.303 54.714 114.782 53.8624C114.261 53.0105 113.983 52.0313 113.979 51.0315C113.974 50.0319 114.244 49.0502 114.758 48.1942C115.272 47.3382 116.01 46.6408 116.893 46.1784C117.775 45.716 118.766 45.5064 119.759 45.5725C120.752 45.6386 121.707 45.978 122.521 46.5534L124.658 43.1666C123.245 42.2084 121.598 41.6547 119.895 41.5648C118.192 41.4748 116.497 41.852 114.991 42.656C113.485 43.46 112.225 44.6604 111.346 46.1288C110.467 47.5971 110.001 49.2781 110 50.9918C109.999 52.7054 110.461 54.3871 111.338 55.8568C112.215 57.3266 113.473 58.529 114.978 59.3353C116.482 60.1417 118.177 60.5216 119.88 60.4344C121.583 60.3472 123.231 59.796 124.646 58.8402L122.558 55.4379Z" fill="white"/>
<path fill-rule="evenodd" clip-rule="evenodd" d="M128.305 58.8576C129.851 59.8959 131.669 60.4501 133.529 60.4501C136.022 60.4476 138.413 59.4513 140.175 57.6798C141.938 55.9084 142.93 53.5064 142.932 51.0011C142.932 49.1323 142.381 47.3054 141.348 45.7515C140.314 44.1976 138.846 42.9865 137.128 42.2714C135.409 41.5562 133.519 41.3691 131.695 41.7337C129.871 42.0982 128.195 42.9982 126.88 44.3196C125.565 45.6411 124.669 47.3247 124.307 49.1577C123.944 50.9906 124.13 52.8904 124.842 54.617C125.553 56.3437 126.759 57.8193 128.305 58.8576ZM130.518 46.4739C131.409 45.8754 132.457 45.5559 133.529 45.5559C134.966 45.5576 136.344 46.1319 137.36 47.153C138.376 48.1741 138.948 49.5585 138.949 51.0026C138.949 52.0799 138.632 53.1329 138.036 54.0286C137.44 54.9243 136.594 55.6224 135.603 56.0347C134.613 56.447 133.523 56.5548 132.472 56.3446C131.42 56.1345 130.455 55.6158 129.696 54.854C128.938 54.0923 128.422 53.1218 128.213 52.0652C128.004 51.0086 128.111 49.9134 128.521 48.9183C128.932 47.923 129.626 47.0723 130.518 46.4739Z" fill="white"/>
<path d="M152.959 41.6051C154.492 41.4451 156.04 41.6659 157.468 42.248L155.247 45.7168C154.448 45.5162 153.613 45.5013 152.807 45.6731C152.001 45.8449 151.244 46.199 150.595 46.7085C149.945 47.2179 149.419 47.8694 149.057 48.6135C148.696 49.3575 148.507 50.1745 148.506 51.0026V60.4361H144.525V51.0026C144.526 49.4544 144.905 47.93 145.629 46.5634C146.353 45.1968 147.401 44.03 148.679 43.1654C149.957 42.3009 151.427 41.7651 152.959 41.6051Z" fill="white"/>
</svg>
