<svg width="164" height="164" viewBox="0 0 164 164" fill="none" xmlns="http://www.w3.org/2000/svg">
<path d="M22.2323 136.368C22.2323 135.269 22.5158 134.17 22.3799 133.071C22.1527 131.249 22.5772 131.125 22.5639 130.087C22.5639 129.556 22.6535 128.322 22.6551 127.791C22.6551 127.292 22.3036 126.325 22.3351 125.832C22.3351 125.763 22.3351 125.701 22.3351 125.642C22.355 125.406 22.3865 125.169 22.4296 124.93C22.4512 124.81 22.4744 124.696 22.5009 124.569L22.5855 124.071C22.7049 123.385 22.8524 122.595 23 121.691C22.2041 121.52 21.2258 121.347 20.1216 121.22L20.0188 121.207C19.9873 121.207 19.9392 121.199 19.9292 121.196L19.8181 121.173L19.6076 121.129C19.4616 121.102 19.3174 121.08 19.1731 121.06C18.8908 121.021 18.6061 121.001 18.3209 121C17.1436 121 15.988 121.283 14.819 121.422C13.7429 121.545 12.6535 121.634 11.5642 121.721L9.76516 121.878L9.31748 121.915C9.15167 121.931 8.95767 121.955 8.78026 121.977C8.60284 121.999 8.42377 122.049 8.24801 122.091C8.07226 122.134 7.90147 122.193 7.73567 122.259C6.5914 122.651 5.61649 123.391 4.96335 124.364C4.63745 124.85 4.40661 125.387 4.28187 125.951C4.24708 126.092 4.22215 126.234 4.20726 126.378L4.18736 126.584C4.18736 126.656 4.17244 126.732 4.17078 126.785L4.1343 127.492C4.08788 128.509 4.05416 129.526 4.03316 130.541L4.00829 132.064L4 132.826V133.399L4.00995 133.639C4.04418 134.292 4.25176 134.927 4.61349 135.484C4.95231 136.006 5.40446 136.454 5.93996 136.799C6.98289 137.471 8.19661 137.706 9.37883 137.708C10.8048 137.731 13.0167 138.005 14.4343 137.972C16.4157 138.111 17.5466 137.687 19.906 137.741C20.9407 137.764 21.846 137.645 21.8476 137.321C21.8493 136.998 20.9688 136.905 19.906 136.913C16.8651 136.935 15.4524 136.803 12.6104 136.766C11.9356 136.758 11.2193 136.736 10.3687 136.715L9.70547 136.7H9.35064C9.23126 136.7 9.14006 136.687 9.03063 136.681C8.5679 136.64 8.11767 136.516 7.70416 136.315C7.43697 136.183 7.19757 136.006 6.99782 135.792C6.89738 135.689 6.80589 135.578 6.72423 135.461C6.68112 135.404 6.64962 135.34 6.61148 135.28C6.57319 135.221 6.53939 135.16 6.51034 135.096L6.42246 134.91C6.39428 134.847 6.37604 134.781 6.35282 134.716C6.30303 134.586 6.26096 134.454 6.22681 134.319C6.17145 134.06 6.13818 133.798 6.12732 133.534C6.12732 133.489 6.12401 133.445 6.11737 133.402C6.11737 133.346 6.11737 133.292 6.11737 133.245C6.11737 133.138 6.11737 133.038 6.11737 132.942C6.11737 132.752 6.11737 132.582 6.11737 132.428C6.11737 132.124 6.11737 131.885 6.11737 131.686C6.11537 131.347 6.14254 131.009 6.19862 130.674C6.36443 129.586 6.65957 128.825 6.69605 127.873C6.70765 127.603 6.7176 127.331 6.72258 127.058V126.854C6.7194 126.794 6.7194 126.734 6.72258 126.673C6.73418 126.589 6.72258 126.502 6.74247 126.421C6.78665 126.086 6.88977 125.76 7.04756 125.458C7.20084 125.158 7.42125 124.892 7.69352 124.681C7.9658 124.469 8.28342 124.316 8.6244 124.232C8.66751 124.222 8.70896 124.208 8.75373 124.202L8.88638 124.186C8.92965 124.178 8.97338 124.172 9.01736 124.169H9.16162H9.29924H9.50484L9.91273 124.183C10.4582 124.208 11.0004 124.246 11.541 124.302C12.519 124.417 13.5036 124.472 14.489 124.469C15.5751 124.45 16.6446 124.59 17.724 124.577C18.4308 124.565 19.1362 124.513 19.8364 124.42C19.8778 124.42 19.9325 124.409 19.9607 124.403L19.9757 124.386C19.9863 124.372 19.9979 124.36 20.0105 124.348C20.0401 124.32 20.0717 124.293 20.105 124.269C20.2189 124.199 20.3393 124.138 20.4648 124.089C20.5731 124.138 20.6637 124.216 20.7251 124.313C20.771 124.377 20.8126 124.443 20.8495 124.511L20.8793 124.568L20.8876 124.583V124.612L20.9025 124.668C20.9213 124.744 20.9396 124.816 20.9572 124.885C21.063 125.243 21.1449 125.607 21.2026 125.975C21.1546 126.69 21.1546 127.407 21.2026 128.123C21.2673 128.721 21.2142 129.425 21.254 130.024C21.2905 131.062 21.3054 132.091 21.3071 133.134C21.3071 134.296 21.4513 135.213 21.4513 136.367C21.4513 136.813 21.5343 137.318 21.7979 137.326C22.1627 137.339 22.2323 136.978 22.2323 136.368Z" fill="#063844"/>
<path d="M71.7967 66.7524C70.0798 65.4371 67.7663 64.7157 65.5817 65.1056C63.3971 65.4954 61.4406 67.1161 61.0671 69.1543C60.6342 71.5224 62.3528 73.8675 64.5754 75.0954C66.798 76.3232 69.4386 76.6746 72 77" fill="white"/>
<path d="M71.5539 76.5016C71.0077 76.4287 70.4945 76.1735 69.9433 76.1719C69.0242 76.1624 69.0176 75.8818 68.5176 75.7835C68.2602 75.7376 67.6925 75.5283 67.4499 75.4586C67.2867 75.4296 67.1207 75.4184 66.9549 75.4253C66.7916 75.4313 66.6286 75.4098 66.473 75.3619L66.3889 75.327C65.9268 75.1019 65.5539 74.693 65.2338 74.2824C65.0688 74.0811 64.94 73.875 64.7998 73.7007C64.6786 73.5275 64.5344 73.3703 64.3707 73.2331C64.011 72.9462 63.5374 72.7655 63.1579 72.4532C62.8123 72.162 62.5087 71.8277 62.2552 71.4593C61.9651 71.0537 61.7424 70.6072 61.5952 70.1358C61.4994 69.7341 61.4994 69.3169 61.5952 68.9152C61.6889 68.5265 61.8407 68.1527 62.0457 67.8057C62.4883 67.0621 63.111 66.432 63.8608 65.9685C64.2437 65.7276 64.5754 65.4327 64.9681 65.176C65.3601 64.8946 65.8269 64.7254 66.3146 64.6877C66.6992 64.6804 67.0831 64.7215 67.4565 64.8098C67.8575 64.8986 68.247 65.0111 68.5539 65.0872C68.9187 65.2169 69.2912 65.3259 69.6694 65.4137C70.0992 65.5123 70.5057 65.6881 70.8674 65.932C71.2535 66.1936 71.6232 66.3886 71.7733 66.2205C71.9235 66.0525 71.6265 65.745 71.1875 65.466C70.6734 65.1481 70.135 64.8678 69.577 64.6275C69.0364 64.3895 68.4663 64.219 67.8806 64.1203C67.5098 64.0565 67.1349 64.0173 66.7585 64.003C66.2392 63.9868 65.7199 64.0364 65.214 64.1504C64.8509 64.2296 64.4879 64.3089 64.1216 64.3992C63.7533 64.4955 63.4023 64.6446 63.0803 64.8415C62.8592 64.9778 62.7024 65.111 62.5671 65.2092C62.4318 65.3075 62.341 65.401 62.2552 65.4708C62.1171 65.5957 61.9705 65.7117 61.8163 65.8179C61.3212 66.1777 60.9104 66.4409 60.615 66.918C60.2755 67.4722 60.0718 68.0934 60.0193 68.7345C60.0193 68.8851 59.9945 69.0341 60.0011 69.1847L60.0143 69.6349C60.0473 69.9313 60.0754 70.2277 60.1381 70.5162C60.2617 71.0894 60.4255 71.6539 60.6282 72.2059C60.7929 72.7064 61.0476 73.1752 61.3806 73.5913C61.7536 74.0351 62.077 74.5138 62.5358 74.8879C62.7065 75.0255 62.8874 75.1511 63.077 75.2636C63.2702 75.3751 63.4715 75.4731 63.6793 75.5569C63.8772 75.6405 64.0813 75.7099 64.2899 75.7645L64.5836 75.8406L64.8691 75.8961C65.6067 76.0276 66.1694 76.0165 66.2948 76.0546C66.6307 76.206 66.9849 76.3168 67.3493 76.3843C67.5027 76.4065 67.6644 76.4477 67.8262 76.4857C67.9822 76.5287 68.1409 76.5621 68.3014 76.5856C68.8229 76.6775 69.3394 76.7631 69.8608 76.844C70.4417 76.9359 70.9136 76.9121 71.4879 76.9882C71.709 77.0183 71.9681 76.9993 71.9961 76.8297C72.0291 76.6078 71.8492 76.5412 71.5539 76.5016Z" fill="#063844"/>
<path d="M72.9975 91.4739C75.6068 90.8083 77.3811 88.2442 76.6262 85.6864C75.8553 83.0668 64.987 79.5693 67.3302 67.4523C70.095 44.7999 77.6311 44.1201 82.7743 42.7049C87.9175 41.2897 94.0128 42.1201 98.6415 44.174C98.6415 44.174 108.492 48.971 107.981 61.9833C107.469 74.9957 102.283 83.2189 100.691 84.52C100.691 84.52 98.1607 93 104.666 93" fill="white"/>
<path d="M103.889 93.4781C103.033 93.3818 102.243 92.9674 101.675 92.3161C101.411 92.0141 101.198 91.6715 101.042 91.3015C100.887 90.9178 100.772 90.5192 100.699 90.1119C100.655 89.8202 100.641 89.5247 100.658 89.2302C100.667 88.8948 100.705 88.5593 100.71 88.3437C100.715 88.1282 100.729 87.8575 100.754 87.5787C100.778 87.3 100.82 87.0164 100.86 86.8186C100.91 86.5569 100.985 86.3007 101.084 86.0536C101.101 86.0066 101.121 85.9597 101.14 85.911C101.159 85.8624 101.172 85.8348 101.19 85.7911C101.225 85.7133 101.253 85.6144 101.309 85.4977L101.47 85.3648L101.551 85.2984L101.665 85.1752L101.897 84.9289C101.974 84.8462 102.058 84.7668 102.117 84.6809L102.536 84.1769C102.67 84.0067 102.792 83.8316 102.921 83.6582C103.429 82.9259 103.886 82.1591 104.288 81.3633C104.67 80.6178 105.055 79.8787 105.398 79.1154L105.683 78.5028L105.945 77.8804C106.032 77.6713 106.117 77.4639 106.2 77.2532L106.322 76.929L106.425 76.6049C106.586 76.0879 106.747 75.5725 106.886 75.0506L107.267 73.4785C107.375 73.0069 107.472 72.5401 107.589 72.0782C107.649 71.8481 107.712 71.618 107.776 71.3878C107.841 71.1577 107.894 70.9259 107.953 70.6925C108.18 69.9292 108.436 69.1723 108.63 68.4041L108.952 67.2534C109.01 67.0621 109.053 66.8693 109.1 66.6764L109.238 66.0962C109.356 65.5938 109.473 65.0881 109.57 64.5776C109.667 64.0671 109.731 63.5501 109.808 63.0298C109.853 62.6862 109.911 62.354 109.94 61.9958C109.969 61.6376 109.989 61.2746 110 60.9132C110 60.7511 110 60.5809 109.99 60.4156C109.977 60.166 109.966 59.9164 109.955 59.6684C109.944 59.4205 109.907 59.1725 109.881 58.9245C109.855 58.6766 109.834 58.4302 109.789 58.1839L109.67 57.4464C109.475 56.3065 109.17 55.1884 108.76 54.1078C108.441 53.292 108.068 52.4987 107.642 51.7334C107.224 50.9723 106.76 50.2379 106.253 49.5341C105.781 48.8758 105.274 48.2439 104.734 47.6411L104.428 47.2846C104.325 47.1663 104.217 47.0512 104.106 46.9361C103.898 46.7011 103.676 46.4791 103.462 46.2538C102.83 45.6242 102.146 45.0495 101.417 44.5359C100.855 44.1326 100.266 43.7677 99.6553 43.4435C99.4942 43.3608 99.3445 43.2814 99.1722 43.2052L99.0385 43.142C98.9895 43.1176 98.9389 43.0965 98.8871 43.0788L98.6472 42.9946C98.3251 42.8827 98.0127 42.7612 97.681 42.6704C97.4056 42.5764 97.1367 42.4694 96.8597 42.3835L96.032 42.1145C95.7277 42.0237 95.4201 41.9427 95.1141 41.8665C94.8082 41.7904 94.4926 41.7401 94.1834 41.6802C92.5463 41.3679 90.8914 41.1595 89.2284 41.0562C88.7807 41.0189 88.3331 41.0173 87.8838 41.0043C87.6599 40.9946 87.4345 41.0043 87.209 41.0043C86.9836 41.0043 86.7598 41.0043 86.5359 41.0173C86.0866 41.0481 85.6341 41.0529 85.1849 41.1048L84.5085 41.1648L83.8322 41.2523C83.4055 41.2944 82.9884 41.39 82.5681 41.4727L82.407 41.5051L82.2621 41.5392L81.969 41.6105L81.3716 41.7596C80.5874 41.967 79.7838 42.2134 78.9883 42.5116C78.1158 42.8369 77.2726 43.237 76.4682 43.7077C75.6715 44.1733 74.9171 44.7085 74.2137 45.3073C73.8466 45.578 73.5116 45.8778 73.1606 46.1728L72.6179 46.672C72.4343 46.834 72.2733 47.0188 72.101 47.1954C71.2115 48.1593 70.447 49.2326 69.8256 50.3899C69.7032 50.6286 69.5797 50.8669 69.4552 51.1046C69.336 51.3461 69.2314 51.5908 69.1219 51.8355C68.8964 52.3218 68.7161 52.8242 68.5293 53.3201C68.4278 53.5843 68.3473 53.8517 68.2684 54.1191C68.1895 54.3865 68.1074 54.654 68.0397 54.9214C67.9077 55.4578 67.7869 55.9943 67.6645 56.5291C67.5679 56.9327 67.4616 57.3233 67.3344 57.7187C67.2491 57.9797 67.1734 58.2341 67.088 58.4918C66.9829 58.881 66.9007 59.276 66.8416 59.6749L66.6629 60.9018C66.5792 61.388 66.5131 61.8742 66.4503 62.3523C66.3875 62.8305 66.3231 63.3248 66.2893 63.798C66.2555 64.2713 66.2329 64.7607 66.2104 65.2405C66.1878 65.7202 66.1895 66.1837 66.1734 66.657C66.1573 67.0929 66.1476 67.524 66.1025 67.9762C66.0832 68.1983 66.0622 68.4219 66.0429 68.6456C66.0236 68.8692 66.0236 69.1091 66.0139 69.3392C65.9817 69.8481 66.0139 70.3619 66.0252 70.8676C66.0381 71.122 66.0687 71.3749 66.0896 71.6277L66.1267 72.0086L66.183 72.3862C66.2088 72.6001 66.2329 72.8124 66.2571 73.0247L66.3585 73.6552C66.3763 73.7605 66.3859 73.8675 66.4085 73.9712L66.4729 74.2857C66.5164 74.4947 66.5502 74.7087 66.6001 74.9194C66.7922 75.7513 67.0562 76.5648 67.3891 77.3504C68.1512 79.0175 69.2032 80.534 70.4955 81.8285C71.1489 82.4758 71.8557 83.0662 72.6082 83.5934C73.3401 84.0976 74.0463 84.6385 74.7242 85.2141L75.0269 85.4913L75.3087 85.7684C75.3909 85.8608 75.4891 85.9532 75.5583 86.0439L75.6678 86.1784C75.6981 86.2184 75.7261 86.26 75.7516 86.3032C75.8029 86.3855 75.8455 86.473 75.8788 86.5642L75.9674 86.9045C76.0151 87.1458 76.0404 87.3911 76.043 87.6371C76.0064 88.3168 75.8629 88.9863 75.6179 89.6208C75.4794 89.9705 75.2912 90.298 75.0591 90.5933C74.931 90.7518 74.7893 90.8988 74.6356 91.0325C74.5574 91.1042 74.4752 91.1713 74.3892 91.2334C74.2991 91.295 74.2073 91.355 74.1123 91.415C73.9416 91.5138 73.7725 91.6013 73.6292 91.6889C73.4858 91.7764 73.3296 91.8509 73.2089 91.9125C72.9641 92.0373 72.8127 92.1654 72.8401 92.2739C72.8675 92.3825 73.0559 92.3971 73.3522 92.3485C73.5223 92.307 73.6892 92.2528 73.8514 92.1864C73.9432 92.1508 74.0317 92.1005 74.1284 92.0535C74.2268 92.0048 74.3225 91.9507 74.415 91.8915C74.903 91.5911 75.3442 91.2197 75.7242 90.7894C75.8892 90.6039 76.0435 90.4091 76.1864 90.2059L76.3748 89.8996C76.4054 89.8494 76.4392 89.8007 76.4666 89.7473L76.5439 89.5852C76.7654 89.1547 76.9191 88.6921 76.9996 88.2141L77.0511 87.8251C77.0511 87.6922 77.0511 87.556 77.0608 87.415C77.0619 87.2709 77.0527 87.1268 77.0334 86.9839C77.0334 86.9094 77.0189 86.8348 77.0109 86.7587C77.0028 86.6825 76.9786 86.6079 76.9609 86.5318C76.9335 86.3726 76.8882 86.217 76.8257 86.0682C76.759 85.906 76.673 85.7525 76.5696 85.6112C76.3575 85.3375 76.1179 85.0866 75.8546 84.8624C75.32 84.3908 74.6759 83.9192 73.9222 83.2952C73.0221 82.5545 72.2878 81.655 71.4826 80.8447C70.9351 80.2807 70.634 79.9403 70.4246 79.681C70.2449 79.4672 70.0869 79.2359 69.9528 78.9906C69.5148 78.1997 69.3505 77.5789 69.0301 76.8837C68.6701 76.1033 68.3602 75.3005 68.1025 74.4801C67.8581 73.686 67.7031 72.8667 67.6404 72.0377C67.5835 71.2021 67.6344 70.3626 67.7917 69.5402C67.8272 69.3554 67.8626 69.1707 67.8964 68.9859L68.0268 68.4138C68.0687 68.2226 68.109 68.0329 68.1428 67.8401C68.1766 67.6472 68.2008 67.4446 68.2233 67.2453C68.2732 66.8061 68.3489 66.375 68.4246 65.9487C68.5003 65.5225 68.5937 65.1043 68.6565 64.6748C68.7789 63.8094 68.9608 62.986 68.9946 62.1109C69.0232 61.7295 69.077 61.3505 69.1557 60.9764C69.2249 60.602 69.2877 60.2276 69.3312 59.8532C69.3666 59.5161 69.4166 59.179 69.4794 58.8451L69.5035 58.7884C69.7306 58.2665 69.9238 57.696 70.1106 57.1418C70.2459 56.7852 70.3844 56.4222 70.5084 56.0543C70.7902 55.2617 71.0188 54.4579 71.2829 53.6702C71.5447 52.8959 71.8452 52.1353 72.1831 51.3915C72.3119 51.0981 72.4633 50.8177 72.6034 50.5292L72.7145 50.4012C73.5019 49.5374 74.0768 48.4823 74.8321 47.6363C74.8898 47.5767 74.9352 47.5062 74.9657 47.4288C75.5304 46.8003 76.1696 46.244 76.8691 45.7725C77.5738 45.3044 78.3304 44.9209 79.1236 44.6299C80.0816 44.2941 81.0635 44.0319 82.0608 43.8454C83.0279 43.6042 84.0096 43.4271 84.9997 43.3155C86.0968 43.2526 87.1973 43.289 88.288 43.424C89.6068 43.5861 90.9402 43.732 92.2494 44.0205C93.5586 44.309 94.8694 44.484 96.1447 44.8065C96.6697 44.9459 97.1915 45.0885 97.7036 45.2522L97.9274 45.3527L98.061 45.4321C98.1947 45.5148 98.3332 45.6023 98.4733 45.693C98.7551 45.8729 99.0417 46.0577 99.3445 46.2133C100.008 46.5569 100.745 46.8243 101.349 47.3219C101.923 47.7951 102.393 48.3802 102.927 48.8972C103.177 49.1338 103.411 49.3964 103.657 49.6654C103.888 49.9354 104.099 50.2225 104.288 50.5244C104.388 50.6865 104.488 50.8485 104.575 51.0268C104.662 51.2051 104.749 51.3704 104.842 51.539C104.936 51.7075 105.026 51.8631 105.127 52.0073C105.233 52.1571 105.33 52.3129 105.417 52.4741C105.535 52.7075 105.67 52.936 105.791 53.1694C105.911 53.4028 106.026 53.6426 106.134 53.8825C106.421 54.9182 106.644 55.9711 106.8 57.0348C106.961 58.0072 107.087 59.0056 107.206 59.9845C107.227 60.1709 107.246 60.3572 107.266 60.542C107.285 60.7268 107.311 60.9132 107.319 61.1012C107.34 61.4755 107.374 61.8467 107.378 62.2276C107.378 62.7705 107.364 63.3118 107.357 63.8483C107.349 64.0865 107.345 64.3231 107.328 64.5614C107.312 64.7996 107.28 65.0346 107.253 65.2745C107.216 65.5727 107.172 65.8725 107.126 66.1707C107.079 66.469 107.039 66.7655 106.976 67.0573L106.593 68.9373C106.432 69.5564 106.283 70.1755 106.14 70.7963C105.99 71.3911 105.845 71.9859 105.726 72.5888C105.671 72.8918 105.594 73.1868 105.528 73.485C105.462 73.7832 105.396 74.0814 105.33 74.3797C105.264 74.6779 105.193 74.9372 105.113 75.2127L104.868 76.0409C104.789 76.318 104.692 76.5903 104.599 76.8626C104.506 77.1349 104.414 77.4088 104.327 77.6827C104.24 77.9566 104.143 78.1916 104.047 78.4444C103.95 78.6972 103.849 78.9484 103.75 79.2013C103.652 79.4541 103.528 79.6972 103.415 79.9436C103.303 80.1899 103.187 80.4298 103.055 80.6729C102.912 80.9458 102.788 81.2279 102.683 81.5173C102.575 81.8055 102.44 82.0827 102.28 82.3455L102.079 82.6696L101.873 82.9937C101.733 83.2093 101.605 83.4329 101.451 83.6323C101.293 83.8586 101.121 84.0751 100.937 84.2806L100.802 84.4329C100.752 84.4904 100.698 84.5445 100.641 84.595L100.451 84.7717L100.354 84.8608C100.327 84.8932 100.28 84.9143 100.275 84.9597C100.171 85.2838 100.071 85.6598 100.006 85.9224C99.9355 86.2109 99.8775 86.501 99.8276 86.7943C99.7045 87.4194 99.6564 88.0571 99.6842 88.6938C99.7437 89.2412 99.8455 89.783 99.9886 90.3145C100.084 90.7733 100.228 91.2204 100.419 91.6483C100.612 92.0859 100.879 92.4866 101.208 92.8331L101.346 92.9773C101.394 93.0211 101.446 93.06 101.494 93.1005C101.589 93.1837 101.691 93.2586 101.799 93.3242C101.903 93.3874 102.006 93.4522 102.111 93.5089L102.433 93.6515C102.882 93.8185 103.351 93.9275 103.828 93.9757C103.926 93.9918 104.025 93.9999 104.124 94C104.214 93.9988 104.304 93.9912 104.393 93.9773C104.554 93.9514 104.663 93.9028 104.667 93.8152C104.667 93.7002 104.599 93.624 104.465 93.5754C104.276 93.5287 104.083 93.4962 103.889 93.4781Z" fill="#063844"/>
<path d="M90.589 72.1181C90.2604 72.2913 89.9272 72.4613 89.5877 72.613C89.6127 72.6031 89.7786 72.5305 89.6206 72.5982L89.4923 72.6526L89.2686 72.7466C89.0871 72.8209 88.9025 72.8918 88.7194 72.9594C88.0359 73.2115 87.3391 73.4213 86.6325 73.5879C86.2726 73.6737 85.9112 73.7529 85.5483 73.809L85.3105 73.8469L85.1744 73.8684C85.0007 73.8947 85.1932 73.8684 85.2182 73.8684C85.0369 73.9007 84.8541 73.9233 84.6706 73.936C83.9388 74.0126 83.2032 74.044 82.4679 74.03C82.0533 74.0201 81.6403 73.9987 81.2288 73.9607C81.0333 73.9426 80.8393 73.9211 80.6453 73.8964L80.5092 73.8783C80.3872 73.8634 80.7 73.9079 80.5186 73.8783L80.1775 73.8238C79.9332 73.7625 79.6761 73.7977 79.4547 73.9228C79.2448 74.0554 79.0905 74.267 79.023 74.515C78.9213 74.9901 79.1606 75.645 79.6785 75.7324C82.8083 76.2686 86.0148 75.9964 89.0229 74.9389C89.8836 74.6313 90.7236 74.2626 91.537 73.8354C91.9766 73.6061 92.1346 72.9099 91.8734 72.4827C91.7437 72.2606 91.538 72.0997 91.2988 72.0334C91.0597 71.967 90.8055 72.0003 90.589 72.1264V72.1181Z" fill="#063844"/>
<path d="M101.205 67.7524C102.922 66.4371 105.234 65.7157 107.42 66.1056C109.606 66.4954 111.561 68.1161 111.933 70.1543C112.366 72.5224 110.649 74.8675 108.426 76.0954C106.204 77.3232 103.563 77.6746 101 78" fill="white"/>
<path d="M101.547 77.9799C102.114 77.9064 102.718 78.0086 103.267 77.833C104.187 77.5343 104.299 77.7851 104.851 77.6733C105.127 77.6174 105.785 77.5136 106.056 77.4417C106.223 77.3761 106.381 77.2913 106.525 77.1893C106.665 77.0854 106.82 77.0004 106.986 76.937C107.02 76.9296 107.052 76.92 107.084 76.9083C107.628 76.7741 108.251 76.7486 108.88 76.6719C109.196 76.6347 109.507 76.57 109.809 76.4787C110.096 76.3888 110.364 76.2531 110.601 76.0778C111.117 75.6753 111.447 75.1052 111.767 74.575C112.072 74.0876 112.334 73.5781 112.55 73.0514C112.776 72.4706 112.907 71.8618 112.94 71.2451C113.005 70.7336 113.017 70.2176 112.977 69.7039C112.938 69.1851 112.813 68.675 112.607 68.1915C112.137 67.156 111.342 66.2753 110.327 65.6634C109.817 65.3718 109.239 65.2002 108.641 65.1635C108.062 65.1076 107.502 65.1332 106.938 65.0804C106.503 65.0313 106.064 65.0046 105.625 65.0006C105.182 64.9937 104.741 65.0475 104.315 65.1603C103.866 65.2369 103.44 65.4001 103.064 65.6394C102.697 65.8518 102.333 66.0946 101.82 66.3868C101.366 66.644 101.063 66.9873 101.214 67.1518C101.366 67.3163 101.731 67.1183 102.152 66.8564C102.644 66.5478 103.18 66.3034 103.743 66.1297C104.279 65.9664 104.83 65.8504 105.39 65.7832C105.735 65.7421 106.084 65.7282 106.432 65.7416C106.901 65.7601 107.367 65.8194 107.824 65.9189C108.143 65.9987 108.445 66.1266 108.719 66.2974L109.52 66.8101C109.71 66.9155 109.842 67.0209 109.959 67.0975C110.076 67.1742 110.153 67.2493 110.222 67.3067C110.339 67.4055 110.437 67.5209 110.515 67.6485C110.762 68.0717 110.773 68.4327 110.934 68.7665C111.109 69.1456 111.245 69.5391 111.341 69.9419C111.445 70.3418 111.455 70.7577 111.371 71.1616C111.287 71.5655 111.111 71.948 110.854 72.2832C110.602 72.5882 110.35 72.8821 110.105 73.1903C109.837 73.5337 109.46 73.7764 109.128 74.0607C108.643 74.4839 108.153 75.0078 107.659 75.4565C107.165 75.9053 106.764 76.2551 106.646 76.295C106.296 76.3804 105.951 76.4832 105.613 76.6032C105.464 76.6636 105.309 76.7101 105.151 76.7422C104.991 76.7821 104.827 76.8156 104.679 76.8588C104.164 76.9906 103.641 77.0972 103.114 77.1782C102.52 77.2724 102.063 77.4241 101.466 77.4976C101.235 77.5263 100.981 77.6126 101.001 77.7819C101.036 78.0007 101.23 78.0278 101.547 77.9799Z" fill="#063844"/>
<path d="M107.72 71.7375C107.345 71.4398 106.908 71.1449 106.409 71.0471C105.934 70.9462 105.434 71.0087 105.007 71.2226C104.353 71.552 103.949 72.1963 103.624 72.786C103.455 73.0924 103.309 73.4045 103.119 73.7065C102.883 74.102 102.998 74.6644 103.46 74.8873C103.678 74.9991 103.935 75.0291 104.176 74.9711C104.418 74.9131 104.625 74.7717 104.755 74.5767C105.002 74.161 105.206 73.7238 105.458 73.3095C105.519 73.2089 105.584 73.1082 105.653 73.0118C105.685 72.9701 105.715 72.9284 105.748 72.8881C105.781 72.8479 105.887 72.7443 105.677 72.9687L105.737 72.9025C105.807 72.8315 105.881 72.7642 105.959 72.7012C106.033 72.6379 105.74 72.845 105.846 72.7803L105.915 72.7385C105.962 72.7124 106.01 72.6893 106.06 72.6695L105.833 72.7572C105.908 72.7291 105.986 72.7093 106.066 72.6983L105.814 72.7285C105.899 72.7198 105.984 72.7198 106.068 72.7285L105.816 72.6968C105.924 72.7113 106.03 72.7373 106.131 72.7745L105.906 72.6882C106.012 72.7276 106.114 72.7757 106.21 72.832C106.246 72.8536 106.314 72.9169 106.355 72.9226C106.316 72.9226 106.164 72.7788 106.293 72.8809L106.39 72.9557C106.57 73.1129 106.809 73.2031 107.058 73.2089C107.309 73.2068 107.548 73.116 107.727 72.9557C108.055 72.6307 108.126 72.051 107.727 71.7346L107.72 71.7375Z" fill="#063844"/>
<path d="M76 58.9871L76.0504 64.0137C76.0504 64.2753 76.1531 64.5262 76.3359 64.7111C76.5187 64.8961 76.7666 65 77.0252 65C77.2837 65 77.5317 64.8961 77.7145 64.7111C77.8973 64.5262 78 64.2753 78 64.0137L77.9496 58.9871C77.9496 58.471 77.5061 57.9762 76.9748 58.0009C76.7176 58.0051 76.4721 58.1104 76.2901 58.2944C76.1082 58.4785 76.0042 58.7269 76 58.9871Z" fill="#063844"/>
<path d="M93.5584 59.0312L93.0039 63.9688C92.9429 64.508 93.6133 65.0232 94.2227 64.9992C94.9357 64.9734 95.3765 64.5458 95.4416 63.9688L95.9961 59.0312C96.0571 58.4937 95.3867 57.9768 94.7773 58.0008C94.0663 58.0283 93.6235 58.4542 93.5584 59.0312Z" fill="#063844"/>
<path d="M80.7347 57.7317C80.1158 59.7868 79.4986 61.8518 79.2017 63.9829C79.0331 65.0739 78.97 66.1784 79.0132 67.2813C79.0716 68.3311 79.2734 69.4587 79.8956 70.3382C80.5929 71.3302 81.7305 72.0891 82.9983 71.9915C83.5187 71.9502 84.0241 71.565 83.9991 70.9996C83.9758 70.5036 83.5571 69.9629 82.9983 70.0076C82.8915 70.0158 82.7897 70.0076 82.6847 70.0076C82.6096 70.0076 82.5312 69.9613 82.7664 70.0225C82.728 70.0125 82.6846 70.0092 82.6446 70.001C82.5429 69.9778 82.4461 69.9447 82.3477 69.915C82.2493 69.8852 82.2509 69.834 82.4128 69.9447C82.3644 69.9117 82.2977 69.8885 82.2459 69.8604C82.1628 69.815 82.0821 69.7653 82.0041 69.7116C81.8373 69.5959 82.0358 69.7232 82.0291 69.7348L81.9323 69.6521C81.8606 69.5893 81.7922 69.5215 81.7272 69.4521C81.6921 69.414 81.6571 69.3727 81.6221 69.333C81.4936 69.1908 81.7338 69.5083 81.6221 69.333C81.5121 69.1621 81.4113 68.9855 81.3202 68.804C81.2584 68.6783 81.3552 68.7907 81.3368 68.8436C81.3227 68.7981 81.306 68.7534 81.2868 68.7097C81.2418 68.5857 81.2034 68.4601 81.17 68.3344C81.1367 68.2088 81.12 68.1245 81.0983 68.0186C81.0883 67.9723 81.0799 67.9244 81.0716 67.8765C81.0716 67.8616 81.0299 67.6252 81.0566 67.7954C81.0833 67.9657 81.0566 67.7277 81.0483 67.7111C81.0483 67.6632 81.0382 67.6152 81.0349 67.5673C81.0232 67.4466 81.0166 67.3259 81.0099 67.2052C80.9882 66.716 80.9915 66.226 81.0199 65.7371C81.0332 65.5006 81.0516 65.2642 81.0733 65.0278C81.0866 64.8972 81.1 64.7649 81.1166 64.6343C81.1166 64.5831 81.1283 64.5301 81.135 64.4772C81.1417 64.4243 81.135 64.1896 81.135 64.4276C81.1502 64.1906 81.187 63.9554 81.2451 63.725C81.2918 63.4638 81.3418 63.2042 81.3952 62.9463C81.4936 62.4652 81.6071 61.9874 81.7288 61.5129C82.0074 60.4184 82.3327 59.3371 82.658 58.2558C82.7285 58.0022 82.6945 57.7311 82.5635 57.5023C82.4324 57.2735 82.215 57.1056 81.959 57.0357C81.7031 56.9658 81.4296 56.9994 81.1988 57.1294C80.9679 57.2593 80.7985 57.4748 80.728 57.7284L80.7347 57.7317Z" fill="#063844"/>
<path d="M72.245 90.2659C71.7403 90.9227 72.1004 91.0557 72.5594 91.4447C73.7071 92.3592 74.8831 93.2804 76.1456 94.1392C77.4274 95.0298 78.7769 95.8032 80.1798 96.4515C83.0097 97.7398 86.1651 98.378 89.0657 97.765C91.218 97.312 93.2351 96.6131 95.2255 95.8654C97.2159 95.1177 99.1811 94.3026 101.275 93.5431C101.709 93.3747 102.154 93.2517 101.948 92.6455C101.678 91.8455 101.401 92.088 100.874 92.2868C99.6302 92.7623 98.3602 93.156 97.0712 93.4656C95.7904 93.7715 94.4742 93.8714 93.1659 93.762C90.5954 93.5077 88.2513 93.1473 85.9905 92.888C85.5531 92.8456 85.112 92.8884 84.6888 93.0143C84.2985 93.1331 83.9022 93.2282 83.5018 93.2989C83.2102 93.3312 82.9156 93.2921 82.6402 93.1844C82.376 93.0734 82.1227 92.9347 81.884 92.7701C81.6451 92.6017 81.4124 92.4333 81.1702 92.2935C80.9373 92.1365 80.6794 92.0269 80.4093 91.9702C79.3874 91.7563 78.2554 91.8287 77.0716 91.7765C75.8877 91.7243 74.6693 91.5475 73.671 90.9345C73.5342 90.766 73.4351 90.5404 73.3047 90.3703C72.9478 90.0789 72.6333 89.7607 72.245 90.2659Z" fill="#063844"/>
<path d="M67.5742 55.2437C59.6962 49.8727 66.6928 36.2004 70.9093 27.7519L74.3836 31.9659C74.9947 28.5263 76.4631 24.273 80.0158 24.0112C82.1112 23.8545 84.0387 25.3595 85.0001 27.189C85.9614 29.0186 86.1582 31.1303 86.3357 33.1825C86.6669 30.7729 90.0852 29.6645 92.1663 30.9877C94.2473 32.3108 94.8552 35.1814 94.1162 37.5032C95.9717 36.0922 97.8656 34.6609 100.065 33.8551C102.264 33.0493 104.864 32.9474 106.865 34.1435C108.866 35.3397 109.984 38.0519 108.892 40.09C110.038 38.1993 113.297 38.1256 114.532 39.9614C115.767 41.7972 114.412 44.7023 112.188 44.9892C113.957 46.3155 114.687 48.8238 113.897 50.865C113.107 52.9062 110.857 54.3141 108.639 54.1479C108.639 54.1479 88.7959 54.3203 89.3862 48.5354C89.3862 48.5354 83.4837 53.7418 79.9486 50.2709C79.9422 50.2693 72.3329 58.4827 67.5742 55.2437Z" fill="#063844"/>
<path d="M67.996 56.6376C69.1608 57.0696 70.4319 57.1166 71.6251 56.772C72.1772 56.6193 72.7152 56.4189 73.233 56.1729C73.7469 55.9351 74.2453 55.6647 74.7251 55.3632C74.8473 55.2887 75.0065 55.2013 75.1818 55.0944C75.357 54.9875 75.5516 54.8807 75.7429 54.7705C76.0831 54.5732 76.4122 54.3569 76.7286 54.1228C77.1563 53.799 77.875 53.1739 78.2818 52.8274C78.4812 52.6654 78.6307 52.5375 78.7642 52.4371L78.8574 52.3659L78.9008 52.3319L78.9314 52.3124L79.0472 52.2363C79.2336 52.119 79.4081 51.9834 79.5681 51.8315L79.663 51.7424L79.7096 51.6987C79.7096 51.6987 79.7096 51.6874 79.7225 51.6906L79.7337 51.7036L79.7595 51.7295L79.9203 51.8914C79.9717 51.9449 80.0312 51.9886 80.081 52.0372C80.1311 52.0852 80.1848 52.129 80.2418 52.1683L80.3254 52.2282C80.3415 52.238 80.3512 52.2477 80.3705 52.259L80.4525 52.3011L80.7837 52.463L81.1567 52.6072C81.2805 52.6557 81.4108 52.6816 81.5378 52.7189C81.6652 52.7538 81.7946 52.7808 81.9253 52.7999C82.5417 52.8975 83.17 52.8904 83.784 52.7788C84.3692 52.6737 84.9428 52.511 85.4965 52.293C86.005 52.0971 86.5017 51.8711 86.9838 51.6161C87.1028 51.553 87.2233 51.4915 87.3391 51.4251L87.6607 51.2372C87.7797 51.1708 87.8858 51.1093 87.9919 51.0445C88.1624 50.9393 88.3135 50.8373 88.4743 50.732L88.5836 50.6527C88.5992 50.6394 88.6159 50.6275 88.6335 50.617V50.6948C88.6263 50.7966 88.6322 50.8989 88.6512 50.9992C88.6765 51.1307 88.7267 51.256 88.7991 51.3684L88.8682 51.4655L88.9872 51.608C89.0451 51.6712 89.1287 51.757 89.1979 51.8283C89.267 51.8995 89.3474 51.9675 89.423 52.0388C89.717 52.2939 90.0334 52.5215 90.3684 52.7189C90.9925 53.0792 91.6507 53.376 92.3333 53.6046C93.5183 54.0095 94.6583 54.3252 95.824 54.6313C97.7374 55.1883 99.6476 55.632 101.566 56.0126C102.809 56.2538 104.066 56.4303 105.343 56.5712C106.179 56.6635 107.025 56.7331 107.883 56.7574C108.081 56.7574 108.272 56.7574 108.485 56.7574H108.496H108.335C109.129 56.8091 109.925 56.7192 110.687 56.4919C111.422 56.2721 112.119 55.9388 112.752 55.5041C113.49 54.9999 114.13 54.3638 114.64 53.6273C115.154 52.8802 115.504 52.0311 115.667 51.1368C115.897 49.8308 115.752 48.4856 115.248 47.2602C115.194 47.1096 115.119 46.9671 115.051 46.8214C114.985 46.6764 114.91 46.5353 114.828 46.3987L114.709 46.1915L114.694 46.1672L114.683 46.1542L114.661 46.1299C114.634 46.0965 114.604 46.0656 114.572 46.0376C114.441 45.9162 114.298 45.8078 114.146 45.7138C114.116 45.6992 114.146 45.6976 114.146 45.6927L114.181 45.6798C114.299 45.6298 114.404 45.5547 114.49 45.4595C114.518 45.433 114.543 45.4037 114.564 45.3721L114.596 45.3381L114.651 45.2814C114.701 45.2306 114.747 45.1765 114.789 45.1195L115.047 44.7859C115.125 44.6709 115.194 44.5511 115.267 44.4329C115.299 44.3811 115.331 44.3309 115.362 44.2791L115.442 44.1171L115.603 43.7933L115.73 43.4565L115.791 43.2864L115.836 43.1115L115.923 42.7618C115.944 42.642 115.96 42.5205 115.976 42.4007L116 42.2193C116 42.1578 116 42.0962 116 42.0347V41.6639C115.977 40.9319 115.755 40.2204 115.357 39.6074C114.958 39.0044 114.401 38.5237 113.749 38.218C113.235 37.9724 112.678 37.83 112.11 37.7986C111.973 37.7897 111.835 37.7897 111.697 37.7986H111.491L111.302 37.8229L111.112 37.8472L111.017 37.8585L110.972 37.8715L110.792 37.9249C110.58 38.0015 110.378 38.1066 110.194 38.2374L110.12 38.2876L110.051 38.3476L109.935 38.4577L109.808 38.5969L109.745 38.6682L109.691 38.7475L109.615 38.8576L109.593 38.89C109.593 38.8997 109.593 38.89 109.593 38.89V38.8738L109.621 38.8107L109.678 38.6811C109.71 38.5937 109.734 38.4998 109.763 38.4075C109.792 38.3152 109.802 38.218 109.813 38.1192C109.824 38.0205 109.835 37.9233 109.83 37.8229C109.832 37.7145 109.824 37.6062 109.808 37.499L109.787 37.363L109.753 37.227L109.718 37.0894L109.638 36.8497L109.554 36.61L109.453 36.3785L109.35 36.1485L109.229 35.9283C108.958 35.4246 108.621 34.96 108.227 34.547C107.83 34.1352 107.377 33.782 106.882 33.4977C105.906 32.9529 104.822 32.6333 103.709 32.5618C102.541 32.4823 101.368 32.6089 100.243 32.9358C99.1425 33.2589 98.0797 33.6986 97.0718 34.2475L96.472 34.5713L96.2742 34.6814C96.2147 34.7155 96.1553 34.7495 96.099 34.7851C95.8702 34.9231 95.6486 35.0728 95.4349 35.2336C95.2741 35.3551 95.1133 35.483 94.9525 35.6174L94.8898 35.6676L94.8593 35.6935H94.8512V35.6757L94.8882 35.5332C94.9156 35.4393 94.9252 35.3405 94.9445 35.2433C95.0053 34.8203 94.9939 34.3898 94.9107 33.9706L94.8416 33.6742C94.8094 33.522 94.7532 33.3731 94.7097 33.2225C94.6638 33.0713 94.6101 32.9227 94.549 32.7771L94.4621 32.5569L94.3592 32.3416C94.0875 31.7659 93.729 31.2361 93.2964 30.7708C93.1839 30.6575 93.0649 30.5474 92.9475 30.4356C92.8301 30.3239 92.6967 30.2316 92.5696 30.1296C92.436 30.0261 92.2958 29.9314 92.15 29.8462L91.9249 29.7215L91.6933 29.613C91.0954 29.3332 90.4508 29.1684 89.7928 29.1272C89.4387 29.1005 89.0829 29.107 88.73 29.1467C88.5515 29.1661 88.3746 29.1952 88.1977 29.2309L87.934 29.2956C87.889 29.3054 87.8456 29.3199 87.8022 29.3329C87.7588 29.3458 87.6945 29.3685 87.7089 29.3588C87.5994 29.367 87.4913 29.3893 87.3874 29.4252C87.3435 29.435 87.302 29.4537 87.2655 29.4801C87.229 29.5066 87.1983 29.5402 87.1751 29.579C87.1701 29.5919 87.1674 29.6056 87.1671 29.6195V29.5515L87.1815 29.3086C87.1897 29.1813 87.1897 29.0537 87.1815 28.9264C87.1815 28.9005 87.1815 28.8746 87.1815 28.8503V28.8309V28.8018L87.1703 28.7418L87.114 28.5168C87.0915 28.4293 87.0722 28.3419 87.0465 28.2561C86.995 28.0812 86.95 27.9079 86.8857 27.7346C86.7639 27.3599 86.6189 26.9932 86.4516 26.6367C86.3679 26.457 86.2747 26.2821 86.1798 26.1056C86.085 25.9291 85.9756 25.7445 85.8582 25.5761C85.4011 24.8964 84.845 24.29 84.2085 23.7771C83.732 23.3631 83.2129 23.0016 82.6601 22.6986C82.2782 22.4894 81.877 22.318 81.4622 22.1869C80.8109 22.0001 80.1279 21.9526 79.4572 22.0476C78.7756 22.1361 78.1152 22.3461 77.5068 22.6678C77.1558 22.8522 76.8226 23.069 76.5115 23.3156C76.2172 23.5566 75.9434 23.822 75.6931 24.109C75.2308 24.6457 74.8415 25.242 74.5354 25.8821C74.2532 26.4754 74.0219 27.0919 73.844 27.7249C73.844 27.7411 73.8311 27.7719 73.8311 27.7735V27.7978V27.8415L73.8199 27.9322L73.7957 28.1265L73.7459 28.5637C73.7089 28.8779 73.6671 29.2293 73.6301 29.6098L73.6173 29.7248V29.7539L73.6028 29.7426L73.5755 29.7167L73.4613 29.6082L73.2185 29.3685L73.0577 29.2066L72.9757 29.124L72.9661 29.1143C72.9661 29.1143 72.9548 29.1013 72.9661 29.1143L72.9934 29.1531L73.0465 29.2293L73.1445 29.3734L73.1687 29.4074C73.1767 29.4187 73.1687 29.4074 73.1687 29.4074L73.1494 29.3863L73.0738 29.3021L72.7715 28.9669L72.4676 28.6317L72.3165 28.4698L72.2409 28.3856L72.2039 28.3435L72.1846 28.3224L72.0882 28.2042L71.7666 27.8091L71.7167 27.7541L71.6186 27.6407L71.4241 27.4189L71.0382 26.9784L70.7166 26.5914L70.5558 26.3987L70.4754 26.3015L70.4368 26.253C70.4368 26.253 70.4368 26.253 70.4272 26.253V26.2675L70.4143 26.2967L69.9705 27.2116C69.6747 27.8156 69.3724 28.4099 69.0589 29.022L68.2324 30.6235C68.0025 31.0736 67.7693 31.5206 67.5474 31.974C67.064 32.9456 66.6025 33.9339 66.163 34.9389C65.7235 35.944 65.3071 36.9598 64.9137 37.9865C64.5263 39.0557 64.2115 40.1501 63.9715 41.2623C63.7222 42.3748 63.5036 43.4937 63.2977 44.6224C63.021 46.0805 62.9366 47.5691 63.0469 49.0495C63.047 49.3075 63.0658 49.5651 63.1032 49.8203C63.145 50.0729 63.1755 50.3239 63.2415 50.5685C63.3074 50.813 63.3797 51.0542 63.4521 51.2971C63.5486 51.5319 63.6434 51.7684 63.7399 52.008C64.2092 53.0137 64.8165 53.948 65.544 54.7835L65.6726 54.9454C65.716 54.994 65.7659 55.0377 65.8125 55.0815C65.9058 55.1705 65.9974 55.2563 66.0875 55.3357C66.1775 55.415 66.2627 55.4976 66.3463 55.5575C66.4299 55.6174 66.5216 55.6725 66.6004 55.7195C66.922 55.9089 67.1455 55.9883 67.2082 55.8976C67.3416 55.7016 66.6534 55.1786 65.9669 54.4111L65.6196 54.003C65.5118 53.8686 65.4282 53.7229 65.3366 53.5885C65.1637 53.3312 65.0115 53.0605 64.8815 52.7788L64.7851 52.5845L64.7079 52.3837L64.5599 51.9951C64.5111 51.869 64.4708 51.7397 64.4394 51.608C64.404 51.4785 64.3702 51.3506 64.3348 51.2226C64.0824 50.0828 63.9829 48.9141 64.039 47.7476C64.0583 47.4157 64.0647 47.074 64.0808 46.7096C64.0937 46.5267 64.1065 46.3388 64.1194 46.1445C64.1194 46.0473 64.1322 45.947 64.1387 45.8466C64.1451 45.7462 64.1612 45.6425 64.1724 45.5373C64.273 44.5247 64.4537 43.5219 64.7127 42.5383C65.0745 41.1344 65.7064 39.826 66.2016 38.4625C66.5425 37.5249 66.7515 36.9825 66.9139 36.5906C67.0453 36.2575 67.1972 35.933 67.369 35.619C67.9172 34.6037 68.4173 33.9463 68.8547 33.0411C69.1055 32.5278 69.3579 32.008 69.6039 31.4849C69.7245 31.2242 69.8467 30.9651 69.9673 30.7061C70.0333 30.5538 70.0992 30.4032 70.1635 30.2462C70.2873 29.9466 70.4208 29.6341 70.5606 29.3183L70.6668 29.0803L70.7198 28.9621C70.7487 28.9871 70.7746 29.0153 70.797 29.0463L71.1186 29.4284L71.2794 29.626L71.3196 29.6762L71.3292 29.6875L71.236 29.5725L70.9916 29.2681L71.1186 29.43L71.6203 30.0778L71.8663 30.4016L72.4933 31.2113L72.6686 31.438L72.7731 31.5772L72.9548 31.8218L73.3214 32.3205C73.5497 32.6336 73.7797 32.9461 74.0112 33.2581L74.3649 33.7325L74.4534 33.8524L74.4984 33.9107C74.5129 33.9285 74.5209 33.9236 74.5322 33.9317L74.6576 33.9868C74.8071 33.2775 74.9679 32.4857 75.1223 31.6809C75.2075 31.2307 75.2991 30.7967 75.4004 30.3854C75.5017 29.9741 75.6207 29.5758 75.7558 29.1839C75.8217 28.9912 75.8908 28.792 75.968 28.6058L76.0082 28.507L76.0436 28.4196L76.1192 28.248C76.2189 28.018 76.325 27.7945 76.4311 27.5711C76.6405 27.1397 76.8841 26.7259 77.1595 26.3339C77.4178 25.9684 77.7038 25.6235 78.0149 25.3024C78.5616 24.7519 79.3189 24.5478 80.0634 24.4717C80.4087 24.4388 80.757 24.4707 81.0908 24.5657L81.1471 24.598C81.6954 24.8896 82.1964 25.2636 82.6328 25.7073C82.9187 26.0125 83.176 26.3437 83.4014 26.6967C83.9065 27.4958 84.2932 28.3648 84.5494 29.2762L84.5767 29.3637L84.6089 29.4981L84.6732 29.7733C84.7198 29.9515 84.7504 30.1571 84.789 30.3482C84.8597 30.7368 84.916 31.1336 84.9659 31.5351C85.0655 32.3448 85.1508 33.1544 85.2328 33.9236L85.326 34.8401L85.371 35.2952C85.3807 35.2304 85.3823 35.0944 85.4 35.0312C85.4 35.0166 85.4 34.9843 85.4 34.9907C85.4 34.9972 85.4145 35.0021 85.437 35.0749L85.4563 35.1413L85.4659 35.1737L85.4804 35.232L85.5077 35.3502L85.5238 35.4134L85.5431 35.5122L85.5833 35.7097L85.6042 35.8166L85.6315 35.9785L85.6862 36.3024L85.7007 36.385L85.7167 36.4886L85.7553 36.7639L85.8164 37.3242L85.8373 37.4634L85.847 37.5395L85.8615 37.6658L85.9226 38.1759C85.9644 38.5181 86.0051 38.8598 86.0448 39.2009L86.1171 39.8292L86.2088 40.6745C86.3685 39.8195 86.5293 38.9629 86.6911 38.1047L86.9307 36.8092L87.032 36.27L87.0851 36.0028C87.2309 35.286 87.3761 34.5681 87.5208 33.8491L87.5739 33.5836L87.6044 33.4573L87.6639 33.203L87.7829 32.6929L87.844 32.4387L87.8729 32.3108L87.881 32.2784V32.2687L87.8955 32.2476L88.0064 32.0857L88.119 31.9238C88.1382 31.9011 88.1543 31.859 88.1752 31.8493L88.2363 31.812L88.4791 31.6631C88.5225 31.6436 88.5595 31.6242 88.6078 31.6064L88.6689 31.5805C88.7091 31.5627 88.7509 31.5497 88.7927 31.5351C89.1262 31.4129 89.4781 31.3494 89.833 31.3473C89.9165 31.3469 89.9994 31.3338 90.079 31.3084C90.4945 31.3301 90.8992 31.4493 91.2608 31.6566C91.351 31.7106 91.4375 31.7707 91.5197 31.8363C91.5647 31.8703 91.6097 31.8995 91.6515 31.9351L91.7721 32.0468L91.8943 32.1586L92.0053 32.2833L92.1162 32.4079C92.1532 32.4484 92.1821 32.4986 92.2159 32.5423C92.4875 32.9166 92.6971 33.3328 92.8365 33.7746L92.933 34.1179L92.9716 34.3122C92.9973 34.4143 93.0118 34.5292 93.0311 34.6361C93.044 34.8693 93.0504 35.1089 93.06 35.3454V35.4344L93.052 35.5429L93.0182 35.7583L92.9491 36.1923C92.732 37.3047 92.367 38.7459 91.9844 40.1822L92.2593 40.0915C92.3027 40.0786 92.359 40.0559 92.3928 40.0494L92.4539 40.0575L92.5825 40.0689L92.9571 39.792L94.5088 38.6471C95.3626 38.0221 96.2389 37.3598 97.1329 36.7671C97.2486 36.6878 97.3483 36.6262 97.4544 36.5631L97.7599 36.372L97.8323 36.3283L97.8821 36.2991L97.9818 36.2441L98.1796 36.1323C98.4449 35.9899 98.7102 35.8538 98.9836 35.7308C99.2923 35.6012 99.601 35.4798 99.9113 35.3794C100.072 35.3227 100.222 35.2838 100.374 35.2353C100.527 35.1867 100.678 35.1559 100.831 35.1219C101.428 34.9897 102.039 34.9299 102.65 34.9438C103.001 34.9541 103.351 34.9855 103.698 35.0377C104.025 35.0894 104.348 35.1674 104.663 35.2709C104.958 35.3695 105.242 35.4992 105.51 35.6579L105.701 35.7761C105.754 35.8182 105.807 35.8587 105.862 35.8975C105.918 35.9395 105.972 35.9843 106.023 36.0319C106.076 36.0763 106.126 36.1251 106.171 36.1777C106.437 36.4561 106.669 36.7648 106.864 37.0975L106.938 37.2238C106.962 37.2659 106.978 37.3112 107.001 37.3533L107.066 37.4828C107.086 37.525 107.1 37.5703 107.118 37.614L107.174 37.7452C107.174 37.7452 107.174 37.7695 107.174 37.7873V37.844L107.185 37.9589L107.211 38.1872C107.226 38.3395 107.25 38.4852 107.258 38.6423L107.097 39.2268C108.116 39.7823 108.465 39.9928 108.617 40.1369C108.649 40.1677 108.684 40.2017 108.686 40.2195L108.699 40.2535C108.699 40.2664 108.699 40.2826 108.715 40.2681C108.742 40.2033 108.909 40.1903 109.301 40.2891L109.393 40.3166H109.416L109.449 40.3296L109.515 40.3571L109.779 40.4672C109.851 40.4948 109.999 40.5676 110.117 40.6292L110.49 40.8073L110.917 40.5773L111.133 40.4624L111.241 40.4041C111.263 40.3911 111.268 40.3911 111.274 40.3911H111.295L111.466 40.3717C111.519 40.3625 111.573 40.3587 111.627 40.3604C111.715 40.3604 111.807 40.3458 111.893 40.3604C111.98 40.3749 112.075 40.3604 112.159 40.3604C112.453 40.36 112.746 40.4093 113.024 40.5061C113.308 40.6113 113.539 40.8255 113.667 41.102C113.79 41.4054 113.832 41.7358 113.789 42.0606C113.747 42.4174 113.654 42.7661 113.511 43.0954C113.481 43.1733 113.445 43.2491 113.405 43.3221L113.349 43.437L113.278 43.5423C113.234 43.6157 113.185 43.6856 113.13 43.7512C113.084 43.8054 113.034 43.8558 112.98 43.9018C112.915 43.9623 112.838 44.01 112.755 44.0427C111.974 44.3613 111.167 44.6137 110.343 44.7972V44.8232L110.361 44.9511C110.348 44.9689 110.398 45.0045 110.432 45.0337L110.54 45.1276C110.684 45.2555 110.823 45.3705 110.972 45.5146C111.27 45.7883 111.569 46.0797 111.869 46.3712C112.003 46.5105 112.141 46.6481 112.281 46.7809C112.313 46.811 112.342 46.8447 112.366 46.8813L112.442 46.9817L112.593 47.1809L112.668 47.2796C112.688 47.3072 112.697 47.3234 112.712 47.346L112.794 47.474C112.82 47.5177 112.849 47.5598 112.873 47.6051L112.94 47.7444C113.206 48.2777 113.37 48.8567 113.423 49.4511C113.406 50.0496 113.266 50.638 113.011 51.1789C112.757 51.7077 112.405 52.1827 111.974 52.578C111.18 53.3281 110.175 53.8113 109.097 53.9609C108.914 53.9844 108.729 53.9973 108.544 53.9998H108.481C107.768 54.0467 107.034 54.084 106.308 54.0985C105.632 54.0985 104.958 54.0985 104.285 54.0985C103.693 54.0823 103.106 54.05 102.516 53.9981C101.77 53.9317 101.024 53.82 100.291 53.7115C98.7291 53.4774 97.1803 53.1634 95.6504 52.7707C94.922 52.5812 94.1952 52.395 93.4893 52.178C92.7955 51.9774 92.1203 51.7162 91.4714 51.3975C91.067 51.1995 90.6959 50.9389 90.3716 50.6251C90.3316 50.5871 90.2935 50.5471 90.2575 50.5053L90.1321 50.3223C90.0806 50.2786 90.0693 50.1604 90.0452 50.0584L90.0098 49.9045L89.9938 49.8284L89.9809 49.7394C89.8942 49.2122 89.8405 48.68 89.8201 48.146H89.6754C89.6545 48.146 89.6223 48.146 89.6127 48.146L89.5725 48.1249L89.4953 48.078C89.4811 48.0553 89.4687 48.0314 89.4583 48.0067L89.4406 47.9695V47.95L89.4004 47.9873L89.2397 48.1363L88.9068 48.4326C88.5547 48.7419 88.1994 49.0431 87.8488 49.3232C87.6736 49.4576 87.4983 49.592 87.3198 49.7151C87.2314 49.7766 87.143 49.8398 87.0529 49.8981L86.8101 50.06C86.2562 50.4152 85.6693 50.7151 85.0575 50.9555C84.715 51.0899 84.379 51.2324 84.0349 51.3603C83.6953 51.4918 83.3382 51.572 82.9753 51.5983C82.3832 51.6356 81.7897 51.5541 81.2291 51.3587C81.1101 51.3052 80.9927 51.2486 80.8753 51.1967L80.4557 50.9134C80.319 50.8049 80.1856 50.6915 80.0505 50.5782C79.9154 50.4648 79.7964 50.3385 79.6694 50.2187L79.5987 50.196L79.5295 50.2656L79.3912 50.4065L79.1099 50.6867C78.9201 50.8745 78.7304 51.0623 78.5326 51.2453C78.4346 51.3376 78.3349 51.4299 78.2336 51.519L77.9827 51.7441L77.5004 52.1667C76.9296 52.6525 76.3298 53.1043 75.7719 53.582C75.3035 54.0146 74.8089 54.4175 74.291 54.7884C74.0659 54.939 73.8311 55.0685 73.6012 55.2061C73.3713 55.3438 73.1301 55.4636 72.8873 55.5737C72.4085 55.8072 71.9096 55.9964 71.3968 56.1389C70.8736 56.2962 70.334 56.3919 69.7889 56.4239C69.2478 56.4551 68.7061 56.3747 68.197 56.1874C67.7806 56.0255 67.3368 55.7713 67.2242 55.9105C67.1535 56.0028 67.1937 56.1113 67.3288 56.2441C67.411 56.325 67.5022 56.3962 67.6005 56.4562C67.7002 56.5 67.8401 56.568 67.996 56.6376Z" fill="#063844"/>
<path d="M134.091 133H39.9092C38.8548 133 38 133.858 38 134.916V139.084C38 140.142 38.8548 141 39.9092 141H134.091C135.145 141 136 140.142 136 139.084V134.916C136 133.858 135.145 133 134.091 133Z" fill="white"/>
<path d="M136.973 138.831C136.973 137.824 136.984 136.816 137 135.807V135.428V135.24V135.145V135.037C136.992 134.745 136.925 134.458 136.805 134.192C136.56 133.649 136.11 133.226 135.553 133.014C135.484 132.986 135.413 132.964 135.342 132.946C135.271 132.925 135.198 132.909 135.124 132.9C135.052 132.885 134.978 132.876 134.904 132.874H134.793H134.696L133.938 132.865L132.421 132.85C131.411 132.85 130.4 132.85 129.392 132.873C122.683 133.019 122.224 132.746 118.382 132.754C116.428 132.754 111.882 132.696 109.929 132.694C108.092 132.694 104.529 132.921 102.715 132.902H102.017C94.3018 132.794 86.3399 132 79.2297 132C75.1239 132 71.0955 132.193 67.0203 132.288C63.2672 132.371 59.4673 132.432 55.6675 132.492L43.1313 132.694L40.4891 132.707H39.507C39.457 132.707 39.3749 132.707 39.3089 132.707C39.2398 132.71 39.1709 132.717 39.1028 132.73C38.5483 132.813 38.0394 133.084 37.6617 133.497C37.284 133.911 37.0606 134.441 37.029 135C37.0194 135.151 37.029 135.246 37.021 135.357V135.686V136.344C37.021 137.221 37.0065 138.102 37 138.99V139.312C36.9994 139.449 37.0096 139.587 37.0306 139.723C37.0722 140 37.1604 140.269 37.2915 140.517C37.5605 141.016 37.9888 141.412 38.5087 141.642C38.7694 141.751 39.0462 141.817 39.3282 141.838C39.4892 141.847 39.5794 141.838 39.6889 141.847H40.0109L41.3151 141.862L46.5205 141.912C54.0204 141.973 61.4784 141.997 68.9718 142C76.6841 142 83.6059 141.497 91.3312 141.518C96.3032 141.534 104.017 141.72 108.959 141.698C115.867 141.794 119.806 141.505 128.019 141.537C131.625 141.553 134.781 141.473 134.781 141.251C134.781 141.029 131.722 140.967 128.019 140.973C117.415 140.988 112.491 140.898 102.56 140.872C97.8456 140.861 92.5871 140.811 84.0809 140.811C79.0333 140.811 74.0194 140.616 68.946 140.621C61.9807 140.621 60.8649 140.652 58.2437 140.578C54.2394 140.465 51.4346 140.279 47.9294 140.256C45.9393 140.242 43.9283 140.234 41.9173 140.234H40.4086H39.6551H39.4715C39.4415 140.232 39.4114 140.232 39.3814 140.234C39.3528 140.227 39.3237 140.223 39.2944 140.221C39.2664 140.213 39.2379 140.206 39.2091 140.2C38.979 140.132 38.7846 139.977 38.6665 139.768C38.6085 139.664 38.5714 139.55 38.557 139.432C38.557 139.403 38.557 139.373 38.557 139.342V139.169V138.797C38.5495 137.852 38.5409 136.906 38.5312 135.958V135.248V135.103C38.5296 135.073 38.5296 135.043 38.5312 135.013C38.5392 134.954 38.551 134.896 38.5667 134.839C38.6196 134.667 38.7202 134.512 38.8568 134.394C38.9935 134.275 39.1607 134.198 39.3395 134.169C39.3696 134.162 39.4004 134.159 39.4313 134.158C39.4619 134.158 39.4828 134.158 39.5536 134.158H39.9111H41.3409H44.1988C48.0099 134.158 51.8178 134.184 55.587 134.261C58.9924 134.33 62.438 134.386 65.8659 134.375C69.6512 134.362 73.3641 134.457 77.1366 134.449C88.2833 134.423 101.41 133.646 103.273 133.634C105.932 133.647 108.587 133.686 111.18 133.634C113.383 133.594 115.972 133.634 118.18 133.602C122.002 133.578 125.792 133.57 129.627 133.567L132.695 133.552L134.155 133.538H134.516H134.694C134.756 133.538 134.815 133.538 134.855 133.538C135.163 133.543 135.462 133.636 135.719 133.805C135.975 133.974 136.178 134.213 136.304 134.492C136.391 134.681 136.44 134.883 136.449 135.09C136.449 135.138 136.449 135.198 136.449 135.26V135.442C136.449 135.564 136.449 135.686 136.449 135.808C136.449 136.787 136.457 137.793 136.462 138.852C136.462 138.955 136.462 139.058 136.462 139.162C136.462 139.267 136.462 139.373 136.462 139.458C136.454 139.638 136.417 139.815 136.353 139.983C136.29 140.145 136.204 140.298 136.1 140.436C136.001 140.561 135.887 140.675 135.762 140.774C135.279 141.147 134.796 141.158 134.785 141.256C134.773 141.314 134.849 141.359 135.016 141.383C135.269 141.399 135.522 141.352 135.752 141.246C135.928 141.172 136.091 141.071 136.235 140.947C136.41 140.801 136.559 140.626 136.675 140.43C136.81 140.201 136.901 139.949 136.942 139.686C136.955 139.615 136.963 139.544 136.966 139.472V139.363V138.854L136.973 138.831Z" fill="#063844"/>
<path d="M24.669 111.606C24.5647 111.585 24.4621 111.559 24.3532 111.531L24.0516 111.423L23.7531 111.312C23.6537 111.275 23.5589 111.228 23.4595 111.19C23.2731 111.114 23.0821 111.069 22.8989 110.998L22.6178 110.898L22.4789 110.845C22.4331 110.824 22.3889 110.801 22.3431 110.777C22.2531 110.729 22.1078 110.635 21.9641 110.543C21.8205 110.451 21.6894 110.337 21.6026 110.282C21.3987 110.154 21.2054 110.009 21.0246 109.848C20.937 109.765 20.8394 109.694 20.7341 109.636C20.6255 109.581 20.528 109.506 20.4467 109.415C20.3267 109.268 20.2162 109.115 20.1057 108.963C19.9951 108.812 19.9115 108.641 19.812 108.48C19.7125 108.319 19.6304 108.14 19.5309 107.977C19.4314 107.814 19.3651 107.632 19.2909 107.458C19.2167 107.284 19.1772 107.119 19.133 106.948L19.0872 106.687C19.0681 106.601 19.0559 106.514 19.0509 106.426L19.0367 106.144V106.005L19.0493 105.865C19.0651 105.68 19.0651 105.494 19.092 105.318C19.1306 104.899 19.2801 104.498 19.5246 104.158C19.636 104.014 19.7755 103.896 19.9344 103.811C20.0932 103.725 20.2677 103.675 20.4467 103.663C20.7418 103.669 21.0308 103.749 21.2883 103.897C21.3973 103.956 21.4938 104.036 21.5726 104.134C21.587 104.153 21.6001 104.172 21.612 104.193C21.612 104.213 21.6231 104.229 21.6294 104.245C21.6357 104.261 21.6215 104.271 21.6215 104.279C21.6215 104.287 21.6215 104.279 21.6215 104.279L21.6436 104.259C21.6605 104.246 21.6784 104.235 21.6973 104.225L21.7368 104.209H21.7494C21.7601 104.203 21.7719 104.199 21.7841 104.198C21.7968 104.198 21.7841 104.198 21.7841 104.198H21.7731H21.7526C21.7415 104.198 21.7683 104.198 21.7194 104.187C21.7041 104.18 21.6893 104.172 21.6752 104.163C21.6485 104.15 21.6231 104.135 21.5994 104.117C21.5884 104.107 21.5768 104.097 21.5647 104.088L21.5141 104.05L21.492 104.03L21.4826 104.021C21.469 104.018 21.4551 104.018 21.4415 104.021L21.3025 104.038C21.1311 104.057 20.9583 104.061 20.7862 104.05C20.7452 104.05 20.7073 104.05 20.6694 104.05C20.5572 104.046 20.4459 104.029 20.3378 103.998C20.1672 103.93 19.9913 103.876 19.812 103.837C19.5913 103.778 19.3845 103.675 19.2041 103.532C19.1644 103.481 19.1275 103.427 19.0935 103.371C19.0351 103.281 18.9846 103.182 18.9356 103.084C18.8475 102.937 18.746 102.798 18.6325 102.67C18.5219 102.531 18.4177 102.388 18.3088 102.246C18.1888 102.073 18.083 101.893 17.9646 101.715C17.8461 101.538 17.7435 101.356 17.6345 101.177C17.5256 100.998 17.4024 100.821 17.2982 100.635L17.1403 100.358C17.0866 100.265 17.0393 100.169 16.9824 100.074C16.8902 99.8963 16.8075 99.7133 16.7345 99.5262C16.654 99.3408 16.5956 99.149 16.5293 98.9571C16.4629 98.7653 16.3998 98.5283 16.3335 98.3123C16.2671 98.0963 16.2198 97.877 16.1756 97.6529C16.1235 97.2765 16.1124 96.8953 16.1424 96.5164C16.1566 96.3294 16.1708 96.1424 16.1992 95.957C16.2277 95.7716 16.2466 95.5862 16.2813 95.404C16.4061 94.6156 16.5893 93.838 16.8293 93.0778C17.0724 92.3008 17.2209 91.4544 17.6409 90.729C17.9046 90.2598 18.293 89.8826 18.5788 89.4393C19.0635 88.8879 19.3683 88.3108 19.9999 87.7014C20.2809 87.4387 20.4894 87.1646 20.3804 87.0389C20.2715 86.9131 19.9936 87.1082 19.7078 87.3984C19.5072 87.6096 19.3178 87.7772 19.1472 87.9368L18.6467 88.3705L18.4035 88.5816C18.3246 88.6558 18.2456 88.7332 18.1667 88.8154C17.9923 88.9942 17.8338 89.1884 17.693 89.3958C17.2853 89.9623 16.9291 90.5656 16.6287 91.1981C16.384 91.714 16.0492 92.2008 15.8692 92.7618C15.814 92.9553 15.7713 93.1084 15.735 93.2342C15.6987 93.3599 15.6798 93.4582 15.6592 93.5405C15.6231 93.6804 15.5777 93.8178 15.5234 93.9515C15.3466 94.3884 15.1603 94.6947 15.0924 95.1058C15.052 95.3405 15.0251 95.5773 15.0118 95.8151C14.9961 96.0529 14.9961 96.2915 15.0118 96.5293C15.0592 97.4305 15.1792 98.3252 15.255 99.2247C15.2817 99.6353 15.3581 100.041 15.4824 100.432C15.6261 100.859 15.7161 101.301 15.8977 101.722C15.9434 101.827 15.9877 101.931 16.0319 102.035C16.0761 102.138 16.1298 102.236 16.1819 102.336C16.234 102.436 16.2877 102.533 16.3477 102.628C16.4077 102.723 16.4771 102.812 16.5498 102.899C16.6224 102.986 16.6698 103.06 16.725 103.137C16.7803 103.215 16.8356 103.298 16.8829 103.381C16.9303 103.463 16.9903 103.542 17.0408 103.626C17.0993 103.703 17.1626 103.777 17.2303 103.847C17.3535 103.972 17.4609 104.105 17.5777 104.242L17.5903 104.274C17.7298 104.579 17.9135 104.86 18.1351 105.109C18.2897 105.295 18.4622 105.464 18.6498 105.615C18.804 105.739 18.9727 105.844 19.152 105.926C19.3257 106.002 19.5066 106.059 19.692 106.097L19.8799 106.137C19.9667 106.154 20.0804 106.173 20.1878 106.184C20.352 106.201 20.5172 106.204 20.682 106.195C20.9283 106.176 21.1778 106.221 21.4399 106.139C21.9406 105.964 22.3799 105.643 22.7031 105.215C22.8204 105.086 22.9155 104.938 22.9842 104.777C23.0641 104.594 23.104 104.396 23.101 104.196C23.0992 104.117 23.0934 104.037 23.0837 103.958C23.0663 103.882 23.0458 103.805 23.0221 103.729C22.9983 103.658 22.9676 103.589 22.9305 103.524C22.9005 103.46 22.8639 103.399 22.8215 103.342C22.7821 103.289 22.741 103.237 22.6984 103.181C22.6557 103.124 22.6131 103.095 22.5689 103.053C22.4872 102.976 22.399 102.907 22.3052 102.846C21.9533 102.621 21.5608 102.471 21.151 102.404C20.7392 102.328 20.3163 102.341 19.9099 102.442C19.8027 102.474 19.6973 102.511 19.5941 102.554C19.5025 102.599 19.4093 102.638 19.3209 102.692C19.1411 102.798 18.9741 102.924 18.8235 103.07C18.5316 103.355 18.3033 103.702 18.154 104.085C18.0228 104.417 17.9331 104.764 17.8872 105.119C17.8635 105.286 17.8545 105.456 17.8603 105.625C17.8603 105.786 17.8603 105.955 17.8824 106.116C17.9624 106.716 18.1124 107.303 18.3293 107.866C18.3958 108.019 18.4813 108.164 18.5835 108.296C18.6735 108.436 18.7825 108.56 18.863 108.701C18.9275 108.82 18.9998 108.936 19.0793 109.046L19.3272 109.368C19.4139 109.486 19.5129 109.594 19.6225 109.69C19.7283 109.789 19.8341 109.886 19.9383 109.976C20.0425 110.066 20.1641 110.137 20.2746 110.234C20.3299 110.277 20.3836 110.324 20.4325 110.371C20.4815 110.418 20.5446 110.456 20.5983 110.503C20.7167 110.601 20.8336 110.701 20.9489 110.8C21.0715 110.888 21.2009 110.967 21.3357 111.035C21.5599 111.157 21.9184 111.112 22.1394 111.216C22.5212 111.397 22.9117 111.558 23.3094 111.699C23.5144 111.774 23.7259 111.828 23.941 111.86L24.2568 111.925C24.3626 111.941 24.4716 111.959 24.5853 111.983C24.7621 112.018 24.9706 112.005 24.9927 111.88C25.0337 111.701 24.8995 111.652 24.669 111.606Z" fill="#BADFD8"/>
<path d="M130.076 79H42.9236C41.8612 79 41 79.8522 41 80.9034V139.097C41 140.148 41.8612 141 42.9236 141H130.076C131.139 141 132 140.148 132 139.097V80.9034C132 79.8522 131.139 79 130.076 79Z" fill="#F7F4F2"/>
<path d="M131.803 139.655C131.803 136.196 131.884 132.749 131.898 129.277C131.911 125.994 131.811 122.863 131.803 119.575C131.803 117.902 131.86 114.012 131.861 112.342C131.861 110.771 131.849 108.002 131.861 106.449C131.898 103.426 131.744 103.602 131.779 100.582C131.815 97.5318 131.885 94.5015 131.938 91.4534C131.99 88.2892 131.982 85.075 132 81.9076V80.7787V80.4964C131.999 80.3827 131.992 80.2691 131.979 80.1561C131.935 79.8077 131.817 79.4732 131.632 79.1762C131.447 78.8792 131.199 78.6268 130.908 78.4369C130.518 78.1845 130.065 78.0507 129.602 78.0515L125.154 78.008C121.943 77.9789 118.755 77.9225 115.537 77.9386C111.691 77.958 107.843 77.994 103.994 78.0467C100.54 78.087 97.1704 78.066 93.7389 78.0064C88.0685 77.8451 82.465 77.6499 76.8743 77.4451C73.2501 77.3145 69.6084 77.2161 65.9205 77.1226C63.5097 77.0645 61.0686 77.0129 58.6243 77H56.9571L51.8903 77.0274C49.696 77.0016 47.4635 77.0806 45.2326 77.179L43.5543 77.2613L43.1371 77.2806C43.0861 77.2806 42.9524 77.2903 42.8409 77.3C42.7274 77.3105 42.6146 77.3283 42.5033 77.3532C41.8426 77.4932 41.2453 77.8483 40.8026 78.3643C40.3598 78.8803 40.0959 79.5288 40.0511 80.211V80.3722V80.5109V80.7206L40.0638 81.1383C40.0718 81.4157 40.0798 81.6931 40.0861 81.9705C40.0861 82.5462 40.075 83.122 40.0686 83.7026C40.0495 84.6815 40.0304 85.6379 40.0113 86.6055C39.9842 88.0715 40.0113 89.5084 40.0352 90.947L40.1021 95.4143C40.1387 98.9446 40.1689 102.489 40.2438 105.981C40.3186 109.473 40.4349 112.942 40.5288 116.428C40.6132 119.641 40.6721 122.892 40.731 126.144C40.7979 129.733 40.8648 133.285 40.9317 136.871C40.9317 137.629 40.9359 138.382 40.9444 139.129C40.9444 139.321 40.9444 139.499 40.9444 139.699C40.9502 139.907 40.9867 140.114 41.0527 140.311C41.1845 140.708 41.4273 141.058 41.7515 141.317C42.0758 141.577 42.4675 141.736 42.8791 141.774C43.0941 141.79 43.2645 141.774 43.454 141.786H44.0097L46.2501 141.806L55.0574 141.91C61.395 141.971 67.696 141.995 74.0272 142C80.5431 142 87.0654 141.729 93.5924 141.755C97.793 141.769 101.96 141.916 106.135 141.902C111.973 141.997 116.978 141.81 123.917 141.845C126.963 141.861 129.634 141.781 129.639 141.558C129.643 141.336 127.053 141.287 123.924 141.287C114.963 141.302 110.804 140.908 102.412 140.882C98.4316 140.871 93.9857 140.821 86.8074 140.821C82.5431 140.821 78.3058 140.624 74.0208 140.631C68.1291 140.631 67.1928 140.661 64.9778 140.587C61.5941 140.473 59.2262 140.287 56.2629 140.265C52.9014 140.236 49.4651 140.229 46.1052 140.265L43.7024 140.29H43.1005C43.0867 140.292 43.0728 140.292 43.0591 140.29H43.032C43.0151 140.293 42.9979 140.293 42.981 140.29C42.9472 140.287 42.9137 140.281 42.8807 140.273C42.7454 140.232 42.6261 140.149 42.54 140.036C42.4527 139.922 42.4041 139.783 42.4014 139.639V138.423V135.976C42.4014 132.715 42.4285 129.456 42.5033 126.231C42.5718 123.318 42.6275 120.368 42.6164 117.435C42.6036 114.196 42.6912 111.019 42.6896 107.786C42.6896 104.525 42.7151 101.362 42.6005 98.1189C42.5001 95.2933 42.5654 92.4146 42.4747 89.6052C42.4333 88.344 42.4062 87.077 42.3935 85.804C42.3935 85.7282 42.4014 85.654 42.4046 85.5766C42.454 84.5251 42.4874 83.4348 42.5129 82.3317C42.5256 81.7818 42.5368 81.227 42.5479 80.6738V80.4674C42.5522 80.4478 42.5549 80.4278 42.5559 80.4077C42.5638 80.371 42.5745 80.3348 42.5877 80.2997C42.6169 80.2309 42.6597 80.1688 42.7135 80.1174C42.7474 80.0839 42.7867 80.0566 42.8298 80.0368C42.8699 80.0147 42.9135 79.9999 42.9587 79.9933C42.9806 79.9875 43.003 79.9843 43.0256 79.9836C43.0368 79.9836 43.0495 79.9836 43.0607 79.9836H43.1243L43.6642 79.9933L45.8329 80.0239C48.7294 80.0561 49.7565 80.0239 52.4205 79.9578L57.8918 79.8546C59.3043 79.8239 60.7039 79.9094 62.2421 79.8675C64.9778 79.7933 67.6673 79.6143 70.4014 79.5288C71.817 79.5191 73.2294 79.5143 74.6641 79.5175C76.8838 79.5256 79.1115 79.5659 81.3138 79.5917C86.0287 79.6481 90.7421 79.732 95.4587 79.7755C100.006 79.8175 104.572 79.7433 109.064 79.6675C113.311 79.5965 117.578 79.6013 121.838 79.5449L127.844 79.4949H129.35H129.538C129.6 79.4949 129.675 79.4949 129.697 79.4949C129.761 79.4957 129.825 79.5038 129.887 79.5191C130.074 79.5636 130.244 79.6644 130.374 79.8083C130.504 79.9522 130.588 80.1325 130.615 80.3255C130.621 80.3568 130.624 80.3887 130.624 80.4206V80.469V80.9399V81.7028C130.608 84.0074 130.761 86.3136 130.742 88.6166C130.723 90.5519 130.742 92.4872 130.742 94.4096C130.742 98.6591 130.901 102.672 130.877 106.918C130.863 109.194 130.826 111.459 130.877 113.692C130.919 115.577 131.185 117.793 131.21 119.681C131.232 122.952 131.242 126.195 131.244 129.477C131.244 133.138 131.336 136.033 131.334 139.663C131.332 139.973 131.25 140.277 131.096 140.545C130.953 140.795 130.755 141.007 130.518 141.166C130.088 141.461 129.683 141.489 129.674 141.579C129.674 141.637 129.729 141.679 129.871 141.706C130.087 141.729 130.305 141.7 130.508 141.623C130.841 141.498 131.135 141.286 131.36 141.008C131.654 140.621 131.81 140.144 131.803 139.655Z" fill="#063844"/>
<path d="M86 121C92.0751 121 97 116.075 97 110C97 103.925 92.0751 99 86 99C79.9249 99 75 103.925 75 110C75 116.075 79.9249 121 86 121Z" fill="#BBE0D9"/>
<path d="M86.8389 107.123V114.877H85.179V113.189C84.9806 113.769 84.6197 114.209 84.1326 114.525C83.6274 114.842 83.05 115 82.3825 115C81.4623 115 80.7226 114.701 80.1633 114.121C79.6039 113.541 79.3333 112.714 79.3333 111.624V107.123H80.9752V111.448C80.9752 112.152 81.1556 112.697 81.5164 113.066C81.8773 113.453 82.3825 113.629 83.014 113.629C83.6635 113.629 84.1867 113.418 84.5836 113.013C84.9806 112.609 85.179 111.993 85.179 111.22V107.123H86.8389Z" fill="#063844"/>
<path d="M91.8367 107.879C92.396 108.459 92.6666 109.286 92.6666 110.376V114.895H91.0248V110.552C91.0248 109.866 90.8444 109.321 90.4835 108.934C90.1227 108.547 89.6175 108.371 88.986 108.371C88.3365 108.371 87.8132 108.582 87.4163 108.987C87.0194 109.391 86.8209 109.989 86.8209 110.78V114.895H85.1791L85.179 107.123L86.8209 107.123V108.829C87.0374 108.248 87.3802 107.791 87.8854 107.475C88.3906 107.158 88.968 107 89.6175 107C90.5377 107 91.2774 107.299 91.8367 107.879Z" fill="#063844"/>
<path d="M96.862 110.282C96.7625 110.282 96.7167 110.384 96.6961 110.569C96.6835 110.661 96.6819 110.776 96.6724 110.907C96.6629 111.038 96.6535 111.188 96.6408 111.355C96.4438 113.391 95.6695 115.325 94.4131 116.916C93.1567 118.508 91.4731 119.688 89.5697 120.312C88.312 120.722 86.9878 120.876 85.6724 120.763C84.4528 120.668 83.2522 120.399 82.1052 119.964C80.982 119.529 79.9432 118.893 79.0373 118.086C78.1892 117.317 77.4834 116.398 76.9535 115.373C76.417 114.325 76.0626 113.189 75.9061 112.017C75.7011 110.497 75.8098 108.951 76.2253 107.477C76.6473 105.991 77.3564 104.606 78.3106 103.406C79.2765 102.2 80.5421 101.283 81.9741 100.751C84.6877 99.7747 87.6492 99.7993 90.347 100.821C91.6465 101.328 92.8282 102.107 93.8162 103.11C95.4132 104.752 96.4105 106.906 96.6408 109.212C96.6914 109.747 96.6819 110.282 96.8367 110.282C96.9362 110.282 96.9757 110.179 96.9947 109.988C97.0018 109.873 97.0018 109.757 96.9947 109.642C96.9836 109.506 96.9726 109.351 96.9584 109.179C96.8699 108.264 96.684 107.362 96.4039 106.489C96.1217 105.622 95.7393 104.793 95.2648 104.019C94.7815 103.243 94.2034 102.533 93.5445 101.906C92.8705 101.275 92.1119 100.745 91.2917 100.334C89.9541 99.6555 88.5102 99.2239 87.0263 99.0591C85.5753 98.8943 84.1068 99.0753 82.7356 99.5881C81.8983 99.9116 81.1716 100.216 80.4733 100.57C79.7468 100.925 79.0729 101.383 78.4717 101.93C78.1126 102.267 77.7813 102.633 77.4812 103.026C77.3422 103.221 77.1953 103.407 77.0705 103.611L76.8777 103.909L76.6992 104.216C76.2183 105.075 75.8144 105.977 75.4922 106.911C75.0543 108.209 74.9059 109.591 75.0578 110.955C75.2096 112.308 75.5579 113.63 76.091 114.877C76.5805 116.078 77.2552 117.191 78.0894 118.173C78.9168 119.154 79.9021 119.982 81.0025 120.621C83.265 121.955 85.9446 122.34 88.4781 121.693C89.6569 121.391 90.787 120.917 91.8335 120.285C92.3624 119.96 92.861 119.586 93.3233 119.168C93.7772 118.754 94.187 118.292 94.546 117.79C95.7406 116.119 96.5202 114.176 96.8178 112.128C96.8762 111.884 96.9078 111.643 96.9505 111.386C97.0042 110.834 97.0089 110.281 96.862 110.282Z" fill="#063844"/>
<path d="M26.1417 142H15.8583C14.5698 142 13.3341 141.488 12.423 140.577C11.5119 139.665 11 138.429 11 137.14V118.972C11 118.714 11.1024 118.467 11.2846 118.285C11.4668 118.102 11.714 118 11.9717 118H30.0283C30.286 118 30.5332 118.102 30.7154 118.285C30.8976 118.467 31 118.714 31 118.972V137.14C31 138.429 30.4881 139.665 29.577 140.577C28.6659 141.488 27.4302 142 26.1417 142Z" fill="#F7F4F2"/>
<path d="M30.6118 139.995C31.0408 139.424 31.3463 138.769 31.5088 138.072C31.5551 137.899 31.5695 137.72 31.6015 137.545C31.6335 137.369 31.6255 137.188 31.6383 137.011L31.6495 135.979C31.6495 133.764 31.8717 122.128 31.8925 121.194C31.9197 120.596 31.9453 120 31.9724 119.405L31.9932 118.96C32.0023 118.858 32.0023 118.756 31.9932 118.654C31.9792 118.536 31.9513 118.42 31.9101 118.309C31.8273 118.084 31.6941 117.881 31.5208 117.716C31.3474 117.551 31.1387 117.428 30.9108 117.358C30.7961 117.321 30.6775 117.299 30.5574 117.292L30.4215 117.284H30.3112L29.8731 117.264L29.0001 117.226L27.2638 117.153C24.9598 117.064 22.7006 117 20.5069 117C17.9375 117 15.3905 117.074 12.8531 117.161H12.7332H12.674H12.5781C12.4373 117.17 12.2982 117.196 12.164 117.24C11.896 117.329 11.6538 117.483 11.4589 117.688C11.2673 117.894 11.1289 118.143 11.056 118.415C11.0198 118.549 11.001 118.687 11 118.826V118.97V119.089L11.0592 121.011C11.0959 122.29 11.1279 123.572 11.1455 124.858C11.1951 128.548 11.3294 133.37 11.4525 137.008C11.4525 137.114 11.4653 137.221 11.4717 137.33C11.4717 137.385 11.4717 137.44 11.4829 137.491C11.4941 137.543 11.5004 137.603 11.51 137.653C11.5292 137.764 11.5452 137.877 11.566 137.989L11.6555 138.321C11.6826 138.431 11.7179 138.539 11.7611 138.644C11.8026 138.75 11.8362 138.857 11.881 138.957C11.9667 139.149 12.0634 139.336 12.1704 139.518C12.2423 139.627 12.3015 139.746 12.3846 139.85L12.6245 140.172L12.8979 140.472C12.9874 140.572 13.0961 140.657 13.1953 140.751C13.6196 141.121 14.1014 141.418 14.6215 141.631C15.1725 141.856 15.76 141.978 16.3546 141.99C16.951 142.003 17.5474 141.99 18.1742 142C20.4302 142 22.5471 142 24.1012 141.958C25.6553 141.916 26.6434 141.866 26.6466 141.784C26.6498 141.702 25.6873 141.649 24.1507 141.615C22.6142 141.581 20.4909 141.573 18.1742 141.574H17.1717C16.8439 141.574 16.5081 141.583 16.2123 141.56C15.6133 141.524 15.0273 141.367 14.4887 141.101C13.4741 140.598 12.6776 139.738 12.2503 138.683C12.1835 138.487 12.13 138.286 12.0904 138.083C12.048 137.88 12.0192 137.674 12.0041 137.467C11.9929 137.364 12.0041 137.259 12.0041 137.156C12.0041 137.053 12.0041 136.953 12.0041 136.834C12.0137 136.613 12.0233 136.392 12.0345 136.171C12.0744 135.286 12.116 134.398 12.1576 133.507C12.2391 131.724 12.3079 129.936 12.3335 128.177C12.3686 125.738 12.3814 123.288 12.4038 120.835L12.439 119.744L12.4582 119.199L12.4678 118.926V118.859C12.4685 118.854 12.4685 118.849 12.4678 118.844C12.4678 118.834 12.4678 118.826 12.4678 118.818C12.4787 118.788 12.4987 118.761 12.5249 118.742C12.5512 118.723 12.5826 118.713 12.6149 118.712L12.9714 118.725L13.5134 118.741C14.9524 118.783 16.4042 118.813 17.8592 118.812C20.3087 118.812 22.8317 118.768 25.3387 118.712L29.0801 118.617L30.0058 118.589L30.4647 118.576C30.5134 118.572 30.5625 118.578 30.6086 118.594C30.654 118.613 30.6945 118.642 30.7265 118.679C30.7585 118.716 30.7811 118.761 30.7925 118.809C30.8072 118.926 30.8136 119.045 30.8117 119.163C30.8117 119.315 30.8213 119.466 30.8245 119.618C30.8245 122.508 30.8564 125.273 30.9652 128.118C31.0547 130.463 31.0931 133.071 31.2354 135.336C31.2354 135.717 31.2354 136.1 31.2354 136.485C31.2354 136.676 31.245 136.877 31.2354 137.061C31.2334 137.249 31.2179 137.436 31.189 137.622C31.173 137.714 31.1634 137.809 31.1442 137.901L31.0819 138.196L31.0467 138.334L30.9987 138.47C30.9652 138.56 30.9332 138.652 30.8996 138.742C30.7483 139.105 30.5522 139.446 30.316 139.759C30.0142 140.16 29.6535 140.512 29.2464 140.802C28.8699 141.061 28.4627 141.27 28.0344 141.426L27.7514 141.512C27.6668 141.541 27.5802 141.564 27.4924 141.581C27.3325 141.613 27.1726 141.655 27.0543 141.671C26.8065 141.705 26.6562 141.74 26.6466 141.773C26.637 141.805 26.7281 141.847 26.9264 141.865C27.0497 141.878 27.174 141.878 27.2973 141.865C27.4701 141.856 27.6417 141.833 27.8106 141.795L28.1144 141.728L28.4341 141.616C28.5542 141.576 28.6712 141.527 28.7843 141.47C28.9104 141.415 29.0328 141.351 29.1504 141.279C29.7181 140.954 30.215 140.517 30.6118 139.995Z" fill="#063844"/>
<path d="M6 141.474C6 141.892 6.91791 141.826 8.4293 141.826C20.867 141.826 32.9597 142.087 45.5429 142.524C51.5173 142.73 57.2004 142.319 62.8519 142.193C68.4163 142.066 73.1594 142.168 78.9707 142.301C85.9342 142.466 93.3075 142.606 100.428 142.403C108.072 142.183 114.374 143.024 122.195 142.999C128.668 142.978 135.391 142.426 141.905 142.173C147.222 141.973 152.271 141.821 157.572 141.821C158.789 141.821 160 141.84 160 141.522C160 141.106 159.082 141.17 157.572 141.17C149.427 141.17 141.677 140.64 133.485 140.929C126.45 141.175 120.471 140.688 113.805 140.979C109.805 141.154 106.791 140.604 103.029 140.546C98.625 140.478 94.9218 140.866 90.3686 140.667C84.2582 140.399 78.8694 141.068 72.7067 140.952C61.2614 140.739 50.7196 139.631 39.3961 140.126C34.3001 140.353 28.7927 140.14 23.5511 140.572C19.1055 140.941 14.804 141.166 10.0989 141.243C9.54503 141.217 8.99112 141.197 8.43879 141.17C7.21069 141.175 6 141.157 6 141.474Z" fill="#063844"/>
</svg>
