<svg width="164" height="164" viewBox="0 0 164 164" fill="none" xmlns="http://www.w3.org/2000/svg">
<path d="M94.6346 117.573L136.944 95.3915L133.294 71.8126L91.0296 46.0315L68.5585 53.6771L68.5697 131.24L87.2625 121.439" fill="white"/>
<path d="M112.161 58.9221L133.294 71.8127L136.944 95.3916L94.6345 117.573L68.5697 131.24L112.161 58.9221Z" fill="#BADFD8"/>
<path d="M133.213 71.7617L90.9379 45.9777L100.209 30.5972C100.596 29.9545 101.222 29.4929 101.947 29.3141C102.673 29.1352 103.44 29.2537 104.079 29.6434L141.525 52.4882C142.164 52.878 142.623 53.5071 142.8 54.2371C142.978 54.9672 142.86 55.7384 142.473 56.3811L133.213 71.7617Z" fill="#F7F4F2"/>
<path d="M100.02 85.1752C103.375 85.1752 106.095 82.4392 106.095 79.0643C106.095 75.6894 103.375 72.9535 100.02 72.9535C96.6654 72.9535 93.9457 75.6894 93.9457 79.0643C93.9457 82.4392 96.6654 85.1752 100.02 85.1752Z" fill="#063844"/>
<path d="M94.8163 75.8899C94.9684 75.982 95.0684 75.785 95.2741 75.4789C95.7229 74.88 96.2848 74.3762 96.9276 73.9963C97.5704 73.6164 98.2815 73.368 99.02 73.2653C99.7445 73.1632 100.482 73.2069 101.19 73.3937C101.897 73.5805 102.561 73.9068 103.142 74.3537C103.682 74.7564 104.173 75.2206 104.607 75.7368C105.03 76.2518 105.358 76.8394 105.574 77.4714C105.768 78.0741 105.849 78.7081 105.812 79.3407C105.762 79.9835 105.601 80.6127 105.337 81.2C104.994 81.958 104.502 82.6383 103.89 83.1996C103.275 83.7651 102.558 84.2059 101.777 84.4978C100.986 84.7877 100.128 84.837 99.3102 84.6395C98.5111 84.446 97.753 84.11 97.0717 83.6475C96.445 83.2572 95.8835 82.7699 95.408 82.2034C94.9133 81.6116 94.5515 80.9194 94.3472 80.174L94.2866 79.9444C94.2683 79.8682 94.2542 79.7911 94.2443 79.7134L94.2063 79.481C94.1918 79.4038 94.1829 79.3257 94.1795 79.2472C94.1711 79.0899 94.1612 78.934 94.1528 78.7781L94.1753 78.309C94.2326 77.6768 94.398 77.0593 94.6641 76.4837C94.805 76.2229 94.9459 75.9678 94.8332 75.897C94.6824 75.8034 94.5937 76.0245 94.4106 76.3632C93.9621 77.2914 93.7216 78.3074 93.7062 79.3393C93.7078 80.3921 94.0126 81.4218 94.5838 82.304C95.0558 83.0227 95.6389 83.6609 96.311 84.1945C96.9655 84.72 97.7404 85.0722 98.565 85.2191C98.6932 85.2347 98.8157 85.2546 98.9355 85.2772L99.1116 85.3127L99.2849 85.3367C99.399 85.3538 99.5117 85.3736 99.6244 85.3948C99.7371 85.4161 99.847 85.4218 99.9582 85.4374L100.295 85.4785C100.408 85.4855 100.52 85.4855 100.636 85.487C100.751 85.4884 100.868 85.487 100.987 85.4785C101.105 85.47 101.225 85.4487 101.347 85.4274C101.419 85.4147 101.488 85.4034 101.56 85.3878L101.763 85.3268C101.904 85.2843 102.031 85.2432 102.159 85.195L102.529 85.025L102.712 84.9399L102.886 84.8365L103.236 84.6324L103.575 84.4L103.749 84.2852C103.804 84.2427 103.861 84.1988 103.918 84.1562C104.031 84.0684 104.149 83.9833 104.272 83.8955C104.879 83.4079 105.353 82.7742 105.652 82.0532C105.95 81.3465 106.155 80.6037 106.261 79.8438C106.281 79.6596 106.315 79.4782 106.327 79.2939C106.34 79.1097 106.347 78.9255 106.355 78.7426C106.364 78.5598 106.343 78.3756 106.337 78.1928C106.331 78.01 106.296 77.83 106.277 77.6472C106.17 76.9155 105.943 76.2069 105.603 75.5512L105.462 75.3074C105.42 75.2251 105.373 75.1456 105.321 75.0693C105.216 74.9163 105.107 74.7632 104.997 74.6116C104.887 74.46 104.749 74.3282 104.623 74.1864C104.559 74.117 104.491 74.0517 104.42 73.9909L104.207 73.8024C103.625 73.3146 102.949 72.9541 102.221 72.7438C101.538 72.5481 100.833 72.4442 100.123 72.4348H99.854C99.7644 72.435 99.675 72.4417 99.5863 72.4547C99.4074 72.4773 99.2299 72.4986 99.0538 72.5312C98.8777 72.5638 98.7087 72.6205 98.5396 72.6729C98.3732 72.73 98.21 72.7962 98.0508 72.8713C97.9151 72.9318 97.7833 73.0009 97.6563 73.0782C97.531 73.1519 97.3999 73.2114 97.2802 73.2936L96.921 73.5331L96.8322 73.5912L96.7477 73.6578L96.5857 73.7868C96.3594 73.9641 96.1426 74.1533 95.9362 74.3537C95.8334 74.4557 95.739 74.5662 95.6376 74.6711L95.4868 74.8327L95.346 75.007C95.2488 75.1076 95.1502 75.2096 95.0544 75.3131C94.8783 75.5682 94.6994 75.8204 94.8163 75.8899Z" fill="#063844"/>
<path d="M99.6159 79.2485C99.4004 79.6071 99.1229 79.9273 98.8961 80.2816C98.6693 80.6359 98.4734 80.9548 98.2706 81.2992C98.1692 81.4749 97.848 81.7824 97.7493 81.9553C97.6507 82.1282 97.4859 82.4116 97.3746 82.5633C97.1577 82.8595 97.083 82.8198 96.8675 83.1174C96.6519 83.415 96.4054 83.6984 96.1786 83.9932C95.9518 84.288 95.7461 84.6338 95.5348 84.9555C95.3235 85.2772 95.1248 85.5578 94.9149 85.8568C94.6784 86.1717 94.4578 86.4986 94.2542 86.836C94.0246 87.2484 93.8133 87.6722 93.6034 88.0987C93.4139 88.4742 93.1864 88.829 92.9244 89.1574C92.4482 89.6831 91.9382 90.1806 91.4353 90.6751C91.1085 90.9954 90.8042 91.3341 90.5055 91.6813C90.3062 91.9055 90.1213 92.1421 89.9519 92.3899C89.9138 92.448 89.8786 92.5061 89.8434 92.5657C89.6363 92.9228 89.4518 93.2884 89.2616 93.6526C89.0404 94.0778 88.8235 94.5029 88.6417 94.9437C88.36 95.6197 88.1149 96.3041 87.8345 96.9801C87.7035 97.2976 87.5697 97.6108 87.4302 97.9254C87.3105 98.1606 87.1837 98.3945 87.0597 98.634C86.878 98.9684 86.7188 99.3114 86.5596 99.6572C86.3102 100.193 86.0905 100.741 85.8397 101.276C85.72 101.499 85.5946 101.718 85.4636 101.936C85.3226 102.176 85.1956 102.424 85.0832 102.679C84.7595 103.336 84.3948 103.973 83.9914 104.585C83.5589 105.242 83.1236 105.896 82.6277 106.512C82.3923 106.797 82.1754 107.097 81.9783 107.411C81.7895 107.721 81.6191 108.043 81.4388 108.359C81.2443 108.699 81.057 109.047 80.8457 109.378C80.6344 109.708 80.423 110.02 80.185 110.331C80.0554 110.473 79.9229 110.615 79.7835 110.747C79.644 110.878 79.4778 111.03 79.3299 111.182C78.9375 111.571 78.5749 111.99 78.2451 112.434C77.9759 112.799 77.7258 113.177 77.4957 113.568C77.2625 113.986 77.0532 114.417 76.8688 114.859C76.7838 115.016 76.6878 115.167 76.5814 115.31C76.5095 115.405 76.4306 115.493 76.356 115.585C76.2541 115.728 76.169 115.882 76.1024 116.045C76.0249 116.21 75.9502 116.376 75.8742 116.54C75.6812 116.924 75.4811 117.305 75.3205 117.702C75.1599 118.099 75.0303 118.513 74.8824 118.918C74.7415 119.291 74.5866 119.655 74.4274 120.02C74.2513 120.422 74.0865 120.825 73.909 121.226C73.7384 121.549 73.5454 121.859 73.3314 122.155C73.1201 122.449 72.9087 122.74 72.696 123.033C72.248 123.673 71.831 124.323 71.4281 124.988C71.0252 125.652 70.8041 126.481 70.3716 127.156C70.0898 127.59 69.8602 128.046 69.6122 128.495C69.1699 129.062 69.1896 129.796 68.7233 130.509C68.5176 130.822 68.4092 131.14 68.5754 131.242C68.7416 131.344 68.9515 131.1 69.146 130.768C69.7024 129.819 70.0645 129.442 70.6153 128.572C70.8759 128.158 71.0506 127.625 71.5056 126.871C71.7761 126.423 72.1917 126.068 72.4593 125.614C72.8256 124.992 72.8679 124.883 73.0637 124.683C73.3638 124.38 73.6526 124.215 73.8596 123.916C74.098 123.575 74.3122 123.218 74.5006 122.846C74.8264 122.127 75.2415 121.451 75.7361 120.837C75.9759 120.572 76.1887 120.283 76.3715 119.975C76.5645 119.634 76.8293 119.344 77.0308 119.009C77.2543 118.685 77.4347 118.333 77.5675 117.963C77.6689 117.624 77.8986 117.355 78.0056 117.022C78.0555 116.872 78.1162 116.726 78.1874 116.585L78.2099 116.567C78.4091 116.384 78.5912 116.184 78.7537 115.967C78.865 115.826 78.9777 115.692 79.0819 115.542C79.2966 115.223 79.4851 114.886 79.6454 114.536C79.8131 114.196 79.9948 113.863 80.1709 113.528C80.2413 113.397 80.3118 113.265 80.385 113.134L80.4526 113.085C80.9288 112.746 81.1429 112.201 81.4303 111.733C81.4523 111.697 81.4617 111.654 81.4571 111.612C81.8797 110.904 82.3192 110.204 82.7799 109.515C83.0462 109.117 83.3434 108.736 83.6252 108.35C83.9069 107.965 84.176 107.588 84.4704 107.216C84.8268 106.814 85.1832 106.411 85.5523 106.017C85.98 105.524 86.3753 105.003 86.7357 104.459C87.1104 103.931 87.3246 103.304 87.564 102.708C87.6627 102.462 87.7599 102.217 87.8458 101.969C88.0233 101.685 88.2487 101.413 88.3403 101.08C88.4403 100.712 88.4192 100.285 88.5657 99.9463C88.7122 99.6076 88.9207 99.3341 89.0348 98.9911C89.1299 98.6673 89.2613 98.3554 89.4264 98.0614C89.5208 97.9084 89.6377 97.7681 89.7335 97.6136C89.807 97.4567 89.8719 97.2958 89.9279 97.1318C90.035 96.9093 90.1125 96.6712 90.2181 96.4501C90.5309 96.0561 90.8479 95.665 91.131 95.2526C91.3893 94.8687 91.6127 94.4622 91.7988 94.0381C91.9396 93.7192 92.0636 93.3933 92.2059 93.0773C92.3139 92.8562 92.4205 92.6346 92.5257 92.4126C92.6257 92.2199 92.7314 92.0356 92.8469 91.8457C92.9878 91.6162 93.1652 91.3993 93.3244 91.1797C93.6654 90.7106 94.0288 90.2528 94.3571 89.7767C94.6627 89.309 94.9245 88.8137 95.1389 88.2971C95.3545 87.8196 95.6278 87.3717 95.856 86.8984C96.0718 86.4549 96.3145 86.0251 96.5829 85.6116C96.7393 85.3806 96.7674 85.0702 96.9266 84.8407C97.0675 84.6493 97.1689 84.4396 97.2915 84.2412C97.5634 83.8033 97.8874 83.4008 98.1748 82.9658C98.3382 82.747 98.4798 82.5125 98.5974 82.2657C98.6834 82.0503 98.7383 81.798 98.8355 81.5911C99.0214 81.2411 99.2187 80.8995 99.4215 80.558C99.6498 80.1768 99.7625 79.8352 99.985 79.4583C100.072 79.3165 100.139 79.1266 100.012 79.0459C99.8484 78.9552 99.7357 79.0487 99.6159 79.2485Z" fill="#063844"/>
<path d="M141.535 52.4783C141.512 52.5165 141.535 52.569 141.59 52.6356C141.624 52.6742 141.661 52.7102 141.701 52.7433C141.742 52.7886 141.793 52.8382 141.842 52.885C141.979 53.0168 142.105 53.1589 142.22 53.3101C142.368 53.5152 142.488 53.7398 142.576 53.9776C142.715 54.3631 142.765 54.7752 142.722 55.1829C142.68 55.5907 142.546 55.9834 142.331 56.3315L141.001 58.5239C140.111 59.9789 139.223 61.4329 138.337 62.886C137.451 64.339 136.559 65.7897 135.66 67.2381C135.212 67.9618 134.762 68.6878 134.312 69.4163L133.635 70.5075L133.295 71.0545L133.105 71.3507L126.033 66.8668C122.08 64.3513 118.185 62.1816 114.374 59.9227C110.621 57.6977 107.471 55.7222 103.608 53.3016C101.595 52.0389 99.523 50.7507 97.4423 49.454L94.3036 47.5295L92.7272 46.5772L91.9383 46.1024L91.6438 45.9267L91.503 45.8445L91.6002 45.673L91.8481 45.2479L92.3975 44.3069C93.9091 41.7092 95.3813 39.3964 96.8703 37.0793C97.6142 35.9172 98.3594 34.7509 99.1243 33.5506L100.275 31.7082L100.567 31.2363L100.708 30.9982L100.744 30.9387L100.777 30.8934L100.839 30.8027C101.01 30.5633 101.226 30.3605 101.476 30.206C101.899 29.9438 102.398 29.8315 102.893 29.8872C103.14 29.9164 103.382 29.9863 103.607 30.0941C103.665 30.1253 103.715 30.1494 103.78 30.1848L103.987 30.3067L104.41 30.5504C105.522 31.1995 106.644 31.8443 107.768 32.4877C110.022 33.7731 112.276 35.0513 114.485 36.3367C118.089 38.4341 121.501 40.4465 125.051 42.602C125.865 43.0994 126.673 43.594 126.742 43.4835C126.835 43.3304 126.206 42.9804 125.192 42.3625C119.74 39.0378 114.669 35.6791 109.124 32.4423C107.932 31.7479 106.795 31.062 105.689 30.3846L104.866 29.8773L104.458 29.625C104.317 29.5414 104.192 29.4564 104.035 29.3742C103.734 29.211 103.408 29.0994 103.07 29.044C102.733 28.9934 102.389 28.9982 102.053 29.0581C101.376 29.1788 100.76 29.5289 100.308 30.0501C100.253 30.1168 100.194 30.1791 100.146 30.25L100.005 30.4611L99.7583 30.865L99.2624 31.6629C98.6087 32.7456 97.9593 33.8439 97.3099 34.9819C95.749 37.7156 94.3247 39.6231 92.7779 42.1428C92.3905 42.7735 92.0242 43.3857 91.6678 43.9852C91.2452 44.6938 90.8394 45.4023 90.4309 46.0968L93.1371 47.7109C93.9444 48.1956 94.7699 48.7029 95.6306 49.2585C99.6625 51.8519 103.418 53.8062 107.516 56.3641C115.124 61.1159 121.941 65.828 129.634 70.268C130.176 70.5807 130.722 70.901 131.272 71.2288L132.101 71.722L133.391 72.5014C133.847 71.7362 134.307 70.9667 134.769 70.1929L135.869 68.3321C136.6 67.0879 137.316 65.8379 137.992 64.5936C138.827 63.056 139.661 61.5496 140.528 60.0304C140.959 59.2708 141.395 58.5083 141.842 57.736L142.511 56.5682C142.633 56.3676 142.737 56.156 142.82 55.9362C142.858 55.8228 142.89 55.708 142.92 55.5918C143.037 55.0276 143.012 54.4427 142.845 53.8912C142.689 53.4566 142.429 53.0672 142.089 52.7574C141.807 52.5151 141.566 52.4258 141.535 52.4783Z" fill="#063844"/>
<path d="M69.1727 132.623C69.6742 132.115 69.353 131.95 68.9543 131.621C68.5556 131.293 68.1175 130.951 67.6864 130.638C67.2553 130.325 66.8214 130.023 66.3763 129.735C65.4869 129.151 64.5671 128.616 63.6207 128.131C61.6468 127.114 59.5593 126.337 57.4025 125.817C56.3346 125.567 55.2584 125.662 54.2412 125.888C53.7341 126.018 53.234 126.148 52.7494 126.32C52.5071 126.403 52.2633 126.474 52.0253 126.559C51.7872 126.644 51.5505 126.727 51.3124 126.8C51.0744 126.874 50.8518 126.942 50.6264 127.017C50.401 127.092 50.1784 127.152 49.9572 127.21C49.5346 127.335 49.112 127.438 48.6893 127.531C47.8342 127.72 46.9566 127.86 45.9916 128.019C43.6784 128.397 41.2525 128.848 39.0788 129.817C37.9095 130.339 36.7247 130.384 35.5358 130.369C34.3468 130.353 33.155 130.278 31.9378 130.554C30.9291 130.784 29.9486 131.216 28.9569 131.646C27.9651 132.075 26.9564 132.516 25.9351 132.744C25.1254 132.939 24.2952 133.034 23.4627 133.027C22.6498 133.022 21.8478 132.84 21.1115 132.493C20.9368 132.421 20.7931 132.307 20.6396 132.29C20.486 132.273 20.3381 132.33 20.1873 132.555C19.9887 132.853 19.9746 133.02 20.0732 133.151C20.1334 133.223 20.2071 133.283 20.2902 133.328C20.3381 133.356 20.3874 133.384 20.4423 133.414L20.6184 133.495C21.2663 133.818 21.9367 134.093 22.6245 134.317L23.1359 134.483L23.6515 134.624L23.9107 134.692L24.1699 134.746L24.6926 134.851C26.0858 135.082 27.5101 135.092 28.8667 134.675C30.0346 134.315 31.1292 134.226 32.2139 134.109C33.2987 133.991 34.3594 133.825 35.3907 133.319C36.6205 132.708 37.8334 133.359 39.0816 133.121C40.5411 132.837 41.5512 131.858 43.1064 131.766C45.19 131.643 46.5959 130.036 48.6217 129.679C49.0908 129.596 49.5613 129.537 50.0305 129.503C50.4868 129.465 50.9448 129.451 51.4026 129.462C51.6252 129.462 51.8492 129.482 52.0703 129.496C52.2915 129.51 52.5085 129.524 52.7268 129.548C53.1621 129.606 53.589 129.646 54.0102 129.721C54.8555 129.837 55.6584 129.995 56.4614 130.081C57.277 130.18 58.1002 130.201 58.9197 130.143C59.3085 130.118 59.6989 130.137 60.0834 130.2C60.2764 130.235 60.4693 130.274 60.6638 130.313C60.8582 130.353 61.0498 130.408 61.2456 130.455C62.0232 130.646 62.7952 130.845 63.687 130.845C65.1827 130.832 66.6502 131.255 67.9132 132.061C68.0259 132.202 68.1471 132.344 68.2541 132.496C68.5514 132.733 68.7951 133.009 69.1727 132.623Z" fill="#063844"/>
<path d="M94.6233 117.555C94.7881 117.872 96.0461 117.149 98.1578 116.042C104.685 112.62 111.158 109.261 117.648 105.925L127.402 100.934L137.627 95.7387C137.562 95.2966 137.499 94.853 137.434 94.408C137.392 94.1061 137.351 93.8043 137.309 93.501C137.225 92.9011 137.141 92.3002 137.058 91.6984C136.892 90.4938 136.724 89.283 136.556 88.0662C136.225 85.6343 135.89 83.185 135.553 80.7181C135.345 79.1848 135.126 77.6651 134.895 76.1591C134.778 75.4033 134.661 74.6527 134.545 73.9072C134.403 73.0201 134.262 72.1362 134.122 71.2557L132.768 70.4451L131.782 69.857L129.792 68.685L125.847 66.3835C123.228 64.8586 120.625 63.3465 118.041 61.8131C110.484 57.332 104.137 53.3554 96.3603 48.4804L91.1169 45.201L85.2001 47.1553L79.5651 49.0331L73.9188 50.9463L67.7428 53.0805C67.7428 53.6389 67.7428 54.1972 67.7526 54.7528L67.7653 55.8312C67.7756 56.5483 67.7855 57.263 67.7949 57.9754C67.9837 70.0979 67.268 80.0918 67.292 92.4962C67.3117 102.759 67.7836 113.421 67.9963 123.752C68.0217 125.02 68.0466 126.278 68.071 127.527C68.0823 128.189 68.0936 128.843 68.1048 129.491C68.1161 130.318 68.1274 131.141 68.1386 131.96L76.3503 127.523C78.8762 126.167 81.4134 124.818 84.0012 123.461C85.703 122.569 87.4034 121.694 87.278 121.453C87.1146 121.137 85.8566 121.859 83.7448 122.965C81.157 124.323 78.586 125.644 76.0249 126.949L72.186 128.902L70.2729 129.871L69.0191 130.493L69.036 129.643L69.0529 128.651L69.0825 126.068C69.1003 124.344 69.113 122.617 69.1205 120.885C69.1332 117.421 69.1205 113.931 69.0501 110.389C68.8332 99.2405 69.2558 89.7611 69.0022 79.189C68.8529 72.8443 69.3206 68.0642 69.3699 62.0994C69.3812 60.6269 69.3699 59.2055 69.3614 57.8096C69.353 57.1114 69.3441 56.4189 69.3347 55.732C69.329 55.3881 69.3234 55.0452 69.3178 54.7032V54.5884V54.5359V54.4311L69.3093 54.2142L69.5798 54.108L69.6502 54.081L69.7911 54.03L70.1208 53.911L71.4408 53.4376L74.1174 52.4938C75.9248 51.8646 77.79 51.2382 79.7764 50.6146C81.7627 49.9911 83.7209 49.3392 85.6199 48.6802C86.5722 48.3505 87.5161 48.0198 88.4515 47.6882L89.8603 47.1837L90.5646 46.9314L90.7196 46.8747L90.7999 46.8435L90.9661 46.7784L91.1648 46.8875L91.2183 46.9187L91.3226 46.9782L91.5311 47.1001L92.365 47.5833L94.0344 48.5498L97.3915 50.5027C99.6455 51.8206 101.915 53.1783 104.247 54.6337C109.177 57.7062 113.929 60.7701 118.631 63.8099L125.66 68.3519L132.215 72.5552V72.5935L132.293 73.1604L132.455 74.3182L132.789 76.6367C133.015 78.1833 133.247 79.7337 133.487 81.2878C133.97 84.3971 134.493 87.5305 135.053 90.6879C135.193 91.4882 135.334 92.2945 135.476 93.107L135.683 94.3315L135.734 94.639V94.6602V94.6758V94.6971L135.755 94.7892L135.677 94.836L135.628 94.8643L135.355 95.006L134.254 95.5927L132.041 96.7676L127.578 99.1371C124.607 100.73 121.649 102.348 118.789 104.016C112.719 107.559 106.792 110.878 100.248 114.384L97.8986 115.546C96.1983 116.444 94.4993 117.314 94.6233 117.555Z" fill="#063844"/>
</svg>
