<svg width="39" height="42" viewBox="0 0 39 42" fill="none" xmlns="http://www.w3.org/2000/svg">
<path d="M4.7839 34.1244C4.80556 34.1368 4.84368 34.1597 4.87011 34.1713C4.89655 34.1829 4.94166 34.1887 4.9629 34.1985C5.0647 34.234 5.16906 34.2595 5.27467 34.2746C5.38135 34.2969 5.48982 34.3002 5.5965 34.3225C5.70253 34.3494 5.80634 34.3865 5.90666 34.4334C6.11232 34.5197 6.31156 34.6236 6.5024 34.7443C6.60081 34.8037 6.70214 34.8571 6.8059 34.9042C6.90645 34.9548 7.01153 34.9935 7.11929 35.0199C7.26323 35.0599 7.4094 35.0836 7.55181 35.1292L7.73064 35.1874L7.94587 35.3325L7.97921 35.3563L8.02057 35.384L8.05392 35.4077L8.10372 35.442C8.18925 35.4996 8.27367 35.5654 8.35724 35.626C8.45516 35.6984 8.54979 35.7759 8.64078 35.8582C8.73015 35.9391 8.80143 36.1186 8.8943 36.191C9.01046 36.2846 9.13851 36.3593 9.2742 36.4126C9.35149 36.4436 9.43031 36.4696 9.51025 36.4906L9.58657 36.5072C9.72613 36.5281 9.86726 36.5272 10.0055 36.5045C10.2252 36.4683 10.4585 36.3661 10.6798 36.3243L11.0332 36.2661C11.0937 36.2818 11.1531 36.3031 11.2104 36.3298C11.2685 36.3718 11.3219 36.4209 11.3695 36.4763C11.4201 36.5355 11.4798 36.585 11.5457 36.6226C11.6482 36.6613 11.7569 36.6751 11.8638 36.6631C11.9647 36.6651 12.066 36.6696 12.1684 36.666L12.2377 36.6546L12.2779 36.6905C12.3143 36.7226 12.3527 36.7518 12.3929 36.7778C12.4522 36.8537 12.5071 36.9333 12.5573 37.0163C12.6178 37.1153 12.6608 37.1533 12.7484 37.1044C13.0433 36.9442 13.2357 37.1888 13.5014 37.2087C13.758 37.2474 14.0179 37.2334 14.2672 37.1675C14.3173 37.1592 14.3665 37.1299 14.4169 37.1083C14.5508 37.1337 14.687 37.1373 14.8208 37.1187C15.0585 37.0548 15.3069 37.0437 15.5512 37.086V37.086L15.7249 37.1875L15.7838 37.2469C15.8823 37.339 15.9916 37.4166 16.1088 37.4776C16.3428 37.6329 16.5789 37.7853 16.8143 37.9191C16.8778 37.9548 16.9449 37.9821 17.0141 38.0004C17.1783 38.038 17.3456 38.0533 17.5122 38.0458C17.6369 38.0439 17.7667 38.0278 17.8899 38.0314C18.0364 38.065 18.1868 38.0673 18.3325 38.0381C18.3949 38.0146 18.459 37.9721 18.5237 37.9482C18.5858 37.9229 18.6499 37.9034 18.7153 37.89C18.8423 37.8693 18.9707 37.8579 19.0996 37.8559C19.2118 37.8374 19.3409 37.832 19.441 37.8288C19.6539 37.8315 19.866 37.8691 20.0701 37.9403C20.1641 37.9753 20.2516 38.0299 20.3374 38.0742C20.4453 38.124 20.5495 38.1832 20.6487 38.2514C20.7654 38.3289 20.8924 38.386 21.0248 38.4205L21.2723 38.5231C21.2963 38.5351 21.3076 38.5439 21.3224 38.5441C21.3407 38.5544 21.3609 38.5602 21.3815 38.561C21.402 38.5617 21.4223 38.5575 21.4408 38.5485C21.4972 38.5102 21.5417 38.4549 21.5691 38.3892C21.6566 38.2207 21.6186 38.0649 21.5573 38.0352L21.4711 37.9883C21.3409 37.9468 21.2061 37.9269 21.0714 37.9293C20.9505 37.9047 20.8314 37.8692 20.7155 37.8233C20.5901 37.7634 20.4619 37.7109 20.3315 37.6661C20.2751 37.6515 20.2168 37.6399 20.16 37.6227C20.0986 37.5991 20.0384 37.5718 19.9797 37.5408C19.8549 37.481 19.7337 37.4122 19.6171 37.3349C19.4825 37.2323 19.35 37.1133 19.2158 37.0132C19.0639 36.9046 18.906 36.8064 18.743 36.7193C18.7015 36.6892 18.6629 36.6546 18.6279 36.6161C18.5747 36.5611 18.5263 36.5053 18.4719 36.4585C18.3552 36.3556 18.2207 36.2792 18.0769 36.234C17.8325 36.1654 17.6206 35.9214 17.3779 35.818C17.3278 35.7929 17.276 35.7721 17.223 35.7558C17.1539 35.7368 17.0831 35.727 17.0122 35.7268C16.8579 35.7283 16.671 35.9186 16.5138 35.9471C16.3944 35.9668 16.275 35.9865 16.1579 35.9899C16.0407 35.9932 15.9368 36.0475 15.827 36.0656L15.6553 36.0807C15.6009 36.0631 15.5465 36.0455 15.4906 36.0334C15.4843 36.0233 15.4753 36.0155 15.4648 36.0111C15.4557 35.9867 15.4384 35.9668 15.4164 35.9553C15.2611 35.8769 15.0945 35.8296 14.9249 35.8159L14.7854 35.8176L14.7203 35.6902C14.6633 35.5827 14.5445 35.844 14.4845 35.7477C14.4199 35.6181 14.3454 35.4944 14.2616 35.378L14.2359 35.3556C14.1657 35.2424 14.0879 35.1569 13.9685 35.2217C13.8492 35.2866 13.7592 35.4395 13.6299 35.429C13.5006 35.4184 13.4665 35.2859 13.3781 35.2553C13.2896 35.2247 13.2931 35.2454 13.2386 35.3022C13.2197 35.3213 13.2027 35.3666 13.1837 35.3856C13.1319 35.4554 13.0655 35.5109 12.9897 35.5478C12.9203 35.4975 12.8466 35.4545 12.7699 35.4193C12.6953 35.3838 12.6158 35.3624 12.5389 35.3272C12.4312 35.2785 12.3115 35.2745 12.2035 35.3161C12.1247 35.3568 12.0632 35.4274 12.0302 35.5147C11.9879 35.535 11.9433 35.5495 11.8975 35.5578C11.8134 35.5641 11.7286 35.5538 11.6472 35.5273L11.6318 35.5086C11.5767 35.4252 11.5075 35.3536 11.4279 35.2978C11.3708 35.2568 11.3077 35.2268 11.2415 35.209C11.2316 35.1787 11.216 35.1509 11.1956 35.1272C11.1752 35.1036 11.1506 35.0847 11.1233 35.0718C10.9144 34.9731 10.6966 34.8994 10.4739 34.8521C10.3394 34.7653 10.2027 34.6949 10.0651 34.6193C9.93536 34.5421 9.80058 34.4755 9.66196 34.4201C9.60421 34.3975 9.54413 34.3833 9.4833 34.3778C9.42138 34.3719 9.35924 34.3767 9.29927 34.3922C9.25185 34.4108 9.20823 34.4387 9.17058 34.4745C9.13 34.5079 9.09523 34.5486 9.06782 34.5951L8.96037 34.6128L8.915 34.6203L8.84754 34.6128C8.78254 34.6053 8.71727 34.6018 8.65209 34.6025C8.56187 34.5908 8.47121 34.5765 8.38252 34.5593C8.29384 34.542 8.2112 34.5317 8.13096 34.521C8.05071 34.5104 7.98334 34.4736 7.9077 34.4463C7.68837 34.3655 7.46597 34.2959 7.24596 34.226C7.02594 34.156 6.83577 34.1182 6.62787 34.0622C6.41996 34.0061 6.20293 33.9543 5.99307 33.9012C5.79277 33.856 5.59444 33.8 5.39885 33.7335C5.29158 33.6927 5.18123 33.6631 5.0731 33.6172L5.02824 33.598C5.00419 33.586 4.99294 33.5773 4.97818 33.577C4.95935 33.5667 4.93874 33.561 4.91783 33.5603C4.89693 33.5596 4.87627 33.564 4.85735 33.573C4.8023 33.6121 4.75873 33.6671 4.73147 33.7319C4.68464 33.9389 4.72259 34.0947 4.7839 34.1244Z" fill="#128081"/>
<path d="M12.2039 11.1207C12.1849 11.1238 12.1445 11.1464 12.1224 11.1607C12.1003 11.175 12.0716 11.2089 12.0538 11.2199C11.9716 11.2823 11.8955 11.3536 11.8268 11.4327C11.7513 11.509 11.685 11.597 11.6053 11.6633C11.5202 11.7292 11.4297 11.7868 11.3349 11.8354C11.2447 11.8822 11.1549 11.9316 11.0638 11.9731L10.8495 12.0696L11.0543 12.3017C11.1343 12.386 11.2083 12.4769 11.2754 12.5736C11.343 12.6678 11.4166 12.7569 11.4957 12.8403C11.5699 12.9237 11.6512 12.9993 11.7386 13.066C11.8586 13.1553 11.9781 13.2419 12.0899 13.3404L12.2282 13.4665L12.3676 13.688L12.3878 13.7219L12.417 13.765L12.4373 13.7988L12.4701 13.8492C12.524 13.9387 12.5736 14.0315 12.6255 14.124C12.6866 14.2313 12.7425 14.3418 12.7928 14.4553C12.8406 14.567 12.8423 14.7554 12.8868 14.8624C12.9522 14.996 13.036 15.1185 13.1352 15.2255C13.194 15.2849 13.2528 15.3443 13.3159 15.4004L13.3753 15.4491C13.4916 15.5294 13.6173 15.5919 13.7488 15.6347C13.9542 15.7072 14.2078 15.7159 14.4208 15.7898C14.5366 15.8238 14.6461 15.8643 14.76 15.9013C14.808 15.942 14.8518 15.9883 14.8904 16.0393C14.9232 16.104 14.9507 16.1715 14.9727 16.241C14.9932 16.3163 15.0256 16.3874 15.0685 16.4512C15.1457 16.5344 15.2399 16.5964 15.3432 16.6319C15.4321 16.681 15.5195 16.7357 15.6123 16.7789L15.674 16.8112L15.6968 16.8607C15.7168 16.9079 15.7384 16.9495 15.7599 16.9911C15.7816 17.0849 15.7973 17.18 15.8068 17.2758C15.8256 17.3896 15.8346 17.444 15.9392 17.44C16.2668 17.4365 16.3394 17.7435 16.5739 17.8883C16.7872 18.0425 17.0247 18.1522 17.2736 18.2116L17.4306 18.2282C17.5399 18.3159 17.6604 18.3857 17.788 18.4351C18.0248 18.4888 18.2504 18.5935 18.4509 18.7432V18.7432C18.4917 18.7976 18.5282 18.8554 18.567 18.9128L18.595 18.9932C18.6469 19.1195 18.7142 19.2381 18.7951 19.3456C18.9427 19.5871 19.0902 19.8286 19.2545 20.0674C19.2988 20.1283 19.3498 20.1833 19.4063 20.2311C19.5435 20.3397 19.6924 20.4294 19.8495 20.4983C19.964 20.5538 20.0858 20.5949 20.1983 20.6534C20.3215 20.7474 20.4599 20.8148 20.6057 20.8521C20.6727 20.857 20.747 20.8474 20.8139 20.8523C20.8805 20.8554 20.9468 20.8649 21.0121 20.8808C21.1402 20.9155 21.2566 20.9681 21.3785 21.0091C21.5003 21.0502 21.5986 21.0818 21.7034 21.123C21.8992 21.2115 22.0833 21.3288 22.2505 21.4714C22.3271 21.5432 22.3995 21.62 22.4672 21.7015C22.554 21.7863 22.634 21.879 22.7063 21.9784C22.7939 22.0938 22.9013 22.1899 23.0223 22.2613C23.0223 22.2613 23.1544 22.3644 23.2367 22.4332C23.2497 22.4458 23.2639 22.4568 23.2789 22.4662C23.2942 22.4815 23.3124 22.493 23.3322 22.4999C23.352 22.5067 23.3728 22.5088 23.3932 22.5058C23.4559 22.4832 23.511 22.4419 23.5523 22.3865C23.6709 22.2447 23.6739 22.0847 23.6225 22.0401C23.5711 21.9954 23.5774 21.989 23.5549 21.9715C23.4446 21.8972 23.3247 21.8416 23.1996 21.8067C23.0889 21.7517 22.986 21.679 22.8947 21.5912C22.7986 21.4929 22.6968 21.4013 22.59 21.3171L22.4459 21.2159C22.3946 21.1742 22.3473 21.1267 22.3051 21.0743C22.2113 20.9734 22.1247 20.865 22.0459 20.7502C21.9584 20.6052 21.879 20.4508 21.7934 20.3028C21.6944 20.1432 21.5873 19.9896 21.4727 19.8426C21.4473 19.7987 21.4257 19.7525 21.4083 19.7044C21.3863 19.6333 21.3593 19.564 21.3276 19.497C21.2635 19.3577 21.173 19.2339 21.0621 19.1341C20.8727 18.966 20.7765 18.6496 20.6061 18.4624C20.5699 18.4192 20.5313 18.3785 20.4905 18.3405C20.4368 18.2931 20.3776 18.2537 20.3145 18.2233C20.1784 18.1554 19.9353 18.2407 19.7836 18.1966C19.6697 18.1595 19.5598 18.1165 19.4498 18.0735C19.3399 18.0305 19.2312 18.0245 19.1253 17.9914C19.0725 17.9682 19.0197 17.945 18.9654 17.9274C18.9111 17.9098 18.8833 17.8452 18.8379 17.8075C18.8385 17.7961 18.8366 17.7845 18.8323 17.7739C18.8361 17.7492 18.8319 17.7236 18.8204 17.7014C18.7076 17.5459 18.5678 17.4153 18.4094 17.3173C18.3694 17.2943 18.3284 17.2735 18.2865 17.2551L18.2801 17.1127C18.2748 16.9913 18.059 17.1677 18.045 17.0531C18.042 16.9094 18.0274 16.7659 18.0013 16.6243C18.0005 16.613 17.9987 16.6017 17.9957 16.5907C17.974 16.4587 17.9531 16.3319 17.8267 16.3527C17.7004 16.3736 17.5408 16.4451 17.4389 16.3768C17.337 16.3085 17.3519 16.1758 17.2867 16.1068C17.2214 16.0378 17.2149 16.0575 17.1455 16.0823C17.1169 16.087 17.0862 16.1239 17.0609 16.1334C16.9857 16.1661 16.9041 16.1796 16.8225 16.1727C16.7809 16.0963 16.7329 16.0242 16.6792 15.9571C16.6267 15.8913 16.566 15.8349 16.5135 15.7691C16.4365 15.6765 16.3317 15.6163 16.2187 15.5997C16.1335 15.6013 16.0524 15.6353 15.9897 15.696C15.9428 15.6938 15.8962 15.6854 15.8509 15.671C15.7742 15.6375 15.7039 15.5886 15.6435 15.5271L15.6396 15.5038C15.6235 15.4048 15.5912 15.3093 15.5442 15.2218C15.5095 15.1597 15.4655 15.1041 15.4142 15.0572C15.4178 15.0262 15.4153 14.9946 15.4069 14.9644C15.3986 14.9342 15.3845 14.9061 15.3657 14.8818C15.2197 14.6965 15.0541 14.5301 14.8726 14.3862C14.7863 14.2489 14.6918 14.121 14.5996 13.9926C14.5127 13.8679 14.4172 13.7503 14.3139 13.641C14.2696 13.5949 14.2202 13.5548 14.1669 13.5217C14.113 13.4901 14.0556 13.4665 13.9962 13.4515C13.9452 13.4529 13.8947 13.4613 13.846 13.4762C13.7967 13.489 13.7498 13.5102 13.707 13.539C13.6719 13.5336 13.6372 13.526 13.6028 13.5163L13.56 13.4941L13.4999 13.4562C13.4438 13.4208 13.3862 13.3886 13.3272 13.3597L13.1006 13.203C13.0284 13.1512 12.9546 13.1048 12.8785 13.0589L12.7024 12.8965C12.5306 12.7308 12.3568 12.5681 12.1748 12.4147C11.9928 12.2613 11.8328 12.1521 11.6579 12.0267L11.3802 11.828L11.3586 12.4695L11.6152 12.273C11.7758 12.1482 11.9324 12.0134 12.099 11.8955C12.1935 11.8295 12.281 11.7512 12.3782 11.6874L12.4205 11.6618C12.4365 11.6538 12.4512 11.6433 12.4643 11.6306C12.4827 11.6215 12.4989 11.608 12.5118 11.5912C12.5247 11.5744 12.5339 11.5546 12.5389 11.5333C12.5399 11.461 12.5221 11.3894 12.4876 11.3264C12.3978 11.1525 12.2597 11.0876 12.2039 11.1207Z" fill="#128081"/>
<path d="M29.5902 0.676749C29.5559 0.673532 29.5214 0.672158 29.4869 0.672633C29.4425 0.679954 29.4092 0.685445 29.3842 0.689564C29.2663 0.699809 29.1493 0.719093 29.0344 0.74722C28.9195 0.783405 28.8025 0.813277 28.6841 0.836678C28.5626 0.851616 28.4402 0.85587 28.3184 0.849381C28.2012 0.847553 28.0835 0.843151 27.9678 0.833143L27.6986 0.808782L27.7843 1.10397C27.8178 1.21777 27.8418 1.33403 27.8559 1.45171C27.8724 1.56745 27.8989 1.68155 27.935 1.79294C27.964 1.90383 28.0056 2.01128 28.0591 2.11352C28.1305 2.25244 28.2038 2.38576 28.2617 2.52955L28.3343 2.71058L28.3517 2.97207L28.3581 3.01068L28.3666 3.06215L28.3819 3.15481C28.3988 3.25776 28.388 3.36529 28.3883 3.47099C28.3887 3.57669 28.3889 3.71676 28.3756 3.84321C28.3622 3.96967 28.2514 4.12805 28.2483 4.24753C28.2408 4.39667 28.2586 4.54541 28.301 4.68828C28.3146 4.77064 28.3536 4.85145 28.3878 4.93833L28.4223 5.00931C28.4945 5.13877 28.587 5.25714 28.697 5.3606C28.8672 5.52818 29.1173 5.66144 29.2981 5.82462C29.398 5.91127 29.4875 6.0049 29.579 6.09292C29.6069 6.15223 29.6267 6.21465 29.6382 6.27881C29.6369 6.35128 29.6278 6.42363 29.6111 6.49478C29.588 6.571 29.5808 6.65027 29.5897 6.7283C29.6221 6.83634 29.6794 6.93602 29.7576 7.02052C29.8233 7.10751 29.8838 7.19799 29.9518 7.28195L29.999 7.34292L29.9936 7.39668C29.9877 7.44787 29.987 7.49558 29.9864 7.54328C29.9585 7.63872 29.9245 7.73262 29.8844 7.82445C29.8335 7.93066 29.8285 7.987 29.9196 8.03807C30.2542 8.1997 30.1585 8.50101 30.3216 8.74643C30.4538 8.98795 30.6344 9.20303 30.8538 9.38044L31.0034 9.47475C31.0694 9.60239 31.155 9.72005 31.2577 9.8241C31.4679 9.9895 31.6377 10.1947 31.7562 10.4266V10.4266C31.7677 10.4961 31.7791 10.5656 31.7902 10.6325L31.7751 10.7143C31.7597 10.8515 31.7633 10.9895 31.7858 11.125C31.8019 11.4131 31.8181 11.7013 31.8583 11.9802C31.869 12.0549 31.8897 12.1279 31.9198 12.1974C32.0006 12.3612 32.1025 12.5148 32.2233 12.655C32.3091 12.7598 32.4082 12.8598 32.4912 12.9651C32.5645 13.1091 32.6681 13.2376 32.7959 13.3431C32.859 13.3803 32.9412 13.4117 33.0071 13.4484C33.0723 13.485 33.1337 13.5271 33.1904 13.5742C33.2958 13.6683 33.3958 13.7674 33.4903 13.8711C33.5818 13.9591 33.6756 14.0441 33.7588 14.1335C33.9069 14.3097 34.029 14.5037 34.122 14.7108C34.1631 14.8045 34.1833 14.9095 34.2169 15.0097C34.2586 15.1269 34.2881 15.2477 34.3049 15.3706C34.3326 15.5154 34.3901 15.6531 34.4744 15.7763C34.4744 15.7763 34.5488 15.9332 34.5967 16.0337C34.6011 16.0521 34.6088 16.0696 34.6195 16.0855C34.6273 16.1064 34.6398 16.1255 34.6562 16.1415C34.6726 16.1574 34.6925 16.1699 34.7146 16.1782C34.7913 16.1866 34.8696 16.1737 34.9395 16.1411C35.1375 16.0794 35.2258 15.9406 35.2009 15.8759C35.1971 15.8528 35.1895 15.8064 35.1686 15.7835C35.0977 15.6629 35.0066 15.5539 34.8986 15.4605C34.8169 15.3584 34.7521 15.2452 34.7064 15.1247C34.6617 14.9904 34.6086 14.8588 34.5473 14.7306C34.5185 14.6771 34.4842 14.6246 34.4582 14.5708C34.4295 14.5088 34.4074 14.4443 34.3922 14.3781C34.3554 14.2418 34.3269 14.1035 34.3069 13.9639C34.2987 13.7934 34.3045 13.6206 34.297 13.4367C34.2849 13.2489 34.2618 13.0621 34.2275 12.8771C34.2262 12.8253 34.23 12.7733 34.239 12.7219C34.2538 12.6492 34.2645 12.576 34.2713 12.5025C34.2815 12.3483 34.2562 12.1947 34.197 12.052C34.0963 11.8043 34.1733 11.4928 34.1027 11.2375C34.0934 11.1808 34.084 11.1242 34.0557 11.0734C34.0253 11.0058 33.9861 10.9421 33.9389 10.8838C33.8378 10.755 33.5449 10.7081 33.4174 10.5917C33.2898 10.4752 33.2335 10.4105 33.1467 10.3164C33.0599 10.2223 32.9505 10.1637 32.863 10.0829C32.7756 10.0022 32.7822 9.99052 32.7376 9.94499C32.6931 9.89946 32.6963 9.83283 32.6731 9.77849C32.6721 9.76722 32.6703 9.75603 32.6676 9.74503C32.6832 9.72306 32.6891 9.69645 32.6839 9.67096C32.6528 9.49505 32.5873 9.32667 32.4908 9.17405C32.4641 9.1335 32.4324 9.09644 32.4002 9.0568L32.4731 8.92846C32.5324 8.82087 32.2206 8.86698 32.266 8.76168C32.3418 8.63467 32.4058 8.50205 32.4573 8.36531C32.4552 8.35244 32.4535 8.34215 32.4518 8.33186C32.5085 8.20883 32.5351 8.09341 32.4034 8.03844C32.2717 7.98348 32.0651 7.97525 31.9984 7.86463C31.9316 7.75402 32.0219 7.64397 31.9951 7.55057C31.9866 7.4991 31.9482 7.4737 31.863 7.45866C31.8325 7.4637 31.7825 7.47193 31.7494 7.46152C31.6541 7.45492 31.562 7.42855 31.48 7.38431C31.4812 7.29679 31.4725 7.20961 31.4543 7.12419C31.4403 7.03925 31.4045 6.96055 31.3869 6.87093C31.3621 6.75115 31.2886 6.64592 31.1816 6.57694C31.0937 6.53119 30.9898 6.51814 30.8904 6.54035C30.8441 6.51563 30.8018 6.48529 30.7643 6.45009C30.7039 6.38307 30.659 6.30503 30.6324 6.22068L30.6285 6.19752C30.6654 6.10365 30.6839 6.00478 30.6831 5.90565C30.6841 5.83372 30.6724 5.7624 30.6483 5.6946C30.669 5.6695 30.6839 5.64079 30.6922 5.6103C30.7004 5.57981 30.7017 5.54821 30.6961 5.51752C30.6486 5.28334 30.5727 5.05551 30.4701 4.83833C30.4573 4.67389 30.4314 4.51689 30.4078 4.35686C30.388 4.20471 30.3557 4.05449 30.311 3.90753C30.2911 3.84555 30.2631 3.78624 30.2277 3.73092C30.1903 3.67612 30.1447 3.62668 30.0923 3.58404C30.0429 3.55533 29.9884 3.53481 29.9311 3.52336C29.8739 3.50803 29.8141 3.5018 29.7541 3.50494C29.7215 3.48325 29.6908 3.45913 29.6624 3.43282L29.6302 3.39319L29.5914 3.33084C29.5531 3.27107 29.5123 3.21434 29.4688 3.15806C29.4253 3.10178 29.3729 2.99145 29.3265 2.91715C29.28 2.84286 29.2314 2.75569 29.1813 2.6767C29.1312 2.59772 29.1194 2.52565 29.0923 2.44815C29.0085 2.21611 28.9195 1.98756 28.8198 1.76342C28.7201 1.53927 28.6165 1.3607 28.51 1.16412L28.3359 0.851785L27.9642 1.39949L28.3308 1.35756C28.5613 1.31958 28.7945 1.28114 29.0268 1.27193C29.16 1.24997 29.2905 1.22846 29.4252 1.23269L29.4807 1.22354C29.5005 1.22315 29.5202 1.21991 29.539 1.21393C29.5634 1.2149 29.5878 1.21086 29.6105 1.20209C29.6332 1.19332 29.6536 1.18004 29.6704 1.16319C29.711 1.10188 29.732 1.03141 29.731 0.960209C29.7658 0.790567 29.6624 0.664852 29.5902 0.676749Z" fill="#128081"/>
</svg>
