<svg width="15" height="15" viewBox="0 0 15 15" fill="none" xmlns="http://www.w3.org/2000/svg">
<g clip-path="url(#clip0_2278_479)">
<path d="M0 15H15V0H0V15Z" fill="#B31E30"/>
<path d="M5.40633 4.72148V5.45858H5.57491C5.78767 5.45858 5.88416 5.3551 5.88416 5.06561V5.02027H6.1318V6.16428H5.88416V6.11545C5.88416 5.82829 5.78767 5.719 5.57491 5.719H5.40633V6.54329H6.1132C6.43524 6.54329 6.5515 6.33053 6.58987 5.92362H6.8468V6.80604H4.52507V6.54329H4.72155C4.84363 6.54329 4.90873 6.50958 4.90873 6.29682V4.92145C4.90873 4.76799 4.83898 4.72148 4.67505 4.72148H4.60297C4.43439 4.72148 4.35417 4.76101 4.29488 4.93656L3.65428 6.80604H3.16714L2.79627 5.58763H2.78931L2.37774 6.80604H1.88479L1.21978 4.84704C1.1907 4.75055 1.14072 4.72148 1.00586 4.72148H0.957031V4.45989H1.98245V4.72148H1.83364C1.75574 4.72148 1.72435 4.76799 1.72435 4.81449C1.72435 4.84937 1.73715 4.89355 1.75574 4.94238L2.19986 6.25148H2.20683L2.63002 5.02027L2.57072 4.85286C2.53468 4.74822 2.46377 4.72148 2.36029 4.72148H2.27658V4.45989H3.33572V4.72148H3.14854C3.07646 4.72148 3.04856 4.75287 3.04856 4.79938C3.04856 4.83542 3.066 4.88541 3.07764 4.91912L3.46595 6.22822H3.47291L3.924 4.94935C3.93796 4.9075 3.95073 4.87262 3.95073 4.82844C3.95073 4.77264 3.924 4.72148 3.79959 4.72148H3.62869V4.45989H6.84679V5.26209H6.58288C6.5294 4.92261 6.49917 4.72148 6.02832 4.72148H5.40633ZM9.26271 6.80604V5.92362H8.99182C8.95578 6.32705 8.88253 6.54329 8.51515 6.54329H7.98151V4.88425C7.98151 4.75403 8.03499 4.72148 8.19078 4.72148H8.38959V4.45989H7.09328V4.72148H7.2979C7.43974 4.72148 7.4874 4.76799 7.4874 4.87495V6.38634C7.4874 6.50958 7.41997 6.54329 7.31999 6.54329H7.09328V6.80604H9.26271ZM11.6705 6.80604V5.92362H11.3984C11.3624 6.32705 11.2868 6.54329 10.9241 6.54329H10.3893V4.88425C10.3893 4.75403 10.4428 4.72148 10.5985 4.72148H10.7962V4.45989H9.49872V4.72148H9.7045C9.8475 4.72148 9.89517 4.76799 9.89517 4.87495V6.38634C9.89517 6.50958 9.82658 6.54329 9.72775 6.54329H9.49872V6.80604H11.6705ZM13.4562 4.63661C13.4342 4.61452 13.2179 4.39014 12.7959 4.39014C12.3529 4.39014 11.9053 4.61452 11.9053 5.09584C11.9053 5.53182 12.2529 5.73063 12.6529 5.81666C12.7854 5.84456 12.8645 5.85968 12.9854 5.88525C13.2853 5.9492 13.4853 6.03988 13.4853 6.24799C13.4853 6.4061 13.3179 6.57584 12.9865 6.57584C12.5238 6.57584 12.2495 6.31774 12.1925 5.92362H11.9204V6.80604H12.1611L12.239 6.59561C12.296 6.6456 12.5215 6.8758 12.9505 6.8758C13.4969 6.8758 13.9097 6.63281 13.9097 6.15265C13.9097 5.68761 13.5248 5.48764 13.0551 5.39347C12.9714 5.37254 12.8947 5.35975 12.8087 5.33999C12.5169 5.27721 12.3297 5.20513 12.3297 4.99586C12.3297 4.81449 12.5215 4.69009 12.8098 4.69009C13.2435 4.69009 13.4109 4.96563 13.5004 5.26209H13.7643V4.45989H13.5737L13.4562 4.63661ZM2.68815 10.4636V10.1997H2.51143C2.3475 10.1997 2.28705 10.1509 2.28705 10.0183V9.3789H2.43237C2.65211 9.3789 2.74744 9.47423 2.74744 9.72303V9.80093H2.99392V8.72086H2.74744V8.76736C2.74744 8.94989 2.68117 9.11731 2.4533 9.11731H2.28705V8.37789H2.7486C3.26829 8.37789 3.32293 8.63948 3.35781 8.91734H3.61126V8.1163H1.39068V8.37789H1.62552C1.73132 8.37789 1.79061 8.42556 1.79061 8.51043V10.0265C1.79061 10.1253 1.73713 10.1997 1.61157 10.1997H1.39068V10.4636H2.68815ZM12.5134 8.04538C11.7437 8.04538 11.2345 8.58367 11.2345 9.28938C11.2345 9.99392 11.7437 10.5369 12.5134 10.5369C13.2807 10.5369 13.7911 9.99392 13.7911 9.28938C13.7911 8.58367 13.2807 8.04538 12.5134 8.04538ZM12.5134 8.32208C13.0691 8.32208 13.2353 8.78364 13.2353 9.28938C13.2353 9.79511 13.0691 10.2578 12.5134 10.2578C11.9541 10.2578 11.7891 9.79511 11.7891 9.28938C11.7891 8.78364 11.9541 8.32208 12.5134 8.32208ZM10.3486 8.30813C10.2974 8.26279 10.0777 8.04539 9.64405 8.04539C8.94997 8.04539 8.51399 8.57437 8.51399 9.28938C8.51399 10.0102 8.95694 10.5369 9.64405 10.5369C10.0858 10.5369 10.3253 10.3346 10.38 10.2846L10.5114 10.4636H10.752V9.64979C10.752 9.51144 10.8032 9.47423 10.9404 9.47423H11.0055V9.21148H9.92191V9.47423H10.0823C10.1986 9.47423 10.2695 9.52655 10.2695 9.64049V9.77767C10.2695 10.0462 10.1044 10.2334 9.74519 10.2334C9.29526 10.2334 9.06972 9.82883 9.06972 9.28938C9.06972 8.75807 9.29526 8.35115 9.73124 8.35115C10.1858 8.35115 10.3404 8.77434 10.3928 8.91734H10.6834V8.1163H10.4358L10.3486 8.30813ZM8.39656 9.91254V9.97648C8.39656 10.3811 8.20357 10.5369 7.91059 10.5369C7.56762 10.5369 7.45252 10.3718 7.45252 10.0521V9.92998C7.45252 9.52655 7.28046 9.36378 6.8875 9.36378H6.70148V10.073C6.70148 10.1671 6.74449 10.1997 6.8468 10.1997H7.10491V10.4636H4.76108V10.1997H5.02151C5.09359 10.1997 5.12033 10.1823 5.12033 10.1404C5.12033 10.1183 5.11336 10.0823 5.09941 10.0439C5.08661 10.0125 4.97617 9.71024 4.97617 9.71024H4.13909C4.13909 9.71024 4.03562 9.98927 4.01818 10.0358C4.00654 10.0707 3.99726 10.0997 3.99726 10.1334C3.99726 10.1834 4.03911 10.1997 4.10887 10.1997H4.35767V10.4636H3.25319V10.1997C3.44037 10.1997 3.55895 10.173 3.62522 10.009L4.37394 8.1163H4.82387L5.59119 10.009C5.65514 10.1753 5.77605 10.1997 5.96323 10.1997H6.05856C6.15971 10.1997 6.20505 10.1671 6.20505 10.073V8.50578C6.20505 8.41161 6.16901 8.37789 6.05856 8.37789H5.81209V8.1163H7.35371C7.86526 8.1163 8.10592 8.35813 8.10592 8.72435C8.10592 9.17893 7.65367 9.26845 7.44207 9.28008V9.28589C7.68971 9.30449 7.89897 9.4068 7.89897 9.76837V9.90556C7.89897 10.1462 7.95013 10.1997 8.035 10.1997C8.11871 10.1997 8.16289 10.1334 8.16289 9.97648V9.91254H8.39656ZM4.87967 9.44982L4.56344 8.5953H4.55299L4.23676 9.44982H4.87967ZM7.61297 8.73946C7.61297 8.53368 7.46531 8.37789 7.13746 8.37789H6.70148V9.1022H7.13746C7.43974 9.1022 7.61297 8.96617 7.61297 8.73946Z" fill="#FFCC02"/>
</g>
<defs>
<clipPath id="clip0_2278_479">
<rect width="15" height="15" fill="white"/>
</clipPath>
</defs>
</svg>
