<svg width="24" height="24" viewBox="0 0 24 24" fill="none" xmlns="http://www.w3.org/2000/svg">
<path d="M0.5 7.56364C0.5 6.23163 0.500389 5.26269 0.562745 4.49949C0.624624 3.74213 0.745025 3.23151 0.960745 2.80813C1.36603 2.01272 2.01272 1.36603 2.80813 0.960745C3.23151 0.745025 3.74213 0.624624 4.49949 0.562745C5.26269 0.500389 6.23163 0.5 7.56364 0.5H16.4364C17.7684 0.5 18.7373 0.500389 19.5005 0.562745C20.2579 0.624624 20.7685 0.745025 21.1919 0.960745C21.9873 1.36603 22.634 2.01272 23.0393 2.80813C23.255 3.23151 23.3754 3.74213 23.4373 4.49949C23.4996 5.26269 23.5 6.23163 23.5 7.56364V16.4364C23.5 17.7684 23.4996 18.7373 23.4373 19.5005C23.3754 20.2579 23.255 20.7685 23.0393 21.1919C22.634 21.9873 21.9873 22.634 21.1919 23.0393C20.7685 23.255 20.2579 23.3754 19.5005 23.4373C18.7373 23.4996 17.7684 23.5 16.4364 23.5H7.56364C6.23163 23.5 5.26269 23.4996 4.49949 23.4373C3.74213 23.3754 3.23151 23.255 2.80813 23.0393C2.01272 22.634 1.36603 21.9873 0.960745 21.1919C0.745025 20.7685 0.624624 20.2579 0.562745 19.5005C0.500389 18.7373 0.5 17.7684 0.5 16.4364V7.56364Z" fill="#EAF6F6"/>
<path d="M0.5 7.56364C0.5 6.23163 0.500389 5.26269 0.562745 4.49949C0.624624 3.74213 0.745025 3.23151 0.960745 2.80813C1.36603 2.01272 2.01272 1.36603 2.80813 0.960745C3.23151 0.745025 3.74213 0.624624 4.49949 0.562745C5.26269 0.500389 6.23163 0.5 7.56364 0.5H16.4364C17.7684 0.5 18.7373 0.500389 19.5005 0.562745C20.2579 0.624624 20.7685 0.745025 21.1919 0.960745C21.9873 1.36603 22.634 2.01272 23.0393 2.80813C23.255 3.23151 23.3754 3.74213 23.4373 4.49949C23.4996 5.26269 23.5 6.23163 23.5 7.56364V16.4364C23.5 17.7684 23.4996 18.7373 23.4373 19.5005C23.3754 20.2579 23.255 20.7685 23.0393 21.1919C22.634 21.9873 21.9873 22.634 21.1919 23.0393C20.7685 23.255 20.2579 23.3754 19.5005 23.4373C18.7373 23.4996 17.7684 23.5 16.4364 23.5H7.56364C6.23163 23.5 5.26269 23.4996 4.49949 23.4373C3.74213 23.3754 3.23151 23.255 2.80813 23.0393C2.01272 22.634 1.36603 21.9873 0.960745 21.1919C0.745025 20.7685 0.624624 20.2579 0.562745 19.5005C0.500389 18.7373 0.5 17.7684 0.5 16.4364V7.56364Z" stroke="#C1E5E6"/>
<g clip-path="url(#clip0_261_3763)">
<path d="M17.3929 15.1331L16.2329 15.6131C15.9529 15.7264 15.7263 15.9464 15.6129 16.2264L15.1196 17.3797C15.0796 17.4597 14.9796 17.4997 14.8996 17.4664C14.8529 17.4464 14.8129 17.4064 14.7996 17.3597L13.8129 14.0264C13.7863 13.9331 13.8329 13.8397 13.9196 13.8131C13.9463 13.7997 13.9796 13.7997 14.0129 13.8064L17.3396 14.7864C17.4263 14.8064 17.4729 14.8997 17.4463 14.9931C17.4263 15.0397 17.3929 15.0797 17.3463 15.0931L17.3929 15.1331ZM17.7796 16.0531C18.0996 15.9131 18.3463 15.6397 18.4463 15.3064C18.6263 14.6864 18.2729 14.0331 17.6529 13.8531L14.3196 12.8664C14.0996 12.7997 13.8729 12.7997 13.6596 12.8664C13.0396 13.0464 12.6863 13.6931 12.8663 14.3131L13.8463 17.6397C13.9396 17.9731 14.1863 18.2464 14.5129 18.3797C15.1063 18.6264 15.7863 18.3464 16.0396 17.7531L16.5263 16.5931C16.5396 16.5531 16.5663 16.5197 16.6063 16.5064L17.7596 16.0197L17.7796 16.0531Z" fill="#128081"/>
<path d="M18.5 12C18.5 8.40667 15.5867 5.5 12 5.5C8.40667 5.5 5.5 8.40667 5.5 12C5.5 15.5867 8.40667 18.5 12 18.5C12.2733 18.5 12.5 18.2733 12.5 18C12.5 17.72 12.2733 17.5 12 17.5C8.96 17.5 6.5 15.0333 6.5 12C6.5 8.96 8.96 6.5 12 6.5C15.0333 6.5 17.5 8.96 17.5 12C17.5 12.2733 17.72 12.5 18 12.5C18.2733 12.5 18.5 12.2733 18.5 12Z" fill="#128081"/>
<path d="M9.33333 12.667H10.6667C10.5733 12.667 10.5 12.587 10.5 12.5003V14.667L11 14.167H9.33333C9.42 14.167 9.5 14.2403 9.5 14.3337V12.5003C9.5 12.587 9.42 12.667 9.33333 12.667ZM9.33333 11.667C8.86667 11.667 8.5 12.0337 8.5 12.5003V14.3337C8.5 14.7937 8.86667 15.167 9.33333 15.167H11C11.2733 15.167 11.5 14.9403 11.5 14.667V12.5003C11.5 12.0337 11.1267 11.667 10.6667 11.667H9.33333Z" fill="#128081"/>
<path d="M12 14.167H11C10.72 14.167 10.5 14.387 10.5 14.667C10.5 14.9403 10.72 15.167 11 15.167H12C12.2733 15.167 12.5 14.9403 12.5 14.667C12.5 14.387 12.2733 14.167 12 14.167Z" fill="#128081"/>
<path d="M13 11.333H14.6667C14.5733 11.333 14.5 11.253 14.5 11.1663V11.9997C14.5 12.273 14.72 12.4997 15 12.4997C15.2733 12.4997 15.5 12.273 15.5 11.9997V11.1663C15.5 10.6997 15.1267 10.333 14.6667 10.333H13C12.72 10.333 12.5 10.553 12.5 10.833C12.5 11.1063 12.72 11.333 13 11.333Z" fill="#128081"/>
<path d="M13.5 11.9997V9.66634C13.5 9.19967 13.1267 8.83301 12.6667 8.83301H11.3333C10.8667 8.83301 10.5 9.19967 10.5 9.66634V14.6663C10.5 14.9397 10.72 15.1663 11 15.1663C11.2733 15.1663 11.5 14.9397 11.5 14.6663V9.66634C11.5 9.75301 11.42 9.83301 11.3333 9.83301H12.6667C12.5733 9.83301 12.5 9.75301 12.5 9.66634V11.9997C12.5 12.273 12.72 12.4997 13 12.4997C13.2733 12.4997 13.5 12.273 13.5 11.9997Z" fill="#128081"/>
</g>
<defs>
<clipPath id="clip0_261_3763">
<rect width="16" height="16" fill="white" transform="translate(4 4)"/>
</clipPath>
</defs>
</svg>
