<svg xmlns="http://www.w3.org/2000/svg" width="344" height="147" fill="none" viewBox="0 0 344 147"><g clip-path="url(#clip0_43_301)"><g clip-path="url(#clip1_43_301)"><g filter="url(#filter0_i_43_301)"><path fill="#4d84f0" fill-opacity=".01" d="M344.054 162.074v-13.962c-82.005 0-203.268 0-269.081-2.766-40.1-1.685-65.328-26.789-81.29-40.548H-198.48v57.276z"/></g><path stroke="#4d84f0" stroke-dasharray="3.15 3.15" stroke-linecap="round" stroke-width=".5" d="M344.054 162.074v-13.962c-82.005 0-203.268 0-269.081-2.766-40.1-1.685-65.328-26.789-81.29-40.548H-198.48v57.276z"/></g><g clip-path="url(#clip2_43_301)"><g opacity=".8"><g filter="url(#filter1_i_43_301)"><path fill="#f04578" fill-opacity=".01" d="M-237.227 188.064v-63.04c65.7-4.45 122.579 15.937 179.143 10.476C76.73 122.485 120.246 10.614 180.439 6.26c43.943-3.178 80.091 33.12 95.991 47.253C356.293 124.5 539.045 118 539.045 118l5.733 70.064z"/></g><path stroke="#f04578" stroke-width=".5" d="M-237.227 188.064v-63.04c65.7-4.45 122.579 15.937 179.143 10.476C76.73 122.485 120.246 10.614 180.439 6.26c43.943-3.178 80.091 33.12 95.991 47.253C356.293 124.5 539.045 118 539.045 118l5.733 70.064z"/></g><g opacity=".8"><g filter="url(#filter2_i_43_301)"><path fill="#009396" fill-opacity=".01" d="M-236.585 188v-58.901c88.177 0 108.478 19.237 165.042 14.401C63.271 131.975 126.311 27 181.081 27c33.478 0 60.395 20.586 86.61 43.36 70.51 61.251 268.348 50.673 268.348 50.673L545.42 188z"/></g><path stroke="#009396" stroke-width=".5" d="M-236.585 188v-58.901c88.177 0 108.478 19.237 165.042 14.401C63.271 131.975 126.311 27 181.081 27c33.478 0 60.395 20.586 86.61 43.36 70.51 61.251 268.348 50.673 268.348 50.673L545.42 188z"/></g><g opacity=".8"><g filter="url(#filter3_i_43_301)"><path fill="#4d84f0" fill-opacity=".01" d="M-225.252 150v-24.58c88.177 0 107.77 16.433 164.334 13.58 134.814-6.801 198.563-84 253.333-84 39.426 0 64.657 18.2 86.61 30.338C395.96 150 547.372 110.485 547.372 110.485L556.753 150z"/></g><path stroke="#4d84f0" stroke-width=".5" d="M-225.252 150v-24.58c88.177 0 107.77 16.433 164.334 13.58 134.814-6.801 198.563-84 253.333-84 39.426 0 64.657 18.2 86.61 30.338C395.96 150 547.372 110.485 547.372 110.485L556.753 150z"/></g><g opacity=".8"><g filter="url(#filter4_i_43_301)"><path fill="#e08700" fill-opacity=".01" d="M-237.227 170.064v-50.388c120.128 0 170.243 1.705 251.945-6.52 126.827-12.768 257.505-86.092 328.825-86.092h213.985v143z"/></g><path stroke="#e08700" stroke-dasharray="2 2" stroke-width=".5" d="M-237.227 170.064v-50.388c120.128 0 170.243 1.705 251.945-6.52 126.827-12.768 257.505-86.092 328.825-86.092h213.985v143z"/></g></g><path stroke="#667e85" stroke-linecap="round" stroke-width="1.029" d="M.515 37.735h342.97M.515 63.235h342.97M.515 88.735h342.97m-342.97 25.5h342.97" opacity=".1"/><path stroke="#667e85" stroke-linecap="round" stroke-width="1.029" d="M.515 139.735h342.97" opacity=".2"/></g><defs><filter id="filter0_i_43_301" width="543.034" height="57.776" x="-198.73" y="104.548" color-interpolation-filters="sRGB" filterUnits="userSpaceOnUse"><feFlood flood-opacity="0" result="BackgroundImageFix"/><feBlend in="SourceGraphic" in2="BackgroundImageFix" result="shape"/><feColorMatrix in="SourceAlpha" result="hardAlpha" values="0 0 0 0 0 0 0 0 0 0 0 0 0 0 0 0 0 0 127 0"/><feOffset/><feGaussianBlur stdDeviation="13.636"/><feComposite in2="hardAlpha" k2="-1" k3="1" operator="arithmetic"/><feColorMatrix values="0 0 0 0 0.301961 0 0 0 0 0.517647 0 0 0 0 0.941176 0 0 0 0.1 0"/><feBlend in2="shape" result="effect1_innerShadow_43_301"/></filter><filter id="filter1_i_43_301" width="782.526" height="182.5" x="-237.477" y="5.815" color-interpolation-filters="sRGB" filterUnits="userSpaceOnUse"><feFlood flood-opacity="0" result="BackgroundImageFix"/><feBlend in="SourceGraphic" in2="BackgroundImageFix" result="shape"/><feColorMatrix in="SourceAlpha" result="hardAlpha" values="0 0 0 0 0 0 0 0 0 0 0 0 0 0 0 0 0 0 127 0"/><feOffset/><feGaussianBlur stdDeviation="15"/><feComposite in2="hardAlpha" k2="-1" k3="1" operator="arithmetic"/><feColorMatrix values="0 0 0 0 0.941176 0 0 0 0 0.270588 0 0 0 0 0.470588 0 0 0 0.2 0"/><feBlend in2="shape" result="effect1_innerShadow_43_301"/></filter><filter id="filter2_i_43_301" width="782.543" height="161.5" x="-236.835" y="26.75" color-interpolation-filters="sRGB" filterUnits="userSpaceOnUse"><feFlood flood-opacity="0" result="BackgroundImageFix"/><feBlend in="SourceGraphic" in2="BackgroundImageFix" result="shape"/><feColorMatrix in="SourceAlpha" result="hardAlpha" values="0 0 0 0 0 0 0 0 0 0 0 0 0 0 0 0 0 0 127 0"/><feOffset/><feGaussianBlur stdDeviation="15"/><feComposite in2="hardAlpha" k2="-1" k3="1" operator="arithmetic"/><feColorMatrix values="0 0 0 0 0 0 0 0 0 0.576471 0 0 0 0 0.588235 0 0 0 0.2 0"/><feBlend in2="shape" result="effect1_innerShadow_43_301"/></filter><filter id="filter3_i_43_301" width="782.571" height="95.5" x="-225.502" y="54.75" color-interpolation-filters="sRGB" filterUnits="userSpaceOnUse"><feFlood flood-opacity="0" result="BackgroundImageFix"/><feBlend in="SourceGraphic" in2="BackgroundImageFix" result="shape"/><feColorMatrix in="SourceAlpha" result="hardAlpha" values="0 0 0 0 0 0 0 0 0 0 0 0 0 0 0 0 0 0 127 0"/><feOffset/><feGaussianBlur stdDeviation="15"/><feComposite in2="hardAlpha" k2="-1" k3="1" operator="arithmetic"/><feColorMatrix values="0 0 0 0 0.301961 0 0 0 0 0.517647 0 0 0 0 0.941176 0 0 0 0.1 0"/><feBlend in2="shape" result="effect1_innerShadow_43_301"/></filter><filter id="filter4_i_43_301" width="795.255" height="143.5" x="-237.477" y="26.814" color-interpolation-filters="sRGB" filterUnits="userSpaceOnUse"><feFlood flood-opacity="0" result="BackgroundImageFix"/><feBlend in="SourceGraphic" in2="BackgroundImageFix" result="shape"/><feColorMatrix in="SourceAlpha" result="hardAlpha" values="0 0 0 0 0 0 0 0 0 0 0 0 0 0 0 0 0 0 127 0"/><feOffset/><feGaussianBlur stdDeviation="15"/><feComposite in2="hardAlpha" k2="-1" k3="1" operator="arithmetic"/><feColorMatrix values="0 0 0 0 0.878431 0 0 0 0 0.529412 0 0 0 0 0 0 0 0 0.1 0"/><feBlend in2="shape" result="effect1_innerShadow_43_301"/></filter><clipPath id="clip0_43_301"><path fill="#fff" d="M0 0h344v153H0z"/></clipPath><clipPath id="clip1_43_301"><path fill="#fff" d="M.658 3.75h343.395v145.941H.658z"/></clipPath><clipPath id="clip2_43_301"><path fill="#fff" d="M344.052 3.75H.657v145.941h343.395z"/></clipPath></defs></svg>