<svg width="24" height="24" viewBox="0 0 24 24" fill="none" xmlns="http://www.w3.org/2000/svg">
<path d="M0.5 7.56364C0.5 6.23163 0.500389 5.26269 0.562745 4.49949C0.624624 3.74213 0.745025 3.23151 0.960745 2.80813C1.36603 2.01272 2.01272 1.36603 2.80813 0.960745C3.23151 0.745025 3.74213 0.624624 4.49949 0.562745C5.26269 0.500389 6.23163 0.5 7.56364 0.5H16.4364C17.7684 0.5 18.7373 0.500389 19.5005 0.562745C20.2579 0.624624 20.7685 0.745025 21.1919 0.960745C21.9873 1.36603 22.634 2.01272 23.0393 2.80813C23.255 3.23151 23.3754 3.74213 23.4373 4.49949C23.4996 5.26269 23.5 6.23163 23.5 7.56364V16.4364C23.5 17.7684 23.4996 18.7373 23.4373 19.5005C23.3754 20.2579 23.255 20.7685 23.0393 21.1919C22.634 21.9873 21.9873 22.634 21.1919 23.0393C20.7685 23.255 20.2579 23.3754 19.5005 23.4373C18.7373 23.4996 17.7684 23.5 16.4364 23.5H7.56364C6.23163 23.5 5.26269 23.4996 4.49949 23.4373C3.74213 23.3754 3.23151 23.255 2.80813 23.0393C2.01272 22.634 1.36603 21.9873 0.960745 21.1919C0.745025 20.7685 0.624624 20.2579 0.562745 19.5005C0.500389 18.7373 0.5 17.7684 0.5 16.4364V7.56364Z" fill="#EAF6F6"/>
<path d="M0.5 7.56364C0.5 6.23163 0.500389 5.26269 0.562745 4.49949C0.624624 3.74213 0.745025 3.23151 0.960745 2.80813C1.36603 2.01272 2.01272 1.36603 2.80813 0.960745C3.23151 0.745025 3.74213 0.624624 4.49949 0.562745C5.26269 0.500389 6.23163 0.5 7.56364 0.5H16.4364C17.7684 0.5 18.7373 0.500389 19.5005 0.562745C20.2579 0.624624 20.7685 0.745025 21.1919 0.960745C21.9873 1.36603 22.634 2.01272 23.0393 2.80813C23.255 3.23151 23.3754 3.74213 23.4373 4.49949C23.4996 5.26269 23.5 6.23163 23.5 7.56364V16.4364C23.5 17.7684 23.4996 18.7373 23.4373 19.5005C23.3754 20.2579 23.255 20.7685 23.0393 21.1919C22.634 21.9873 21.9873 22.634 21.1919 23.0393C20.7685 23.255 20.2579 23.3754 19.5005 23.4373C18.7373 23.4996 17.7684 23.5 16.4364 23.5H7.56364C6.23163 23.5 5.26269 23.4996 4.49949 23.4373C3.74213 23.3754 3.23151 23.255 2.80813 23.0393C2.01272 22.634 1.36603 21.9873 0.960745 21.1919C0.745025 20.7685 0.624624 20.2579 0.562745 19.5005C0.500389 18.7373 0.5 17.7684 0.5 16.4364V7.56364Z" stroke="#C1E5E6"/>
<g clip-path="url(#clip0_261_3775)">
<path d="M7.33333 9.5H5C4.72 9.5 4.5 9.72 4.5 10C4.5 10.2733 4.72 10.5 5 10.5H7.33333C7.60667 10.5 7.83333 10.2733 7.83333 10C7.83333 9.72 7.60667 9.5 7.33333 9.5Z" fill="#128081"/>
<path d="M7.33301 13.5H6.33301C6.05301 13.5 5.83301 13.72 5.83301 14C5.83301 14.2733 6.05301 14.5 6.33301 14.5H7.33301C7.60634 14.5 7.83301 14.2733 7.83301 14C7.83301 13.72 7.60634 13.5 7.33301 13.5Z" fill="#128081"/>
<path d="M7.33366 11.5H5.66699C5.38699 11.5 5.16699 11.72 5.16699 12C5.16699 12.2733 5.38699 12.5 5.66699 12.5H7.33366C7.60699 12.5 7.83366 12.2733 7.83366 12C7.83366 11.72 7.60699 11.5 7.33366 11.5Z" fill="#128081"/>
<path d="M8.10697 8.10628C10.2536 5.95294 13.7336 5.95294 15.8803 8.09961C18.027 10.2463 18.027 13.7263 15.8803 15.8729C13.727 18.0196 10.247 18.0196 8.1003 15.8729C7.9003 15.6729 7.58697 15.6729 7.38697 15.8729C7.18697 16.0663 7.18697 16.3796 7.38697 16.5796C9.9203 19.1129 14.0403 19.1129 16.5736 16.5729C19.107 14.0329 19.107 9.91294 16.567 7.37961C14.027 4.83961 9.90697 4.83961 7.37363 7.37961C7.17363 7.57294 7.17363 7.88628 7.37363 8.08628C7.56697 8.27961 7.8803 8.27961 8.0803 8.07961L8.10697 8.10628Z" fill="#128081"/>
<path d="M11.5 9V9.66667C11.5 9.94 11.72 10.1667 12 10.1667C12.2733 10.1667 12.5 9.94 12.5 9.66667V9C12.5 8.72 12.2733 8.5 12 8.5C11.72 8.5 11.5 8.72 11.5 9Z" fill="#128081"/>
<path d="M12.5 14.9997V14.333C12.5 14.053 12.2733 13.833 12 13.833C11.72 13.833 11.5 14.053 11.5 14.333V14.9997C11.5 15.273 11.72 15.4997 12 15.4997C12.2733 15.4997 12.5 15.273 12.5 14.9997Z" fill="#128081"/>
<path d="M13.9264 10.4328C13.6197 9.61951 12.8264 9.10618 11.9597 9.15951H12.0331C11.0131 9.05951 10.1064 9.79285 9.98639 10.8062C9.97973 11.5795 10.4864 12.1928 11.1864 12.3328L12.5731 12.6062C12.8064 12.6528 12.9731 12.8528 12.9731 13.0928C12.9197 13.5062 12.4931 13.8462 12.0197 13.8062L11.9397 13.7995C11.5131 13.8195 11.1197 13.5728 10.9731 13.1728C10.8731 12.9128 10.5864 12.7795 10.3264 12.8795C10.0664 12.9728 9.93306 13.2595 10.0331 13.5195C10.3331 14.3262 11.1264 14.8395 11.9931 14.7862L11.9131 14.7795C12.9264 14.8728 13.8331 14.1395 13.9531 13.1262C13.9531 12.3462 13.4464 11.7328 12.7464 11.5928L11.3531 11.3128C11.1131 11.2595 10.9464 11.0595 10.9464 10.8195C10.9931 10.3995 11.4197 10.0595 11.8931 10.0995H11.9664C12.3864 10.0728 12.7797 10.3195 12.9264 10.7195C13.0197 10.9728 13.3064 11.1062 13.5664 11.0062C13.8197 10.9062 13.9531 10.6195 13.8531 10.3595L13.9264 10.4328Z" fill="#128081"/>
</g>
<defs>
<clipPath id="clip0_261_3775">
<rect width="16" height="16" fill="white" transform="translate(4 4)"/>
</clipPath>
</defs>
</svg>
