<svg width="340" height="276" viewBox="0 0 340 276" fill="none" xmlns="http://www.w3.org/2000/svg">
<g clip-path="url(#clip0_22315_99021)">
<mask id="mask0_22315_99021" style="mask-type:alpha" maskUnits="userSpaceOnUse" x="14" y="0" width="422" height="300">
<rect x="14" width="422" height="300" fill="url(#paint0_linear_22315_99021)"/>
</mask>
<g mask="url(#mask0_22315_99021)">
<g filter="url(#filter0_d_22315_99021)">
<rect x="48" y="46" width="244" height="425" rx="40" fill="#FBFAF8"/>
<rect x="51.5" y="49.5" width="237" height="418" rx="36.5" stroke="url(#paint1_linear_22315_99021)" stroke-width="7"/>
<rect x="78" y="113" width="184" height="10" rx="5" fill="url(#paint2_linear_22315_99021)"/>
<rect x="78" y="138" width="184" height="10" rx="5" fill="url(#paint3_linear_22315_99021)"/>
<rect x="78" y="163" width="184" height="10" rx="5" fill="url(#paint4_linear_22315_99021)"/>
<rect x="78" y="188" width="184" height="10" rx="5" fill="url(#paint5_linear_22315_99021)"/>
<rect x="78" y="213" width="184" height="10" rx="5" fill="url(#paint6_linear_22315_99021)"/>
<rect x="78" y="238" width="184" height="10" rx="5" fill="url(#paint7_linear_22315_99021)"/>
<rect x="78" y="263" width="184" height="10" rx="5" fill="url(#paint8_linear_22315_99021)"/>
<path d="M115.838 98.266C114.914 98.266 114.121 98.1073 113.458 97.79C112.795 97.4633 112.254 97.0387 111.834 96.516C111.414 95.984 111.101 95.4147 110.896 94.808C110.7 94.192 110.602 93.5947 110.602 93.016V92.708C110.602 92.0733 110.705 91.448 110.91 90.832C111.115 90.2067 111.428 89.642 111.848 89.138C112.277 88.634 112.814 88.2327 113.458 87.934C114.111 87.626 114.881 87.472 115.768 87.472C116.692 87.472 117.509 87.6447 118.218 87.99C118.927 88.3353 119.492 88.816 119.912 89.432C120.341 90.0387 120.593 90.7527 120.668 91.574H118.358C118.293 91.1633 118.143 90.8133 117.91 90.524C117.677 90.2347 117.373 90.0107 117 89.852C116.636 89.6933 116.225 89.614 115.768 89.614C115.311 89.614 114.905 89.6933 114.55 89.852C114.195 90.0107 113.897 90.2347 113.654 90.524C113.421 90.8133 113.239 91.1587 113.108 91.56C112.987 91.952 112.926 92.3907 112.926 92.876C112.926 93.352 112.987 93.7907 113.108 94.192C113.239 94.584 113.425 94.9293 113.668 95.228C113.92 95.5173 114.228 95.7413 114.592 95.9C114.956 96.0493 115.371 96.124 115.838 96.124C116.547 96.124 117.145 95.9513 117.63 95.606C118.125 95.2607 118.423 94.7847 118.526 94.178H120.822C120.738 94.9247 120.486 95.6107 120.066 96.236C119.655 96.852 119.091 97.3467 118.372 97.72C117.663 98.084 116.818 98.266 115.838 98.266ZM122.219 98V87.78H124.459V93.674H124.123C124.123 92.8993 124.221 92.246 124.417 91.714C124.613 91.182 124.903 90.7807 125.285 90.51C125.668 90.23 126.149 90.09 126.727 90.09H126.825C127.675 90.09 128.323 90.3933 128.771 91C129.219 91.5973 129.443 92.4747 129.443 93.632V98H127.203V93.492C127.203 93.072 127.077 92.736 126.825 92.484C126.583 92.2227 126.261 92.092 125.859 92.092C125.439 92.092 125.099 92.2273 124.837 92.498C124.585 92.7687 124.459 93.128 124.459 93.576V98H122.219ZM134.866 98.266C134.213 98.266 133.634 98.154 133.13 97.93C132.635 97.706 132.22 97.4073 131.884 97.034C131.557 96.6513 131.305 96.2267 131.128 95.76C130.96 95.284 130.876 94.7987 130.876 94.304V94.024C130.876 93.5107 130.96 93.0207 131.128 92.554C131.305 92.078 131.557 91.6533 131.884 91.28C132.211 90.9067 132.617 90.6127 133.102 90.398C133.597 90.174 134.157 90.062 134.782 90.062C135.603 90.062 136.294 90.2487 136.854 90.622C137.423 90.986 137.857 91.4667 138.156 92.064C138.455 92.652 138.604 93.296 138.604 93.996V94.752H131.814V93.478H137.246L136.518 94.066C136.518 93.6087 136.453 93.2167 136.322 92.89C136.191 92.5633 135.995 92.316 135.734 92.148C135.482 91.9707 135.165 91.882 134.782 91.882C134.39 91.882 134.059 91.9707 133.788 92.148C133.517 92.3253 133.312 92.5867 133.172 92.932C133.032 93.268 132.962 93.6833 132.962 94.178C132.962 94.6353 133.027 95.0367 133.158 95.382C133.289 95.718 133.494 95.9793 133.774 96.166C134.054 96.3527 134.418 96.446 134.866 96.446C135.277 96.446 135.613 96.3667 135.874 96.208C136.135 96.0493 136.313 95.8533 136.406 95.62H138.464C138.352 96.1333 138.133 96.5907 137.806 96.992C137.479 97.3933 137.069 97.706 136.574 97.93C136.079 98.154 135.51 98.266 134.866 98.266ZM143.532 98.266C142.87 98.266 142.291 98.1587 141.796 97.944C141.311 97.72 140.905 97.4213 140.578 97.048C140.252 96.6747 140.009 96.2547 139.85 95.788C139.692 95.312 139.612 94.822 139.612 94.318V94.052C139.612 93.5293 139.696 93.03 139.864 92.554C140.032 92.0687 140.28 91.6393 140.606 91.266C140.933 90.8927 141.339 90.5987 141.824 90.384C142.319 90.1693 142.884 90.062 143.518 90.062C144.209 90.062 144.82 90.1973 145.352 90.468C145.884 90.7293 146.309 91.098 146.626 91.574C146.944 92.05 147.121 92.596 147.158 93.212H144.96C144.923 92.8667 144.783 92.5773 144.54 92.344C144.307 92.1013 143.966 91.98 143.518 91.98C143.145 91.98 142.832 92.0733 142.58 92.26C142.338 92.4467 142.156 92.7033 142.034 93.03C141.913 93.3567 141.852 93.744 141.852 94.192C141.852 94.6027 141.908 94.976 142.02 95.312C142.132 95.6387 142.31 95.8953 142.552 96.082C142.804 96.2593 143.131 96.348 143.532 96.348C143.831 96.348 144.083 96.2967 144.288 96.194C144.503 96.082 144.671 95.9327 144.792 95.746C144.923 95.55 145.002 95.326 145.03 95.074H147.214C147.186 95.7087 147.009 96.2687 146.682 96.754C146.356 97.23 145.922 97.6033 145.38 97.874C144.839 98.1353 144.223 98.266 143.532 98.266ZM154.051 98L151.629 94.416H150.551L153.673 90.328H156.025L153.085 94.136L153.113 93.044L156.571 98H154.051ZM148.647 98V87.78H150.887V98H148.647ZM164.042 98.266C163.389 98.266 162.81 98.154 162.306 97.93C161.811 97.706 161.396 97.4073 161.06 97.034C160.733 96.6513 160.481 96.2267 160.304 95.76C160.136 95.284 160.052 94.7987 160.052 94.304V94.024C160.052 93.5107 160.136 93.0207 160.304 92.554C160.481 92.078 160.733 91.6533 161.06 91.28C161.387 90.9067 161.793 90.6127 162.278 90.398C162.773 90.174 163.333 90.062 163.958 90.062C164.779 90.062 165.47 90.2487 166.03 90.622C166.599 90.986 167.033 91.4667 167.332 92.064C167.631 92.652 167.78 93.296 167.78 93.996V94.752H160.99V93.478H166.422L165.694 94.066C165.694 93.6087 165.629 93.2167 165.498 92.89C165.367 92.5633 165.171 92.316 164.91 92.148C164.658 91.9707 164.341 91.882 163.958 91.882C163.566 91.882 163.235 91.9707 162.964 92.148C162.693 92.3253 162.488 92.5867 162.348 92.932C162.208 93.268 162.138 93.6833 162.138 94.178C162.138 94.6353 162.203 95.0367 162.334 95.382C162.465 95.718 162.67 95.9793 162.95 96.166C163.23 96.3527 163.594 96.446 164.042 96.446C164.453 96.446 164.789 96.3667 165.05 96.208C165.311 96.0493 165.489 95.8533 165.582 95.62H167.64C167.528 96.1333 167.309 96.5907 166.982 96.992C166.655 97.3933 166.245 97.706 165.75 97.93C165.255 98.154 164.686 98.266 164.042 98.266ZM169.362 98V87.78H171.616V98H169.362ZM168.452 89.432V87.78H171.616V89.432H168.452ZM174.044 98V90.328H176.284V98H174.044ZM173.022 91.98V90.328H176.284V91.98H173.022ZM174.912 89.572C174.492 89.572 174.18 89.4647 173.974 89.25C173.778 89.026 173.68 88.746 173.68 88.41C173.68 88.0647 173.778 87.7847 173.974 87.57C174.18 87.346 174.492 87.234 174.912 87.234C175.332 87.234 175.64 87.346 175.836 87.57C176.042 87.7847 176.144 88.0647 176.144 88.41C176.144 88.746 176.042 89.026 175.836 89.25C175.64 89.4647 175.332 89.572 174.912 89.572ZM181.38 101.052C181.007 101.052 180.624 101.038 180.232 101.01C179.84 100.982 179.481 100.945 179.154 100.898V99.008C179.481 99.0547 179.84 99.092 180.232 99.12C180.633 99.1573 180.997 99.176 181.324 99.176C181.931 99.176 182.421 99.106 182.794 98.966C183.177 98.826 183.457 98.6113 183.634 98.322C183.811 98.042 183.9 97.678 183.9 97.23V95.704L184.306 94.808C184.287 95.4893 184.152 96.0727 183.9 96.558C183.657 97.0433 183.317 97.4167 182.878 97.678C182.439 97.93 181.917 98.056 181.31 98.056C180.787 98.056 180.311 97.9627 179.882 97.776C179.462 97.58 179.103 97.3093 178.804 96.964C178.505 96.6187 178.277 96.2173 178.118 95.76C177.959 95.2933 177.88 94.7893 177.88 94.248V93.926C177.88 93.3847 177.964 92.8807 178.132 92.414C178.3 91.9473 178.543 91.5413 178.86 91.196C179.177 90.8507 179.555 90.5847 179.994 90.398C180.433 90.202 180.918 90.104 181.45 90.104C182.066 90.104 182.598 90.2393 183.046 90.51C183.503 90.7807 183.863 91.1773 184.124 91.7C184.385 92.2227 184.525 92.8527 184.544 93.59L184.236 93.674V90.328H186.014V97.09C186.014 98.0327 185.846 98.7933 185.51 99.372C185.174 99.9507 184.661 100.375 183.97 100.646C183.289 100.917 182.425 101.052 181.38 101.052ZM182.01 96.166C182.355 96.166 182.668 96.0913 182.948 95.942C183.228 95.7833 183.447 95.5593 183.606 95.27C183.774 94.9807 183.858 94.6307 183.858 94.22V93.814C183.858 93.4127 183.769 93.0767 183.592 92.806C183.424 92.526 183.2 92.316 182.92 92.176C182.64 92.0267 182.341 91.952 182.024 91.952C181.651 91.952 181.319 92.0407 181.03 92.218C180.741 92.3953 180.517 92.6427 180.358 92.96C180.199 93.2773 180.12 93.6507 180.12 94.08C180.12 94.5187 180.199 94.8967 180.358 95.214C180.526 95.522 180.75 95.76 181.03 95.928C181.319 96.0867 181.646 96.166 182.01 96.166ZM188.318 98V90.328H190.558V98H188.318ZM187.296 91.98V90.328H190.558V91.98H187.296ZM189.186 89.572C188.766 89.572 188.453 89.4647 188.248 89.25C188.052 89.026 187.954 88.746 187.954 88.41C187.954 88.0647 188.052 87.7847 188.248 87.57C188.453 87.346 188.766 87.234 189.186 87.234C189.606 87.234 189.914 87.346 190.11 87.57C190.315 87.7847 190.418 88.0647 190.418 88.41C190.418 88.746 190.315 89.026 190.11 89.25C189.914 89.4647 189.606 89.572 189.186 89.572ZM197.347 98.252C196.722 98.252 196.171 98.1213 195.695 97.86C195.219 97.5893 194.846 97.202 194.575 96.698C194.305 96.194 194.16 95.578 194.141 94.85H194.407V98H192.629V87.78H194.869V92.974L194.337 93.646C194.365 92.8713 194.51 92.2227 194.771 91.7C195.042 91.168 195.411 90.7713 195.877 90.51C196.344 90.2393 196.876 90.104 197.473 90.104C197.996 90.104 198.467 90.202 198.887 90.398C199.317 90.5847 199.681 90.8553 199.979 91.21C200.278 91.5553 200.507 91.966 200.665 92.442C200.833 92.918 200.917 93.436 200.917 93.996V94.304C200.917 94.864 200.833 95.382 200.665 95.858C200.507 96.334 200.269 96.754 199.951 97.118C199.643 97.4727 199.27 97.7527 198.831 97.958C198.393 98.154 197.898 98.252 197.347 98.252ZM196.759 96.376C197.142 96.376 197.473 96.2827 197.753 96.096C198.043 95.9093 198.267 95.648 198.425 95.312C198.584 94.9667 198.663 94.5793 198.663 94.15C198.663 93.7113 198.584 93.3287 198.425 93.002C198.267 92.6753 198.043 92.4233 197.753 92.246C197.473 92.0593 197.142 91.966 196.759 91.966C196.423 91.966 196.106 92.0453 195.807 92.204C195.509 92.3627 195.266 92.5913 195.079 92.89C194.902 93.1793 194.813 93.534 194.813 93.954V94.472C194.813 94.8733 194.907 95.2187 195.093 95.508C195.289 95.788 195.537 96.0027 195.835 96.152C196.134 96.3013 196.442 96.376 196.759 96.376ZM202.837 98V90.328H205.077V98H202.837ZM201.815 91.98V90.328H205.077V91.98H201.815ZM203.705 89.572C203.285 89.572 202.973 89.4647 202.767 89.25C202.571 89.026 202.473 88.746 202.473 88.41C202.473 88.0647 202.571 87.7847 202.767 87.57C202.973 87.346 203.285 87.234 203.705 87.234C204.125 87.234 204.433 87.346 204.629 87.57C204.835 87.7847 204.937 88.0647 204.937 88.41C204.937 88.746 204.835 89.026 204.629 89.25C204.433 89.4647 204.125 89.572 203.705 89.572ZM207.247 98V87.78H209.501V98H207.247ZM206.337 89.432V87.78H209.501V89.432H206.337ZM211.929 98V90.328H214.169V98H211.929ZM210.907 91.98V90.328H214.169V91.98H210.907ZM212.797 89.572C212.377 89.572 212.064 89.4647 211.859 89.25C211.663 89.026 211.565 88.746 211.565 88.41C211.565 88.0647 211.663 87.7847 211.859 87.57C212.064 87.346 212.377 87.234 212.797 87.234C213.217 87.234 213.525 87.346 213.721 87.57C213.926 87.7847 214.029 88.0647 214.029 88.41C214.029 88.746 213.926 89.026 213.721 89.25C213.525 89.4647 213.217 89.572 212.797 89.572ZM219.727 98.098C218.952 98.098 218.327 98.0047 217.851 97.818C217.375 97.622 217.025 97.3 216.801 96.852C216.586 96.3947 216.479 95.7787 216.479 95.004V88.256H218.565V95.088C218.565 95.452 218.658 95.732 218.845 95.928C219.041 96.1147 219.316 96.208 219.671 96.208H220.805V98.098H219.727ZM215.317 91.966V90.328H220.805V91.966H215.317ZM222.227 101.038V99.134H223.823C224.066 99.134 224.271 99.1013 224.439 99.036C224.607 98.98 224.742 98.882 224.845 98.742C224.948 98.602 225.032 98.4107 225.097 98.168L226.987 90.328H229.115L226.973 98.616C226.824 99.2133 226.614 99.6893 226.343 100.044C226.082 100.399 225.727 100.651 225.279 100.8C224.84 100.959 224.28 101.038 223.599 101.038H222.227ZM224.635 97.832V96.082H226.259V97.832H224.635ZM223.711 97.832L221.359 90.328H223.613L225.839 97.832H223.711Z" fill="#616C74"/>
</g>
<mask id="mask1_22315_99021" style="mask-type:alpha" maskUnits="userSpaceOnUse" x="45" y="41" width="391" height="254">
<rect x="45" y="41" width="391" height="254" fill="url(#paint9_linear_22315_99021)"/>
</mask>
<g mask="url(#mask1_22315_99021)">
<g filter="url(#filter1_b_22315_99021)">
<rect x="218" y="132" width="108" height="108" rx="54" fill="#FFD58E" fill-opacity="0.9"/>
<rect x="219.5" y="133.5" width="105" height="105" rx="52.5" stroke="url(#paint10_linear_22315_99021)" stroke-width="3"/>
<path d="M266.585 194.82C266.328 189.383 266.048 183.993 265.745 178.65C265.465 173.307 265.185 167.987 264.905 162.69L278.835 162.34C278.555 167.683 278.263 173.05 277.96 178.44C277.68 183.83 277.412 189.243 277.155 194.68L266.585 194.82ZM271.765 215.015C269.432 215.015 267.588 214.303 266.235 212.88C264.905 211.457 264.24 209.718 264.24 207.665C264.24 205.588 264.905 203.873 266.235 202.52C267.588 201.143 269.455 200.455 271.835 200.455C274.192 200.455 276.035 201.143 277.365 202.52C278.718 203.873 279.395 205.588 279.395 207.665C279.395 209.718 278.718 211.457 277.365 212.88C276.012 214.303 274.145 215.015 271.765 215.015Z" fill="#9E5700"/>
</g>
</g>
</g>
</g>
<defs>
<filter id="filter0_d_22315_99021" x="24" y="34" width="292" height="473" filterUnits="userSpaceOnUse" color-interpolation-filters="sRGB">
<feFlood flood-opacity="0" result="BackgroundImageFix"/>
<feColorMatrix in="SourceAlpha" type="matrix" values="0 0 0 0 0 0 0 0 0 0 0 0 0 0 0 0 0 0 127 0" result="hardAlpha"/>
<feMorphology radius="8" operator="erode" in="SourceAlpha" result="effect1_dropShadow_22315_99021"/>
<feOffset dy="12"/>
<feGaussianBlur stdDeviation="16"/>
<feColorMatrix type="matrix" values="0 0 0 0 0.00317708 0 0 0 0 0.246785 0 0 0 0 0.254167 0 0 0 0.24 0"/>
<feBlend mode="normal" in2="BackgroundImageFix" result="effect1_dropShadow_22315_99021"/>
<feBlend mode="normal" in="SourceGraphic" in2="effect1_dropShadow_22315_99021" result="shape"/>
</filter>
<filter id="filter1_b_22315_99021" x="214" y="128" width="116" height="116" filterUnits="userSpaceOnUse" color-interpolation-filters="sRGB">
<feFlood flood-opacity="0" result="BackgroundImageFix"/>
<feGaussianBlur in="BackgroundImageFix" stdDeviation="2"/>
<feComposite in2="SourceAlpha" operator="in" result="effect1_backgroundBlur_22315_99021"/>
<feBlend mode="normal" in="SourceGraphic" in2="effect1_backgroundBlur_22315_99021" result="shape"/>
</filter>
<linearGradient id="paint0_linear_22315_99021" x1="230.639" y1="-0.174035" x2="233.382" y2="299.746" gradientUnits="userSpaceOnUse">
<stop offset="0.351835" stop-opacity="0.99"/>
<stop offset="0.691297" stop-opacity="0.67"/>
<stop offset="0.882447" stop-opacity="0"/>
</linearGradient>
<linearGradient id="paint1_linear_22315_99021" x1="47.9153" y1="46" x2="292.085" y2="46" gradientUnits="userSpaceOnUse">
<stop stop-color="#195766"/>
<stop offset="0.489583" stop-color="#002129"/>
<stop offset="1" stop-color="#195766"/>
</linearGradient>
<linearGradient id="paint2_linear_22315_99021" x1="78" y1="113" x2="262" y2="113" gradientUnits="userSpaceOnUse">
<stop stop-color="#EAEFF0"/>
<stop offset="1" stop-color="#D0DADD" stop-opacity="0.14"/>
</linearGradient>
<linearGradient id="paint3_linear_22315_99021" x1="78" y1="138" x2="262" y2="138" gradientUnits="userSpaceOnUse">
<stop stop-color="#EAEFF0"/>
<stop offset="1" stop-color="#D0DADD" stop-opacity="0.14"/>
</linearGradient>
<linearGradient id="paint4_linear_22315_99021" x1="78" y1="163" x2="262" y2="163" gradientUnits="userSpaceOnUse">
<stop stop-color="#EAEFF0"/>
<stop offset="1" stop-color="#D0DADD" stop-opacity="0.14"/>
</linearGradient>
<linearGradient id="paint5_linear_22315_99021" x1="78" y1="188" x2="262" y2="188" gradientUnits="userSpaceOnUse">
<stop stop-color="#EAEFF0"/>
<stop offset="1" stop-color="#D0DADD" stop-opacity="0.14"/>
</linearGradient>
<linearGradient id="paint6_linear_22315_99021" x1="78" y1="213" x2="262" y2="213" gradientUnits="userSpaceOnUse">
<stop stop-color="#EAEFF0"/>
<stop offset="1" stop-color="#D0DADD" stop-opacity="0.14"/>
</linearGradient>
<linearGradient id="paint7_linear_22315_99021" x1="78" y1="238" x2="262" y2="238" gradientUnits="userSpaceOnUse">
<stop stop-color="#EAEFF0"/>
<stop offset="1" stop-color="#D0DADD" stop-opacity="0.14"/>
</linearGradient>
<linearGradient id="paint8_linear_22315_99021" x1="78" y1="263" x2="262" y2="263" gradientUnits="userSpaceOnUse">
<stop stop-color="#EAEFF0"/>
<stop offset="1" stop-color="#D0DADD" stop-opacity="0.14"/>
</linearGradient>
<linearGradient id="paint9_linear_22315_99021" x1="290.433" y1="166.95" x2="389.029" y2="166.95" gradientUnits="userSpaceOnUse">
<stop stop-color="#D9D9D9"/>
<stop offset="0.0666667" stop-color="#D9D9D9" stop-opacity="0.991353"/>
<stop offset="0.133333" stop-color="#D9D9D9" stop-opacity="0.96449"/>
<stop offset="0.2" stop-color="#D9D9D9" stop-opacity="0.91834"/>
<stop offset="0.266667" stop-color="#D9D9D9" stop-opacity="0.852589"/>
<stop offset="0.333333" stop-color="#D9D9D9" stop-opacity="0.768225"/>
<stop offset="0.4" stop-color="#D9D9D9" stop-opacity="0.668116"/>
<stop offset="0.466667" stop-color="#D9D9D9" stop-opacity="0.557309"/>
<stop offset="0.533333" stop-color="#D9D9D9" stop-opacity="0.442691"/>
<stop offset="0.6" stop-color="#D9D9D9" stop-opacity="0.331884"/>
<stop offset="0.666667" stop-color="#D9D9D9" stop-opacity="0.231775"/>
<stop offset="0.733333" stop-color="#D9D9D9" stop-opacity="0.147411"/>
<stop offset="0.8" stop-color="#D9D9D9" stop-opacity="0.0816599"/>
<stop offset="0.866667" stop-color="#D9D9D9" stop-opacity="0.03551"/>
<stop offset="0.933333" stop-color="#D9D9D9" stop-opacity="0.01"/>
<stop offset="1" stop-color="#D9D9D9" stop-opacity="0"/>
</linearGradient>
<linearGradient id="paint10_linear_22315_99021" x1="326" y1="186" x2="218" y2="186" gradientUnits="userSpaceOnUse">
<stop stop-color="#FFD68F"/>
<stop offset="1" stop-color="#FFF0D6"/>
</linearGradient>
<clipPath id="clip0_22315_99021">
<rect width="340" height="276" fill="white"/>
</clipPath>
</defs>
</svg>
