<svg width="33" height="32" viewBox="0 0 33 32" fill="none" xmlns="http://www.w3.org/2000/svg">
    <mask id="mask0_2454_7561" style="mask-type:alpha" maskUnits="userSpaceOnUse" x="0" y="0" width="33" height="32">
        <circle cx="16.5" cy="16" r="16" fill="#F5F7F8" />
    </mask>
    <g mask="url(#mask0_2454_7561)">
        <path d="M0.910438 4.56209C-0.125 6.59425 -0.125 9.2545 -0.125 14.575V17.425C-0.125 22.7455 -0.125 25.4057 0.910438 27.4379C1.82124 29.2254 3.27455 30.6788 5.06209 31.5896C7.09425 32.625 9.7545 32.625 15.075 32.625H17.925C23.2455 32.625 25.9057 32.625 27.9379 31.5896C29.7254 30.6788 31.1788 29.2254 32.0896 27.4379C33.125 25.4057 33.125 22.7455 33.125 17.425V14.575C33.125 9.2545 33.125 6.59425 32.0896 4.56209C31.1788 2.77455 29.7254 1.32124 27.9379 0.410438C25.9057 -0.625 23.2455 -0.625 17.925 -0.625H15.075C9.7545 -0.625 7.09425 -0.625 5.06209 0.410438C3.27455 1.32124 1.82124 2.77455 0.910438 4.56209Z" fill="url(#paint0_linear_2454_7561)" />
        <path d="M0.189952 6.83234C-0.125 8.62223 -0.125 10.9972 -0.125 14.5753V17.4253C-0.125 22.7458 -0.125 25.4061 0.910438 27.4383C1.82124 29.2258 3.27455 30.6791 5.06209 31.5899C7.09425 32.6253 9.7545 32.6253 15.075 32.6253H17.925C23.2455 32.6253 25.9057 32.6253 27.9379 31.5899C29.7254 30.6791 31.1788 29.2258 32.0896 27.4383C33.125 25.4061 33.125 22.7458 33.125 17.4253V14.5753C33.125 9.25485 33.125 6.5946 32.0896 4.56244C31.2105 2.83709 29.8259 1.42312 28.1233 0.507812L0.189952 6.83234Z" fill="url(#paint1_linear_2454_7561)" />
        <path d="M32.781 25.3262C32.6283 26.1286 32.4079 26.8127 32.0896 27.4374C31.1788 29.2249 29.7255 30.6782 27.9379 31.589C25.9666 32.5935 23.4042 32.6235 18.3956 32.6244H16.5696V28.8682L32.781 25.3262Z" fill="url(#paint2_linear_2454_7561)" />
        <path d="M17.925 -0.625H15.075C14.0399 -0.625 13.1055 -0.625 12.2568 -0.617375V4.08999L28.1202 0.5058C28.0598 0.473384 27.9991 0.441593 27.9379 0.410438C26.8098 -0.16439 25.488 -0.4201 23.625 -0.533851C22.1322 -0.625 20.2918 -0.625 17.925 -0.625Z" fill="url(#paint3_linear_2454_7561)" />
        <path d="M33.125 17.6304C33.1249 21.1995 33.1186 23.5522 32.7811 25.3262L27.1428 26.5581V18.1559L33.125 16.7646V17.6304Z" fill="url(#paint4_linear_2454_7561)" />
        <path fill-rule="evenodd" clip-rule="evenodd" d="M15.2423 12.8861C15.2423 12.1229 15.8663 11.8294 16.8997 11.8294C18.3816 11.8294 20.2535 12.2795 21.7354 13.0818V8.48317C20.117 7.8374 18.5181 7.58301 16.8997 7.58301C12.9414 7.58301 10.3091 9.65729 10.3091 13.121C10.3091 18.5219 17.7187 17.6609 17.7187 19.9896C17.7187 20.8897 16.9387 21.1833 15.8468 21.1833C14.2284 21.1833 12.1615 20.5179 10.5236 19.6178V24.2751C12.337 25.0579 14.1699 25.3905 15.8468 25.3905C19.9025 25.3905 22.6909 23.375 22.6909 19.8722C22.6714 14.0407 15.2423 15.0778 15.2423 12.8861Z" fill="white" />
    </g>
    <defs>
        <linearGradient id="paint0_linear_2454_7561" x1="-0.125" y1="-0.625" x2="10.796" y2="7.09623" gradientUnits="userSpaceOnUse">
            <stop stop-color="#392993" />
            <stop offset="1" stop-color="#4B47B9" />
        </linearGradient>
        <linearGradient id="paint1_linear_2454_7561" x1="1.12709" y1="7.18253" x2="25.236" y2="27.069" gradientUnits="userSpaceOnUse">
            <stop stop-color="#594BB9" />
            <stop offset="1" stop-color="#60A8F2" />
        </linearGradient>
        <linearGradient id="paint2_linear_2454_7561" x1="16.5696" y1="29.0074" x2="33.125" y2="32.6245" gradientUnits="userSpaceOnUse">
            <stop stop-color="#61A2EF" />
            <stop offset="1" stop-color="#58E6FD" />
        </linearGradient>
        <linearGradient id="paint3_linear_2454_7561" x1="12.2568" y1="1.74006" x2="33.125" y2="-0.625" gradientUnits="userSpaceOnUse">
            <stop stop-color="#534EBE" />
            <stop offset="1" stop-color="#6875E2" />
        </linearGradient>
        <linearGradient id="paint4_linear_2454_7561" x1="27.1428" y1="18.2254" x2="33.125" y2="25.3902" gradientUnits="userSpaceOnUse">
            <stop stop-color="#71A5F3" />
            <stop offset="1" stop-color="#6CC3FA" />
        </linearGradient>
    </defs>
</svg>
    