<svg width="164" height="164" viewBox="0 0 213 212" fill="none" xmlns="http://www.w3.org/2000/svg">
    <g clip-path="url(#clip0_1415_3856)">
        <path d="M184.064 105.579C184.064 148.073 149.337 182.524 106.501 182.524C94.0912 182.547 81.8566 179.596 70.8221 173.917C59.7877 168.239 50.2748 159.999 43.0805 149.887C42.0325 148.412 41.0354 146.901 40.0894 145.352C32.7791 133.376 28.9211 119.612 28.9415 105.581C28.9415 63.0843 63.6683 28.6353 106.505 28.6353C149.341 28.6353 184.064 63.0824 184.064 105.579Z" fill="#FFE8C2" />
        <path d="M35.5307 136.787C36.209 136.481 34.8939 134.07 33.4522 129.796C30.5042 121.039 29.2155 111.808 29.6525 102.578C30.3174 88.7808 34.7746 75.434 42.5337 64.0056C50.2929 52.5772 61.0535 43.51 73.6321 37.8011C77.5808 36.0219 81.6532 34.531 85.8174 33.3401L87.3573 32.8941C87.8731 32.7505 88.3946 32.6428 88.9123 32.5163L90.4655 32.1384L91.2421 31.9494L92.0243 31.802C93.0692 31.6131 94.1027 31.392 95.1495 31.2106L98.2879 30.7571C102.464 30.2492 106.672 30.0553 110.878 30.1771L114.014 30.3452C114.277 30.3547 114.536 30.3868 114.794 30.4133L115.575 30.4964L117.136 30.6627C118.179 30.7496 119.214 30.948 120.238 31.1048L121.786 31.3656C122.298 31.4638 122.808 31.581 123.318 31.6887L124.83 32.0118L125.576 32.1743L126.309 32.3632L129.215 33.153L132.038 34.0789L132.739 34.3094C132.969 34.3925 133.196 34.4851 133.425 34.572L134.793 35.1011C138.399 36.5015 141.882 38.2004 145.206 40.18L145.831 40.5428L146.145 40.7317L146.449 40.9207L147.67 41.7086C148.482 42.2358 149.308 42.7478 150.088 43.3335L151.278 44.1914L151.876 44.6203C152.076 44.762 152.274 44.9075 152.465 45.0643L154.789 46.916C157.953 49.5611 160.902 52.4522 163.609 55.5623C170.479 63.4963 175.653 72.7517 178.814 82.7595L178.971 83.2319L179.105 83.708L179.373 84.6641L179.914 86.5744C180.082 87.2149 180.216 87.863 180.369 88.5073L180.815 90.4422L181.164 92.3959L181.342 93.3728L181.431 93.8621C181.461 94.0246 181.489 94.1871 181.506 94.3515L181.763 96.3203L181.89 97.3085L181.954 97.8017C181.977 97.9642 181.984 98.1305 182 98.2949C182.522 103.541 182.531 108.825 182.026 114.072C181.496 119.474 180.294 124.789 178.447 129.893C176.682 134.765 174.38 139.426 171.585 143.79C171.411 144.06 171.252 144.34 171.069 144.602L170.521 145.396L169.427 146.983L169.153 147.38C169.06 147.512 168.964 147.637 168.862 147.758L168.276 148.527L167.101 150.067C166.912 150.327 166.695 150.569 166.489 150.823L165.863 151.567C165.446 152.065 165.029 152.563 164.611 153.062L163.288 154.503L162.617 155.225C162.394 155.467 162.181 155.716 161.941 155.943C158.134 159.847 153.966 163.383 149.493 166.503C145.609 169.221 141.5 171.603 137.211 173.623C132.858 175.673 128.326 177.32 123.673 178.545C118.984 179.779 114.188 180.566 109.351 180.896C104.519 181.244 99.6643 181.104 94.8604 180.478C79.3351 178.502 64.8349 171.659 53.4411 160.929C52.1184 159.694 50.8676 158.38 49.8907 157.436C48.9139 156.491 48.2336 155.884 48.0277 156.066C47.5062 156.514 49.3503 158.607 52.6739 161.734C57.1093 165.932 61.9971 169.624 67.2475 172.742C69.8485 174.289 72.5352 175.686 75.2948 176.928C78.0534 178.162 80.8817 179.235 83.7654 180.14C89.5648 181.965 95.563 183.085 101.63 183.475C102.008 183.505 102.386 183.522 102.764 183.537L103.909 183.584C104.665 183.616 105.44 183.611 106.207 183.624C106.974 183.637 107.739 183.588 108.506 183.571L109.659 183.535L110.235 183.518L110.524 183.509L110.811 183.484L113.117 183.295L114.271 183.195C114.46 183.182 114.649 183.157 114.847 183.129L115.414 183.048C116.947 182.828 118.488 182.647 120.011 182.311C125.09 181.337 130.073 179.919 134.902 178.073C139.513 176.312 143.954 174.137 148.172 171.575C152.338 169.044 156.248 166.115 159.845 162.826C163.511 159.474 166.805 155.736 169.671 151.678L170.969 149.836C171.177 149.532 171.396 149.239 171.592 148.935L172.176 148.022C172.567 147.421 172.953 146.828 173.336 146.241C173.525 145.951 173.714 145.649 173.886 145.352L174.417 144.464L175.479 142.72L176.454 140.963C176.775 140.379 177.112 139.805 177.419 139.223C177.727 138.641 178.013 138.044 178.308 137.458L178.752 136.58C178.899 136.285 179.056 135.996 179.182 135.693L179.985 133.897L180.388 132.993L180.59 132.54C180.654 132.389 180.711 132.234 180.779 132.079L181.495 130.216C182 128.974 182.387 127.678 182.805 126.363C182.907 126.032 183.01 125.702 183.113 125.369C183.215 125.037 183.29 124.693 183.379 124.353C183.549 123.669 183.72 122.976 183.891 122.274C184.106 121.456 184.242 120.632 184.392 119.818C184.541 119.004 184.692 118.197 184.819 117.39C184.917 116.581 185.015 115.778 185.112 114.981C185.159 114.58 185.206 114.184 185.253 113.787C185.301 113.39 185.31 112.989 185.338 112.593C185.389 111.802 185.438 111.012 185.486 110.223L185.522 109.634V109.044C185.522 108.651 185.522 108.258 185.522 107.865C185.522 107.083 185.527 106.301 185.537 105.518L185.435 103.174C185.403 101.609 185.221 100.048 185.085 98.4744L185.032 97.8848L185.006 97.5882L184.966 97.2934C184.911 96.9004 184.858 96.5074 184.804 96.1125C184.696 95.3208 184.59 94.5272 184.482 93.7261C183.916 90.548 183.326 87.2792 182.404 83.9159C181.235 79.5 179.611 75.2175 177.557 71.1373C177.032 70.151 176.509 69.1672 175.989 68.1859C175.417 67.2362 174.846 66.2876 174.275 65.3404C173.076 63.4849 171.847 61.6578 170.496 59.9213C167.809 56.4132 164.847 53.124 161.639 50.0847C158.33 46.9469 154.787 44.0648 151.042 41.463C136.816 31.4695 119.941 26.315 103.038 26.6192C98.8038 26.7104 94.5829 27.1273 90.4126 27.8662C86.2241 28.6597 82.1067 29.7908 78.1007 31.2484C74.0562 32.723 70.1541 34.5621 66.4426 36.743C62.68 38.9322 59.1211 41.454 55.8086 44.2783C52.778 46.8974 49.9107 49.6997 47.2228 52.6695L45.2369 54.9841L44.9875 55.2732L44.7513 55.5755L44.279 56.1783L43.3342 57.3856L42.86 57.9903C42.7806 58.0923 42.7012 58.1906 42.6238 58.2945L42.4008 58.6081L41.5109 59.8628L40.619 61.1212C40.4679 61.3271 40.3299 61.5444 40.192 61.7617L39.7763 62.4136L38.9468 63.7154C38.6748 64.1519 38.38 64.5789 38.14 65.0381L36.6152 67.7268C35.6705 69.5596 34.7257 71.3886 33.9454 73.2894C32.319 77.0191 31.0529 80.8957 30.1645 84.8663C30.07 85.282 29.9605 85.692 29.8773 86.1096C29.7942 86.5272 29.7224 86.9447 29.643 87.3623C29.4868 88.1987 29.3294 89.0307 29.1707 89.8583L28.8249 92.3657L28.6492 93.6146C28.6057 94.0341 28.5736 94.4535 28.5339 94.8711L28.3053 97.3803C28.2486 98.2174 28.2297 99.0582 28.1881 99.8953C28.0785 101.571 28.1333 103.255 28.1295 104.936C28.1854 108.332 28.4568 111.721 28.942 115.083C29.4313 118.536 30.1413 121.954 31.0677 125.316C31.1565 125.726 31.2566 126.129 31.37 126.533L31.6856 127.748L32.0332 128.954L32.2071 129.558L32.396 130.157C32.5453 130.594 32.6945 131.028 32.8419 131.455L33.3086 132.7C33.3842 132.901 33.4617 133.099 33.5354 133.292C33.609 133.485 33.6922 133.67 33.7678 133.859C33.9227 134.222 34.072 134.562 34.2137 134.875C34.7956 136.117 35.2869 136.897 35.5307 136.787Z" fill="#063844" />
        <path d="M106.447 145.581C102.416 145.581 99.2547 144.354 96.9622 141.9C94.6696 139.446 93.5221 136.47 93.5195 132.97C93.5195 129.475 94.6759 126.552 96.9886 124.201C99.3014 121.851 102.49 120.677 106.553 120.679C110.584 120.679 113.746 121.853 116.038 124.201C118.331 126.549 119.479 129.472 119.481 132.97C119.481 136.467 118.333 139.444 116.038 141.9C113.743 144.356 110.546 145.583 106.447 145.581ZM97.1228 113.896C96.168 97.7899 95.2138 81.895 94.2602 66.211L118.952 65.5742C118.493 73.5214 118.025 81.4956 117.548 89.497C117.071 97.4983 116.585 105.56 116.091 113.682L97.1228 113.896Z" fill="#063844" />
        <path d="M97.1083 113.898C97.3463 113.883 97.2594 113.055 97.1763 111.687C96.5017 100.43 95.9935 89.4727 95.5589 78.0696C95.4814 76.0271 95.3548 74.0243 95.2074 72.0479C95.1293 71.059 95.0519 70.0765 94.975 69.1003C94.9335 68.6128 94.8938 68.1253 94.8522 67.6378L94.822 67.2731L94.8069 67.0842L94.7974 66.9916L94.7596 66.6609L94.9675 66.6439H95.0752H95.1318H95.2188L96.1635 66.5986L98.053 66.5173C103.094 66.3152 107.396 66.2623 112.666 66.2018L118.386 66.1357L118.361 66.4418L118.31 67.1976L118.202 68.8395C118.134 69.9354 118.067 71.0326 118 72.131C117.872 74.3285 117.76 76.5222 117.671 78.6913C117.392 85.6181 116.576 91.2942 116.16 98.3741C116.013 100.881 115.92 103.434 115.844 105.996C115.81 107.277 115.774 108.562 115.74 109.843L115.689 111.763L115.663 112.721C115.663 112.91 115.663 112.938 115.663 113.023V113.25L115.366 113.273H115.283H115.123L114.803 113.284L113.524 113.331C108.706 113.499 104.128 113.637 99.3265 113.692C98.2231 113.703 97.1234 113.705 97.1271 113.881C97.1271 114.121 97.9604 114.07 99.3303 114.059C102.165 114.027 104.963 114.04 107.744 114.059L111.912 114.076H114.002L116.447 114.059C116.479 113.524 116.509 112.991 116.542 112.454L116.61 111.192C116.654 110.347 116.691 109.498 116.723 108.645C116.967 102.268 117.571 96.8738 117.768 90.8312C117.885 87.2034 118.355 84.492 118.59 81.089C118.862 77.106 118.837 73.7408 119.194 69.6199C119.254 68.9359 119.305 68.2601 119.347 67.5925C119.368 67.258 119.387 66.9255 119.408 66.5948C119.437 66.0809 119.465 65.5694 119.491 65.0605L118.306 65.1002L117.456 65.1342L115.98 65.2041L113.031 65.3572C111.058 65.4573 109.063 65.5461 106.958 65.5764C104.787 65.6066 102.652 65.6142 100.534 65.6104L97.3784 65.6009H95.8102H94.9524L93.5957 65.6123C93.6184 66.1905 93.6429 66.7686 93.6656 67.3487L93.6996 68.4333L93.7733 70.6005C93.825 72.0466 93.8835 73.4952 93.949 74.9463C94.0851 77.8467 94.2665 80.7678 94.5272 83.7438C94.9335 88.3484 95.1111 93.3405 95.6439 98.0698C96.0955 102.081 96.4564 105.968 96.7568 110.221L96.804 111.733C96.8645 112.812 96.9269 113.907 97.1083 113.898Z" fill="#063844" />
        <path d="M106.448 145.596C106.448 145.477 106.327 145.424 106.11 145.407C106.002 145.396 105.868 145.39 105.713 145.386L105.186 145.358C103.583 145.268 102.01 144.883 100.545 144.224C99.1071 143.552 97.8397 142.563 96.8381 141.332C95.82 140.117 95.0578 138.71 94.5972 137.194C94.1509 135.672 93.9869 134.082 94.1135 132.502C94.1952 131.037 94.4853 129.591 94.9751 128.207C95.4694 126.854 96.2265 125.611 97.2028 124.551C98.1191 123.555 99.2347 122.762 100.477 122.225C101.095 121.955 101.736 121.741 102.391 121.585C103.085 121.422 103.79 121.31 104.5 121.248C105.4 121.172 106.304 121.16 107.206 121.21C108.117 121.258 109.023 121.376 109.915 121.566C111.685 121.93 113.353 122.68 114.801 123.761C115.533 124.335 116.174 125.016 116.704 125.779C117.211 126.502 117.616 127.292 117.908 128.126C118.495 129.772 118.664 131.527 118.614 133.471C118.592 135.096 118.29 136.705 117.721 138.227C117.42 138.999 117.04 139.737 116.587 140.43C116.131 141.128 115.6 141.773 115.004 142.354C114.519 142.816 113.991 143.231 113.428 143.593C112.863 143.948 112.267 144.25 111.648 144.496C111.025 144.741 110.382 144.931 109.726 145.063C109.06 145.207 108.384 145.3 107.705 145.341L107.242 145.369C107.092 145.379 106.954 145.383 106.837 145.396C106.601 145.42 106.442 145.466 106.442 145.556C106.442 145.647 106.563 145.725 106.786 145.745C106.896 145.745 107.032 145.745 107.191 145.745L107.729 145.711C108.802 145.65 109.867 145.487 110.909 145.224C111.95 144.962 112.952 144.561 113.887 144.033C114.829 143.497 115.682 142.818 116.415 142.019C117.163 141.219 117.789 140.312 118.272 139.329C119.069 137.722 119.569 135.984 119.746 134.199C119.832 133.342 119.84 132.479 119.769 131.621C119.699 130.746 119.521 129.883 119.238 129.052C118.926 128.117 118.556 127.202 118.131 126.312C117.709 125.442 117.165 124.636 116.515 123.92C116.113 123.49 115.67 123.099 115.193 122.754C114.736 122.421 114.254 122.124 113.751 121.868C112.71 121.351 111.62 120.938 110.497 120.636C109.717 120.419 108.917 120.285 108.109 120.237C107.331 120.195 106.55 120.205 105.773 120.268C104.192 120.402 102.631 120.724 101.125 121.226C98.1901 122.178 95.7169 124.193 94.191 126.875C93.4343 128.216 92.9489 129.693 92.7625 131.221C92.5651 132.767 92.6483 134.337 93.0081 135.854C93.3315 137.28 93.8713 138.648 94.6085 139.911C94.9854 140.548 95.424 141.147 95.9179 141.698C96.4015 142.247 96.9432 142.742 97.5334 143.174C99.542 144.608 101.815 145.335 104.286 145.6C104.577 145.641 104.867 145.694 105.159 145.723C105.806 145.772 106.448 145.772 106.448 145.596Z" fill="#063844" />
        <path d="M535.762 407.522C538.621 407.522 157.527 405.727 157.527 405.727C187.283 354.39 187.03 399.308 216.783 347.97C228.236 328.21 225.507 301.529 236.942 291.353C264.944 266.431 267.552 250.405 299.324 230.549C313.1 221.936 298.868 184.921 310.241 149.13" fill="white" />
        <path d="M535.762 407.484C535.762 407.499 535.766 407.514 535.773 407.528C535.773 407.528 535.783 407.511 535.773 407.505L535.764 407.493L535.743 407.474C535.7 407.443 535.652 407.419 535.601 407.402C535.417 407.346 535.227 407.308 535.034 407.289C534.541 407.226 533.81 407.186 532.865 407.161C530.976 407.11 528.238 407.114 524.829 407.099C468.691 406.828 414.106 406.272 357.325 405.502C330.366 405.137 304.712 405.488 279.204 405.515C254.091 405.541 232.679 405.325 206.459 405.048L182.213 404.803L159.502 404.614L160.031 403.726C160.548 402.882 161.057 402.019 161.591 401.174L162.385 399.905L163.194 398.646C163.728 397.805 164.288 396.982 164.839 396.151C165.96 394.508 167.107 392.886 168.31 391.31C169.514 389.733 170.767 388.214 172.089 386.77C172.416 386.404 172.764 386.063 173.098 385.706C173.433 385.349 173.792 385.021 174.137 384.678C174.85 384.018 175.566 383.365 176.324 382.781C176.701 382.473 177.079 382.198 177.471 381.912C177.862 381.625 178.255 381.366 178.663 381.123C179.465 380.619 180.301 380.17 181.164 379.781C182.89 379.004 184.726 378.503 186.644 378.074C188.562 377.645 190.568 377.22 192.501 376.498C193.556 376.109 194.581 375.643 195.568 375.105C196.537 374.569 197.471 373.97 198.363 373.313C200.092 372.025 201.704 370.587 203.181 369.014C204.647 367.481 205.998 365.88 207.279 364.249C208.56 362.617 209.773 360.959 210.931 359.28C213.255 355.926 215.396 352.513 217.454 349.08C217.717 348.657 217.966 348.211 218.21 347.769C218.453 347.327 218.722 346.887 218.952 346.441L219.651 345.088L219.825 344.749L219.988 344.405L220.309 343.717C220.755 342.806 221.138 341.869 221.539 340.941C221.728 340.475 221.917 339.993 222.106 339.532L222.382 338.826C222.472 338.589 222.555 338.352 222.641 338.115L223.154 336.688L223.631 335.252C223.793 334.774 223.94 334.292 224.088 333.809C224.235 333.325 224.39 332.845 224.528 332.361C225.095 330.424 225.607 328.47 226.094 326.507C227.058 322.58 227.895 318.609 228.785 314.624C229.233 312.634 229.696 310.64 230.212 308.656C230.727 306.671 231.304 304.7 231.99 302.775C232.656 300.849 233.492 298.987 234.488 297.211C234.985 296.339 235.544 295.504 236.16 294.712L236.271 294.563L236.394 294.422L236.64 294.141L237.127 293.572L237.658 293.056L237.925 292.796L238.057 292.666L238.21 292.527C243.756 287.568 248.999 282.276 253.91 276.681C256.381 273.873 258.775 270.99 261.133 268.091C263.491 265.193 265.815 262.269 268.188 259.407C270.562 256.544 272.984 253.734 275.523 251.039C278.063 248.343 280.723 245.776 283.497 243.342C286.271 240.909 289.165 238.6 292.134 236.433C292.89 235.898 293.625 235.354 294.379 234.825L296.646 233.265C297.402 232.753 298.18 232.256 298.947 231.748C299.335 231.494 299.703 231.262 300.123 230.964C300.225 230.894 300.328 230.826 300.427 230.75L300.716 230.517L301.005 230.281C301.098 230.2 301.194 230.112 301.279 230.029C301.581 229.76 301.846 229.46 302.12 229.16C302.394 228.86 302.634 228.542 302.853 228.212C303.072 227.882 303.289 227.544 303.491 227.204C303.592 227.034 303.68 226.855 303.771 226.683C303.862 226.51 303.96 226.334 304.032 226.153L304.274 225.618L304.489 225.074C304.565 224.894 304.629 224.712 304.689 224.528L304.878 223.977C305.101 223.239 305.307 222.498 305.46 221.75C306.101 218.764 306.294 215.761 306.379 212.791C306.464 209.82 306.394 206.864 306.311 203.922C306.227 200.98 306.122 198.051 306.018 195.12C305.829 189.262 305.731 183.407 305.972 177.53C306.214 171.653 306.783 165.753 307.911 159.888C308.032 159.211 308.181 158.541 308.313 157.879C308.446 157.217 308.604 156.572 308.74 155.944C308.877 155.316 309.035 154.715 309.171 154.144C309.307 153.573 309.449 153.032 309.574 152.535C309.834 151.543 310.039 150.71 310.173 150.126C310.307 149.541 310.339 149.19 310.252 149.164C310.165 149.137 309.982 149.354 309.778 149.807C309.676 150.036 309.562 150.325 309.438 150.668C309.313 151.012 309.19 151.416 309.048 151.871C308.29 154.462 307.665 157.091 307.178 159.747C305.441 168.853 304.945 178.024 304.933 187.095C304.933 191.635 305.039 196.157 305.135 200.667C305.183 202.922 305.224 205.174 305.226 207.42C305.228 209.666 305.196 211.912 305.069 214.143C305.007 215.259 304.914 216.37 304.79 217.476C304.665 218.58 304.5 219.679 304.278 220.758C303.832 222.911 303.163 225.028 302.021 226.829C301.471 227.717 300.783 228.511 299.983 229.181L299.673 229.424L299.52 229.545L299.355 229.655C299.138 229.801 298.928 229.946 298.681 230.101L297.245 231.012C296.767 231.319 296.285 231.615 295.811 231.93L294.394 232.878C293.923 233.197 293.449 233.502 292.978 233.827L291.58 234.806C284.033 240.088 277.132 246.245 271.021 253.15C265.709 259.12 261.006 265.175 256.139 270.838C253.711 273.684 251.253 276.423 248.732 279.075C246.212 281.727 243.631 284.281 241.004 286.754L239.02 288.596L237.008 290.404L236.506 290.856L235.997 291.345L235.489 291.835C235.325 292.002 235.177 292.184 235.02 292.358L234.557 292.886L234.44 293.018L234.336 293.159L234.125 293.44L233.705 294.009C233.635 294.103 233.562 294.198 233.497 294.291L233.309 294.585L232.931 295.172C232.806 295.361 232.674 295.551 232.566 295.765C232.339 296.171 232.107 296.573 231.886 296.981L231.274 298.228C231.085 298.645 230.896 299.074 230.707 299.497C230.004 301.199 229.392 302.938 228.874 304.706C227.838 308.236 227.056 311.831 226.312 315.453C225.567 319.074 224.863 322.73 224.044 326.401C223.559 328.607 223.017 330.724 222.429 332.771C221.841 334.818 221.184 336.787 220.466 338.686L219.918 340.099C219.729 340.562 219.523 341.021 219.328 341.48C219.134 341.939 218.924 342.389 218.714 342.835C218.504 343.28 218.302 343.732 218.076 344.163L217.399 345.464L217.231 345.787L217.042 346.103L216.679 346.735C216.211 347.575 215.689 348.406 215.185 349.235C214.168 350.893 213.123 352.521 212.061 354.143C210.999 355.765 209.898 357.368 208.741 358.954C206.446 362.128 203.976 365.292 201.046 368.232C200.181 369.086 199.297 369.89 198.391 370.643C197.492 371.38 196.545 372.056 195.557 372.666C194.592 373.26 193.581 373.775 192.533 374.206C191.488 374.629 190.415 374.981 189.321 375.257C187.126 375.826 184.787 376.215 182.498 376.993C181.353 377.376 180.24 377.849 179.169 378.41C178.104 378.971 177.082 379.609 176.11 380.32C174.199 381.748 172.427 383.355 170.82 385.12C169.206 386.89 167.682 388.74 166.253 390.663C164.803 392.596 163.418 394.603 162.035 396.677C161.357 397.72 160.667 398.763 159.995 399.845C159.655 400.378 159.314 400.918 158.98 401.465L158.474 402.284L158.203 402.721L157.826 403.362C157.153 404.49 156.482 405.614 155.836 406.701L167.379 406.803C170.625 406.822 173.841 406.83 177.026 406.828C183.409 406.828 189.705 406.792 196.014 406.754C208.632 406.68 221.295 406.59 234.78 406.719C286.437 407.207 334.009 408.709 385.117 408.378C408.12 408.228 432.972 408.59 456.63 408.205C476.7 407.877 496.121 407.712 517.345 407.725L524.839 407.844C527.586 407.858 530.318 407.877 532.38 407.844C533.406 407.829 534.269 407.803 534.861 407.755C535.093 407.742 535.325 407.714 535.554 407.672C535.619 407.661 535.682 407.643 535.743 407.619L535.769 407.603H535.781V407.566C535.781 407.615 535.781 407.6 535.781 407.602H535.766C535.766 407.602 535.735 407.602 535.732 407.543C535.728 407.484 535.768 407.493 535.771 407.49C535.775 407.486 535.786 407.49 535.79 407.49C535.786 407.486 535.782 407.484 535.777 407.483C535.772 407.482 535.767 407.482 535.762 407.484Z" fill="#063844" />
    </g>
    <defs>
        <clipPath id="clip0_1415_3856">
            <rect width="212" height="212" fill="white" transform="translate(0.5)" />
        </clipPath>
    </defs>
</svg>
    