<svg width="306" height="256" viewBox="0 0 306 256" fill="none" xmlns="http://www.w3.org/2000/svg">
<path d="M20 18L20 236" stroke="white" stroke-width="8"/>
<path d="M20 18L20 160" stroke="#BBE0D9" stroke-width="8"/>
<rect x="39" y="1" width="38" height="38" rx="19" transform="rotate(90 39 1)" fill="#BBE0D9"/>
<path d="M16.6662 24.6345L12.0329 20.0011L10.4551 21.5678L16.6662 27.7789L29.9995 14.4456L28.4329 12.8789L16.6662 24.6345Z" fill="#063844"/>
<rect x="39" y="1" width="38" height="38" rx="19" transform="rotate(90 39 1)" stroke="#BBE0D9" stroke-width="2"/>
<path opacity="0.3" d="M62.672 25.304C61.616 25.304 60.7093 25.1227 59.952 24.76C59.1947 24.3867 58.576 23.9013 58.096 23.304C57.616 22.696 57.2587 22.0453 57.024 21.352C56.8 20.648 56.688 19.9653 56.688 19.304V18.952C56.688 18.2267 56.8053 17.512 57.04 16.808C57.2747 16.0933 57.632 15.448 58.112 14.872C58.6027 14.296 59.216 13.8373 59.952 13.496C60.6987 13.144 61.5787 12.968 62.592 12.968C63.648 12.968 64.5813 13.1653 65.392 13.56C66.2027 13.9547 66.848 14.504 67.328 15.208C67.8187 15.9013 68.1067 16.7173 68.192 17.656H65.552C65.4773 17.1867 65.3067 16.7867 65.04 16.456C64.7733 16.1253 64.4267 15.8693 64 15.688C63.584 15.5067 63.1147 15.416 62.592 15.416C62.0693 15.416 61.6053 15.5067 61.2 15.688C60.7947 15.8693 60.4533 16.1253 60.176 16.456C59.9093 16.7867 59.7013 17.1813 59.552 17.64C59.4133 18.088 59.344 18.5893 59.344 19.144C59.344 19.688 59.4133 20.1893 59.552 20.648C59.7013 21.096 59.9147 21.4907 60.192 21.832C60.48 22.1627 60.832 22.4187 61.248 22.6C61.664 22.7707 62.1387 22.856 62.672 22.856C63.4827 22.856 64.1653 22.6587 64.72 22.264C65.2853 21.8693 65.6267 21.3253 65.744 20.632H68.368C68.272 21.4853 67.984 22.2693 67.504 22.984C67.0347 23.688 66.3893 24.2533 65.568 24.68C64.7573 25.096 63.792 25.304 62.672 25.304ZM70.0769 25V13.32H72.6529V25H70.0769ZM69.0369 15.208V13.32H72.6529V15.208H69.0369ZM75.4278 25V16.232H77.9878V25H75.4278ZM74.2598 18.12V16.232H77.9878V18.12H74.2598ZM76.4198 15.368C75.9398 15.368 75.5824 15.2453 75.3478 15C75.1238 14.744 75.0118 14.424 75.0118 14.04C75.0118 13.6453 75.1238 13.3253 75.3478 13.08C75.5824 12.824 75.9398 12.696 76.4198 12.696C76.8998 12.696 77.2518 12.824 77.4758 13.08C77.7104 13.3253 77.8278 13.6453 77.8278 14.04C77.8278 14.424 77.7104 14.744 77.4758 15C77.2518 15.2453 76.8998 15.368 76.4198 15.368ZM84.3715 25.304C83.6248 25.304 82.9635 25.176 82.3875 24.92C81.8222 24.664 81.3475 24.3227 80.9635 23.896C80.5902 23.4587 80.3022 22.9733 80.0995 22.44C79.9075 21.896 79.8115 21.3413 79.8115 20.776V20.456C79.8115 19.8693 79.9075 19.3093 80.0995 18.776C80.3022 18.232 80.5902 17.7467 80.9635 17.32C81.3368 16.8933 81.8008 16.5573 82.3555 16.312C82.9208 16.056 83.5608 15.928 84.2755 15.928C85.2142 15.928 86.0035 16.1413 86.6435 16.568C87.2942 16.984 87.7902 17.5333 88.1315 18.216C88.4728 18.888 88.6435 19.624 88.6435 20.424V21.288H80.8835V19.832H87.0915L86.2595 20.504C86.2595 19.9813 86.1848 19.5333 86.0355 19.16C85.8862 18.7867 85.6622 18.504 85.3635 18.312C85.0755 18.1093 84.7128 18.008 84.2755 18.008C83.8275 18.008 83.4488 18.1093 83.1395 18.312C82.8302 18.5147 82.5955 18.8133 82.4355 19.208C82.2755 19.592 82.1955 20.0667 82.1955 20.632C82.1955 21.1547 82.2702 21.6133 82.4195 22.008C82.5688 22.392 82.8035 22.6907 83.1235 22.904C83.4435 23.1173 83.8595 23.224 84.3715 23.224C84.8408 23.224 85.2248 23.1333 85.5235 22.952C85.8222 22.7707 86.0248 22.5467 86.1315 22.28H88.4835C88.3555 22.8667 88.1048 23.3893 87.7315 23.848C87.3582 24.3067 86.8888 24.664 86.3235 24.92C85.7582 25.176 85.1075 25.304 84.3715 25.304ZM90.3399 25V16.232H92.3719V19.992H92.2279C92.2279 19.096 92.3399 18.3493 92.5639 17.752C92.7985 17.1547 93.1505 16.7067 93.6199 16.408C94.0892 16.1093 94.6599 15.96 95.3319 15.96H95.4439C96.4679 15.96 97.2465 16.296 97.7799 16.968C98.3239 17.6293 98.5959 18.6373 98.5959 19.992V25H96.0359V19.848C96.0359 19.3787 95.8972 18.9947 95.6199 18.696C95.3425 18.3973 94.9692 18.248 94.4999 18.248C94.0199 18.248 93.6305 18.4027 93.3319 18.712C93.0439 19.0107 92.8999 19.4053 92.8999 19.896V25H90.3399ZM104.761 25.112C103.876 25.112 103.161 25.0053 102.617 24.792C102.073 24.568 101.673 24.2 101.417 23.688C101.172 23.1653 101.049 22.4613 101.049 21.576V13.864H103.433V21.672C103.433 22.088 103.54 22.408 103.753 22.632C103.977 22.8453 104.292 22.952 104.697 22.952H105.993V25.112H104.761ZM99.7214 18.104V16.232H105.993V18.104H99.7214ZM111.49 25V16.232H114.05V25H111.49ZM110.322 18.12V16.232H114.05V18.12H110.322ZM112.482 15.368C112.002 15.368 111.645 15.2453 111.41 15C111.186 14.744 111.074 14.424 111.074 14.04C111.074 13.6453 111.186 13.3253 111.41 13.08C111.645 12.824 112.002 12.696 112.482 12.696C112.962 12.696 113.314 12.824 113.538 13.08C113.773 13.3253 113.89 13.6453 113.89 14.04C113.89 14.424 113.773 14.744 113.538 15C113.314 15.2453 112.962 15.368 112.482 15.368ZM119.746 25.272C118.498 25.272 117.522 25.016 116.818 24.504C116.114 23.992 115.741 23.272 115.698 22.344H117.97C118.013 22.6213 118.178 22.872 118.466 23.096C118.765 23.3093 119.207 23.416 119.794 23.416C120.242 23.416 120.61 23.3413 120.898 23.192C121.197 23.032 121.346 22.808 121.346 22.52C121.346 22.264 121.234 22.0613 121.01 21.912C120.786 21.752 120.386 21.64 119.81 21.576L119.122 21.512C118.066 21.4053 117.271 21.112 116.738 20.632C116.215 20.152 115.954 19.5387 115.954 18.792C115.954 18.1733 116.109 17.656 116.418 17.24C116.727 16.824 117.154 16.5093 117.698 16.296C118.253 16.0827 118.882 15.976 119.586 15.976C120.717 15.976 121.629 16.2267 122.322 16.728C123.015 17.2187 123.378 17.9333 123.41 18.872H121.138C121.095 18.584 120.946 18.344 120.69 18.152C120.434 17.9493 120.055 17.848 119.554 17.848C119.159 17.848 118.845 17.9227 118.61 18.072C118.375 18.2213 118.258 18.424 118.258 18.68C118.258 18.9253 118.359 19.112 118.562 19.24C118.765 19.368 119.095 19.4587 119.554 19.512L120.242 19.576C121.319 19.6933 122.157 19.992 122.754 20.472C123.351 20.952 123.65 21.5973 123.65 22.408C123.65 22.9947 123.49 23.5067 123.17 23.944C122.85 24.3707 122.397 24.7013 121.81 24.936C121.223 25.16 120.535 25.272 119.746 25.272ZM132.684 25.304C131.937 25.304 131.276 25.176 130.7 24.92C130.135 24.664 129.66 24.3227 129.276 23.896C128.903 23.4587 128.615 22.9733 128.412 22.44C128.22 21.896 128.124 21.3413 128.124 20.776V20.456C128.124 19.8693 128.22 19.3093 128.412 18.776C128.615 18.232 128.903 17.7467 129.276 17.32C129.649 16.8933 130.113 16.5573 130.668 16.312C131.233 16.056 131.873 15.928 132.588 15.928C133.527 15.928 134.316 16.1413 134.956 16.568C135.607 16.984 136.103 17.5333 136.444 18.216C136.785 18.888 136.956 19.624 136.956 20.424V21.288H129.196V19.832H135.404L134.572 20.504C134.572 19.9813 134.497 19.5333 134.348 19.16C134.199 18.7867 133.975 18.504 133.676 18.312C133.388 18.1093 133.025 18.008 132.588 18.008C132.14 18.008 131.761 18.1093 131.452 18.312C131.143 18.5147 130.908 18.8133 130.748 19.208C130.588 19.592 130.508 20.0667 130.508 20.632C130.508 21.1547 130.583 21.6133 130.732 22.008C130.881 22.392 131.116 22.6907 131.436 22.904C131.756 23.1173 132.172 23.224 132.684 23.224C133.153 23.224 133.537 23.1333 133.836 22.952C134.135 22.7707 134.337 22.5467 134.444 22.28H136.796C136.668 22.8667 136.417 23.3893 136.044 23.848C135.671 24.3067 135.201 24.664 134.636 24.92C134.071 25.176 133.42 25.304 132.684 25.304ZM138.764 25V13.32H141.34V25H138.764ZM137.724 15.208V13.32H141.34V15.208H137.724ZM144.115 25V16.232H146.675V25H144.115ZM142.947 18.12V16.232H146.675V18.12H142.947ZM145.107 15.368C144.627 15.368 144.27 15.2453 144.035 15C143.811 14.744 143.699 14.424 143.699 14.04C143.699 13.6453 143.811 13.3253 144.035 13.08C144.27 12.824 144.627 12.696 145.107 12.696C145.587 12.696 145.939 12.824 146.163 13.08C146.398 13.3253 146.515 13.6453 146.515 14.04C146.515 14.424 146.398 14.744 146.163 15C145.939 15.2453 145.587 15.368 145.107 15.368ZM152.499 28.488C152.072 28.488 151.635 28.472 151.187 28.44C150.739 28.408 150.328 28.3653 149.955 28.312V26.152C150.328 26.2053 150.739 26.248 151.187 26.28C151.646 26.3227 152.062 26.344 152.435 26.344C153.128 26.344 153.688 26.264 154.115 26.104C154.552 25.944 154.872 25.6987 155.075 25.368C155.278 25.048 155.379 24.632 155.379 24.12V22.376L155.843 21.352C155.822 22.1307 155.667 22.7973 155.379 23.352C155.102 23.9067 154.712 24.3333 154.211 24.632C153.71 24.92 153.112 25.064 152.419 25.064C151.822 25.064 151.278 24.9573 150.787 24.744C150.307 24.52 149.896 24.2107 149.555 23.816C149.214 23.4213 148.952 22.9627 148.771 22.44C148.59 21.9067 148.499 21.3307 148.499 20.712V20.344C148.499 19.7253 148.595 19.1493 148.787 18.616C148.979 18.0827 149.256 17.6187 149.619 17.224C149.982 16.8293 150.414 16.5253 150.915 16.312C151.416 16.088 151.971 15.976 152.579 15.976C153.283 15.976 153.891 16.1307 154.403 16.44C154.926 16.7493 155.336 17.2027 155.635 17.8C155.934 18.3973 156.094 19.1173 156.115 19.96L155.763 20.056V16.232H157.795V23.96C157.795 25.0373 157.603 25.9067 157.219 26.568C156.835 27.2293 156.248 27.7147 155.459 28.024C154.68 28.3333 153.694 28.488 152.499 28.488ZM153.219 22.904C153.614 22.904 153.971 22.8187 154.291 22.648C154.611 22.4667 154.862 22.2107 155.043 21.88C155.235 21.5493 155.331 21.1493 155.331 20.68V20.216C155.331 19.7573 155.23 19.3733 155.027 19.064C154.835 18.744 154.579 18.504 154.259 18.344C153.939 18.1733 153.598 18.088 153.235 18.088C152.808 18.088 152.43 18.1893 152.099 18.392C151.768 18.5947 151.512 18.8773 151.331 19.24C151.15 19.6027 151.059 20.0293 151.059 20.52C151.059 21.0213 151.15 21.4533 151.331 21.816C151.523 22.168 151.779 22.44 152.099 22.632C152.43 22.8133 152.803 22.904 153.219 22.904ZM160.428 25V16.232H162.988V25H160.428ZM159.26 18.12V16.232H162.988V18.12H159.26ZM161.42 15.368C160.94 15.368 160.582 15.2453 160.348 15C160.124 14.744 160.012 14.424 160.012 14.04C160.012 13.6453 160.124 13.3253 160.348 13.08C160.582 12.824 160.94 12.696 161.42 12.696C161.9 12.696 162.252 12.824 162.476 13.08C162.71 13.3253 162.828 13.6453 162.828 14.04C162.828 14.424 162.71 14.744 162.476 15C162.252 15.2453 161.9 15.368 161.42 15.368ZM170.748 25.288C170.033 25.288 169.404 25.1387 168.86 24.84C168.316 24.5307 167.889 24.088 167.58 23.512C167.27 22.936 167.105 22.232 167.084 21.4H167.388V25H165.356V13.32H167.916V19.256L167.308 20.024C167.34 19.1387 167.505 18.3973 167.804 17.8C168.113 17.192 168.534 16.7387 169.068 16.44C169.601 16.1307 170.209 15.976 170.892 15.976C171.489 15.976 172.028 16.088 172.508 16.312C172.998 16.5253 173.414 16.8347 173.756 17.24C174.097 17.6347 174.358 18.104 174.54 18.648C174.732 19.192 174.828 19.784 174.828 20.424V20.776C174.828 21.416 174.732 22.008 174.54 22.552C174.358 23.096 174.086 23.576 173.724 23.992C173.372 24.3973 172.945 24.7173 172.444 24.952C171.942 25.176 171.377 25.288 170.748 25.288ZM170.076 23.144C170.513 23.144 170.892 23.0373 171.212 22.824C171.542 22.6107 171.798 22.312 171.98 21.928C172.161 21.5333 172.252 21.0907 172.252 20.6C172.252 20.0987 172.161 19.6613 171.98 19.288C171.798 18.9147 171.542 18.6267 171.212 18.424C170.892 18.2107 170.513 18.104 170.076 18.104C169.692 18.104 169.329 18.1947 168.988 18.376C168.646 18.5573 168.369 18.8187 168.156 19.16C167.953 19.4907 167.852 19.896 167.852 20.376V20.968C167.852 21.4267 167.958 21.8213 168.172 22.152C168.396 22.472 168.678 22.7173 169.02 22.888C169.361 23.0587 169.713 23.144 170.076 23.144ZM176.718 25V13.32H179.294V25H176.718ZM175.678 15.208V13.32H179.294V15.208H175.678ZM185.668 25.304C184.922 25.304 184.26 25.176 183.684 24.92C183.119 24.664 182.644 24.3227 182.26 23.896C181.887 23.4587 181.599 22.9733 181.396 22.44C181.204 21.896 181.108 21.3413 181.108 20.776V20.456C181.108 19.8693 181.204 19.3093 181.396 18.776C181.599 18.232 181.887 17.7467 182.26 17.32C182.634 16.8933 183.098 16.5573 183.652 16.312C184.218 16.056 184.858 15.928 185.572 15.928C186.511 15.928 187.3 16.1413 187.94 16.568C188.591 16.984 189.087 17.5333 189.428 18.216C189.77 18.888 189.94 19.624 189.94 20.424V21.288H182.18V19.832H188.388L187.556 20.504C187.556 19.9813 187.482 19.5333 187.332 19.16C187.183 18.7867 186.959 18.504 186.66 18.312C186.372 18.1093 186.01 18.008 185.572 18.008C185.124 18.008 184.746 18.1093 184.436 18.312C184.127 18.5147 183.892 18.8133 183.732 19.208C183.572 19.592 183.492 20.0667 183.492 20.632C183.492 21.1547 183.567 21.6133 183.716 22.008C183.866 22.392 184.1 22.6907 184.42 22.904C184.74 23.1173 185.156 23.224 185.668 23.224C186.138 23.224 186.522 23.1333 186.82 22.952C187.119 22.7707 187.322 22.5467 187.428 22.28H189.78C189.652 22.8667 189.402 23.3893 189.028 23.848C188.655 24.3067 188.186 24.664 187.62 24.92C187.055 25.176 186.404 25.304 185.668 25.304ZM191.701 21.048V13.32H194.325V21.048H191.701ZM191.509 25V22.424H194.517V25H191.509Z" fill="white"/>
<rect x="40" y="72" width="40" height="40" rx="20" transform="rotate(90 40 72)" fill="#BBE0D9"/>
<circle cx="20" cy="92" r="10" fill="#063844"/>
<path d="M57.38 101V83.888H69.164V87.836H62.228V90.608H68.84V94.196H62.228V97.052H69.296V101H57.38ZM71.4958 101V88.988L75.2278 88.784L75.4198 90.788H75.7798C76.1957 90.172 76.7118 89.66 77.3278 89.252C77.9438 88.836 78.6878 88.628 79.5598 88.628C80.3678 88.628 81.0118 88.816 81.4918 89.192C81.9798 89.56 82.3318 90.096 82.5478 90.8H82.7998C83.2398 90.184 83.7798 89.668 84.4198 89.252C85.0598 88.836 85.8318 88.628 86.7358 88.628C87.8798 88.628 88.7598 88.984 89.3758 89.696C89.9998 90.4 90.3118 91.456 90.3118 92.864V101H85.8238V94.376C85.8238 93.816 85.7438 93.396 85.5838 93.116C85.4238 92.828 85.1398 92.684 84.7318 92.684C84.4038 92.684 84.1078 92.784 83.8438 92.984C83.5798 93.184 83.3478 93.428 83.1478 93.716V101H78.6718V94.376C78.6718 93.816 78.5918 93.396 78.4318 93.116C78.2718 92.828 77.9838 92.684 77.5678 92.684C77.2318 92.684 76.9278 92.792 76.6558 93.008C76.3918 93.224 76.1638 93.48 75.9718 93.776V101H71.4958ZM95.2209 101.312C94.1649 101.312 93.3529 100.984 92.7849 100.328C92.2249 99.672 91.9449 98.856 91.9449 97.88C91.9449 97.184 92.0689 96.608 92.3169 96.152C92.5649 95.688 92.8809 95.316 93.2649 95.036C93.6569 94.748 94.0689 94.532 94.5009 94.388C94.9329 94.236 95.3329 94.128 95.7009 94.064L98.9049 93.524C98.9449 92.684 98.2249 92.264 96.7449 92.264C96.1929 92.264 95.5569 92.348 94.8369 92.516C94.1169 92.684 93.3969 92.944 92.6769 93.296L92.4849 89.564C93.0849 89.364 93.8649 89.16 94.8249 88.952C95.7849 88.736 96.8489 88.628 98.0169 88.628C99.5609 88.628 100.765 88.972 101.629 89.66C102.501 90.34 102.937 91.448 102.937 92.984V101H99.2409L98.9409 99.32H98.6409C98.3289 99.84 97.8889 100.304 97.3209 100.712C96.7609 101.112 96.0609 101.312 95.2209 101.312ZM97.2009 97.904C97.4969 97.904 97.7849 97.804 98.0649 97.604C98.3449 97.396 98.5849 97.124 98.7849 96.788V95.024C98.6649 95.136 98.5049 95.236 98.3049 95.324C98.1049 95.404 97.7529 95.508 97.2489 95.636C96.9449 95.716 96.6889 95.856 96.4809 96.056C96.2729 96.256 96.1689 96.532 96.1689 96.884C96.1689 97.252 96.2769 97.516 96.4929 97.676C96.7089 97.828 96.9449 97.904 97.2009 97.904ZM105.178 101V88.988L109.654 88.868V101H105.178ZM107.398 87.644C106.598 87.644 105.966 87.464 105.502 87.104C105.038 86.744 104.806 86.148 104.806 85.316C104.806 84.596 105.038 84.04 105.502 83.648C105.974 83.248 106.614 83.048 107.422 83.048C108.222 83.048 108.854 83.256 109.318 83.672C109.782 84.08 110.014 84.628 110.014 85.316C110.014 86.148 109.782 86.744 109.318 87.104C108.854 87.464 108.214 87.644 107.398 87.644ZM112.043 101V83.396L116.519 83.048V101H112.043ZM123.482 101V88.988L127.958 88.868V101H123.482ZM125.702 87.644C124.902 87.644 124.27 87.464 123.806 87.104C123.342 86.744 123.11 86.148 123.11 85.316C123.11 84.596 123.342 84.04 123.806 83.648C124.278 83.248 124.918 83.048 125.726 83.048C126.526 83.048 127.158 83.256 127.622 83.672C128.086 84.08 128.318 84.628 128.318 85.316C128.318 86.148 128.086 86.744 127.622 87.104C127.158 87.464 126.518 87.644 125.702 87.644ZM130.347 101V88.988L134.079 88.784L134.271 90.788H134.631C135.055 90.18 135.583 89.668 136.215 89.252C136.847 88.836 137.611 88.628 138.507 88.628C139.675 88.628 140.575 88.98 141.207 89.684C141.839 90.388 142.155 91.448 142.155 92.864V101H137.679V94.376C137.679 93.816 137.595 93.396 137.427 93.116C137.259 92.828 136.955 92.684 136.515 92.684C136.155 92.684 135.835 92.792 135.555 93.008C135.275 93.216 135.031 93.472 134.823 93.776V101H130.347ZM147.169 101C146.913 100.248 146.649 99.488 146.377 98.72C146.113 97.952 145.853 97.196 145.597 96.452L144.865 94.328C144.553 93.44 144.241 92.552 143.929 91.664C143.625 90.768 143.321 89.876 143.017 88.988L147.853 88.856C148.013 89.608 148.169 90.36 148.321 91.112C148.481 91.856 148.641 92.604 148.801 93.356L149.401 96.188H149.749L150.349 93.344C150.517 92.568 150.677 91.816 150.829 91.088C150.989 90.36 151.141 89.66 151.285 88.988H156.049C155.745 89.876 155.437 90.772 155.125 91.676C154.821 92.572 154.513 93.464 154.201 94.352L153.469 96.488C153.205 97.248 152.945 98.004 152.689 98.756C152.433 99.5 152.177 100.248 151.921 101H147.169ZM157.49 101V88.988L161.966 88.868V101H157.49ZM159.71 87.644C158.91 87.644 158.278 87.464 157.814 87.104C157.35 86.744 157.118 86.148 157.118 85.316C157.118 84.596 157.35 84.04 157.814 83.648C158.286 83.248 158.926 83.048 159.734 83.048C160.534 83.048 161.166 83.256 161.63 83.672C162.094 84.08 162.326 84.628 162.326 85.316C162.326 86.148 162.094 86.744 161.63 87.104C161.166 87.464 160.526 87.644 159.71 87.644ZM169.815 101.348C168.415 101.348 167.315 101.044 166.515 100.436C165.715 99.82 165.315 98.752 165.315 97.232V92.312H163.563V88.988H165.315V85.088L169.731 84.332V88.988H172.959V92.312H169.731V95.732C169.731 96.388 169.835 96.888 170.043 97.232C170.259 97.576 170.631 97.748 171.159 97.748C171.383 97.748 171.635 97.708 171.915 97.628C172.195 97.54 172.479 97.4 172.767 97.208L172.995 100.772C172.651 100.964 172.179 101.108 171.579 101.204C170.979 101.3 170.391 101.348 169.815 101.348ZM180.969 101.348C179.353 101.348 178.037 101.076 177.021 100.532C176.013 99.988 175.273 99.24 174.801 98.288C174.329 97.328 174.093 96.224 174.093 94.976C174.093 93.736 174.309 92.64 174.741 91.688C175.173 90.728 175.829 89.98 176.709 89.444C177.597 88.9 178.713 88.628 180.057 88.628C181.769 88.628 183.097 89.068 184.041 89.948C184.993 90.82 185.469 92.188 185.469 94.052C185.469 94.388 185.457 94.684 185.433 94.94C185.417 95.188 185.389 95.436 185.349 95.684H178.413C178.525 96.34 178.829 96.844 179.325 97.196C179.829 97.54 180.565 97.712 181.533 97.712C181.957 97.712 182.521 97.644 183.225 97.508C183.929 97.372 184.565 97.168 185.133 96.896L185.277 100.604C184.805 100.804 184.209 100.976 183.489 101.12C182.769 101.272 181.929 101.348 180.969 101.348ZM180.105 91.592C179.681 91.592 179.309 91.768 178.989 92.12C178.669 92.472 178.473 92.988 178.401 93.668L181.593 93.572C181.569 92.964 181.417 92.484 181.137 92.132C180.865 91.772 180.521 91.592 180.105 91.592ZM196.084 101.348C195.084 101.348 194.2 101.272 193.432 101.12C192.672 100.968 192.04 100.78 191.536 100.556L191.8 96.92C192.32 97.264 192.936 97.54 193.648 97.748C194.36 97.956 195.024 98.06 195.64 98.06C196.032 98.06 196.348 98.004 196.588 97.892C196.828 97.772 196.948 97.552 196.948 97.232C196.948 96.952 196.788 96.744 196.468 96.608C196.156 96.464 195.592 96.292 194.776 96.092C193.632 95.804 192.8 95.388 192.28 94.844C191.76 94.292 191.5 93.532 191.5 92.564C191.5 91.34 191.904 90.384 192.712 89.696C193.528 89 194.672 88.652 196.144 88.652C197.128 88.652 198.028 88.74 198.844 88.916C199.66 89.092 200.308 89.276 200.788 89.468L200.512 93.152C200.144 92.912 199.744 92.716 199.312 92.564C198.88 92.404 198.468 92.288 198.076 92.216C197.692 92.136 197.384 92.096 197.152 92.096C196.84 92.096 196.584 92.16 196.384 92.288C196.192 92.408 196.096 92.596 196.096 92.852C196.096 93.108 196.2 93.324 196.408 93.5C196.624 93.668 197.076 93.84 197.764 94.016C199.124 94.368 200.084 94.784 200.644 95.264C201.212 95.736 201.496 96.444 201.496 97.388C201.496 98.572 201.072 99.528 200.224 100.256C199.376 100.984 197.996 101.348 196.084 101.348ZM209.492 101.348C207.876 101.348 206.56 101.076 205.544 100.532C204.536 99.988 203.796 99.24 203.324 98.288C202.852 97.328 202.616 96.224 202.616 94.976C202.616 93.736 202.832 92.64 203.264 91.688C203.696 90.728 204.352 89.98 205.232 89.444C206.12 88.9 207.236 88.628 208.58 88.628C210.292 88.628 211.62 89.068 212.564 89.948C213.516 90.82 213.992 92.188 213.992 94.052C213.992 94.388 213.98 94.684 213.956 94.94C213.94 95.188 213.912 95.436 213.872 95.684H206.936C207.048 96.34 207.352 96.844 207.848 97.196C208.352 97.54 209.088 97.712 210.056 97.712C210.48 97.712 211.044 97.644 211.748 97.508C212.452 97.372 213.088 97.168 213.656 96.896L213.8 100.604C213.328 100.804 212.732 100.976 212.012 101.12C211.292 101.272 210.452 101.348 209.492 101.348ZM208.628 91.592C208.204 91.592 207.832 91.768 207.512 92.12C207.192 92.472 206.996 92.988 206.924 93.668L210.116 93.572C210.092 92.964 209.94 92.484 209.66 92.132C209.388 91.772 209.044 91.592 208.628 91.592ZM215.777 101V88.988L219.509 88.784L219.701 90.788H220.061C220.485 90.18 221.013 89.668 221.645 89.252C222.277 88.836 223.041 88.628 223.937 88.628C225.105 88.628 226.005 88.98 226.637 89.684C227.269 90.388 227.585 91.448 227.585 92.864V101H223.109V94.376C223.109 93.816 223.025 93.396 222.857 93.116C222.689 92.828 222.385 92.684 221.945 92.684C221.585 92.684 221.265 92.792 220.985 93.008C220.705 93.216 220.461 93.472 220.253 93.776V101H215.777ZM235.182 101.348C233.782 101.348 232.682 101.044 231.882 100.436C231.082 99.82 230.682 98.752 230.682 97.232V92.312H228.93V88.988H230.682V85.088L235.098 84.332V88.988H238.326V92.312H235.098V95.732C235.098 96.388 235.202 96.888 235.41 97.232C235.626 97.576 235.998 97.748 236.526 97.748C236.75 97.748 237.002 97.708 237.282 97.628C237.562 97.54 237.846 97.4 238.134 97.208L238.362 100.772C238.018 100.964 237.546 101.108 236.946 101.204C236.346 101.3 235.758 101.348 235.182 101.348Z" fill="white"/>
<rect x="40" y="144" width="40" height="40" rx="20" transform="rotate(90 40 144)" fill="white"/>
<path d="M62.672 169.304C61.616 169.304 60.7093 169.123 59.952 168.76C59.1947 168.387 58.576 167.901 58.096 167.304C57.616 166.696 57.2587 166.045 57.024 165.352C56.8 164.648 56.688 163.965 56.688 163.304V162.952C56.688 162.227 56.8053 161.512 57.04 160.808C57.2747 160.093 57.632 159.448 58.112 158.872C58.6027 158.296 59.216 157.837 59.952 157.496C60.6987 157.144 61.5787 156.968 62.592 156.968C63.648 156.968 64.5813 157.165 65.392 157.56C66.2027 157.955 66.848 158.504 67.328 159.208C67.8187 159.901 68.1067 160.717 68.192 161.656H65.552C65.4773 161.187 65.3067 160.787 65.04 160.456C64.7733 160.125 64.4267 159.869 64 159.688C63.584 159.507 63.1147 159.416 62.592 159.416C62.0693 159.416 61.6053 159.507 61.2 159.688C60.7947 159.869 60.4533 160.125 60.176 160.456C59.9093 160.787 59.7013 161.181 59.552 161.64C59.4133 162.088 59.344 162.589 59.344 163.144C59.344 163.688 59.4133 164.189 59.552 164.648C59.7013 165.096 59.9147 165.491 60.192 165.832C60.48 166.163 60.832 166.419 61.248 166.6C61.664 166.771 62.1387 166.856 62.672 166.856C63.4827 166.856 64.1653 166.659 64.72 166.264C65.2853 165.869 65.6267 165.325 65.744 164.632H68.368C68.272 165.485 67.984 166.269 67.504 166.984C67.0347 167.688 66.3893 168.253 65.568 168.68C64.7573 169.096 63.792 169.304 62.672 169.304ZM70.0769 169V157.32H72.6529V169H70.0769ZM69.0369 159.208V157.32H72.6529V159.208H69.0369ZM75.4278 169V160.232H77.9878V169H75.4278ZM74.2598 162.12V160.232H77.9878V162.12H74.2598ZM76.4198 159.368C75.9398 159.368 75.5824 159.245 75.3478 159C75.1238 158.744 75.0118 158.424 75.0118 158.04C75.0118 157.645 75.1238 157.325 75.3478 157.08C75.5824 156.824 75.9398 156.696 76.4198 156.696C76.8998 156.696 77.2518 156.824 77.4758 157.08C77.7104 157.325 77.8278 157.645 77.8278 158.04C77.8278 158.424 77.7104 158.744 77.4758 159C77.2518 159.245 76.8998 159.368 76.4198 159.368ZM84.3715 169.304C83.6248 169.304 82.9635 169.176 82.3875 168.92C81.8222 168.664 81.3475 168.323 80.9635 167.896C80.5902 167.459 80.3022 166.973 80.0995 166.44C79.9075 165.896 79.8115 165.341 79.8115 164.776V164.456C79.8115 163.869 79.9075 163.309 80.0995 162.776C80.3022 162.232 80.5902 161.747 80.9635 161.32C81.3368 160.893 81.8008 160.557 82.3555 160.312C82.9208 160.056 83.5608 159.928 84.2755 159.928C85.2142 159.928 86.0035 160.141 86.6435 160.568C87.2942 160.984 87.7902 161.533 88.1315 162.216C88.4728 162.888 88.6435 163.624 88.6435 164.424V165.288H80.8835V163.832H87.0915L86.2595 164.504C86.2595 163.981 86.1848 163.533 86.0355 163.16C85.8862 162.787 85.6622 162.504 85.3635 162.312C85.0755 162.109 84.7128 162.008 84.2755 162.008C83.8275 162.008 83.4488 162.109 83.1395 162.312C82.8302 162.515 82.5955 162.813 82.4355 163.208C82.2755 163.592 82.1955 164.067 82.1955 164.632C82.1955 165.155 82.2702 165.613 82.4195 166.008C82.5688 166.392 82.8035 166.691 83.1235 166.904C83.4435 167.117 83.8595 167.224 84.3715 167.224C84.8408 167.224 85.2248 167.133 85.5235 166.952C85.8222 166.771 86.0248 166.547 86.1315 166.28H88.4835C88.3555 166.867 88.1048 167.389 87.7315 167.848C87.3582 168.307 86.8888 168.664 86.3235 168.92C85.7582 169.176 85.1075 169.304 84.3715 169.304ZM90.3399 169V160.232H92.3719V163.992H92.2279C92.2279 163.096 92.3399 162.349 92.5639 161.752C92.7985 161.155 93.1505 160.707 93.6199 160.408C94.0892 160.109 94.6599 159.96 95.3319 159.96H95.4439C96.4679 159.96 97.2465 160.296 97.7799 160.968C98.3239 161.629 98.5959 162.637 98.5959 163.992V169H96.0359V163.848C96.0359 163.379 95.8972 162.995 95.6199 162.696C95.3425 162.397 94.9692 162.248 94.4999 162.248C94.0199 162.248 93.6305 162.403 93.3319 162.712C93.0439 163.011 92.8999 163.405 92.8999 163.896V169H90.3399ZM104.761 169.112C103.876 169.112 103.161 169.005 102.617 168.792C102.073 168.568 101.673 168.2 101.417 167.688C101.172 167.165 101.049 166.461 101.049 165.576V157.864H103.433V165.672C103.433 166.088 103.54 166.408 103.753 166.632C103.977 166.845 104.292 166.952 104.697 166.952H105.993V169.112H104.761ZM99.7214 162.104V160.232H105.993V162.104H99.7214ZM115.01 169.304C114.253 169.304 113.592 169.181 113.026 168.936C112.472 168.68 112.008 168.339 111.634 167.912C111.261 167.485 110.984 167.005 110.802 166.472C110.621 165.928 110.53 165.368 110.53 164.792V164.488C110.53 163.891 110.626 163.32 110.818 162.776C111.01 162.221 111.293 161.731 111.666 161.304C112.04 160.877 112.504 160.541 113.058 160.296C113.624 160.051 114.269 159.928 114.994 159.928C115.784 159.928 116.482 160.083 117.09 160.392C117.698 160.691 118.184 161.112 118.546 161.656C118.909 162.2 119.112 162.824 119.154 163.528H116.642C116.6 163.133 116.44 162.803 116.162 162.536C115.896 162.259 115.506 162.12 114.994 162.12C114.568 162.12 114.21 162.227 113.922 162.44C113.645 162.653 113.437 162.947 113.298 163.32C113.16 163.693 113.09 164.136 113.09 164.648C113.09 165.117 113.154 165.544 113.282 165.928C113.41 166.301 113.613 166.595 113.89 166.808C114.178 167.011 114.552 167.112 115.01 167.112C115.352 167.112 115.64 167.053 115.874 166.936C116.12 166.808 116.312 166.637 116.45 166.424C116.6 166.2 116.69 165.944 116.722 165.656H119.218C119.186 166.381 118.984 167.021 118.61 167.576C118.237 168.12 117.741 168.547 117.122 168.856C116.504 169.155 115.8 169.304 115.01 169.304ZM125.128 169.304C124.36 169.304 123.677 169.187 123.08 168.952C122.482 168.707 121.976 168.376 121.56 167.96C121.154 167.544 120.845 167.069 120.632 166.536C120.418 165.992 120.312 165.421 120.312 164.824V164.456C120.312 163.848 120.418 163.272 120.632 162.728C120.856 162.173 121.176 161.688 121.592 161.272C122.018 160.856 122.53 160.531 123.128 160.296C123.725 160.051 124.392 159.928 125.128 159.928C125.885 159.928 126.557 160.051 127.144 160.296C127.741 160.531 128.248 160.856 128.664 161.272C129.08 161.688 129.4 162.173 129.624 162.728C129.848 163.272 129.96 163.848 129.96 164.456V164.824C129.96 165.421 129.853 165.992 129.64 166.536C129.426 167.069 129.112 167.544 128.696 167.96C128.29 168.376 127.789 168.707 127.192 168.952C126.594 169.187 125.906 169.304 125.128 169.304ZM125.128 167.144C125.629 167.144 126.045 167.037 126.376 166.824C126.706 166.611 126.957 166.312 127.128 165.928C127.309 165.544 127.4 165.117 127.4 164.648C127.4 164.147 127.309 163.709 127.128 163.336C126.946 162.952 126.685 162.648 126.344 162.424C126.013 162.2 125.608 162.088 125.128 162.088C124.658 162.088 124.253 162.2 123.911 162.424C123.57 162.648 123.309 162.952 123.128 163.336C122.957 163.709 122.872 164.147 122.872 164.648C122.872 165.117 122.957 165.544 123.128 165.928C123.298 166.312 123.554 166.611 123.896 166.824C124.237 167.037 124.648 167.144 125.128 167.144ZM131.746 169V160.232H133.778V164.008H133.634C133.634 163.112 133.746 162.365 133.97 161.768C134.194 161.171 134.53 160.723 134.978 160.424C135.426 160.115 135.975 159.96 136.626 159.96H136.738C137.399 159.96 137.949 160.115 138.386 160.424C138.834 160.723 139.17 161.171 139.394 161.768C139.629 162.365 139.746 163.112 139.746 164.008H139.122C139.122 163.112 139.234 162.365 139.458 161.768C139.693 161.171 140.034 160.723 140.482 160.424C140.93 160.115 141.479 159.96 142.13 159.96H142.242C142.903 159.96 143.458 160.115 143.906 160.424C144.365 160.723 144.711 161.171 144.946 161.768C145.181 162.365 145.298 163.112 145.298 164.008V169H142.738V163.864C142.738 163.384 142.61 162.995 142.354 162.696C142.109 162.397 141.757 162.248 141.298 162.248C140.839 162.248 140.477 162.403 140.21 162.712C139.943 163.011 139.81 163.411 139.81 163.912V169H137.234V163.864C137.234 163.384 137.106 162.995 136.85 162.696C136.605 162.397 136.258 162.248 135.81 162.248C135.341 162.248 134.973 162.403 134.706 162.712C134.439 163.011 134.306 163.411 134.306 163.912V169H131.746ZM147.481 172.2V160.232H149.513V164.024L149.241 164.008C149.283 163.133 149.465 162.397 149.785 161.8C150.105 161.192 150.537 160.739 151.081 160.44C151.625 160.131 152.238 159.976 152.921 159.976C153.529 159.976 154.078 160.088 154.569 160.312C155.07 160.536 155.497 160.851 155.849 161.256C156.211 161.651 156.483 162.12 156.665 162.664C156.857 163.197 156.953 163.784 156.953 164.424V164.792C156.953 165.421 156.862 166.013 156.681 166.568C156.499 167.112 156.233 167.587 155.881 167.992C155.539 168.397 155.118 168.717 154.617 168.952C154.126 169.176 153.561 169.288 152.921 169.288C152.259 169.288 151.662 169.155 151.129 168.888C150.606 168.611 150.185 168.195 149.865 167.64C149.545 167.075 149.369 166.36 149.337 165.496L150.041 166.456V172.2H147.481ZM152.201 167.144C152.638 167.144 153.017 167.037 153.337 166.824C153.667 166.611 153.923 166.312 154.105 165.928C154.286 165.544 154.377 165.101 154.377 164.6C154.377 164.099 154.286 163.661 154.105 163.288C153.923 162.915 153.673 162.627 153.353 162.424C153.033 162.211 152.649 162.104 152.201 162.104C151.817 162.104 151.454 162.195 151.113 162.376C150.771 162.557 150.494 162.819 150.281 163.16C150.078 163.491 149.977 163.896 149.977 164.376V164.968C149.977 165.427 150.083 165.821 150.297 166.152C150.521 166.472 150.803 166.717 151.145 166.888C151.486 167.059 151.838 167.144 152.201 167.144ZM158.843 169V157.32H161.419V169H158.843ZM157.803 159.208V157.32H161.419V159.208H157.803ZM167.793 169.304C167.047 169.304 166.385 169.176 165.809 168.92C165.244 168.664 164.769 168.323 164.385 167.896C164.012 167.459 163.724 166.973 163.521 166.44C163.329 165.896 163.233 165.341 163.233 164.776V164.456C163.233 163.869 163.329 163.309 163.521 162.776C163.724 162.232 164.012 161.747 164.385 161.32C164.759 160.893 165.223 160.557 165.777 160.312C166.343 160.056 166.983 159.928 167.697 159.928C168.636 159.928 169.425 160.141 170.065 160.568C170.716 160.984 171.212 161.533 171.553 162.216C171.895 162.888 172.065 163.624 172.065 164.424V165.288H164.305V163.832H170.513L169.681 164.504C169.681 163.981 169.607 163.533 169.457 163.16C169.308 162.787 169.084 162.504 168.785 162.312C168.497 162.109 168.135 162.008 167.697 162.008C167.249 162.008 166.871 162.109 166.561 162.312C166.252 162.515 166.017 162.813 165.857 163.208C165.697 163.592 165.617 164.067 165.617 164.632C165.617 165.155 165.692 165.613 165.841 166.008C165.991 166.392 166.225 166.691 166.545 166.904C166.865 167.117 167.281 167.224 167.793 167.224C168.263 167.224 168.647 167.133 168.945 166.952C169.244 166.771 169.447 166.547 169.553 166.28H171.905C171.777 166.867 171.527 167.389 171.153 167.848C170.78 168.307 170.311 168.664 169.745 168.92C169.18 169.176 168.529 169.304 167.793 169.304ZM177.746 169.112C176.86 169.112 176.146 169.005 175.602 168.792C175.058 168.568 174.658 168.2 174.402 167.688C174.156 167.165 174.034 166.461 174.034 165.576V157.864H176.418V165.672C176.418 166.088 176.524 166.408 176.738 166.632C176.962 166.845 177.276 166.952 177.682 166.952H178.978V169.112H177.746ZM172.706 162.104V160.232H178.978V162.104H172.706ZM184.684 169.304C183.937 169.304 183.276 169.176 182.7 168.92C182.135 168.664 181.66 168.323 181.276 167.896C180.903 167.459 180.615 166.973 180.412 166.44C180.22 165.896 180.124 165.341 180.124 164.776V164.456C180.124 163.869 180.22 163.309 180.412 162.776C180.615 162.232 180.903 161.747 181.276 161.32C181.649 160.893 182.113 160.557 182.668 160.312C183.233 160.056 183.873 159.928 184.588 159.928C185.527 159.928 186.316 160.141 186.956 160.568C187.607 160.984 188.103 161.533 188.444 162.216C188.785 162.888 188.956 163.624 188.956 164.424V165.288H181.196V163.832H187.404L186.572 164.504C186.572 163.981 186.497 163.533 186.348 163.16C186.199 162.787 185.975 162.504 185.676 162.312C185.388 162.109 185.025 162.008 184.588 162.008C184.14 162.008 183.761 162.109 183.452 162.312C183.143 162.515 182.908 162.813 182.748 163.208C182.588 163.592 182.508 164.067 182.508 164.632C182.508 165.155 182.583 165.613 182.732 166.008C182.881 166.392 183.116 166.691 183.436 166.904C183.756 167.117 184.172 167.224 184.684 167.224C185.153 167.224 185.537 167.133 185.836 166.952C186.135 166.771 186.337 166.547 186.444 166.28H188.796C188.668 166.867 188.417 167.389 188.044 167.848C187.671 168.307 187.201 168.664 186.636 168.92C186.071 169.176 185.42 169.304 184.684 169.304ZM193.98 169.272C192.732 169.272 191.756 169.016 191.052 168.504C190.348 167.992 189.975 167.272 189.932 166.344H192.204C192.247 166.621 192.412 166.872 192.7 167.096C192.999 167.309 193.442 167.416 194.028 167.416C194.476 167.416 194.844 167.341 195.132 167.192C195.431 167.032 195.58 166.808 195.58 166.52C195.58 166.264 195.468 166.061 195.244 165.912C195.02 165.752 194.62 165.64 194.044 165.576L193.356 165.512C192.3 165.405 191.506 165.112 190.972 164.632C190.45 164.152 190.188 163.539 190.188 162.792C190.188 162.173 190.343 161.656 190.652 161.24C190.962 160.824 191.388 160.509 191.932 160.296C192.487 160.083 193.116 159.976 193.82 159.976C194.951 159.976 195.863 160.227 196.556 160.728C197.25 161.219 197.612 161.933 197.644 162.872H195.372C195.33 162.584 195.18 162.344 194.924 162.152C194.668 161.949 194.29 161.848 193.788 161.848C193.394 161.848 193.079 161.923 192.844 162.072C192.61 162.221 192.492 162.424 192.492 162.68C192.492 162.925 192.594 163.112 192.796 163.24C192.999 163.368 193.33 163.459 193.788 163.512L194.476 163.576C195.554 163.693 196.391 163.992 196.988 164.472C197.586 164.952 197.884 165.597 197.884 166.408C197.884 166.995 197.724 167.507 197.404 167.944C197.084 168.371 196.631 168.701 196.044 168.936C195.458 169.16 194.77 169.272 193.98 169.272ZM208.198 169V166.408H207.766V163.592C207.766 163.144 207.66 162.808 207.446 162.584C207.233 162.36 206.892 162.248 206.422 162.248C206.188 162.248 205.878 162.253 205.494 162.264C205.11 162.275 204.716 162.291 204.31 162.312C203.905 162.333 203.537 162.355 203.206 162.376V160.216C203.452 160.195 203.74 160.173 204.07 160.152C204.401 160.131 204.742 160.115 205.094 160.104C205.446 160.093 205.777 160.088 206.086 160.088C206.982 160.088 207.734 160.216 208.342 160.472C208.961 160.728 209.43 161.117 209.75 161.64C210.07 162.152 210.23 162.813 210.23 163.624V169H208.198ZM205.398 169.224C204.769 169.224 204.214 169.112 203.734 168.888C203.265 168.664 202.897 168.344 202.63 167.928C202.364 167.501 202.23 166.995 202.23 166.408C202.23 165.768 202.396 165.245 202.726 164.84C203.057 164.424 203.521 164.12 204.118 163.928C204.716 163.725 205.404 163.624 206.182 163.624H208.054V165.048H206.166C205.718 165.048 205.372 165.16 205.126 165.384C204.892 165.597 204.774 165.891 204.774 166.264C204.774 166.616 204.892 166.904 205.126 167.128C205.372 167.341 205.718 167.448 206.166 167.448C206.454 167.448 206.71 167.4 206.934 167.304C207.169 167.197 207.361 167.021 207.51 166.776C207.66 166.531 207.745 166.189 207.766 165.752L208.374 166.392C208.321 167 208.172 167.512 207.926 167.928C207.692 168.344 207.361 168.664 206.934 168.888C206.518 169.112 206.006 169.224 205.398 169.224ZM212.402 172.2V160.232H214.434V164.024L214.162 164.008C214.205 163.133 214.386 162.397 214.706 161.8C215.026 161.192 215.458 160.739 216.002 160.44C216.546 160.131 217.16 159.976 217.842 159.976C218.45 159.976 219 160.088 219.49 160.312C219.992 160.536 220.418 160.851 220.77 161.256C221.133 161.651 221.405 162.12 221.586 162.664C221.778 163.197 221.874 163.784 221.874 164.424V164.792C221.874 165.421 221.784 166.013 221.602 166.568C221.421 167.112 221.154 167.587 220.802 167.992C220.461 168.397 220.04 168.717 219.538 168.952C219.048 169.176 218.482 169.288 217.842 169.288C217.181 169.288 216.584 169.155 216.05 168.888C215.528 168.611 215.106 168.195 214.786 167.64C214.466 167.075 214.29 166.36 214.258 165.496L214.962 166.456V172.2H212.402ZM217.122 167.144C217.56 167.144 217.938 167.037 218.258 166.824C218.589 166.611 218.845 166.312 219.026 165.928C219.208 165.544 219.298 165.101 219.298 164.6C219.298 164.099 219.208 163.661 219.026 163.288C218.845 162.915 218.594 162.627 218.274 162.424C217.954 162.211 217.57 162.104 217.122 162.104C216.738 162.104 216.376 162.195 216.034 162.376C215.693 162.557 215.416 162.819 215.202 163.16C215 163.491 214.898 163.896 214.898 164.376V164.968C214.898 165.427 215.005 165.821 215.218 166.152C215.442 166.472 215.725 166.717 216.066 166.888C216.408 167.059 216.76 167.144 217.122 167.144ZM223.652 172.2V160.232H225.684V164.024L225.412 164.008C225.455 163.133 225.636 162.397 225.956 161.8C226.276 161.192 226.708 160.739 227.252 160.44C227.796 160.131 228.41 159.976 229.092 159.976C229.7 159.976 230.25 160.088 230.74 160.312C231.242 160.536 231.668 160.851 232.02 161.256C232.383 161.651 232.655 162.12 232.836 162.664C233.028 163.197 233.124 163.784 233.124 164.424V164.792C233.124 165.421 233.034 166.013 232.852 166.568C232.671 167.112 232.404 167.587 232.052 167.992C231.711 168.397 231.29 168.717 230.788 168.952C230.298 169.176 229.732 169.288 229.092 169.288C228.431 169.288 227.834 169.155 227.3 168.888C226.778 168.611 226.356 168.195 226.036 167.64C225.716 167.075 225.54 166.36 225.508 165.496L226.212 166.456V172.2H223.652ZM228.372 167.144C228.81 167.144 229.188 167.037 229.508 166.824C229.839 166.611 230.095 166.312 230.276 165.928C230.458 165.544 230.548 165.101 230.548 164.6C230.548 164.099 230.458 163.661 230.276 163.288C230.095 162.915 229.844 162.627 229.524 162.424C229.204 162.211 228.82 162.104 228.372 162.104C227.988 162.104 227.626 162.195 227.284 162.376C226.943 162.557 226.666 162.819 226.452 163.16C226.25 163.491 226.148 163.896 226.148 164.376V164.968C226.148 165.427 226.255 165.821 226.468 166.152C226.692 166.472 226.975 166.717 227.316 166.888C227.658 167.059 228.01 167.144 228.372 167.144ZM235.014 169V157.32H237.59V169H235.014ZM233.974 159.208V157.32H237.59V159.208H233.974ZM240.365 169V160.232H242.925V169H240.365ZM239.197 162.12V160.232H242.925V162.12H239.197ZM241.357 159.368C240.877 159.368 240.52 159.245 240.285 159C240.061 158.744 239.949 158.424 239.949 158.04C239.949 157.645 240.061 157.325 240.285 157.08C240.52 156.824 240.877 156.696 241.357 156.696C241.837 156.696 242.189 156.824 242.413 157.08C242.648 157.325 242.765 157.645 242.765 158.04C242.765 158.424 242.648 158.744 242.413 159C242.189 159.245 241.837 159.368 241.357 159.368ZM249.229 169.304C248.472 169.304 247.81 169.181 247.245 168.936C246.69 168.68 246.226 168.339 245.853 167.912C245.48 167.485 245.202 167.005 245.021 166.472C244.84 165.928 244.749 165.368 244.749 164.792V164.488C244.749 163.891 244.845 163.32 245.037 162.776C245.229 162.221 245.512 161.731 245.885 161.304C246.258 160.877 246.722 160.541 247.277 160.296C247.842 160.051 248.488 159.928 249.213 159.928C250.002 159.928 250.701 160.083 251.309 160.392C251.917 160.691 252.402 161.112 252.765 161.656C253.128 162.2 253.33 162.824 253.373 163.528H250.861C250.818 163.133 250.658 162.803 250.381 162.536C250.114 162.259 249.725 162.12 249.213 162.12C248.786 162.12 248.429 162.227 248.141 162.44C247.864 162.653 247.656 162.947 247.517 163.32C247.378 163.693 247.309 164.136 247.309 164.648C247.309 165.117 247.373 165.544 247.501 165.928C247.629 166.301 247.832 166.595 248.109 166.808C248.397 167.011 248.77 167.112 249.229 167.112C249.57 167.112 249.858 167.053 250.093 166.936C250.338 166.808 250.53 166.637 250.669 166.424C250.818 166.2 250.909 165.944 250.941 165.656H253.437C253.405 166.381 253.202 167.021 252.829 167.576C252.456 168.12 251.96 168.547 251.341 168.856C250.722 169.155 250.018 169.304 249.229 169.304ZM260.37 169V166.408H259.938V163.592C259.938 163.144 259.832 162.808 259.618 162.584C259.405 162.36 259.064 162.248 258.594 162.248C258.36 162.248 258.05 162.253 257.666 162.264C257.282 162.275 256.888 162.291 256.482 162.312C256.077 162.333 255.709 162.355 255.378 162.376V160.216C255.624 160.195 255.912 160.173 256.242 160.152C256.573 160.131 256.914 160.115 257.266 160.104C257.618 160.093 257.949 160.088 258.258 160.088C259.154 160.088 259.906 160.216 260.514 160.472C261.133 160.728 261.602 161.117 261.922 161.64C262.242 162.152 262.402 162.813 262.402 163.624V169H260.37ZM257.57 169.224C256.941 169.224 256.386 169.112 255.906 168.888C255.437 168.664 255.069 168.344 254.802 167.928C254.536 167.501 254.402 166.995 254.402 166.408C254.402 165.768 254.568 165.245 254.898 164.84C255.229 164.424 255.693 164.12 256.29 163.928C256.888 163.725 257.576 163.624 258.354 163.624H260.226V165.048H258.338C257.89 165.048 257.544 165.16 257.298 165.384C257.064 165.597 256.946 165.891 256.946 166.264C256.946 166.616 257.064 166.904 257.298 167.128C257.544 167.341 257.89 167.448 258.338 167.448C258.626 167.448 258.882 167.4 259.106 167.304C259.341 167.197 259.533 167.021 259.682 166.776C259.832 166.531 259.917 166.189 259.938 165.752L260.546 166.392C260.493 167 260.344 167.512 260.098 167.928C259.864 168.344 259.533 168.664 259.106 168.888C258.69 169.112 258.178 169.224 257.57 169.224ZM268.558 169.112C267.673 169.112 266.958 169.005 266.414 168.792C265.87 168.568 265.47 168.2 265.214 167.688C264.969 167.165 264.846 166.461 264.846 165.576V157.864H267.23V165.672C267.23 166.088 267.337 166.408 267.55 166.632C267.774 166.845 268.089 166.952 268.494 166.952H269.79V169.112H268.558ZM263.518 162.104V160.232H269.79V162.104H263.518ZM271.928 169V160.232H274.488V169H271.928ZM270.76 162.12V160.232H274.488V162.12H270.76ZM272.92 159.368C272.44 159.368 272.082 159.245 271.848 159C271.624 158.744 271.512 158.424 271.512 158.04C271.512 157.645 271.624 157.325 271.848 157.08C272.082 156.824 272.44 156.696 272.92 156.696C273.4 156.696 273.752 156.824 273.976 157.08C274.21 157.325 274.328 157.645 274.328 158.04C274.328 158.424 274.21 158.744 273.976 159C273.752 159.245 273.4 159.368 272.92 159.368ZM281.128 169.304C280.36 169.304 279.677 169.187 279.08 168.952C278.482 168.707 277.976 168.376 277.56 167.96C277.154 167.544 276.845 167.069 276.632 166.536C276.418 165.992 276.312 165.421 276.312 164.824V164.456C276.312 163.848 276.418 163.272 276.632 162.728C276.856 162.173 277.176 161.688 277.592 161.272C278.018 160.856 278.53 160.531 279.128 160.296C279.725 160.051 280.392 159.928 281.128 159.928C281.885 159.928 282.557 160.051 283.144 160.296C283.741 160.531 284.248 160.856 284.664 161.272C285.08 161.688 285.4 162.173 285.624 162.728C285.848 163.272 285.96 163.848 285.96 164.456V164.824C285.96 165.421 285.853 165.992 285.64 166.536C285.426 167.069 285.112 167.544 284.696 167.96C284.29 168.376 283.789 168.707 283.192 168.952C282.594 169.187 281.906 169.304 281.128 169.304ZM281.128 167.144C281.629 167.144 282.045 167.037 282.376 166.824C282.706 166.611 282.957 166.312 283.128 165.928C283.309 165.544 283.4 165.117 283.4 164.648C283.4 164.147 283.309 163.709 283.128 163.336C282.946 162.952 282.685 162.648 282.344 162.424C282.013 162.2 281.608 162.088 281.128 162.088C280.658 162.088 280.253 162.2 279.911 162.424C279.57 162.648 279.309 162.952 279.128 163.336C278.957 163.709 278.872 164.147 278.872 164.648C278.872 165.117 278.957 165.544 279.128 165.928C279.298 166.312 279.554 166.611 279.896 166.824C280.237 167.037 280.648 167.144 281.128 167.144ZM287.746 169V160.232H289.778V163.992H289.634C289.634 163.096 289.746 162.349 289.97 161.752C290.205 161.155 290.557 160.707 291.026 160.408C291.495 160.109 292.066 159.96 292.738 159.96H292.85C293.874 159.96 294.653 160.296 295.186 160.968C295.73 161.629 296.002 162.637 296.002 163.992V169H293.442V163.848C293.442 163.379 293.303 162.995 293.026 162.696C292.749 162.397 292.375 162.248 291.906 162.248C291.426 162.248 291.037 162.403 290.738 162.712C290.45 163.011 290.306 163.405 290.306 163.896V169H287.746Z" fill="white"/>
<rect x="40" y="216" width="40" height="40" rx="20" transform="rotate(90 40 216)" fill="white"/>
<path d="M57.312 241V229.224H59.936V241H57.312ZM64.4 241L60.976 235.976H63.856L67.44 241H64.4ZM59.232 237.256V235.192H62.112C62.496 235.192 62.8267 235.117 63.104 234.968C63.392 234.808 63.6107 234.589 63.76 234.312C63.92 234.024 64 233.693 64 233.32C64 232.947 63.92 232.621 63.76 232.344C63.6107 232.056 63.392 231.837 63.104 231.688C62.8267 231.528 62.496 231.448 62.112 231.448H59.232V229.224H61.904C62.8747 229.224 63.7173 229.373 64.432 229.672C65.1467 229.96 65.696 230.392 66.08 230.968C66.464 231.544 66.656 232.269 66.656 233.144V233.4C66.656 234.264 66.4587 234.984 66.064 235.56C65.68 236.125 65.1307 236.552 64.416 236.84C63.712 237.117 62.8747 237.256 61.904 237.256H59.232ZM72.7153 241.304C71.9686 241.304 71.3073 241.176 70.7313 240.92C70.1659 240.664 69.6913 240.323 69.3073 239.896C68.9339 239.459 68.6459 238.973 68.4433 238.44C68.2513 237.896 68.1553 237.341 68.1553 236.776V236.456C68.1553 235.869 68.2513 235.309 68.4433 234.776C68.6459 234.232 68.9339 233.747 69.3073 233.32C69.6806 232.893 70.1446 232.557 70.6993 232.312C71.2646 232.056 71.9046 231.928 72.6193 231.928C73.5579 231.928 74.3473 232.141 74.9873 232.568C75.6379 232.984 76.1339 233.533 76.4753 234.216C76.8166 234.888 76.9873 235.624 76.9873 236.424V237.288H69.2273V235.832H75.4353L74.6033 236.504C74.6033 235.981 74.5286 235.533 74.3793 235.16C74.2299 234.787 74.0059 234.504 73.7073 234.312C73.4193 234.109 73.0566 234.008 72.6193 234.008C72.1713 234.008 71.7926 234.109 71.4833 234.312C71.1739 234.515 70.9393 234.813 70.7793 235.208C70.6193 235.592 70.5393 236.067 70.5393 236.632C70.5393 237.155 70.6139 237.613 70.7633 238.008C70.9126 238.392 71.1473 238.691 71.4673 238.904C71.7873 239.117 72.2033 239.224 72.7153 239.224C73.1846 239.224 73.5686 239.133 73.8673 238.952C74.1659 238.771 74.3686 238.547 74.4753 238.28H76.8273C76.6993 238.867 76.4486 239.389 76.0753 239.848C75.7019 240.307 75.2326 240.664 74.6673 240.92C74.1019 241.176 73.4513 241.304 72.7153 241.304ZM80.3015 241L77.6775 232.232H80.3175L82.7815 241H80.3015ZM81.1015 241V238.872H83.6775V241H81.1015ZM82.0455 241L84.1735 232.232H86.6375L84.3655 241H82.0455ZM88.5684 241V232.232H91.1284V241H88.5684ZM87.4004 234.12V232.232H91.1284V234.12H87.4004ZM89.5604 231.368C89.0804 231.368 88.723 231.245 88.4884 231C88.2644 230.744 88.1524 230.424 88.1524 230.04C88.1524 229.645 88.2644 229.325 88.4884 229.08C88.723 228.824 89.0804 228.696 89.5604 228.696C90.0404 228.696 90.3924 228.824 90.6164 229.08C90.851 229.325 90.9684 229.645 90.9684 230.04C90.9684 230.424 90.851 230.744 90.6164 231C90.3924 231.245 90.0404 231.368 89.5604 231.368ZM97.5121 241.304C96.7655 241.304 96.1041 241.176 95.5281 240.92C94.9628 240.664 94.4881 240.323 94.1041 239.896C93.7308 239.459 93.4428 238.973 93.2401 238.44C93.0481 237.896 92.9521 237.341 92.9521 236.776V236.456C92.9521 235.869 93.0481 235.309 93.2401 234.776C93.4428 234.232 93.7308 233.747 94.1041 233.32C94.4775 232.893 94.9415 232.557 95.4961 232.312C96.0615 232.056 96.7015 231.928 97.4161 231.928C98.3548 231.928 99.1441 232.141 99.7841 232.568C100.435 232.984 100.931 233.533 101.272 234.216C101.613 234.888 101.784 235.624 101.784 236.424V237.288H94.0241V235.832H100.232L99.4001 236.504C99.4001 235.981 99.3255 235.533 99.1761 235.16C99.0268 234.787 98.8028 234.504 98.5041 234.312C98.2161 234.109 97.8535 234.008 97.4161 234.008C96.9681 234.008 96.5895 234.109 96.2801 234.312C95.9708 234.515 95.7361 234.813 95.5761 235.208C95.4161 235.592 95.3361 236.067 95.3361 236.632C95.3361 237.155 95.4108 237.613 95.5601 238.008C95.7095 238.392 95.9441 238.691 96.2641 238.904C96.5841 239.117 97.0001 239.224 97.5121 239.224C97.9815 239.224 98.3655 239.133 98.6641 238.952C98.9628 238.771 99.1655 238.547 99.2721 238.28H101.624C101.496 238.867 101.245 239.389 100.872 239.848C100.499 240.307 100.029 240.664 99.4641 240.92C98.8988 241.176 98.2481 241.304 97.5121 241.304ZM106.618 241L108.218 232.52H111.018L112.874 241H110.89L108.986 232.584H110.122L108.41 241H106.618ZM106.01 241L105.994 238.872H107.754L107.77 241H106.01ZM104.858 241L102.506 232.232H105.018L107.21 241H104.858ZM111.546 241L111.562 238.872H113.322V241H111.546ZM112.266 241L114.218 232.232H116.57L114.458 241H112.266ZM125.784 241.304C125.016 241.304 124.333 241.187 123.736 240.952C123.138 240.707 122.632 240.376 122.216 239.96C121.81 239.544 121.501 239.069 121.288 238.536C121.074 237.992 120.968 237.421 120.968 236.824V236.456C120.968 235.848 121.074 235.272 121.288 234.728C121.512 234.173 121.832 233.688 122.248 233.272C122.674 232.856 123.186 232.531 123.784 232.296C124.381 232.051 125.048 231.928 125.784 231.928C126.541 231.928 127.213 232.051 127.8 232.296C128.397 232.531 128.904 232.856 129.32 233.272C129.736 233.688 130.056 234.173 130.28 234.728C130.504 235.272 130.616 235.848 130.616 236.456V236.824C130.616 237.421 130.509 237.992 130.296 238.536C130.082 239.069 129.768 239.544 129.352 239.96C128.946 240.376 128.445 240.707 127.848 240.952C127.25 241.187 126.562 241.304 125.784 241.304ZM125.784 239.144C126.285 239.144 126.701 239.037 127.032 238.824C127.362 238.611 127.613 238.312 127.784 237.928C127.965 237.544 128.056 237.117 128.056 236.648C128.056 236.147 127.965 235.709 127.784 235.336C127.602 234.952 127.341 234.648 127 234.424C126.669 234.2 126.264 234.088 125.784 234.088C125.314 234.088 124.909 234.2 124.568 234.424C124.226 234.648 123.965 234.952 123.784 235.336C123.613 235.709 123.528 236.147 123.528 236.648C123.528 237.117 123.613 237.544 123.784 237.928C123.954 238.312 124.21 238.611 124.552 238.824C124.893 239.037 125.304 239.144 125.784 239.144ZM132.578 241V232.056C132.578 231.043 132.861 230.291 133.426 229.8C134.002 229.309 134.85 229.064 135.97 229.064H136.786V230.984H135.858C135.57 230.984 135.346 231.064 135.186 231.224C135.037 231.384 134.962 231.608 134.962 231.896V241H132.578ZM138.322 241V232.152C138.322 231.139 138.61 230.387 139.186 229.896C139.762 229.405 140.61 229.16 141.73 229.16H142.802V231.08H141.618C141.33 231.08 141.106 231.16 140.946 231.32C140.786 231.48 140.706 231.704 140.706 231.992V241H138.322ZM131.554 234.28V232.408H142.93V234.28H131.554ZM148.184 241.304C147.437 241.304 146.776 241.176 146.2 240.92C145.635 240.664 145.16 240.323 144.776 239.896C144.403 239.459 144.115 238.973 143.912 238.44C143.72 237.896 143.624 237.341 143.624 236.776V236.456C143.624 235.869 143.72 235.309 143.912 234.776C144.115 234.232 144.403 233.747 144.776 233.32C145.149 232.893 145.613 232.557 146.168 232.312C146.733 232.056 147.373 231.928 148.088 231.928C149.027 231.928 149.816 232.141 150.456 232.568C151.107 232.984 151.603 233.533 151.944 234.216C152.285 234.888 152.456 235.624 152.456 236.424V237.288H144.696V235.832H150.904L150.072 236.504C150.072 235.981 149.997 235.533 149.848 235.16C149.699 234.787 149.475 234.504 149.176 234.312C148.888 234.109 148.525 234.008 148.088 234.008C147.64 234.008 147.261 234.109 146.952 234.312C146.643 234.515 146.408 234.813 146.248 235.208C146.088 235.592 146.008 236.067 146.008 236.632C146.008 237.155 146.083 237.613 146.232 238.008C146.381 238.392 146.616 238.691 146.936 238.904C147.256 239.117 147.672 239.224 148.184 239.224C148.653 239.224 149.037 239.133 149.336 238.952C149.635 238.771 149.837 238.547 149.944 238.28H152.296C152.168 238.867 151.917 239.389 151.544 239.848C151.171 240.307 150.701 240.664 150.136 240.92C149.571 241.176 148.92 241.304 148.184 241.304ZM154.152 241V232.232H156.184V235.992H156.136C156.136 234.755 156.398 233.8 156.92 233.128C157.454 232.456 158.222 232.12 159.224 232.12H159.56V234.328H158.92C158.216 234.328 157.672 234.52 157.288 234.904C156.904 235.277 156.712 235.821 156.712 236.536V241H154.152ZM164.215 241.272C162.967 241.272 161.991 241.016 161.287 240.504C160.583 239.992 160.209 239.272 160.167 238.344H162.439C162.481 238.621 162.647 238.872 162.935 239.096C163.233 239.309 163.676 239.416 164.263 239.416C164.711 239.416 165.079 239.341 165.367 239.192C165.665 239.032 165.815 238.808 165.815 238.52C165.815 238.264 165.703 238.061 165.479 237.912C165.255 237.752 164.855 237.64 164.279 237.576L163.591 237.512C162.535 237.405 161.74 237.112 161.207 236.632C160.684 236.152 160.423 235.539 160.423 234.792C160.423 234.173 160.577 233.656 160.887 233.24C161.196 232.824 161.623 232.509 162.167 232.296C162.721 232.083 163.351 231.976 164.055 231.976C165.185 231.976 166.097 232.227 166.791 232.728C167.484 233.219 167.847 233.933 167.879 234.872H165.607C165.564 234.584 165.415 234.344 165.159 234.152C164.903 233.949 164.524 233.848 164.023 233.848C163.628 233.848 163.313 233.923 163.079 234.072C162.844 234.221 162.727 234.424 162.727 234.68C162.727 234.925 162.828 235.112 163.031 235.24C163.233 235.368 163.564 235.459 164.023 235.512L164.711 235.576C165.788 235.693 166.625 235.992 167.223 236.472C167.82 236.952 168.119 237.597 168.119 238.408C168.119 238.995 167.959 239.507 167.639 239.944C167.319 240.371 166.865 240.701 166.279 240.936C165.692 241.16 165.004 241.272 164.215 241.272Z" fill="white"/>
</svg>
