<svg width="340" height="195" viewBox="0 0 340 195" fill="none" xmlns="http://www.w3.org/2000/svg">
<mask id="mask0_25131_11792" style="mask-type:alpha" maskUnits="userSpaceOnUse" x="0" y="0" width="339" height="195">
<rect width="339" height="194" transform="matrix(1 0 0 -1 0 194.5)" fill="url(#paint0_linear_25131_11792)"/>
</mask>
<g mask="url(#mask0_25131_11792)">
<mask id="mask1_25131_11792" style="mask-type:alpha" maskUnits="userSpaceOnUse" x="0" y="0" width="339" height="195">
<rect x="339" y="0.5" width="194" height="339" transform="rotate(90 339 0.5)" fill="url(#paint1_linear_25131_11792)"/>
</mask>
<g mask="url(#mask1_25131_11792)">
<mask id="mask2_25131_11792" style="mask-type:alpha" maskUnits="userSpaceOnUse" x="0" y="0" width="339" height="195">
<rect y="194.5" width="194" height="339" transform="rotate(-90 0 194.5)" fill="url(#paint2_linear_25131_11792)"/>
</mask>
<g mask="url(#mask2_25131_11792)">
<mask id="mask3_25131_11792" style="mask-type:alpha" maskUnits="userSpaceOnUse" x="0" y="0" width="339" height="195">
<rect y="0.499664" width="339" height="194" fill="url(#paint3_linear_25131_11792)"/>
</mask>
<g mask="url(#mask3_25131_11792)">
<mask id="mask4_25131_11792" style="mask-type:alpha" maskUnits="userSpaceOnUse" x="1" y="-1" width="337" height="196">
<rect x="1.5" y="-0.208313" width="336" height="194.708" fill="url(#paint4_linear_25131_11792)"/>
</mask>
<g mask="url(#mask4_25131_11792)">
<g opacity="0.15">
<rect width="336" height="193" transform="translate(2 1.00003)" fill="url(#paint5_linear_25131_11792)"/>
</g>
<g filter="url(#filter0_ddddi_25131_11792)">
<path fill-rule="evenodd" clip-rule="evenodd" d="M9 -3.6456C0.163445 -3.6456 -7 3.51783 -7 12.3544V90.9925C-7 99.829 0.163441 106.992 9 106.992H140.531C144.091 106.992 147.38 105.83 150.037 103.864C154.291 106.124 160.228 107.824 167.168 106.562C165.082 105.669 157.541 100.683 156.531 90.8573V12.3544C156.531 3.51785 149.368 -3.6456 140.531 -3.6456H9Z" fill="#EEECEC"/>
</g>
<g filter="url(#filter1_f_25131_11792)">
<rect x="-4.5" y="-1.1456" width="159" height="106" rx="18" fill="url(#paint6_linear_25131_11792)"/>
<path d="M15.2897 11.3727V20.2661H13.4343V18.3302C13.2125 18.9957 12.8092 19.4998 12.2647 19.8628C11.7 20.2258 11.0547 20.4073 10.3085 20.4073C9.28003 20.4073 8.45321 20.0645 7.82805 19.399C7.20288 18.7335 6.90039 17.7857 6.90039 16.5353V11.3727H8.73554V16.3337C8.73554 17.1403 8.9372 17.7655 9.34053 18.189C9.74386 18.6327 10.3085 18.8343 11.0144 18.8343C11.7403 18.8343 12.3252 18.5923 12.7688 18.1285C13.2125 17.6647 13.4343 16.9588 13.4343 16.0715V11.3727H15.2897Z" fill="#F1EFEF"/>
<path d="M20.8758 12.2399C21.5009 12.9054 21.8034 13.8532 21.8034 15.1036V20.2864H19.9683V15.3052C19.9683 14.5187 19.7666 13.8936 19.3633 13.4499C18.96 13.0063 18.3953 12.8046 17.6895 12.8046C16.9635 12.8046 16.3786 13.0466 15.935 13.5104C15.4913 13.9742 15.2695 14.6599 15.2695 15.5674V20.2864H13.4343V11.3728H15.2695V13.3289C15.5115 12.6634 15.8946 12.1391 16.4593 11.7761C17.024 11.4131 17.6693 11.2316 18.3953 11.2316C19.4238 11.2316 20.2506 11.5744 20.8758 12.2399Z" fill="#F1EFEF"/>
<path d="M30.0514 12.1794C30.7976 12.7844 31.2816 13.6112 31.4631 14.6599H29.5069C29.4061 14.0952 29.1439 13.6717 28.7205 13.349C28.297 13.0264 27.7928 12.865 27.1676 12.865C26.4618 12.865 25.8568 13.107 25.393 13.6112C24.9291 14.1154 24.6871 14.8414 24.6871 15.8094C24.6871 16.7773 24.9291 17.5235 25.393 18.0277C25.8568 18.5318 26.4618 18.794 27.1676 18.794C27.7928 18.794 28.3171 18.6327 28.7205 18.31C29.1439 17.9873 29.386 17.5437 29.5069 16.979H31.4631C31.2816 18.0277 30.8178 18.8545 30.0514 19.4595C29.3053 20.0645 28.3373 20.3872 27.1878 20.3872C26.3206 20.3872 25.5745 20.2056 24.909 19.8427C24.2435 19.4797 23.7192 18.9553 23.3562 18.2697C22.973 17.584 22.7915 16.7773 22.7915 15.8295C22.7915 14.9019 22.973 14.0952 23.3562 13.4095C23.7393 12.7239 24.2435 12.1995 24.909 11.8365C25.5745 11.4735 26.3408 11.2921 27.1878 11.2921C28.3373 11.2719 29.2851 11.5744 30.0514 12.1794Z" fill="#F1EFEF"/>
<path d="M38.1181 11.8568C38.6828 12.2601 39.0861 12.7844 39.3281 13.4298V11.3728H41.1633V20.2662H39.3281V18.2092C39.0861 18.8747 38.6828 19.3991 38.1181 19.7822C37.5535 20.1856 36.8678 20.3872 36.0611 20.3872C35.2948 20.3872 34.589 20.2057 33.984 19.8427C33.379 19.4797 32.895 18.9554 32.5522 18.2697C32.2093 17.5841 32.0278 16.7774 32.0278 15.8296C32.0278 14.9019 32.2093 14.0953 32.5522 13.4096C32.895 12.7239 33.379 12.1996 33.984 11.8366C34.589 11.4736 35.2746 11.2921 36.0611 11.2921C36.8678 11.272 37.5535 11.4736 38.1181 11.8568ZM34.6696 13.6718C34.1856 14.1961 33.9437 14.9019 33.9437 15.8296C33.9437 16.7371 34.1856 17.4631 34.6696 17.9874C35.1536 18.5117 35.8191 18.7739 36.6258 18.7739C37.1501 18.7739 37.614 18.6529 38.0173 18.4109C38.4206 18.1689 38.7433 17.8261 38.9853 17.3824C39.2273 16.9387 39.3483 16.4346 39.3483 15.8296C39.3483 15.2448 39.2273 14.7406 38.9853 14.2969C38.7433 13.8533 38.4206 13.5104 38.0173 13.2684C37.614 13.0264 37.1501 12.9054 36.6258 12.9054C35.799 12.8853 35.1536 13.1474 34.6696 13.6718Z" fill="#F1EFEF"/>
<path d="M49.6332 11.8164C50.2382 12.1794 50.7222 12.7037 51.0651 13.3894C51.4079 14.075 51.5894 14.8817 51.5894 15.8093C51.5894 16.737 51.4079 17.5638 51.0651 18.2495C50.7222 18.9351 50.2382 19.4595 49.6332 19.8225C49.0282 20.1855 48.3426 20.367 47.5561 20.367C46.7494 20.367 46.0638 20.1653 45.4991 19.762C44.9344 19.3586 44.5311 18.8343 44.3093 18.189V24.4809H42.4741V11.3727H44.3093V13.4297C44.5311 12.7642 44.9344 12.2399 45.4991 11.8567C46.0638 11.4534 46.7494 11.2517 47.5561 11.2517C48.3224 11.2719 49.0282 11.4534 49.6332 11.8164ZM45.5999 13.2482C45.1966 13.4902 44.8739 13.833 44.6319 14.2767C44.3899 14.7203 44.2689 15.2447 44.2689 15.8093C44.2689 16.3942 44.3899 16.9185 44.6319 17.3622C44.8739 17.8058 45.1966 18.1487 45.5999 18.3907C46.0033 18.6327 46.4671 18.7536 46.9914 18.7536C47.8183 18.7536 48.4636 18.4915 48.9677 17.9672C49.4719 17.4428 49.7139 16.737 49.7139 15.8093C49.7139 14.9018 49.4719 14.196 48.9677 13.6717C48.4636 13.1474 47.8183 12.8852 46.9914 12.8852C46.4671 12.8852 46.0033 13.0062 45.5999 13.2482Z" fill="#F1EFEF"/>
<path d="M59.7971 11.8164C60.402 12.1794 60.886 12.7037 61.2289 13.3894C61.5717 14.075 61.7532 14.8817 61.7532 15.8093C61.7532 16.737 61.5717 17.5638 61.2289 18.2495C60.886 18.9351 60.402 19.4595 59.7971 19.8225C59.1921 20.1855 58.5064 20.367 57.7199 20.367C56.9132 20.367 56.2276 20.1653 55.6629 19.762C55.0983 19.3586 54.6949 18.8343 54.4731 18.189V24.4809H52.6379V11.3727H54.4731V13.4297C54.6949 12.7642 55.0983 12.2399 55.6629 11.8567C56.2276 11.4534 56.9132 11.2517 57.7199 11.2517C58.4862 11.2719 59.1921 11.4534 59.7971 11.8164ZM55.7637 13.2482C55.3604 13.4902 55.0378 13.833 54.7958 14.2767C54.5538 14.7203 54.4328 15.2447 54.4328 15.8093C54.4328 16.3942 54.5538 16.9185 54.7958 17.3622C55.0378 17.8058 55.3604 18.1487 55.7637 18.3907C56.1671 18.6327 56.6309 18.7536 57.1552 18.7536C57.9821 18.7536 58.6274 18.4915 59.1316 17.9672C59.6357 17.4428 59.8777 16.737 59.8777 15.8093C59.8777 14.9018 59.6357 14.196 59.1316 13.6717C58.6274 13.1474 57.9821 12.8852 57.1552 12.8852C56.6309 12.8852 56.1671 13.0062 55.7637 13.2482Z" fill="#F1EFEF"/>
<path d="M70.9694 16.1924H64.1329C64.1733 17.0999 64.4153 17.7856 64.8993 18.2293C65.3631 18.6729 65.9681 18.8948 66.6537 18.8948C67.2587 18.8948 67.7831 18.7334 68.2066 18.4309C68.6301 18.1284 68.8923 17.7049 68.9931 17.1806H70.9694C70.8484 17.8058 70.6064 18.3503 70.2232 18.8343C69.8401 19.3183 69.3561 19.7014 68.7511 19.9636C68.1461 20.2459 67.4806 20.3669 66.7344 20.3669C65.8673 20.3669 65.1211 20.1854 64.4556 19.8224C63.7901 19.4594 63.2658 18.9351 62.9028 18.2494C62.5196 17.5638 62.3381 16.7571 62.3381 15.8093C62.3381 14.8816 62.5196 14.075 62.9028 13.3893C63.2859 12.7036 63.7901 12.1793 64.4556 11.8163C65.1211 11.4533 65.8874 11.2718 66.7344 11.2718C67.6016 11.2718 68.3679 11.4533 69.0132 11.8163C69.6586 12.1793 70.1627 12.6633 70.5056 13.3086C70.8484 13.9338 71.0299 14.6396 71.0299 15.406C71.0501 15.7085 71.0299 15.9706 70.9694 16.1924ZM68.8923 13.8935C68.6704 13.5103 68.3679 13.2078 67.9848 13.0263C67.6016 12.8448 67.1781 12.744 66.7344 12.744C66.0084 12.744 65.4034 12.9658 64.9194 13.4095C64.4354 13.8531 64.1733 14.4985 64.1329 15.3656H69.1746C69.2149 14.7606 69.1141 14.2766 68.8923 13.8935Z" fill="#F1EFEF"/>
<path d="M77.7253 11.8567C78.2899 12.2601 78.6933 12.7844 78.9151 13.4297V8.30743H80.7704V20.246H78.9151V18.189C78.6933 18.8545 78.2899 19.3788 77.7253 19.762C77.1606 20.1653 76.475 20.367 75.6683 20.367C74.902 20.367 74.1961 20.1855 73.5912 19.8225C72.9862 19.4595 72.5022 18.9352 72.1593 18.2495C71.8165 17.5639 71.635 16.7572 71.635 15.8094C71.635 14.8817 71.8165 14.0751 72.1593 13.3894C72.5022 12.7037 72.9862 12.1794 73.5912 11.8164C74.1961 11.4534 74.8818 11.2719 75.6683 11.2719C76.4548 11.2719 77.1606 11.4736 77.7253 11.8567ZM74.2567 13.6717C73.7727 14.1961 73.5307 14.9019 73.5307 15.8295C73.5307 16.737 73.7727 17.463 74.2567 17.9874C74.7407 18.5117 75.4061 18.7739 76.2128 18.7739C76.7371 18.7739 77.201 18.6529 77.6043 18.4109C78.0076 18.1689 78.3303 17.826 78.5723 17.3824C78.8143 16.9387 78.9353 16.4345 78.9353 15.8295C78.9353 15.2447 78.8143 14.7406 78.5723 14.2969C78.3303 13.8532 78.0076 13.5104 77.6043 13.2684C77.201 13.0264 76.7371 12.9054 76.2128 12.9054C75.4061 12.8852 74.7608 13.1474 74.2567 13.6717Z" fill="#F1EFEF"/>
<path d="M12.2468 36.3446C9.29407 36.3446 6.90039 37.9419 6.90039 39.9122C6.90039 41.8825 9.29407 43.4798 12.2468 43.4798H142.281C145.234 43.4798 147.628 41.8825 147.628 39.9122C147.628 37.9419 145.234 36.3446 142.281 36.3446H12.2468Z" fill="url(#paint7_linear_25131_11792)" fill-opacity="0.3"/>
<path d="M12.2468 51.4077C9.29407 51.4077 6.90039 53.005 6.90039 54.9753C6.90039 56.9456 9.29407 58.5429 12.2468 58.5429H97.6526C100.605 58.5429 102.999 56.9456 102.999 54.9753C102.999 53.005 100.605 51.4077 97.6526 51.4077H12.2468Z" fill="url(#paint8_linear_25131_11792)" fill-opacity="0.3"/>
<path d="M6.90039 70.0384C6.90039 68.0681 9.29407 66.4708 12.2468 66.4708H123.607C126.56 66.4708 128.953 68.0681 128.953 70.0384C128.953 72.0087 126.56 73.606 123.607 73.606H12.2468C9.29408 73.606 6.90039 72.0087 6.90039 70.0384Z" fill="url(#paint9_linear_25131_11792)" fill-opacity="0.3"/>
<path d="M12.2468 81.534C9.29407 81.534 6.90039 83.1312 6.90039 85.1015C6.90039 87.0719 9.29408 88.6691 12.2468 88.6691H123.607C126.56 88.6691 128.953 87.0719 128.953 85.1015C128.953 83.1312 126.56 81.534 123.607 81.534H12.2468Z" fill="url(#paint10_linear_25131_11792)" fill-opacity="0.3"/>
</g>
<g filter="url(#filter2_ddddi_25131_11792)">
<path fill-rule="evenodd" clip-rule="evenodd" d="M199 53.3544C190.164 53.3544 183 60.5178 183 69.3544V147.651C181.984 157.467 174.449 162.449 172.365 163.342C179.211 164.587 185.081 162.949 189.322 160.735C192.009 162.779 195.363 163.992 199 163.992H330.531C339.368 163.992 346.531 156.829 346.531 147.992V69.3544C346.531 60.5178 339.368 53.3544 330.531 53.3544H199Z" fill="#F6F6F6"/>
</g>
<rect x="185.072" y="55.7683" width="159" height="105" rx="14" fill="url(#paint11_linear_25131_11792)"/>
<path d="M204.649 70.1467V78.815H202.841V76.928C202.624 77.5767 202.231 78.0681 201.701 78.4219C201.15 78.7757 200.521 78.9526 199.794 78.9526C198.792 78.9526 197.986 78.6184 197.376 77.9698C196.767 77.3211 196.472 76.3973 196.472 75.1786V70.1467H198.261V74.9821C198.261 75.7683 198.457 76.3777 198.851 76.7904C199.244 77.2229 199.794 77.4194 200.482 77.4194C201.19 77.4194 201.76 77.1836 202.192 76.7315C202.624 76.2794 202.841 75.5914 202.841 74.7265V70.1467H204.649Z" fill="#CAC9C9"/>
<path d="M210.094 70.992C210.703 71.6406 210.998 72.5644 210.998 73.7831V78.8347H209.209V73.9797C209.209 73.2131 209.013 72.6038 208.62 72.1713C208.227 71.7389 207.676 71.5423 206.988 71.5423C206.281 71.5423 205.711 71.7782 205.278 72.2303C204.846 72.6824 204.63 73.3507 204.63 74.2352V78.8347H202.841V70.1467H204.63V72.0534C204.865 71.4047 205.239 70.8937 205.789 70.5399C206.34 70.1861 206.969 70.0092 207.676 70.0092C208.679 70.0092 209.485 70.3433 210.094 70.992Z" fill="#CAC9C9"/>
<path d="M219.037 70.933C219.764 71.5226 220.236 72.3285 220.413 73.3506H218.506C218.408 72.8003 218.153 72.3875 217.74 72.073C217.327 71.7585 216.836 71.6013 216.226 71.6013C215.538 71.6013 214.949 71.8371 214.497 72.3285C214.044 72.8199 213.809 73.5276 213.809 74.471C213.809 75.4145 214.044 76.1418 214.497 76.6332C214.949 77.1246 215.538 77.3801 216.226 77.3801C216.836 77.3801 217.347 77.2229 217.74 76.9084C218.153 76.5939 218.388 76.1615 218.506 75.6111H220.413C220.236 76.6332 219.784 77.4391 219.037 78.0288C218.31 78.6185 217.366 78.933 216.246 78.933C215.401 78.933 214.673 78.7561 214.025 78.4022C213.376 78.0484 212.865 77.5374 212.511 76.8691C212.138 76.2008 211.961 75.4145 211.961 74.4907C211.961 73.5865 212.138 72.8003 212.511 72.132C212.885 71.4637 213.376 70.9526 214.025 70.5988C214.673 70.245 215.42 70.0681 216.246 70.0681C217.366 70.0484 218.29 70.3433 219.037 70.933Z" fill="#CAC9C9"/>
<path d="M226.899 70.6185C227.45 71.0116 227.843 71.5227 228.079 72.1517V70.1467H229.868V78.815H228.079V76.8101C227.843 77.4588 227.45 77.9698 226.899 78.3433C226.349 78.7364 225.681 78.933 224.895 78.933C224.148 78.933 223.46 78.7561 222.87 78.4023C222.28 78.0485 221.809 77.5374 221.474 76.8691C221.14 76.2008 220.963 75.4146 220.963 74.4907C220.963 73.5865 221.14 72.8003 221.474 72.132C221.809 71.4637 222.28 70.9526 222.87 70.5988C223.46 70.245 224.128 70.0681 224.895 70.0681C225.681 70.0485 226.349 70.245 226.899 70.6185ZM223.538 72.3875C223.067 72.8986 222.831 73.5865 222.831 74.4907C222.831 75.3752 223.067 76.0829 223.538 76.5939C224.01 77.105 224.659 77.3605 225.445 77.3605C225.956 77.3605 226.408 77.2426 226.801 77.0067C227.194 76.7708 227.509 76.4367 227.745 76.0042C227.981 75.5718 228.099 75.0804 228.099 74.4907C228.099 73.9207 227.981 73.4293 227.745 72.9969C227.509 72.5644 227.194 72.2303 226.801 71.9944C226.408 71.7585 225.956 71.6406 225.445 71.6406C224.639 71.6209 224.01 71.8765 223.538 72.3875Z" fill="#CAC9C9"/>
<path d="M238.123 70.5791C238.713 70.9329 239.185 71.444 239.519 72.1123C239.853 72.7806 240.03 73.5668 240.03 74.471C240.03 75.3752 239.853 76.1811 239.519 76.8494C239.185 77.5177 238.713 78.0288 238.123 78.3826C237.534 78.7364 236.865 78.9133 236.099 78.9133C235.313 78.9133 234.644 78.7167 234.094 78.3236C233.544 77.9305 233.15 77.4194 232.934 76.7904V82.9231H231.146V70.1467H232.934V72.1516C233.15 71.503 233.544 70.9919 234.094 70.6184C234.644 70.2253 235.313 70.0287 236.099 70.0287C236.846 70.0484 237.534 70.2253 238.123 70.5791ZM234.192 71.9747C233.799 72.2106 233.485 72.5447 233.249 72.9772C233.013 73.4096 232.895 73.9206 232.895 74.471C232.895 75.041 233.013 75.5521 233.249 75.9845C233.485 76.417 233.799 76.7511 234.192 76.987C234.585 77.2229 235.037 77.3408 235.548 77.3408C236.354 77.3408 236.983 77.0853 237.475 76.5742C237.966 76.0632 238.202 75.3752 238.202 74.471C238.202 73.5865 237.966 72.8985 237.475 72.3875C236.983 71.8764 236.354 71.6209 235.548 71.6209C235.037 71.6209 234.585 71.7388 234.192 71.9747Z" fill="#CAC9C9"/>
<path d="M248.03 70.5791C248.62 70.9329 249.092 71.444 249.426 72.1123C249.76 72.7806 249.937 73.5668 249.937 74.471C249.937 75.3752 249.76 76.1811 249.426 76.8494C249.092 77.5177 248.62 78.0288 248.03 78.3826C247.44 78.7364 246.772 78.9133 246.006 78.9133C245.219 78.9133 244.551 78.7167 244.001 78.3236C243.45 77.9305 243.057 77.4194 242.841 76.7904V82.9231H241.052V70.1467H242.841V72.1516C243.057 71.503 243.45 70.9919 244.001 70.6184C244.551 70.2253 245.219 70.0287 246.006 70.0287C246.752 70.0484 247.44 70.2253 248.03 70.5791ZM244.099 71.9747C243.706 72.2106 243.391 72.5447 243.155 72.9772C242.92 73.4096 242.802 73.9206 242.802 74.471C242.802 75.041 242.92 75.5521 243.155 75.9845C243.391 76.417 243.706 76.7511 244.099 76.987C244.492 77.2229 244.944 77.3408 245.455 77.3408C246.261 77.3408 246.89 77.0853 247.381 76.5742C247.873 76.0632 248.109 75.3752 248.109 74.471C248.109 73.5865 247.873 72.8985 247.381 72.3875C246.89 71.8764 246.261 71.6209 245.455 71.6209C244.944 71.6209 244.492 71.7388 244.099 71.9747Z" fill="#CAC9C9"/>
<path d="M258.919 74.8445H252.256C252.295 75.729 252.531 76.3973 253.003 76.8298C253.455 77.2622 254.044 77.4784 254.713 77.4784C255.302 77.4784 255.813 77.3212 256.226 77.0263C256.639 76.7315 256.895 76.3187 256.993 75.8076H258.919C258.801 76.417 258.565 76.9477 258.192 77.4194C257.818 77.8912 257.347 78.2646 256.757 78.5202C256.167 78.7954 255.519 78.9133 254.791 78.9133C253.946 78.9133 253.219 78.7364 252.57 78.3826C251.922 78.0288 251.411 77.5177 251.057 76.8494C250.683 76.1811 250.506 75.3949 250.506 74.471C250.506 73.5669 250.683 72.7806 251.057 72.1123C251.43 71.444 251.922 70.933 252.57 70.5791C253.219 70.2253 253.966 70.0484 254.791 70.0484C255.637 70.0484 256.383 70.2253 257.012 70.5791C257.641 70.933 258.133 71.4047 258.467 72.0337C258.801 72.643 258.978 73.331 258.978 74.0779C258.998 74.3728 258.978 74.6283 258.919 74.8445ZM256.895 72.6037C256.678 72.2303 256.383 71.9354 256.01 71.7585C255.637 71.5816 255.224 71.4833 254.791 71.4833C254.084 71.4833 253.494 71.6995 253.022 72.132C252.551 72.5644 252.295 73.1934 252.256 74.0386H257.17C257.209 73.4489 257.111 72.9772 256.895 72.6037Z" fill="#CAC9C9"/>
<path d="M265.504 70.6185C266.054 71.0116 266.447 71.5226 266.664 72.1516V67.159H268.472V78.7954H266.664V76.7904C266.447 77.4391 266.054 77.9502 265.504 78.3236C264.954 78.7167 264.285 78.9133 263.499 78.9133C262.752 78.9133 262.064 78.7364 261.474 78.3826C260.885 78.0288 260.413 77.5177 260.079 76.8494C259.745 76.1811 259.568 75.3949 259.568 74.471C259.568 73.5669 259.745 72.7806 260.079 72.1123C260.413 71.444 260.885 70.933 261.474 70.5791C262.064 70.2253 262.732 70.0484 263.499 70.0484C264.266 70.0484 264.954 70.245 265.504 70.6185ZM262.123 72.3875C261.651 72.8986 261.416 73.5865 261.416 74.4907C261.416 75.3752 261.651 76.0828 262.123 76.5939C262.595 77.1049 263.244 77.3605 264.03 77.3605C264.541 77.3605 264.993 77.2425 265.386 77.0067C265.779 76.7708 266.094 76.4366 266.33 76.0042C266.565 75.5718 266.683 75.0804 266.683 74.4907C266.683 73.9207 266.565 73.4293 266.33 72.9968C266.094 72.5644 265.779 72.2303 265.386 71.9944C264.993 71.7585 264.541 71.6406 264.03 71.6406C263.244 71.6209 262.615 71.8764 262.123 72.3875Z" fill="#CAC9C9"/>
<path d="M201.683 90.1502C198.805 90.1502 196.472 91.7071 196.472 93.6275C196.472 95.548 198.805 97.1048 201.683 97.1048H328.426C331.304 97.1048 333.637 95.548 333.637 93.6275C333.637 91.7071 331.304 90.1502 328.426 90.1502H201.683Z" fill="url(#paint12_linear_25131_11792)" fill-opacity="0.3"/>
<path d="M201.683 104.832C198.805 104.832 196.472 106.389 196.472 108.309C196.472 110.23 198.805 111.787 201.683 111.787H284.927C287.805 111.787 290.138 110.23 290.138 108.309C290.138 106.389 287.805 104.832 284.927 104.832H201.683Z" fill="url(#paint13_linear_25131_11792)" fill-opacity="0.3"/>
<path d="M196.472 122.991C196.472 121.071 198.805 119.514 201.683 119.514H310.225C313.103 119.514 315.436 121.071 315.436 122.991C315.436 124.912 313.103 126.468 310.225 126.468H201.683C198.805 126.468 196.472 124.912 196.472 122.991Z" fill="url(#paint14_linear_25131_11792)" fill-opacity="0.3"/>
<path d="M201.683 134.196C198.805 134.196 196.472 135.753 196.472 137.673C196.472 139.593 198.805 141.15 201.683 141.15H310.225C313.103 141.15 315.436 139.593 315.436 137.673C315.436 135.753 313.103 134.196 310.225 134.196H201.683Z" fill="url(#paint15_linear_25131_11792)" fill-opacity="0.3"/>
</g>
</g>
</g>
</g>
</g>
<defs>
<filter id="filter0_ddddi_25131_11792" x="-95.9069" y="-92.5525" width="351.982" height="288.452" filterUnits="userSpaceOnUse" color-interpolation-filters="sRGB">
<feFlood flood-opacity="0" result="BackgroundImageFix"/>
<feColorMatrix in="SourceAlpha" type="matrix" values="0 0 0 0 0 0 0 0 0 0 0 0 0 0 0 0 0 0 127 0" result="hardAlpha"/>
<feOffset dx="10" dy="10"/>
<feGaussianBlur stdDeviation="10"/>
<feComposite in2="hardAlpha" operator="out"/>
<feColorMatrix type="matrix" values="0 0 0 0 0 0 0 0 0 0.459253 0 0 0 0 0.706543 0 0 0 0.05 0"/>
<feBlend mode="normal" in2="BackgroundImageFix" result="effect1_dropShadow_25131_11792"/>
<feColorMatrix in="SourceAlpha" type="matrix" values="0 0 0 0 0 0 0 0 0 0 0 0 0 0 0 0 0 0 127 0" result="hardAlpha"/>
<feMorphology radius="0.906868" operator="dilate" in="SourceAlpha" result="effect2_dropShadow_25131_11792"/>
<feOffset dx="3" dy="3"/>
<feGaussianBlur stdDeviation="5"/>
<feComposite in2="hardAlpha" operator="out"/>
<feColorMatrix type="matrix" values="0 0 0 0 0.00190004 0 0 0 0 0.457296 0 0 0 0 0.583256 0 0 0 0.05 0"/>
<feBlend mode="normal" in2="effect1_dropShadow_25131_11792" result="effect2_dropShadow_25131_11792"/>
<feColorMatrix in="SourceAlpha" type="matrix" values="0 0 0 0 0 0 0 0 0 0 0 0 0 0 0 0 0 0 127 0" result="hardAlpha"/>
<feOffset dx="1" dy="1"/>
<feGaussianBlur stdDeviation="1"/>
<feComposite in2="hardAlpha" operator="out"/>
<feColorMatrix type="matrix" values="0 0 0 0 0.00650824 0 0 0 0 0.479317 0 0 0 0 0.610093 0 0 0 0.1 0"/>
<feBlend mode="normal" in2="effect2_dropShadow_25131_11792" result="effect3_dropShadow_25131_11792"/>
<feColorMatrix in="SourceAlpha" type="matrix" values="0 0 0 0 0 0 0 0 0 0 0 0 0 0 0 0 0 0 127 0" result="hardAlpha"/>
<feMorphology radius="0.906868" operator="dilate" in="SourceAlpha" result="effect4_dropShadow_25131_11792"/>
<feOffset/>
<feGaussianBlur stdDeviation="44"/>
<feComposite in2="hardAlpha" operator="out"/>
<feColorMatrix type="matrix" values="0 0 0 0 0.328158 0 0 0 0 0.944013 0 0 0 0 1 0 0 0 0.3 0"/>
<feBlend mode="normal" in2="effect3_dropShadow_25131_11792" result="effect4_dropShadow_25131_11792"/>
<feBlend mode="normal" in="SourceGraphic" in2="effect4_dropShadow_25131_11792" result="shape"/>
<feColorMatrix in="SourceAlpha" type="matrix" values="0 0 0 0 0 0 0 0 0 0 0 0 0 0 0 0 0 0 127 0" result="hardAlpha"/>
<feOffset/>
<feGaussianBlur stdDeviation="2"/>
<feComposite in2="hardAlpha" operator="arithmetic" k2="-1" k3="1"/>
<feColorMatrix type="matrix" values="0 0 0 0 0 0 0 0 0 0 0 0 0 0 0 0 0 0 0.05 0"/>
<feBlend mode="normal" in2="shape" result="effect5_innerShadow_25131_11792"/>
</filter>
<filter id="filter1_f_25131_11792" x="-5.5" y="-2.1456" width="161" height="108" filterUnits="userSpaceOnUse" color-interpolation-filters="sRGB">
<feFlood flood-opacity="0" result="BackgroundImageFix"/>
<feBlend mode="normal" in="SourceGraphic" in2="BackgroundImageFix" result="shape"/>
<feGaussianBlur stdDeviation="0.5" result="effect1_foregroundBlur_25131_11792"/>
</filter>
<filter id="filter2_ddddi_25131_11792" x="83.4579" y="-35.5525" width="351.98" height="288.452" filterUnits="userSpaceOnUse" color-interpolation-filters="sRGB">
<feFlood flood-opacity="0" result="BackgroundImageFix"/>
<feColorMatrix in="SourceAlpha" type="matrix" values="0 0 0 0 0 0 0 0 0 0 0 0 0 0 0 0 0 0 127 0" result="hardAlpha"/>
<feOffset dx="-10" dy="-10"/>
<feGaussianBlur stdDeviation="20"/>
<feComposite in2="hardAlpha" operator="out"/>
<feColorMatrix type="matrix" values="0 0 0 0 0 0 0 0 0 0.321143 0 0 0 0 0.42819 0 0 0 0.02 0"/>
<feBlend mode="normal" in2="BackgroundImageFix" result="effect1_dropShadow_25131_11792"/>
<feColorMatrix in="SourceAlpha" type="matrix" values="0 0 0 0 0 0 0 0 0 0 0 0 0 0 0 0 0 0 127 0" result="hardAlpha"/>
<feMorphology radius="0.906868" operator="dilate" in="SourceAlpha" result="effect2_dropShadow_25131_11792"/>
<feOffset dx="-3" dy="-3"/>
<feGaussianBlur stdDeviation="7.5"/>
<feComposite in2="hardAlpha" operator="out"/>
<feColorMatrix type="matrix" values="0 0 0 0 0.000335621 0 0 0 0 0.4041 0 0 0 0 0.484853 0 0 0 0.05 0"/>
<feBlend mode="normal" in2="effect1_dropShadow_25131_11792" result="effect2_dropShadow_25131_11792"/>
<feColorMatrix in="SourceAlpha" type="matrix" values="0 0 0 0 0 0 0 0 0 0 0 0 0 0 0 0 0 0 127 0" result="hardAlpha"/>
<feMorphology radius="0.906868" operator="dilate" in="SourceAlpha" result="effect3_dropShadow_25131_11792"/>
<feOffset dx="-1" dy="-1"/>
<feGaussianBlur stdDeviation="4.5"/>
<feComposite in2="hardAlpha" operator="out"/>
<feColorMatrix type="matrix" values="0 0 0 0 0 0 0 0 0 0.168186 0 0 0 0 0.201823 0 0 0 0.05 0"/>
<feBlend mode="normal" in2="effect2_dropShadow_25131_11792" result="effect3_dropShadow_25131_11792"/>
<feColorMatrix in="SourceAlpha" type="matrix" values="0 0 0 0 0 0 0 0 0 0 0 0 0 0 0 0 0 0 127 0" result="hardAlpha"/>
<feMorphology radius="0.906868" operator="dilate" in="SourceAlpha" result="effect4_dropShadow_25131_11792"/>
<feOffset/>
<feGaussianBlur stdDeviation="44"/>
<feComposite in2="hardAlpha" operator="out"/>
<feColorMatrix type="matrix" values="0 0 0 0 0.328158 0 0 0 0 0.944013 0 0 0 0 1 0 0 0 0.3 0"/>
<feBlend mode="normal" in2="effect3_dropShadow_25131_11792" result="effect4_dropShadow_25131_11792"/>
<feBlend mode="normal" in="SourceGraphic" in2="effect4_dropShadow_25131_11792" result="shape"/>
<feColorMatrix in="SourceAlpha" type="matrix" values="0 0 0 0 0 0 0 0 0 0 0 0 0 0 0 0 0 0 127 0" result="hardAlpha"/>
<feOffset/>
<feGaussianBlur stdDeviation="2"/>
<feComposite in2="hardAlpha" operator="arithmetic" k2="-1" k3="1"/>
<feColorMatrix type="matrix" values="0 0 0 0 0 0 0 0 0 0 0 0 0 0 0 0 0 0 0.05 0"/>
<feBlend mode="normal" in2="shape" result="effect5_innerShadow_25131_11792"/>
</filter>
<linearGradient id="paint0_linear_25131_11792" x1="169.5" y1="147" x2="169.5" y2="194" gradientUnits="userSpaceOnUse">
<stop/>
<stop offset="0.117896" stop-opacity="0.991615"/>
<stop offset="0.213837" stop-opacity="0.967585"/>
<stop offset="0.2912" stop-opacity="0.9296"/>
<stop offset="0.353363" stop-opacity="0.879348"/>
<stop offset="0.403704" stop-opacity="0.818519"/>
<stop offset="0.4456" stop-opacity="0.7488"/>
<stop offset="0.48243" stop-opacity="0.671881"/>
<stop offset="0.51757" stop-opacity="0.589452"/>
<stop offset="0.5544" stop-opacity="0.5032"/>
<stop offset="0.596296" stop-opacity="0.414815"/>
<stop offset="0.646637" stop-opacity="0.325985"/>
<stop offset="0.7088" stop-opacity="0.2384"/>
<stop offset="0.786163" stop-opacity="0.153748"/>
<stop offset="0.882104" stop-opacity="0.0737185"/>
<stop offset="1" stop-opacity="0"/>
</linearGradient>
<linearGradient id="paint1_linear_25131_11792" x1="436.5" y1="314" x2="436.5" y2="339.5" gradientUnits="userSpaceOnUse">
<stop/>
<stop offset="0.117896" stop-opacity="0.991615"/>
<stop offset="0.213837" stop-opacity="0.967585"/>
<stop offset="0.2912" stop-opacity="0.9296"/>
<stop offset="0.353363" stop-opacity="0.879348"/>
<stop offset="0.403704" stop-opacity="0.818519"/>
<stop offset="0.4456" stop-opacity="0.7488"/>
<stop offset="0.48243" stop-opacity="0.671881"/>
<stop offset="0.51757" stop-opacity="0.589452"/>
<stop offset="0.5544" stop-opacity="0.5032"/>
<stop offset="0.596296" stop-opacity="0.414815"/>
<stop offset="0.646637" stop-opacity="0.325985"/>
<stop offset="0.7088" stop-opacity="0.2384"/>
<stop offset="0.786163" stop-opacity="0.153748"/>
<stop offset="0.882104" stop-opacity="0.0737185"/>
<stop offset="1" stop-opacity="0"/>
</linearGradient>
<linearGradient id="paint2_linear_25131_11792" x1="97" y1="495" x2="97" y2="533.5" gradientUnits="userSpaceOnUse">
<stop/>
<stop offset="0.117896" stop-opacity="0.991615"/>
<stop offset="0.213837" stop-opacity="0.967585"/>
<stop offset="0.2912" stop-opacity="0.9296"/>
<stop offset="0.353363" stop-opacity="0.879348"/>
<stop offset="0.403704" stop-opacity="0.818519"/>
<stop offset="0.4456" stop-opacity="0.7488"/>
<stop offset="0.48243" stop-opacity="0.671881"/>
<stop offset="0.51757" stop-opacity="0.589452"/>
<stop offset="0.5544" stop-opacity="0.5032"/>
<stop offset="0.596296" stop-opacity="0.414815"/>
<stop offset="0.646637" stop-opacity="0.325985"/>
<stop offset="0.7088" stop-opacity="0.2384"/>
<stop offset="0.786163" stop-opacity="0.153748"/>
<stop offset="0.882104" stop-opacity="0.0737185"/>
<stop offset="1" stop-opacity="0"/>
</linearGradient>
<linearGradient id="paint3_linear_25131_11792" x1="169.5" y1="170" x2="169.5" y2="194.5" gradientUnits="userSpaceOnUse">
<stop/>
<stop offset="0.117896" stop-opacity="0.991615"/>
<stop offset="0.213837" stop-opacity="0.967585"/>
<stop offset="0.2912" stop-opacity="0.9296"/>
<stop offset="0.353363" stop-opacity="0.879348"/>
<stop offset="0.403704" stop-opacity="0.818519"/>
<stop offset="0.4456" stop-opacity="0.7488"/>
<stop offset="0.48243" stop-opacity="0.671881"/>
<stop offset="0.51757" stop-opacity="0.589452"/>
<stop offset="0.5544" stop-opacity="0.5032"/>
<stop offset="0.596296" stop-opacity="0.414815"/>
<stop offset="0.646637" stop-opacity="0.325985"/>
<stop offset="0.7088" stop-opacity="0.2384"/>
<stop offset="0.786163" stop-opacity="0.153748"/>
<stop offset="0.882104" stop-opacity="0.0737185"/>
<stop offset="1" stop-opacity="0"/>
</linearGradient>
<linearGradient id="paint4_linear_25131_11792" x1="169.5" y1="61.0001" x2="169.5" y2="189" gradientUnits="userSpaceOnUse">
<stop offset="0.491986"/>
<stop offset="0.580856" stop-opacity="0.887358"/>
<stop offset="0.730247" stop-opacity="0.468308"/>
<stop offset="0.879628" stop-opacity="0"/>
</linearGradient>
<linearGradient id="paint5_linear_25131_11792" x1="5.50001" y1="193" x2="317.887" y2="-35.5418" gradientUnits="userSpaceOnUse">
<stop stop-color="#BC82F3"/>
<stop offset="0.12252" stop-color="#F5B9EA"/>
<stop offset="0.204652" stop-color="#8D99FF"/>
<stop offset="0.331445" stop-color="#AA6EEE"/>
<stop offset="0.476625" stop-color="#FF6778"/>
<stop offset="0.723021" stop-color="#FFBD77"/>
<stop offset="0.924051" stop-color="#C686FF"/>
</linearGradient>
<linearGradient id="paint6_linear_25131_11792" x1="75" y1="-1.1456" x2="75" y2="175.63" gradientUnits="userSpaceOnUse">
<stop offset="0.104345" stop-color="white"/>
<stop offset="0.641972" stop-color="white" stop-opacity="0"/>
</linearGradient>
<linearGradient id="paint7_linear_25131_11792" x1="77.264" y1="36.3446" x2="77.264" y2="88.6691" gradientUnits="userSpaceOnUse">
<stop stop-color="#DDDDDD"/>
<stop offset="1" stop-color="#DCDCDC"/>
</linearGradient>
<linearGradient id="paint8_linear_25131_11792" x1="77.264" y1="36.3446" x2="77.264" y2="88.6691" gradientUnits="userSpaceOnUse">
<stop stop-color="#DDDDDD"/>
<stop offset="1" stop-color="#DCDCDC"/>
</linearGradient>
<linearGradient id="paint9_linear_25131_11792" x1="77.264" y1="36.3446" x2="77.264" y2="88.6691" gradientUnits="userSpaceOnUse">
<stop stop-color="#DDDDDD"/>
<stop offset="1" stop-color="#DCDCDC"/>
</linearGradient>
<linearGradient id="paint10_linear_25131_11792" x1="77.264" y1="36.3446" x2="77.264" y2="88.6691" gradientUnits="userSpaceOnUse">
<stop stop-color="#DDDDDD"/>
<stop offset="1" stop-color="#DCDCDC"/>
</linearGradient>
<linearGradient id="paint11_linear_25131_11792" x1="264.572" y1="55.7683" x2="264.572" y2="230.876" gradientUnits="userSpaceOnUse">
<stop stop-color="white"/>
<stop offset="0.385076" stop-color="white" stop-opacity="0"/>
</linearGradient>
<linearGradient id="paint12_linear_25131_11792" x1="265.055" y1="90.1502" x2="265.055" y2="141.15" gradientUnits="userSpaceOnUse">
<stop stop-color="#DDDDDD"/>
<stop offset="1" stop-color="#DCDCDC"/>
</linearGradient>
<linearGradient id="paint13_linear_25131_11792" x1="265.055" y1="90.1502" x2="265.055" y2="141.15" gradientUnits="userSpaceOnUse">
<stop stop-color="#DDDDDD"/>
<stop offset="1" stop-color="#DCDCDC"/>
</linearGradient>
<linearGradient id="paint14_linear_25131_11792" x1="265.055" y1="90.1502" x2="265.055" y2="141.15" gradientUnits="userSpaceOnUse">
<stop stop-color="#DDDDDD"/>
<stop offset="1" stop-color="#DCDCDC"/>
</linearGradient>
<linearGradient id="paint15_linear_25131_11792" x1="265.055" y1="90.1502" x2="265.055" y2="141.15" gradientUnits="userSpaceOnUse">
<stop stop-color="#DDDDDD"/>
<stop offset="1" stop-color="#DCDCDC"/>
</linearGradient>
</defs>
</svg>
