<svg width="164" height="164" viewBox="0 0 164 164" fill="none" xmlns="http://www.w3.org/2000/svg">
<path d="M119.461 39.4141H96.2422V64.4118H119.461V39.4141Z" fill="white"/>
<path d="M119.577 63.8317C119.577 63.1669 119.609 62.505 119.615 61.8373C119.621 61.2063 119.622 60.5752 119.619 59.9427C119.618 59.6213 119.667 58.9448 119.669 58.6234C119.669 58.3211 119.665 57.7899 119.672 57.4905C119.686 56.9094 119.726 56.902 119.739 56.3223C119.754 55.7368 119.781 55.1542 119.802 54.5672C119.822 53.9596 119.82 53.3418 119.827 52.7328C119.837 52.1546 119.847 51.5793 119.856 51.0011C119.868 50.3759 119.89 49.7552 119.884 49.1286C119.875 48.3801 119.859 47.6317 119.841 46.8818C119.825 46.2097 119.834 45.5537 119.858 44.8859C119.919 43.7824 119.999 42.692 120.081 41.6031C120.107 41.2509 120.129 40.8972 120.15 40.5421L120.164 40.275L120.169 40.206L120.172 40.0798L120.179 39.8245C120.188 39.4767 120.197 39.1274 120.207 38.7781C120.207 38.7414 120.208 38.7047 120.21 38.6666C119.514 38.6519 118.809 38.6358 118.105 38.6211H117.779C117.127 38.6226 116.481 38.6372 115.835 38.649C115.081 38.6622 114.329 38.6783 113.585 38.7106C112.445 38.7664 111.315 38.8207 110.175 38.875C109.639 38.897 109.105 38.9175 108.568 38.9395C108.149 38.9469 107.731 38.9542 107.31 38.9601C106.711 38.9689 106.116 38.9865 105.52 39.0056C104.593 39.0393 103.672 39.0716 102.746 39.1054C102.345 39.1112 101.948 39.1142 101.546 39.1142C101.107 39.1142 100.67 39.1259 100.233 39.1406C99.6572 39.1553 99.0813 39.1641 98.5024 39.167C98.213 39.167 97.9236 39.167 97.6342 39.1685C97.3156 39.167 96.9969 39.1641 96.6768 39.1626C96.4458 39.1611 96.2164 39.1582 95.9869 39.1567L95.9752 40.2207L95.9606 41.0249C95.9489 41.5605 95.9343 42.0962 95.9138 42.6304C95.8904 43.2159 95.8743 43.7912 95.8714 44.3841C95.8758 44.9608 95.8802 45.5375 95.8831 46.1128C95.8875 46.7336 95.8963 47.3602 95.8919 47.9824C95.8875 48.5958 95.8758 49.2034 95.8583 49.8183C95.8407 50.1177 95.8217 50.4141 95.7998 50.712C95.7749 51.0349 95.7501 51.3533 95.7252 51.6762C95.6624 52.5303 95.6215 53.3946 95.5966 54.2678C95.5762 54.981 95.5703 55.706 95.5703 56.4207C95.5703 57.1852 95.6039 57.9337 95.6288 58.688C95.6317 58.9727 95.6302 59.253 95.6215 59.5377C95.6142 59.7255 95.6054 59.9104 95.5981 60.0953C95.5879 60.3771 95.5995 60.6515 95.6083 60.9304L95.6361 61.7889C95.6434 62.1279 95.6507 62.4683 95.6595 62.8073C95.6712 63.1933 95.6829 63.5792 95.6946 63.9623C95.7048 64.2881 95.715 64.6124 95.7252 64.9338C96.117 64.9191 96.5072 64.9059 96.8975 64.8912L97.0378 64.8853L97.1255 64.8795L97.3024 64.8692L97.6547 64.8486C98.27 64.8149 98.8912 64.7899 99.5139 64.7665C100.201 64.7386 100.881 64.7122 101.568 64.6858C102.148 64.6755 102.714 64.6784 103.297 64.6931C103.867 64.7063 104.437 64.721 105.004 64.7342C106.233 64.7591 107.454 64.7679 108.682 64.7694C109.944 64.7694 111.209 64.6608 112.475 64.6711C113.289 64.677 114.097 64.6608 114.907 64.652C116.038 64.6902 117.009 64.5111 118.355 64.5243C118.945 64.5302 119.463 64.4979 119.464 64.4099C119.464 64.3218 118.961 64.2954 118.355 64.2983C116.617 64.3042 115.812 64.2514 114.185 64.2411C113.413 64.2367 112.551 64.2939 111.158 64.2939C110.33 64.2939 109.509 64.2161 108.679 64.2176C107.537 64.2206 107.354 64.2294 106.926 64.2C106.27 64.1545 105.811 64.0797 105.236 64.0694C104.584 64.0577 103.918 64.0547 103.267 64.0709C102.028 64.1002 100.768 64.1178 99.5329 64.0562C98.9746 64.0283 98.4103 64.0063 97.8491 64.0107C97.5801 64.0136 97.3126 64.0078 97.0466 64.0004C96.9092 63.9931 96.7923 63.9857 96.6709 63.9828C96.6709 63.9447 96.671 63.9065 96.6724 63.8683C96.6724 63.6541 96.6724 63.4442 96.6724 63.2344C96.6695 62.9262 96.6607 62.618 96.6373 62.3069C96.5964 61.7639 96.6227 61.2107 96.5862 60.6706C96.5701 60.4285 96.5599 60.1849 96.554 59.9398L96.5584 59.8958C96.5979 59.4907 96.6125 59.0578 96.6286 58.6352C96.6403 58.3593 96.652 58.0775 96.6578 57.7957C96.671 57.1852 96.6578 56.5748 96.6417 55.9657C96.6315 55.367 96.6213 54.7653 96.6096 54.1666C96.6066 53.9303 96.6037 53.694 96.6008 53.4577L96.6154 53.3345C96.7221 52.4833 96.6768 51.5661 96.6783 50.6973C96.6783 50.6269 96.6724 50.5653 96.6607 50.511C96.6563 49.2005 96.6666 47.8929 96.6841 46.578C96.6943 45.8193 96.7177 45.065 96.7382 44.3077C96.7587 43.5652 96.7733 42.8211 96.801 42.0815C96.823 41.6618 96.8463 41.2406 96.8683 40.8224L96.9034 40.2075C96.9151 40.1708 96.9282 40.1458 96.9414 40.1297L96.9501 40.1194C96.9911 40.1326 97.0174 40.1444 97.0364 40.1532H97.0393C97.0393 40.1532 97.0393 40.1547 97.0422 40.1561H97.0656L97.1562 40.1605L97.3389 40.1664L97.7044 40.1767C98.1926 40.1869 98.6822 40.1972 99.1704 40.2075C100.189 40.231 101.212 40.1664 102.211 40.1194C102.624 40.0989 103.037 40.0783 103.446 40.0563C103.975 40.0578 104.526 40.0827 105.051 40.0402C105.63 39.9932 106.188 39.8832 106.774 39.8597C107.331 39.8362 107.894 39.8538 108.448 39.8186C108.958 39.7848 109.507 39.7511 110.023 39.7526L110.881 39.7672C111.156 39.7672 111.418 39.7379 111.691 39.7305C112.078 39.7144 112.464 39.6983 112.852 39.6836C113.64 39.7129 114.426 39.7452 115.217 39.7584C115.945 39.7702 116.684 39.7584 117.403 39.7335C117.675 39.7217 117.947 39.7115 118.219 39.6997L118.627 39.6821L118.923 39.666L119.235 39.6542L119.254 40.1635C119.257 40.3278 119.258 40.4922 119.261 40.6565C119.261 40.8268 119.261 40.9985 119.261 41.1702C119.258 41.6016 119.242 42.036 119.232 42.4645C119.21 43.3832 119.176 44.3004 119.159 45.2176C119.143 46.1025 119.172 46.9918 119.201 47.8665C119.229 48.6927 119.228 49.5233 119.251 50.3525C119.268 51.1288 119.28 51.9124 119.27 52.6946C119.264 53.1378 119.325 53.581 119.317 54.0227C119.309 54.394 119.317 54.7653 119.317 55.1366C119.314 55.954 119.282 56.7655 119.27 57.5815C119.264 58.0188 119.249 58.4547 119.27 58.8817C119.286 59.2442 119.325 59.6287 119.336 59.9911C119.344 60.6192 119.349 61.2429 119.35 61.874C119.35 62.5769 119.387 63.1331 119.387 63.8317C119.387 64.1017 119.404 64.4084 119.473 64.4128C119.565 64.4187 119.587 64.2 119.587 63.8317H119.577Z" fill="#063844"/>
<path d="M108.141 54.6735C110.893 54.6735 113.124 52.4337 113.124 49.6708C113.124 46.9078 110.893 44.668 108.141 44.668C105.389 44.668 103.158 46.9078 103.158 49.6708C103.158 52.4337 105.389 54.6735 108.141 54.6735Z" fill="#FFD58E"/>
<path d="M113.172 49.4792C113.166 49.3706 113.165 49.2605 113.163 49.1504C113.152 49.0418 113.14 48.9333 113.124 48.8232C113.105 48.6148 113.038 48.4152 112.988 48.2127C112.962 48.11 112.902 47.8942 112.867 47.793C112.837 47.6961 112.754 47.5406 112.716 47.4496C112.637 47.2735 112.662 47.2573 112.564 47.09L112.425 46.8318C112.38 46.7452 112.32 46.6659 112.267 46.5837C112.209 46.5001 112.155 46.412 112.086 46.3343C112.017 46.2565 111.95 46.1802 111.882 46.1024C111.849 46.0657 111.819 46.029 111.785 45.9938L111.68 45.8925L111.469 45.69C111.393 45.6181 111.307 45.5565 111.227 45.489C111.143 45.4259 111.064 45.3525 110.971 45.3026L110.642 45.1133C110.529 45.0546 110.413 45.0091 110.297 44.9563C110.246 44.9328 110.195 44.9108 110.144 44.8873L109.987 44.8286C109.883 44.789 109.78 44.7464 109.676 44.7024C109.5 44.6422 109.326 44.5732 109.148 44.5175C108.968 44.4734 108.787 44.4148 108.603 44.381C108.363 44.3428 108.118 44.3032 107.868 44.3076C107.786 44.3076 107.703 44.3062 107.621 44.3047C107.537 44.3076 107.456 44.3208 107.374 44.3311L107.261 44.3472C107.033 44.3737 106.818 44.4529 106.599 44.5116C106.473 44.5498 106.352 44.6055 106.231 44.654C106.171 44.6789 106.109 44.7024 106.049 44.7303L105.878 44.8242L105.62 44.9724C105.538 45.0282 105.457 45.0869 105.377 45.1426C105.298 45.2013 105.213 45.2527 105.142 45.3187L104.918 45.511L104.813 45.6005C104.779 45.6328 104.749 45.6665 104.716 45.6988L104.523 45.8955C104.471 45.9439 104.423 45.9967 104.377 46.051L104.237 46.2139C104.097 46.3622 103.994 46.5412 103.879 46.7056C103.793 46.8376 103.727 46.9814 103.652 47.1179C103.576 47.2544 103.528 47.4056 103.464 47.5464C103.402 47.6668 103.366 47.7959 103.318 47.9221C103.293 47.9911 103.268 48.0615 103.246 48.1305C103.228 48.2024 103.214 48.2743 103.199 48.3462L103.136 48.6295L103.097 48.9171C103.085 49.0125 103.063 49.1079 103.06 49.2047L103.043 49.4953L103.033 49.6509C103.031 49.7022 103.035 49.7551 103.035 49.8064L103.044 50.119C103.043 50.2232 103.065 50.3259 103.073 50.4301C103.087 50.5328 103.092 50.6385 103.109 50.7412C103.128 50.8381 103.148 50.9335 103.167 51.0289C103.187 51.1243 103.208 51.2211 103.244 51.315C103.313 51.497 103.373 51.6819 103.467 51.8536C103.513 51.9475 103.56 52.0415 103.605 52.1354L103.769 52.4054C103.867 52.5874 103.996 52.7473 104.11 52.9205C104.161 53.0086 104.228 53.0834 104.285 53.1685C104.351 53.2566 104.408 53.352 104.483 53.4341C104.579 53.5442 104.68 53.6528 104.782 53.7614C104.893 53.8597 105.009 53.9551 105.126 54.052C105.222 54.1297 105.33 54.1914 105.434 54.2589L105.592 54.3572C105.646 54.388 105.703 54.413 105.759 54.4409C105.878 54.4966 105.995 54.5553 106.118 54.5979L106.491 54.7138C106.581 54.7505 106.678 54.7667 106.77 54.7989C106.831 54.8195 106.893 54.8386 106.954 54.8576C107.046 54.8899 107.141 54.8987 107.238 54.909L107.532 54.9398C107.647 54.956 107.764 54.9486 107.881 54.953C107.998 54.9516 108.113 54.9633 108.227 54.9442C108.457 54.9149 108.682 54.8914 108.903 54.8283C109.005 54.8033 109.107 54.7828 109.208 54.7564L109.509 54.6595L109.674 54.6067L109.832 54.5377C109.937 54.4922 110.041 54.4453 110.148 54.3983C110.234 54.3543 110.32 54.3117 110.407 54.2706C110.493 54.2281 110.582 54.1929 110.665 54.1415C110.829 54.0446 111.004 53.9639 111.157 53.8465L111.409 53.666C111.488 53.6 111.564 53.531 111.643 53.462C111.804 53.3314 111.936 53.17 112.076 53.0188C112.15 52.9425 112.205 52.8486 112.266 52.762C112.323 52.6725 112.389 52.5874 112.437 52.492C112.535 52.3012 112.643 52.1207 112.729 51.927C112.859 51.6863 112.938 51.4251 113.023 51.1698C113.077 50.9893 113.112 50.8146 113.127 50.6312C113.131 50.5387 113.136 50.4448 113.143 50.3465C113.147 50.298 113.153 50.2467 113.158 50.1953C113.16 50.144 113.162 50.0897 113.165 50.0339C113.178 49.8387 113.171 49.6685 113.125 49.6685C113.082 49.6685 113.061 49.8314 113.052 50.0266C113.004 50.5857 112.925 50.8396 112.75 51.3297C112.704 51.4442 112.675 51.5748 112.608 51.7157C112.545 51.858 112.481 52.0312 112.358 52.219C112.289 52.3335 112.215 52.4436 112.124 52.5419C112.035 52.6402 111.956 52.7473 111.867 52.8457C111.746 52.9821 111.674 53.0599 111.623 53.1186C111.57 53.1744 111.528 53.2023 111.474 53.2448C111.389 53.3065 111.313 53.3549 111.243 53.4033C111.17 53.4488 111.097 53.4855 111.024 53.5398C110.861 53.666 110.679 53.7687 110.508 53.8817C110.429 53.9404 110.337 53.9771 110.252 54.0241C110.164 54.0666 110.078 54.1165 109.986 54.1532C109.894 54.187 109.8 54.2193 109.708 54.2501C109.661 54.2648 109.616 54.2809 109.568 54.2941L109.424 54.3205C109.338 54.3352 109.252 54.3513 109.166 54.369C109.081 54.3895 108.992 54.3924 108.906 54.4086C108.811 54.4233 108.716 54.4365 108.619 54.4438C108.523 54.4438 108.428 54.4438 108.331 54.4497C108.137 54.4687 107.95 54.4409 107.754 54.457C107.667 54.4673 107.583 54.4526 107.499 54.4409C107.415 54.4291 107.33 54.4174 107.245 54.4144C107.168 54.4144 107.095 54.3954 107.019 54.3792L107.005 54.3734C106.947 54.3484 106.884 54.3249 106.821 54.3029C106.758 54.2824 106.695 54.2604 106.636 54.2325C106.557 54.1973 106.476 54.162 106.396 54.1283C106.307 54.096 106.222 54.0534 106.136 54.0138L105.875 53.8993C105.794 53.8553 105.713 53.8084 105.631 53.7614C105.551 53.713 105.466 53.6719 105.392 53.6146L105.212 53.4855L105.186 53.4562C105.092 53.3608 105.003 53.2536 104.899 53.1626C104.794 53.0731 104.699 52.9719 104.61 52.8706C104.595 52.8545 104.58 52.8427 104.564 52.8339L104.461 52.7209L104.37 52.5977L104.189 52.3511L104.034 52.087L103.956 51.9549L103.892 51.8155C103.845 51.7069 103.793 51.6012 103.753 51.4911L103.648 51.1551C103.608 51.0465 103.597 50.9305 103.569 50.8205C103.544 50.709 103.519 50.5974 103.513 50.483C103.508 50.3538 103.491 50.2261 103.494 50.097L103.512 49.714C103.527 49.5599 103.55 49.4058 103.562 49.2517C103.581 49.0976 103.617 48.9465 103.642 48.7938C103.674 48.6441 103.717 48.4974 103.741 48.3448C103.775 48.1951 103.822 48.0498 103.86 47.9016C103.896 47.7812 103.949 47.6668 103.99 47.5479C104.007 47.5112 104.026 47.476 104.044 47.4393L104.11 47.3351C104.152 47.2647 104.193 47.1942 104.225 47.1194C104.297 46.955 104.367 46.7921 104.464 46.6351C104.572 46.5001 104.692 46.371 104.801 46.2359C104.909 46.12 105.019 45.9806 105.15 45.8837L105.371 45.7282C105.438 45.6739 105.5 45.6196 105.573 45.5712C105.675 45.5051 105.77 45.4244 105.877 45.3642L106.222 45.2219C106.337 45.1764 106.459 45.1456 106.576 45.103C106.63 45.0854 106.682 45.0634 106.738 45.0487L106.905 45.0047C107.016 44.9768 107.124 44.9343 107.235 44.9122L107.486 44.8565C107.57 44.8374 107.654 44.8154 107.741 44.8095L108.107 44.7758C108.216 44.7699 108.322 44.7802 108.432 44.7846L108.637 44.8007C108.704 44.8139 108.771 44.8271 108.838 44.8403C108.98 44.8697 109.125 44.8902 109.261 44.9401L109.468 45.0032C109.538 45.0223 109.606 45.0443 109.673 45.0737C109.802 45.128 109.935 45.1676 110.063 45.219C110.19 45.2747 110.318 45.329 110.446 45.3818C110.562 45.442 110.674 45.5081 110.788 45.5741C110.904 45.6357 111.005 45.7238 111.114 45.7942C111.164 45.8309 111.216 45.8632 111.265 45.9028L111.405 46.0246C111.497 46.1083 111.595 46.186 111.672 46.2844C111.762 46.393 111.887 46.4707 111.969 46.5867C112.036 46.6835 112.111 46.7775 112.181 46.8729C112.32 47.093 112.449 47.3204 112.547 47.5611C112.576 47.6242 112.604 47.6873 112.633 47.7504C112.658 47.815 112.68 47.8796 112.709 47.9412C112.753 48.0469 112.823 48.154 112.855 48.2655C112.906 48.4607 112.972 48.6515 112.994 48.8525C113.011 48.9641 113.032 49.0639 113.049 49.1637C113.06 49.2649 113.068 49.3647 113.074 49.4777C113.079 49.5643 113.092 49.6626 113.127 49.6655C113.174 49.6685 113.181 49.5966 113.174 49.4748L113.172 49.4792Z" fill="#063844"/>
<path d="M116.272 64.4138H100.011V60.1653C100.011 57.7233 101.983 55.7422 104.416 55.7422H111.866C114.299 55.7422 116.272 57.7219 116.272 60.1653V64.4138Z" fill="#FFD58E"/>
<path d="M116.329 64.1357C116.329 63.8187 116.345 63.5017 116.348 63.1818V62.2763C116.348 62.1222 116.374 61.7994 116.374 61.6453C116.374 61.5015 116.372 61.2461 116.376 61.1038C116.383 60.8264 116.402 60.822 116.41 60.5446C116.414 60.4038 116.418 60.2644 116.423 60.1235L116.417 59.6891C116.399 59.5394 116.379 59.3882 116.357 59.2371C116.32 59.0889 116.284 58.9406 116.247 58.7939C116.201 58.6574 116.152 58.5224 116.106 58.3859C116.05 58.2538 115.987 58.1232 115.929 57.9926C115.857 57.8547 115.775 57.7211 115.699 57.5861C115.612 57.4584 115.519 57.3322 115.423 57.209C115.173 56.9316 114.906 56.666 114.596 56.4576C114.463 56.3549 114.321 56.2727 114.181 56.1861C114.045 56.0922 113.893 56.0291 113.746 55.9484C113.258 55.696 112.728 55.5243 112.177 55.4465L111.908 55.4142C111.818 55.4054 111.738 55.4024 111.652 55.3966C111.482 55.3878 111.313 55.3775 111.142 55.3687C110.918 55.357 110.692 55.3467 110.465 55.3438H110.31C109.999 55.3482 109.69 55.3526 109.38 55.357C109.019 55.3643 108.661 55.3716 108.305 55.3878C107.759 55.4157 107.219 55.4421 106.673 55.47C106.418 55.4802 106.162 55.492 105.905 55.5022C105.704 55.5052 105.504 55.5096 105.304 55.5125C105.017 55.5169 104.734 55.5257 104.447 55.536C103.987 55.5595 103.529 55.6373 103.094 55.784C102.999 55.8134 102.908 55.853 102.815 55.8853C102.722 55.9205 102.629 55.9528 102.54 55.9997L102.249 56.145L101.977 56.3211C101.506 56.6396 101.09 57.0373 100.751 57.4981C100.385 57.9897 100.121 58.5547 99.9613 59.1505C99.8897 59.4308 99.84 59.7155 99.8327 60.0105C99.8225 60.1558 99.8269 60.2922 99.8269 60.4302L99.8313 60.844C99.8327 61.1405 99.8371 61.4398 99.8356 61.7377C99.8342 62.0312 99.8283 62.3218 99.8181 62.6153C99.8079 62.7577 99.7991 62.9 99.7889 63.0424C99.7757 63.1965 99.764 63.3491 99.7509 63.5032C99.7406 63.6529 99.7304 63.804 99.7202 63.9552L99.7172 64.0124L99.7143 64.1107L99.7085 64.3118C99.7056 64.4497 99.7012 64.5877 99.6982 64.7256C99.8897 64.73 100.087 64.733 100.283 64.7374C100.471 64.7403 100.661 64.7447 100.85 64.7476C101.021 64.7476 101.192 64.7491 101.363 64.7506C101.727 64.7506 102.084 64.733 102.443 64.7212C102.579 64.7197 102.712 64.7212 102.848 64.7256C102.937 64.73 103.025 64.733 103.114 64.7374C103.249 64.7432 103.379 64.7374 103.512 64.733L103.921 64.7197C104.244 64.7124 104.569 64.7065 104.889 64.6904C105.209 64.6713 105.526 64.6522 105.845 64.6332C106.138 64.617 106.437 64.6038 106.733 64.5921C107.062 64.5789 107.387 64.5657 107.716 64.551C107.993 64.5466 108.264 64.548 108.541 64.5539C108.813 64.5613 109.087 64.5671 109.358 64.5745C109.946 64.5862 110.529 64.5921 111.117 64.5921C111.721 64.5921 112.326 64.5378 112.931 64.5436C113.32 64.5466 113.707 64.5392 114.093 64.5348C114.634 64.5539 115.098 64.4644 115.742 64.4717C116.024 64.4747 116.271 64.4585 116.272 64.4145C116.272 64.3705 116.032 64.3573 115.742 64.3587C114.911 64.3617 114.525 64.3353 113.748 64.3309C113.378 64.3279 112.967 64.3573 112.301 64.3573C111.906 64.3573 111.513 64.3176 111.115 64.3191C110.57 64.3206 110.482 64.325 110.278 64.3103C109.964 64.2883 109.744 64.2501 109.47 64.2457C109.158 64.2399 108.84 64.2384 108.528 64.2457C107.935 64.2604 107.333 64.2692 106.742 64.2384C106.476 64.2252 106.206 64.2135 105.937 64.2149C105.64 64.2179 105.349 64.2002 105.054 64.2002C104.756 64.2002 104.466 64.1958 104.17 64.2179C103.911 64.2384 103.648 64.2252 103.39 64.2428C103.275 64.2516 103.159 64.256 103.043 64.2589L103.022 64.256C102.829 64.2369 102.623 64.2296 102.421 64.2208C102.29 64.2164 102.155 64.2105 102.021 64.2061C101.73 64.1988 101.439 64.2061 101.15 64.2149C100.882 64.2208 100.613 64.2252 100.346 64.2311L100.189 64.2355V64.2046L100.197 64.1665L100.213 64.0784L100.219 64.0388C100.22 64.0256 100.222 64.0197 100.223 63.9875C100.229 63.8833 100.23 63.7761 100.232 63.6705C100.232 63.4577 100.229 63.2449 100.229 63.0365C100.229 63.0027 100.226 62.9734 100.22 62.947C100.219 62.3203 100.223 61.6952 100.232 61.0671C100.236 60.8851 100.239 60.7046 100.243 60.5241C100.249 60.3451 100.251 60.1587 100.268 59.9914L100.287 59.7404L100.333 59.4939C100.355 59.3281 100.41 59.1696 100.455 59.0111C100.587 58.6589 100.748 58.3184 100.971 58.022C101.233 57.658 101.536 57.319 101.888 57.0417C102.237 56.7687 102.614 56.5236 103.018 56.3475C103.183 56.2683 103.358 56.2184 103.531 56.1612C103.762 56.1171 104.003 56.0878 104.235 56.0628C104.3 56.0526 104.364 56.0408 104.428 56.0305L104.633 56.0041C104.769 55.9865 104.906 55.9689 105.047 55.963C105.313 55.9513 105.581 55.9601 105.846 55.9425C106.09 55.9264 106.352 55.9087 106.6 55.9102L107.01 55.9176C107.141 55.9176 107.265 55.9029 107.397 55.8985C107.583 55.8911 107.767 55.8823 107.951 55.875C108.328 55.8897 108.704 55.9058 109.082 55.9117C109.43 55.9176 109.784 55.9117 110.127 55.8985C110.387 55.8867 110.646 55.8765 110.906 55.8647C111.092 55.8588 111.276 55.8544 111.46 55.8486C111.623 55.8471 111.786 55.8398 111.947 55.8486L112.248 55.8706C112.349 55.8765 112.446 55.9043 112.543 55.919C112.649 55.9366 112.752 55.9542 112.853 55.9895C112.956 56.0203 113.058 56.0467 113.157 56.0804C113.355 56.1597 113.552 56.2331 113.736 56.3373L113.872 56.4048C113.917 56.4282 113.96 56.4576 114.004 56.4825C114.09 56.5368 114.181 56.5853 114.265 56.6396C114.43 56.7584 114.601 56.87 114.751 57.0065C114.903 57.1239 115.025 57.2721 115.158 57.4115C115.22 57.4849 115.277 57.5641 115.337 57.639L115.426 57.7534L115.503 57.8752L115.65 58.1056L115.771 58.3507L115.831 58.474C115.848 58.5165 115.863 58.5591 115.879 58.6016L115.971 58.8599C115.999 58.9597 116.028 59.058 116.062 59.1578C116.076 59.2077 116.095 59.2562 116.107 59.3075C116.117 59.3589 116.126 59.4103 116.133 59.4616L116.171 59.7199L116.186 59.9811C116.199 60.1704 116.189 60.3685 116.186 60.5623C116.182 60.7574 116.177 60.9512 116.173 61.1463C116.17 61.3547 116.163 61.5631 116.173 61.7686C116.182 61.9417 116.201 62.1252 116.205 62.2998C116.208 62.6006 116.209 62.8986 116.212 63.1994C116.212 63.5355 116.231 63.8011 116.231 64.1357C116.231 64.2648 116.24 64.4116 116.274 64.413C116.32 64.416 116.331 64.3118 116.331 64.1357H116.329Z" fill="#063844"/>
<path d="M113.585 29.7578H40.3814C39.0191 29.7578 37.9141 30.8673 37.9141 32.235V133.252C37.9141 134.467 38.8963 135.453 40.1066 135.453H123.891C125.102 135.453 126.084 134.467 126.084 133.252V42.3081L113.584 29.7578H113.585Z" fill="white"/>
<path d="M113.585 29.7666C113.585 29.3953 109.434 29.454 102.601 29.454C85.8265 29.454 68.8068 29.3836 51.6715 29.2838C49.5302 29.2706 47.3859 29.2589 45.2402 29.2457C44.1673 29.2383 43.0944 29.2325 42.0215 29.2251L40.4108 29.2148C40.0965 29.2148 39.7603 29.2603 39.449 29.3587C39.1347 29.457 38.8409 29.614 38.5778 29.8092C38.3147 30.0058 38.0794 30.2421 37.8923 30.5136C37.7052 30.7851 37.562 31.0874 37.4699 31.4059C37.4494 31.4866 37.426 31.5658 37.41 31.6465L37.372 31.8916C37.3573 32.0501 37.3486 32.2379 37.35 32.3583L37.3442 33.1669C37.3369 34.2455 37.3296 35.3256 37.3223 36.4042C37.3076 38.563 37.293 40.7232 37.2784 42.8848C37.2199 51.5285 37.16 60.1854 37.1015 68.8379C36.9861 86.1444 36.8852 103.438 36.837 120.587C36.8326 122.731 36.8268 124.872 36.8224 127.012C36.8209 128.082 36.818 129.15 36.8165 130.219L36.8136 131.821V133.223C36.8121 133.237 36.8121 133.256 36.8136 133.284L36.8165 133.359L36.8238 133.509C36.8838 134.309 37.2492 135.083 37.8251 135.635C38.1116 135.912 38.4492 136.139 38.8176 136.296C39.1859 136.453 39.5835 136.541 39.981 136.554L40.1228 136.558H43.2055C45.3249 136.558 47.4414 136.558 49.555 136.557C58.0094 136.548 66.4111 136.52 74.7455 136.469C86.5953 136.391 98.3238 136.315 110.038 136.238C112.965 136.219 115.893 136.2 118.821 136.18C120.286 136.169 121.749 136.161 123.213 136.15L123.763 136.147H123.903L124.083 136.137C124.203 136.134 124.323 136.108 124.441 136.09C124.915 135.996 125.36 135.777 125.73 135.469C126.094 135.155 126.389 134.758 126.56 134.307C126.603 134.194 126.644 134.081 126.669 133.962C126.702 133.846 126.718 133.727 126.734 133.607C126.752 133.488 126.751 133.368 126.756 133.247V132.972C126.718 127.085 126.683 121.19 126.647 115.272C126.59 103.435 126.531 91.5082 126.471 79.3821C126.452 73.3197 126.435 67.2061 126.416 61.0307C126.407 54.8143 126.397 48.5333 126.388 42.176C124.849 40.6307 123.21 38.9871 121.564 37.3361C117.671 33.4266 113.809 29.5274 113.61 29.7255C113.348 29.9882 116.324 32.8939 121.157 37.7456C122.718 39.3114 124.274 40.8758 125.809 42.4167C125.803 57.651 125.797 72.7034 125.792 87.6736C125.764 102.68 125.701 117.605 125.559 132.546L125.55 133.271C125.548 133.457 125.508 133.639 125.445 133.811C125.321 134.157 125.071 134.454 124.761 134.643C124.606 134.738 124.438 134.81 124.26 134.846C124.217 134.859 124.171 134.86 124.127 134.869C124.083 134.878 124.038 134.882 123.992 134.881L123.925 134.884H123.665C123.181 134.879 122.696 134.875 122.212 134.871C120.277 134.853 118.346 134.835 116.419 134.818C112.566 134.784 108.731 134.752 104.912 134.718C97.2714 134.661 89.6912 134.603 82.1533 134.546C74.6154 134.504 67.1185 134.461 59.6435 134.419C55.906 134.404 52.1743 134.388 48.4471 134.373C46.5834 134.367 44.7198 134.361 42.8576 134.355L40.0863 134.347C39.9679 134.347 39.8539 134.319 39.7457 134.284C39.6361 134.247 39.5338 134.19 39.4432 134.116C39.3525 134.044 39.2707 133.958 39.2049 133.862C39.142 133.764 39.0938 133.658 39.0631 133.548C39.0324 133.454 39.028 133.355 39.0222 133.256C39.0222 133.061 39.0222 132.866 39.0222 132.672C39.0222 132.28 39.0222 131.891 39.0222 131.507C39.0222 130.737 39.0207 129.981 39.0193 129.235C39.0134 127.746 39.0061 126.306 39.0003 124.905C38.9827 122.103 38.9549 119.457 38.9243 116.893C38.8614 111.766 38.7839 106.963 38.7386 101.882C38.5954 86.2251 39.0573 73.5193 39.0149 58.4904C38.9944 51.4551 38.933 44.389 38.8497 37.3068C38.8395 36.4218 38.8278 35.5355 38.8176 34.6505L38.8015 33.321L38.7927 32.6562L38.7883 32.3245V32.1851L38.7927 32.0765C38.8205 31.7918 38.9111 31.5086 39.0836 31.2723C39.2473 31.0302 39.4855 30.8438 39.7501 30.7191C39.886 30.6662 40.0249 30.6149 40.1711 30.5972C40.2441 30.5811 40.3158 30.5855 40.3947 30.5767L40.7265 30.5723L42.0522 30.5532C45.5866 30.5019 49.1238 30.4505 52.6625 30.3977C66.8174 30.1878 80.9942 29.975 95.0935 29.9295C97.5974 29.9633 100.101 29.9985 102.605 30.0323C108.113 30.0323 113.59 30.0484 113.59 29.7666H113.585Z" fill="#063844"/>
<path d="M109.738 49.5452C109.558 49.5452 109.379 49.5085 109.197 49.5011C109.026 49.4953 108.863 49.5408 108.692 49.5452C108.604 49.5481 108.402 49.5188 108.315 49.5188C108.233 49.5188 108.088 49.5246 108.008 49.5158C107.85 49.4982 107.86 49.5701 107.702 49.554C107.543 49.5364 107.385 49.5041 107.227 49.4821C107.062 49.4586 106.895 49.4615 106.73 49.4542C106.574 49.4483 106.417 49.4336 106.261 49.4204C106.091 49.4072 105.923 49.3808 105.754 49.3881C105.551 49.3969 105.347 49.416 105.146 49.438C104.963 49.4571 104.786 49.4468 104.605 49.4204C104.305 49.35 104.01 49.259 103.715 49.1651C103.523 49.1049 103.332 49.0609 103.137 49.0213C103.01 48.9948 102.882 48.9714 102.753 48.9655C102.724 48.9655 102.694 48.964 102.664 48.9655C102.575 48.967 102.485 48.9728 102.396 48.9787C102.165 48.9552 101.926 49.1225 101.695 49.1695C101.664 49.168 101.635 49.1651 101.604 49.1607C101.553 49.1533 101.503 49.1431 101.454 49.1343C101.377 49.1225 101.303 49.1357 101.227 49.1445C101.149 49.1533 101.072 49.1651 100.995 49.1754C100.81 49.1915 100.626 49.2062 100.445 49.2399C100.262 49.2766 100.082 49.328 99.9012 49.372C99.7346 49.4102 99.565 49.438 99.3955 49.4645C99.2084 49.4938 99.0242 49.529 98.8371 49.5569C98.6792 49.5686 98.5258 49.5657 98.3664 49.5496C98.2115 49.5349 98.0566 49.5158 97.9016 49.5026C97.5669 49.4747 97.2351 49.4645 96.9004 49.4615C96.5569 49.4601 96.2134 49.5848 95.8684 49.573C95.6463 49.5657 95.427 49.4967 95.2063 49.507C94.8979 49.463 94.6348 49.5481 94.2679 49.532C94.1071 49.5246 93.9668 49.5613 93.9668 49.6626C93.9668 49.7624 94.1042 49.7917 94.2679 49.7902C94.74 49.7829 94.9593 49.9619 95.4022 49.9737C95.6126 49.9796 95.8465 50.0016 96.2251 50.0016C96.4502 50.0016 96.6738 50.0911 96.8989 50.0881C97.2088 50.0852 97.2585 50.0735 97.3754 50.1072C97.5537 50.1586 97.6795 50.2437 97.8344 50.2554C98.0113 50.2687 98.1925 50.2716 98.3708 50.254C98.7085 50.2202 99.0505 50.2011 99.3867 50.2701C99.5387 50.3024 99.6922 50.3274 99.8442 50.3215C100.012 50.3156 100.179 50.3552 100.347 50.3552C100.517 50.3552 100.682 50.367 100.85 50.3141C100.997 50.2687 101.147 50.298 101.293 50.2554C101.358 50.2364 101.424 50.2246 101.49 50.2188C101.494 50.2202 101.497 50.2232 101.502 50.2246C101.611 50.2701 101.728 50.2863 101.844 50.3053C101.918 50.3186 101.994 50.3318 102.072 50.3391C102.225 50.3538 102.279 50.342 102.42 50.3083C102.465 50.298 102.664 50.2701 102.708 50.2613C102.782 50.2481 102.857 50.2863 102.937 50.2672C103.082 50.2334 103.224 50.1527 103.367 50.1131C103.441 50.1087 103.516 50.1058 103.592 50.1087C103.709 50.1116 103.826 50.1307 103.943 50.1424C104.191 50.1674 104.44 50.2056 104.688 50.2261C104.928 50.2452 105.169 50.2114 105.406 50.1777C105.63 50.1454 105.855 50.1469 106.08 50.1219C106.29 50.1014 106.502 50.0882 106.714 50.0999C106.834 50.1072 106.954 50.0368 107.074 50.0456C107.174 50.0544 107.275 50.0456 107.375 50.0471C107.595 50.05 107.804 49.9722 108.027 49.984C108.145 49.9898 108.263 50.0074 108.379 49.984C108.477 49.9649 108.592 49.8431 108.69 49.8313C108.861 49.8211 109.029 49.8167 109.2 49.8152C109.39 49.8152 109.541 49.7726 109.731 49.7726C109.804 49.7726 109.887 49.7389 109.889 49.6611C109.89 49.5554 109.832 49.5437 109.731 49.5437L109.738 49.5452Z" fill="#063844"/>
<path d="M109.504 57.1922C109.057 57.1922 108.608 57.1086 108.161 57.1482C107.419 57.2157 107.367 57.0895 106.942 57.0939C106.726 57.0954 106.221 57.0675 106.005 57.0675C105.802 57.0675 105.407 57.1717 105.206 57.1614C105.178 57.1614 105.153 57.1599 105.128 57.1585C104.273 57.1086 103.392 56.7461 102.604 56.7461C102.149 56.7461 101.702 56.8341 101.252 56.8782C100.837 56.9163 100.414 56.9442 99.9947 56.9706C99.5299 57 99.0709 57.0352 98.6061 57.0631C98.2144 57.0748 97.8314 57.0719 97.4367 57.0557C97.0509 57.0411 96.6665 57.022 96.282 57.0088C95.4503 56.9809 94.6245 56.9706 93.7943 56.9677C92.9392 56.9662 92.1733 57.1981 91.3167 57.1864C90.7657 57.179 89.912 57.0939 89.3639 57.1042C88.598 57.0601 88.1624 57.1922 87.2518 57.1761C86.8528 57.1687 86.502 57.2054 86.502 57.3067C86.502 57.4065 86.8425 57.4358 87.2518 57.4344C88.427 57.427 88.9722 57.4681 90.0728 57.4799C90.5946 57.4857 91.1779 57.5077 92.1206 57.5077C92.679 57.5077 93.2359 57.5973 93.7972 57.5943C94.5689 57.5914 94.6917 57.5796 94.9826 57.6134C95.4269 57.6648 95.7368 57.7499 96.1256 57.7616C96.5671 57.7748 97.0172 57.7778 97.4572 57.7601C98.2962 57.7264 99.1484 57.7073 99.983 57.7763C100.36 57.8086 100.742 57.8335 101.122 57.8277C101.541 57.8218 101.952 57.8658 102.371 57.8614C103.606 57.8497 105.061 57.4931 105.267 57.4887C105.561 57.4945 105.855 57.5121 106.142 57.4887C106.387 57.4696 106.673 57.4857 106.917 57.474C107.341 57.4637 107.761 57.4593 108.186 57.4578C108.659 57.4578 109.034 57.4153 109.504 57.4153C109.686 57.4153 109.893 57.3903 109.896 57.3126C109.9 57.2069 109.753 57.1864 109.504 57.1864V57.1922Z" fill="#063844"/>
<path d="M109.776 63.8912C109.639 63.8912 109.5 63.8545 109.362 63.8472C109.231 63.8413 109.101 63.8384 108.969 63.8428C108.902 63.8443 108.762 63.787 108.694 63.787C108.632 63.787 108.521 63.7929 108.459 63.7841C108.338 63.7665 108.336 63.7225 108.216 63.7063C108.095 63.6887 107.974 63.6564 107.853 63.6344C107.727 63.6109 107.598 63.6139 107.471 63.6065C107.351 63.6007 107.231 63.586 107.111 63.5728C106.981 63.5596 106.853 63.5331 106.723 63.5405C106.568 63.5493 106.411 63.5684 106.256 63.5904C106.116 63.6095 105.98 63.5992 105.841 63.5728C105.612 63.5023 105.385 63.4113 105.159 63.3174C105.012 63.2573 104.865 63.2132 104.716 63.1736C104.618 63.1472 104.52 63.1237 104.421 63.1178C104.399 63.1178 104.375 63.1164 104.353 63.1178C104.217 63.1208 104.083 63.1369 103.948 63.1501C103.791 63.1663 103.634 63.1824 103.479 63.2206C103.241 63.2778 103.006 63.3512 102.767 63.4084C102.656 63.4348 102.544 63.4598 102.433 63.4818C102.345 63.4921 102.259 63.4979 102.171 63.5053C102.047 63.5141 101.923 63.5361 101.797 63.5581C101.604 63.5904 101.411 63.6403 101.218 63.6726C101.135 63.6784 101.051 63.6814 100.968 63.6814C100.876 63.6814 100.785 63.696 100.695 63.7107C100.455 63.7445 100.214 63.7503 99.9712 63.7371C99.7125 63.721 99.4537 63.7019 99.195 63.6476C99.0737 63.6212 98.9539 63.6021 98.8311 63.6007C98.7112 63.6007 98.5914 63.6109 98.4715 63.6139C98.3429 63.6183 98.2128 63.6285 98.0827 63.6227C97.9555 63.6183 97.8284 63.6051 97.7012 63.5845C97.6383 63.564 97.577 63.5434 97.5156 63.5185C97.4483 63.4906 97.3826 63.4583 97.3153 63.4334C97.1385 63.3629 96.9587 63.3145 96.7774 63.2866C96.6298 63.2631 96.4792 63.2558 96.3301 63.2573C96.1708 63.2573 96.0159 63.2954 95.8595 63.3248C95.801 63.3277 95.7425 63.3262 95.6826 63.316C95.6432 63.3086 95.6052 63.2983 95.5672 63.2895C95.5087 63.2778 95.4517 63.291 95.3932 63.2998C95.3333 63.3086 95.2748 63.3204 95.2149 63.3306C95.0746 63.3468 94.9328 63.3614 94.7925 63.3952C94.6521 63.4319 94.5147 63.4833 94.3759 63.5258C94.2473 63.564 94.1172 63.5918 93.9885 63.6183C93.8453 63.6476 93.7035 63.6828 93.5603 63.7107C93.439 63.7225 93.3206 63.7195 93.1992 63.7034C93.0808 63.6887 92.961 63.6696 92.8426 63.6564C92.5868 63.6285 92.331 63.6183 92.0752 63.6153C91.8121 63.6139 91.5475 63.7386 91.2844 63.7269C91.1149 63.7195 90.9468 63.7371 90.7772 63.7474C90.5419 63.7034 90.3387 63.9088 90.0581 63.8927C89.9353 63.8854 89.8271 63.922 89.8271 64.0233C89.8271 64.1231 89.9324 64.1524 90.0581 64.151C90.4206 64.1436 90.5887 64.2038 90.9278 64.2155C91.0886 64.2214 91.2684 64.1554 91.5592 64.1554C91.7317 64.1554 91.9027 64.2449 92.0767 64.242C92.3149 64.239 92.3529 64.2273 92.4421 64.261C92.5795 64.3124 92.6745 64.3975 92.7943 64.4093C92.9303 64.4225 93.0691 64.4254 93.2051 64.4078C93.4638 64.374 93.7269 64.355 93.9842 64.4239C94.1011 64.4562 94.218 64.4812 94.335 64.4753C94.4636 64.4694 94.5908 64.509 94.7208 64.509C94.8509 64.509 94.9766 64.5208 95.1067 64.468C95.2193 64.4225 95.3347 64.4518 95.4473 64.4093C95.497 64.3902 95.5481 64.3784 95.5993 64.3726C95.6022 64.374 95.6052 64.377 95.6081 64.3784C95.6914 64.4239 95.782 64.4401 95.8697 64.4592C95.9267 64.4724 95.9852 64.4856 96.0437 64.4929C96.1708 64.509 96.298 64.4914 96.4237 64.4738C96.5479 64.4577 96.6736 64.4489 96.7979 64.4371C96.8476 64.4327 96.8958 64.4298 96.9455 64.4269C96.9543 64.4327 96.963 64.4386 96.9704 64.4445C97.1472 64.5663 97.3372 64.5135 97.5185 64.5164C97.5331 64.5164 97.5463 64.509 97.558 64.4958C97.8298 64.4914 98.1017 64.5017 98.375 64.5223C98.5329 64.534 98.6893 64.5604 98.8472 64.5839C99.0021 64.6074 99.1556 64.6235 99.309 64.6543C99.483 64.7042 99.6584 64.7556 99.8323 64.8143C100.044 64.8847 100.259 64.8965 100.473 64.9229C100.684 64.9493 100.898 64.8759 101.107 64.8231C101.193 64.8011 101.279 64.7776 101.364 64.7527C101.475 64.7556 101.589 64.7835 101.699 64.7336C101.82 64.6793 101.936 64.556 102.058 64.5281C102.174 64.5017 102.292 64.5223 102.408 64.4812C102.514 64.443 102.629 64.4049 102.737 64.4063C102.797 64.4063 102.857 64.421 102.915 64.4225C102.972 64.4225 103.026 64.3887 103.083 64.3799C103.163 64.3667 103.244 64.3388 103.326 64.3256C103.489 64.3594 103.655 64.3961 103.818 64.4107C103.97 64.4239 104.124 64.4122 104.274 64.3828C104.388 64.3608 104.501 64.3285 104.615 64.3065C104.695 64.2963 104.776 64.2845 104.858 64.2713C104.929 64.264 104.999 64.261 105.071 64.264C105.16 64.2669 105.251 64.286 105.34 64.2977C105.53 64.3227 105.721 64.3608 105.911 64.3814C106.096 64.4005 106.28 64.3667 106.461 64.3329C106.632 64.3007 106.806 64.3021 106.977 64.2772C107.138 64.2566 107.301 64.2434 107.464 64.2552C107.556 64.2625 107.648 64.1921 107.74 64.2009C107.817 64.2097 107.893 64.2009 107.971 64.2009C108.14 64.2038 108.309 64.2405 108.478 64.2537C108.569 64.2596 108.659 64.2772 108.749 64.2537C108.823 64.2346 108.903 64.1906 108.979 64.1789C109.11 64.1686 109.24 64.1642 109.371 64.1627C109.517 64.1627 109.633 64.1202 109.778 64.1202C109.833 64.1202 109.897 64.0996 109.899 64.0218C109.899 63.9162 109.855 63.8912 109.778 63.8912H109.776Z" fill="#063844"/>
<path d="M101.336 87.8092C100.968 87.8092 100.601 87.7725 100.231 87.7652C99.8815 87.7593 99.5322 87.7564 99.1814 87.7608C99.003 87.7637 98.6288 87.705 98.4505 87.705C98.2839 87.705 97.9886 87.7109 97.8235 87.7021C97.5019 87.6845 97.4975 87.6404 97.1759 87.6243C96.8515 87.6067 96.5284 87.5744 96.2039 87.5524C95.8677 87.5289 95.5242 87.5318 95.1881 87.5245C94.868 87.5186 94.5493 87.5039 94.2292 87.4907C93.8828 87.4775 93.5393 87.4511 93.1929 87.4585C92.7778 87.4673 92.3641 87.4863 91.949 87.5083C91.5763 87.5274 91.2138 87.5172 90.844 87.4907C90.233 87.4203 89.6278 87.3293 89.0256 87.2354C88.6354 87.1752 88.2422 87.1312 87.8446 87.0916C87.5844 87.0652 87.3213 87.0417 87.0582 87.0358C86.9983 87.0358 86.9369 87.0343 86.877 87.0358C86.5145 87.0387 86.1549 87.0549 85.7953 87.0681C85.3758 87.0842 84.9578 87.1004 84.5441 87.1385C83.9098 87.1958 83.2812 87.2691 82.6469 87.3264C82.3487 87.3528 82.052 87.3777 81.7523 87.3998C81.5199 87.41 81.2875 87.4159 81.0537 87.4232C80.7204 87.432 80.3901 87.4541 80.0583 87.4761C79.5423 87.5084 79.0307 87.5582 78.5147 87.5905C78.2925 87.5964 78.0704 87.5993 77.8467 87.5993C77.6026 87.5993 77.36 87.614 77.1159 87.6287C76.4757 87.6624 75.8326 87.6683 75.1865 87.6551C74.4951 87.639 73.8052 87.6199 73.1168 87.5656C72.7923 87.5392 72.4736 87.5201 72.1462 87.5186C71.8276 87.5186 71.5075 87.5289 71.1888 87.5333C70.8453 87.5377 70.4974 87.548 70.1525 87.5421C69.8134 87.5377 69.4757 87.5245 69.1352 87.5039C68.97 87.4834 68.8048 87.4629 68.6396 87.4379C68.4613 87.41 68.2845 87.3777 68.1061 87.3528C67.6326 87.2823 67.1546 87.2339 66.6708 87.206C66.2761 87.1826 65.8742 87.1752 65.478 87.1767C65.0542 87.1767 64.6405 87.2148 64.2225 87.2442C64.0646 87.2471 63.9097 87.2457 63.7518 87.2354C63.648 87.2281 63.5457 87.2178 63.4434 87.209C63.287 87.1972 63.135 87.2104 62.9815 87.2192C62.8236 87.2281 62.6643 87.2398 62.5065 87.2501C62.1308 87.2662 61.7537 87.2809 61.381 87.3146C61.0082 87.3513 60.6399 87.4027 60.2686 87.4467C59.9266 87.4849 59.5802 87.5128 59.2338 87.5392C58.8523 87.5685 58.4737 87.6037 58.0922 87.6316C57.7692 87.6434 57.4549 87.6404 57.1304 87.6243C56.8132 87.6096 56.496 87.5905 56.1803 87.5773C55.4963 87.5494 54.818 87.5392 54.1354 87.5362C53.4324 87.5348 52.7293 87.6595 52.0262 87.6478C51.5731 87.6404 51.1244 87.658 50.6742 87.6683C50.0442 87.6243 49.5049 87.8297 48.7565 87.8136C48.4276 87.8063 48.1396 87.8429 48.1396 87.9442C48.1396 88.044 48.4188 88.0733 48.7565 88.0719C49.7226 88.0645 50.1714 88.1247 51.0762 88.1365C51.5059 88.1423 51.9853 88.0763 52.76 88.0763C53.2204 88.0763 53.6765 88.1658 54.1384 88.1629C54.7727 88.1599 54.875 88.1482 55.1133 88.1819C55.4787 88.2333 55.7331 88.3184 56.0532 88.3302C56.4157 88.3434 56.7869 88.3463 57.148 88.3287C57.8379 88.2949 58.538 88.2759 59.225 88.3448C59.5349 88.3757 59.8491 88.4021 60.1619 88.3962C60.5069 88.3903 60.8445 88.43 61.1895 88.43C61.5374 88.43 61.8736 88.4417 62.2185 88.3889C62.5196 88.3434 62.8251 88.3727 63.1247 88.3302C63.2592 88.3111 63.3937 88.2993 63.5296 88.2935C63.5384 88.2949 63.5457 88.2979 63.5545 88.2993C63.7781 88.3448 64.0193 88.361 64.2532 88.3801C64.4066 88.3933 64.5616 88.4065 64.718 88.4138C65.0571 88.43 65.3947 88.4123 65.7309 88.3947C66.0627 88.3786 66.396 88.3698 66.7278 88.358C66.8593 88.3536 66.9894 88.3507 67.121 88.3478C67.1429 88.3536 67.1663 88.3595 67.1897 88.3654C67.6618 88.4872 68.169 88.4344 68.6499 88.4373C68.6893 88.4373 68.723 88.43 68.7537 88.4167C69.4801 88.4123 70.2036 88.4226 70.933 88.4432C71.3525 88.4549 71.7706 88.4813 72.1901 88.5048C72.6023 88.5283 73.013 88.5444 73.4237 88.5752C73.8885 88.6251 74.3548 88.6765 74.8181 88.7352C75.3824 88.8056 75.9553 88.8174 76.5268 88.8438C77.094 88.8702 77.6626 88.7968 78.218 88.744C78.449 88.722 78.677 88.6985 78.905 88.6736C79.1988 88.6765 79.5057 88.7044 79.7981 88.6545C80.1196 88.6002 80.431 88.4769 80.7569 88.449C81.0668 88.4226 81.3796 88.4432 81.688 88.4021C81.9716 88.3639 82.2771 88.3258 82.565 88.3272C82.7244 88.3272 82.8822 88.3419 83.0415 88.3434C83.195 88.3434 83.3397 88.3096 83.4917 88.3008C83.7081 88.2876 83.9215 88.2597 84.1363 88.2465C84.5748 88.2803 85.0119 88.317 85.4518 88.3316C85.8567 88.3448 86.2675 88.3331 86.668 88.3037C86.9705 88.2817 87.2716 88.2494 87.5742 88.2274C87.7891 88.2172 88.0039 88.2054 88.2188 88.1922C88.4073 88.1849 88.5959 88.1819 88.7874 88.1849C89.0271 88.1878 89.2668 88.2069 89.5036 88.2186C90.0123 88.245 90.5209 88.2817 91.0296 88.3023C91.5193 88.3214 92.0118 88.2876 92.4971 88.2538C92.9546 88.2216 93.415 88.223 93.874 88.1981C94.3037 88.1775 94.7379 88.1643 95.172 88.1761C95.4175 88.1834 95.6631 88.113 95.9087 88.1218C96.1133 88.1306 96.3194 88.1218 96.5255 88.1218C96.9786 88.1247 97.4274 88.1614 97.8805 88.1746C98.1231 88.1805 98.3643 88.1981 98.6011 88.1746C98.8013 88.1555 99.0147 88.1115 99.2164 88.0998C99.5643 88.0895 99.9093 88.0851 100.26 88.0836C100.65 88.0836 100.957 88.0411 101.345 88.0411C101.494 88.0411 101.663 88.0205 101.666 87.9427C101.669 87.8371 101.549 87.8121 101.345 87.8121L101.336 87.8092Z" fill="#063844"/>
<path d="M103.289 95.6854C102.32 95.6854 101.35 95.6795 100.381 95.6722C98.8189 95.6722 90.6057 95.5357 89.945 95.5239C86.57 95.3948 83.2608 95.2422 80.1387 95.2422C76.483 95.2422 72.8946 95.4198 69.2652 95.4623C66.662 95.4931 63.2548 95.5753 60.6911 95.6487C60.1239 95.6531 59.4428 95.6619 58.9049 95.6619C57.4856 95.6707 55.945 95.6751 54.1661 95.6722C50.9548 95.6648 48.1411 95.7015 48.1367 95.8028C48.1323 95.9026 50.8686 95.9319 54.1661 95.9305C56.1014 95.9305 57.813 95.9305 59.4048 95.9305C61.8604 96.0126 64.4213 96.1535 66.9061 96.1843C68.628 96.2063 70.3557 96.2137 72.0877 96.2269C74.1429 96.2841 76.1907 96.3604 78.2619 96.359C81.748 96.3546 85.4416 96.2636 88.8488 96.1755C90.8893 96.1741 92.8406 96.1565 94.8489 96.0904C96.5036 96.0361 98.3453 96.0126 99.9444 95.9261C101.02 95.9202 102.113 95.9158 103.289 95.9158C104.752 95.9158 106.409 95.8908 106.436 95.8131C106.471 95.7074 105.285 95.6869 103.289 95.6869V95.6854Z" fill="#063844"/>
<path d="M90.0878 103.545C89.6084 103.545 89.1319 103.508 88.651 103.501C88.1964 103.495 87.7623 103.541 87.3077 103.545C87.0767 103.548 86.5374 103.519 86.305 103.519C86.0872 103.519 85.7042 103.525 85.4879 103.516C85.0699 103.498 85.0932 103.57 84.6752 103.554C84.2528 103.536 83.8333 103.504 83.4109 103.482C82.9724 103.459 82.528 103.462 82.088 103.454C81.6715 103.448 81.2564 103.434 80.8398 103.42C80.3896 103.407 79.9423 103.381 79.4907 103.388C78.9513 103.397 78.4119 103.416 77.8711 103.438C77.3858 103.457 76.9137 103.447 76.4328 103.42C75.6377 103.35 74.8513 103.259 74.0664 103.165C73.5577 103.105 73.0461 103.061 72.5301 103.021C72.1925 102.995 71.849 102.971 71.507 102.965C71.428 102.965 71.3506 102.964 71.2716 102.965C71.0334 102.967 70.7966 102.973 70.5613 102.979C69.9459 102.955 69.3086 103.123 68.6947 103.169C68.6143 103.168 68.5354 103.165 68.455 103.161C68.3191 103.153 68.186 103.143 68.053 103.134C67.8499 103.123 67.6511 103.136 67.4523 103.145C67.2462 103.153 67.0401 103.165 66.834 103.175C66.3458 103.191 65.8532 103.206 65.3709 103.24C64.8856 103.277 64.4062 103.328 63.9238 103.372C63.4795 103.41 63.0278 103.438 62.5776 103.464C62.0806 103.494 61.588 103.529 61.0911 103.557C60.6716 103.569 60.2623 103.566 59.8399 103.55C59.4277 103.535 59.0155 103.516 58.6048 103.503C57.7161 103.475 56.8317 103.464 55.943 103.462C55.028 103.46 54.113 103.585 53.198 103.573C52.609 103.566 52.0243 103.497 51.4382 103.506C50.6196 103.462 49.9166 103.547 48.9431 103.53C48.5163 103.523 48.1406 103.56 48.1406 103.661C48.1406 103.761 48.5046 103.79 48.9431 103.789C50.2001 103.781 50.7833 103.96 51.9614 103.972C52.5198 103.978 53.1439 104 54.1525 104C54.7503 104 55.3452 104.09 55.946 104.087C56.7718 104.084 56.9034 104.072 57.2147 104.106C57.6898 104.157 58.0216 104.242 58.4381 104.254C58.9103 104.267 59.3926 104.27 59.8633 104.253C60.7607 104.219 61.6728 104.2 62.5659 104.269C62.9693 104.301 63.3786 104.326 63.7849 104.32C64.2337 104.314 64.6736 104.354 65.1224 104.354C65.574 104.354 66.0125 104.366 66.4613 104.313C66.853 104.267 67.252 104.297 67.6408 104.254C67.8162 104.235 67.9916 104.223 68.167 104.217C68.1773 104.219 68.1875 104.222 68.1977 104.223C68.4886 104.269 68.8014 104.285 69.1069 104.304C69.3057 104.317 69.5089 104.33 69.712 104.338C70.1184 104.352 70.2631 104.341 70.6358 104.307C70.7571 104.297 71.2833 104.269 71.4032 104.26C71.602 104.247 71.7978 104.285 72.0142 104.266C72.3986 104.232 72.7757 104.151 73.1587 104.112C73.3575 104.107 73.5562 104.104 73.7565 104.107C74.0678 104.11 74.3806 104.129 74.689 104.141C75.3512 104.166 76.0119 104.204 76.674 104.225C77.3113 104.244 77.953 104.21 78.5829 104.176C79.1793 104.144 79.7771 104.145 80.375 104.12C80.9348 104.1 81.499 104.087 82.0632 104.098C82.3818 104.106 82.7019 104.035 83.0206 104.044C83.2881 104.053 83.5556 104.044 83.823 104.044C84.4121 104.047 84.9675 103.969 85.5551 103.981C85.8709 103.987 86.1837 104.005 86.4921 103.981C86.7537 103.962 87.0607 103.84 87.3223 103.828C87.7754 103.818 88.2242 103.814 88.6787 103.812C89.1859 103.812 89.5864 103.77 90.0907 103.77C90.2851 103.77 90.5058 103.736 90.5102 103.658C90.5146 103.553 90.3567 103.541 90.0907 103.541L90.0878 103.545Z" fill="#063844"/>
<path d="M73.5104 111.931C73.0164 111.931 72.5223 111.847 72.0283 111.886C71.2083 111.954 71.1528 111.828 70.6836 111.832C70.4453 111.835 69.8899 111.806 69.6502 111.806C69.4265 111.806 68.9909 111.91 68.7688 111.9C68.7381 111.9 68.7103 111.898 68.684 111.897C67.7412 111.847 66.7677 111.484 65.8995 111.484C65.3981 111.484 64.9056 111.572 64.4071 111.615C63.9482 111.653 63.4848 111.681 63.02 111.707C62.5069 111.737 61.9997 111.772 61.4882 111.8C61.0555 111.812 60.6331 111.809 60.199 111.793C59.7736 111.778 59.3483 111.759 58.9258 111.746C58.0094 111.718 57.0987 111.707 56.1823 111.705C55.2395 111.703 54.3946 111.935 53.4504 111.923C52.8423 111.916 51.901 111.831 51.2959 111.841C50.451 111.797 49.9702 111.929 48.966 111.913C48.526 111.906 48.1387 111.942 48.1387 112.044C48.1387 112.143 48.5129 112.173 48.966 112.171C50.2625 112.164 50.8632 112.205 52.0779 112.217C52.6538 112.223 53.2969 112.245 54.3362 112.245C54.953 112.245 55.5654 112.334 56.1852 112.331C57.0359 112.328 57.1733 112.316 57.4934 112.35C57.9831 112.402 58.3251 112.487 58.7534 112.498C59.2401 112.512 59.7371 112.515 60.2223 112.497C61.1476 112.463 62.0874 112.444 63.0083 112.513C63.4249 112.545 63.8458 112.57 64.2639 112.564C64.7258 112.559 65.1803 112.603 65.6422 112.598C67.0045 112.586 68.608 112.23 68.836 112.225C69.1605 112.231 69.485 112.249 69.8022 112.225C70.0711 112.206 70.3883 112.223 70.6572 112.211C71.1235 112.201 71.5869 112.196 72.0561 112.195C72.5794 112.195 72.9915 112.152 73.5104 112.152C73.7107 112.152 73.9387 112.127 73.9416 112.049C73.946 111.944 73.7838 111.923 73.5104 111.923V111.931Z" fill="#063844"/>
<path d="M119.834 147.244C131.336 147.244 140.66 137.883 140.66 126.335C140.66 114.787 131.336 105.426 119.834 105.426C108.332 105.426 99.0078 114.787 99.0078 126.335C99.0078 137.883 108.332 147.244 119.834 147.244Z" fill="#FFD58E"/>
<path d="M140.73 125.028C140.638 123.54 140.426 122.055 140.027 120.606C139.647 119.236 139.108 117.987 138.459 116.726C138.302 116.4 138.008 115.876 137.71 115.357C137.551 115.102 137.393 114.848 137.25 114.617C137.101 114.391 136.96 114.198 136.857 114.049C136.668 113.768 136.371 113.404 136.083 113.035C135.939 112.852 135.781 112.68 135.642 112.513C135.499 112.35 135.374 112.191 135.258 112.071C135.037 111.832 134.87 111.659 134.731 111.519C134.594 111.38 134.473 111.283 134.359 111.18C134.243 111.079 134.128 110.978 133.983 110.846C133.838 110.712 133.653 110.562 133.411 110.344C132.425 109.477 131.372 108.693 130.241 108.018C129.067 107.316 127.793 106.745 126.498 106.304C125.266 105.884 124.004 105.574 122.716 105.384C121.325 105.18 119.92 105.102 118.51 105.196C116.826 105.313 115.157 105.637 113.553 106.157C112.116 106.631 110.755 107.217 109.436 107.94C107.24 109.11 105.252 110.643 103.58 112.485C102.49 113.672 101.544 115.011 100.755 116.462C100.487 116.933 100.262 117.428 100.028 117.922C99.8192 118.427 99.6029 118.932 99.4348 119.456C99.353 119.693 99.2696 119.931 99.2053 120.175C99.1059 120.542 98.9919 120.906 98.9159 121.278C98.8341 121.648 98.7449 122.018 98.6894 122.392C98.4862 123.358 98.4292 124.366 98.4189 125.364C98.4292 125.864 98.4321 126.363 98.4759 126.858C98.4964 127.104 98.5023 127.352 98.533 127.596C98.5593 127.841 98.5856 128.083 98.6104 128.325C98.6221 128.578 98.6645 128.829 98.6879 129.083C98.7142 129.295 98.7274 129.51 98.7624 129.72C98.7946 129.929 98.8282 130.139 98.8604 130.349C98.9042 130.669 98.9861 130.979 99.0577 131.288C99.0957 131.442 99.1293 131.598 99.1732 131.751L99.3091 132.207L99.4494 132.678L99.6131 133.142L99.7783 133.604C99.8324 133.758 99.9011 133.908 99.961 134.06C100.535 135.5 101.268 136.884 102.139 138.139C103.01 139.399 104.029 140.528 105.144 141.554C106.172 142.499 107.294 143.36 108.49 144.098C109.81 144.914 111.203 145.573 112.66 146.079C113.888 146.517 115.122 146.841 116.411 147.07C117.672 147.292 118.955 147.4 120.233 147.391C123 147.371 125.749 146.781 128.285 145.661C129.591 145.086 130.821 144.346 131.963 143.495C133.106 142.644 134.158 141.68 135.13 140.641C135.293 140.478 135.44 140.305 135.592 140.133C135.741 139.96 135.899 139.794 136.044 139.616C136.329 139.26 136.627 138.914 136.89 138.539C137.441 137.811 137.922 137.031 138.353 136.227C138.973 135.108 139.426 134.002 139.793 132.81C140.159 131.617 140.445 130.337 140.634 128.83C140.8 127.505 140.748 126.332 140.656 126.332C140.547 126.332 140.536 127.457 140.379 128.799C140.349 129.04 140.319 129.272 140.29 129.496C140.249 129.72 140.208 129.935 140.17 130.145C140.1 130.566 139.989 130.954 139.898 131.328C139.856 131.516 139.796 131.693 139.742 131.871C139.686 132.047 139.632 132.22 139.58 132.39C139.466 132.729 139.337 133.052 139.219 133.377C138.703 134.658 138.103 135.87 137.139 137.386C136.687 138.109 136.146 138.833 135.455 139.652C134.759 140.465 133.895 141.367 132.703 142.333L132.165 142.753C131.983 142.891 131.793 143.014 131.608 143.144C131.239 143.41 130.842 143.632 130.459 143.871L129.863 144.198L129.564 144.361L129.259 144.511L128.649 144.812C128.442 144.904 128.236 144.998 128.027 145.09C126.881 145.588 126.188 145.808 125.681 145.961C125.425 146.031 125.217 146.088 125.016 146.144C124.814 146.195 124.615 146.229 124.384 146.276C124.207 146.308 124.039 146.345 123.874 146.37C123.709 146.392 123.548 146.413 123.392 146.433C123.235 146.454 123.083 146.473 122.934 146.492C122.784 146.504 122.636 146.515 122.49 146.526C121.907 146.58 121.344 146.595 120.721 146.624C119.306 146.672 117.856 146.581 116.46 146.361C113.8 145.953 111.175 144.952 108.956 143.438C107.953 142.757 107 141.984 106.107 141.157C105.121 140.242 104.276 139.22 103.495 138.133C102.707 137.032 102.06 135.888 101.458 134.683C100.932 133.629 100.562 132.484 100.23 131.362C100.164 131.106 100.097 130.851 100.03 130.596C99.961 130.34 99.9215 130.076 99.8689 129.816C99.8645 129.784 99.8616 129.753 99.8572 129.722C99.8441 129.614 99.8265 129.504 99.8163 129.392C99.8061 129.281 99.7973 129.169 99.7871 129.056C99.7666 128.832 99.7447 128.603 99.7228 128.374C99.7111 128.145 99.6994 127.913 99.6862 127.683C99.6804 127.567 99.6716 127.452 99.6687 127.338C99.6687 127.223 99.6687 127.107 99.6687 126.993C99.6555 126.394 99.6877 125.785 99.7198 125.176C99.7447 124.872 99.7666 124.617 99.7856 124.388C99.8017 124.159 99.8353 123.958 99.8558 123.758C99.8806 123.56 99.8938 123.362 99.9259 123.148C99.9581 122.932 99.9932 122.697 100.034 122.42C100.041 122.375 100.052 122.311 100.063 122.232C100.079 122.154 100.098 122.063 100.119 121.964C100.161 121.763 100.211 121.525 100.261 121.287C100.385 120.818 100.5 120.345 100.557 120.173C100.647 119.889 100.746 119.608 100.85 119.324C100.967 119.043 101.084 118.757 101.193 118.45C101.613 117.375 102.073 116.325 102.665 115.325L102.905 114.943C102.987 114.817 103.076 114.695 103.162 114.572C103.336 114.325 103.506 114.074 103.7 113.838C104.269 113.085 104.928 112.4 105.594 111.747C107.04 110.363 108.686 109.202 110.459 108.298C112.163 107.418 113.983 106.75 115.836 106.336C116.276 106.252 116.716 106.153 117.163 106.101C117.387 106.072 117.609 106.035 117.833 106.013L118.507 105.956C118.732 105.932 118.957 105.925 119.182 105.919L119.859 105.897L120.536 105.908L120.875 105.912L121.212 105.932C122.899 106.031 124.599 106.329 126.211 106.886C127.128 107.184 128.044 107.507 128.911 107.94L129.45 108.222C129.633 108.311 129.804 108.421 129.981 108.52C130.156 108.622 130.335 108.718 130.507 108.826L131.019 109.155C131.112 109.217 131.207 109.274 131.298 109.337C131.389 109.402 131.479 109.465 131.57 109.528C131.75 109.656 131.932 109.777 132.109 109.907C132.283 110.039 132.457 110.171 132.629 110.303C132.716 110.369 132.805 110.432 132.888 110.502L133.138 110.712C133.305 110.852 133.473 110.99 133.638 111.133C133.797 111.282 133.958 111.43 134.119 111.579C134.198 111.654 134.281 111.728 134.359 111.807L134.588 112.046C134.74 112.208 134.897 112.366 135.046 112.533C135.68 113.255 136.254 114.02 136.804 114.783C137.256 115.435 137.855 116.174 138.22 116.893C138.862 118.129 139.371 119.422 139.745 120.769C139.859 121.142 139.935 121.504 140.021 121.854C140.113 122.201 140.164 122.546 140.235 122.888C140.36 123.575 140.449 124.266 140.501 125.041C140.506 125.116 140.512 125.192 140.52 125.267C140.523 125.343 140.527 125.418 140.53 125.493C140.537 125.641 140.547 125.782 140.561 125.905C140.585 126.152 140.616 126.325 140.656 126.331C140.708 126.338 140.734 126.219 140.745 125.995C140.751 125.882 140.751 125.744 140.749 125.581C140.748 125.418 140.746 125.232 140.727 125.026L140.73 125.028Z" fill="#063844"/>
<path d="M126.085 42.3042H113.586V29.7539L119.835 36.029L126.085 42.3042Z" fill="#BADFD8"/>
<path d="M125.948 42.0771C125.741 41.8687 125.546 41.6472 125.34 41.4358C125.146 41.2362 124.949 41.0367 124.75 40.84C124.649 40.7402 124.458 40.5069 124.358 40.4056C124.263 40.3117 124.095 40.1459 124.006 40.049C123.83 39.8612 123.844 39.8436 123.668 39.6557C123.494 39.4635 123.32 39.2727 123.145 39.0805C122.964 38.8809 122.769 38.6886 122.582 38.4949C122.405 38.31 122.23 38.1251 122.053 37.9402C121.863 37.7391 121.677 37.5352 121.48 37.3414C121.243 37.1096 121.002 36.8821 120.761 36.6546C120.545 36.4507 120.343 36.2408 120.144 36.0221C119.824 35.6509 119.516 35.2766 119.209 34.9024C119.01 34.6603 118.804 34.4225 118.593 34.1833C118.456 34.0263 118.316 33.8693 118.169 33.7181L118.067 33.6154C117.861 33.4114 117.653 33.2133 117.446 33.0152C117.205 32.7833 116.962 32.5529 116.715 32.3313C116.335 31.9953 115.959 31.6607 115.579 31.3246C115.402 31.1646 115.227 31.0047 115.05 30.8447C114.916 30.7156 114.783 30.5864 114.648 30.4573C114.376 30.1975 114.107 29.9378 113.836 29.678L113.372 29.2422C113.384 29.6325 113.397 30.0229 113.409 30.4147C113.41 30.6334 113.412 30.8506 113.413 31.0707C113.413 31.2659 113.42 31.4611 113.428 31.6548C113.444 32.167 113.448 32.6821 113.441 33.1986C113.432 33.7519 113.423 34.3037 113.396 34.8555C113.382 35.1152 113.372 35.3706 113.372 35.6332L113.379 36.4008C113.382 36.6767 113.387 36.954 113.384 37.2299C113.382 37.5014 113.375 37.7714 113.365 38.0444C113.353 38.1765 113.343 38.3085 113.331 38.4406C113.317 38.583 113.303 38.7253 113.289 38.8677C113.254 39.2463 113.23 39.6293 113.216 40.0167C113.204 40.3337 113.201 40.6551 113.201 40.9721C113.201 41.1423 113.206 41.3096 113.213 41.4769L113.223 41.7279L113.229 41.8541L113.235 42.0757C113.236 42.2694 113.235 42.4587 113.232 42.6583C113.261 42.6583 113.29 42.6583 113.32 42.6597C113.466 42.6641 113.61 42.6685 113.755 42.6729C113.812 42.6729 113.868 42.6744 113.923 42.6759H114.066L114.251 42.6685L114.629 42.6524C114.929 42.6436 115.23 42.6377 115.527 42.6201C115.823 42.6025 116.117 42.5761 116.414 42.5541C116.687 42.535 116.962 42.5203 117.238 42.5071C117.542 42.491 117.845 42.4763 118.149 42.4602C118.406 42.4543 118.658 42.4558 118.915 42.4646C119.168 42.4719 119.421 42.4807 119.672 42.488C120.217 42.5012 120.758 42.5071 121.303 42.5086C121.863 42.5086 122.424 42.447 122.986 42.4528C123.347 42.4558 123.705 42.447 124.064 42.4425C124.566 42.4646 124.997 42.3618 125.593 42.3706C125.855 42.375 126.084 42.356 126.084 42.3046C126.084 42.2547 125.862 42.24 125.593 42.2415C124.823 42.2444 124.465 42.2151 123.744 42.2092C123.402 42.2063 123.019 42.2386 122.402 42.2386C122.036 42.2386 121.672 42.1945 121.303 42.1945C120.797 42.196 120.716 42.2019 120.526 42.1843C120.235 42.1579 120.032 42.1168 119.776 42.1109C119.486 42.1036 119.191 42.1036 118.903 42.1109C118.354 42.127 117.795 42.1373 117.247 42.1021C117 42.0859 116.75 42.0727 116.5 42.0757C116.225 42.0786 115.955 42.0581 115.682 42.0581C115.405 42.0581 115.136 42.0522 114.862 42.0786C114.622 42.1021 114.378 42.0874 114.14 42.108L114.004 42.1197L113.903 42.127L113.893 42.1241C113.856 42.1153 113.821 42.1094 113.786 42.1036L113.806 41.9025L113.811 41.8541L113.815 41.7675L113.822 41.5796C113.83 41.3082 113.822 41.0381 113.814 40.7681C113.808 40.5025 113.802 40.2354 113.796 39.9698L113.79 39.6557L113.799 39.6014C113.859 39.2243 113.834 38.8178 113.836 38.4318C113.836 38.401 113.831 38.3731 113.825 38.3496C113.822 37.7685 113.828 37.1888 113.838 36.6047C113.844 36.2687 113.857 35.9341 113.869 35.598C113.881 35.2678 113.893 34.9391 113.904 34.6104C113.931 34.2376 113.957 33.8649 113.985 33.4936C114.02 33.0416 114.026 32.5837 114.039 32.1259C114.045 31.8984 114.039 31.6724 114.028 31.4449C114.023 31.3319 114.015 31.2189 114.009 31.1074L113.999 30.9386L113.993 30.855C113.992 30.8344 113.99 30.8447 113.989 30.8374C113.979 30.8139 113.967 30.7772 113.954 30.7244C113.954 30.6936 113.961 30.6774 113.958 30.6422C113.967 30.6495 113.974 30.651 113.982 30.6466C113.992 30.6378 114.008 30.6231 114.039 30.6231C114.068 30.6231 114.112 30.6407 114.157 30.6774C114.169 30.6877 114.175 30.6906 114.192 30.7068L114.259 30.7713L114.392 30.902C114.482 30.9885 114.571 31.0751 114.664 31.1544C114.838 31.3011 115.024 31.4611 115.185 31.624L115.448 31.8999C115.534 31.9865 115.628 32.0569 115.717 32.1391C115.844 32.255 115.973 32.3695 116.1 32.4854C116.335 32.7452 116.569 33.0064 116.812 33.2603C117.035 33.4936 117.27 33.7225 117.507 33.9383C117.687 34.1012 117.865 34.2626 118.045 34.424L118.421 34.7762C118.53 34.8804 118.637 34.9861 118.744 35.0947C118.877 35.2311 119.007 35.3735 119.136 35.5129L119.966 36.4052C120.236 36.6899 120.524 36.957 120.811 37.2182C121.08 37.4662 121.338 37.7274 121.607 37.9783C121.857 38.2146 122.106 38.4553 122.347 38.7048C122.483 38.8457 122.645 38.9601 122.781 39.1025C122.894 39.2213 123.013 39.3358 123.129 39.4517C123.383 39.7086 123.623 39.9771 123.874 40.2369C124.009 40.3763 124.139 40.5186 124.281 40.6448C124.401 40.752 124.536 40.8562 124.653 40.9662C124.854 41.1599 125.05 41.3536 125.247 41.5503C125.468 41.7704 125.655 41.9304 125.874 42.149C125.959 42.2342 126.061 42.3222 126.09 42.2973C126.13 42.262 126.07 42.1843 125.954 42.0683L125.948 42.0771Z" fill="#063844"/>
<path d="M72.9658 42.1797H49.7471V67.1775H72.9658V42.1797Z" fill="white"/>
<path d="M73.0798 66.5934C73.0798 65.9286 73.112 65.2667 73.1178 64.599C73.1237 63.968 73.1251 63.3369 73.1222 62.7044C73.1207 62.383 73.1704 61.7065 73.1719 61.3851C73.1719 61.0828 73.1675 60.5516 73.1748 60.2522C73.1894 59.6711 73.2289 59.6637 73.242 59.0841C73.2567 58.4985 73.2844 57.9159 73.3049 57.3289C73.3254 56.7214 73.3224 56.1035 73.3297 55.4945C73.34 54.9163 73.3502 54.341 73.359 53.7628C73.3707 53.1377 73.3926 52.5169 73.3868 51.8903C73.378 51.1418 73.3619 50.3934 73.3444 49.6435C73.3283 48.9714 73.3371 48.3154 73.3604 47.6477C73.4218 46.5441 73.5022 45.4537 73.5841 44.3648C73.6104 44.0126 73.6323 43.6589 73.6528 43.3038L73.6674 43.0367L73.6718 42.9677L73.6747 42.8415L73.682 42.5862C73.6908 42.2384 73.6996 41.8891 73.7098 41.5398C73.7098 41.5031 73.7112 41.4665 73.7127 41.4283C73.0169 41.4136 72.3124 41.3975 71.6079 41.3828H71.2819C70.63 41.3843 69.984 41.399 69.3379 41.4107C68.5837 41.4239 67.8324 41.44 67.0884 41.4723C65.9483 41.5281 64.8184 41.5824 63.6783 41.6367C63.1419 41.6587 62.6084 41.6792 62.0705 41.7013C61.6524 41.7086 61.2344 41.7159 60.8134 41.7218C60.2141 41.7306 59.6192 41.7482 59.0229 41.7673C58.0962 41.8011 57.1753 41.8333 56.2486 41.8671C55.8481 41.873 55.4505 41.8759 55.0486 41.8759C54.6101 41.8759 54.173 41.8876 53.736 41.9023C53.1601 41.917 52.5842 41.9258 52.0054 41.9287C51.716 41.9287 51.4265 41.9287 51.1371 41.9302C50.8185 41.9287 50.4998 41.9258 50.1797 41.9243C49.9488 41.9229 49.7193 41.9199 49.4898 41.9185L49.4781 42.9824L49.4635 43.7866C49.4518 44.3223 49.4372 44.8579 49.4167 45.3921C49.3933 45.9776 49.3773 46.5529 49.3743 47.1458C49.3787 47.7225 49.3831 48.2992 49.386 48.8745C49.3904 49.4953 49.3992 50.1219 49.3948 50.7441C49.3904 51.3576 49.3787 51.9651 49.3612 52.58C49.3437 52.8794 49.3246 53.1758 49.3027 53.4737C49.2779 53.7966 49.253 54.115 49.2282 54.4379C49.1653 55.292 49.1244 56.1564 49.0996 57.0295C49.0791 57.7427 49.0732 58.4677 49.0732 59.1824C49.0732 59.947 49.1069 60.6954 49.1317 61.4497C49.1346 61.7344 49.1332 62.0147 49.1244 62.2994C49.1171 62.4872 49.1083 62.6722 49.101 62.8571C49.0908 63.1388 49.1025 63.4132 49.1112 63.6921L49.139 64.5506C49.1463 64.8896 49.1536 65.23 49.1624 65.569C49.1741 65.955 49.1858 66.341 49.1975 66.724C49.2077 67.0498 49.2179 67.3741 49.2282 67.6955C49.6199 67.6808 50.0102 67.6676 50.4004 67.6529L50.5408 67.6471L50.6285 67.6412L50.8053 67.6309L51.1576 67.6104C51.773 67.5766 52.3956 67.5517 53.0168 67.5282C53.7038 67.5003 54.3835 67.4739 55.0705 67.4475C55.6508 67.4372 56.2164 67.4401 56.7997 67.4548C57.3697 67.468 57.9398 67.4827 58.5069 67.4959C59.7362 67.5208 60.9567 67.5296 62.1845 67.5311C63.4474 67.5311 64.7117 67.4225 65.9775 67.4328C66.7917 67.4387 67.6 67.4225 68.4097 67.4137C69.5411 67.4519 70.5116 67.2728 71.8578 67.286C72.4484 67.2919 72.9658 67.2596 72.9673 67.1716C72.9673 67.0835 72.4644 67.0571 71.8578 67.06C70.1199 67.0659 69.3145 67.0131 67.6877 67.0028C66.9159 66.9984 66.0535 67.0556 64.6605 67.0556C63.8332 67.0556 63.0118 66.9779 62.1815 66.9793C61.04 66.9823 60.8573 66.9911 60.429 66.9617C59.7727 66.9162 59.3137 66.8414 58.7393 66.8311C58.0874 66.8194 57.4209 66.8164 56.7704 66.8326C55.5309 66.8619 54.271 66.8795 53.0358 66.8179C52.4775 66.79 51.9133 66.768 51.352 66.7724C51.083 66.7753 50.8156 66.7695 50.5495 66.7621C50.4121 66.7548 50.2952 66.7475 50.1739 66.7445C50.1739 66.7064 50.1739 66.6682 50.1753 66.6301C50.1753 66.4158 50.1753 66.2059 50.1753 65.9961C50.1724 65.6879 50.1637 65.3797 50.1403 65.0686C50.0993 64.5256 50.1256 63.9724 50.0891 63.4323C50.073 63.1902 50.0628 62.9466 50.0569 62.7015L50.0613 62.6575C50.1008 62.2524 50.1154 61.8195 50.1315 61.3969C50.1432 61.121 50.1549 60.8392 50.1607 60.5575C50.1739 59.947 50.1607 59.3365 50.1446 58.7275C50.1344 58.1287 50.1242 57.527 50.1125 56.9283C50.1096 56.692 50.1066 56.4557 50.1037 56.2195L50.1183 56.0962C50.225 55.245 50.1797 54.3278 50.1812 53.459C50.1812 53.3886 50.1753 53.327 50.1637 53.2727C50.1593 51.9622 50.1695 50.6546 50.187 49.3397C50.1973 48.581 50.2207 47.8267 50.2411 47.0695C50.2616 46.3269 50.2762 45.5829 50.304 44.8432C50.3259 44.4235 50.3493 44.0023 50.3712 43.5841L50.4063 42.9692C50.418 42.9325 50.4311 42.9076 50.4443 42.8914L50.4531 42.8812C50.494 42.8944 50.5203 42.9061 50.5393 42.9149H50.5422C50.5422 42.9149 50.5422 42.9164 50.5451 42.9178H50.5685L50.6592 42.9222L50.8419 42.9281L51.2073 42.9384C51.6955 42.9487 52.1851 42.9589 52.6733 42.9692C53.6921 42.9927 54.7153 42.9281 55.7136 42.8812C56.1273 42.8606 56.5395 42.8401 56.9487 42.818C57.4779 42.8195 58.0289 42.8445 58.5537 42.8019C59.1325 42.7549 59.6909 42.6449 60.277 42.6214C60.8339 42.5979 61.3966 42.6155 61.9506 42.5803C62.4607 42.5466 63.0103 42.5128 63.5263 42.5143L64.3843 42.5289C64.6591 42.5289 64.9207 42.4996 65.1941 42.4923C65.5814 42.4761 65.9673 42.46 66.3546 42.4453C67.1425 42.4746 67.9289 42.5069 68.7196 42.5201C69.4475 42.5319 70.1871 42.5201 70.9063 42.4952C71.1782 42.4835 71.45 42.4732 71.7219 42.4614L72.1297 42.4438L72.4264 42.4277L72.7378 42.4159L72.7568 42.9252C72.7597 43.0895 72.7612 43.2539 72.7641 43.4183C72.7641 43.5885 72.7641 43.7602 72.7641 43.9319C72.7612 44.3633 72.7451 44.7977 72.7348 45.2263C72.7129 46.1449 72.6793 47.0621 72.6618 47.9793C72.6457 48.8642 72.6749 49.7536 72.7041 50.6282C72.7319 51.4544 72.7305 52.285 72.7538 53.1142C72.7714 53.8905 72.7831 54.6742 72.7728 55.4563C72.767 55.8995 72.8284 56.3427 72.8196 56.7845C72.8123 57.1557 72.8196 57.527 72.8196 57.8983C72.8167 58.7157 72.7845 59.5273 72.7728 60.3432C72.767 60.7805 72.7524 61.2164 72.7728 61.6434C72.7889 62.0059 72.8284 62.3904 72.8386 62.7529C72.8474 63.381 72.8518 64.0047 72.8518 64.6357C72.8518 65.3386 72.8883 65.8948 72.8883 66.5934C72.8883 66.8634 72.9059 67.1701 72.9746 67.1745C73.0666 67.1804 73.0886 66.9617 73.0886 66.5934H73.0798Z" fill="#063844"/>
<path d="M61.644 57.4353C64.3959 57.4353 66.6268 55.1954 66.6268 52.4325C66.6268 49.6695 64.3959 47.4297 61.644 47.4297C58.892 47.4297 56.6611 49.6695 56.6611 52.4325C56.6611 55.1954 58.892 57.4353 61.644 57.4353Z" fill="#FFD58E"/>
<path d="M66.6751 52.2409C66.6693 52.1323 66.6678 52.0222 66.6663 51.9122C66.6546 51.8036 66.6429 51.695 66.6269 51.5849C66.6079 51.3765 66.5406 51.1769 66.4909 50.9744C66.4646 50.8717 66.4047 50.656 66.3696 50.5547C66.3404 50.4579 66.2571 50.3023 66.2191 50.2113C66.1401 50.0352 66.165 50.0191 66.067 49.8518L65.9282 49.5935C65.8829 49.5069 65.8229 49.4276 65.7703 49.3455C65.7119 49.2618 65.6578 49.1738 65.5891 49.096C65.5204 49.0182 65.4531 48.9419 65.3844 48.8641C65.3523 48.8274 65.3216 48.7907 65.288 48.7555L65.1827 48.6543L64.9722 48.4517C64.8962 48.3798 64.81 48.3182 64.7296 48.2507C64.6463 48.1876 64.5674 48.1142 64.4738 48.0643L64.1449 47.875C64.0324 47.8163 63.9155 47.7708 63.8 47.718C63.7488 47.6945 63.6977 47.6725 63.6465 47.649L63.4901 47.5903C63.3863 47.5507 63.2826 47.5081 63.1788 47.4641C63.0034 47.4039 62.8294 47.335 62.6511 47.2792C62.4713 47.2352 62.2901 47.1765 62.1059 47.1427C61.8662 47.1046 61.6206 47.0649 61.3707 47.0693C61.2888 47.0693 61.2055 47.0679 61.1237 47.0664C61.0403 47.0693 60.9585 47.0826 60.8766 47.0928L60.7641 47.109C60.5361 47.1354 60.3212 47.2146 60.1019 47.2733C59.9762 47.3115 59.8549 47.3672 59.7336 47.4157C59.6737 47.4406 59.6123 47.4641 59.5524 47.492L59.3813 47.5859L59.1226 47.7327C59.0408 47.7884 58.9604 47.8471 58.88 47.9029C58.8011 47.9616 58.7163 48.013 58.6447 48.079L58.421 48.2712L58.3158 48.3608C58.2822 48.393 58.2515 48.4268 58.2193 48.4591L58.0264 48.6557C57.9737 48.7042 57.9255 48.757 57.8802 48.8113L57.7399 48.9742C57.5996 49.1224 57.4972 49.3014 57.3818 49.4658C57.2955 49.5979 57.2297 49.7417 57.1552 49.8782C57.0792 50.0147 57.031 50.1658 56.9667 50.3067C56.9053 50.427 56.8687 50.5562 56.8205 50.6824C56.7956 50.7514 56.7708 50.8218 56.7489 50.8908C56.7313 50.9627 56.7167 51.0346 56.7021 51.1065L56.6392 51.3897L56.5998 51.6774C56.5881 51.7728 56.5662 51.8681 56.5632 51.965L56.5457 52.2556L56.5355 52.4111C56.534 52.4625 56.5384 52.5153 56.5384 52.5667L56.5471 52.8793C56.5457 52.9835 56.5676 53.0862 56.5764 53.1904C56.5895 53.2931 56.5954 53.3988 56.6115 53.5015C56.6305 53.5983 56.6509 53.6937 56.6699 53.7891C56.6904 53.8845 56.7109 53.9814 56.7474 54.0753C56.8161 54.2573 56.876 54.4422 56.9696 54.6139C57.0163 54.7078 57.0631 54.8017 57.1084 54.8956L57.2721 55.1657C57.3701 55.3476 57.4987 55.5076 57.6127 55.6808C57.6639 55.7688 57.7311 55.8437 57.7881 55.9288C57.8539 56.0168 57.9109 56.1122 57.9854 56.1944C58.0819 56.3045 58.1828 56.4131 58.2851 56.5217C58.3962 56.62 58.5116 56.7154 58.6286 56.8122C58.725 56.89 58.8332 56.9516 58.937 57.0191L59.0949 57.1175C59.1489 57.1483 59.2059 57.1732 59.2615 57.2011C59.3813 57.2569 59.4983 57.3156 59.6211 57.3581L59.9938 57.4741C60.0844 57.5108 60.1809 57.5269 60.273 57.5592C60.3344 57.5797 60.3957 57.5988 60.4571 57.6179C60.5492 57.6502 60.6442 57.659 60.7407 57.6693L61.0345 57.7001C61.15 57.7162 61.2684 57.7089 61.3838 57.7133C61.5008 57.7118 61.6162 57.7236 61.7303 57.7045C61.9597 57.6751 62.1848 57.6516 62.4055 57.5885C62.5079 57.5636 62.6102 57.543 62.711 57.5166L63.0121 57.4198L63.1773 57.3669L63.3352 57.298C63.4404 57.2525 63.5442 57.2055 63.6509 57.1586C63.7371 57.1145 63.8234 57.072 63.9096 57.0309C63.9958 56.9883 64.085 56.9531 64.1683 56.9017C64.332 56.8049 64.5074 56.7242 64.6594 56.6068L64.9123 56.4263C64.9912 56.3602 65.0673 56.2913 65.1462 56.2223C65.307 56.0917 65.4385 55.9302 65.5788 55.7791C65.6534 55.7028 65.7075 55.6089 65.7689 55.5223C65.8259 55.4327 65.8916 55.3476 65.9399 55.2522C66.0378 55.0615 66.146 54.881 66.2322 54.6873C66.3623 54.4466 66.4412 54.1854 66.526 53.93C66.5801 53.7495 66.6152 53.5749 66.6298 53.3914C66.6342 53.299 66.6386 53.2051 66.6459 53.1067C66.6503 53.0583 66.6561 53.0069 66.6605 52.9556C66.6634 52.9042 66.6649 52.8499 66.6678 52.7941C66.6809 52.599 66.6736 52.4287 66.6283 52.4287C66.5845 52.4287 66.564 52.5916 66.5552 52.7868C66.507 53.3459 66.4281 53.5998 66.2527 54.09C66.2074 54.2044 66.1781 54.335 66.1109 54.4759C66.048 54.6183 65.9837 54.7914 65.8609 54.9793C65.7922 55.0938 65.7177 55.2038 65.6271 55.3021C65.5379 55.4005 65.459 55.5076 65.3698 55.6059C65.2485 55.7424 65.1769 55.8202 65.1257 55.8789C65.0731 55.9346 65.0307 55.9625 64.9766 56.0051C64.8919 56.0667 64.8158 56.1152 64.7457 56.1636C64.6726 56.2091 64.5995 56.2458 64.5264 56.3001C64.3642 56.4263 64.1815 56.529 64.0105 56.642C63.9315 56.7007 63.8394 56.7374 63.7547 56.7843C63.667 56.8269 63.5807 56.8768 63.4886 56.9135C63.3966 56.9472 63.303 56.9795 63.2109 57.0103C63.1642 57.025 63.1188 57.0412 63.0706 57.0544L62.9274 57.0808C62.8411 57.0955 62.7549 57.1116 62.6686 57.1292C62.5839 57.1498 62.4947 57.1527 62.4085 57.1688C62.3135 57.1835 62.2184 57.1967 62.122 57.2041C62.0255 57.2041 61.9305 57.204 61.834 57.2099C61.6396 57.229 61.4525 57.2011 61.2567 57.2173C61.1704 57.2275 61.0857 57.2129 61.0023 57.2011C60.9176 57.1894 60.8328 57.1776 60.748 57.1747C60.6705 57.1747 60.5974 57.1556 60.5214 57.1395L60.5083 57.1336C60.4498 57.1087 60.387 57.0852 60.3241 57.0632C60.2613 57.0426 60.1984 57.0206 60.1385 56.9927C60.0596 56.9575 59.9792 56.9223 59.8988 56.8885C59.8096 56.8562 59.7248 56.8137 59.6386 56.7741L59.3784 56.6596C59.2966 56.6156 59.2162 56.5686 59.1343 56.5217C59.0539 56.4732 58.9691 56.4321 58.8946 56.3749L58.7148 56.2458L58.6885 56.2164C58.595 56.121 58.5058 56.0139 58.402 55.9229C58.2968 55.8334 58.2018 55.7321 58.1126 55.6309C58.098 55.6147 58.0819 55.603 58.0673 55.5942L57.9635 55.4812L57.8729 55.3579L57.6916 55.1114L57.5367 54.8472L57.4592 54.7151L57.3949 54.5757C57.3481 54.4671 57.2955 54.3615 57.2561 54.2514L57.1508 53.9153C57.1114 53.8067 57.0997 53.6908 57.0719 53.5807C57.047 53.4692 57.0222 53.3577 57.0163 53.2432C57.0105 53.1141 56.9944 52.9864 56.9973 52.8573L57.0149 52.4742C57.0295 52.3201 57.0529 52.166 57.0646 52.012C57.0836 51.8579 57.1201 51.7067 57.145 51.5541C57.1771 51.4044 57.2195 51.2577 57.2444 51.105C57.278 50.9553 57.3248 50.8101 57.3628 50.6618C57.3993 50.5415 57.4519 50.427 57.4929 50.3082C57.5104 50.2715 57.5294 50.2363 57.5469 50.1996L57.6127 50.0954C57.6551 50.0249 57.696 49.9545 57.7282 49.8796C57.7998 49.7153 57.87 49.5524 57.9664 49.3954C58.0746 49.2604 58.1945 49.1312 58.3041 48.9962C58.4122 48.8803 58.5219 48.7408 58.6534 48.644L58.8741 48.4884C58.9414 48.4341 59.0028 48.3798 59.0758 48.3314C59.1782 48.2654 59.2732 48.1847 59.3799 48.1245L59.7248 47.9821C59.8403 47.9366 59.9616 47.9058 60.0786 47.8633C60.1326 47.8457 60.1853 47.8236 60.2408 47.809L60.4074 47.7649C60.5185 47.7371 60.6267 47.6945 60.7378 47.6725L60.9892 47.6167C61.0725 47.5976 61.1573 47.5756 61.2435 47.5698L61.6104 47.536C61.7186 47.5301 61.8253 47.5404 61.9349 47.5448L62.1395 47.561C62.2068 47.5742 62.274 47.5874 62.3412 47.6006C62.483 47.6299 62.6277 47.6505 62.7637 47.7004L62.9712 47.7635C63.0414 47.7826 63.1086 47.8046 63.1758 47.8339C63.3045 47.8882 63.4375 47.9278 63.5661 47.9792C63.6933 48.035 63.8204 48.0893 63.9491 48.1421C64.0645 48.2023 64.1771 48.2683 64.2911 48.3343C64.4066 48.396 64.5074 48.484 64.6171 48.5545C64.6668 48.5912 64.7194 48.6234 64.7676 48.6631L64.9079 48.7849C65 48.8685 65.098 48.9463 65.1754 49.0446C65.2646 49.1532 65.3903 49.231 65.4721 49.3469C65.5394 49.4438 65.6139 49.5377 65.6841 49.6331C65.8229 49.8532 65.9516 50.0807 66.0495 50.3214C66.0787 50.3845 66.1065 50.4476 66.1357 50.5107C66.1606 50.5753 66.1825 50.6398 66.2117 50.7015C66.2556 50.8071 66.3258 50.9143 66.3579 51.0258C66.4091 51.221 66.4748 51.4117 66.4968 51.6128C66.5143 51.7243 66.5348 51.8241 66.5538 51.9239C66.564 52.0252 66.5728 52.125 66.5786 52.238C66.583 52.3245 66.5962 52.4229 66.6312 52.4258C66.678 52.4287 66.6853 52.3568 66.678 52.235L66.6751 52.2409Z" fill="#063844"/>
<path d="M69.7748 67.1755H53.5137V62.927C53.5137 60.4851 55.4855 58.5039 57.9192 58.5039H65.3693C67.8016 58.5039 69.7748 60.4836 69.7748 62.927V67.1755Z" fill="#FFD58E"/>
<path d="M69.8321 66.8974C69.8321 66.5804 69.8482 66.2634 69.8511 65.9435V65.038C69.8511 64.884 69.8774 64.5611 69.8774 64.407C69.8774 64.2632 69.8745 64.0078 69.8789 63.8655C69.8862 63.5881 69.9052 63.5837 69.9125 63.3064C69.9169 63.1655 69.9213 63.0261 69.9257 62.8852L69.9198 62.4508C69.9023 62.3011 69.8818 62.15 69.8599 61.9988C69.8233 61.8506 69.7868 61.7024 69.7503 61.5556C69.7035 61.4191 69.6553 61.2841 69.6085 61.1476C69.5529 61.0156 69.4901 60.885 69.4316 60.7543C69.36 60.6164 69.2781 60.4829 69.2021 60.3478C69.1144 60.2202 69.0223 60.094 68.9259 59.9707C68.6759 59.6933 68.4084 59.4277 68.0986 59.2193C67.9656 59.1166 67.8238 59.0344 67.6835 58.9478C67.5475 58.8539 67.3955 58.7908 67.2493 58.7101C66.7611 58.4577 66.2305 58.286 65.6795 58.2082L65.4105 58.1759C65.3214 58.1671 65.241 58.1642 65.1548 58.1583C64.9852 58.1495 64.8156 58.1392 64.6446 58.1304C64.421 58.1187 64.1944 58.1084 63.9679 58.1055H63.8129C63.5016 58.1099 63.1917 58.1143 62.8833 58.1187C62.5223 58.126 62.1642 58.1334 61.8075 58.1495C61.2623 58.1774 60.7215 58.2038 60.1763 58.2317C59.9205 58.242 59.6647 58.2537 59.4074 58.264C59.2072 58.2669 59.0069 58.2713 58.8067 58.2742C58.5202 58.2786 58.2366 58.2874 57.9502 58.2977C57.4897 58.3212 57.0322 58.399 56.5966 58.5457C56.5016 58.5751 56.411 58.6147 56.3175 58.647C56.2254 58.6822 56.1318 58.7145 56.0427 58.7615L55.7518 58.9067L55.4799 59.0828C55.0093 59.4013 54.5927 59.799 54.2536 60.2598C53.8882 60.7514 53.6236 61.3164 53.4643 61.9122C53.3926 62.1925 53.343 62.4772 53.3356 62.7722C53.3254 62.9175 53.3298 63.054 53.3298 63.1919L53.3342 63.6057C53.3356 63.9022 53.34 64.2016 53.3386 64.4995C53.3371 64.793 53.3313 65.0835 53.321 65.377C53.3108 65.5194 53.302 65.6617 53.2918 65.8041C53.2786 65.9582 53.2669 66.1108 53.2538 66.2649C53.2436 66.4146 53.2333 66.5657 53.2231 66.7169L53.2202 66.7741L53.2172 66.8724L53.2114 67.0735C53.2085 67.2114 53.2041 67.3494 53.2012 67.4873C53.3927 67.4917 53.59 67.4947 53.7858 67.4991C53.9744 67.502 54.1644 67.5064 54.353 67.5094C54.524 67.5094 54.695 67.5108 54.866 67.5123C55.23 67.5123 55.5866 67.4947 55.9462 67.4829C56.0821 67.4815 56.2151 67.4829 56.3511 67.4873C56.4402 67.4917 56.5279 67.4947 56.6171 67.4991C56.7516 67.5049 56.8817 67.4991 57.0147 67.4947L57.424 67.4815C57.747 67.4741 58.0715 67.4683 58.3916 67.4521C58.7117 67.433 59.0289 67.414 59.3475 67.3949C59.6413 67.3787 59.9395 67.3655 60.2362 67.3538C60.5651 67.3406 60.8896 67.3274 61.2185 67.3127C61.4962 67.3083 61.7666 67.3098 62.0443 67.3156C62.3162 67.323 62.5895 67.3288 62.8614 67.3362C63.449 67.3479 64.0322 67.3538 64.6198 67.3538C65.2235 67.3538 65.8286 67.2995 66.4337 67.3054C66.8225 67.3083 67.2099 67.301 67.5958 67.2966C68.1366 67.3156 68.6014 67.2261 69.2445 67.2335C69.5266 67.2364 69.7736 67.2202 69.7751 67.1762C69.7751 67.1322 69.5354 67.119 69.2445 67.1205C68.4143 67.1234 68.0284 67.097 67.2508 67.0926C66.881 67.0896 66.4703 67.119 65.8037 67.119C65.4091 67.119 65.0159 67.0794 64.6183 67.0808C64.0731 67.0823 63.9854 67.0867 63.7808 67.072C63.4665 67.05 63.2473 67.0119 62.9725 67.0075C62.6611 67.0016 62.3425 67.0001 62.0312 67.0075C61.4377 67.0221 60.8355 67.0309 60.245 67.0001C59.979 66.9869 59.7085 66.9752 59.4396 66.9766C59.1429 66.9796 58.852 66.962 58.5567 66.962C58.2586 66.962 57.9692 66.9576 57.6724 66.9796C57.4137 67.0001 57.1506 66.9869 56.8934 67.0045C56.7779 67.0133 56.6624 67.0177 56.5455 67.0207L56.525 67.0177C56.3321 66.9987 56.126 66.9913 55.9243 66.9825C55.7927 66.9781 55.6582 66.9722 55.5238 66.9678C55.2329 66.9605 54.942 66.9678 54.6526 66.9766C54.3851 66.9825 54.1162 66.9869 53.8487 66.9928L53.6923 66.9972V66.9664L53.6996 66.9282L53.7157 66.8402L53.7215 66.8005C53.723 66.7873 53.7245 66.7815 53.7259 66.7492C53.7318 66.645 53.7332 66.5379 53.7347 66.4322C53.7347 66.2194 53.7318 66.0066 53.7318 65.7982C53.7318 65.7645 53.7288 65.7351 53.723 65.7087C53.7215 65.0821 53.7259 64.4569 53.7347 63.8288C53.7391 63.6468 53.742 63.4663 53.7464 63.2858C53.7522 63.1068 53.7537 62.9204 53.7712 62.7531L53.7902 62.5022L53.8355 62.2556C53.8575 62.0898 53.913 61.9313 53.9583 61.7728C54.0899 61.4206 54.2507 61.0801 54.4743 60.7837C54.7359 60.4198 55.0385 60.0808 55.3908 59.8034C55.7401 59.5304 56.1172 59.2854 56.5206 59.1093C56.6858 59.03 56.8612 58.9801 57.0337 58.9229C57.2646 58.8789 57.5058 58.8495 57.7382 58.8246C57.8025 58.8143 57.8668 58.8025 57.9297 58.7923L58.1343 58.7659C58.2703 58.7482 58.4077 58.7306 58.548 58.7248C58.814 58.713 59.083 58.7218 59.3475 58.7042C59.5916 58.6881 59.8533 58.6705 60.1017 58.6719L60.511 58.6793C60.6426 58.6793 60.7668 58.6646 60.8984 58.6602C61.084 58.6529 61.2682 58.644 61.4523 58.6367C61.8294 58.6514 62.2051 58.6675 62.5837 58.6734C62.9315 58.6793 63.2853 58.6734 63.6288 58.6602C63.8889 58.6485 64.1477 58.6382 64.4078 58.6264C64.5935 58.6206 64.7776 58.6162 64.9618 58.6103C65.1241 58.6088 65.2878 58.6015 65.4486 58.6103L65.7497 58.6323C65.8505 58.6382 65.947 58.6661 66.0449 58.6807C66.1502 58.6983 66.2539 58.716 66.3548 58.7512C66.4571 58.782 66.5594 58.8084 66.6588 58.8422C66.8561 58.9214 67.0535 58.9948 67.2376 59.099L67.3736 59.1665C67.4189 59.19 67.4613 59.2193 67.5051 59.2443C67.5914 59.2986 67.682 59.347 67.7668 59.4013C67.9319 59.5202 68.103 59.6317 68.252 59.7682C68.4041 59.8856 68.5268 60.0338 68.6599 60.1732C68.7212 60.2466 68.7782 60.3258 68.8382 60.4007L68.9273 60.5151L69.0048 60.6369L69.151 60.8673L69.2723 61.1124L69.3322 61.2357C69.3498 61.2783 69.3644 61.3208 69.3805 61.3634L69.4725 61.6217C69.5003 61.7214 69.5295 61.8198 69.5632 61.9196C69.5778 61.9695 69.5968 62.0179 69.6085 62.0692C69.6187 62.1206 69.6275 62.172 69.6348 62.2233L69.6728 62.4816L69.6874 62.7428C69.7006 62.9321 69.6903 63.1303 69.6874 63.324C69.683 63.5192 69.6786 63.7129 69.6743 63.9081C69.6713 64.1164 69.664 64.3248 69.6743 64.5303C69.683 64.7034 69.702 64.8869 69.7064 65.0615C69.7093 65.3624 69.7108 65.6603 69.7137 65.9611C69.7137 66.2972 69.7327 66.5628 69.7327 66.8974C69.7327 67.0265 69.7415 67.1733 69.7751 67.1748C69.8219 67.1777 69.8321 67.0735 69.8321 66.8974Z" fill="#063844"/>
<path d="M107.572 126.078C107.311 126.341 107.622 126.571 108.068 127.017C109.379 128.334 110.64 129.744 111.89 131.184C112.511 131.907 113.135 132.632 113.759 133.357L114.696 134.445L114.813 134.58L114.872 134.647L114.901 134.681L114.951 134.735L115.391 135.211L116.303 136.192C116.73 135.79 117.156 135.388 117.582 134.986L117.745 134.83L117.813 134.767L117.857 134.728L118.033 134.568L118.384 134.246C118.851 133.816 119.311 133.383 119.761 132.945C120.663 132.067 121.53 131.168 122.341 130.236C125.354 126.778 128.154 123.387 131.601 119.925C131.959 119.565 132.327 119.217 132.13 119.018C131.868 118.755 131.639 119.068 131.194 119.515C129.06 121.658 127.021 123.781 124.726 125.657C122.492 127.484 120.388 129.279 118.402 131.182C117.554 131.995 117.12 132.738 116.526 133.466C116.521 133.474 116.507 133.488 116.506 133.491L116.502 133.499L116.491 133.517C116.484 133.529 116.477 133.541 116.468 133.552C116.452 133.576 116.433 133.596 116.414 133.615C116.376 133.654 116.336 133.68 116.303 133.693C116.259 133.621 116.225 133.546 116.208 133.485C116.199 133.454 116.196 133.426 116.195 133.401V133.392L116.17 133.359L116.117 133.288L116.01 133.147C115.725 132.77 115.429 132.399 115.065 132.055C113.182 130.278 110.792 128.947 108.891 127.169C108.744 126.988 108.62 126.786 108.474 126.605C108.116 126.245 107.77 125.876 107.571 126.074L107.572 126.078Z" fill="#063844"/>
</svg>
