<svg preserveAspectRatio="xMinYMid meet" overflow="visible" style="display: block;" viewBox="0 0 173.333 37.3333" fill="none" xmlns="http://www.w3.org/2000/svg">
<g id="vector">
<path d="M10.7227 0.0120393C9.03671 1.53861 8.97547 4.07559 8.98153 6.70932C8.98917 10.1213 8.98238 14.3716 8.97671 17.928L8.97648 18.0666H13.8039L12.8621 19.5486H8.97447C8.96875 23.4203 8.9674 26.5362 8.99028 30.1641L8.93611 30.5175C7.84803 35.2809 3.14379 37.8294 0 37.2528C1.51546 36.1588 1.6738 33.9886 1.83404 31.7924C1.87106 31.2849 1.90819 30.7761 1.96218 30.2788C1.97806 26.9099 1.97691 23.0519 1.97579 19.2749C1.97499 16.5718 1.9742 13.9101 1.97967 11.4991C1.98203 10.5679 2.02375 9.62154 2.12737 8.70991C2.80162 2.7867 5.9306 -0.21553 10.7227 0.0120393Z" fill="var(--fill-0, white)"/>
<path d="M15.4351 1.5315C14.777 0.871718 13.9931 0.541995 13.0847 0.541995C12.1749 0.541995 11.392 0.871718 10.7339 1.5315C10.0755 2.19095 9.74678 2.97648 9.74678 3.88676C9.74678 4.79805 10.0755 5.58291 10.7339 6.24269C11.392 6.90214 12.1749 7.23186 13.0847 7.23186C13.9931 7.23186 14.777 6.90214 15.4351 6.24269C16.0932 5.58291 16.4226 4.79805 16.4226 3.88676C16.4226 2.97648 16.0932 2.19095 15.4351 1.5315Z" fill="var(--fill-0, white)"/>
<path fill-rule="evenodd" clip-rule="evenodd" d="M114.804 22.0052C114.804 20.4803 115.139 18.9729 115.8 17.5253C116.028 17.0273 116.297 16.555 116.586 16.0948V0.689509H108.647V1.30209H110.593V15.2947H110.495C110.004 14.0692 109.299 13.1502 108.383 12.5373C107.466 11.9247 106.27 11.6186 104.797 11.6186C102.897 11.6186 101.277 11.9466 99.9341 12.603C98.5907 13.2594 97.4854 14.0844 96.6181 15.0759C95.7503 16.0681 95.1114 17.1483 94.703 18.3145C94.2932 19.482 94.089 21.8144 94.089 22.8356C94.089 24.1484 94.3507 25.4035 94.8746 26.5994C95.3981 27.7959 96.1272 28.8535 97.0608 29.7725C97.9938 30.6916 99.1148 31.4289 100.425 31.9828C101.735 32.5367 103.192 32.8146 104.797 32.8146C106.27 32.8146 107.474 32.4862 108.407 31.8294C109.341 31.173 110.069 30.2321 110.593 29.0066H110.691V32.674H118.533V32.0044H116.586V28.4004C116.318 27.9796 116.068 27.5454 115.853 27.0835C115.157 25.5883 114.804 23.8797 114.804 22.0052ZM110.47 25.8772C110.388 26.9712 110.151 27.9931 109.758 28.9408C109.365 29.8895 108.783 30.6774 108.014 31.3045C107.244 31.9323 106.173 32.2455 104.797 32.2455C103.88 32.2455 103.151 32.0267 102.612 31.5887C102.071 31.1514 101.66 30.524 101.383 29.7068C101.105 28.8906 100.924 27.9058 100.843 26.7528C100.761 25.6004 100.72 24.3092 100.72 22.879C100.72 21.0224 100.768 18.6216 100.941 17.1986C101.088 15.9882 101.341 15.018 101.702 14.288C102.062 13.5591 102.529 13.0339 103.102 12.7126C103.675 12.3916 104.371 12.2312 105.19 12.2312C106.401 12.2312 107.367 12.5373 108.088 13.1502C108.808 13.7628 109.348 14.5365 109.709 15.4697C110.069 16.4039 110.306 17.4251 110.421 18.5336C110.536 19.6428 110.593 21.9162 110.593 22.879C110.593 23.7839 110.551 24.7832 110.47 25.8772Z" fill="var(--fill-0, white)"/>
<path d="M145.308 11.5616V15.6963H145.406C145.996 14.4495 146.79 13.375 147.789 12.4722C148.787 11.57 150.105 11.1186 151.743 11.1186C153.118 11.1186 154.231 11.4877 155.083 12.2261C155.934 12.9644 156.361 13.9903 156.361 15.3025C156.361 16.2866 156.123 17.058 155.648 17.6156C155.173 18.1739 154.412 18.4524 153.364 18.4524C152.61 18.4524 151.922 18.2973 151.301 17.9848C150.678 17.6736 150.368 17.0913 150.368 16.2374C150.368 16.1393 150.384 15.9666 150.417 15.7209C150.449 15.4744 150.49 15.2125 150.54 14.933C150.589 14.6548 150.63 14.3999 150.662 14.1704C150.695 13.9411 150.712 13.8093 150.712 13.7766C150.678 13.5143 150.63 13.309 150.564 13.1613C150.498 13.0136 150.392 12.8828 150.245 12.7675C150.097 12.6529 149.876 12.5952 149.582 12.5952C149.254 12.5952 148.845 12.7513 148.354 13.0629C147.862 13.375 147.403 13.8258 146.978 14.4165C146.552 15.0068 146.184 15.7209 145.873 16.5576C145.562 17.3944 145.406 18.3377 145.406 19.3876V31.9885H147.356V32.6773H137.468V31.9885H139.414V12.2503H137.416V11.5616H145.308Z" fill="var(--fill-0, white)"/>
<path d="M158.536 16.6519C158.536 19.671 160.658 21.4997 163.226 21.4997C165.666 21.4997 167.258 20.2877 167.873 18.1404L167.364 17.864C166.621 18.7995 165.666 19.4161 164.626 19.4161C162.95 19.4161 161.974 17.9277 161.974 15.6314C161.974 13.2923 162.95 12.229 164.074 12.229C164.308 12.229 164.542 12.2927 164.647 12.3564V12.378C164.371 13.5688 164.945 14.887 166.133 14.887C167.003 14.887 167.682 14.4406 167.682 13.4198C167.682 11.9954 166.388 11.1235 164.117 11.1235C160.807 11.1235 158.536 13.5047 158.536 16.6519Z" fill="var(--fill-0, white)"/>
<path fill-rule="evenodd" clip-rule="evenodd" d="M163.279 32.6702C160.16 32.6702 158.42 30.4659 158.42 27.8811C158.42 25.0963 160.66 22.8921 163.739 22.8921C166.859 22.8921 168.578 25.1364 168.578 27.7209C168.578 30.5061 166.379 32.6702 163.279 32.6702ZM164.399 24.3748C164.139 24.0744 163.839 23.9339 163.459 23.9339C162.419 23.9339 161.78 25.2565 161.78 27.4202C161.78 29.3439 161.88 30.6466 162.54 31.3074C162.78 31.5478 163.219 31.6682 163.519 31.6682C164.559 31.6682 165.219 30.2057 165.219 28.1818C165.219 26.3383 164.939 24.9156 164.399 24.3748Z" fill="var(--fill-0, white)"/>
<path d="M171.602 32.6701C170.638 32.6701 169.871 31.9014 169.871 30.9351C169.871 29.9692 170.638 29.1807 171.602 29.1807C172.547 29.1807 173.333 29.9888 173.333 30.9351C173.333 31.8815 172.566 32.6701 171.602 32.6701Z" fill="var(--fill-0, white)"/>
<path fill-rule="evenodd" clip-rule="evenodd" d="M57.1843 25.7523C57.0861 24.6036 57.0369 23.4624 57.0369 22.3299V20.2056H71.5278C71.5278 18.6012 71.2328 17.2246 70.6437 16.0757C70.0545 14.9274 69.3005 13.9915 68.3844 13.2673C67.4669 12.5438 66.4353 12.0091 65.2894 11.6622C64.1428 11.3166 62.9972 11.1433 61.8512 11.1433C60.246 11.1433 58.7478 11.4501 57.3566 12.0634C55.9643 12.6773 54.7535 13.4797 53.7219 14.4709C52.69 15.4621 51.8795 16.603 51.29 17.8928C50.7009 19.1838 50.4059 20.505 50.4059 21.858C50.4059 23.5571 50.7167 25.0759 51.3395 26.4127C51.9613 27.7505 52.8202 28.8839 53.9184 29.8114C55.0152 30.7399 56.3001 31.4479 57.7744 31.9354C59.2478 32.4232 60.8355 32.667 62.5386 32.667C63.9793 32.667 65.207 32.4698 66.2227 32.077C67.2374 31.6839 68.0893 31.1964 68.777 30.6135C69.4644 30.0319 70.0054 29.4028 70.398 28.7258C70.791 28.0495 71.0689 27.4123 71.2328 26.8139L70.5454 26.5782C70.5121 26.8614 70.3563 27.3021 70.0788 27.8998C69.8002 28.4979 69.3739 29.1034 68.8016 29.717C68.2279 30.3306 67.4911 30.8734 66.5911 31.3454C65.6904 31.8177 64.5845 32.0534 63.2754 32.0534C61.8018 32.0534 60.6555 31.7547 59.8369 31.1566C59.018 30.5592 58.3955 29.7959 57.9703 28.8674C57.5443 27.9396 57.2829 26.9012 57.1843 25.7523ZM64.8476 15.1081C64.8796 15.6118 64.8968 16.0369 64.8968 16.3825V19.5448H57.0369C57.0696 18.7269 57.1271 17.8696 57.2092 16.9725C57.2906 16.0757 57.4794 15.2423 57.7744 14.4709C58.0685 13.7002 58.5187 13.063 59.125 12.559C59.7306 12.0563 60.5902 11.8038 61.7035 11.8038C62.4895 11.8038 63.1035 11.9774 63.5459 12.3233C63.9877 12.6699 64.307 13.0947 64.5038 13.5977C64.7003 14.1014 64.8143 14.6051 64.8476 15.1081Z" fill="var(--fill-0, white)"/>
<path d="M91.4024 20.1966V31.981H93.3164V32.662H83.5903V31.981H85.4886V20.1966H91.4024Z" fill="var(--fill-0, white)"/>
<path d="M80.1452 11.554V15.6887H80.2434C80.8332 14.442 81.6269 13.3675 82.6262 12.4647C83.6244 11.5625 84.942 11.111 86.5801 11.111C87.9552 11.111 89.0685 11.4802 89.9204 12.2189C90.7713 12.9569 91.1979 13.9831 91.1979 15.295C91.1979 16.2794 90.9597 17.0508 90.485 17.6084C90.0102 18.1667 89.2489 18.4449 88.2008 18.4449C87.4472 18.4449 86.7598 18.2898 86.1384 17.9772C85.5153 17.6661 85.2051 17.0838 85.2051 16.2302C85.2051 16.1317 85.2209 15.9595 85.2542 15.7133C85.2862 15.4669 85.3275 15.2049 85.3767 14.9254C85.4261 14.6473 85.4668 14.3928 85.4995 14.1628C85.5321 13.9339 85.5486 13.8018 85.5486 13.7691C85.5153 13.5068 85.4668 13.3014 85.4012 13.1538C85.3353 13.0061 85.2293 12.8753 85.0819 12.76C84.9346 12.6454 84.7135 12.5877 84.4188 12.5877C84.0911 12.5877 83.682 12.7438 83.1911 13.0553C82.6995 13.3675 82.2406 13.8183 81.8153 14.4089C81.3894 14.9996 81.0213 15.7133 80.7101 16.5501C80.3985 17.3869 80.2434 18.3306 80.2434 19.3801V31.981H82.0949V32.6701H72.2941V31.981H74.2509V12.2428H72.2999V11.554H80.1452Z" fill="var(--fill-0, white)"/>
<path fill-rule="evenodd" clip-rule="evenodd" d="M122.208 25.7625C122.109 24.6139 122.061 23.4726 122.061 22.3402V20.2159H136.551C136.551 18.6114 136.256 17.2349 135.667 16.0859C135.078 14.9376 134.324 14.0017 133.408 13.2775C132.49 12.554 131.459 12.0193 130.313 11.6724C129.166 11.3268 128.02 11.1532 126.874 11.1532C125.27 11.1532 123.771 11.4603 122.38 12.0736C120.988 12.6875 119.777 13.4899 118.745 14.4811C117.714 15.4723 116.903 16.6132 116.314 17.9031C115.724 19.194 115.429 20.5152 115.429 21.8682C115.429 23.5674 115.74 25.0859 116.363 26.4229C116.984 27.7607 117.843 28.8942 118.942 29.8217C120.038 30.7501 121.323 31.4581 122.798 31.9453C124.271 32.4335 125.859 32.6772 127.562 32.6772C129.002 32.6772 130.231 32.48 131.246 32.0872C132.26 31.6938 133.113 31.2066 133.8 30.6237C134.488 30.0421 135.029 29.413 135.421 28.7361C135.815 28.0598 136.092 27.4226 136.256 26.8241L135.569 26.5885C135.535 26.8717 135.38 27.3123 135.102 27.9101C134.823 28.5082 134.397 29.1137 133.825 29.7273C133.251 30.3408 132.515 30.8836 131.614 31.3556C130.714 31.828 129.608 32.0636 128.299 32.0636C126.825 32.0636 125.679 31.7649 124.86 31.1668C124.041 30.5694 123.419 29.8061 122.993 28.8777C122.568 27.9499 122.306 26.9115 122.208 25.7625ZM129.871 15.1183C129.903 15.622 129.92 16.0471 129.92 16.3927V19.5551H122.061C122.093 18.7372 122.15 17.8798 122.232 16.9827C122.314 16.0859 122.503 15.2525 122.798 14.4811C123.092 13.7101 123.542 13.0732 124.149 12.5692C124.754 12.0665 125.613 11.814 126.727 11.814C127.513 11.814 128.127 11.9876 128.569 12.3332C129.011 12.6801 129.33 13.1049 129.527 13.6079C129.724 14.1116 129.838 14.6153 129.871 15.1183Z" fill="var(--fill-0, white)"/>
<path fill-rule="evenodd" clip-rule="evenodd" d="M48.1233 27.8996C47.845 28.4981 47.4188 29.1032 46.8468 29.7172C46.2728 30.3304 45.5363 30.8732 44.636 31.3456C43.7353 31.8175 42.6294 32.0532 41.3203 32.0532C39.8466 32.0532 38.7003 31.7548 37.8817 31.1564C37.0628 30.5593 36.4404 29.7957 36.0151 28.8672C35.5895 27.9394 35.3274 26.901 35.2292 25.7521C35.1309 24.6038 35.0818 23.4625 35.0818 22.3301V20.2058H49.5727C49.5727 18.601 49.2776 17.2248 48.6885 16.0758C48.0991 14.9272 47.3451 13.9913 46.4293 13.2674C45.5118 12.5436 44.4802 12.0089 43.3343 11.6623C42.1876 11.3164 41.042 11.1431 39.8957 11.1431C38.2909 11.1431 36.7927 11.4499 35.4014 12.0632C34.7709 12.3413 34.1825 12.6636 33.626 13.019C33.9557 13.674 34.1276 14.4316 34.1276 15.2923C34.1276 16.4258 33.8373 17.3421 33.2646 18.015C32.6674 18.7173 31.7375 19.0733 30.501 19.0733C29.9577 19.0733 29.4429 18.9917 28.9557 18.8464C28.6196 19.8326 28.4507 20.8362 28.4507 21.8578C28.4507 23.5569 28.7619 25.0758 29.384 26.4129C30.0058 27.7506 30.8654 28.8838 31.9633 29.8112C33.0601 30.74 34.345 31.448 35.819 31.9355C37.2926 32.423 38.8803 32.6671 40.5834 32.6671C42.0245 32.6671 43.2518 32.4699 44.2676 32.0771C45.282 31.684 46.1342 31.1962 46.8219 30.6136C47.5093 30.0317 48.0499 29.4026 48.4426 28.7256C48.8359 28.0493 49.1135 27.4125 49.2776 26.8137L48.5903 26.5781C48.557 26.8613 48.4012 27.3022 48.1233 27.8996ZM35.2541 16.9726C35.3352 16.0758 35.5242 15.2424 35.819 14.471C36.1134 13.7 36.5635 13.0631 37.1698 12.5591C37.7751 12.0561 38.6351 11.8039 39.7484 11.8039C40.5343 11.8039 41.1483 11.9772 41.5908 12.3231C42.0325 12.6697 42.3518 13.0945 42.5483 13.5975C42.7451 14.1012 42.8592 14.6049 42.8925 15.1079C42.9245 15.6119 42.9416 16.0367 42.9416 16.3826V19.545H35.0818C35.1144 18.7271 35.1716 17.8694 35.2541 16.9726Z" fill="var(--fill-0, white)"/>
<path d="M22.4451 15.6861V11.5514H14.6061V12.2402H16.5508V31.9783H14.6081V32.6671H24.529V31.9783H22.5433V19.3774C22.5433 18.3276 22.6984 17.3842 23.01 16.5475C23.3212 15.7107 23.6893 14.9966 24.1152 14.4063C24.5405 13.8156 24.9994 13.3649 25.4909 13.0527C25.9818 12.7412 26.3909 12.5851 26.7187 12.5851C27.0134 12.5851 27.2344 12.6427 27.3818 12.7573C27.5292 12.8726 27.6351 13.0034 27.7011 13.1511C27.7667 13.2988 27.8151 13.5041 27.8485 13.7664C27.8485 13.7991 27.832 13.9309 27.7993 14.1602C27.7667 14.3901 27.726 14.6446 27.6769 14.9228C27.6274 15.2023 27.586 15.4642 27.5541 15.7107C27.5207 15.9565 27.5049 16.1291 27.5049 16.2272C27.5049 17.0812 27.8151 17.6634 28.4382 17.9746C29.0597 18.2871 29.747 18.4422 30.501 18.4422C31.5487 18.4422 32.3101 18.164 32.7852 17.6054C33.2596 17.0481 33.4974 16.2764 33.4974 15.2923C33.4974 13.9801 33.0712 12.9542 32.2203 12.2159C31.3684 11.4776 30.2551 11.1084 28.88 11.1084C27.2422 11.1084 25.9243 11.5598 24.926 12.462C23.9268 13.3649 23.1331 14.4393 22.5433 15.6861H22.4451Z" fill="var(--fill-0, white)"/>
</g>
</svg>
