<svg width="175" height="100" viewBox="0 0 175 100" fill="none" xmlns="http://www.w3.org/2000/svg">
<path d="M48.1089 91V79.224H50.7329V91H48.1089ZM55.1969 91L51.7729 85.976H54.6529L58.2369 91H55.1969ZM50.0289 87.256V85.192H52.9089C53.2929 85.192 53.6235 85.1173 53.9009 84.968C54.1889 84.808 54.4075 84.5893 54.5569 84.312C54.7169 84.024 54.7969 83.6933 54.7969 83.32C54.7969 82.9467 54.7169 82.6213 54.5569 82.344C54.4075 82.056 54.1889 81.8373 53.9009 81.688C53.6235 81.528 53.2929 81.448 52.9089 81.448H50.0289V79.224H52.7009C53.6715 79.224 54.5142 79.3733 55.2289 79.672C55.9435 79.96 56.4929 80.392 56.8769 80.968C57.2609 81.544 57.4529 82.2693 57.4529 83.144V83.4C57.4529 84.264 57.2555 84.984 56.8609 85.56C56.4769 86.1253 55.9275 86.552 55.2129 86.84C54.5089 87.1173 53.6715 87.256 52.7009 87.256H50.0289ZM63.5121 91.304C62.7655 91.304 62.1041 91.176 61.5281 90.92C60.9628 90.664 60.4881 90.3227 60.1041 89.896C59.7308 89.4587 59.4428 88.9733 59.2401 88.44C59.0481 87.896 58.9521 87.3413 58.9521 86.776V86.456C58.9521 85.8693 59.0481 85.3093 59.2401 84.776C59.4428 84.232 59.7308 83.7467 60.1041 83.32C60.4775 82.8933 60.9415 82.5573 61.4961 82.312C62.0615 82.056 62.7015 81.928 63.4161 81.928C64.3548 81.928 65.1441 82.1413 65.7841 82.568C66.4348 82.984 66.9308 83.5333 67.2721 84.216C67.6135 84.888 67.7841 85.624 67.7841 86.424V87.288H60.0241V85.832H66.2321L65.4001 86.504C65.4001 85.9813 65.3255 85.5333 65.1761 85.16C65.0268 84.7867 64.8028 84.504 64.5041 84.312C64.2161 84.1093 63.8535 84.008 63.4161 84.008C62.9681 84.008 62.5895 84.1093 62.2801 84.312C61.9708 84.5147 61.7361 84.8133 61.5761 85.208C61.4161 85.592 61.3361 86.0667 61.3361 86.632C61.3361 87.1547 61.4108 87.6133 61.5601 88.008C61.7095 88.392 61.9441 88.6907 62.2641 88.904C62.5841 89.1173 63.0001 89.224 63.5121 89.224C63.9815 89.224 64.3655 89.1333 64.6641 88.952C64.9628 88.7707 65.1655 88.5467 65.2721 88.28H67.6241C67.4961 88.8667 67.2455 89.3893 66.8721 89.848C66.4988 90.3067 66.0295 90.664 65.4641 90.92C64.8988 91.176 64.2481 91.304 63.5121 91.304ZM73.4165 91.304C72.6592 91.304 71.9978 91.1813 71.4325 90.936C70.8778 90.68 70.4138 90.3387 70.0405 89.912C69.6672 89.4853 69.3898 89.0053 69.2085 88.472C69.0272 87.928 68.9365 87.368 68.9365 86.792V86.488C68.9365 85.8907 69.0325 85.32 69.2245 84.776C69.4165 84.2213 69.6992 83.7307 70.0725 83.304C70.4458 82.8773 70.9098 82.5413 71.4645 82.296C72.0298 82.0507 72.6752 81.928 73.4005 81.928C74.1898 81.928 74.8885 82.0827 75.4965 82.392C76.1045 82.6907 76.5898 83.112 76.9525 83.656C77.3152 84.2 77.5178 84.824 77.5605 85.528H75.0485C75.0058 85.1333 74.8458 84.8027 74.5685 84.536C74.3018 84.2587 73.9125 84.12 73.4005 84.12C72.9738 84.12 72.6165 84.2267 72.3285 84.44C72.0512 84.6533 71.8432 84.9467 71.7045 85.32C71.5658 85.6933 71.4965 86.136 71.4965 86.648C71.4965 87.1173 71.5605 87.544 71.6885 87.928C71.8165 88.3013 72.0192 88.5947 72.2965 88.808C72.5845 89.0107 72.9578 89.112 73.4165 89.112C73.7578 89.112 74.0458 89.0533 74.2805 88.936C74.5258 88.808 74.7178 88.6373 74.8565 88.424C75.0058 88.2 75.0965 87.944 75.1285 87.656H77.6245C77.5925 88.3813 77.3898 89.0213 77.0165 89.576C76.6432 90.12 76.1472 90.5467 75.5285 90.856C74.9098 91.1547 74.2058 91.304 73.4165 91.304ZM83.2778 91.304C82.5311 91.304 81.8698 91.176 81.2938 90.92C80.7284 90.664 80.2538 90.3227 79.8698 89.896C79.4964 89.4587 79.2084 88.9733 79.0058 88.44C78.8138 87.896 78.7178 87.3413 78.7178 86.776V86.456C78.7178 85.8693 78.8138 85.3093 79.0058 84.776C79.2084 84.232 79.4964 83.7467 79.8698 83.32C80.2431 82.8933 80.7071 82.5573 81.2618 82.312C81.8271 82.056 82.4671 81.928 83.1818 81.928C84.1204 81.928 84.9098 82.1413 85.5498 82.568C86.2004 82.984 86.6964 83.5333 87.0378 84.216C87.3791 84.888 87.5498 85.624 87.5498 86.424V87.288H79.7898V85.832H85.9978L85.1658 86.504C85.1658 85.9813 85.0911 85.5333 84.9418 85.16C84.7924 84.7867 84.5684 84.504 84.2698 84.312C83.9818 84.1093 83.6191 84.008 83.1818 84.008C82.7338 84.008 82.3551 84.1093 82.0458 84.312C81.7364 84.5147 81.5018 84.8133 81.3418 85.208C81.1818 85.592 81.1018 86.0667 81.1018 86.632C81.1018 87.1547 81.1764 87.6133 81.3258 88.008C81.4751 88.392 81.7098 88.6907 82.0298 88.904C82.3498 89.1173 82.7658 89.224 83.2778 89.224C83.7471 89.224 84.1311 89.1333 84.4298 88.952C84.7284 88.7707 84.9311 88.5467 85.0378 88.28H87.3898C87.2618 88.8667 87.0111 89.3893 86.6378 89.848C86.2644 90.3067 85.7951 90.664 85.2298 90.92C84.6644 91.176 84.0138 91.304 83.2778 91.304ZM89.6621 91V82.232H92.2221V91H89.6621ZM88.4941 84.12V82.232H92.2221V84.12H88.4941ZM90.6541 81.368C90.1741 81.368 89.8168 81.2453 89.5821 81C89.3581 80.744 89.2461 80.424 89.2461 80.04C89.2461 79.6453 89.3581 79.3253 89.5821 79.08C89.8168 78.824 90.1741 78.696 90.6541 78.696C91.1341 78.696 91.4861 78.824 91.7101 79.08C91.9448 79.3253 92.0621 79.6453 92.0621 80.04C92.0621 80.424 91.9448 80.744 91.7101 81C91.4861 81.2453 91.1341 81.368 90.6541 81.368ZM96.2859 91L93.6619 82.232H96.3019L98.7659 91H96.2859ZM97.0859 91V88.872H99.6619V91H97.0859ZM98.0299 91L100.158 82.232H102.622L100.35 91H98.0299ZM107.95 91.304C107.203 91.304 106.542 91.176 105.966 90.92C105.4 90.664 104.926 90.3227 104.542 89.896C104.168 89.4587 103.88 88.9733 103.678 88.44C103.486 87.896 103.39 87.3413 103.39 86.776V86.456C103.39 85.8693 103.486 85.3093 103.678 84.776C103.88 84.232 104.168 83.7467 104.542 83.32C104.915 82.8933 105.379 82.5573 105.934 82.312C106.499 82.056 107.139 81.928 107.854 81.928C108.792 81.928 109.582 82.1413 110.222 82.568C110.872 82.984 111.368 83.5333 111.71 84.216C112.051 84.888 112.222 85.624 112.222 86.424V87.288H104.462V85.832H110.67L109.838 86.504C109.838 85.9813 109.763 85.5333 109.614 85.16C109.464 84.7867 109.24 84.504 108.942 84.312C108.654 84.1093 108.291 84.008 107.854 84.008C107.406 84.008 107.027 84.1093 106.718 84.312C106.408 84.5147 106.174 84.8133 106.014 85.208C105.854 85.592 105.774 86.0667 105.774 86.632C105.774 87.1547 105.848 87.6133 105.998 88.008C106.147 88.392 106.382 88.6907 106.702 88.904C107.022 89.1173 107.438 89.224 107.95 89.224C108.419 89.224 108.803 89.1333 109.102 88.952C109.4 88.7707 109.603 88.5467 109.71 88.28H112.062C111.934 88.8667 111.683 89.3893 111.31 89.848C110.936 90.3067 110.467 90.664 109.902 90.92C109.336 91.176 108.686 91.304 107.95 91.304ZM117.534 91.288C116.915 91.288 116.35 91.176 115.838 90.952C115.337 90.728 114.899 90.4187 114.526 90.024C114.153 89.6187 113.865 89.144 113.662 88.6C113.47 88.056 113.374 87.4693 113.374 86.84V86.472C113.374 85.8427 113.465 85.256 113.646 84.712C113.838 84.168 114.11 83.6933 114.462 83.288C114.825 82.872 115.257 82.552 115.758 82.328C116.259 82.0933 116.819 81.976 117.438 81.976C118.142 81.976 118.75 82.1307 119.262 82.44C119.774 82.7387 120.174 83.1867 120.462 83.784C120.75 84.3707 120.91 85.096 120.942 85.96L120.27 85.336V79.32H122.846V91H120.814V87.368H121.166C121.134 88.2 120.958 88.9093 120.638 89.496C120.329 90.0827 119.907 90.5307 119.374 90.84C118.841 91.1387 118.227 91.288 117.534 91.288ZM118.174 89.144C118.569 89.144 118.926 89.0587 119.246 88.888C119.577 88.7067 119.838 88.4453 120.03 88.104C120.233 87.7627 120.334 87.352 120.334 86.872V86.28C120.334 85.8107 120.233 85.416 120.03 85.096C119.827 84.776 119.561 84.5307 119.23 84.36C118.899 84.1893 118.542 84.104 118.158 84.104C117.731 84.104 117.347 84.216 117.006 84.44C116.675 84.6533 116.414 84.952 116.222 85.336C116.03 85.7093 115.934 86.1467 115.934 86.648C115.934 87.16 116.03 87.6027 116.222 87.976C116.414 88.3493 116.681 88.6373 117.022 88.84C117.363 89.0427 117.747 89.144 118.174 89.144ZM129.103 91V83.224C129.103 81.8907 129.509 80.8773 130.319 80.184C131.141 79.4907 132.261 79.144 133.679 79.144C133.925 79.144 134.213 79.1547 134.543 79.176C134.874 79.1867 135.199 79.208 135.519 79.24C135.85 79.2613 136.117 79.2827 136.319 79.304V81.384C136.117 81.3627 135.845 81.3413 135.503 81.32C135.173 81.288 134.837 81.2667 134.495 81.256C134.165 81.2347 133.893 81.224 133.679 81.224C133.146 81.224 132.714 81.304 132.383 81.464C132.053 81.6133 131.813 81.848 131.663 82.168C131.514 82.488 131.439 82.8773 131.439 83.336V91H129.103ZM128.015 91V89.016H135.631V91H128.015ZM128.111 85.992V84.28H135.215V85.992H128.111ZM135.055 91V87.608H137.055V91H135.055ZM142.491 91.304C141.585 91.304 140.795 91.1387 140.123 90.808C139.462 90.4667 138.955 90.008 138.603 89.432C138.251 88.856 138.075 88.2053 138.075 87.48H140.603C140.603 87.9707 140.769 88.3707 141.099 88.68C141.43 88.9787 141.894 89.128 142.491 89.128C142.886 89.128 143.222 89.0533 143.499 88.904C143.777 88.7547 143.99 88.552 144.139 88.296C144.289 88.0293 144.363 87.7307 144.363 87.4C144.363 86.888 144.198 86.4667 143.867 86.136C143.547 85.8053 143.089 85.64 142.491 85.64C142.171 85.64 141.889 85.688 141.643 85.784C141.409 85.88 141.206 85.9973 141.035 86.136L139.851 84.136L143.387 81.832L143.243 81.56H138.555V79.32H146.427V81.752L142.347 84.344L141.067 83.992C141.281 83.928 141.505 83.88 141.739 83.848C141.985 83.8053 142.246 83.784 142.523 83.784C143.43 83.784 144.209 83.9333 144.859 84.232C145.51 84.5307 146.011 84.952 146.363 85.496C146.726 86.0293 146.907 86.6533 146.907 87.368V87.56C146.907 88.2747 146.726 88.9147 146.363 89.48C146.011 90.0453 145.505 90.4933 144.843 90.824C144.193 91.144 143.409 91.304 142.491 91.304ZM150.457 91V81.048L151.161 81.592H148.169V79.32H153.065V91H150.457ZM159.7 91.304C158.772 91.304 157.972 91.128 157.3 90.776C156.628 90.4133 156.111 89.928 155.748 89.32C155.396 88.712 155.22 88.04 155.22 87.304H157.748C157.748 87.6667 157.828 87.9867 157.988 88.264C158.159 88.5307 158.394 88.744 158.692 88.904C158.991 89.0533 159.332 89.128 159.716 89.128C160.143 89.128 160.5 89.0427 160.788 88.872C161.087 88.6907 161.316 88.4507 161.476 88.152C161.636 87.8427 161.716 87.496 161.716 87.112C161.716 86.7173 161.636 86.3707 161.476 86.072C161.327 85.7627 161.103 85.5173 160.804 85.336C160.516 85.1547 160.164 85.064 159.748 85.064C159.364 85.064 159.018 85.144 158.708 85.304C158.399 85.464 158.17 85.6667 158.02 85.912H155.556L156.148 79.32H163.236V81.56H157.188L158.196 80.888L157.844 84.68L157.236 84.52C157.556 84.136 157.94 83.816 158.388 83.56C158.847 83.2933 159.444 83.16 160.18 83.16C161.034 83.16 161.759 83.336 162.356 83.688C162.964 84.0293 163.428 84.4933 163.748 85.08C164.079 85.656 164.244 86.3013 164.244 87.016V87.224C164.244 87.9387 164.068 88.6053 163.716 89.224C163.364 89.8427 162.847 90.344 162.164 90.728C161.492 91.112 160.671 91.304 159.7 91.304ZM172.125 91L169.357 86.904H168.125L171.693 82.232H174.381L171.021 86.584L171.053 85.336L175.005 91H172.125ZM165.949 91V79.32H168.509V91H165.949Z" fill="white"/>
<path d="M125.318 45.1994C127.814 45.1994 129.403 44.2947 129.403 41.8066V29.14H126.453V41.4673C126.453 42.5983 126.226 42.9375 125.318 42.9375C124.41 42.9375 124.183 42.5983 124.183 41.4673V29.14H121.12V41.8066C121.12 44.2947 122.708 45.1994 125.205 45.1994H125.318Z" fill="white"/>
<path fill-rule="evenodd" clip-rule="evenodd" d="M173.088 48.7054L172.294 48.8185L172.18 50.4018C172.18 50.5149 172.294 50.5149 172.294 50.5149H172.521C172.634 50.5149 172.634 50.4018 172.634 50.4018V49.8363H172.975L173.201 50.4018C173.201 50.5149 173.315 50.5149 173.315 50.5149H173.542C173.599 50.5149 173.627 50.5149 173.641 50.5007C173.655 50.4865 173.655 50.4583 173.655 50.4018C173.655 50.2362 173.595 50.1312 173.517 49.9981C173.489 49.9495 173.459 49.8968 173.428 49.8363C173.449 49.8153 173.474 49.7943 173.501 49.7719C173.618 49.6735 173.769 49.547 173.769 49.2709C173.769 48.9316 173.428 48.7054 173.088 48.7054ZM173.315 49.2709C173.315 49.3839 173.201 49.497 173.088 49.497H172.634V49.0447H173.088C173.201 49.0447 173.315 49.1578 173.315 49.2709Z" fill="white"/>
<path fill-rule="evenodd" clip-rule="evenodd" d="M174.79 49.6101C174.79 48.5923 173.996 47.8006 172.975 47.8006C171.953 47.8006 171.159 48.5923 171.159 49.6101C171.159 50.628 171.953 51.4196 172.975 51.4196C173.996 51.4196 174.79 50.628 174.79 49.6101ZM174.45 49.6101C174.45 50.4018 173.769 51.0804 172.975 51.0804C172.067 51.0804 171.499 50.4018 171.499 49.6101C171.499 48.8185 172.18 48.1399 172.975 48.1399C173.769 48.1399 174.45 48.8185 174.45 49.6101Z" fill="white"/>
<path d="M131.445 45.0863V29.14H134.509L137.346 37.7352V29.14H140.182V45.0863H137.573L134.169 35.5864V45.0863H131.445Z" fill="white"/>
<path fill-rule="evenodd" clip-rule="evenodd" d="M164.691 38.64L166.847 45.0863H169.911L167.528 38.1876C168.663 37.6221 169.344 36.7173 169.344 35.134V32.5328C169.344 30.1579 167.642 29.14 165.145 29.14H160.833V45.0863H163.897V38.64H164.691ZM164.805 36.265H163.897V31.515H164.805C165.713 31.515 166.28 31.8543 166.28 32.9852V34.7947C166.28 35.9257 165.713 36.265 164.805 36.265Z" fill="white"/>
<path fill-rule="evenodd" clip-rule="evenodd" d="M167.642 63.6338L165.486 57.1875H164.691V63.6338H161.628V47.6875H165.939C168.436 47.6875 170.138 48.7054 170.138 51.0803V53.6815C170.138 55.2648 169.457 56.1696 168.322 56.7351L170.705 63.6338H167.642ZM164.805 54.9256H165.713C166.62 54.9256 167.188 54.5863 167.188 53.4553V51.6458C167.188 50.5149 166.62 50.1756 165.713 50.1756H164.805V54.9256Z" fill="white"/>
<path fill-rule="evenodd" clip-rule="evenodd" d="M114.085 56.9612L114.652 57.866H116.127L114.652 55.491L115.56 52.5506H114.198L113.744 54.0208L112.383 51.872C111.815 51.0803 111.815 50.8541 111.815 50.4018V49.6101C111.815 48.9315 112.042 48.8184 112.496 48.8184C112.95 48.8184 113.291 48.9315 113.291 49.6101V50.6279L114.766 49.7232V49.3839C114.766 48.0268 113.858 47.4613 112.496 47.4613C111.135 47.4613 110.227 48.0268 110.227 49.3839V50.4018C110.227 51.0803 110.34 51.5327 110.681 51.9851C110.227 52.3244 110 52.7767 110 53.4553V56.1696C110 57.3005 110.681 57.9791 112.042 57.9791H112.383C113.517 57.9791 113.858 57.4136 114.085 56.9612ZM111.589 53.0029L113.177 55.491C113.064 56.0565 112.837 56.735 112.269 56.735C111.702 56.735 111.589 56.5089 111.589 55.8303V53.0029Z" fill="white"/>
<path fill-rule="evenodd" clip-rule="evenodd" d="M131.899 60.0148H129.403L128.836 63.6338H125.885L128.949 47.5744H132.467L135.644 63.6338H132.58L131.899 60.0148ZM131.559 57.866L130.651 51.4196L129.743 57.866H131.559Z" fill="white"/>
<path d="M115.9 35.2471V29.14H118.964V45.0863H115.9V38.3007H113.291V45.0863H110.34V29.14H113.291V35.2471H115.9Z" fill="white"/>
<path d="M149.146 47.6875V53.9077H146.65V47.6875H143.586V63.6338H146.65V56.8482H149.146V63.6338H152.21V47.6875H149.146Z" fill="white"/>
<path d="M154.706 38.0745V42.1459H159.018V45.0863H151.643V29.14H159.018V32.0805H154.706V35.6995H158.224V38.0745H154.706Z" fill="white"/>
<path d="M156.408 60.6934V56.622H159.926V54.247H156.408V50.628H160.607V47.6875H153.345V63.7469H160.72V60.6934H156.408Z" fill="white"/>
<path d="M141.771 29.14H150.168V32.0805H147.671V45.0863H144.267V32.0805H141.771V29.14Z" fill="white"/>
<path d="M125.545 51.1934V50.9672C125.545 48.5923 123.843 47.5744 121.347 47.5744H121.12C118.624 47.5744 116.922 48.5923 116.922 50.9672V60.4672C116.922 62.9553 118.624 63.86 121.12 63.86H121.347C123.843 63.86 125.545 62.9553 125.545 60.4672V54.247H121.12V57.1874H122.595V60.0148C122.595 61.1457 122.254 61.485 121.347 61.485C120.439 61.485 120.099 61.1457 120.099 60.0148V51.4196C120.099 50.2887 120.439 49.9494 121.347 49.9494C122.254 49.9494 122.595 50.2887 122.595 51.4196V52.8898L125.545 51.1934Z" fill="white"/>
<path d="M134.169 47.6875H142.565V50.628H140.069V63.6338H136.665V50.628H134.169V47.6875Z" fill="white"/>
</svg>
