<svg width="306" height="328" viewBox="0 0 306 328" fill="none" xmlns="http://www.w3.org/2000/svg">
<path d="M20 18L20 308" stroke="white" stroke-width="8"/>
<path d="M20 18L20 92" stroke="#BBE0D9" stroke-width="8"/>
<rect x="39" y="1" width="38" height="38" rx="19" transform="rotate(90 39 1)" fill="#BBE0D9"/>
<path d="M16.6672 24.6345L12.0338 20.0011L10.4561 21.5678L16.6672 27.7789L30.0005 14.4456L28.4338 12.8789L16.6672 24.6345Z" fill="#063844"/>
<rect x="39" y="1" width="38" height="38" rx="19" transform="rotate(90 39 1)" stroke="#BBE0D9" stroke-width="2"/>
<path opacity="0.3" d="M62.672 25.304C61.616 25.304 60.7093 25.1227 59.952 24.76C59.1947 24.3867 58.576 23.9013 58.096 23.304C57.616 22.696 57.2587 22.0453 57.024 21.352C56.8 20.648 56.688 19.9653 56.688 19.304V18.952C56.688 18.2267 56.8053 17.512 57.04 16.808C57.2747 16.0933 57.632 15.448 58.112 14.872C58.6027 14.296 59.216 13.8373 59.952 13.496C60.6987 13.144 61.5787 12.968 62.592 12.968C63.648 12.968 64.5813 13.1653 65.392 13.56C66.2027 13.9547 66.848 14.504 67.328 15.208C67.8187 15.9013 68.1067 16.7173 68.192 17.656H65.552C65.4773 17.1867 65.3067 16.7867 65.04 16.456C64.7733 16.1253 64.4267 15.8693 64 15.688C63.584 15.5067 63.1147 15.416 62.592 15.416C62.0693 15.416 61.6053 15.5067 61.2 15.688C60.7947 15.8693 60.4533 16.1253 60.176 16.456C59.9093 16.7867 59.7013 17.1813 59.552 17.64C59.4133 18.088 59.344 18.5893 59.344 19.144C59.344 19.688 59.4133 20.1893 59.552 20.648C59.7013 21.096 59.9147 21.4907 60.192 21.832C60.48 22.1627 60.832 22.4187 61.248 22.6C61.664 22.7707 62.1387 22.856 62.672 22.856C63.4827 22.856 64.1653 22.6587 64.72 22.264C65.2853 21.8693 65.6267 21.3253 65.744 20.632H68.368C68.272 21.4853 67.984 22.2693 67.504 22.984C67.0347 23.688 66.3893 24.2533 65.568 24.68C64.7573 25.096 63.792 25.304 62.672 25.304ZM74.2369 25.304C73.4689 25.304 72.7862 25.1867 72.1889 24.952C71.5915 24.7067 71.0849 24.376 70.6689 23.96C70.2635 23.544 69.9542 23.0693 69.7409 22.536C69.5275 21.992 69.4209 21.4213 69.4209 20.824V20.456C69.4209 19.848 69.5275 19.272 69.7409 18.728C69.9649 18.1733 70.2849 17.688 70.7009 17.272C71.1275 16.856 71.6395 16.5307 72.2369 16.296C72.8342 16.0507 73.5009 15.928 74.2369 15.928C74.9942 15.928 75.6662 16.0507 76.2529 16.296C76.8502 16.5307 77.3569 16.856 77.7729 17.272C78.1889 17.688 78.5089 18.1733 78.7329 18.728C78.9569 19.272 79.0689 19.848 79.0689 20.456V20.824C79.0689 21.4213 78.9622 21.992 78.7489 22.536C78.5355 23.0693 78.2209 23.544 77.8049 23.96C77.3995 24.376 76.8982 24.7067 76.3009 24.952C75.7035 25.1867 75.0155 25.304 74.2369 25.304ZM74.2369 23.144C74.7382 23.144 75.1542 23.0373 75.4849 22.824C75.8155 22.6107 76.0662 22.312 76.2369 21.928C76.4182 21.544 76.5089 21.1173 76.5089 20.648C76.5089 20.1467 76.4182 19.7093 76.2369 19.336C76.0555 18.952 75.7942 18.648 75.4529 18.424C75.1222 18.2 74.7169 18.088 74.2369 18.088C73.7675 18.088 73.3622 18.2 73.0209 18.424C72.6795 18.648 72.4182 18.952 72.2369 19.336C72.0662 19.7093 71.9809 20.1467 71.9809 20.648C71.9809 21.1173 72.0662 21.544 72.2369 21.928C72.4075 22.312 72.6635 22.6107 73.0049 22.824C73.3462 23.0373 73.7569 23.144 74.2369 23.144ZM80.8555 25V16.232H82.8875V19.992H82.7435C82.7435 19.096 82.8555 18.3493 83.0795 17.752C83.3142 17.1547 83.6662 16.7067 84.1355 16.408C84.6048 16.1093 85.1755 15.96 85.8475 15.96H85.9595C86.9835 15.96 87.7622 16.296 88.2955 16.968C88.8395 17.6293 89.1115 18.6373 89.1115 19.992V25H86.5515V19.848C86.5515 19.3787 86.4128 18.9947 86.1355 18.696C85.8582 18.3973 85.4848 18.248 85.0155 18.248C84.5355 18.248 84.1462 18.4027 83.8475 18.712C83.5595 19.0107 83.4155 19.4053 83.4155 19.896V25H80.8555ZM95.277 25.112C94.3917 25.112 93.677 25.0053 93.133 24.792C92.589 24.568 92.189 24.2 91.933 23.688C91.6877 23.1653 91.565 22.4613 91.565 21.576V13.864H93.949V21.672C93.949 22.088 94.0557 22.408 94.269 22.632C94.493 22.8453 94.8077 22.952 95.213 22.952H96.509V25.112H95.277ZM90.237 18.104V16.232H96.509V18.104H90.237ZM103.495 25V22.408H103.063V19.592C103.063 19.144 102.957 18.808 102.743 18.584C102.53 18.36 102.189 18.248 101.719 18.248C101.485 18.248 101.175 18.2533 100.791 18.264C100.407 18.2747 100.013 18.2907 99.6073 18.312C99.2019 18.3333 98.8339 18.3547 98.5033 18.376V16.216C98.7486 16.1947 99.0366 16.1733 99.3673 16.152C99.6979 16.1307 100.039 16.1147 100.391 16.104C100.743 16.0933 101.074 16.088 101.383 16.088C102.279 16.088 103.031 16.216 103.639 16.472C104.258 16.728 104.727 17.1173 105.047 17.64C105.367 18.152 105.527 18.8133 105.527 19.624V25H103.495ZM100.695 25.224C100.066 25.224 99.5113 25.112 99.0312 24.888C98.5619 24.664 98.1939 24.344 97.9273 23.928C97.6606 23.5013 97.5273 22.9947 97.5273 22.408C97.5273 21.768 97.6926 21.2453 98.0233 20.84C98.3539 20.424 98.8179 20.12 99.4153 19.928C100.013 19.7253 100.701 19.624 101.479 19.624H103.351V21.048H101.463C101.015 21.048 100.669 21.16 100.423 21.384C100.189 21.5973 100.071 21.8907 100.071 22.264C100.071 22.616 100.189 22.904 100.423 23.128C100.669 23.3413 101.015 23.448 101.463 23.448C101.751 23.448 102.007 23.4 102.231 23.304C102.466 23.1973 102.658 23.0213 102.807 22.776C102.957 22.5307 103.042 22.1893 103.063 21.752L103.671 22.392C103.618 23 103.469 23.512 103.223 23.928C102.989 24.344 102.658 24.664 102.231 24.888C101.815 25.112 101.303 25.224 100.695 25.224ZM111.635 25.304C110.878 25.304 110.217 25.1813 109.651 24.936C109.097 24.68 108.633 24.3387 108.259 23.912C107.886 23.4853 107.609 23.0053 107.427 22.472C107.246 21.928 107.155 21.368 107.155 20.792V20.488C107.155 19.8907 107.251 19.32 107.443 18.776C107.635 18.2213 107.918 17.7307 108.291 17.304C108.665 16.8773 109.129 16.5413 109.683 16.296C110.249 16.0507 110.894 15.928 111.619 15.928C112.409 15.928 113.107 16.0827 113.715 16.392C114.323 16.6907 114.809 17.112 115.171 17.656C115.534 18.2 115.737 18.824 115.779 19.528H113.267C113.225 19.1333 113.065 18.8027 112.787 18.536C112.521 18.2587 112.131 18.12 111.619 18.12C111.193 18.12 110.835 18.2267 110.547 18.44C110.27 18.6533 110.062 18.9467 109.923 19.32C109.785 19.6933 109.715 20.136 109.715 20.648C109.715 21.1173 109.779 21.544 109.907 21.928C110.035 22.3013 110.238 22.5947 110.515 22.808C110.803 23.0107 111.177 23.112 111.635 23.112C111.977 23.112 112.265 23.0533 112.499 22.936C112.745 22.808 112.937 22.6373 113.075 22.424C113.225 22.2 113.315 21.944 113.347 21.656H115.843C115.811 22.3813 115.609 23.0213 115.235 23.576C114.862 24.12 114.366 24.5467 113.747 24.856C113.129 25.1547 112.425 25.304 111.635 25.304ZM121.465 25.112C120.579 25.112 119.865 25.0053 119.321 24.792C118.777 24.568 118.377 24.2 118.121 23.688C117.875 23.1653 117.753 22.4613 117.753 21.576V13.864H120.137V21.672C120.137 22.088 120.243 22.408 120.457 22.632C120.681 22.8453 120.995 22.952 121.401 22.952H122.697V25.112H121.465ZM116.425 18.104V16.232H122.697V18.104H116.425ZM131.393 25.288C130.775 25.288 130.209 25.176 129.697 24.952C129.196 24.728 128.759 24.4187 128.385 24.024C128.012 23.6187 127.724 23.144 127.521 22.6C127.329 22.056 127.233 21.4693 127.233 20.84V20.472C127.233 19.8427 127.324 19.256 127.505 18.712C127.697 18.168 127.969 17.6933 128.321 17.288C128.684 16.872 129.116 16.552 129.617 16.328C130.119 16.0933 130.679 15.976 131.297 15.976C132.001 15.976 132.609 16.1307 133.121 16.44C133.633 16.7387 134.033 17.1867 134.321 17.784C134.609 18.3707 134.769 19.096 134.801 19.96L134.129 19.336V13.32H136.705V25H134.673V21.368H135.025C134.993 22.2 134.817 22.9093 134.497 23.496C134.188 24.0827 133.767 24.5307 133.233 24.84C132.7 25.1387 132.087 25.288 131.393 25.288ZM132.033 23.144C132.428 23.144 132.785 23.0587 133.105 22.888C133.436 22.7067 133.697 22.4453 133.889 22.104C134.092 21.7627 134.193 21.352 134.193 20.872V20.28C134.193 19.8107 134.092 19.416 133.889 19.096C133.687 18.776 133.42 18.5307 133.089 18.36C132.759 18.1893 132.401 18.104 132.017 18.104C131.591 18.104 131.207 18.216 130.865 18.44C130.535 18.6533 130.273 18.952 130.081 19.336C129.889 19.7093 129.793 20.1467 129.793 20.648C129.793 21.16 129.889 21.6027 130.081 21.976C130.273 22.3493 130.54 22.6373 130.881 22.84C131.223 23.0427 131.607 23.144 132.033 23.144ZM143.043 25.304C142.297 25.304 141.635 25.176 141.059 24.92C140.494 24.664 140.019 24.3227 139.635 23.896C139.262 23.4587 138.974 22.9733 138.771 22.44C138.579 21.896 138.483 21.3413 138.483 20.776V20.456C138.483 19.8693 138.579 19.3093 138.771 18.776C138.974 18.232 139.262 17.7467 139.635 17.32C140.009 16.8933 140.473 16.5573 141.027 16.312C141.593 16.056 142.233 15.928 142.947 15.928C143.886 15.928 144.675 16.1413 145.315 16.568C145.966 16.984 146.462 17.5333 146.803 18.216C147.145 18.888 147.315 19.624 147.315 20.424V21.288H139.555V19.832H145.763L144.931 20.504C144.931 19.9813 144.857 19.5333 144.707 19.16C144.558 18.7867 144.334 18.504 144.035 18.312C143.747 18.1093 143.385 18.008 142.947 18.008C142.499 18.008 142.121 18.1093 141.811 18.312C141.502 18.5147 141.267 18.8133 141.107 19.208C140.947 19.592 140.867 20.0667 140.867 20.632C140.867 21.1547 140.942 21.6133 141.091 22.008C141.241 22.392 141.475 22.6907 141.795 22.904C142.115 23.1173 142.531 23.224 143.043 23.224C143.513 23.224 143.897 23.1333 144.195 22.952C144.494 22.7707 144.697 22.5467 144.803 22.28H147.155C147.027 22.8667 146.777 23.3893 146.403 23.848C146.03 24.3067 145.561 24.664 144.995 24.92C144.43 25.176 143.779 25.304 143.043 25.304ZM152.996 25.112C152.11 25.112 151.396 25.0053 150.852 24.792C150.308 24.568 149.908 24.2 149.652 23.688C149.406 23.1653 149.284 22.4613 149.284 21.576V13.864H151.668V21.672C151.668 22.088 151.774 22.408 151.988 22.632C152.212 22.8453 152.526 22.952 152.932 22.952H154.228V25.112H152.996ZM147.956 18.104V16.232H154.228V18.104H147.956ZM161.214 25V22.408H160.782V19.592C160.782 19.144 160.675 18.808 160.462 18.584C160.249 18.36 159.907 18.248 159.438 18.248C159.203 18.248 158.894 18.2533 158.51 18.264C158.126 18.2747 157.731 18.2907 157.326 18.312C156.921 18.3333 156.553 18.3547 156.222 18.376V16.216C156.467 16.1947 156.755 16.1733 157.086 16.152C157.417 16.1307 157.758 16.1147 158.11 16.104C158.462 16.0933 158.793 16.088 159.102 16.088C159.998 16.088 160.75 16.216 161.358 16.472C161.977 16.728 162.446 17.1173 162.766 17.64C163.086 18.152 163.246 18.8133 163.246 19.624V25H161.214ZM158.414 25.224C157.785 25.224 157.23 25.112 156.75 24.888C156.281 24.664 155.913 24.344 155.646 23.928C155.379 23.5013 155.246 22.9947 155.246 22.408C155.246 21.768 155.411 21.2453 155.742 20.84C156.073 20.424 156.537 20.12 157.134 19.928C157.731 19.7253 158.419 19.624 159.198 19.624H161.07V21.048H159.182C158.734 21.048 158.387 21.16 158.142 21.384C157.907 21.5973 157.79 21.8907 157.79 22.264C157.79 22.616 157.907 22.904 158.142 23.128C158.387 23.3413 158.734 23.448 159.182 23.448C159.47 23.448 159.726 23.4 159.95 23.304C160.185 23.1973 160.377 23.0213 160.526 22.776C160.675 22.5307 160.761 22.1893 160.782 21.752L161.39 22.392C161.337 23 161.187 23.512 160.942 23.928C160.707 24.344 160.377 24.664 159.95 24.888C159.534 25.112 159.022 25.224 158.414 25.224ZM165.834 25V16.232H168.394V25H165.834ZM164.666 18.12V16.232H168.394V18.12H164.666ZM166.826 15.368C166.346 15.368 165.989 15.2453 165.754 15C165.53 14.744 165.418 14.424 165.418 14.04C165.418 13.6453 165.53 13.3253 165.754 13.08C165.989 12.824 166.346 12.696 166.826 12.696C167.306 12.696 167.658 12.824 167.882 13.08C168.117 13.3253 168.234 13.6453 168.234 14.04C168.234 14.424 168.117 14.744 167.882 15C167.658 15.2453 167.306 15.368 166.826 15.368ZM170.874 25V13.32H173.45V25H170.874ZM169.834 15.208V13.32H173.45V15.208H169.834ZM179.137 25.272C177.889 25.272 176.913 25.016 176.209 24.504C175.505 23.992 175.131 23.272 175.089 22.344H177.361C177.403 22.6213 177.569 22.872 177.857 23.096C178.155 23.3093 178.598 23.416 179.185 23.416C179.633 23.416 180.001 23.3413 180.289 23.192C180.587 23.032 180.737 22.808 180.737 22.52C180.737 22.264 180.625 22.0613 180.401 21.912C180.177 21.752 179.777 21.64 179.201 21.576L178.513 21.512C177.457 21.4053 176.662 21.112 176.129 20.632C175.606 20.152 175.345 19.5387 175.345 18.792C175.345 18.1733 175.499 17.656 175.809 17.24C176.118 16.824 176.545 16.5093 177.089 16.296C177.643 16.0827 178.273 15.976 178.977 15.976C180.107 15.976 181.019 16.2267 181.713 16.728C182.406 17.2187 182.769 17.9333 182.801 18.872H180.529C180.486 18.584 180.337 18.344 180.081 18.152C179.825 17.9493 179.446 17.848 178.945 17.848C178.55 17.848 178.235 17.9227 178.001 18.072C177.766 18.2213 177.649 18.424 177.649 18.68C177.649 18.9253 177.75 19.112 177.953 19.24C178.155 19.368 178.486 19.4587 178.945 19.512L179.633 19.576C180.71 19.6933 181.547 19.992 182.145 20.472C182.742 20.952 183.041 21.5973 183.041 22.408C183.041 22.9947 182.881 23.5067 182.561 23.944C182.241 24.3707 181.787 24.7013 181.201 24.936C180.614 25.16 179.926 25.272 179.137 25.272Z" fill="white"/>
<rect x="39" y="73" width="38" height="38" rx="19" transform="rotate(90 39 73)" fill="#BBE0D9"/>
<circle cx="20" cy="92" r="10" fill="#063844"/>
<rect x="39" y="73" width="38" height="38" rx="19" transform="rotate(90 39 73)" stroke="#BBE0D9" stroke-width="2"/>
<path d="M57.68 102V84.888H69.044V88.116H61.544V91.872H68.66V94.872H61.544V98.772H69.152V102H57.68ZM71.7729 102V90.024L74.7849 89.844L74.9409 91.92H75.2409C75.6409 91.336 76.1569 90.82 76.7889 90.372C77.4289 89.924 78.2089 89.7 79.1289 89.7C79.9689 89.7 80.6369 89.892 81.1329 90.276C81.6289 90.66 81.9809 91.216 82.1889 91.944H82.4049C82.8289 91.352 83.3689 90.832 84.0249 90.384C84.6889 89.928 85.4889 89.7 86.4249 89.7C87.6089 89.7 88.4969 90.06 89.0889 90.78C89.6809 91.5 89.9769 92.552 89.9769 93.936V102H86.3889V95.088C86.3889 94.392 86.2809 93.864 86.0649 93.504C85.8489 93.144 85.4569 92.964 84.8889 92.964C84.4169 92.964 83.9969 93.108 83.6289 93.396C83.2689 93.676 82.9569 94.02 82.6929 94.428V102H79.1049V95.088C79.1049 94.392 78.9929 93.864 78.7689 93.504C78.5529 93.144 78.1649 92.964 77.6049 92.964C77.1169 92.964 76.6849 93.12 76.3089 93.432C75.9409 93.736 75.6249 94.1 75.3609 94.524V102H71.7729ZM95.5226 102.288C94.4906 102.288 93.6586 101.972 93.0266 101.34C92.4026 100.7 92.0906 99.844 92.0906 98.772C92.0906 97.868 92.2906 97.156 92.6906 96.636C93.0986 96.108 93.5986 95.72 94.1906 95.472C94.7906 95.216 95.3786 95.04 95.9546 94.944L99.2906 94.428C99.3226 93.732 99.1186 93.26 98.6786 93.012C98.2386 92.764 97.6426 92.64 96.8906 92.64C96.3386 92.64 95.7066 92.728 94.9946 92.904C94.2906 93.08 93.5586 93.344 92.7986 93.696L92.6306 90.636C93.2226 90.42 93.9786 90.212 94.8986 90.012C95.8186 89.804 96.8066 89.7 97.8626 89.7C99.3586 89.7 100.523 90.036 101.355 90.708C102.195 91.372 102.615 92.456 102.615 93.96V102H99.5546L99.3266 100.404H99.0506C98.7306 100.868 98.2746 101.3 97.6826 101.7C97.0986 102.092 96.3786 102.288 95.5226 102.288ZM96.9506 99.516C97.3746 99.516 97.7866 99.372 98.1866 99.084C98.5946 98.788 98.9306 98.388 99.1946 97.884V96.048C99.0506 96.16 98.8386 96.26 98.5586 96.348C98.2786 96.428 97.7586 96.544 96.9986 96.696C96.5666 96.784 96.2226 96.96 95.9666 97.224C95.7186 97.48 95.5946 97.824 95.5946 98.256C95.5946 98.72 95.7306 99.048 96.0026 99.24C96.2826 99.424 96.5986 99.516 96.9506 99.516ZM105.431 102V90.024L109.019 89.916V102H105.431ZM107.195 88.176C106.531 88.176 105.999 88.02 105.599 87.708C105.207 87.388 105.011 86.872 105.011 86.16C105.011 85.528 105.207 85.04 105.599 84.696C105.999 84.352 106.539 84.18 107.219 84.18C107.899 84.18 108.431 84.36 108.815 84.72C109.207 85.072 109.403 85.552 109.403 86.16C109.403 86.872 109.207 87.388 108.815 87.708C108.423 88.02 107.883 88.176 107.195 88.176ZM112.039 102V84.408L115.627 84.096V102H112.039ZM123.243 102V90.024L126.831 89.916V102H123.243ZM125.007 88.176C124.343 88.176 123.811 88.02 123.411 87.708C123.019 87.388 122.823 86.872 122.823 86.16C122.823 85.528 123.019 85.04 123.411 84.696C123.811 84.352 124.351 84.18 125.031 84.18C125.711 84.18 126.243 84.36 126.627 84.72C127.019 85.072 127.215 85.552 127.215 86.16C127.215 86.872 127.019 87.388 126.627 87.708C126.235 88.02 125.695 88.176 125.007 88.176ZM129.851 102V90.024L132.863 89.844L133.019 91.932H133.319C133.727 91.34 134.259 90.82 134.915 90.372C135.579 89.924 136.387 89.7 137.339 89.7C139.771 89.7 140.987 91.112 140.987 93.936V102H137.411V95.088C137.411 94.392 137.295 93.864 137.063 93.504C136.831 93.144 136.415 92.964 135.815 92.964C135.295 92.964 134.839 93.116 134.447 93.42C134.055 93.724 133.719 94.092 133.439 94.524V102H129.851ZM146.541 102C146.277 101.256 146.009 100.5 145.737 99.732C145.465 98.964 145.197 98.212 144.933 97.476L144.177 95.352C143.865 94.472 143.549 93.584 143.229 92.688C142.917 91.792 142.605 90.904 142.293 90.024L146.157 89.916C146.381 90.756 146.605 91.596 146.829 92.436C147.053 93.268 147.277 94.108 147.501 94.956L148.353 98.136H148.641L149.505 94.944C149.729 94.08 149.949 93.24 150.165 92.424C150.389 91.6 150.609 90.8 150.825 90.024H154.629C154.317 90.912 154.001 91.804 153.681 92.7C153.369 93.596 153.057 94.488 152.745 95.376L151.989 97.512C151.725 98.264 151.461 99.012 151.197 99.756C150.933 100.5 150.669 101.248 150.405 102H146.541ZM156.525 102V90.024L160.113 89.916V102H156.525ZM158.289 88.176C157.625 88.176 157.093 88.02 156.693 87.708C156.301 87.388 156.105 86.872 156.105 86.16C156.105 85.528 156.301 85.04 156.693 84.696C157.093 84.352 157.633 84.18 158.313 84.18C158.993 84.18 159.525 84.36 159.909 84.72C160.301 85.072 160.497 85.552 160.497 86.16C160.497 86.872 160.301 87.388 159.909 87.708C159.517 88.02 158.977 88.176 158.289 88.176ZM168.256 102.324C166.928 102.324 165.892 102.016 165.148 101.4C164.412 100.784 164.044 99.748 164.044 98.292V92.724H162.1V90.024H164.044V86.136L167.572 85.5V90.024H171.148V92.724H167.572V97.164C167.572 97.9 167.704 98.456 167.968 98.832C168.24 99.208 168.68 99.396 169.288 99.396C169.536 99.396 169.812 99.352 170.116 99.264C170.428 99.168 170.724 99.02 171.004 98.82L171.208 101.724C170.904 101.916 170.476 102.064 169.924 102.168C169.372 102.272 168.816 102.324 168.256 102.324ZM179.187 102.312C177.643 102.312 176.379 102.044 175.395 101.508C174.419 100.964 173.699 100.216 173.235 99.264C172.779 98.304 172.551 97.208 172.551 95.976C172.551 94.744 172.767 93.66 173.199 92.724C173.631 91.78 174.275 91.04 175.131 90.504C175.995 89.968 177.067 89.7 178.347 89.7C179.979 89.7 181.255 90.136 182.175 91.008C183.095 91.88 183.555 93.212 183.555 95.004C183.555 95.604 183.519 96.136 183.447 96.6H176.079C176.175 97.48 176.507 98.16 177.075 98.64C177.651 99.12 178.499 99.36 179.619 99.36C180.091 99.36 180.667 99.292 181.347 99.156C182.035 99.02 182.663 98.808 183.231 98.52L183.351 101.544C182.887 101.76 182.303 101.94 181.599 102.084C180.895 102.236 180.091 102.312 179.187 102.312ZM178.383 92.208C177.799 92.208 177.303 92.424 176.895 92.856C176.487 93.288 176.223 93.88 176.103 94.632L180.411 94.548C180.371 93.82 180.163 93.248 179.787 92.832C179.411 92.416 178.943 92.208 178.383 92.208ZM194.326 102.312C193.438 102.312 192.618 102.232 191.866 102.072C191.114 101.92 190.486 101.728 189.982 101.496L190.21 98.46C190.738 98.78 191.35 99.04 192.046 99.24C192.75 99.44 193.43 99.54 194.086 99.54C194.558 99.54 194.954 99.472 195.273 99.336C195.602 99.192 195.766 98.888 195.766 98.424C195.766 98.088 195.582 97.836 195.214 97.668C194.854 97.492 194.202 97.284 193.258 97.044C192.194 96.772 191.382 96.38 190.822 95.868C190.262 95.348 189.982 94.568 189.982 93.528C189.982 92.328 190.374 91.392 191.158 90.72C191.95 90.048 193.026 89.712 194.386 89.712C195.274 89.712 196.098 89.8 196.858 89.976C197.626 90.152 198.238 90.344 198.694 90.552L198.454 93.612C197.902 93.26 197.29 92.996 196.618 92.82C195.946 92.644 195.418 92.556 195.034 92.556C194.65 92.556 194.322 92.636 194.05 92.796C193.786 92.956 193.654 93.22 193.654 93.588C193.654 93.9 193.778 94.156 194.026 94.356C194.282 94.556 194.826 94.768 195.658 94.992C196.522 95.224 197.23 95.472 197.782 95.736C198.334 96 198.742 96.344 199.006 96.768C199.278 97.184 199.414 97.736 199.414 98.424C199.414 99.584 199.014 100.524 198.214 101.244C197.422 101.956 196.126 102.312 194.326 102.312ZM207.593 102.312C206.049 102.312 204.785 102.044 203.801 101.508C202.825 100.964 202.105 100.216 201.641 99.264C201.185 98.304 200.957 97.208 200.957 95.976C200.957 94.744 201.173 93.66 201.605 92.724C202.037 91.78 202.681 91.04 203.537 90.504C204.401 89.968 205.473 89.7 206.753 89.7C208.385 89.7 209.661 90.136 210.581 91.008C211.501 91.88 211.961 93.212 211.961 95.004C211.961 95.604 211.925 96.136 211.853 96.6H204.485C204.581 97.48 204.913 98.16 205.481 98.64C206.057 99.12 206.905 99.36 208.025 99.36C208.497 99.36 209.073 99.292 209.753 99.156C210.441 99.02 211.069 98.808 211.637 98.52L211.757 101.544C211.293 101.76 210.709 101.94 210.005 102.084C209.301 102.236 208.497 102.312 207.593 102.312ZM206.789 92.208C206.205 92.208 205.709 92.424 205.301 92.856C204.893 93.288 204.629 93.88 204.509 94.632L208.817 94.548C208.777 93.82 208.569 93.248 208.193 92.832C207.817 92.416 207.349 92.208 206.789 92.208ZM214.226 102V90.024L217.238 89.844L217.394 91.932H217.694C218.102 91.34 218.634 90.82 219.29 90.372C219.954 89.924 220.762 89.7 221.714 89.7C224.146 89.7 225.362 91.112 225.362 93.936V102H221.786V95.088C221.786 94.392 221.67 93.864 221.438 93.504C221.206 93.144 220.79 92.964 220.19 92.964C219.67 92.964 219.214 93.116 218.822 93.42C218.43 93.724 218.094 94.092 217.814 94.524V102H214.226ZM233.225 102.324C231.897 102.324 230.861 102.016 230.117 101.4C229.381 100.784 229.013 99.748 229.013 98.292V92.724H227.069V90.024H229.013V86.136L232.541 85.5V90.024H236.117V92.724H232.541V97.164C232.541 97.9 232.673 98.456 232.937 98.832C233.209 99.208 233.649 99.396 234.257 99.396C234.505 99.396 234.781 99.352 235.085 99.264C235.397 99.168 235.693 99.02 235.973 98.82L236.177 101.724C235.873 101.916 235.445 102.064 234.893 102.168C234.341 102.272 233.785 102.324 233.225 102.324Z" fill="white"/>
<rect x="40" y="144" width="40" height="40" rx="20" transform="rotate(90 40 144)" fill="white"/>
<path d="M62.672 170.804C61.616 170.804 60.7093 170.623 59.952 170.26C59.1947 169.887 58.576 169.401 58.096 168.804C57.616 168.196 57.2587 167.545 57.024 166.852C56.8 166.148 56.688 165.465 56.688 164.804V164.452C56.688 163.727 56.8053 163.012 57.04 162.308C57.2747 161.593 57.632 160.948 58.112 160.372C58.6027 159.796 59.216 159.337 59.952 158.996C60.6987 158.644 61.5787 158.468 62.592 158.468C63.648 158.468 64.5813 158.665 65.392 159.06C66.2027 159.455 66.848 160.004 67.328 160.708C67.8187 161.401 68.1067 162.217 68.192 163.156H65.552C65.4773 162.687 65.3067 162.287 65.04 161.956C64.7733 161.625 64.4267 161.369 64 161.188C63.584 161.007 63.1147 160.916 62.592 160.916C62.0693 160.916 61.6053 161.007 61.2 161.188C60.7947 161.369 60.4533 161.625 60.176 161.956C59.9093 162.287 59.7013 162.681 59.552 163.14C59.4133 163.588 59.344 164.089 59.344 164.644C59.344 165.188 59.4133 165.689 59.552 166.148C59.7013 166.596 59.9147 166.991 60.192 167.332C60.48 167.663 60.832 167.919 61.248 168.1C61.664 168.271 62.1387 168.356 62.672 168.356C63.4827 168.356 64.1653 168.159 64.72 167.764C65.2853 167.369 65.6267 166.825 65.744 166.132H68.368C68.272 166.985 67.984 167.769 67.504 168.484C67.0347 169.188 66.3893 169.753 65.568 170.18C64.7573 170.596 63.792 170.804 62.672 170.804ZM70.0769 170.5V158.82H72.6529V170.5H70.0769ZM69.0369 160.708V158.82H72.6529V160.708H69.0369ZM75.4278 170.5V161.732H77.9878V170.5H75.4278ZM74.2598 163.62V161.732H77.9878V163.62H74.2598ZM76.4198 160.868C75.9398 160.868 75.5824 160.745 75.3478 160.5C75.1238 160.244 75.0118 159.924 75.0118 159.54C75.0118 159.145 75.1238 158.825 75.3478 158.58C75.5824 158.324 75.9398 158.196 76.4198 158.196C76.8998 158.196 77.2518 158.324 77.4758 158.58C77.7104 158.825 77.8278 159.145 77.8278 159.54C77.8278 159.924 77.7104 160.244 77.4758 160.5C77.2518 160.745 76.8998 160.868 76.4198 160.868ZM84.3715 170.804C83.6248 170.804 82.9635 170.676 82.3875 170.42C81.8222 170.164 81.3475 169.823 80.9635 169.396C80.5902 168.959 80.3022 168.473 80.0995 167.94C79.9075 167.396 79.8115 166.841 79.8115 166.276V165.956C79.8115 165.369 79.9075 164.809 80.0995 164.276C80.3022 163.732 80.5902 163.247 80.9635 162.82C81.3368 162.393 81.8008 162.057 82.3555 161.812C82.9208 161.556 83.5608 161.428 84.2755 161.428C85.2142 161.428 86.0035 161.641 86.6435 162.068C87.2942 162.484 87.7902 163.033 88.1315 163.716C88.4728 164.388 88.6435 165.124 88.6435 165.924V166.788H80.8835V165.332H87.0915L86.2595 166.004C86.2595 165.481 86.1848 165.033 86.0355 164.66C85.8862 164.287 85.6622 164.004 85.3635 163.812C85.0755 163.609 84.7128 163.508 84.2755 163.508C83.8275 163.508 83.4488 163.609 83.1395 163.812C82.8302 164.015 82.5955 164.313 82.4355 164.708C82.2755 165.092 82.1955 165.567 82.1955 166.132C82.1955 166.655 82.2702 167.113 82.4195 167.508C82.5688 167.892 82.8035 168.191 83.1235 168.404C83.4435 168.617 83.8595 168.724 84.3715 168.724C84.8408 168.724 85.2248 168.633 85.5235 168.452C85.8222 168.271 86.0248 168.047 86.1315 167.78H88.4835C88.3555 168.367 88.1048 168.889 87.7315 169.348C87.3582 169.807 86.8888 170.164 86.3235 170.42C85.7582 170.676 85.1075 170.804 84.3715 170.804ZM90.3399 170.5V161.732H92.3719V165.492H92.2279C92.2279 164.596 92.3399 163.849 92.5639 163.252C92.7985 162.655 93.1505 162.207 93.6199 161.908C94.0892 161.609 94.6599 161.46 95.3319 161.46H95.4439C96.4679 161.46 97.2465 161.796 97.7799 162.468C98.3239 163.129 98.5959 164.137 98.5959 165.492V170.5H96.0359V165.348C96.0359 164.879 95.8972 164.495 95.6199 164.196C95.3425 163.897 94.9692 163.748 94.4999 163.748C94.0199 163.748 93.6305 163.903 93.3319 164.212C93.0439 164.511 92.8999 164.905 92.8999 165.396V170.5H90.3399ZM104.761 170.612C103.876 170.612 103.161 170.505 102.617 170.292C102.073 170.068 101.673 169.7 101.417 169.188C101.172 168.665 101.049 167.961 101.049 167.076V159.364H103.433V167.172C103.433 167.588 103.54 167.908 103.753 168.132C103.977 168.345 104.292 168.452 104.697 168.452H105.993V170.612H104.761ZM99.7214 163.604V161.732H105.993V163.604H99.7214ZM115.01 170.804C114.253 170.804 113.592 170.681 113.026 170.436C112.472 170.18 112.008 169.839 111.634 169.412C111.261 168.985 110.984 168.505 110.802 167.972C110.621 167.428 110.53 166.868 110.53 166.292V165.988C110.53 165.391 110.626 164.82 110.818 164.276C111.01 163.721 111.293 163.231 111.666 162.804C112.04 162.377 112.504 162.041 113.058 161.796C113.624 161.551 114.269 161.428 114.994 161.428C115.784 161.428 116.482 161.583 117.09 161.892C117.698 162.191 118.184 162.612 118.546 163.156C118.909 163.7 119.112 164.324 119.154 165.028H116.642C116.6 164.633 116.44 164.303 116.162 164.036C115.896 163.759 115.506 163.62 114.994 163.62C114.568 163.62 114.21 163.727 113.922 163.94C113.645 164.153 113.437 164.447 113.298 164.82C113.16 165.193 113.09 165.636 113.09 166.148C113.09 166.617 113.154 167.044 113.282 167.428C113.41 167.801 113.613 168.095 113.89 168.308C114.178 168.511 114.552 168.612 115.01 168.612C115.352 168.612 115.64 168.553 115.874 168.436C116.12 168.308 116.312 168.137 116.45 167.924C116.6 167.7 116.69 167.444 116.722 167.156H119.218C119.186 167.881 118.984 168.521 118.61 169.076C118.237 169.62 117.741 170.047 117.122 170.356C116.504 170.655 115.8 170.804 115.01 170.804ZM120.856 170.5V158.82H123.416V165.556H123.032C123.032 164.671 123.144 163.924 123.368 163.316C123.592 162.708 123.922 162.249 124.36 161.94C124.797 161.62 125.346 161.46 126.008 161.46H126.12C127.09 161.46 127.832 161.807 128.344 162.5C128.856 163.183 129.112 164.185 129.112 165.508V170.5H126.552V165.348C126.552 164.868 126.408 164.484 126.12 164.196C125.842 163.897 125.474 163.748 125.016 163.748C124.536 163.748 124.146 163.903 123.848 164.212C123.56 164.521 123.416 164.932 123.416 165.444V170.5H120.856ZM135.309 170.804C134.562 170.804 133.901 170.676 133.325 170.42C132.76 170.164 132.285 169.823 131.901 169.396C131.528 168.959 131.24 168.473 131.037 167.94C130.845 167.396 130.749 166.841 130.749 166.276V165.956C130.749 165.369 130.845 164.809 131.037 164.276C131.24 163.732 131.528 163.247 131.901 162.82C132.274 162.393 132.738 162.057 133.293 161.812C133.858 161.556 134.498 161.428 135.213 161.428C136.152 161.428 136.941 161.641 137.581 162.068C138.232 162.484 138.728 163.033 139.069 163.716C139.41 164.388 139.581 165.124 139.581 165.924V166.788H131.821V165.332H138.029L137.197 166.004C137.197 165.481 137.122 165.033 136.973 164.66C136.824 164.287 136.6 164.004 136.301 163.812C136.013 163.609 135.65 163.508 135.213 163.508C134.765 163.508 134.386 163.609 134.077 163.812C133.768 164.015 133.533 164.313 133.373 164.708C133.213 165.092 133.133 165.567 133.133 166.132C133.133 166.655 133.208 167.113 133.357 167.508C133.506 167.892 133.741 168.191 134.061 168.404C134.381 168.617 134.797 168.724 135.309 168.724C135.778 168.724 136.162 168.633 136.461 168.452C136.76 168.271 136.962 168.047 137.069 167.78H139.421C139.293 168.367 139.042 168.889 138.669 169.348C138.296 169.807 137.826 170.164 137.261 170.42C136.696 170.676 136.045 170.804 135.309 170.804ZM145.213 170.804C144.456 170.804 143.795 170.681 143.229 170.436C142.675 170.18 142.211 169.839 141.837 169.412C141.464 168.985 141.187 168.505 141.005 167.972C140.824 167.428 140.733 166.868 140.733 166.292V165.988C140.733 165.391 140.829 164.82 141.021 164.276C141.213 163.721 141.496 163.231 141.869 162.804C142.243 162.377 142.707 162.041 143.261 161.796C143.827 161.551 144.472 161.428 145.197 161.428C145.987 161.428 146.685 161.583 147.293 161.892C147.901 162.191 148.387 162.612 148.749 163.156C149.112 163.7 149.315 164.324 149.357 165.028H146.845C146.803 164.633 146.643 164.303 146.365 164.036C146.099 163.759 145.709 163.62 145.197 163.62C144.771 163.62 144.413 163.727 144.125 163.94C143.848 164.153 143.64 164.447 143.501 164.82C143.363 165.193 143.293 165.636 143.293 166.148C143.293 166.617 143.357 167.044 143.485 167.428C143.613 167.801 143.816 168.095 144.093 168.308C144.381 168.511 144.755 168.612 145.213 168.612C145.555 168.612 145.843 168.553 146.077 168.436C146.323 168.308 146.515 168.137 146.653 167.924C146.803 167.7 146.893 167.444 146.925 167.156H149.421C149.389 167.881 149.187 168.521 148.813 169.076C148.44 169.62 147.944 170.047 147.325 170.356C146.707 170.655 146.003 170.804 145.213 170.804ZM157.235 170.5L154.467 166.404H153.235L156.803 161.732H159.491L156.131 166.084L156.163 164.836L160.115 170.5H157.235ZM151.059 170.5V158.82H153.619V170.5H151.059ZM164.371 170.772C163.123 170.772 162.147 170.516 161.443 170.004C160.739 169.492 160.366 168.772 160.323 167.844H162.595C162.638 168.121 162.803 168.372 163.091 168.596C163.39 168.809 163.832 168.916 164.419 168.916C164.867 168.916 165.235 168.841 165.523 168.692C165.822 168.532 165.971 168.308 165.971 168.02C165.971 167.764 165.859 167.561 165.635 167.412C165.411 167.252 165.011 167.14 164.435 167.076L163.747 167.012C162.691 166.905 161.896 166.612 161.363 166.132C160.84 165.652 160.579 165.039 160.579 164.292C160.579 163.673 160.734 163.156 161.043 162.74C161.352 162.324 161.779 162.009 162.323 161.796C162.878 161.583 163.507 161.476 164.211 161.476C165.342 161.476 166.254 161.727 166.947 162.228C167.64 162.719 168.003 163.433 168.035 164.372H165.763C165.72 164.084 165.571 163.844 165.315 163.652C165.059 163.449 164.68 163.348 164.179 163.348C163.784 163.348 163.47 163.423 163.235 163.572C163 163.721 162.883 163.924 162.883 164.18C162.883 164.425 162.984 164.612 163.187 164.74C163.39 164.868 163.72 164.959 164.179 165.012L164.867 165.076C165.944 165.193 166.782 165.492 167.379 165.972C167.976 166.452 168.275 167.097 168.275 167.908C168.275 168.495 168.115 169.007 167.795 169.444C167.475 169.871 167.022 170.201 166.435 170.436C165.848 170.66 165.16 170.772 164.371 170.772ZM177.309 170.804C176.562 170.804 175.901 170.676 175.325 170.42C174.76 170.164 174.285 169.823 173.901 169.396C173.528 168.959 173.24 168.473 173.037 167.94C172.845 167.396 172.749 166.841 172.749 166.276V165.956C172.749 165.369 172.845 164.809 173.037 164.276C173.24 163.732 173.528 163.247 173.901 162.82C174.274 162.393 174.738 162.057 175.293 161.812C175.858 161.556 176.498 161.428 177.213 161.428C178.152 161.428 178.941 161.641 179.581 162.068C180.232 162.484 180.728 163.033 181.069 163.716C181.41 164.388 181.581 165.124 181.581 165.924V166.788H173.821V165.332H180.029L179.197 166.004C179.197 165.481 179.122 165.033 178.973 164.66C178.824 164.287 178.6 164.004 178.301 163.812C178.013 163.609 177.65 163.508 177.213 163.508C176.765 163.508 176.386 163.609 176.077 163.812C175.768 164.015 175.533 164.313 175.373 164.708C175.213 165.092 175.133 165.567 175.133 166.132C175.133 166.655 175.208 167.113 175.357 167.508C175.506 167.892 175.741 168.191 176.061 168.404C176.381 168.617 176.797 168.724 177.309 168.724C177.778 168.724 178.162 168.633 178.461 168.452C178.76 168.271 178.962 168.047 179.069 167.78H181.421C181.293 168.367 181.042 168.889 180.669 169.348C180.296 169.807 179.826 170.164 179.261 170.42C178.696 170.676 178.045 170.804 177.309 170.804ZM183.389 170.5V158.82H185.965V170.5H183.389ZM182.349 160.708V158.82H185.965V160.708H182.349ZM188.74 170.5V161.732H191.3V170.5H188.74ZM187.572 163.62V161.732H191.3V163.62H187.572ZM189.732 160.868C189.252 160.868 188.895 160.745 188.66 160.5C188.436 160.244 188.324 159.924 188.324 159.54C188.324 159.145 188.436 158.825 188.66 158.58C188.895 158.324 189.252 158.196 189.732 158.196C190.212 158.196 190.564 158.324 190.788 158.58C191.023 158.825 191.14 159.145 191.14 159.54C191.14 159.924 191.023 160.244 190.788 160.5C190.564 160.745 190.212 160.868 189.732 160.868ZM197.124 173.988C196.697 173.988 196.26 173.972 195.812 173.94C195.364 173.908 194.953 173.865 194.58 173.812V171.652C194.953 171.705 195.364 171.748 195.812 171.78C196.271 171.823 196.687 171.844 197.06 171.844C197.753 171.844 198.313 171.764 198.74 171.604C199.177 171.444 199.497 171.199 199.7 170.868C199.903 170.548 200.004 170.132 200.004 169.62V167.876L200.468 166.852C200.447 167.631 200.292 168.297 200.004 168.852C199.727 169.407 199.337 169.833 198.836 170.132C198.335 170.42 197.737 170.564 197.044 170.564C196.447 170.564 195.903 170.457 195.412 170.244C194.932 170.02 194.521 169.711 194.18 169.316C193.839 168.921 193.577 168.463 193.396 167.94C193.215 167.407 193.124 166.831 193.124 166.212V165.844C193.124 165.225 193.22 164.649 193.412 164.116C193.604 163.583 193.881 163.119 194.244 162.724C194.607 162.329 195.039 162.025 195.54 161.812C196.041 161.588 196.596 161.476 197.204 161.476C197.908 161.476 198.516 161.631 199.028 161.94C199.551 162.249 199.961 162.703 200.26 163.3C200.559 163.897 200.719 164.617 200.74 165.46L200.388 165.556V161.732H202.42V169.46C202.42 170.537 202.228 171.407 201.844 172.068C201.46 172.729 200.873 173.215 200.084 173.524C199.305 173.833 198.319 173.988 197.124 173.988ZM197.844 168.404C198.239 168.404 198.596 168.319 198.916 168.148C199.236 167.967 199.487 167.711 199.668 167.38C199.86 167.049 199.956 166.649 199.956 166.18V165.716C199.956 165.257 199.855 164.873 199.652 164.564C199.46 164.244 199.204 164.004 198.884 163.844C198.564 163.673 198.223 163.588 197.86 163.588C197.433 163.588 197.055 163.689 196.724 163.892C196.393 164.095 196.137 164.377 195.956 164.74C195.775 165.103 195.684 165.529 195.684 166.02C195.684 166.521 195.775 166.953 195.956 167.316C196.148 167.668 196.404 167.94 196.724 168.132C197.055 168.313 197.428 168.404 197.844 168.404ZM205.053 170.5V161.732H207.613V170.5H205.053ZM203.885 163.62V161.732H207.613V163.62H203.885ZM206.045 160.868C205.565 160.868 205.207 160.745 204.973 160.5C204.749 160.244 204.637 159.924 204.637 159.54C204.637 159.145 204.749 158.825 204.973 158.58C205.207 158.324 205.565 158.196 206.045 158.196C206.525 158.196 206.877 158.324 207.101 158.58C207.335 158.825 207.453 159.145 207.453 159.54C207.453 159.924 207.335 160.244 207.101 160.5C206.877 160.745 206.525 160.868 206.045 160.868ZM215.373 170.788C214.658 170.788 214.029 170.639 213.485 170.34C212.941 170.031 212.514 169.588 212.205 169.012C211.895 168.436 211.73 167.732 211.709 166.9H212.013V170.5H209.981V158.82H212.541V164.756L211.933 165.524C211.965 164.639 212.13 163.897 212.429 163.3C212.738 162.692 213.159 162.239 213.693 161.94C214.226 161.631 214.834 161.476 215.517 161.476C216.114 161.476 216.653 161.588 217.133 161.812C217.623 162.025 218.039 162.335 218.381 162.74C218.722 163.135 218.983 163.604 219.165 164.148C219.357 164.692 219.453 165.284 219.453 165.924V166.276C219.453 166.916 219.357 167.508 219.165 168.052C218.983 168.596 218.711 169.076 218.349 169.492C217.997 169.897 217.57 170.217 217.069 170.452C216.567 170.676 216.002 170.788 215.373 170.788ZM214.701 168.644C215.138 168.644 215.517 168.537 215.837 168.324C216.167 168.111 216.423 167.812 216.605 167.428C216.786 167.033 216.877 166.591 216.877 166.1C216.877 165.599 216.786 165.161 216.605 164.788C216.423 164.415 216.167 164.127 215.837 163.924C215.517 163.711 215.138 163.604 214.701 163.604C214.317 163.604 213.954 163.695 213.613 163.876C213.271 164.057 212.994 164.319 212.781 164.66C212.578 164.991 212.477 165.396 212.477 165.876V166.468C212.477 166.927 212.583 167.321 212.797 167.652C213.021 167.972 213.303 168.217 213.645 168.388C213.986 168.559 214.338 168.644 214.701 168.644ZM221.647 170.5V161.732H224.207V170.5H221.647ZM220.479 163.62V161.732H224.207V163.62H220.479ZM222.639 160.868C222.159 160.868 221.801 160.745 221.567 160.5C221.343 160.244 221.231 159.924 221.231 159.54C221.231 159.145 221.343 158.825 221.567 158.58C221.801 158.324 222.159 158.196 222.639 158.196C223.119 158.196 223.471 158.324 223.695 158.58C223.929 158.825 224.047 159.145 224.047 159.54C224.047 159.924 223.929 160.244 223.695 160.5C223.471 160.745 223.119 160.868 222.639 160.868ZM226.686 170.5V158.82H229.262V170.5H226.686ZM225.646 160.708V158.82H229.262V160.708H225.646ZM232.037 170.5V161.732H234.597V170.5H232.037ZM230.869 163.62V161.732H234.597V163.62H230.869ZM233.029 160.868C232.549 160.868 232.192 160.745 231.957 160.5C231.733 160.244 231.621 159.924 231.621 159.54C231.621 159.145 231.733 158.825 231.957 158.58C232.192 158.324 232.549 158.196 233.029 158.196C233.509 158.196 233.861 158.324 234.085 158.58C234.32 158.825 234.437 159.145 234.437 159.54C234.437 159.924 234.32 160.244 234.085 160.5C233.861 160.745 233.509 160.868 233.029 160.868ZM240.949 170.612C240.064 170.612 239.349 170.505 238.805 170.292C238.261 170.068 237.861 169.7 237.605 169.188C237.36 168.665 237.237 167.961 237.237 167.076V159.364H239.621V167.172C239.621 167.588 239.728 167.908 239.941 168.132C240.165 168.345 240.48 168.452 240.885 168.452H242.181V170.612H240.949ZM235.909 163.604V161.732H242.181V163.604H235.909ZM243.806 173.972V171.796H245.63C245.908 171.796 246.142 171.759 246.334 171.684C246.526 171.62 246.681 171.508 246.798 171.348C246.916 171.188 247.012 170.969 247.086 170.692L249.246 161.732H251.678L249.23 171.204C249.06 171.887 248.82 172.431 248.51 172.836C248.212 173.241 247.806 173.529 247.294 173.7C246.793 173.881 246.153 173.972 245.374 173.972H243.806ZM246.558 170.308V168.308H248.414V170.308H246.558ZM245.502 170.308L242.814 161.732H245.39L247.934 170.308H245.502Z" fill="white"/>
<rect x="40" y="216" width="40" height="40" rx="20" transform="rotate(90 40 216)" fill="white"/>
<path d="M62.672 241.304C61.616 241.304 60.7093 241.123 59.952 240.76C59.1947 240.387 58.576 239.901 58.096 239.304C57.616 238.696 57.2587 238.045 57.024 237.352C56.8 236.648 56.688 235.965 56.688 235.304V234.952C56.688 234.227 56.8053 233.512 57.04 232.808C57.2747 232.093 57.632 231.448 58.112 230.872C58.6027 230.296 59.216 229.837 59.952 229.496C60.6987 229.144 61.5787 228.968 62.592 228.968C63.648 228.968 64.5813 229.165 65.392 229.56C66.2027 229.955 66.848 230.504 67.328 231.208C67.8187 231.901 68.1067 232.717 68.192 233.656H65.552C65.4773 233.187 65.3067 232.787 65.04 232.456C64.7733 232.125 64.4267 231.869 64 231.688C63.584 231.507 63.1147 231.416 62.592 231.416C62.0693 231.416 61.6053 231.507 61.2 231.688C60.7947 231.869 60.4533 232.125 60.176 232.456C59.9093 232.787 59.7013 233.181 59.552 233.64C59.4133 234.088 59.344 234.589 59.344 235.144C59.344 235.688 59.4133 236.189 59.552 236.648C59.7013 237.096 59.9147 237.491 60.192 237.832C60.48 238.163 60.832 238.419 61.248 238.6C61.664 238.771 62.1387 238.856 62.672 238.856C63.4827 238.856 64.1653 238.659 64.72 238.264C65.2853 237.869 65.6267 237.325 65.744 236.632H68.368C68.272 237.485 67.984 238.269 67.504 238.984C67.0347 239.688 66.3893 240.253 65.568 240.68C64.7573 241.096 63.792 241.304 62.672 241.304ZM70.0769 241V229.32H72.6529V241H70.0769ZM69.0369 231.208V229.32H72.6529V231.208H69.0369ZM75.4278 241V232.232H77.9878V241H75.4278ZM74.2598 234.12V232.232H77.9878V234.12H74.2598ZM76.4198 231.368C75.9398 231.368 75.5824 231.245 75.3478 231C75.1238 230.744 75.0118 230.424 75.0118 230.04C75.0118 229.645 75.1238 229.325 75.3478 229.08C75.5824 228.824 75.9398 228.696 76.4198 228.696C76.8998 228.696 77.2518 228.824 77.4758 229.08C77.7104 229.325 77.8278 229.645 77.8278 230.04C77.8278 230.424 77.7104 230.744 77.4758 231C77.2518 231.245 76.8998 231.368 76.4198 231.368ZM84.3715 241.304C83.6248 241.304 82.9635 241.176 82.3875 240.92C81.8222 240.664 81.3475 240.323 80.9635 239.896C80.5902 239.459 80.3022 238.973 80.0995 238.44C79.9075 237.896 79.8115 237.341 79.8115 236.776V236.456C79.8115 235.869 79.9075 235.309 80.0995 234.776C80.3022 234.232 80.5902 233.747 80.9635 233.32C81.3368 232.893 81.8008 232.557 82.3555 232.312C82.9208 232.056 83.5608 231.928 84.2755 231.928C85.2142 231.928 86.0035 232.141 86.6435 232.568C87.2942 232.984 87.7902 233.533 88.1315 234.216C88.4728 234.888 88.6435 235.624 88.6435 236.424V237.288H80.8835V235.832H87.0915L86.2595 236.504C86.2595 235.981 86.1848 235.533 86.0355 235.16C85.8862 234.787 85.6622 234.504 85.3635 234.312C85.0755 234.109 84.7128 234.008 84.2755 234.008C83.8275 234.008 83.4488 234.109 83.1395 234.312C82.8302 234.515 82.5955 234.813 82.4355 235.208C82.2755 235.592 82.1955 236.067 82.1955 236.632C82.1955 237.155 82.2702 237.613 82.4195 238.008C82.5688 238.392 82.8035 238.691 83.1235 238.904C83.4435 239.117 83.8595 239.224 84.3715 239.224C84.8408 239.224 85.2248 239.133 85.5235 238.952C85.8222 238.771 86.0248 238.547 86.1315 238.28H88.4835C88.3555 238.867 88.1048 239.389 87.7315 239.848C87.3582 240.307 86.8888 240.664 86.3235 240.92C85.7582 241.176 85.1075 241.304 84.3715 241.304ZM90.3399 241V232.232H92.3719V235.992H92.2279C92.2279 235.096 92.3399 234.349 92.5639 233.752C92.7985 233.155 93.1505 232.707 93.6199 232.408C94.0892 232.109 94.6599 231.96 95.3319 231.96H95.4439C96.4679 231.96 97.2465 232.296 97.7799 232.968C98.3239 233.629 98.5959 234.637 98.5959 235.992V241H96.0359V235.848C96.0359 235.379 95.8972 234.995 95.6199 234.696C95.3425 234.397 94.9692 234.248 94.4999 234.248C94.0199 234.248 93.6305 234.403 93.3319 234.712C93.0439 235.011 92.8999 235.405 92.8999 235.896V241H90.3399ZM104.761 241.112C103.876 241.112 103.161 241.005 102.617 240.792C102.073 240.568 101.673 240.2 101.417 239.688C101.172 239.165 101.049 238.461 101.049 237.576V229.864H103.433V237.672C103.433 238.088 103.54 238.408 103.753 238.632C103.977 238.845 104.292 238.952 104.697 238.952H105.993V241.112H104.761ZM99.7214 234.104V232.232H105.993V234.104H99.7214ZM115.01 241.304C114.253 241.304 113.592 241.181 113.026 240.936C112.472 240.68 112.008 240.339 111.634 239.912C111.261 239.485 110.984 239.005 110.802 238.472C110.621 237.928 110.53 237.368 110.53 236.792V236.488C110.53 235.891 110.626 235.32 110.818 234.776C111.01 234.221 111.293 233.731 111.666 233.304C112.04 232.877 112.504 232.541 113.058 232.296C113.624 232.051 114.269 231.928 114.994 231.928C115.784 231.928 116.482 232.083 117.09 232.392C117.698 232.691 118.184 233.112 118.546 233.656C118.909 234.2 119.112 234.824 119.154 235.528H116.642C116.6 235.133 116.44 234.803 116.162 234.536C115.896 234.259 115.506 234.12 114.994 234.12C114.568 234.12 114.21 234.227 113.922 234.44C113.645 234.653 113.437 234.947 113.298 235.32C113.16 235.693 113.09 236.136 113.09 236.648C113.09 237.117 113.154 237.544 113.282 237.928C113.41 238.301 113.613 238.595 113.89 238.808C114.178 239.011 114.552 239.112 115.01 239.112C115.352 239.112 115.64 239.053 115.874 238.936C116.12 238.808 116.312 238.637 116.45 238.424C116.6 238.2 116.69 237.944 116.722 237.656H119.218C119.186 238.381 118.984 239.021 118.61 239.576C118.237 240.12 117.741 240.547 117.122 240.856C116.504 241.155 115.8 241.304 115.01 241.304ZM125.128 241.304C124.36 241.304 123.677 241.187 123.08 240.952C122.482 240.707 121.976 240.376 121.56 239.96C121.154 239.544 120.845 239.069 120.632 238.536C120.418 237.992 120.312 237.421 120.312 236.824V236.456C120.312 235.848 120.418 235.272 120.632 234.728C120.856 234.173 121.176 233.688 121.592 233.272C122.018 232.856 122.53 232.531 123.128 232.296C123.725 232.051 124.392 231.928 125.128 231.928C125.885 231.928 126.557 232.051 127.144 232.296C127.741 232.531 128.248 232.856 128.664 233.272C129.08 233.688 129.4 234.173 129.624 234.728C129.848 235.272 129.96 235.848 129.96 236.456V236.824C129.96 237.421 129.853 237.992 129.64 238.536C129.426 239.069 129.112 239.544 128.696 239.96C128.29 240.376 127.789 240.707 127.192 240.952C126.594 241.187 125.906 241.304 125.128 241.304ZM125.128 239.144C125.629 239.144 126.045 239.037 126.376 238.824C126.706 238.611 126.957 238.312 127.128 237.928C127.309 237.544 127.4 237.117 127.4 236.648C127.4 236.147 127.309 235.709 127.128 235.336C126.946 234.952 126.685 234.648 126.344 234.424C126.013 234.2 125.608 234.088 125.128 234.088C124.658 234.088 124.253 234.2 123.911 234.424C123.57 234.648 123.309 234.952 123.128 235.336C122.957 235.709 122.872 236.147 122.872 236.648C122.872 237.117 122.957 237.544 123.128 237.928C123.298 238.312 123.554 238.611 123.896 238.824C124.237 239.037 124.648 239.144 125.128 239.144ZM131.746 241V232.232H133.778V236.008H133.634C133.634 235.112 133.746 234.365 133.97 233.768C134.194 233.171 134.53 232.723 134.978 232.424C135.426 232.115 135.975 231.96 136.626 231.96H136.738C137.399 231.96 137.949 232.115 138.386 232.424C138.834 232.723 139.17 233.171 139.394 233.768C139.629 234.365 139.746 235.112 139.746 236.008H139.122C139.122 235.112 139.234 234.365 139.458 233.768C139.693 233.171 140.034 232.723 140.482 232.424C140.93 232.115 141.479 231.96 142.13 231.96H142.242C142.903 231.96 143.458 232.115 143.906 232.424C144.365 232.723 144.711 233.171 144.946 233.768C145.181 234.365 145.298 235.112 145.298 236.008V241H142.738V235.864C142.738 235.384 142.61 234.995 142.354 234.696C142.109 234.397 141.757 234.248 141.298 234.248C140.839 234.248 140.477 234.403 140.21 234.712C139.943 235.011 139.81 235.411 139.81 235.912V241H137.234V235.864C137.234 235.384 137.106 234.995 136.85 234.696C136.605 234.397 136.258 234.248 135.81 234.248C135.341 234.248 134.973 234.403 134.706 234.712C134.439 235.011 134.306 235.411 134.306 235.912V241H131.746ZM147.481 244.2V232.232H149.513V236.024L149.241 236.008C149.283 235.133 149.465 234.397 149.785 233.8C150.105 233.192 150.537 232.739 151.081 232.44C151.625 232.131 152.238 231.976 152.921 231.976C153.529 231.976 154.078 232.088 154.569 232.312C155.07 232.536 155.497 232.851 155.849 233.256C156.211 233.651 156.483 234.12 156.665 234.664C156.857 235.197 156.953 235.784 156.953 236.424V236.792C156.953 237.421 156.862 238.013 156.681 238.568C156.499 239.112 156.233 239.587 155.881 239.992C155.539 240.397 155.118 240.717 154.617 240.952C154.126 241.176 153.561 241.288 152.921 241.288C152.259 241.288 151.662 241.155 151.129 240.888C150.606 240.611 150.185 240.195 149.865 239.64C149.545 239.075 149.369 238.36 149.337 237.496L150.041 238.456V244.2H147.481ZM152.201 239.144C152.638 239.144 153.017 239.037 153.337 238.824C153.667 238.611 153.923 238.312 154.105 237.928C154.286 237.544 154.377 237.101 154.377 236.6C154.377 236.099 154.286 235.661 154.105 235.288C153.923 234.915 153.673 234.627 153.353 234.424C153.033 234.211 152.649 234.104 152.201 234.104C151.817 234.104 151.454 234.195 151.113 234.376C150.771 234.557 150.494 234.819 150.281 235.16C150.078 235.491 149.977 235.896 149.977 236.376V236.968C149.977 237.427 150.083 237.821 150.297 238.152C150.521 238.472 150.803 238.717 151.145 238.888C151.486 239.059 151.838 239.144 152.201 239.144ZM158.843 241V229.32H161.419V241H158.843ZM157.803 231.208V229.32H161.419V231.208H157.803ZM167.793 241.304C167.047 241.304 166.385 241.176 165.809 240.92C165.244 240.664 164.769 240.323 164.385 239.896C164.012 239.459 163.724 238.973 163.521 238.44C163.329 237.896 163.233 237.341 163.233 236.776V236.456C163.233 235.869 163.329 235.309 163.521 234.776C163.724 234.232 164.012 233.747 164.385 233.32C164.759 232.893 165.223 232.557 165.777 232.312C166.343 232.056 166.983 231.928 167.697 231.928C168.636 231.928 169.425 232.141 170.065 232.568C170.716 232.984 171.212 233.533 171.553 234.216C171.895 234.888 172.065 235.624 172.065 236.424V237.288H164.305V235.832H170.513L169.681 236.504C169.681 235.981 169.607 235.533 169.457 235.16C169.308 234.787 169.084 234.504 168.785 234.312C168.497 234.109 168.135 234.008 167.697 234.008C167.249 234.008 166.871 234.109 166.561 234.312C166.252 234.515 166.017 234.813 165.857 235.208C165.697 235.592 165.617 236.067 165.617 236.632C165.617 237.155 165.692 237.613 165.841 238.008C165.991 238.392 166.225 238.691 166.545 238.904C166.865 239.117 167.281 239.224 167.793 239.224C168.263 239.224 168.647 239.133 168.945 238.952C169.244 238.771 169.447 238.547 169.553 238.28H171.905C171.777 238.867 171.527 239.389 171.153 239.848C170.78 240.307 170.311 240.664 169.745 240.92C169.18 241.176 168.529 241.304 167.793 241.304ZM177.746 241.112C176.86 241.112 176.146 241.005 175.602 240.792C175.058 240.568 174.658 240.2 174.402 239.688C174.156 239.165 174.034 238.461 174.034 237.576V229.864H176.418V237.672C176.418 238.088 176.524 238.408 176.738 238.632C176.962 238.845 177.276 238.952 177.682 238.952H178.978V241.112H177.746ZM172.706 234.104V232.232H178.978V234.104H172.706ZM184.684 241.304C183.937 241.304 183.276 241.176 182.7 240.92C182.135 240.664 181.66 240.323 181.276 239.896C180.903 239.459 180.615 238.973 180.412 238.44C180.22 237.896 180.124 237.341 180.124 236.776V236.456C180.124 235.869 180.22 235.309 180.412 234.776C180.615 234.232 180.903 233.747 181.276 233.32C181.649 232.893 182.113 232.557 182.668 232.312C183.233 232.056 183.873 231.928 184.588 231.928C185.527 231.928 186.316 232.141 186.956 232.568C187.607 232.984 188.103 233.533 188.444 234.216C188.785 234.888 188.956 235.624 188.956 236.424V237.288H181.196V235.832H187.404L186.572 236.504C186.572 235.981 186.497 235.533 186.348 235.16C186.199 234.787 185.975 234.504 185.676 234.312C185.388 234.109 185.025 234.008 184.588 234.008C184.14 234.008 183.761 234.109 183.452 234.312C183.143 234.515 182.908 234.813 182.748 235.208C182.588 235.592 182.508 236.067 182.508 236.632C182.508 237.155 182.583 237.613 182.732 238.008C182.881 238.392 183.116 238.691 183.436 238.904C183.756 239.117 184.172 239.224 184.684 239.224C185.153 239.224 185.537 239.133 185.836 238.952C186.135 238.771 186.337 238.547 186.444 238.28H188.796C188.668 238.867 188.417 239.389 188.044 239.848C187.671 240.307 187.201 240.664 186.636 240.92C186.071 241.176 185.42 241.304 184.684 241.304ZM193.98 241.272C192.732 241.272 191.756 241.016 191.052 240.504C190.348 239.992 189.975 239.272 189.932 238.344H192.204C192.247 238.621 192.412 238.872 192.7 239.096C192.999 239.309 193.442 239.416 194.028 239.416C194.476 239.416 194.844 239.341 195.132 239.192C195.431 239.032 195.58 238.808 195.58 238.52C195.58 238.264 195.468 238.061 195.244 237.912C195.02 237.752 194.62 237.64 194.044 237.576L193.356 237.512C192.3 237.405 191.506 237.112 190.972 236.632C190.45 236.152 190.188 235.539 190.188 234.792C190.188 234.173 190.343 233.656 190.652 233.24C190.962 232.824 191.388 232.509 191.932 232.296C192.487 232.083 193.116 231.976 193.82 231.976C194.951 231.976 195.863 232.227 196.556 232.728C197.25 233.219 197.612 233.933 197.644 234.872H195.372C195.33 234.584 195.18 234.344 194.924 234.152C194.668 233.949 194.29 233.848 193.788 233.848C193.394 233.848 193.079 233.923 192.844 234.072C192.61 234.221 192.492 234.424 192.492 234.68C192.492 234.925 192.594 235.112 192.796 235.24C192.999 235.368 193.33 235.459 193.788 235.512L194.476 235.576C195.554 235.693 196.391 235.992 196.988 236.472C197.586 236.952 197.884 237.597 197.884 238.408C197.884 238.995 197.724 239.507 197.404 239.944C197.084 240.371 196.631 240.701 196.044 240.936C195.458 241.16 194.77 241.272 193.98 241.272ZM208.198 241V238.408H207.766V235.592C207.766 235.144 207.66 234.808 207.446 234.584C207.233 234.36 206.892 234.248 206.422 234.248C206.188 234.248 205.878 234.253 205.494 234.264C205.11 234.275 204.716 234.291 204.31 234.312C203.905 234.333 203.537 234.355 203.206 234.376V232.216C203.452 232.195 203.74 232.173 204.07 232.152C204.401 232.131 204.742 232.115 205.094 232.104C205.446 232.093 205.777 232.088 206.086 232.088C206.982 232.088 207.734 232.216 208.342 232.472C208.961 232.728 209.43 233.117 209.75 233.64C210.07 234.152 210.23 234.813 210.23 235.624V241H208.198ZM205.398 241.224C204.769 241.224 204.214 241.112 203.734 240.888C203.265 240.664 202.897 240.344 202.63 239.928C202.364 239.501 202.23 238.995 202.23 238.408C202.23 237.768 202.396 237.245 202.726 236.84C203.057 236.424 203.521 236.12 204.118 235.928C204.716 235.725 205.404 235.624 206.182 235.624H208.054V237.048H206.166C205.718 237.048 205.372 237.16 205.126 237.384C204.892 237.597 204.774 237.891 204.774 238.264C204.774 238.616 204.892 238.904 205.126 239.128C205.372 239.341 205.718 239.448 206.166 239.448C206.454 239.448 206.71 239.4 206.934 239.304C207.169 239.197 207.361 239.021 207.51 238.776C207.66 238.531 207.745 238.189 207.766 237.752L208.374 238.392C208.321 239 208.172 239.512 207.926 239.928C207.692 240.344 207.361 240.664 206.934 240.888C206.518 241.112 206.006 241.224 205.398 241.224ZM212.402 244.2V232.232H214.434V236.024L214.162 236.008C214.205 235.133 214.386 234.397 214.706 233.8C215.026 233.192 215.458 232.739 216.002 232.44C216.546 232.131 217.16 231.976 217.842 231.976C218.45 231.976 219 232.088 219.49 232.312C219.992 232.536 220.418 232.851 220.77 233.256C221.133 233.651 221.405 234.12 221.586 234.664C221.778 235.197 221.874 235.784 221.874 236.424V236.792C221.874 237.421 221.784 238.013 221.602 238.568C221.421 239.112 221.154 239.587 220.802 239.992C220.461 240.397 220.04 240.717 219.538 240.952C219.048 241.176 218.482 241.288 217.842 241.288C217.181 241.288 216.584 241.155 216.05 240.888C215.528 240.611 215.106 240.195 214.786 239.64C214.466 239.075 214.29 238.36 214.258 237.496L214.962 238.456V244.2H212.402ZM217.122 239.144C217.56 239.144 217.938 239.037 218.258 238.824C218.589 238.611 218.845 238.312 219.026 237.928C219.208 237.544 219.298 237.101 219.298 236.6C219.298 236.099 219.208 235.661 219.026 235.288C218.845 234.915 218.594 234.627 218.274 234.424C217.954 234.211 217.57 234.104 217.122 234.104C216.738 234.104 216.376 234.195 216.034 234.376C215.693 234.557 215.416 234.819 215.202 235.16C215 235.491 214.898 235.896 214.898 236.376V236.968C214.898 237.427 215.005 237.821 215.218 238.152C215.442 238.472 215.725 238.717 216.066 238.888C216.408 239.059 216.76 239.144 217.122 239.144ZM223.652 244.2V232.232H225.684V236.024L225.412 236.008C225.455 235.133 225.636 234.397 225.956 233.8C226.276 233.192 226.708 232.739 227.252 232.44C227.796 232.131 228.41 231.976 229.092 231.976C229.7 231.976 230.25 232.088 230.74 232.312C231.242 232.536 231.668 232.851 232.02 233.256C232.383 233.651 232.655 234.12 232.836 234.664C233.028 235.197 233.124 235.784 233.124 236.424V236.792C233.124 237.421 233.034 238.013 232.852 238.568C232.671 239.112 232.404 239.587 232.052 239.992C231.711 240.397 231.29 240.717 230.788 240.952C230.298 241.176 229.732 241.288 229.092 241.288C228.431 241.288 227.834 241.155 227.3 240.888C226.778 240.611 226.356 240.195 226.036 239.64C225.716 239.075 225.54 238.36 225.508 237.496L226.212 238.456V244.2H223.652ZM228.372 239.144C228.81 239.144 229.188 239.037 229.508 238.824C229.839 238.611 230.095 238.312 230.276 237.928C230.458 237.544 230.548 237.101 230.548 236.6C230.548 236.099 230.458 235.661 230.276 235.288C230.095 234.915 229.844 234.627 229.524 234.424C229.204 234.211 228.82 234.104 228.372 234.104C227.988 234.104 227.626 234.195 227.284 234.376C226.943 234.557 226.666 234.819 226.452 235.16C226.25 235.491 226.148 235.896 226.148 236.376V236.968C226.148 237.427 226.255 237.821 226.468 238.152C226.692 238.472 226.975 238.717 227.316 238.888C227.658 239.059 228.01 239.144 228.372 239.144ZM235.014 241V229.32H237.59V241H235.014ZM233.974 231.208V229.32H237.59V231.208H233.974ZM240.365 241V232.232H242.925V241H240.365ZM239.197 234.12V232.232H242.925V234.12H239.197ZM241.357 231.368C240.877 231.368 240.52 231.245 240.285 231C240.061 230.744 239.949 230.424 239.949 230.04C239.949 229.645 240.061 229.325 240.285 229.08C240.52 228.824 240.877 228.696 241.357 228.696C241.837 228.696 242.189 228.824 242.413 229.08C242.648 229.325 242.765 229.645 242.765 230.04C242.765 230.424 242.648 230.744 242.413 231C242.189 231.245 241.837 231.368 241.357 231.368ZM249.229 241.304C248.472 241.304 247.81 241.181 247.245 240.936C246.69 240.68 246.226 240.339 245.853 239.912C245.48 239.485 245.202 239.005 245.021 238.472C244.84 237.928 244.749 237.368 244.749 236.792V236.488C244.749 235.891 244.845 235.32 245.037 234.776C245.229 234.221 245.512 233.731 245.885 233.304C246.258 232.877 246.722 232.541 247.277 232.296C247.842 232.051 248.488 231.928 249.213 231.928C250.002 231.928 250.701 232.083 251.309 232.392C251.917 232.691 252.402 233.112 252.765 233.656C253.128 234.2 253.33 234.824 253.373 235.528H250.861C250.818 235.133 250.658 234.803 250.381 234.536C250.114 234.259 249.725 234.12 249.213 234.12C248.786 234.12 248.429 234.227 248.141 234.44C247.864 234.653 247.656 234.947 247.517 235.32C247.378 235.693 247.309 236.136 247.309 236.648C247.309 237.117 247.373 237.544 247.501 237.928C247.629 238.301 247.832 238.595 248.109 238.808C248.397 239.011 248.77 239.112 249.229 239.112C249.57 239.112 249.858 239.053 250.093 238.936C250.338 238.808 250.53 238.637 250.669 238.424C250.818 238.2 250.909 237.944 250.941 237.656H253.437C253.405 238.381 253.202 239.021 252.829 239.576C252.456 240.12 251.96 240.547 251.341 240.856C250.722 241.155 250.018 241.304 249.229 241.304ZM260.37 241V238.408H259.938V235.592C259.938 235.144 259.832 234.808 259.618 234.584C259.405 234.36 259.064 234.248 258.594 234.248C258.36 234.248 258.05 234.253 257.666 234.264C257.282 234.275 256.888 234.291 256.482 234.312C256.077 234.333 255.709 234.355 255.378 234.376V232.216C255.624 232.195 255.912 232.173 256.242 232.152C256.573 232.131 256.914 232.115 257.266 232.104C257.618 232.093 257.949 232.088 258.258 232.088C259.154 232.088 259.906 232.216 260.514 232.472C261.133 232.728 261.602 233.117 261.922 233.64C262.242 234.152 262.402 234.813 262.402 235.624V241H260.37ZM257.57 241.224C256.941 241.224 256.386 241.112 255.906 240.888C255.437 240.664 255.069 240.344 254.802 239.928C254.536 239.501 254.402 238.995 254.402 238.408C254.402 237.768 254.568 237.245 254.898 236.84C255.229 236.424 255.693 236.12 256.29 235.928C256.888 235.725 257.576 235.624 258.354 235.624H260.226V237.048H258.338C257.89 237.048 257.544 237.16 257.298 237.384C257.064 237.597 256.946 237.891 256.946 238.264C256.946 238.616 257.064 238.904 257.298 239.128C257.544 239.341 257.89 239.448 258.338 239.448C258.626 239.448 258.882 239.4 259.106 239.304C259.341 239.197 259.533 239.021 259.682 238.776C259.832 238.531 259.917 238.189 259.938 237.752L260.546 238.392C260.493 239 260.344 239.512 260.098 239.928C259.864 240.344 259.533 240.664 259.106 240.888C258.69 241.112 258.178 241.224 257.57 241.224ZM268.558 241.112C267.673 241.112 266.958 241.005 266.414 240.792C265.87 240.568 265.47 240.2 265.214 239.688C264.969 239.165 264.846 238.461 264.846 237.576V229.864H267.23V237.672C267.23 238.088 267.337 238.408 267.55 238.632C267.774 238.845 268.089 238.952 268.494 238.952H269.79V241.112H268.558ZM263.518 234.104V232.232H269.79V234.104H263.518ZM271.928 241V232.232H274.488V241H271.928ZM270.76 234.12V232.232H274.488V234.12H270.76ZM272.92 231.368C272.44 231.368 272.082 231.245 271.848 231C271.624 230.744 271.512 230.424 271.512 230.04C271.512 229.645 271.624 229.325 271.848 229.08C272.082 228.824 272.44 228.696 272.92 228.696C273.4 228.696 273.752 228.824 273.976 229.08C274.21 229.325 274.328 229.645 274.328 230.04C274.328 230.424 274.21 230.744 273.976 231C273.752 231.245 273.4 231.368 272.92 231.368ZM281.128 241.304C280.36 241.304 279.677 241.187 279.08 240.952C278.482 240.707 277.976 240.376 277.56 239.96C277.154 239.544 276.845 239.069 276.632 238.536C276.418 237.992 276.312 237.421 276.312 236.824V236.456C276.312 235.848 276.418 235.272 276.632 234.728C276.856 234.173 277.176 233.688 277.592 233.272C278.018 232.856 278.53 232.531 279.128 232.296C279.725 232.051 280.392 231.928 281.128 231.928C281.885 231.928 282.557 232.051 283.144 232.296C283.741 232.531 284.248 232.856 284.664 233.272C285.08 233.688 285.4 234.173 285.624 234.728C285.848 235.272 285.96 235.848 285.96 236.456V236.824C285.96 237.421 285.853 237.992 285.64 238.536C285.426 239.069 285.112 239.544 284.696 239.96C284.29 240.376 283.789 240.707 283.192 240.952C282.594 241.187 281.906 241.304 281.128 241.304ZM281.128 239.144C281.629 239.144 282.045 239.037 282.376 238.824C282.706 238.611 282.957 238.312 283.128 237.928C283.309 237.544 283.4 237.117 283.4 236.648C283.4 236.147 283.309 235.709 283.128 235.336C282.946 234.952 282.685 234.648 282.344 234.424C282.013 234.2 281.608 234.088 281.128 234.088C280.658 234.088 280.253 234.2 279.911 234.424C279.57 234.648 279.309 234.952 279.128 235.336C278.957 235.709 278.872 236.147 278.872 236.648C278.872 237.117 278.957 237.544 279.128 237.928C279.298 238.312 279.554 238.611 279.896 238.824C280.237 239.037 280.648 239.144 281.128 239.144ZM287.746 241V232.232H289.778V235.992H289.634C289.634 235.096 289.746 234.349 289.97 233.752C290.205 233.155 290.557 232.707 291.026 232.408C291.495 232.109 292.066 231.96 292.738 231.96H292.85C293.874 231.96 294.653 232.296 295.186 232.968C295.73 233.629 296.002 234.637 296.002 235.992V241H293.442V235.848C293.442 235.379 293.303 234.995 293.026 234.696C292.749 234.397 292.375 234.248 291.906 234.248C291.426 234.248 291.037 234.403 290.738 234.712C290.45 235.011 290.306 235.405 290.306 235.896V241H287.746Z" fill="white"/>
<rect x="40" y="288" width="40" height="40" rx="20" transform="rotate(90 40 288)" fill="white"/>
<path d="M57.312 313V301.224H59.936V313H57.312ZM64.4 313L60.976 307.976H63.856L67.44 313H64.4ZM59.232 309.256V307.192H62.112C62.496 307.192 62.8267 307.117 63.104 306.968C63.392 306.808 63.6107 306.589 63.76 306.312C63.92 306.024 64 305.693 64 305.32C64 304.947 63.92 304.621 63.76 304.344C63.6107 304.056 63.392 303.837 63.104 303.688C62.8267 303.528 62.496 303.448 62.112 303.448H59.232V301.224H61.904C62.8747 301.224 63.7173 301.373 64.432 301.672C65.1467 301.96 65.696 302.392 66.08 302.968C66.464 303.544 66.656 304.269 66.656 305.144V305.4C66.656 306.264 66.4587 306.984 66.064 307.56C65.68 308.125 65.1307 308.552 64.416 308.84C63.712 309.117 62.8747 309.256 61.904 309.256H59.232ZM72.7153 313.304C71.9686 313.304 71.3073 313.176 70.7313 312.92C70.1659 312.664 69.6913 312.323 69.3073 311.896C68.9339 311.459 68.6459 310.973 68.4433 310.44C68.2513 309.896 68.1553 309.341 68.1553 308.776V308.456C68.1553 307.869 68.2513 307.309 68.4433 306.776C68.6459 306.232 68.9339 305.747 69.3073 305.32C69.6806 304.893 70.1446 304.557 70.6993 304.312C71.2646 304.056 71.9046 303.928 72.6193 303.928C73.5579 303.928 74.3473 304.141 74.9873 304.568C75.6379 304.984 76.1339 305.533 76.4753 306.216C76.8166 306.888 76.9873 307.624 76.9873 308.424V309.288H69.2273V307.832H75.4353L74.6033 308.504C74.6033 307.981 74.5286 307.533 74.3793 307.16C74.2299 306.787 74.0059 306.504 73.7073 306.312C73.4193 306.109 73.0566 306.008 72.6193 306.008C72.1713 306.008 71.7926 306.109 71.4833 306.312C71.1739 306.515 70.9393 306.813 70.7793 307.208C70.6193 307.592 70.5393 308.067 70.5393 308.632C70.5393 309.155 70.6139 309.613 70.7633 310.008C70.9126 310.392 71.1473 310.691 71.4673 310.904C71.7873 311.117 72.2033 311.224 72.7153 311.224C73.1846 311.224 73.5686 311.133 73.8673 310.952C74.1659 310.771 74.3686 310.547 74.4753 310.28H76.8273C76.6993 310.867 76.4486 311.389 76.0753 311.848C75.7019 312.307 75.2326 312.664 74.6673 312.92C74.1019 313.176 73.4513 313.304 72.7153 313.304ZM80.3015 313L77.6775 304.232H80.3175L82.7815 313H80.3015ZM81.1015 313V310.872H83.6775V313H81.1015ZM82.0455 313L84.1735 304.232H86.6375L84.3655 313H82.0455ZM88.5684 313V304.232H91.1284V313H88.5684ZM87.4004 306.12V304.232H91.1284V306.12H87.4004ZM89.5604 303.368C89.0804 303.368 88.723 303.245 88.4884 303C88.2644 302.744 88.1524 302.424 88.1524 302.04C88.1524 301.645 88.2644 301.325 88.4884 301.08C88.723 300.824 89.0804 300.696 89.5604 300.696C90.0404 300.696 90.3924 300.824 90.6164 301.08C90.851 301.325 90.9684 301.645 90.9684 302.04C90.9684 302.424 90.851 302.744 90.6164 303C90.3924 303.245 90.0404 303.368 89.5604 303.368ZM97.5121 313.304C96.7655 313.304 96.1041 313.176 95.5281 312.92C94.9628 312.664 94.4881 312.323 94.1041 311.896C93.7308 311.459 93.4428 310.973 93.2401 310.44C93.0481 309.896 92.9521 309.341 92.9521 308.776V308.456C92.9521 307.869 93.0481 307.309 93.2401 306.776C93.4428 306.232 93.7308 305.747 94.1041 305.32C94.4775 304.893 94.9415 304.557 95.4961 304.312C96.0615 304.056 96.7015 303.928 97.4161 303.928C98.3548 303.928 99.1441 304.141 99.7841 304.568C100.435 304.984 100.931 305.533 101.272 306.216C101.613 306.888 101.784 307.624 101.784 308.424V309.288H94.0241V307.832H100.232L99.4001 308.504C99.4001 307.981 99.3255 307.533 99.1761 307.16C99.0268 306.787 98.8028 306.504 98.5041 306.312C98.2161 306.109 97.8535 306.008 97.4161 306.008C96.9681 306.008 96.5895 306.109 96.2801 306.312C95.9708 306.515 95.7361 306.813 95.5761 307.208C95.4161 307.592 95.3361 308.067 95.3361 308.632C95.3361 309.155 95.4108 309.613 95.5601 310.008C95.7095 310.392 95.9441 310.691 96.2641 310.904C96.5841 311.117 97.0001 311.224 97.5121 311.224C97.9815 311.224 98.3655 311.133 98.6641 310.952C98.9628 310.771 99.1655 310.547 99.2721 310.28H101.624C101.496 310.867 101.245 311.389 100.872 311.848C100.499 312.307 100.029 312.664 99.4641 312.92C98.8988 313.176 98.2481 313.304 97.5121 313.304ZM106.618 313L108.218 304.52H111.018L112.874 313H110.89L108.986 304.584H110.122L108.41 313H106.618ZM106.01 313L105.994 310.872H107.754L107.77 313H106.01ZM104.858 313L102.506 304.232H105.018L107.21 313H104.858ZM111.546 313L111.562 310.872H113.322V313H111.546ZM112.266 313L114.218 304.232H116.57L114.458 313H112.266ZM125.784 313.304C125.016 313.304 124.333 313.187 123.736 312.952C123.138 312.707 122.632 312.376 122.216 311.96C121.81 311.544 121.501 311.069 121.288 310.536C121.074 309.992 120.968 309.421 120.968 308.824V308.456C120.968 307.848 121.074 307.272 121.288 306.728C121.512 306.173 121.832 305.688 122.248 305.272C122.674 304.856 123.186 304.531 123.784 304.296C124.381 304.051 125.048 303.928 125.784 303.928C126.541 303.928 127.213 304.051 127.8 304.296C128.397 304.531 128.904 304.856 129.32 305.272C129.736 305.688 130.056 306.173 130.28 306.728C130.504 307.272 130.616 307.848 130.616 308.456V308.824C130.616 309.421 130.509 309.992 130.296 310.536C130.082 311.069 129.768 311.544 129.352 311.96C128.946 312.376 128.445 312.707 127.848 312.952C127.25 313.187 126.562 313.304 125.784 313.304ZM125.784 311.144C126.285 311.144 126.701 311.037 127.032 310.824C127.362 310.611 127.613 310.312 127.784 309.928C127.965 309.544 128.056 309.117 128.056 308.648C128.056 308.147 127.965 307.709 127.784 307.336C127.602 306.952 127.341 306.648 127 306.424C126.669 306.2 126.264 306.088 125.784 306.088C125.314 306.088 124.909 306.2 124.568 306.424C124.226 306.648 123.965 306.952 123.784 307.336C123.613 307.709 123.528 308.147 123.528 308.648C123.528 309.117 123.613 309.544 123.784 309.928C123.954 310.312 124.21 310.611 124.552 310.824C124.893 311.037 125.304 311.144 125.784 311.144ZM132.578 313V304.056C132.578 303.043 132.861 302.291 133.426 301.8C134.002 301.309 134.85 301.064 135.97 301.064H136.786V302.984H135.858C135.57 302.984 135.346 303.064 135.186 303.224C135.037 303.384 134.962 303.608 134.962 303.896V313H132.578ZM138.322 313V304.152C138.322 303.139 138.61 302.387 139.186 301.896C139.762 301.405 140.61 301.16 141.73 301.16H142.802V303.08H141.618C141.33 303.08 141.106 303.16 140.946 303.32C140.786 303.48 140.706 303.704 140.706 303.992V313H138.322ZM131.554 306.28V304.408H142.93V306.28H131.554ZM148.184 313.304C147.437 313.304 146.776 313.176 146.2 312.92C145.635 312.664 145.16 312.323 144.776 311.896C144.403 311.459 144.115 310.973 143.912 310.44C143.72 309.896 143.624 309.341 143.624 308.776V308.456C143.624 307.869 143.72 307.309 143.912 306.776C144.115 306.232 144.403 305.747 144.776 305.32C145.149 304.893 145.613 304.557 146.168 304.312C146.733 304.056 147.373 303.928 148.088 303.928C149.027 303.928 149.816 304.141 150.456 304.568C151.107 304.984 151.603 305.533 151.944 306.216C152.285 306.888 152.456 307.624 152.456 308.424V309.288H144.696V307.832H150.904L150.072 308.504C150.072 307.981 149.997 307.533 149.848 307.16C149.699 306.787 149.475 306.504 149.176 306.312C148.888 306.109 148.525 306.008 148.088 306.008C147.64 306.008 147.261 306.109 146.952 306.312C146.643 306.515 146.408 306.813 146.248 307.208C146.088 307.592 146.008 308.067 146.008 308.632C146.008 309.155 146.083 309.613 146.232 310.008C146.381 310.392 146.616 310.691 146.936 310.904C147.256 311.117 147.672 311.224 148.184 311.224C148.653 311.224 149.037 311.133 149.336 310.952C149.635 310.771 149.837 310.547 149.944 310.28H152.296C152.168 310.867 151.917 311.389 151.544 311.848C151.171 312.307 150.701 312.664 150.136 312.92C149.571 313.176 148.92 313.304 148.184 313.304ZM154.152 313V304.232H156.184V307.992H156.136C156.136 306.755 156.398 305.8 156.92 305.128C157.454 304.456 158.222 304.12 159.224 304.12H159.56V306.328H158.92C158.216 306.328 157.672 306.52 157.288 306.904C156.904 307.277 156.712 307.821 156.712 308.536V313H154.152ZM164.215 313.272C162.967 313.272 161.991 313.016 161.287 312.504C160.583 311.992 160.209 311.272 160.167 310.344H162.439C162.481 310.621 162.647 310.872 162.935 311.096C163.233 311.309 163.676 311.416 164.263 311.416C164.711 311.416 165.079 311.341 165.367 311.192C165.665 311.032 165.815 310.808 165.815 310.52C165.815 310.264 165.703 310.061 165.479 309.912C165.255 309.752 164.855 309.64 164.279 309.576L163.591 309.512C162.535 309.405 161.74 309.112 161.207 308.632C160.684 308.152 160.423 307.539 160.423 306.792C160.423 306.173 160.577 305.656 160.887 305.24C161.196 304.824 161.623 304.509 162.167 304.296C162.721 304.083 163.351 303.976 164.055 303.976C165.185 303.976 166.097 304.227 166.791 304.728C167.484 305.219 167.847 305.933 167.879 306.872H165.607C165.564 306.584 165.415 306.344 165.159 306.152C164.903 305.949 164.524 305.848 164.023 305.848C163.628 305.848 163.313 305.923 163.079 306.072C162.844 306.221 162.727 306.424 162.727 306.68C162.727 306.925 162.828 307.112 163.031 307.24C163.233 307.368 163.564 307.459 164.023 307.512L164.711 307.576C165.788 307.693 166.625 307.992 167.223 308.472C167.82 308.952 168.119 309.597 168.119 310.408C168.119 310.995 167.959 311.507 167.639 311.944C167.319 312.371 166.865 312.701 166.279 312.936C165.692 313.16 165.004 313.272 164.215 313.272Z" fill="white"/>
</svg>
