<svg width="164" height="164" viewBox="0 0 164 164" fill="none" xmlns="http://www.w3.org/2000/svg">
<path d="M142.002 81.674C142.002 114.547 115.138 141.198 82.0001 141.198C72.4001 141.216 62.9356 138.933 54.3995 134.54C45.8635 130.147 38.5044 123.772 32.939 115.95C32.1283 114.809 31.357 113.64 30.6252 112.442C24.97 103.177 21.9855 92.5298 22.0013 81.6754C22.0013 48.8009 48.8654 22.1516 82.0031 22.1516C115.141 22.1516 142.002 48.7994 142.002 81.674Z" fill="#FFB5AD"/>
<path d="M95.8495 116.582H67.2006C65.3398 116.582 63.5553 115.843 62.2395 114.527C60.9238 113.211 60.1846 111.426 60.1846 109.566V61.5365H102.865V109.566C102.865 111.426 102.126 113.211 100.811 114.527C99.4948 115.843 97.7102 116.582 95.8495 116.582Z" fill="#F7F4F2"/>
<path d="M95.8494 116.605C95.8494 116.237 94.721 116.294 92.8618 116.294C85.2128 116.294 77.6677 116.237 70.1006 116.13L67.262 116.089C66.3798 116.08 65.5084 115.894 64.6997 115.541C63.9007 115.188 63.1821 114.676 62.5879 114.036C61.9938 113.396 61.5366 112.641 61.2443 111.818L61.1391 111.513C61.1025 111.41 61.0864 111.302 61.0601 111.198L60.9856 110.883C60.9651 110.777 60.9563 110.669 60.9417 110.563L60.8993 110.243C60.8906 110.136 60.892 110.028 60.8877 109.919L60.8789 109.596C60.8789 109.484 60.8789 109.36 60.8789 109.241C60.8993 108.287 60.9203 107.33 60.9417 106.371C60.9875 104.453 61.0333 102.527 61.0791 100.594C61.2618 93.2461 60.8979 86.2535 60.7868 79.3018C60.7371 76.2235 60.7283 73.3469 60.7429 70.4586C60.7561 69.0145 60.7707 67.5674 60.7839 66.0897C60.7946 65.3501 60.8048 64.6022 60.8146 63.846C60.8146 63.4932 60.8199 63.1381 60.8306 62.7804C60.8306 62.5919 60.8423 62.4004 60.8496 62.2089L61.3481 62.225H61.4738H61.7077L62.2412 62.2338C70.8022 62.3726 79.8763 62.5042 88.6331 62.3244C91.1501 62.2718 93.5488 62.2879 95.8977 62.3376C97.067 62.3624 98.2363 62.396 99.3911 62.434L101.125 62.4939L101.541 62.51L101.648 62.5261C101.715 62.5363 101.777 62.548 101.829 62.5583L101.801 62.738L101.788 62.8155V62.8521V63.0362C101.771 63.5405 101.752 64.0463 101.734 64.5535C101.702 65.5698 101.67 66.5959 101.638 67.6317C101.581 69.7088 101.546 71.8428 101.55 74.0777C101.569 82.0395 102.057 90.3023 102.281 98.3225C102.37 101.592 102.447 104.78 102.503 107.97C102.51 108.76 102.553 109.577 102.494 110.319C102.421 111.08 102.213 111.822 101.88 112.511C101.211 113.921 100.063 115.047 98.6412 115.69C98.4807 115.768 98.3152 115.835 98.1457 115.89L97.8987 115.981C97.8183 116.01 97.7335 116.026 97.6531 116.05C97.4909 116.091 97.3345 116.139 97.1854 116.174C97.0363 116.209 96.8931 116.228 96.7586 116.257L96.5686 116.3L96.3961 116.326C96.3011 116.342 96.2069 116.362 96.114 116.387C95.9561 116.434 95.864 116.49 95.864 116.56C95.864 116.741 96.1564 116.817 96.6899 116.805C97.4492 116.74 98.1912 116.542 98.8824 116.221L99.3209 116.009C99.4671 115.93 99.6001 115.842 99.7404 115.759L99.9494 115.633L100.145 115.487C100.274 115.389 100.407 115.296 100.534 115.195C100.782 114.986 101.017 114.763 101.239 114.527C101.345 114.405 101.464 114.293 101.562 114.164L101.854 113.778C102.418 112.986 102.824 112.093 103.05 111.147C103.072 111.069 103.089 110.99 103.099 110.909L103.14 110.671C103.172 110.512 103.194 110.352 103.206 110.191C103.264 109.532 103.253 108.937 103.269 108.319L103.304 106.48C103.326 105.255 103.349 104.031 103.371 102.808C103.456 97.9133 103.51 93.0152 103.383 87.9739C103.164 79.3193 103.595 71.9656 103.338 63.7656C103.338 63.5727 103.327 63.3826 103.323 63.1926C103.323 62.9778 103.323 62.7658 103.313 62.5553C103.313 62.0642 103.313 61.5862 103.313 61.1141L102.363 61.1068L101.456 61.0922C100.989 61.082 100.528 61.0659 100.072 61.0484C99.1601 61.0118 98.2685 60.965 97.3769 60.9168C95.5907 60.8218 93.8031 60.7224 91.8532 60.7005C86.4362 60.6405 81.8802 60.984 76.2718 60.8072C73.4741 60.7195 70.7993 60.7458 68.1522 60.8072L64.1925 60.9197C62.8156 60.9592 61.769 60.9987 59.6891 61.0264C59.7017 62.1168 59.7154 63.2189 59.73 64.3327C59.7359 65.2741 59.7329 66.2285 59.7212 67.1962C59.5327 81.275 58.5519 94.2372 58.9904 108.171C59.0021 108.561 59.0133 108.955 59.024 109.352V109.499V109.575V109.661L59.0474 110.007L59.0708 110.352C59.081 110.468 59.1059 110.582 59.1234 110.697C59.2595 111.623 59.5563 112.519 60.0004 113.343C60.904 115.02 62.3605 116.332 64.1223 117.057C65.0028 117.414 65.9409 117.607 66.8907 117.627C67.0062 117.627 67.1319 117.637 67.2386 117.637H67.547L68.1624 117.627L69.3946 117.601C71.0331 117.561 72.6658 117.501 74.278 117.405C79.7476 117.079 85.0389 116.881 90.8242 116.811L92.8705 116.877C94.36 116.871 95.8494 116.886 95.8494 116.605Z" fill="#063844"/>
<path d="M106.498 56.9484C105.902 56.9484 105.307 56.8944 104.707 56.8841C104.142 56.8754 103.601 56.9441 103.034 56.9484C102.741 56.9484 102.075 56.9104 101.787 56.909C101.499 56.9075 101.037 56.9177 100.764 56.909C100.243 56.8827 100.273 56.9894 99.7522 56.9645C99.2319 56.9397 98.7028 56.8914 98.1765 56.8578C97.6503 56.8242 97.0774 56.8271 96.5307 56.8154C96.0103 56.8067 95.4944 56.7847 94.9755 56.7657C94.4142 56.7453 93.8573 56.7073 93.296 56.7175C92.6236 56.7321 91.9513 56.7599 91.2789 56.7906C90.6815 56.8155 90.0832 56.8067 89.4869 56.7643C88.4959 56.659 87.518 56.5216 86.5401 56.3828C85.9072 56.2936 85.2714 56.2264 84.6268 56.1664C84.2058 56.1284 83.779 56.0934 83.3522 56.0846C83.2543 56.0846 83.1564 56.0846 83.0599 56.0846C82.7676 56.0846 82.4752 56.0948 82.1741 56.1036C81.4082 56.0671 80.6145 56.3185 79.85 56.3886C79.7507 56.3886 79.6513 56.3886 79.5504 56.3769C79.3823 56.3667 79.2157 56.3506 79.0505 56.3375C78.8005 56.3267 78.55 56.3321 78.3007 56.3535C78.0449 56.3667 77.7876 56.3842 77.5304 56.4003C76.9223 56.4252 76.3099 56.4456 75.7077 56.4982C75.1055 56.5509 74.5076 56.6298 73.9054 56.6941C73.3514 56.7511 72.7902 56.792 72.2289 56.833C71.6106 56.8768 70.9981 56.9294 70.3784 56.9791C69.8566 56.9952 69.3464 56.9908 68.8217 56.9674C68.297 56.9441 67.7985 56.9163 67.2826 56.8973C66.1746 56.8549 65.074 56.8388 63.9675 56.8359C62.8288 56.8359 61.6902 57.0201 60.5501 57.0025C59.8192 56.9923 59.0884 56.8885 58.3576 56.9031C57.3344 56.8388 56.4574 56.966 55.2515 56.9411C54.7194 56.9294 54.2532 56.985 54.2517 57.137C54.2503 57.289 54.7048 57.3299 55.2515 57.327C56.817 57.3153 57.5434 57.5843 59.0095 57.6018C59.7052 57.6091 60.4814 57.6427 61.7384 57.6427C62.4824 57.6427 63.2235 57.7757 63.9719 57.7728C64.995 57.7728 65.1646 57.7509 65.5519 57.8021C66.1366 57.8795 66.5561 58.0052 67.0735 58.0228C67.6582 58.0432 68.2619 58.0476 68.8495 58.0228C69.9693 57.9532 71.0926 57.961 72.2113 58.0461C72.7152 58.1002 73.2217 58.1266 73.7286 58.1251C74.2884 58.1163 74.8365 58.1748 75.3934 58.1748C75.9501 58.1938 76.5074 58.1733 77.0612 58.1134C77.5494 58.0447 78.0449 58.0885 78.5229 58.0257C78.7406 57.9979 78.9614 57.9804 79.1791 57.9701L79.2171 57.9789C79.5924 58.0385 79.9705 58.0785 80.3499 58.0988C80.597 58.1192 80.8498 58.1382 81.1042 58.1499C81.4882 58.1699 81.8732 58.1548 82.2545 58.1046C82.4007 58.0885 83.0614 58.0462 83.2104 58.0345C83.4575 58.014 83.7016 58.071 83.9705 58.0418C84.4485 57.9921 84.9191 57.8707 85.3956 57.8123C85.6427 57.805 85.8897 57.8021 86.1411 57.805C86.5285 57.805 86.9173 57.8386 87.3105 57.8547C88.1334 57.8941 88.9578 57.9511 89.7821 57.9789C90.5751 57.9954 91.3683 57.9715 92.1588 57.9073C92.8999 57.8591 93.6454 57.8605 94.3908 57.8225C95.088 57.7933 95.7911 57.7728 96.4927 57.7904C96.8903 57.8021 97.2878 57.6968 97.6854 57.71C98.0187 57.7217 98.352 57.71 98.6852 57.71C99.4161 57.71 100.11 57.5974 100.843 57.6164C101.232 57.6377 101.622 57.6377 102.012 57.6164C102.336 57.5886 102.719 57.4059 103.045 57.3869C103.61 57.3709 104.168 57.365 104.735 57.3636C105.367 57.3636 105.865 57.3007 106.489 57.3007C106.732 57.3007 107.007 57.251 107.011 57.1341C107.026 56.966 106.83 56.9484 106.498 56.9484Z" fill="#063844"/>
<path d="M95.155 57.1195H67.8904V50.1999C67.8904 49.5796 68.1368 48.9848 68.5754 48.5462C69.0139 48.1076 69.6088 47.8612 70.2291 47.8612H92.8163C93.4366 47.8612 94.0314 48.1076 94.47 48.5462C94.9086 48.9848 95.155 49.5796 95.155 50.1999V57.1195Z" fill="#F7F4F2"/>
<path d="M95.2882 56.6925C95.2882 56.2043 95.3247 55.7161 95.332 55.2309C95.332 54.766 95.3408 54.3012 95.332 53.8379C95.332 53.6011 95.3876 53.107 95.3876 52.8673C95.3876 52.6276 95.3876 52.2534 95.3876 52.0342C95.4051 51.6074 95.449 51.5957 95.4651 51.1747C95.4724 50.9598 95.4855 50.745 95.4987 50.5301L95.5177 50.2071C95.522 50.0828 95.5191 49.9583 95.5089 49.8344C95.4542 49.3053 95.2384 48.8058 94.8906 48.4034C94.7293 48.2119 94.5441 48.0419 94.3396 47.8976C94.1313 47.7549 93.9059 47.639 93.6687 47.5527C93.4091 47.4621 93.1379 47.4094 92.8633 47.3963C92.7887 47.389 92.7434 47.3963 92.682 47.389H92.511H92.166C91.615 47.3992 91.0654 47.4182 90.5144 47.4387C90.0203 47.4577 89.538 47.4474 89.0527 47.4211C88.24 47.3495 87.4448 47.2589 86.638 47.1653C86.1191 47.1069 85.5987 47.063 85.0711 47.0192C84.7247 46.9929 84.3753 46.9709 84.026 46.9651H83.7863C83.3054 46.9651 82.8274 46.9841 82.3509 46.9972C81.794 47.0119 81.2386 47.0294 80.689 47.0674L78.172 47.2545L76.9851 47.3276L76.0569 47.351C75.6184 47.3597 75.1799 47.3817 74.7414 47.4036L72.6951 47.5161C72.4027 47.5234 72.1104 47.5264 71.8093 47.5264C71.4863 47.5264 71.1632 47.5395 70.8402 47.5556L70.1985 47.5775C69.9592 47.587 69.7221 47.6262 69.4925 47.6945C69.0317 47.8355 68.6162 48.0956 68.2881 48.4487C68.1106 48.6367 67.9627 48.8506 67.8496 49.0831C67.734 49.3135 67.6532 49.5598 67.6099 49.8139C67.5882 49.9425 67.5746 50.0724 67.569 50.2027L67.5543 50.5447L67.5207 51.2317C67.493 51.6615 67.474 52.0839 67.4725 52.5209C67.471 52.958 67.4827 53.3672 67.4871 53.7911C67.4871 54.2486 67.5017 54.709 67.4959 55.1666C67.4959 55.3931 67.4886 55.6167 67.4827 55.8418C67.474 56.1152 67.4666 56.387 67.4579 56.6618C67.4374 56.982 67.417 57.3006 67.3979 57.6207H67.474C67.8174 57.6485 68.177 57.6792 68.5658 57.7055L68.7602 57.7186H68.8348H68.8947L69.1315 57.742L69.6065 57.7815C69.9232 57.8068 70.2424 57.8258 70.5639 57.8385C71.0887 57.8619 71.6222 57.8692 72.1469 57.8692C72.7097 57.8692 73.2593 57.8297 73.8147 57.802C74.0237 57.802 74.2298 57.802 74.4388 57.8107L74.8496 57.837C75.0543 57.8434 75.2592 57.8395 75.4635 57.8253L76.0949 57.7946C76.5933 57.7786 77.0947 57.7639 77.5873 57.7303C78.0799 57.6967 78.571 57.6412 79.0636 57.5988C79.5182 57.5608 79.9771 57.533 80.4376 57.5067L81.9533 57.4131C82.3816 57.4029 82.7996 57.4058 83.2294 57.4219L84.4893 57.4687C85.397 57.4965 86.2989 57.5067 87.2051 57.5096C88.1377 57.5096 89.0702 57.3868 90.0057 57.3971C90.6064 57.4044 91.2028 57.3868 91.8006 57.3766C92.6352 57.4205 93.3515 57.2158 94.3454 57.2304C94.7839 57.2377 95.1639 57.2012 95.1639 57.1003C95.1639 56.9995 94.7927 56.9717 94.3454 56.9746C93.0635 56.9746 92.4672 56.922 91.2671 56.9103C90.6971 56.9103 90.0612 56.9703 89.0322 56.9703C88.4212 56.9703 87.8146 56.8811 87.2022 56.8826C86.3588 56.8826 86.2243 56.8972 85.9072 56.8636C85.4233 56.8124 85.0842 56.7276 84.6603 56.7174C84.1795 56.7042 83.6869 56.7013 83.206 56.7174C82.2875 56.7639 81.3671 56.7586 80.4493 56.7013C80.0371 56.6692 79.6205 56.6443 79.2054 56.6502C78.7479 56.6502 78.2991 56.6151 77.8431 56.6151C77.3871 56.6036 76.9308 56.6177 76.4764 56.6575C76.0774 56.7028 75.6696 56.6735 75.2735 56.7145C75.0951 56.7335 74.9153 56.7452 74.7356 56.7525H74.7034C74.4111 56.7072 74.088 56.6911 73.7767 56.6721C73.5735 56.6589 73.366 56.6458 73.1599 56.6385C72.7097 56.6238 72.2609 56.6385 71.8137 56.6575C71.3664 56.6765 70.9367 56.6823 70.4982 56.694L69.9763 56.7042L69.8857 56.6867C69.5672 56.631 69.2443 56.6041 68.921 56.6063H68.7485H68.6374C68.5629 56.6063 68.4913 56.6063 68.4153 56.6063H68.3934C68.3921 56.6009 68.3898 56.5957 68.3866 56.5912C68.3833 56.5867 68.3791 56.5828 68.3743 56.58V56.235V55.5568L68.3963 54.1098C68.408 53.5529 68.4343 52.9974 68.4577 52.4405C68.4811 51.8836 68.4986 51.3487 68.5293 50.8034L68.5673 50.3401L68.5775 50.2246C68.5775 50.2071 68.5775 50.1837 68.5775 50.1691L68.5848 50.1282C68.5926 50.074 68.6033 50.0203 68.617 49.9674C68.6685 49.762 68.7626 49.5698 68.8932 49.4032C69.0361 49.2088 69.2204 49.0486 69.4327 48.9341C69.6451 48.8196 69.8801 48.7536 70.1211 48.741H70.6166C70.8051 48.741 70.9922 48.7279 71.1808 48.7176C71.555 48.6957 71.9277 48.665 72.2975 48.6372L73.2081 48.5671C73.6032 48.5871 73.9993 48.5808 74.3935 48.5481C74.8203 48.494 75.2325 48.3712 75.6652 48.3434C76.0978 48.3157 76.491 48.3435 76.9003 48.2967C77.2886 48.2519 77.6788 48.227 78.0696 48.2221C78.2816 48.2221 78.4921 48.2367 78.7026 48.2382C78.913 48.2397 79.0987 48.2046 79.3004 48.1958C79.5927 48.1827 79.8719 48.1534 80.1569 48.1417C80.7416 48.1754 81.319 48.2119 81.9022 48.2265C82.4401 48.2397 82.9867 48.2265 83.51 48.1973L84.7144 48.1213L85.5695 48.0862C85.8209 48.0789 86.0694 48.076 86.3237 48.0789C86.6409 48.0789 86.961 48.1008 87.2753 48.1125C87.9506 48.1374 88.6244 48.1754 89.2997 48.1944C89.9516 48.2134 90.605 48.1812 91.2481 48.1461C91.5507 48.13 91.8562 48.1227 92.1602 48.1154L92.6177 48.1052H92.8443H93.0489C93.3078 48.1223 93.5606 48.191 93.7925 48.3072C94.0244 48.4235 94.2308 48.5849 94.3995 48.7819C94.5866 49.0012 94.8 49.2307 94.8848 49.5245C94.9536 49.7699 94.9871 50.0239 94.9842 50.2787C94.9842 50.8795 94.9447 51.4773 94.9315 52.0766C94.9315 52.3981 94.9082 52.7182 94.9315 53.0325C94.9505 53.3 94.9944 53.5821 95.0061 53.8496C95.0163 54.3115 95.0207 54.7704 95.0207 55.2338C95.0207 55.7512 95.0631 56.159 95.0631 56.6735C95.0631 56.8723 95.0836 57.0974 95.161 57.1003C95.2633 57.1252 95.2882 56.9629 95.2882 56.6925Z" fill="#063844"/>
<path d="M86.046 107.633C85.5578 107.633 85.071 107.597 84.5843 107.591C84.121 107.591 83.6795 107.63 83.2162 107.633C82.9808 107.633 82.4298 107.609 82.193 107.606H82.0118C81.9445 107.606 81.8656 107.587 81.8013 107.578C81.7322 107.567 81.6638 107.551 81.5966 107.531C81.5381 107.516 81.4809 107.497 81.4256 107.473L81.3028 107.424L81.2078 107.383C81.1523 107.36 81.1041 107.348 81.0617 107.329C80.9375 107.282 80.8231 107.213 80.724 107.125C80.4191 106.853 80.1912 106.506 80.0633 106.118C79.9983 105.921 79.9542 105.717 79.9318 105.511C79.9318 105.404 79.9201 105.309 79.9216 105.195V104.859C79.9289 104.434 79.942 104.011 79.9552 103.586C79.9683 103.127 79.9946 102.672 79.9873 102.212C79.9786 101.662 79.9596 101.111 79.9391 100.562C79.9201 100.068 79.9303 99.5869 79.9566 99.1001C80.0268 98.2889 80.1174 97.4923 80.211 96.6898C80.2709 96.1709 80.3148 95.6506 80.3571 95.1229C80.3835 94.7779 80.4068 94.4301 80.4127 94.0807V93.8395C80.4127 93.5984 80.4127 93.3572 80.3995 93.116C80.4229 92.489 80.2534 91.8385 80.2095 91.2158C80.2095 91.134 80.2095 91.0521 80.2095 90.9703L80.2358 90.561C80.2434 90.3568 80.24 90.1524 80.2256 89.9486L80.1949 89.3171C80.1774 88.8187 80.1642 88.3188 80.1291 87.8262C80.094 87.3336 80.0414 86.844 79.999 86.3514C79.9596 85.8983 79.9333 85.4393 79.9055 84.9803C79.8748 84.4731 79.8441 83.9718 79.8134 83.466C79.8017 83.0378 79.8061 82.6212 79.8134 82.1915C79.8207 81.7617 79.8456 81.351 79.8602 80.9329C79.8879 80.0267 79.8996 79.1263 79.9011 78.2201C79.9011 77.289 79.7783 76.3564 79.79 75.4239C79.79 74.8231 79.866 74.2268 79.8558 73.6304C79.8996 72.7958 79.8149 72.081 79.8309 71.0886C79.8382 70.6501 79.8017 70.2715 79.7009 70.27C79.6 70.2686 79.5722 70.6413 79.5737 71.0886C79.5737 72.369 79.4027 72.9639 79.391 74.1581C79.391 74.7267 79.3632 75.3625 79.3632 76.3901C79.3632 76.9996 79.274 77.6047 79.277 78.2172C79.277 79.0591 79.2916 79.1935 79.258 79.5107C79.2053 79.9945 79.122 80.3322 79.1118 80.7561C79.0986 81.237 79.0957 81.7281 79.1118 82.209C79.1576 83.1265 79.1522 84.0459 79.0957 84.9628C79.0636 85.3735 79.0387 85.7901 79.0431 86.2038C79.0431 86.6613 79.0095 87.11 79.0095 87.566C78.9968 88.021 79.0104 88.4764 79.0504 88.9298C79.0972 89.3288 79.0665 89.7352 79.1089 90.1313C79.1279 90.3096 79.1396 90.4894 79.1454 90.6692V90.6999C79.1001 90.9922 79.084 91.3167 79.065 91.6266C79.0519 91.8297 79.0387 92.0358 79.0314 92.2434C79.017 92.5575 79.0272 92.8722 79.0621 93.1847C79.0621 93.309 79.1001 93.8454 79.1074 93.9667C79.122 94.1699 79.084 94.3701 79.1074 94.5894C79.1396 94.9797 79.2214 95.3655 79.2536 95.7587C79.2536 95.9604 79.2536 96.1621 79.2536 96.3682C79.2536 96.6854 79.2316 97.0041 79.22 97.3183C79.1936 97.9922 79.1556 98.666 79.1366 99.3413C79.1176 99.9903 79.1513 100.644 79.1849 101.285C79.217 101.892 79.2156 102.503 79.2419 103.111C79.2609 103.682 79.274 104.257 79.2623 104.831C79.2623 104.913 79.2623 104.995 79.2697 105.075L79.2799 105.198C79.2799 105.238 79.2872 105.28 79.293 105.328C79.3135 105.518 79.3515 105.702 79.3851 105.887C79.4487 106.198 79.5675 106.495 79.7359 106.764C79.9152 107.051 80.1503 107.3 80.4273 107.495C80.7007 107.687 81.0005 107.838 81.3175 107.943C81.4889 108.003 81.6656 108.046 81.8451 108.072C82.0158 108.093 82.1881 108.098 82.3596 108.085C82.6257 108.066 82.9443 107.939 83.2059 107.939C83.6678 107.927 84.1253 107.924 84.5887 107.923C85.1047 107.923 85.5139 107.88 86.027 107.88C86.2243 107.88 86.4494 107.848 86.4538 107.769C86.4772 107.645 86.3164 107.633 86.046 107.633Z" fill="#063844"/>
<path d="M98.2246 107.633C97.8226 107.633 97.4221 107.597 97.0187 107.591C96.6153 107.585 96.2732 107.63 95.8917 107.633C95.6973 107.633 95.2457 107.609 95.0513 107.607C94.8569 107.606 94.547 107.607 94.3672 107.607C94.0339 107.576 94.0456 107.655 93.7182 107.566C93.3994 107.462 93.1074 107.289 92.8631 107.059C92.6079 106.831 92.4011 106.554 92.2551 106.245C92.124 105.954 92.0591 105.637 92.065 105.318C92.065 104.954 92.103 104.57 92.0943 104.194C92.084 103.741 92.065 103.288 92.0446 102.836C92.0285 102.434 92.0343 102.031 92.0621 101.629C92.1337 100.962 92.2244 100.303 92.3179 99.6439C92.3764 99.2185 92.4202 98.7903 92.4641 98.3562C92.4904 98.0726 92.5123 97.7846 92.5182 97.4967V97.2994C92.5182 97.1045 92.5138 96.9057 92.505 96.703C92.5299 96.187 92.3588 95.6521 92.315 95.1375C92.315 95.0718 92.315 95.0045 92.3238 94.9373C92.3325 94.8233 92.3413 94.7107 92.3501 94.5997C92.3564 94.4315 92.3525 94.2631 92.3384 94.0954L92.3077 93.5765C92.2916 93.1657 92.277 92.755 92.2434 92.3487C92.2098 91.9423 92.1557 91.5404 92.1118 91.1355C92.0738 90.7613 92.046 90.3842 92.0197 90.0056L91.9276 88.7603C91.9159 88.408 91.9189 88.0645 91.9276 87.7108C91.9364 87.3571 91.9583 87.0194 91.9744 86.6744C92.0022 85.929 92.0124 85.1879 92.0153 84.4425C92.0183 83.697 91.8926 82.9092 91.9043 82.1403C91.9043 81.6463 91.9803 81.1566 91.97 80.6655C92.0139 79.9785 91.9291 79.3895 91.9452 78.5724C91.9525 78.2143 91.916 77.9 91.8151 77.9C91.7142 77.9 91.685 78.204 91.6879 78.5724C91.6952 79.6263 91.5169 80.1159 91.5052 81.104C91.5052 81.5717 91.4775 82.095 91.4775 82.9413C91.4775 83.4427 91.3883 83.9411 91.3897 84.4454C91.3897 85.1382 91.4044 85.2493 91.3707 85.5095C91.3196 85.9071 91.2348 86.1863 91.2246 86.5327C91.2114 86.9288 91.2085 87.3337 91.2246 87.7283C91.2711 88.4835 91.2657 89.241 91.2085 89.9954C91.1731 90.3353 91.156 90.6768 91.1573 91.0185C91.1573 91.3942 91.1223 91.764 91.1237 92.1397C91.111 92.5143 91.1247 92.8894 91.1646 93.2622C91.21 93.5911 91.1807 93.9244 91.2217 94.2518C91.2407 94.3979 91.2523 94.5441 91.2597 94.6903V94.7166C91.2193 94.9688 91.1924 95.223 91.1793 95.4781C91.1661 95.6448 91.153 95.8158 91.1456 95.9868C91.1327 96.2454 91.143 96.5047 91.1763 96.7615C91.1866 96.8638 91.2143 97.3052 91.2231 97.4046C91.2363 97.5712 91.1983 97.7364 91.2231 97.9177C91.2567 98.2392 91.3371 98.5549 91.3766 98.8765C91.3766 99.0431 91.3766 99.2098 91.3766 99.3779C91.3766 99.6395 91.3532 99.9011 91.3415 100.161C91.3167 100.715 91.2787 101.271 91.2597 101.825C91.2484 102.361 91.2645 102.898 91.3079 103.433C91.34 103.931 91.3386 104.434 91.3634 104.935L91.378 105.292C91.385 105.43 91.4002 105.569 91.4234 105.705C91.4677 105.98 91.5483 106.247 91.6631 106.501C91.8107 106.777 92.0028 107.027 92.2317 107.24C92.4072 107.431 92.6101 107.595 92.8339 107.725C93.0732 107.871 93.3381 107.971 93.6144 108.018C93.7489 108.043 93.8845 108.06 94.0208 108.07C94.1538 108.07 94.3043 108.081 94.4213 108.081C94.6827 108.095 94.9448 108.095 95.2062 108.081C95.4255 108.062 95.6827 107.935 95.902 107.935C96.282 107.923 96.6591 107.92 97.0406 107.918C97.466 107.918 97.8022 107.876 98.2246 107.876C98.3868 107.876 98.5725 107.844 98.5754 107.765C98.5754 107.645 98.4424 107.633 98.2246 107.633Z" fill="#063844"/>
<path d="M73.4346 107.633C73.1043 107.633 72.7739 107.597 72.4407 107.591C72.1074 107.585 71.8268 107.63 71.5125 107.633C71.3517 107.633 70.979 107.609 70.8197 107.607C70.6604 107.606 70.4031 107.607 70.254 107.607C69.9617 107.59 69.9821 107.661 69.6927 107.645L69.4735 107.629L69.2674 107.601C69.1325 107.577 69 107.54 68.8713 107.493C68.6044 107.404 68.3529 107.275 68.1258 107.109C67.9165 106.948 67.739 106.75 67.6025 106.524C67.4629 106.283 67.3609 106.021 67.3 105.749C67.2751 105.669 67.2678 105.586 67.2488 105.504C67.2298 105.422 67.2327 105.337 67.2225 105.254L67.1947 104.694C67.1779 104.362 67.1838 104.03 67.2123 103.699C67.2824 103.149 67.373 102.605 67.4666 102.063C67.5265 101.711 67.5704 101.358 67.6128 101C67.6391 100.766 67.6625 100.53 67.6683 100.293V100.125C67.6683 99.961 67.6639 99.7973 67.6551 99.6336C67.6785 99.2083 67.509 98.7669 67.4651 98.343C67.4651 98.2874 67.4651 98.2319 67.4724 98.1763L67.4988 97.8986C67.5063 97.7602 67.5029 97.6214 67.4885 97.4835L67.4564 97.0552C67.4388 96.7176 67.4257 96.377 67.3906 96.0423C67.3555 95.7076 67.3029 95.3758 67.2605 95.0425C67.221 94.7341 67.1933 94.4228 67.1669 94.1114L67.0749 93.0882C67.0632 92.7959 67.0676 92.5153 67.0822 92.2229C67.0968 91.9306 67.1143 91.6529 67.1289 91.3693C67.1567 90.7539 67.1684 90.143 67.1699 89.5291C67.1713 88.9152 67.0471 88.2647 67.0588 87.6289C67.0661 87.2225 67.1348 86.8177 67.1246 86.4128C67.1684 85.8471 67.0836 85.3604 67.0997 84.688C67.107 84.3957 67.0705 84.1326 66.9696 84.1326C66.8688 84.1326 66.841 84.384 66.8425 84.688C66.8498 85.5562 66.6714 85.9611 66.6597 86.7738C66.6597 87.1612 66.632 87.5924 66.632 88.2896C66.632 88.7032 66.5428 89.114 66.5457 89.5291C66.5457 90.1006 66.5604 90.1912 66.5267 90.4061C66.4616 90.6851 66.4128 90.9677 66.3806 91.2524C66.366 91.5783 66.3645 91.9116 66.3806 92.2375C66.4264 92.8601 66.421 93.4854 66.3645 94.107C66.328 94.3862 66.3104 94.6675 66.3119 94.949C66.3119 95.2588 66.2783 95.5629 66.2783 95.8727C66.2656 96.1822 66.2793 96.4923 66.3192 96.7994C66.366 97.0699 66.3353 97.3461 66.3776 97.6151C66.3965 97.7356 66.4087 97.8571 66.4142 97.979V98.0009C66.3738 98.2085 66.347 98.4184 66.3338 98.6295C66.3206 98.7669 66.3075 98.9072 66.3002 99.0475C66.286 99.2608 66.2959 99.4751 66.3294 99.6862C66.3411 99.771 66.3689 100.135 66.3762 100.217C66.3908 100.354 66.3528 100.49 66.3762 100.639C66.4083 100.905 66.4902 101.165 66.5297 101.43C66.5297 101.567 66.5297 101.705 66.5297 101.844C66.5297 102.06 66.5077 102.282 66.496 102.49C66.4697 102.947 66.4317 103.403 66.4127 103.862C66.4026 104.301 66.4187 104.741 66.461 105.178V105.255L66.4712 105.349L66.4887 105.533C66.5092 105.654 66.5282 105.777 66.5589 105.897C66.5883 106.017 66.6264 106.135 66.6729 106.249C66.6963 106.306 66.7168 106.363 66.7445 106.419L66.8308 106.581C67.0574 106.979 67.3627 107.328 67.7282 107.604C67.8324 107.682 67.9464 107.745 68.0673 107.793C68.1916 107.835 68.3085 107.883 68.4269 107.929C68.5249 107.972 68.6267 108.005 68.7309 108.029L68.8873 108.067L69.0452 108.092C69.1598 108.11 69.2758 108.117 69.3916 108.113C69.4516 108.113 69.5012 108.113 69.5509 108.104L69.6971 108.091C69.8962 108.07 70.0963 108.061 70.2964 108.063C70.512 108.078 70.7283 108.078 70.9439 108.063C71.1252 108.044 71.3371 107.917 71.5184 107.917C71.8312 107.905 72.1425 107.902 72.4568 107.901C72.8076 107.901 73.0838 107.858 73.4317 107.858C73.5662 107.858 73.724 107.826 73.724 107.747C73.7284 107.645 73.6188 107.633 73.4346 107.633Z" fill="#063844"/>
<path d="M67.0908 79.6277C67.0908 79.5268 67.1273 79.426 67.1332 79.3251C67.139 79.2243 67.0937 79.138 67.0908 79.0416C67.0908 78.9933 67.1156 78.8793 67.1171 78.8311C67.112 78.7737 67.112 78.716 67.1171 78.6586C67.1346 78.5709 67.063 78.5753 67.0791 78.4876C67.0952 78.3999 67.1288 78.3107 67.1507 78.2216C67.1679 78.13 67.1772 78.037 67.1785 77.9438C67.1858 77.8561 67.1989 77.7684 67.2121 77.6807C67.2329 77.5876 67.2437 77.4926 67.2442 77.3972C67.2339 77.2824 67.2178 77.1683 67.196 77.0551C67.1792 76.9542 67.1852 76.8509 67.2135 76.7526C67.2887 76.5817 67.3736 76.4153 67.4679 76.2542C67.5254 76.1507 67.5742 76.0426 67.614 75.9311C67.6421 75.8623 67.6607 75.79 67.6696 75.7163C67.6696 75.6987 67.6696 75.6826 67.6696 75.6666C67.6696 75.6154 67.6623 75.5657 67.6564 75.5204C67.6798 75.3918 67.5103 75.2573 67.4664 75.1272C67.4674 75.1105 67.4699 75.0938 67.4737 75.0775C67.4737 75.0483 67.4913 75.0205 67.5 74.9927C67.5075 74.9502 67.504 74.9064 67.4898 74.8656C67.481 74.8232 67.4693 74.7793 67.4591 74.7355C67.4456 74.631 67.4236 74.5279 67.3933 74.4271C67.3583 74.3262 67.3056 74.2239 67.2632 74.123C67.2259 74.0306 67.1947 73.9359 67.1697 73.8395C67.1405 73.7342 67.1054 73.6319 67.0776 73.5267C67.0668 73.4391 67.0693 73.3504 67.0849 73.2636C67.101 73.1759 67.1185 73.0896 67.1317 73.0034C67.1584 72.818 67.1721 72.6309 67.1726 72.4436C67.1726 72.2506 67.0498 72.0577 67.0615 71.8589C67.0918 71.7373 67.1138 71.6137 67.1273 71.4891C67.1712 71.3166 67.0864 71.169 67.1025 70.9629C67.1098 70.8737 67.0732 70.7948 66.9724 70.7948C66.8715 70.7948 66.8438 70.8708 66.8452 70.9629C66.8525 71.2289 66.6742 71.3517 66.6625 71.5987C66.6625 71.7171 66.6347 71.8472 66.6347 72.0606C66.6347 72.1863 66.5456 72.3106 66.5485 72.4377C66.5485 72.6117 66.5631 72.6394 66.5295 72.7052C66.4769 72.8046 66.3936 72.8748 66.3833 72.9625C66.3673 73.0617 66.3673 73.1629 66.3833 73.2621C66.4292 73.4496 66.4237 73.6461 66.3673 73.8307C66.3315 73.9117 66.3136 73.9994 66.3146 74.0879C66.3146 74.1815 66.281 74.275 66.281 74.3686C66.2685 74.4646 66.2827 74.5622 66.322 74.6507C66.3687 74.734 66.338 74.8173 66.3804 74.8992C66.3985 74.934 66.4108 74.9715 66.417 75.0103C66.3787 75.0686 66.3514 75.1335 66.3366 75.2017C66.3225 75.2438 66.3112 75.2868 66.3029 75.3304C66.2891 75.3966 66.2994 75.4656 66.3322 75.5248C66.3439 75.5496 66.3716 75.6607 66.379 75.6856C66.3863 75.7104 66.3556 75.7689 66.379 75.8142C66.4111 75.8946 66.493 75.975 66.5324 76.0554C66.5353 76.0972 66.5353 76.1392 66.5324 76.1811C66.5256 76.247 66.5144 76.3125 66.4988 76.3769C66.4725 76.5231 66.4345 76.6561 66.4155 76.795C66.4054 76.9308 66.4218 77.0673 66.4637 77.1969C66.4959 77.3226 66.4944 77.4483 66.5207 77.574C66.5428 77.6911 66.5497 77.8104 66.5412 77.9292C66.5339 77.9965 66.604 78.0637 66.5953 78.1309C66.5924 78.1874 66.5924 78.244 66.5953 78.3005C66.5953 78.4247 66.6698 78.5417 66.6581 78.6659C66.6435 78.7309 66.6435 78.7983 66.6581 78.8632C66.6771 78.9173 66.8043 78.9816 66.8043 79.0372C66.8145 79.1322 66.8189 79.2272 66.8204 79.3295C66.8218 79.4318 66.8628 79.521 66.8628 79.6218C66.8628 79.6628 66.8949 79.7095 66.9738 79.7095C67.0747 79.7169 67.0908 79.6832 67.0908 79.6277Z" fill="#063844"/>
<path d="M27.0994 105.817C27.6241 105.58 26.6068 103.715 25.4916 100.408C23.211 93.6338 22.2141 86.4932 22.5521 79.353C23.0665 68.6795 26.5145 58.3545 32.5169 49.5137C38.5192 40.6729 46.8435 33.6586 56.5741 29.2423C59.6288 27.8659 62.7791 26.7126 66.0004 25.7913L67.1917 25.4463C67.5907 25.3353 67.9942 25.2519 68.3947 25.154L69.5962 24.8617L70.1969 24.7155L70.802 24.6015C71.6103 24.4553 72.4099 24.2843 73.2197 24.144L75.6475 23.7932C78.8781 23.4003 82.1336 23.2503 85.3866 23.3445L87.813 23.4745C88.0162 23.4819 88.2164 23.5067 88.4167 23.5272L89.0204 23.5915L90.2277 23.7201C91.0346 23.7873 91.8356 23.9408 92.6278 24.0621L93.8249 24.2639C94.221 24.3399 94.6157 24.4305 95.0103 24.5138L96.1796 24.7637L96.757 24.8894L97.3242 25.0356L99.5722 25.6466L101.756 26.3628L102.298 26.5411C102.477 26.6055 102.652 26.6771 102.829 26.7443L103.887 27.1536C106.677 28.237 109.371 29.5512 111.942 31.0826L112.426 31.3632L112.669 31.5094L112.904 31.6556L113.848 32.2651C114.477 32.6729 115.116 33.069 115.719 33.5221L116.64 34.1857L117.102 34.5175C117.257 34.6271 117.41 34.7397 117.558 34.861L119.356 36.2934C121.803 38.3396 124.085 40.5762 126.179 42.9821C131.494 49.1197 135.496 56.2796 137.941 64.0214L138.062 64.3869L138.166 64.7552L138.374 65.4948L138.792 66.9726C138.922 67.4681 139.026 67.9694 139.144 68.4679L139.489 69.9646L139.76 71.476L139.897 72.2317L139.966 72.6103C139.989 72.736 140.011 72.8617 140.024 72.9888L140.223 74.5119L140.321 75.2764L140.37 75.6579C140.388 75.7836 140.394 75.9122 140.406 76.0393C140.81 80.0973 140.817 84.1851 140.426 88.2443C140.016 92.4232 139.086 96.5345 137.658 100.483C136.292 104.252 134.511 107.858 132.349 111.234C132.214 111.443 132.092 111.659 131.95 111.862L131.526 112.476L130.68 113.704L130.468 114.011C130.396 114.113 130.321 114.21 130.243 114.303L129.789 114.898L128.88 116.089C128.734 116.291 128.566 116.478 128.407 116.674L127.923 117.25C127.6 117.635 127.277 118.02 126.954 118.406L125.931 119.521L125.412 120.08C125.239 120.267 125.074 120.46 124.888 120.635C121.943 123.656 118.719 126.391 115.259 128.804C112.254 130.907 109.076 132.749 105.758 134.312C102.39 135.898 98.8848 137.172 95.2851 138.12C91.6576 139.074 87.9479 139.683 84.2056 139.938C80.4677 140.207 76.7122 140.099 72.996 139.615C60.9859 138.087 49.7687 132.793 40.9546 124.492C39.9314 123.537 38.9638 122.521 38.2081 121.79C37.4524 121.059 36.9262 120.59 36.7669 120.73C36.3635 121.077 37.7901 122.696 40.3612 125.115C43.7923 128.362 47.5735 131.218 51.6351 133.631C53.6471 134.827 55.7256 135.908 57.8604 136.868C59.9943 137.824 62.1823 138.653 64.4131 139.353C68.8994 140.765 73.5396 141.632 78.2332 141.933C78.5255 141.957 78.8179 141.97 79.1102 141.981L79.996 142.018C80.5806 142.043 81.1799 142.038 81.7734 142.049C82.3668 142.059 82.9588 142.021 83.5522 142.008L84.4439 141.98L84.8897 141.967L85.1133 141.96L85.3355 141.94L87.1187 141.794L88.0118 141.717C88.158 141.707 88.3041 141.688 88.4576 141.666L88.8961 141.603C90.0815 141.433 91.2743 141.293 92.4524 141.033C96.3809 140.28 100.236 139.183 103.972 137.754C107.538 136.392 110.974 134.71 114.237 132.728C117.46 130.77 120.484 128.504 123.267 125.96C126.103 123.366 128.651 120.475 130.868 117.336L131.872 115.911C132.033 115.676 132.203 115.449 132.355 115.214L132.806 114.508C133.108 114.043 133.408 113.583 133.704 113.129C133.85 112.906 133.996 112.672 134.129 112.442L134.54 111.755L135.361 110.406L136.116 109.047C136.364 108.595 136.624 108.151 136.862 107.701C137.101 107.251 137.321 106.789 137.549 106.336L137.893 105.656C138.007 105.428 138.128 105.204 138.226 104.97L138.847 103.58L139.159 102.882L139.315 102.531C139.365 102.414 139.409 102.294 139.461 102.174L140.015 100.733C140.406 99.7726 140.705 98.7699 141.028 97.7526C141.107 97.4968 141.188 97.241 141.266 96.9837C141.345 96.7265 141.404 96.4604 141.473 96.1973C141.604 95.6682 141.736 95.1323 141.869 94.5895C142.035 93.9566 142.141 93.3193 142.256 92.6893C142.372 92.0593 142.488 91.4352 142.586 90.8111C142.662 90.1855 142.738 89.5642 142.813 88.9474C142.849 88.6375 142.886 88.3306 142.923 88.0236C142.959 87.7167 142.966 87.4068 142.988 87.0999C143.027 86.4879 143.065 85.8769 143.102 85.2669L143.13 84.8109V84.3548C143.13 84.0508 143.13 83.7468 143.13 83.4427C143.13 82.8376 143.134 82.2325 143.142 81.6273L143.063 79.8134C143.038 78.6031 142.898 77.3958 142.792 76.1782L142.752 75.7222L142.731 75.4927L142.7 75.2647C142.658 74.9606 142.617 74.6566 142.575 74.3511C142.491 73.7387 142.41 73.1248 142.326 72.505C141.888 70.0465 141.432 67.5178 140.718 64.916C139.814 61.5 138.558 58.1871 136.969 55.0307C136.563 54.2677 136.158 53.5066 135.756 52.7475C135.314 52.0128 134.872 51.279 134.43 50.5463C133.502 49.1109 132.552 47.6974 131.507 46.3542C129.428 43.6404 127.136 41.0959 124.655 38.7447C122.095 36.3174 119.355 34.0878 116.457 32.0751C105.453 24.3442 92.3983 20.3568 79.3221 20.5921C76.0466 20.6627 72.7813 20.9852 69.5552 21.5568C66.3151 22.1707 63.13 23.0457 60.031 24.1732C56.9022 25.3139 53.8836 26.7366 51.0124 28.4238C48.1017 30.1173 45.3486 32.0681 42.7861 34.2529C40.4417 36.279 38.2236 38.4469 36.1442 40.7443L34.608 42.5348L34.4151 42.7584L34.2324 42.9923L33.867 43.4586L33.1361 44.3926L32.7692 44.8603C32.7078 44.9393 32.6465 45.0153 32.5865 45.0957L32.4141 45.3383L31.7256 46.3089L31.0357 47.2823C30.9188 47.4417 30.8121 47.6097 30.7054 47.7778L30.3838 48.2821L29.7421 49.2892C29.5316 49.6269 29.3036 49.9572 29.118 50.3124L27.9384 52.3924C27.2076 53.8102 26.4767 55.2251 25.8731 56.6955C24.6149 59.5807 23.6355 62.5796 22.9482 65.6512C22.8752 65.9728 22.7904 66.29 22.7261 66.613C22.6618 66.936 22.6062 67.2591 22.5448 67.5821C22.424 68.2291 22.3022 68.8728 22.1794 69.513L21.9119 71.4526L21.776 72.4188C21.7424 72.7433 21.7175 73.0678 21.6868 73.3908L21.51 75.3319C21.4661 75.9794 21.4515 76.6299 21.4193 77.2774C21.3346 78.5739 21.3769 79.8763 21.374 81.1771C21.4172 83.8042 21.6271 86.4259 22.0025 89.0263C22.381 91.6976 22.9303 94.3418 23.6469 96.9428C23.7156 97.26 23.7931 97.5713 23.8808 97.8841L24.1249 98.824L24.3938 99.7565L24.5283 100.224L24.6745 100.688C24.79 101.025 24.9054 101.361 25.0194 101.692L25.3805 102.655C25.4389 102.81 25.4989 102.963 25.5559 103.113C25.6129 103.262 25.6772 103.405 25.7357 103.551C25.8555 103.832 25.971 104.095 26.0806 104.337C26.5308 105.298 26.9108 105.901 27.0994 105.817Z" fill="#063844"/>
</svg>
