<svg preserveAspectRatio="xMinYMid meet" overflow="visible" style="display: block;" viewBox="0 0 168.667 60.6667" fill="none" xmlns="http://www.w3.org/2000/svg">
<g id="vector">
<path d="M56.9587 17.5295C57.7024 18.0096 59.8092 19.9229 59.8441 19.957C59.8596 19.9721 59.8712 19.9872 59.8518 20.0099C59.8479 20.0324 59.8286 20.0438 59.8092 20.0552C59.8092 20.0552 52.5477 23.4656 52.5012 23.4807C52.4701 23.4921 52.447 23.4845 52.4315 23.4656C52.4262 23.4606 52.3787 23.4032 52.3009 23.3093C51.9169 22.8462 50.7968 21.495 50.3944 21.1555C48.3767 19.4616 46.5176 19.4351 44.6316 21.1026C42.9585 22.5808 41.3668 24.1349 39.7828 25.7683C39.4806 26.0783 39.3102 26.8042 39.3218 27.0992V45.0815C39.3877 47.6714 39.8602 48.715 42.7572 49.4221C42.9071 49.457 43.0145 49.582 43.0666 49.6426C43.0709 49.6477 43.0749 49.6524 43.0785 49.6564C43.156 49.7397 44.0816 51.1613 44.0816 51.1613C44.0932 51.1801 44.0932 51.2028 44.0816 51.2179C44.07 51.2332 44.0506 51.2444 44.0312 51.2444H27.8157C27.7963 51.2444 27.777 51.2332 27.7654 51.2179C27.7537 51.1991 27.7537 51.1764 27.7654 51.1613C27.7654 51.1613 28.6909 49.7434 28.7684 49.6564C28.7713 49.6531 28.7746 49.6494 28.7781 49.6453C28.8298 49.5857 28.9412 49.4575 29.0899 49.4221C31.9441 48.7264 32.5096 47.5241 32.5871 45.0135V24.3126C32.5561 23.0194 32.0371 21.2159 31.0921 20.8151C30.519 20.5694 29.8025 20.5694 28.7878 20.9778C28.5864 21.0609 11.5227 29.1106 11.5227 29.1106C11.5188 29.1106 11.5227 44.5974 11.5227 44.5974C11.5343 47.6299 11.8983 48.6772 15.0005 49.4334C15.1502 49.4682 15.2573 49.5927 15.3096 49.6536C15.3141 49.6588 15.3182 49.6636 15.3219 49.6678C15.3994 49.7511 16.325 51.1727 16.325 51.1727C16.3366 51.1915 16.3366 51.2142 16.325 51.2293C16.3134 51.2444 16.294 51.2558 16.2746 51.2558H0.0590613C0.039697 51.2558 0.0203323 51.2444 0.00871388 51.2293C-0.00290463 51.2105 -0.00290463 51.1878 0.00871388 51.1727C0.00871388 51.1727 0.934323 49.7548 1.01178 49.6678C1.0147 49.6645 1.0179 49.6608 1.02136 49.6568C1.07303 49.5972 1.18442 49.4689 1.33322 49.4334C4.43537 48.6772 4.83428 47.6791 4.79167 44.5974V32.2867C4.79167 32.2867 1.56559 33.8104 1.5501 33.8141C1.53849 33.8218 1.51525 33.8294 1.50363 33.8255C1.49201 33.8217 1.48039 33.799 1.47652 33.7839C1.46877 33.7688 0.566401 31.7838 0.566401 31.7838C0.558656 31.7687 0.558656 31.7535 0.56253 31.7384C0.566403 31.7233 0.578021 31.7082 0.593512 31.7045C0.593512 31.7045 2.73906 30.6987 4.79555 29.7346C4.79167 29.7269 4.80715 15.1702 4.80715 15.1702C4.96595 9.99781 10.0626 4.62504 18.2111 1.32802C20.372 0.454616 21.9716 -0.0898327 25.1124 0.0122495C27.9861 0.106767 30.9914 1.52464 34.7286 3.96715C34.7481 3.97849 34.7596 4.00117 34.7559 4.02008C34.7559 4.03899 34.7365 4.06166 34.717 4.06545L28.1682 7.13939C28.1527 7.14696 28.1293 7.15074 28.1062 7.15074C28.0867 7.15074 28.0752 7.14696 28.052 7.13561C25.8871 6.08072 21.743 4.23559 19.2723 4.12594C16.3831 3.99362 11.5381 6.3832 11.5381 14.9321L11.5343 26.5584C11.5498 26.5061 34.7172 15.6428 34.9302 15.5482C35.3755 15.3479 36.1074 15.8167 36.3669 16.0701C38.0555 17.7035 39.0197 19.7792 39.3181 22.4258C39.3436 22.4058 39.3687 22.3861 39.3934 22.3668C39.5413 22.251 39.6754 22.146 39.7982 22.0327C40.2553 21.6055 40.7122 21.1744 41.2196 20.6942L41.243 20.672C42.1419 19.8206 43.0713 18.9402 44.0351 18.1194C47.8848 14.8412 52.4741 14.6332 56.9587 17.5295Z" fill="var(--fill-0, white)"/>
<path d="M111.426 7.68762C111.426 10.0306 109.481 11.9299 107.081 11.9299C104.681 11.9299 102.736 10.0306 102.736 7.68762C102.736 5.34468 104.681 3.44536 107.081 3.44536C109.481 3.44536 111.426 5.34468 111.426 7.68762Z" fill="var(--fill-0, white)"/>
<path d="M168.667 47.4877C168.667 49.5314 166.828 51.1882 164.561 51.1882C162.293 51.1882 160.454 49.5314 160.454 47.4877C160.454 45.4442 162.293 43.7874 164.561 43.7874C166.828 43.7874 168.667 45.4442 168.667 47.4877Z" fill="var(--fill-0, white)"/>
<path fill-rule="evenodd" clip-rule="evenodd" d="M94.4248 26.2939L94.4403 26.3355C93.4758 23.2426 90.9857 20.3162 87.6047 18.3046C84.8628 16.6751 80.2617 14.898 73.9219 15.6958C64.7279 16.8489 58.1943 24.1198 58.0316 33.3681C57.8652 42.6881 64.2282 50.1405 73.5036 51.4864C74.6887 51.6567 75.8778 51.7474 77.0434 51.7474C85.831 51.7474 91.8222 46.8926 93.6385 42.4688C93.6385 42.4688 93.7198 42.2873 93.6811 42.227C93.6433 42.1732 93.6391 42.1731 93.4948 42.1685L93.4332 42.1664C93.3777 42.1651 92.7627 42.1642 91.9913 42.1631H91.9874C90.6084 42.1612 88.7325 42.1586 88.6581 42.1513C88.5639 42.1455 88.548 42.1485 88.4864 42.1602C88.4669 42.1639 88.4428 42.1684 88.4102 42.1739C88.325 42.1891 88.2669 42.295 88.2438 42.3781C87.5466 45.0966 84.398 48.1251 81.7644 48.87C79.3051 49.5657 76.5361 49.1726 73.9684 47.7622C70.7423 45.9928 68.1515 42.6995 67.0941 39.1567L94.4054 26.3656C94.4209 26.3506 94.4325 26.3241 94.4248 26.2939ZM66.091 36.9789C64.689 30.8916 65.2661 27.3488 66.3079 24.4941C68.8755 17.4501 75.5639 16.902 80.2927 19.5637C83.1664 21.1783 85.2151 23.5905 86.8804 27.2391L66.091 36.9789Z" fill="var(--fill-0, white)"/>
<path d="M98.7856 21.4201C98.7856 21.4201 111.516 15.5029 111.512 15.4992C111.508 15.4974 111.509 21.8809 111.509 28.9332V28.9758C111.51 37.6672 111.51 47.356 111.504 47.3539C111.504 47.3463 111.612 53.1653 110.466 55.309C109.08 57.9029 105.404 60.6667 101.392 60.6667H101.311C97.798 60.6327 94.8315 59.4038 92.7284 57.1125C91.5512 56.1258 90.0214 53.4941 89.5721 52.3373C89.5254 52.2166 89.5391 52.2 89.5612 52.1734C89.5647 52.1692 89.5684 52.1647 89.5721 52.1595C89.597 52.1283 89.6904 52.1288 89.7414 52.1291L89.7541 52.1292L95.637 52.1331C95.637 52.1331 95.7571 52.1331 95.7842 52.1595C95.8229 52.2011 95.8073 52.341 95.8073 52.341C95.6835 55.8687 98.7585 58.9539 101.744 58.16C103.998 57.5587 104.603 55.0368 104.761 53.4337V21.9117C104.761 21.8285 104.618 21.666 104.564 21.6356C104.506 21.6017 104.374 21.579 104.262 21.5904C104.159 21.5989 101.81 22.6785 100.663 23.2054L100.661 23.2065C100.291 23.3762 100.047 23.4883 100.044 23.4883L99.963 23.5338C99.9397 23.545 99.9087 23.5375 99.8932 23.5148L98.7585 21.4996C98.7507 21.4844 98.7507 21.4693 98.7546 21.4542C98.7585 21.4391 98.7701 21.424 98.7856 21.4201Z" fill="var(--fill-0, white)"/>
<path fill-rule="evenodd" clip-rule="evenodd" d="M155.763 49.7132L155.75 49.6988C155.698 49.6378 155.591 49.5134 155.441 49.4786C152.545 48.7718 151.987 47.5769 152.01 45.1155V29.9462C151.972 25.8778 150.473 20.335 139.083 16.4443C133.839 14.6559 126.938 15.242 120.985 19.7943L120.984 19.7949C120.965 19.8123 120.546 20.1883 120.888 20.4333C120.888 20.4333 127.224 23.4164 127.232 23.4203C127.24 23.424 127.383 23.4958 127.429 23.4958L127.439 23.4958C127.481 23.4961 127.515 23.4963 127.577 23.4505C127.768 23.3217 127.97 23.1831 128.183 23.0376C130.807 21.24 134.994 18.3724 139.652 19.4427C145.721 20.8415 145.229 26.3127 145.151 26.5886C144.9 27.4659 137.475 28.4603 135.132 28.6759L135.078 28.6796C134.587 28.737 134.091 28.7913 133.592 28.8458C132.056 29.0138 130.497 29.1844 128.971 29.4584C123.196 30.502 118.661 33.8783 117.538 38.9789C116.701 42.7864 118.46 47.108 121.887 49.4976C124.064 51.0139 127.034 51.6527 129.823 51.6868C138.723 51.7889 145.198 38.5177 145.198 38.5177V45.0777C145.12 47.5769 144.617 48.7718 141.77 49.4674C141.622 49.5029 141.51 49.6311 141.459 49.6907L141.449 49.7018C141.372 49.7888 140.446 51.2067 140.446 51.2067C140.434 51.2218 140.434 51.2445 140.446 51.2633C140.458 51.2784 140.477 51.2898 140.496 51.2898H156.712C156.731 51.2898 156.751 51.2784 156.762 51.2633C156.774 51.2482 156.774 51.2255 156.762 51.2067C156.763 51.2085 156.741 51.1756 156.703 51.1185C156.667 51.0641 156.617 50.9876 156.558 50.8981C156.28 50.4779 155.814 49.7711 155.763 49.7132ZM138.293 43.0094C135.702 45.278 133.486 46.3821 130.764 45.9208C128.711 45.5729 126.469 44.1741 125.377 41.8109C124.288 39.4667 124.459 36.6839 125.656 35.0393C127.22 32.8916 129.366 31.9539 131.558 31.6362C134.021 31.2847 145.295 29.9575 145.295 29.9575C144.664 32.6459 141.952 39.807 138.293 43.0094Z" fill="var(--fill-0, white)"/>
</g>
</svg>
