<svg width="339" height="200" viewBox="0 0 339 200" fill="none" xmlns="http://www.w3.org/2000/svg">
<g clip-path="url(#clip0_1088_22150)">
<mask id="mask0_1088_22150" style="mask-type:alpha" maskUnits="userSpaceOnUse" x="0" y="0" width="339" height="200">
<rect width="339" height="200" fill="url(#paint0_linear_1088_22150)"/>
</mask>
<g mask="url(#mask0_1088_22150)">
<g filter="url(#filter0_dd_1088_22150)">
<rect x="29" y="16" width="281.323" height="48.7742" rx="10.4516" fill="white"/>
<rect x="35.9678" y="22.9677" width="34.8387" height="34.8387" rx="6.96774" fill="#F5F7F8"/>
<rect x="37.1621" y="23.9999" width="32" height="32" rx="8" fill="#F5F8F9"/>
<path d="M54.9955 30.1458C55.3752 30.1458 55.683 30.4536 55.683 30.8333C55.683 31.1813 55.4244 31.469 55.0888 31.5145L54.9955 31.5208H51.3289C50.9492 31.5208 50.6414 31.2129 50.6414 30.8333C50.6414 30.4852 50.9 30.1976 51.2356 30.152L51.3289 30.1458H54.9955Z" fill="#193A43"/>
<path d="M49.926 37.6805C50.1701 37.4364 50.552 37.4142 50.8211 37.6139L50.8982 37.6805L53.6482 40.4305C53.9167 40.699 53.9167 41.1343 53.6482 41.4028C53.4042 41.6468 53.0222 41.669 52.7531 41.4693L52.676 41.4028L49.926 38.6528C49.6575 38.3843 49.6575 37.949 49.926 37.6805Z" fill="#193A43"/>
<path d="M60.0095 33.0971C60.2779 32.8286 60.7132 32.8286 60.9817 33.0971C61.2258 33.3412 61.248 33.7231 61.0483 33.9923L60.9817 34.0694L58.8367 36.2144C58.5682 36.4829 58.1329 36.4829 57.8645 36.2144C57.6204 35.9703 57.5982 35.5884 57.7979 35.3192L57.8645 35.2421L60.0095 33.0971Z" fill="#193A43"/>
<path d="M59.0925 32.1805C59.3366 31.9364 59.7185 31.9142 59.9876 32.1139L60.0647 32.1805L61.8981 34.0138C62.1666 34.2823 62.1666 34.7176 61.8981 34.9861C61.654 35.2302 61.2721 35.2524 61.0029 35.0527L60.9258 34.9861L59.0925 33.1528C58.824 32.8843 58.824 32.449 59.0925 32.1805Z" fill="#193A43"/>
<path d="M49.4954 42.0624C49.8751 42.0624 50.1829 42.3702 50.1829 42.7499C50.1829 43.098 49.9243 43.3856 49.5887 43.4312L49.4954 43.4374H44.9121C44.5324 43.4374 44.2246 43.1296 44.2246 42.7499C44.2246 42.4019 44.4833 42.1142 44.8188 42.0687L44.9121 42.0624H49.4954Z" fill="#193A43"/>
<path d="M49.4954 44.8124C49.8751 44.8124 50.1829 45.1202 50.1829 45.4999C50.1829 45.848 49.9242 46.1356 49.5887 46.1812L49.4954 46.1874H46.7454C46.3657 46.1874 46.0579 45.8796 46.0579 45.4999C46.0579 45.1519 46.3165 44.8642 46.6521 44.8187L46.7454 44.8124H49.4954Z" fill="#193A43"/>
<path d="M49.4955 47.5624C49.8752 47.5624 50.183 47.8702 50.183 48.2499C50.183 48.598 49.9244 48.8856 49.5888 48.9312L49.4955 48.9374H48.5789C48.1992 48.9374 47.8914 48.6296 47.8914 48.2499C47.8914 47.9019 48.15 47.6142 48.4856 47.5687L48.5789 47.5624H49.4955Z" fill="#193A43"/>
<path d="M53.1621 32.8958C57.5916 32.8958 61.1829 36.4871 61.1829 40.9166C61.1829 45.3461 57.5916 48.9374 53.1621 48.9374C52.7824 48.9374 52.4746 48.6296 52.4746 48.2499C52.4746 47.8702 52.7824 47.5624 53.1621 47.5624C56.8322 47.5624 59.8079 44.5867 59.8079 40.9166C59.8079 37.2464 56.8322 34.2708 53.1621 34.2708C50.1174 34.2708 47.4905 36.3413 46.7402 39.2547C46.6455 39.6224 46.2706 39.8437 45.9029 39.749C45.5352 39.6543 45.3139 39.2795 45.4086 38.9118C46.3142 35.3953 49.4855 32.8958 53.1621 32.8958Z" fill="#193A43"/>
<rect x="84.7422" y="22.9677" width="104.516" height="14" rx="6.96774" fill="#EBEBEB"/>
<rect x="196.226" y="22.9677" width="40.5161" height="14" rx="6.96774" fill="#EBEBEB"/>
<path d="M86.9502 50.7584V49.7264H88.9062C89.3222 49.7264 89.6662 49.6464 89.9382 49.4864C90.2102 49.3184 90.4142 49.0944 90.5502 48.8144C90.6942 48.5344 90.7662 48.2224 90.7662 47.8784C90.7662 47.5264 90.6942 47.2104 90.5502 46.9304C90.4142 46.6504 90.2102 46.4304 89.9382 46.2704C89.6662 46.1104 89.3222 46.0304 88.9062 46.0304H86.9502V44.9984H88.6902C89.4102 44.9984 90.0102 45.1144 90.4902 45.3464C90.9782 45.5704 91.3462 45.8904 91.5942 46.3064C91.8422 46.7224 91.9662 47.2144 91.9662 47.7824V47.9744C91.9662 48.5344 91.8422 49.0264 91.5942 49.4504C91.3462 49.8664 90.9782 50.1904 90.4902 50.4224C90.0102 50.6464 89.4102 50.7584 88.6902 50.7584H86.9502ZM86.0142 53.8064V44.9984H87.1902V53.8064H86.0142ZM96.1288 54.0224C95.5688 54.0224 95.0848 53.9264 94.6768 53.7344C94.2688 53.5424 93.9368 53.2904 93.6808 52.9784C93.4248 52.6584 93.2328 52.3024 93.1048 51.9104C92.9848 51.5184 92.9248 51.1184 92.9248 50.7104V50.4944C92.9248 50.0784 92.9848 49.6744 93.1048 49.2824C93.2328 48.8904 93.4248 48.5384 93.6808 48.2264C93.9368 47.9064 94.2608 47.6544 94.6528 47.4704C95.0528 47.2784 95.5208 47.1824 96.0568 47.1824C96.7528 47.1824 97.3248 47.3344 97.7728 47.6384C98.2288 47.9344 98.5648 48.3184 98.7808 48.7904C99.0048 49.2624 99.1168 49.7664 99.1168 50.3024V50.8184H93.4288V49.9544H98.2768L98.0128 50.4224C98.0128 49.9664 97.9408 49.5744 97.7968 49.2464C97.6528 48.9104 97.4368 48.6504 97.1488 48.4664C96.8608 48.2824 96.4968 48.1904 96.0568 48.1904C95.6008 48.1904 95.2208 48.2944 94.9168 48.5024C94.6208 48.7104 94.3968 48.9944 94.2448 49.3544C94.1008 49.7144 94.0288 50.1304 94.0288 50.6024C94.0288 51.0584 94.1008 51.4704 94.2448 51.8384C94.3968 52.1984 94.6288 52.4864 94.9408 52.7024C95.2528 52.9104 95.6488 53.0144 96.1288 53.0144C96.6328 53.0144 97.0408 52.9024 97.3528 52.6784C97.6728 52.4544 97.8648 52.1944 97.9288 51.8984H99.0088C98.9208 52.3384 98.7448 52.7184 98.4808 53.0384C98.2168 53.3584 97.8848 53.6024 97.4848 53.7704C97.0848 53.9384 96.6328 54.0224 96.1288 54.0224ZM100.752 53.8064V47.3984H101.664V50.1464H101.52C101.52 49.5144 101.604 48.9824 101.772 48.5504C101.948 48.1104 102.212 47.7784 102.564 47.5544C102.916 47.3224 103.36 47.2064 103.896 47.2064H103.944C104.752 47.2064 105.348 47.4584 105.732 47.9624C106.124 48.4664 106.32 49.1944 106.32 50.1464V53.8064H105.168V49.9064C105.168 49.4104 105.028 49.0144 104.748 48.7184C104.468 48.4144 104.084 48.2624 103.596 48.2624C103.092 48.2624 102.684 48.4184 102.372 48.7304C102.06 49.0424 101.904 49.4584 101.904 49.9784V53.8064H100.752ZM111.104 54.0224C110.648 54.0224 110.228 53.9384 109.844 53.7704C109.46 53.6024 109.124 53.3664 108.836 53.0624C108.556 52.7584 108.336 52.4064 108.176 52.0064C108.024 51.6064 107.948 51.1744 107.948 50.7104V50.4944C107.948 50.0384 108.024 49.6104 108.176 49.2104C108.328 48.8104 108.54 48.4584 108.812 48.1544C109.092 47.8504 109.42 47.6144 109.796 47.4464C110.18 47.2704 110.604 47.1824 111.068 47.1824C111.556 47.1824 112 47.2864 112.4 47.4944C112.8 47.6944 113.128 48.0104 113.384 48.4424C113.64 48.8744 113.784 49.4344 113.816 50.1224L113.336 49.3544V45.0464H114.488V53.8064H113.576V50.9624H113.912C113.88 51.6904 113.728 52.2824 113.456 52.7384C113.184 53.1864 112.84 53.5144 112.424 53.7224C112.016 53.9224 111.576 54.0224 111.104 54.0224ZM111.26 53.0144C111.652 53.0144 112.008 52.9264 112.328 52.7504C112.648 52.5744 112.904 52.3224 113.096 51.9944C113.288 51.6584 113.384 51.2664 113.384 50.8184V50.2664C113.384 49.8264 113.284 49.4544 113.084 49.1504C112.892 48.8384 112.632 48.6024 112.304 48.4424C111.984 48.2744 111.632 48.1904 111.248 48.1904C110.824 48.1904 110.448 48.2904 110.12 48.4904C109.8 48.6904 109.548 48.9704 109.364 49.3304C109.188 49.6904 109.1 50.1144 109.1 50.6024C109.1 51.0904 109.192 51.5184 109.376 51.8864C109.56 52.2464 109.816 52.5264 110.144 52.7264C110.472 52.9184 110.844 53.0144 111.26 53.0144ZM117.014 53.8064V47.3984H118.166V53.8064H117.014ZM116.03 48.3104V47.3984H118.166V48.3104H116.03ZM117.338 46.3664C117.082 46.3664 116.89 46.2984 116.762 46.1624C116.642 46.0264 116.582 45.8544 116.582 45.6464C116.582 45.4384 116.642 45.2664 116.762 45.1304C116.89 44.9944 117.082 44.9264 117.338 44.9264C117.594 44.9264 117.782 44.9944 117.902 45.1304C118.03 45.2664 118.094 45.4384 118.094 45.6464C118.094 45.8544 118.03 46.0264 117.902 46.1624C117.782 46.2984 117.594 46.3664 117.338 46.3664ZM120.393 53.8064V47.3984H121.305V50.1464H121.161C121.161 49.5144 121.245 48.9824 121.413 48.5504C121.589 48.1104 121.853 47.7784 122.205 47.5544C122.557 47.3224 123.001 47.2064 123.537 47.2064H123.585C124.393 47.2064 124.989 47.4584 125.373 47.9624C125.765 48.4664 125.961 49.1944 125.961 50.1464V53.8064H124.809V49.9064C124.809 49.4104 124.669 49.0144 124.389 48.7184C124.109 48.4144 123.725 48.2624 123.237 48.2624C122.733 48.2624 122.325 48.4184 122.013 48.7304C121.701 49.0424 121.545 49.4584 121.545 49.9784V53.8064H120.393ZM130.493 56.3024C130.197 56.3024 129.897 56.2904 129.593 56.2664C129.297 56.2424 129.013 56.2104 128.741 56.1704V55.1984C129.029 55.2384 129.329 55.2704 129.641 55.2944C129.961 55.3264 130.261 55.3424 130.541 55.3424C131.125 55.3424 131.589 55.2624 131.933 55.1024C132.285 54.9504 132.537 54.7064 132.689 54.3704C132.849 54.0424 132.929 53.6184 132.929 53.0984V51.8744L133.313 50.9624C133.289 51.6104 133.153 52.1504 132.905 52.5824C132.657 53.0064 132.333 53.3264 131.933 53.5424C131.541 53.7504 131.105 53.8544 130.625 53.8544C130.177 53.8544 129.765 53.7704 129.389 53.6024C129.021 53.4264 128.701 53.1864 128.429 52.8824C128.165 52.5784 127.957 52.2304 127.805 51.8384C127.661 51.4384 127.589 51.0184 127.589 50.5784V50.3624C127.589 49.9144 127.665 49.4984 127.817 49.1144C127.969 48.7224 128.181 48.3824 128.453 48.0944C128.725 47.8064 129.049 47.5824 129.425 47.4224C129.809 47.2624 130.229 47.1824 130.685 47.1824C131.221 47.1824 131.693 47.2984 132.101 47.5304C132.509 47.7544 132.829 48.0864 133.061 48.5264C133.301 48.9584 133.433 49.4904 133.457 50.1224L133.121 50.1344V47.3984H134.033V53.0504C134.033 53.8184 133.913 54.4384 133.673 54.9104C133.441 55.3904 133.065 55.7424 132.545 55.9664C132.033 56.1904 131.349 56.3024 130.493 56.3024ZM130.841 52.7984C131.225 52.7984 131.573 52.7144 131.885 52.5464C132.205 52.3784 132.457 52.1384 132.641 51.8264C132.833 51.5064 132.929 51.1264 132.929 50.6864V50.1344C132.929 49.7024 132.829 49.3384 132.629 49.0424C132.437 48.7464 132.185 48.5224 131.873 48.3704C131.561 48.2184 131.221 48.1424 130.853 48.1424C130.437 48.1424 130.069 48.2384 129.749 48.4304C129.429 48.6224 129.181 48.8944 129.005 49.2464C128.829 49.5904 128.741 49.9984 128.741 50.4704C128.741 50.9424 128.829 51.3544 129.005 51.7064C129.189 52.0584 129.437 52.3304 129.749 52.5224C130.069 52.7064 130.433 52.7984 130.841 52.7984Z" fill="#858585"/>
</g>
<g filter="url(#filter1_dd_1088_22150)">
<rect x="29" y="71.7419" width="281.323" height="48.7742" rx="10.4516" fill="white"/>
<rect x="35.9678" y="78.7097" width="34.8387" height="34.8387" rx="6.96774" fill="#C1E5E6"/>
<g clip-path="url(#clip1_1088_22150)">
<path d="M46.5833 98.7499H48.4166V92.7091L59.0408 103.333L60.3333 102.041L49.7091 91.4166H55.7499V89.5833H46.5833V98.7499Z" fill="#18373F"/>
</g>
<rect x="84.7422" y="78.7097" width="104.516" height="14" rx="6.96774" fill="#EBEBEB"/>
<rect x="196.226" y="78.7097" width="40.5161" height="14" rx="6.96774" fill="#EBEBEB"/>
<path d="M89.8182 109.764C89.0182 109.764 88.3342 109.624 87.7662 109.344C87.2062 109.064 86.7542 108.7 86.4102 108.252C86.0662 107.804 85.8142 107.32 85.6542 106.8C85.4942 106.272 85.4142 105.764 85.4142 105.276V105.012C85.4142 104.484 85.4942 103.956 85.6542 103.428C85.8222 102.9 86.0782 102.42 86.4222 101.988C86.7662 101.556 87.2142 101.208 87.7662 100.944C88.3182 100.68 88.9782 100.548 89.7462 100.548C90.5302 100.548 91.2022 100.684 91.7622 100.956C92.3222 101.228 92.7662 101.608 93.0942 102.096C93.4222 102.584 93.6222 103.16 93.6942 103.824H92.4942C92.4302 103.328 92.2702 102.92 92.0142 102.6C91.7582 102.272 91.4342 102.028 91.0422 101.868C90.6582 101.708 90.2262 101.628 89.7462 101.628C89.2262 101.628 88.7702 101.72 88.3782 101.904C87.9862 102.08 87.6582 102.332 87.3942 102.66C87.1382 102.98 86.9422 103.352 86.8062 103.776C86.6782 104.2 86.6142 104.66 86.6142 105.156C86.6142 105.628 86.6782 106.076 86.8062 106.5C86.9422 106.924 87.1422 107.3 87.4062 107.628C87.6782 107.956 88.0142 108.216 88.4142 108.408C88.8142 108.592 89.2822 108.684 89.8182 108.684C90.5702 108.684 91.2022 108.496 91.7142 108.12C92.2262 107.744 92.5382 107.2 92.6502 106.488H93.8502C93.7702 107.088 93.5662 107.636 93.2382 108.132C92.9182 108.628 92.4702 109.024 91.8942 109.32C91.3262 109.616 90.6342 109.764 89.8182 109.764ZM98.3373 109.764C97.7773 109.764 97.2853 109.668 96.8613 109.476C96.4373 109.284 96.0773 109.032 95.7812 108.72C95.4933 108.4 95.2733 108.044 95.1213 107.652C94.9773 107.26 94.9053 106.86 94.9053 106.452V106.236C94.9053 105.828 94.9813 105.428 95.1333 105.036C95.2853 104.636 95.5093 104.28 95.8053 103.968C96.1013 103.648 96.4613 103.396 96.8853 103.212C97.3093 103.02 97.7933 102.924 98.3373 102.924C98.8813 102.924 99.3653 103.02 99.7893 103.212C100.213 103.396 100.573 103.648 100.869 103.968C101.165 104.28 101.389 104.636 101.541 105.036C101.693 105.428 101.769 105.828 101.769 106.236V106.452C101.769 106.86 101.693 107.26 101.541 107.652C101.397 108.044 101.177 108.4 100.881 108.72C100.593 109.032 100.237 109.284 99.8133 109.476C99.3893 109.668 98.8973 109.764 98.3373 109.764ZM98.3373 108.732C98.8173 108.732 99.2253 108.628 99.5613 108.42C99.9053 108.204 100.165 107.916 100.341 107.556C100.525 107.196 100.617 106.792 100.617 106.344C100.617 105.888 100.525 105.48 100.341 105.12C100.157 104.76 99.8933 104.476 99.5493 104.268C99.2133 104.06 98.8093 103.956 98.3373 103.956C97.8733 103.956 97.4693 104.06 97.1253 104.268C96.7813 104.476 96.5173 104.76 96.3333 105.12C96.1493 105.48 96.0573 105.888 96.0573 106.344C96.0573 106.792 96.1453 107.196 96.3213 107.556C96.5053 107.916 96.7653 108.204 97.1013 108.42C97.4453 108.628 97.8573 108.732 98.3373 108.732ZM103.567 109.548V100.788H104.719V109.548H103.567ZM102.679 101.7V100.788H104.719V101.7H102.679ZM107 109.548V100.788H108.152V109.548H107ZM106.112 101.7V100.788H108.152V101.7H106.112ZM113.086 109.764C112.526 109.764 112.042 109.668 111.634 109.476C111.226 109.284 110.894 109.032 110.638 108.72C110.382 108.4 110.19 108.044 110.062 107.652C109.942 107.26 109.882 106.86 109.882 106.452V106.236C109.882 105.82 109.942 105.416 110.062 105.024C110.19 104.632 110.382 104.28 110.638 103.968C110.894 103.648 111.218 103.396 111.61 103.212C112.01 103.02 112.478 102.924 113.014 102.924C113.71 102.924 114.282 103.076 114.73 103.38C115.186 103.676 115.522 104.06 115.738 104.532C115.962 105.004 116.074 105.508 116.074 106.044V106.56H110.386V105.696H115.234L114.97 106.164C114.97 105.708 114.898 105.316 114.754 104.988C114.61 104.652 114.394 104.392 114.106 104.208C113.818 104.024 113.454 103.932 113.014 103.932C112.558 103.932 112.178 104.036 111.874 104.244C111.578 104.452 111.354 104.736 111.202 105.096C111.058 105.456 110.986 105.872 110.986 106.344C110.986 106.8 111.058 107.212 111.202 107.58C111.354 107.94 111.586 108.228 111.898 108.444C112.21 108.652 112.606 108.756 113.086 108.756C113.59 108.756 113.998 108.644 114.31 108.42C114.63 108.196 114.822 107.936 114.886 107.64H115.966C115.878 108.08 115.702 108.46 115.438 108.78C115.174 109.1 114.842 109.344 114.442 109.512C114.042 109.68 113.59 109.764 113.086 109.764ZM120.457 109.764C119.905 109.764 119.425 109.668 119.017 109.476C118.617 109.284 118.285 109.028 118.021 108.708C117.757 108.38 117.557 108.02 117.421 107.628C117.293 107.236 117.229 106.844 117.229 106.452V106.236C117.229 105.828 117.293 105.428 117.421 105.036C117.557 104.644 117.757 104.292 118.021 103.98C118.293 103.66 118.629 103.404 119.029 103.212C119.429 103.02 119.897 102.924 120.433 102.924C120.969 102.924 121.449 103.024 121.873 103.224C122.305 103.424 122.649 103.708 122.905 104.076C123.169 104.436 123.317 104.864 123.349 105.36H122.245C122.189 104.96 122.005 104.628 121.693 104.364C121.381 104.092 120.961 103.956 120.433 103.956C119.977 103.956 119.597 104.06 119.293 104.268C118.989 104.476 118.761 104.76 118.609 105.12C118.457 105.48 118.381 105.888 118.381 106.344C118.381 106.784 118.457 107.188 118.609 107.556C118.761 107.916 118.989 108.204 119.293 108.42C119.605 108.628 119.993 108.732 120.457 108.732C120.817 108.732 121.129 108.668 121.393 108.54C121.657 108.412 121.869 108.24 122.029 108.024C122.189 107.808 122.285 107.564 122.317 107.292H123.421C123.397 107.796 123.249 108.232 122.977 108.6C122.713 108.968 122.361 109.256 121.921 109.464C121.489 109.664 121.001 109.764 120.457 109.764ZM127.483 109.62C127.003 109.62 126.587 109.552 126.235 109.416C125.891 109.28 125.623 109.048 125.431 108.72C125.247 108.384 125.155 107.932 125.155 107.364V101.196H126.259V107.508C126.259 107.852 126.351 108.12 126.535 108.312C126.727 108.496 126.995 108.588 127.339 108.588H128.467V109.62H127.483ZM124.051 104.004V103.14H128.467V104.004H124.051ZM132.773 109.764C132.213 109.764 131.729 109.668 131.321 109.476C130.913 109.284 130.581 109.032 130.325 108.72C130.069 108.4 129.877 108.044 129.749 107.652C129.629 107.26 129.569 106.86 129.569 106.452V106.236C129.569 105.82 129.629 105.416 129.749 105.024C129.877 104.632 130.069 104.28 130.325 103.968C130.581 103.648 130.905 103.396 131.297 103.212C131.697 103.02 132.165 102.924 132.701 102.924C133.397 102.924 133.969 103.076 134.417 103.38C134.873 103.676 135.209 104.06 135.425 104.532C135.649 105.004 135.761 105.508 135.761 106.044V106.56H130.073V105.696H134.921L134.657 106.164C134.657 105.708 134.585 105.316 134.441 104.988C134.297 104.652 134.081 104.392 133.793 104.208C133.505 104.024 133.141 103.932 132.701 103.932C132.245 103.932 131.865 104.036 131.561 104.244C131.265 104.452 131.041 104.736 130.889 105.096C130.745 105.456 130.673 105.872 130.673 106.344C130.673 106.8 130.745 107.212 130.889 107.58C131.041 107.94 131.273 108.228 131.585 108.444C131.897 108.652 132.293 108.756 132.773 108.756C133.277 108.756 133.685 108.644 133.997 108.42C134.317 108.196 134.509 107.936 134.573 107.64H135.653C135.565 108.08 135.389 108.46 135.125 108.78C134.861 109.1 134.529 109.344 134.129 109.512C133.729 109.68 133.277 109.764 132.773 109.764ZM140.073 109.764C139.617 109.764 139.197 109.68 138.813 109.512C138.429 109.344 138.093 109.108 137.805 108.804C137.525 108.5 137.305 108.148 137.145 107.748C136.993 107.348 136.917 106.916 136.917 106.452V106.236C136.917 105.78 136.993 105.352 137.145 104.952C137.297 104.552 137.509 104.2 137.781 103.896C138.061 103.592 138.389 103.356 138.765 103.188C139.149 103.012 139.573 102.924 140.037 102.924C140.525 102.924 140.969 103.028 141.369 103.236C141.769 103.436 142.097 103.752 142.353 104.184C142.609 104.616 142.753 105.176 142.785 105.864L142.305 105.096V100.788H143.457V109.548H142.545V106.704H142.881C142.849 107.432 142.697 108.024 142.425 108.48C142.153 108.928 141.809 109.256 141.393 109.464C140.985 109.664 140.545 109.764 140.073 109.764ZM140.229 108.756C140.621 108.756 140.977 108.668 141.297 108.492C141.617 108.316 141.873 108.064 142.065 107.736C142.257 107.4 142.353 107.008 142.353 106.56V106.008C142.353 105.568 142.253 105.196 142.053 104.892C141.861 104.58 141.601 104.344 141.273 104.184C140.953 104.016 140.601 103.932 140.217 103.932C139.793 103.932 139.417 104.032 139.089 104.232C138.769 104.432 138.517 104.712 138.333 105.072C138.157 105.432 138.069 105.856 138.069 106.344C138.069 106.832 138.161 107.26 138.345 107.628C138.529 107.988 138.785 108.268 139.113 108.468C139.441 108.66 139.813 108.756 140.229 108.756Z" fill="#858585"/>
</g>
<g filter="url(#filter2_dd_1088_22150)">
<rect x="29" y="127.484" width="281.323" height="48.7742" rx="10.4516" fill="white"/>
<rect x="35.9678" y="134.452" width="34.8387" height="34.8387" rx="6.96774" fill="#F7F7F7"/>
<g clip-path="url(#clip2_1088_22150)">
<path d="M66.4525 151.652C66.4525 144.791 60.8897 139.241 54.0412 139.241C47.18 139.241 41.6299 144.791 41.6299 151.652C41.6299 158.5 47.18 164.063 54.0412 164.063C60.8897 164.063 66.4525 158.5 66.4525 151.652Z" fill="#ECECEC"/>
</g>
<rect x="84.7422" y="134.452" width="104.516" height="10.4516" rx="5.22581" fill="#EBEBEB"/>
<rect x="196.226" y="134.452" width="40.9355" height="10.4516" rx="5.22581" fill="#EBEBEB"/>
<rect x="84.7422" y="151.871" width="104.516" height="17.4194" rx="8.70968" fill="#F8F8F8"/>
</g>
<g filter="url(#filter3_dd_1088_22150)">
<rect x="29" y="183.226" width="281.323" height="48.7742" rx="10.4516" fill="white"/>
<rect x="35.9678" y="190.194" width="34.8387" height="34.8387" rx="6.96774" fill="#F7F7F7"/>
<g clip-path="url(#clip3_1088_22150)">
<path d="M66.4525 207.394C66.4525 200.533 60.8897 194.983 54.0412 194.983C47.18 194.983 41.6299 200.533 41.6299 207.394C41.6299 214.242 47.18 219.805 54.0412 219.805C60.8897 219.805 66.4525 214.242 66.4525 207.394Z" fill="#ECECEC"/>
</g>
<rect x="84.7422" y="190.194" width="104.516" height="10.4516" rx="5.22581" fill="#EBEBEB"/>
<rect x="196.226" y="190.194" width="40.9355" height="10.4516" rx="5.22581" fill="#EBEBEB"/>
</g>
<g filter="url(#filter4_ddd_1088_22150)">
<rect x="136" y="28" width="196" height="51" rx="9.27273" fill="white" shape-rendering="crispEdges"/>
<rect x="136.58" y="28.5795" width="194.841" height="49.8409" rx="8.69318" stroke="#F0F3F4" stroke-width="1.15909" shape-rendering="crispEdges"/>
<path d="M160.852 41.9091C154.454 41.9091 149.273 47.1018 149.273 53.5C149.273 59.8981 154.454 65.0909 160.852 65.0909C167.262 65.0909 172.455 59.8981 172.455 53.5C172.455 47.1018 167.262 41.9091 160.852 41.9091ZM160.864 62.7727C155.741 62.7727 151.591 58.6231 151.591 53.5C151.591 48.3768 155.741 44.2272 160.864 44.2272C165.987 44.2272 170.137 48.3768 170.137 53.5C170.137 58.6231 165.987 62.7727 160.864 62.7727ZM161.443 47.7045H159.705V54.6591L165.79 58.3102L166.659 56.8845L161.443 53.7897V47.7045Z" fill="#026568"/>
<path d="M181.169 59V47.0567H183.831V59H181.169ZM188.358 59L184.885 53.9046H187.806L191.441 59H188.358ZM183.117 55.2028V53.1095H186.037C186.427 53.1095 186.762 53.0338 187.044 52.8823C187.336 52.72 187.557 52.4983 187.709 52.217C187.871 51.9249 187.952 51.5895 187.952 51.2109C187.952 50.8323 187.871 50.5023 187.709 50.221C187.557 49.929 187.336 49.7072 187.044 49.5557C186.762 49.3935 186.427 49.3123 186.037 49.3123H183.117V47.0567H185.826C186.811 47.0567 187.666 47.2082 188.39 47.5111C189.115 47.8032 189.672 48.2413 190.062 48.8255C190.451 49.4097 190.646 50.1453 190.646 51.0324V51.292C190.646 52.1683 190.446 52.8985 190.046 53.4827C189.656 54.0561 189.099 54.4888 188.374 54.7809C187.66 55.0622 186.811 55.2028 185.826 55.2028H183.117ZM196.791 59.3083C196.034 59.3083 195.363 59.1785 194.779 58.9189C194.206 58.6592 193.724 58.313 193.335 57.8803C192.956 57.4368 192.664 56.9445 192.459 56.4036C192.264 55.8519 192.167 55.2894 192.167 54.716V54.3915C192.167 53.7965 192.264 53.2285 192.459 52.6876C192.664 52.1359 192.956 51.6436 193.335 51.2109C193.714 50.7782 194.184 50.4374 194.747 50.1886C195.32 49.929 195.969 49.7991 196.694 49.7991C197.646 49.7991 198.446 50.0155 199.096 50.4482C199.755 50.8701 200.259 51.4273 200.605 52.1196C200.951 52.8012 201.124 53.5476 201.124 54.359V55.2353H193.254V53.7586H199.55L198.706 54.4401C198.706 53.91 198.63 53.4557 198.479 53.077C198.327 52.6984 198.1 52.4117 197.797 52.217C197.505 52.0115 197.137 51.9087 196.694 51.9087C196.24 51.9087 195.856 52.0115 195.542 52.217C195.228 52.4225 194.99 52.7255 194.828 53.1257C194.666 53.5152 194.584 53.9966 194.584 54.57C194.584 55.1 194.66 55.5652 194.812 55.9655C194.963 56.355 195.201 56.6579 195.526 56.8742C195.85 57.0906 196.272 57.1988 196.791 57.1988C197.267 57.1988 197.657 57.1068 197.96 56.9229C198.263 56.739 198.468 56.5118 198.576 56.2414H200.962C200.832 56.8364 200.578 57.3665 200.199 57.8316C199.82 58.2968 199.344 58.6592 198.771 58.9189C198.198 59.1785 197.538 59.3083 196.791 59.3083ZM202.844 62.2455V50.1075H204.905V53.9533L204.629 53.9371C204.673 53.05 204.857 52.3035 205.181 51.6977C205.506 51.0811 205.944 50.6213 206.496 50.3184C207.047 50.0047 207.669 49.8478 208.362 49.8478C208.978 49.8478 209.536 49.9614 210.033 50.1886C210.542 50.4158 210.974 50.7349 211.331 51.146C211.699 51.5463 211.975 52.0223 212.159 52.574C212.354 53.1149 212.451 53.7099 212.451 54.359V54.7322C212.451 55.3705 212.359 55.9709 212.175 56.5335C211.991 57.0852 211.721 57.5666 211.364 57.9777C211.018 58.3888 210.59 58.7133 210.082 58.9513C209.584 59.1785 209.011 59.2921 208.362 59.2921C207.691 59.2921 207.085 59.1569 206.544 58.8864C206.014 58.6051 205.587 58.1832 205.262 57.6207C204.938 57.0473 204.759 56.3225 204.727 55.4462L205.441 56.4199V62.2455H202.844ZM207.632 57.1176C208.075 57.1176 208.459 57.0095 208.784 56.7931C209.119 56.5767 209.379 56.2738 209.563 55.8844C209.746 55.4949 209.838 55.046 209.838 54.5375C209.838 54.029 209.746 53.5855 209.563 53.2069C209.379 52.8282 209.124 52.5361 208.8 52.3306C208.475 52.1142 208.086 52.006 207.632 52.006C207.242 52.006 206.874 52.098 206.528 52.2819C206.182 52.4658 205.901 52.7309 205.684 53.077C205.479 53.4124 205.376 53.8235 205.376 54.3103V54.9107C205.376 55.3759 205.484 55.7762 205.7 56.1115C205.928 56.4361 206.214 56.6849 206.561 56.858C206.907 57.0311 207.264 57.1176 207.632 57.1176ZM219.625 59V56.3712H219.187V53.5152C219.187 53.0608 219.079 52.72 218.863 52.4929C218.646 52.2657 218.3 52.1521 217.824 52.1521C217.586 52.1521 217.273 52.1575 216.883 52.1683C216.494 52.1791 216.093 52.1954 215.682 52.217C215.271 52.2386 214.898 52.2603 214.563 52.2819V50.0912C214.811 50.0696 215.103 50.048 215.439 50.0263C215.774 50.0047 216.12 49.9885 216.477 49.9776C216.834 49.9668 217.17 49.9614 217.483 49.9614C218.392 49.9614 219.155 50.0912 219.772 50.3509C220.399 50.6105 220.875 51.0054 221.2 51.5355C221.524 52.0547 221.686 52.7255 221.686 53.5476V59H219.625ZM216.786 59.2272C216.147 59.2272 215.585 59.1136 215.098 58.8864C214.622 58.6592 214.249 58.3347 213.978 57.9128C213.708 57.48 213.573 56.9662 213.573 56.3712C213.573 55.7221 213.74 55.192 214.076 54.7809C214.411 54.359 214.882 54.0507 215.488 53.856C216.093 53.6504 216.791 53.5476 217.581 53.5476H219.479V54.9919H217.565C217.11 54.9919 216.759 55.1055 216.51 55.3326C216.272 55.549 216.153 55.8465 216.153 56.2251C216.153 56.5821 216.272 56.8742 216.51 57.1014C216.759 57.3178 217.11 57.426 217.565 57.426C217.857 57.426 218.116 57.3773 218.344 57.2799C218.582 57.1717 218.776 56.9932 218.928 56.7444C219.079 56.4956 219.166 56.1494 219.187 55.7059L219.804 56.355C219.75 56.9716 219.598 57.4909 219.35 57.9128C219.112 58.3347 218.776 58.6592 218.344 58.8864C217.922 59.1136 217.402 59.2272 216.786 59.2272ZM223.649 62.5213V60.3144H225.499C225.78 60.3144 226.018 60.2765 226.213 60.2008C226.408 60.1359 226.565 60.0223 226.684 59.86C226.803 59.6978 226.9 59.476 226.976 59.1947L229.166 50.1075H231.633L229.15 59.714C228.977 60.4064 228.734 60.9581 228.42 61.3692C228.117 61.7803 227.706 62.0724 227.187 62.2455C226.678 62.4294 226.029 62.5213 225.239 62.5213H223.649ZM226.44 58.8053V56.7769H228.323V58.8053H226.44ZM225.369 58.8053L222.643 50.1075H225.256L227.836 58.8053H225.369ZM236.522 59V47.1541H239.134V59H236.522ZM235.467 49.0689V47.1541H239.134V49.0689H235.467ZM245.86 59.3083C245.081 59.3083 244.388 59.1893 243.782 58.9513C243.177 58.7025 242.663 58.3671 242.241 57.9452C241.83 57.5233 241.516 57.0419 241.3 56.501C241.083 55.9493 240.975 55.3705 240.975 54.7647V54.3915C240.975 53.7748 241.083 53.1906 241.3 52.6389C241.527 52.0764 241.851 51.5841 242.273 51.1622C242.706 50.7403 243.225 50.4104 243.831 50.1724C244.437 49.9235 245.113 49.7991 245.86 49.7991C246.628 49.7991 247.309 49.9235 247.904 50.1724C248.51 50.4104 249.024 50.7403 249.446 51.1622C249.868 51.5841 250.192 52.0764 250.419 52.6389C250.647 53.1906 250.76 53.7748 250.76 54.3915V54.7647C250.76 55.3705 250.652 55.9493 250.436 56.501C250.219 57.0419 249.9 57.5233 249.478 57.9452C249.067 58.3671 248.559 58.7025 247.953 58.9513C247.347 59.1893 246.649 59.3083 245.86 59.3083ZM245.86 57.1176C246.368 57.1176 246.79 57.0095 247.125 56.7931C247.461 56.5767 247.715 56.2738 247.888 55.8844C248.072 55.4949 248.164 55.0622 248.164 54.5862C248.164 54.0777 248.072 53.6342 247.888 53.2555C247.704 52.8661 247.439 52.5578 247.093 52.3306C246.757 52.1034 246.346 51.9898 245.86 51.9898C245.384 51.9898 244.972 52.1034 244.626 52.3306C244.28 52.5578 244.015 52.8661 243.831 53.2555C243.658 53.6342 243.571 54.0777 243.571 54.5862C243.571 55.0622 243.658 55.4949 243.831 55.8844C244.004 56.2738 244.264 56.5767 244.61 56.7931C244.956 57.0095 245.373 57.1176 245.86 57.1176ZM257.943 59V56.3712H257.505V53.5152C257.505 53.0608 257.397 52.72 257.181 52.4929C256.964 52.2657 256.618 52.1521 256.142 52.1521C255.904 52.1521 255.59 52.1575 255.201 52.1683C254.812 52.1791 254.411 52.1954 254 52.217C253.589 52.2386 253.216 52.2603 252.88 52.2819V50.0912C253.129 50.0696 253.421 50.048 253.757 50.0263C254.092 50.0047 254.438 49.9885 254.795 49.9776C255.152 49.9668 255.488 49.9614 255.801 49.9614C256.71 49.9614 257.473 50.0912 258.089 50.3509C258.717 50.6105 259.193 51.0054 259.517 51.5355C259.842 52.0547 260.004 52.7255 260.004 53.5476V59H257.943ZM255.104 59.2272C254.465 59.2272 253.903 59.1136 253.416 58.8864C252.94 58.6592 252.567 58.3347 252.296 57.9128C252.026 57.48 251.891 56.9662 251.891 56.3712C251.891 55.7221 252.058 55.192 252.394 54.7809C252.729 54.359 253.2 54.0507 253.805 53.856C254.411 53.6504 255.109 53.5476 255.899 53.5476H257.797V54.9919H255.883C255.428 54.9919 255.077 55.1055 254.828 55.3326C254.59 55.549 254.471 55.8465 254.471 56.2251C254.471 56.5821 254.59 56.8742 254.828 57.1014C255.077 57.3178 255.428 57.426 255.883 57.426C256.175 57.426 256.434 57.3773 256.661 57.2799C256.899 57.1717 257.094 56.9932 257.246 56.7444C257.397 56.4956 257.484 56.1494 257.505 55.7059L258.122 56.355C258.068 56.9716 257.916 57.4909 257.668 57.9128C257.43 58.3347 257.094 58.6592 256.661 58.8864C256.24 59.1136 255.72 59.2272 255.104 59.2272ZM262.207 59V50.1075H264.268V53.9209H264.122C264.122 53.0121 264.236 52.2549 264.463 51.649C264.701 51.0432 265.058 50.5889 265.534 50.286C266.01 49.983 266.588 49.8316 267.27 49.8316H267.384C268.422 49.8316 269.212 50.1724 269.753 50.8539C270.305 51.5246 270.58 52.547 270.58 53.9209V59H267.984V53.7748C267.984 53.2988 267.843 52.9094 267.562 52.6065C267.281 52.3035 266.902 52.1521 266.426 52.1521C265.939 52.1521 265.545 52.309 265.242 52.6227C264.95 52.9256 264.803 53.3259 264.803 53.8235V59H262.207ZM280.273 59.3083C279.516 59.3083 278.845 59.1785 278.261 58.9189C277.687 58.6592 277.206 58.313 276.817 57.8803C276.438 57.4368 276.146 56.9445 275.94 56.4036C275.746 55.8519 275.648 55.2894 275.648 54.716V54.3915C275.648 53.7965 275.746 53.2285 275.94 52.6876C276.146 52.1359 276.438 51.6436 276.817 51.2109C277.195 50.7782 277.666 50.4374 278.228 50.1886C278.802 49.929 279.451 49.7991 280.176 49.7991C281.128 49.7991 281.928 50.0155 282.577 50.4482C283.237 50.8701 283.74 51.4273 284.086 52.1196C284.433 52.8012 284.606 53.5476 284.606 54.359V55.2353H276.735V53.7586H283.032L282.188 54.4401C282.188 53.91 282.112 53.4557 281.961 53.077C281.809 52.6984 281.582 52.4117 281.279 52.217C280.987 52.0115 280.619 51.9087 280.176 51.9087C279.721 51.9087 279.337 52.0115 279.024 52.217C278.71 52.4225 278.472 52.7255 278.31 53.1257C278.147 53.5152 278.066 53.9966 278.066 54.57C278.066 55.1 278.142 55.5652 278.293 55.9655C278.445 56.355 278.683 56.6579 279.007 56.8742C279.332 57.0906 279.754 57.1988 280.273 57.1988C280.749 57.1988 281.138 57.1068 281.441 56.9229C281.744 56.739 281.95 56.5118 282.058 56.2414H284.443C284.314 56.8364 284.059 57.3665 283.681 57.8316C283.302 58.2968 282.826 58.6592 282.253 58.9189C281.679 59.1785 281.019 59.3083 280.273 59.3083ZM291.697 59V56.3712H291.259V53.5152C291.259 53.0608 291.151 52.72 290.935 52.4929C290.718 52.2657 290.372 52.1521 289.896 52.1521C289.658 52.1521 289.344 52.1575 288.955 52.1683C288.566 52.1791 288.165 52.1954 287.754 52.217C287.343 52.2386 286.97 52.2603 286.634 52.2819V50.0912C286.883 50.0696 287.175 50.048 287.511 50.0263C287.846 50.0047 288.192 49.9885 288.549 49.9776C288.906 49.9668 289.242 49.9614 289.555 49.9614C290.464 49.9614 291.227 50.0912 291.843 50.3509C292.471 50.6105 292.947 51.0054 293.271 51.5355C293.596 52.0547 293.758 52.7255 293.758 53.5476V59H291.697ZM288.858 59.2272C288.219 59.2272 287.657 59.1136 287.17 58.8864C286.694 58.6592 286.321 58.3347 286.05 57.9128C285.78 57.48 285.645 56.9662 285.645 56.3712C285.645 55.7221 285.812 55.192 286.148 54.7809C286.483 54.359 286.954 54.0507 287.559 53.856C288.165 53.6504 288.863 53.5476 289.653 53.5476H291.551V54.9919H289.637C289.182 54.9919 288.831 55.1055 288.582 55.3326C288.344 55.549 288.225 55.8465 288.225 56.2251C288.225 56.5821 288.344 56.8742 288.582 57.1014C288.831 57.3178 289.182 57.426 289.637 57.426C289.929 57.426 290.188 57.3773 290.415 57.2799C290.653 57.1717 290.848 56.9932 291 56.7444C291.151 56.4956 291.238 56.1494 291.259 55.7059L291.876 56.355C291.822 56.9716 291.67 57.4909 291.422 57.9128C291.184 58.3347 290.848 58.6592 290.415 58.8864C289.994 59.1136 289.474 59.2272 288.858 59.2272ZM295.961 59V50.1075H298.022V53.9209H297.973C297.973 52.666 298.238 51.6977 298.768 51.0162C299.309 50.3346 300.088 49.9939 301.105 49.9939H301.446V52.2332H300.797C300.083 52.2332 299.531 52.428 299.142 52.8174C298.752 53.196 298.557 53.7478 298.557 54.4726V59H295.961ZM302.905 59V47.1541H305.517V59H302.905ZM301.85 49.0689V47.1541H305.517V49.0689H301.85ZM307.812 62.5213V60.3144H309.662C309.944 60.3144 310.182 60.2765 310.376 60.2008C310.571 60.1359 310.728 60.0223 310.847 59.86C310.966 59.6978 311.063 59.476 311.139 59.1947L313.33 50.1075H315.796L313.313 59.714C313.14 60.4064 312.897 60.9581 312.583 61.3692C312.28 61.7803 311.869 62.0724 311.35 62.2455C310.841 62.4294 310.192 62.5213 309.403 62.5213H307.812ZM310.603 58.8053V56.7769H312.486V58.8053H310.603ZM309.532 58.8053L306.806 50.1075H309.419L311.999 58.8053H309.532Z" fill="#026568"/>
</g>
</g>
</g>
<defs>
<filter id="filter0_dd_1088_22150" x="23.7742" y="11.6452" width="291.774" height="59.2258" filterUnits="userSpaceOnUse" color-interpolation-filters="sRGB">
<feFlood flood-opacity="0" result="BackgroundImageFix"/>
<feColorMatrix in="SourceAlpha" type="matrix" values="0 0 0 0 0 0 0 0 0 0 0 0 0 0 0 0 0 0 127 0" result="hardAlpha"/>
<feOffset dy="0.870968"/>
<feGaussianBlur stdDeviation="2.6129"/>
<feComposite in2="hardAlpha" operator="out"/>
<feColorMatrix type="matrix" values="0 0 0 0 0 0 0 0 0 0 0 0 0 0 0 0 0 0 0.02 0"/>
<feBlend mode="normal" in2="BackgroundImageFix" result="effect1_dropShadow_1088_22150"/>
<feColorMatrix in="SourceAlpha" type="matrix" values="0 0 0 0 0 0 0 0 0 0 0 0 0 0 0 0 0 0 127 0" result="hardAlpha"/>
<feOffset dy="0.870968"/>
<feGaussianBlur stdDeviation="0.870968"/>
<feComposite in2="hardAlpha" operator="out"/>
<feColorMatrix type="matrix" values="0 0 0 0 0 0 0 0 0 0 0 0 0 0 0 0 0 0 0.08 0"/>
<feBlend mode="normal" in2="effect1_dropShadow_1088_22150" result="effect2_dropShadow_1088_22150"/>
<feBlend mode="normal" in="SourceGraphic" in2="effect2_dropShadow_1088_22150" result="shape"/>
</filter>
<filter id="filter1_dd_1088_22150" x="23.7742" y="67.3871" width="291.774" height="59.2258" filterUnits="userSpaceOnUse" color-interpolation-filters="sRGB">
<feFlood flood-opacity="0" result="BackgroundImageFix"/>
<feColorMatrix in="SourceAlpha" type="matrix" values="0 0 0 0 0 0 0 0 0 0 0 0 0 0 0 0 0 0 127 0" result="hardAlpha"/>
<feOffset dy="0.870968"/>
<feGaussianBlur stdDeviation="2.6129"/>
<feComposite in2="hardAlpha" operator="out"/>
<feColorMatrix type="matrix" values="0 0 0 0 0 0 0 0 0 0 0 0 0 0 0 0 0 0 0.02 0"/>
<feBlend mode="normal" in2="BackgroundImageFix" result="effect1_dropShadow_1088_22150"/>
<feColorMatrix in="SourceAlpha" type="matrix" values="0 0 0 0 0 0 0 0 0 0 0 0 0 0 0 0 0 0 127 0" result="hardAlpha"/>
<feOffset dy="0.870968"/>
<feGaussianBlur stdDeviation="0.870968"/>
<feComposite in2="hardAlpha" operator="out"/>
<feColorMatrix type="matrix" values="0 0 0 0 0 0 0 0 0 0 0 0 0 0 0 0 0 0 0.08 0"/>
<feBlend mode="normal" in2="effect1_dropShadow_1088_22150" result="effect2_dropShadow_1088_22150"/>
<feBlend mode="normal" in="SourceGraphic" in2="effect2_dropShadow_1088_22150" result="shape"/>
</filter>
<filter id="filter2_dd_1088_22150" x="23.7742" y="123.129" width="291.774" height="59.2258" filterUnits="userSpaceOnUse" color-interpolation-filters="sRGB">
<feFlood flood-opacity="0" result="BackgroundImageFix"/>
<feColorMatrix in="SourceAlpha" type="matrix" values="0 0 0 0 0 0 0 0 0 0 0 0 0 0 0 0 0 0 127 0" result="hardAlpha"/>
<feOffset dy="0.870968"/>
<feGaussianBlur stdDeviation="2.6129"/>
<feComposite in2="hardAlpha" operator="out"/>
<feColorMatrix type="matrix" values="0 0 0 0 0 0 0 0 0 0 0 0 0 0 0 0 0 0 0.02 0"/>
<feBlend mode="normal" in2="BackgroundImageFix" result="effect1_dropShadow_1088_22150"/>
<feColorMatrix in="SourceAlpha" type="matrix" values="0 0 0 0 0 0 0 0 0 0 0 0 0 0 0 0 0 0 127 0" result="hardAlpha"/>
<feOffset dy="0.870968"/>
<feGaussianBlur stdDeviation="0.870968"/>
<feComposite in2="hardAlpha" operator="out"/>
<feColorMatrix type="matrix" values="0 0 0 0 0 0 0 0 0 0 0 0 0 0 0 0 0 0 0.08 0"/>
<feBlend mode="normal" in2="effect1_dropShadow_1088_22150" result="effect2_dropShadow_1088_22150"/>
<feBlend mode="normal" in="SourceGraphic" in2="effect2_dropShadow_1088_22150" result="shape"/>
</filter>
<filter id="filter3_dd_1088_22150" x="23.7742" y="178.871" width="291.774" height="59.2258" filterUnits="userSpaceOnUse" color-interpolation-filters="sRGB">
<feFlood flood-opacity="0" result="BackgroundImageFix"/>
<feColorMatrix in="SourceAlpha" type="matrix" values="0 0 0 0 0 0 0 0 0 0 0 0 0 0 0 0 0 0 127 0" result="hardAlpha"/>
<feOffset dy="0.870968"/>
<feGaussianBlur stdDeviation="2.6129"/>
<feComposite in2="hardAlpha" operator="out"/>
<feColorMatrix type="matrix" values="0 0 0 0 0 0 0 0 0 0 0 0 0 0 0 0 0 0 0.02 0"/>
<feBlend mode="normal" in2="BackgroundImageFix" result="effect1_dropShadow_1088_22150"/>
<feColorMatrix in="SourceAlpha" type="matrix" values="0 0 0 0 0 0 0 0 0 0 0 0 0 0 0 0 0 0 127 0" result="hardAlpha"/>
<feOffset dy="0.870968"/>
<feGaussianBlur stdDeviation="0.870968"/>
<feComposite in2="hardAlpha" operator="out"/>
<feColorMatrix type="matrix" values="0 0 0 0 0 0 0 0 0 0 0 0 0 0 0 0 0 0 0.08 0"/>
<feBlend mode="normal" in2="effect1_dropShadow_1088_22150" result="effect2_dropShadow_1088_22150"/>
<feBlend mode="normal" in="SourceGraphic" in2="effect2_dropShadow_1088_22150" result="shape"/>
</filter>
<filter id="filter4_ddd_1088_22150" x="116" y="26.4359" width="236" height="92.5641" filterUnits="userSpaceOnUse" color-interpolation-filters="sRGB">
<feFlood flood-opacity="0" result="BackgroundImageFix"/>
<feColorMatrix in="SourceAlpha" type="matrix" values="0 0 0 0 0 0 0 0 0 0 0 0 0 0 0 0 0 0 127 0" result="hardAlpha"/>
<feOffset dy="0.435897"/>
<feGaussianBlur stdDeviation="1"/>
<feComposite in2="hardAlpha" operator="out"/>
<feColorMatrix type="matrix" values="0 0 0 0 0 0 0 0 0 0.32549 0 0 0 0 0.32549 0 0 0 0.3 0"/>
<feBlend mode="normal" in2="BackgroundImageFix" result="effect1_dropShadow_1088_22150"/>
<feColorMatrix in="SourceAlpha" type="matrix" values="0 0 0 0 0 0 0 0 0 0 0 0 0 0 0 0 0 0 127 0" result="hardAlpha"/>
<feOffset dy="8"/>
<feGaussianBlur stdDeviation="4"/>
<feComposite in2="hardAlpha" operator="out"/>
<feColorMatrix type="matrix" values="0 0 0 0 0 0 0 0 0 0.32549 0 0 0 0 0.32549 0 0 0 0.04 0"/>
<feBlend mode="normal" in2="effect1_dropShadow_1088_22150" result="effect2_dropShadow_1088_22150"/>
<feColorMatrix in="SourceAlpha" type="matrix" values="0 0 0 0 0 0 0 0 0 0 0 0 0 0 0 0 0 0 127 0" result="hardAlpha"/>
<feOffset dy="20"/>
<feGaussianBlur stdDeviation="10"/>
<feComposite in2="hardAlpha" operator="out"/>
<feColorMatrix type="matrix" values="0 0 0 0 0.00142559 0 0 0 0 0.325397 0 0 0 0 0.325397 0 0 0 0.03 0"/>
<feBlend mode="normal" in2="effect2_dropShadow_1088_22150" result="effect3_dropShadow_1088_22150"/>
<feBlend mode="normal" in="SourceGraphic" in2="effect3_dropShadow_1088_22150" result="shape"/>
</filter>
<linearGradient id="paint0_linear_1088_22150" x1="174.03" y1="-0.116024" x2="175.548" y2="199.836" gradientUnits="userSpaceOnUse">
<stop offset="0.351835" stop-opacity="0.99"/>
<stop offset="0.691297" stop-opacity="0.67"/>
<stop offset="0.882447" stop-opacity="0"/>
</linearGradient>
<clipPath id="clip0_1088_22150">
<rect width="339" height="200" fill="white"/>
</clipPath>
<clipPath id="clip1_1088_22150">
<rect width="27.871" height="27.871" fill="white" transform="translate(39.4521 82.194)"/>
</clipPath>
<clipPath id="clip2_1088_22150">
<rect width="27.871" height="27.871" fill="white" transform="translate(39.4521 137.936)"/>
</clipPath>
<clipPath id="clip3_1088_22150">
<rect width="27.871" height="27.871" fill="white" transform="translate(39.4521 193.674)"/>
</clipPath>
</defs>
</svg>
