<svg width="336" height="397" viewBox="0 0 336 397" fill="none" xmlns="http://www.w3.org/2000/svg">
<g filter="url(#filter0_bdddd_1941_42671)">
<rect x="50" y="35" width="236" height="297" fill="url(#paint0_radial_1941_42671)" fill-opacity="0.8" shape-rendering="crispEdges"/>
<rect x="73" y="122" width="24" height="24" rx="3" fill="#BBE0D9"/>
<path d="M85.0002 136.56L79.4402 131L77.5469 132.88L85.0002 140.333L101 124.333L99.1202 122.453L85.0002 136.56Z" fill="#128081"/>
<path d="M117.704 131.266C116.78 131.266 116.001 131.121 115.366 130.832C114.731 130.533 114.251 130.132 113.924 129.628C113.597 129.115 113.434 128.527 113.434 127.864H115.66C115.66 128.125 115.73 128.368 115.87 128.592C116.019 128.816 116.243 128.998 116.542 129.138C116.841 129.269 117.228 129.334 117.704 129.334C118.133 129.334 118.493 129.278 118.782 129.166C119.071 129.054 119.291 128.9 119.44 128.704C119.589 128.499 119.664 128.265 119.664 128.004C119.664 127.677 119.524 127.421 119.244 127.234C118.964 127.038 118.511 126.912 117.886 126.856L117.116 126.786C116.099 126.702 115.287 126.385 114.68 125.834C114.073 125.283 113.77 124.555 113.77 123.65C113.77 122.997 113.924 122.432 114.232 121.956C114.549 121.48 114.988 121.116 115.548 120.864C116.108 120.603 116.771 120.472 117.536 120.472C118.339 120.472 119.025 120.612 119.594 120.892C120.173 121.163 120.616 121.55 120.924 122.054C121.232 122.549 121.386 123.132 121.386 123.804H119.146C119.146 123.552 119.085 123.323 118.964 123.118C118.843 122.903 118.661 122.731 118.418 122.6C118.185 122.469 117.891 122.404 117.536 122.404C117.2 122.404 116.915 122.46 116.682 122.572C116.458 122.684 116.29 122.838 116.178 123.034C116.066 123.221 116.01 123.426 116.01 123.65C116.01 123.939 116.113 124.191 116.318 124.406C116.523 124.621 116.859 124.747 117.326 124.784L118.11 124.854C118.857 124.919 119.515 125.083 120.084 125.344C120.653 125.596 121.097 125.946 121.414 126.394C121.741 126.833 121.904 127.369 121.904 128.004C121.904 128.657 121.731 129.231 121.386 129.726C121.05 130.211 120.569 130.589 119.944 130.86C119.319 131.131 118.572 131.266 117.704 131.266ZM123.36 133.8V123.328H125.138V126.646L124.9 126.632C124.937 125.867 125.096 125.223 125.376 124.7C125.656 124.168 126.034 123.771 126.51 123.51C126.986 123.239 127.523 123.104 128.12 123.104C128.652 123.104 129.133 123.202 129.562 123.398C130.001 123.594 130.374 123.869 130.682 124.224C130.999 124.569 131.237 124.98 131.396 125.456C131.564 125.923 131.648 126.436 131.648 126.996V127.318C131.648 127.869 131.569 128.387 131.41 128.872C131.251 129.348 131.018 129.763 130.71 130.118C130.411 130.473 130.043 130.753 129.604 130.958C129.175 131.154 128.68 131.252 128.12 131.252C127.541 131.252 127.019 131.135 126.552 130.902C126.095 130.659 125.726 130.295 125.446 129.81C125.166 129.315 125.012 128.69 124.984 127.934L125.6 128.774V133.8H123.36ZM127.49 129.376C127.873 129.376 128.204 129.283 128.484 129.096C128.773 128.909 128.997 128.648 129.156 128.312C129.315 127.976 129.394 127.589 129.394 127.15C129.394 126.711 129.315 126.329 129.156 126.002C128.997 125.675 128.778 125.423 128.498 125.246C128.218 125.059 127.882 124.966 127.49 124.966C127.154 124.966 126.837 125.045 126.538 125.204C126.239 125.363 125.997 125.591 125.81 125.89C125.633 126.179 125.544 126.534 125.544 126.954V127.472C125.544 127.873 125.637 128.219 125.824 128.508C126.02 128.788 126.267 129.003 126.566 129.152C126.865 129.301 127.173 129.376 127.49 129.376ZM136.718 131.266C136.064 131.266 135.486 131.154 134.982 130.93C134.487 130.706 134.072 130.407 133.736 130.034C133.409 129.651 133.157 129.227 132.98 128.76C132.812 128.284 132.728 127.799 132.728 127.304V127.024C132.728 126.511 132.812 126.021 132.98 125.554C133.157 125.078 133.409 124.653 133.736 124.28C134.062 123.907 134.468 123.613 134.954 123.398C135.448 123.174 136.008 123.062 136.634 123.062C137.455 123.062 138.146 123.249 138.706 123.622C139.275 123.986 139.709 124.467 140.008 125.064C140.306 125.652 140.456 126.296 140.456 126.996V127.752H133.666V126.478H139.098L138.37 127.066C138.37 126.609 138.304 126.217 138.174 125.89C138.043 125.563 137.847 125.316 137.586 125.148C137.334 124.971 137.016 124.882 136.634 124.882C136.242 124.882 135.91 124.971 135.64 125.148C135.369 125.325 135.164 125.587 135.024 125.932C134.884 126.268 134.814 126.683 134.814 127.178C134.814 127.635 134.879 128.037 135.01 128.382C135.14 128.718 135.346 128.979 135.626 129.166C135.906 129.353 136.27 129.446 136.718 129.446C137.128 129.446 137.464 129.367 137.726 129.208C137.987 129.049 138.164 128.853 138.258 128.62H140.316C140.204 129.133 139.984 129.591 139.658 129.992C139.331 130.393 138.92 130.706 138.426 130.93C137.931 131.154 137.362 131.266 136.718 131.266ZM145.454 131.266C144.801 131.266 144.222 131.154 143.718 130.93C143.223 130.706 142.808 130.407 142.472 130.034C142.145 129.651 141.893 129.227 141.716 128.76C141.548 128.284 141.464 127.799 141.464 127.304V127.024C141.464 126.511 141.548 126.021 141.716 125.554C141.893 125.078 142.145 124.653 142.472 124.28C142.799 123.907 143.205 123.613 143.69 123.398C144.185 123.174 144.745 123.062 145.37 123.062C146.191 123.062 146.882 123.249 147.442 123.622C148.011 123.986 148.445 124.467 148.744 125.064C149.043 125.652 149.192 126.296 149.192 126.996V127.752H142.402V126.478H147.834L147.106 127.066C147.106 126.609 147.041 126.217 146.91 125.89C146.779 125.563 146.583 125.316 146.322 125.148C146.07 124.971 145.753 124.882 145.37 124.882C144.978 124.882 144.647 124.971 144.376 125.148C144.105 125.325 143.9 125.587 143.76 125.932C143.62 126.268 143.55 126.683 143.55 127.178C143.55 127.635 143.615 128.037 143.746 128.382C143.877 128.718 144.082 128.979 144.362 129.166C144.642 129.353 145.006 129.446 145.454 129.446C145.865 129.446 146.201 129.367 146.462 129.208C146.723 129.049 146.901 128.853 146.994 128.62H149.052C148.94 129.133 148.721 129.591 148.394 129.992C148.067 130.393 147.657 130.706 147.162 130.93C146.667 131.154 146.098 131.266 145.454 131.266ZM153.84 131.252C153.299 131.252 152.804 131.154 152.356 130.958C151.918 130.762 151.535 130.491 151.208 130.146C150.882 129.791 150.63 129.376 150.452 128.9C150.284 128.424 150.2 127.911 150.2 127.36V127.038C150.2 126.487 150.28 125.974 150.438 125.498C150.606 125.022 150.844 124.607 151.152 124.252C151.47 123.888 151.848 123.608 152.286 123.412C152.725 123.207 153.215 123.104 153.756 123.104C154.372 123.104 154.904 123.239 155.352 123.51C155.8 123.771 156.15 124.163 156.402 124.686C156.654 125.199 156.794 125.834 156.822 126.59L156.234 126.044V120.78H158.488V131H156.71V127.822H157.018C156.99 128.55 156.836 129.171 156.556 129.684C156.286 130.197 155.917 130.589 155.45 130.86C154.984 131.121 154.447 131.252 153.84 131.252ZM154.4 129.376C154.746 129.376 155.058 129.301 155.338 129.152C155.628 128.993 155.856 128.765 156.024 128.466C156.202 128.167 156.29 127.808 156.29 127.388V126.87C156.29 126.459 156.202 126.114 156.024 125.834C155.847 125.554 155.614 125.339 155.324 125.19C155.035 125.041 154.722 124.966 154.386 124.966C154.013 124.966 153.677 125.064 153.378 125.26C153.089 125.447 152.86 125.708 152.692 126.044C152.524 126.371 152.44 126.753 152.44 127.192C152.44 127.64 152.524 128.027 152.692 128.354C152.86 128.681 153.094 128.933 153.392 129.11C153.691 129.287 154.027 129.376 154.4 129.376ZM166.05 131.238C165.163 131.238 164.482 130.953 164.006 130.384C163.53 129.805 163.292 128.937 163.292 127.78V123.328H165.532V127.892C165.532 128.303 165.648 128.629 165.882 128.872C166.115 129.115 166.428 129.236 166.82 129.236C167.221 129.236 167.548 129.11 167.8 128.858C168.052 128.606 168.178 128.265 168.178 127.836V123.328H170.418V131H168.64V127.766H168.794C168.794 128.541 168.691 129.189 168.486 129.712C168.29 130.225 167.996 130.608 167.604 130.86C167.212 131.112 166.726 131.238 166.148 131.238H166.05ZM172.483 133.8V123.328H174.261V126.646L174.023 126.632C174.06 125.867 174.219 125.223 174.499 124.7C174.779 124.168 175.157 123.771 175.633 123.51C176.109 123.239 176.646 123.104 177.243 123.104C177.775 123.104 178.256 123.202 178.685 123.398C179.124 123.594 179.497 123.869 179.805 124.224C180.122 124.569 180.36 124.98 180.519 125.456C180.687 125.923 180.771 126.436 180.771 126.996V127.318C180.771 127.869 180.692 128.387 180.533 128.872C180.374 129.348 180.141 129.763 179.833 130.118C179.534 130.473 179.166 130.753 178.727 130.958C178.298 131.154 177.803 131.252 177.243 131.252C176.664 131.252 176.142 131.135 175.675 130.902C175.218 130.659 174.849 130.295 174.569 129.81C174.289 129.315 174.135 128.69 174.107 127.934L174.723 128.774V133.8H172.483ZM176.613 129.376C176.996 129.376 177.327 129.283 177.607 129.096C177.896 128.909 178.12 128.648 178.279 128.312C178.438 127.976 178.517 127.589 178.517 127.15C178.517 126.711 178.438 126.329 178.279 126.002C178.12 125.675 177.901 125.423 177.621 125.246C177.341 125.059 177.005 124.966 176.613 124.966C176.277 124.966 175.96 125.045 175.661 125.204C175.362 125.363 175.12 125.591 174.933 125.89C174.756 126.179 174.667 126.534 174.667 126.954V127.472C174.667 127.873 174.76 128.219 174.947 128.508C175.143 128.788 175.39 129.003 175.689 129.152C175.988 129.301 176.296 129.376 176.613 129.376ZM185.182 134.038V132.134H186.778C187.021 132.134 187.226 132.101 187.394 132.036C187.562 131.98 187.697 131.882 187.8 131.742C187.903 131.602 187.987 131.411 188.052 131.168L189.942 123.328H192.07L189.928 131.616C189.779 132.213 189.569 132.689 189.298 133.044C189.037 133.399 188.682 133.651 188.234 133.8C187.795 133.959 187.235 134.038 186.554 134.038H185.182ZM187.59 130.832V129.082H189.214V130.832H187.59ZM186.666 130.832L184.314 123.328H186.568L188.794 130.832H186.666ZM196.811 131.266C196.139 131.266 195.541 131.163 195.019 130.958C194.496 130.743 194.053 130.454 193.689 130.09C193.334 129.726 193.063 129.311 192.877 128.844C192.69 128.368 192.597 127.869 192.597 127.346V127.024C192.597 126.492 192.69 125.988 192.877 125.512C193.073 125.027 193.353 124.602 193.717 124.238C194.09 123.874 194.538 123.589 195.061 123.384C195.583 123.169 196.167 123.062 196.811 123.062C197.473 123.062 198.061 123.169 198.575 123.384C199.097 123.589 199.541 123.874 199.905 124.238C200.269 124.602 200.549 125.027 200.745 125.512C200.941 125.988 201.039 126.492 201.039 127.024V127.346C201.039 127.869 200.945 128.368 200.759 128.844C200.572 129.311 200.297 129.726 199.933 130.09C199.578 130.454 199.139 130.743 198.617 130.958C198.094 131.163 197.492 131.266 196.811 131.266ZM196.811 129.376C197.249 129.376 197.613 129.283 197.903 129.096C198.192 128.909 198.411 128.648 198.561 128.312C198.719 127.976 198.799 127.603 198.799 127.192C198.799 126.753 198.719 126.371 198.561 126.044C198.402 125.708 198.173 125.442 197.875 125.246C197.585 125.05 197.231 124.952 196.811 124.952C196.4 124.952 196.045 125.05 195.747 125.246C195.448 125.442 195.219 125.708 195.061 126.044C194.911 126.371 194.837 126.753 194.837 127.192C194.837 127.603 194.911 127.976 195.061 128.312C195.21 128.648 195.434 128.909 195.733 129.096C196.031 129.283 196.391 129.376 196.811 129.376ZM205.192 131.238C204.305 131.238 203.624 130.953 203.148 130.384C202.672 129.805 202.434 128.937 202.434 127.78V123.328H204.674V127.892C204.674 128.303 204.791 128.629 205.024 128.872C205.257 129.115 205.57 129.236 205.962 129.236C206.363 129.236 206.69 129.11 206.942 128.858C207.194 128.606 207.32 128.265 207.32 127.836V123.328H209.56V131H207.782V127.766H207.936C207.936 128.541 207.833 129.189 207.628 129.712C207.432 130.225 207.138 130.608 206.746 130.86C206.354 131.112 205.869 131.238 205.29 131.238H205.192ZM211.626 131V123.328H213.404V126.618H213.362C213.362 125.535 213.59 124.7 214.048 124.112C214.514 123.524 215.186 123.23 216.064 123.23H216.358V125.162H215.798C215.182 125.162 214.706 125.33 214.37 125.666C214.034 125.993 213.866 126.469 213.866 127.094V131H211.626ZM117.466 147.266C116.803 147.266 116.225 147.159 115.73 146.944C115.245 146.72 114.839 146.421 114.512 146.048C114.185 145.675 113.943 145.255 113.784 144.788C113.625 144.312 113.546 143.822 113.546 143.318V143.052C113.546 142.529 113.63 142.03 113.798 141.554C113.966 141.069 114.213 140.639 114.54 140.266C114.867 139.893 115.273 139.599 115.758 139.384C116.253 139.169 116.817 139.062 117.452 139.062C118.143 139.062 118.754 139.197 119.286 139.468C119.818 139.729 120.243 140.098 120.56 140.574C120.877 141.05 121.055 141.596 121.092 142.212H118.894C118.857 141.867 118.717 141.577 118.474 141.344C118.241 141.101 117.9 140.98 117.452 140.98C117.079 140.98 116.766 141.073 116.514 141.26C116.271 141.447 116.089 141.703 115.968 142.03C115.847 142.357 115.786 142.744 115.786 143.192C115.786 143.603 115.842 143.976 115.954 144.312C116.066 144.639 116.243 144.895 116.486 145.082C116.738 145.259 117.065 145.348 117.466 145.348C117.765 145.348 118.017 145.297 118.222 145.194C118.437 145.082 118.605 144.933 118.726 144.746C118.857 144.55 118.936 144.326 118.964 144.074H121.148C121.12 144.709 120.943 145.269 120.616 145.754C120.289 146.23 119.855 146.603 119.314 146.874C118.773 147.135 118.157 147.266 117.466 147.266ZM122.679 147V136.78H124.933V147H122.679ZM121.769 138.432V136.78H124.933V138.432H121.769ZM127.361 147V139.328H129.601V147H127.361ZM126.339 140.98V139.328H129.601V140.98H126.339ZM128.229 138.572C127.809 138.572 127.496 138.465 127.291 138.25C127.095 138.026 126.997 137.746 126.997 137.41C126.997 137.065 127.095 136.785 127.291 136.57C127.496 136.346 127.809 136.234 128.229 136.234C128.649 136.234 128.957 136.346 129.153 136.57C129.358 136.785 129.461 137.065 129.461 137.41C129.461 137.746 129.358 138.026 129.153 138.25C128.957 138.465 128.649 138.572 128.229 138.572ZM135.186 147.266C134.533 147.266 133.954 147.154 133.45 146.93C132.956 146.706 132.54 146.407 132.204 146.034C131.878 145.651 131.626 145.227 131.448 144.76C131.28 144.284 131.196 143.799 131.196 143.304V143.024C131.196 142.511 131.28 142.021 131.448 141.554C131.626 141.078 131.878 140.653 132.204 140.28C132.531 139.907 132.937 139.613 133.422 139.398C133.917 139.174 134.477 139.062 135.102 139.062C135.924 139.062 136.614 139.249 137.174 139.622C137.744 139.986 138.178 140.467 138.476 141.064C138.775 141.652 138.924 142.296 138.924 142.996V143.752H132.134V142.478H137.566L136.838 143.066C136.838 142.609 136.773 142.217 136.642 141.89C136.512 141.563 136.316 141.316 136.054 141.148C135.802 140.971 135.485 140.882 135.102 140.882C134.71 140.882 134.379 140.971 134.108 141.148C133.838 141.325 133.632 141.587 133.492 141.932C133.352 142.268 133.282 142.683 133.282 143.178C133.282 143.635 133.348 144.037 133.478 144.382C133.609 144.718 133.814 144.979 134.094 145.166C134.374 145.353 134.738 145.446 135.186 145.446C135.597 145.446 135.933 145.367 136.194 145.208C136.456 145.049 136.633 144.853 136.726 144.62H138.784C138.672 145.133 138.453 145.591 138.126 145.992C137.8 146.393 137.389 146.706 136.894 146.93C136.4 147.154 135.83 147.266 135.186 147.266ZM140.409 147V139.328H142.187V142.618H142.061C142.061 141.834 142.159 141.181 142.355 140.658C142.56 140.135 142.868 139.743 143.279 139.482C143.689 139.221 144.189 139.09 144.777 139.09H144.875C145.771 139.09 146.452 139.384 146.919 139.972C147.395 140.551 147.633 141.433 147.633 142.618V147H145.393V142.492C145.393 142.081 145.271 141.745 145.029 141.484C144.786 141.223 144.459 141.092 144.049 141.092C143.629 141.092 143.288 141.227 143.027 141.498C142.775 141.759 142.649 142.105 142.649 142.534V147H140.409ZM153.028 147.098C152.253 147.098 151.628 147.005 151.152 146.818C150.676 146.622 150.326 146.3 150.102 145.852C149.887 145.395 149.78 144.779 149.78 144.004V137.256H151.866V144.088C151.866 144.452 151.959 144.732 152.146 144.928C152.342 145.115 152.617 145.208 152.972 145.208H154.106V147.098H153.028ZM148.618 140.966V139.328H154.106V140.966H148.618ZM155.136 141.554V140.28H155.57C155.822 140.28 156.023 140.243 156.172 140.168C156.331 140.093 156.447 139.963 156.522 139.776C156.597 139.58 156.634 139.314 156.634 138.978V137.956L157.054 138.824C156.989 138.88 156.895 138.927 156.774 138.964C156.653 138.992 156.517 139.006 156.368 139.006C156.041 139.006 155.766 138.908 155.542 138.712C155.318 138.507 155.206 138.222 155.206 137.858C155.206 137.513 155.313 137.223 155.528 136.99C155.743 136.747 156.051 136.626 156.452 136.626C156.713 136.626 156.951 136.687 157.166 136.808C157.39 136.929 157.567 137.135 157.698 137.424C157.838 137.713 157.908 138.105 157.908 138.6V138.81C157.908 139.473 157.81 140.005 157.614 140.406C157.427 140.807 157.152 141.101 156.788 141.288C156.424 141.465 155.976 141.554 155.444 141.554H155.136ZM161.791 147.238C160.699 147.238 159.845 147.014 159.229 146.566C158.613 146.118 158.287 145.488 158.249 144.676H160.237C160.275 144.919 160.419 145.138 160.671 145.334C160.933 145.521 161.32 145.614 161.833 145.614C162.225 145.614 162.547 145.549 162.799 145.418C163.061 145.278 163.191 145.082 163.191 144.83C163.191 144.606 163.093 144.429 162.897 144.298C162.701 144.158 162.351 144.06 161.847 144.004L161.245 143.948C160.321 143.855 159.626 143.598 159.159 143.178C158.702 142.758 158.473 142.221 158.473 141.568C158.473 141.027 158.609 140.574 158.879 140.21C159.15 139.846 159.523 139.571 159.999 139.384C160.485 139.197 161.035 139.104 161.651 139.104C162.641 139.104 163.439 139.323 164.045 139.762C164.652 140.191 164.969 140.817 164.997 141.638H163.009C162.972 141.386 162.841 141.176 162.617 141.008C162.393 140.831 162.062 140.742 161.623 140.742C161.278 140.742 161.003 140.807 160.797 140.938C160.592 141.069 160.489 141.246 160.489 141.47C160.489 141.685 160.578 141.848 160.755 141.96C160.933 142.072 161.222 142.151 161.623 142.198L162.225 142.254C163.168 142.357 163.901 142.618 164.423 143.038C164.946 143.458 165.207 144.023 165.207 144.732C165.207 145.245 165.067 145.693 164.787 146.076C164.507 146.449 164.111 146.739 163.597 146.944C163.084 147.14 162.482 147.238 161.791 147.238ZM174.232 147V144.732H173.854V142.268C173.854 141.876 173.761 141.582 173.574 141.386C173.388 141.19 173.089 141.092 172.678 141.092C172.473 141.092 172.202 141.097 171.866 141.106C171.53 141.115 171.185 141.129 170.83 141.148C170.476 141.167 170.154 141.185 169.864 141.204V139.314C170.079 139.295 170.331 139.277 170.62 139.258C170.91 139.239 171.208 139.225 171.516 139.216C171.824 139.207 172.114 139.202 172.384 139.202C173.168 139.202 173.826 139.314 174.358 139.538C174.9 139.762 175.31 140.103 175.59 140.56C175.87 141.008 176.01 141.587 176.01 142.296V147H174.232ZM171.782 147.196C171.232 147.196 170.746 147.098 170.326 146.902C169.916 146.706 169.594 146.426 169.36 146.062C169.127 145.689 169.01 145.245 169.01 144.732C169.01 144.172 169.155 143.715 169.444 143.36C169.734 142.996 170.14 142.73 170.662 142.562C171.185 142.385 171.787 142.296 172.468 142.296H174.106V143.542H172.454C172.062 143.542 171.759 143.64 171.544 143.836C171.339 144.023 171.236 144.279 171.236 144.606C171.236 144.914 171.339 145.166 171.544 145.362C171.759 145.549 172.062 145.642 172.454 145.642C172.706 145.642 172.93 145.6 173.126 145.516C173.332 145.423 173.5 145.269 173.63 145.054C173.761 144.839 173.836 144.541 173.854 144.158L174.386 144.718C174.34 145.25 174.209 145.698 173.994 146.062C173.789 146.426 173.5 146.706 173.126 146.902C172.762 147.098 172.314 147.196 171.782 147.196ZM177.911 149.8V139.328H179.689V142.646L179.451 142.632C179.488 141.867 179.647 141.223 179.927 140.7C180.207 140.168 180.585 139.771 181.061 139.51C181.537 139.239 182.073 139.104 182.671 139.104C183.203 139.104 183.683 139.202 184.113 139.398C184.551 139.594 184.925 139.869 185.233 140.224C185.55 140.569 185.788 140.98 185.947 141.456C186.115 141.923 186.199 142.436 186.199 142.996V143.318C186.199 143.869 186.119 144.387 185.961 144.872C185.802 145.348 185.569 145.763 185.261 146.118C184.962 146.473 184.593 146.753 184.155 146.958C183.725 147.154 183.231 147.252 182.671 147.252C182.092 147.252 181.569 147.135 181.103 146.902C180.645 146.659 180.277 146.295 179.997 145.81C179.717 145.315 179.563 144.69 179.535 143.934L180.151 144.774V149.8H177.911ZM182.041 145.376C182.423 145.376 182.755 145.283 183.035 145.096C183.324 144.909 183.548 144.648 183.707 144.312C183.865 143.976 183.945 143.589 183.945 143.15C183.945 142.711 183.865 142.329 183.707 142.002C183.548 141.675 183.329 141.423 183.049 141.246C182.769 141.059 182.433 140.966 182.041 140.966C181.705 140.966 181.387 141.045 181.089 141.204C180.79 141.363 180.547 141.591 180.361 141.89C180.183 142.179 180.095 142.534 180.095 142.954V143.472C180.095 143.873 180.188 144.219 180.375 144.508C180.571 144.788 180.818 145.003 181.117 145.152C181.415 145.301 181.723 145.376 182.041 145.376ZM187.754 149.8V139.328H189.532V142.646L189.294 142.632C189.332 141.867 189.49 141.223 189.77 140.7C190.05 140.168 190.428 139.771 190.904 139.51C191.38 139.239 191.917 139.104 192.514 139.104C193.046 139.104 193.527 139.202 193.956 139.398C194.395 139.594 194.768 139.869 195.076 140.224C195.394 140.569 195.632 140.98 195.79 141.456C195.958 141.923 196.042 142.436 196.042 142.996V143.318C196.042 143.869 195.963 144.387 195.804 144.872C195.646 145.348 195.412 145.763 195.104 146.118C194.806 146.473 194.437 146.753 193.998 146.958C193.569 147.154 193.074 147.252 192.514 147.252C191.936 147.252 191.413 147.135 190.946 146.902C190.489 146.659 190.12 146.295 189.84 145.81C189.56 145.315 189.406 144.69 189.378 143.934L189.994 144.774V149.8H187.754ZM191.884 145.376C192.267 145.376 192.598 145.283 192.878 145.096C193.168 144.909 193.392 144.648 193.55 144.312C193.709 143.976 193.788 143.589 193.788 143.15C193.788 142.711 193.709 142.329 193.55 142.002C193.392 141.675 193.172 141.423 192.892 141.246C192.612 141.059 192.276 140.966 191.884 140.966C191.548 140.966 191.231 141.045 190.932 141.204C190.634 141.363 190.391 141.591 190.204 141.89C190.027 142.179 189.938 142.534 189.938 142.954V143.472C189.938 143.873 190.032 144.219 190.218 144.508C190.414 144.788 190.662 145.003 190.96 145.152C191.259 145.301 191.567 145.376 191.884 145.376ZM197.696 147V136.78H199.95V147H197.696ZM196.786 138.432V136.78H199.95V138.432H196.786ZM202.378 147V139.328H204.618V147H202.378ZM201.356 140.98V139.328H204.618V140.98H201.356ZM203.246 138.572C202.826 138.572 202.514 138.465 202.308 138.25C202.112 138.026 202.014 137.746 202.014 137.41C202.014 137.065 202.112 136.785 202.308 136.57C202.514 136.346 202.826 136.234 203.246 136.234C203.666 136.234 203.974 136.346 204.17 136.57C204.376 136.785 204.478 137.065 204.478 137.41C204.478 137.746 204.376 138.026 204.17 138.25C203.974 138.465 203.666 138.572 203.246 138.572ZM210.134 147.266C209.471 147.266 208.893 147.159 208.398 146.944C207.913 146.72 207.507 146.421 207.18 146.048C206.853 145.675 206.611 145.255 206.452 144.788C206.293 144.312 206.214 143.822 206.214 143.318V143.052C206.214 142.529 206.298 142.03 206.466 141.554C206.634 141.069 206.881 140.639 207.208 140.266C207.535 139.893 207.941 139.599 208.426 139.384C208.921 139.169 209.485 139.062 210.12 139.062C210.811 139.062 211.422 139.197 211.954 139.468C212.486 139.729 212.911 140.098 213.228 140.574C213.545 141.05 213.723 141.596 213.76 142.212H211.562C211.525 141.867 211.385 141.577 211.142 141.344C210.909 141.101 210.568 140.98 210.12 140.98C209.747 140.98 209.434 141.073 209.182 141.26C208.939 141.447 208.757 141.703 208.636 142.03C208.515 142.357 208.454 142.744 208.454 143.192C208.454 143.603 208.51 143.976 208.622 144.312C208.734 144.639 208.911 144.895 209.154 145.082C209.406 145.259 209.733 145.348 210.134 145.348C210.433 145.348 210.685 145.297 210.89 145.194C211.105 145.082 211.273 144.933 211.394 144.746C211.525 144.55 211.604 144.326 211.632 144.074H213.816C213.788 144.709 213.611 145.269 213.284 145.754C212.957 146.23 212.523 146.603 211.982 146.874C211.441 147.135 210.825 147.266 210.134 147.266ZM219.883 147V144.732H219.505V142.268C219.505 141.876 219.411 141.582 219.225 141.386C219.038 141.19 218.739 141.092 218.329 141.092C218.123 141.092 217.853 141.097 217.517 141.106C217.181 141.115 216.835 141.129 216.481 141.148C216.126 141.167 215.804 141.185 215.515 141.204V139.314C215.729 139.295 215.981 139.277 216.271 139.258C216.56 139.239 216.859 139.225 217.167 139.216C217.475 139.207 217.764 139.202 218.035 139.202C218.819 139.202 219.477 139.314 220.009 139.538C220.55 139.762 220.961 140.103 221.241 140.56C221.521 141.008 221.661 141.587 221.661 142.296V147H219.883ZM217.433 147.196C216.882 147.196 216.397 147.098 215.977 146.902C215.566 146.706 215.244 146.426 215.011 146.062C214.777 145.689 214.661 145.245 214.661 144.732C214.661 144.172 214.805 143.715 215.095 143.36C215.384 142.996 215.79 142.73 216.313 142.562C216.835 142.385 217.437 142.296 218.119 142.296H219.757V143.542H218.105C217.713 143.542 217.409 143.64 217.195 143.836C216.989 144.023 216.887 144.279 216.887 144.606C216.887 144.914 216.989 145.166 217.195 145.362C217.409 145.549 217.713 145.642 218.105 145.642C218.357 145.642 218.581 145.6 218.777 145.516C218.982 145.423 219.15 145.269 219.281 145.054C219.411 144.839 219.486 144.541 219.505 144.158L220.037 144.718C219.99 145.25 219.859 145.698 219.645 146.062C219.439 146.426 219.15 146.706 218.777 146.902C218.413 147.098 217.965 147.196 217.433 147.196ZM227.047 147.098C226.272 147.098 225.647 147.005 225.171 146.818C224.695 146.622 224.345 146.3 224.121 145.852C223.906 145.395 223.799 144.779 223.799 144.004V137.256H225.885V144.088C225.885 144.452 225.978 144.732 226.165 144.928C226.361 145.115 226.636 145.208 226.991 145.208H228.125V147.098H227.047ZM222.637 140.966V139.328H228.125V140.966H222.637ZM229.995 147V139.328H232.235V147H229.995ZM228.973 140.98V139.328H232.235V140.98H228.973ZM230.863 138.572C230.443 138.572 230.131 138.465 229.925 138.25C229.729 138.026 229.631 137.746 229.631 137.41C229.631 137.065 229.729 136.785 229.925 136.57C230.131 136.346 230.443 136.234 230.863 136.234C231.283 136.234 231.591 136.346 231.787 136.57C231.993 136.785 232.095 137.065 232.095 137.41C232.095 137.746 231.993 138.026 231.787 138.25C231.591 138.465 231.283 138.572 230.863 138.572ZM238.045 147.266C237.373 147.266 236.776 147.163 236.253 146.958C235.73 146.743 235.287 146.454 234.923 146.09C234.568 145.726 234.298 145.311 234.111 144.844C233.924 144.368 233.831 143.869 233.831 143.346V143.024C233.831 142.492 233.924 141.988 234.111 141.512C234.307 141.027 234.587 140.602 234.951 140.238C235.324 139.874 235.772 139.589 236.295 139.384C236.818 139.169 237.401 139.062 238.045 139.062C238.708 139.062 239.296 139.169 239.809 139.384C240.332 139.589 240.775 139.874 241.139 140.238C241.503 140.602 241.783 141.027 241.979 141.512C242.175 141.988 242.273 142.492 242.273 143.024V143.346C242.273 143.869 242.18 144.368 241.993 144.844C241.806 145.311 241.531 145.726 241.167 146.09C240.812 146.454 240.374 146.743 239.851 146.958C239.328 147.163 238.726 147.266 238.045 147.266ZM238.045 145.376C238.484 145.376 238.848 145.283 239.137 145.096C239.426 144.909 239.646 144.648 239.795 144.312C239.954 143.976 240.033 143.603 240.033 143.192C240.033 142.753 239.954 142.371 239.795 142.044C239.636 141.708 239.408 141.442 239.109 141.246C238.82 141.05 238.465 140.952 238.045 140.952C237.634 140.952 237.28 141.05 236.981 141.246C236.682 141.442 236.454 141.708 236.295 142.044C236.146 142.371 236.071 142.753 236.071 143.192C236.071 143.603 236.146 143.976 236.295 144.312C236.444 144.648 236.668 144.909 236.967 145.096C237.266 145.283 237.625 145.376 238.045 145.376ZM243.836 147V139.328H245.614V142.618H245.488C245.488 141.834 245.586 141.181 245.782 140.658C245.988 140.135 246.296 139.743 246.706 139.482C247.117 139.221 247.616 139.09 248.204 139.09H248.302C249.198 139.09 249.88 139.384 250.346 139.972C250.822 140.551 251.06 141.433 251.06 142.618V147H248.82V142.492C248.82 142.081 248.699 141.745 248.456 141.484C248.214 141.223 247.887 141.092 247.476 141.092C247.056 141.092 246.716 141.227 246.454 141.498C246.202 141.759 246.076 142.105 246.076 142.534V147H243.836Z" fill="#616C74"/>
<rect x="73" y="180" width="24" height="24" rx="3" fill="#BBE0D9"/>
<path d="M85.0002 194.56L79.4402 189L77.5469 190.88L85.0002 198.333L101 182.333L99.1202 180.453L85.0002 194.56Z" fill="#128081"/>
<path d="M116.178 193V184.502H118.474V193H116.178ZM113.308 184.782V182.78H121.358V184.782H113.308ZM122.676 193V182.78H124.916V188.674H124.58C124.58 187.899 124.678 187.246 124.874 186.714C125.07 186.182 125.36 185.781 125.742 185.51C126.125 185.23 126.606 185.09 127.184 185.09H127.282C128.132 185.09 128.78 185.393 129.228 186C129.676 186.597 129.9 187.475 129.9 188.632V193H127.66V188.492C127.66 188.072 127.534 187.736 127.282 187.484C127.04 187.223 126.718 187.092 126.316 187.092C125.896 187.092 125.556 187.227 125.294 187.498C125.042 187.769 124.916 188.128 124.916 188.576V193H122.676ZM135.323 193.266C134.67 193.266 134.091 193.154 133.587 192.93C133.092 192.706 132.677 192.407 132.341 192.034C132.014 191.651 131.762 191.227 131.585 190.76C131.417 190.284 131.333 189.799 131.333 189.304V189.024C131.333 188.511 131.417 188.021 131.585 187.554C131.762 187.078 132.014 186.653 132.341 186.28C132.668 185.907 133.074 185.613 133.559 185.398C134.054 185.174 134.614 185.062 135.239 185.062C136.06 185.062 136.751 185.249 137.311 185.622C137.88 185.986 138.314 186.467 138.613 187.064C138.912 187.652 139.061 188.296 139.061 188.996V189.752H132.271V188.478H137.703L136.975 189.066C136.975 188.609 136.91 188.217 136.779 187.89C136.648 187.563 136.452 187.316 136.191 187.148C135.939 186.971 135.622 186.882 135.239 186.882C134.847 186.882 134.516 186.971 134.245 187.148C133.974 187.325 133.769 187.587 133.629 187.932C133.489 188.268 133.419 188.683 133.419 189.178C133.419 189.635 133.484 190.037 133.615 190.382C133.746 190.718 133.951 190.979 134.231 191.166C134.511 191.353 134.875 191.446 135.323 191.446C135.734 191.446 136.07 191.367 136.331 191.208C136.592 191.049 136.77 190.853 136.863 190.62H138.921C138.809 191.133 138.59 191.591 138.263 191.992C137.936 192.393 137.526 192.706 137.031 192.93C136.536 193.154 135.967 193.266 135.323 193.266ZM140.393 196.038V194.134H141.989C142.232 194.134 142.437 194.101 142.605 194.036C142.773 193.98 142.908 193.882 143.011 193.742C143.114 193.602 143.198 193.411 143.263 193.168L145.153 185.328H147.281L145.139 193.616C144.99 194.213 144.78 194.689 144.509 195.044C144.248 195.399 143.893 195.651 143.445 195.8C143.006 195.959 142.446 196.038 141.765 196.038H140.393ZM142.801 192.832V191.082H144.425V192.832H142.801ZM141.877 192.832L139.525 185.328H141.779L144.005 192.832H141.877ZM148.081 187.554V186.28H148.515C148.767 186.28 148.968 186.243 149.117 186.168C149.276 186.093 149.392 185.963 149.467 185.776C149.542 185.58 149.579 185.314 149.579 184.978V183.956L149.999 184.824C149.934 184.88 149.84 184.927 149.719 184.964C149.598 184.992 149.462 185.006 149.313 185.006C148.986 185.006 148.711 184.908 148.487 184.712C148.263 184.507 148.151 184.222 148.151 183.858C148.151 183.513 148.258 183.223 148.473 182.99C148.688 182.747 148.996 182.626 149.397 182.626C149.658 182.626 149.896 182.687 150.111 182.808C150.335 182.929 150.512 183.135 150.643 183.424C150.783 183.713 150.853 184.105 150.853 184.6V184.81C150.853 185.473 150.755 186.005 150.559 186.406C150.372 186.807 150.097 187.101 149.733 187.288C149.369 187.465 148.921 187.554 148.389 187.554H148.081ZM152.593 193V182.78H154.847V193H152.593ZM151.683 184.432V182.78H154.847V184.432H151.683ZM157.009 193V182.78H159.263V193H157.009ZM156.099 184.432V182.78H159.263V184.432H156.099ZM168.984 193.252C168.359 193.252 167.808 193.121 167.332 192.86C166.856 192.589 166.483 192.202 166.212 191.698C165.941 191.194 165.797 190.578 165.778 189.85H166.044V193H164.266V182.78H166.506V187.974L165.974 188.646C166.002 187.871 166.147 187.223 166.408 186.7C166.679 186.168 167.047 185.771 167.514 185.51C167.981 185.239 168.513 185.104 169.11 185.104C169.633 185.104 170.104 185.202 170.524 185.398C170.953 185.585 171.317 185.855 171.616 186.21C171.915 186.555 172.143 186.966 172.302 187.442C172.47 187.918 172.554 188.436 172.554 188.996V189.304C172.554 189.864 172.47 190.382 172.302 190.858C172.143 191.334 171.905 191.754 171.588 192.118C171.28 192.473 170.907 192.753 170.468 192.958C170.029 193.154 169.535 193.252 168.984 193.252ZM168.396 191.376C168.779 191.376 169.11 191.283 169.39 191.096C169.679 190.909 169.903 190.648 170.062 190.312C170.221 189.967 170.3 189.579 170.3 189.15C170.3 188.711 170.221 188.329 170.062 188.002C169.903 187.675 169.679 187.423 169.39 187.246C169.11 187.059 168.779 186.966 168.396 186.966C168.06 186.966 167.743 187.045 167.444 187.204C167.145 187.363 166.903 187.591 166.716 187.89C166.539 188.179 166.45 188.534 166.45 188.954V189.472C166.45 189.873 166.543 190.219 166.73 190.508C166.926 190.788 167.173 191.003 167.472 191.152C167.771 191.301 168.079 191.376 168.396 191.376ZM177.624 193.266C176.971 193.266 176.392 193.154 175.888 192.93C175.393 192.706 174.978 192.407 174.642 192.034C174.315 191.651 174.063 191.227 173.886 190.76C173.718 190.284 173.634 189.799 173.634 189.304V189.024C173.634 188.511 173.718 188.021 173.886 187.554C174.063 187.078 174.315 186.653 174.642 186.28C174.969 185.907 175.375 185.613 175.86 185.398C176.355 185.174 176.915 185.062 177.54 185.062C178.361 185.062 179.052 185.249 179.612 185.622C180.181 185.986 180.615 186.467 180.914 187.064C181.213 187.652 181.362 188.296 181.362 188.996V189.752H174.572V188.478H180.004L179.276 189.066C179.276 188.609 179.211 188.217 179.08 187.89C178.949 187.563 178.753 187.316 178.492 187.148C178.24 186.971 177.923 186.882 177.54 186.882C177.148 186.882 176.817 186.971 176.546 187.148C176.275 187.325 176.07 187.587 175.93 187.932C175.79 188.268 175.72 188.683 175.72 189.178C175.72 189.635 175.785 190.037 175.916 190.382C176.047 190.718 176.252 190.979 176.532 191.166C176.812 191.353 177.176 191.446 177.624 191.446C178.035 191.446 178.371 191.367 178.632 191.208C178.893 191.049 179.071 190.853 179.164 190.62H181.222C181.11 191.133 180.891 191.591 180.564 191.992C180.237 192.393 179.827 192.706 179.332 192.93C178.837 193.154 178.268 193.266 177.624 193.266ZM190.42 193V190.732H190.042V188.268C190.042 187.876 189.948 187.582 189.762 187.386C189.575 187.19 189.276 187.092 188.866 187.092C188.66 187.092 188.39 187.097 188.054 187.106C187.718 187.115 187.372 187.129 187.018 187.148C186.663 187.167 186.341 187.185 186.052 187.204V185.314C186.266 185.295 186.518 185.277 186.808 185.258C187.097 185.239 187.396 185.225 187.704 185.216C188.012 185.207 188.301 185.202 188.572 185.202C189.356 185.202 190.014 185.314 190.546 185.538C191.087 185.762 191.498 186.103 191.778 186.56C192.058 187.008 192.198 187.587 192.198 188.296V193H190.42ZM187.97 193.196C187.419 193.196 186.934 193.098 186.514 192.902C186.103 192.706 185.781 192.426 185.548 192.062C185.314 191.689 185.198 191.245 185.198 190.732C185.198 190.172 185.342 189.715 185.632 189.36C185.921 188.996 186.327 188.73 186.85 188.562C187.372 188.385 187.974 188.296 188.656 188.296H190.294V189.542H188.642C188.25 189.542 187.946 189.64 187.732 189.836C187.526 190.023 187.424 190.279 187.424 190.606C187.424 190.914 187.526 191.166 187.732 191.362C187.946 191.549 188.25 191.642 188.642 191.642C188.894 191.642 189.118 191.6 189.314 191.516C189.519 191.423 189.687 191.269 189.818 191.054C189.948 190.839 190.023 190.541 190.042 190.158L190.574 190.718C190.527 191.25 190.396 191.698 190.182 192.062C189.976 192.426 189.687 192.706 189.314 192.902C188.95 193.098 188.502 193.196 187.97 193.196ZM198.816 193.252C198.191 193.252 197.64 193.121 197.164 192.86C196.688 192.589 196.315 192.202 196.044 191.698C195.774 191.194 195.629 190.578 195.61 189.85H195.876V193H194.098V182.78H196.338V187.974L195.806 188.646C195.834 187.871 195.979 187.223 196.24 186.7C196.511 186.168 196.88 185.771 197.346 185.51C197.813 185.239 198.345 185.104 198.942 185.104C199.465 185.104 199.936 185.202 200.356 185.398C200.786 185.585 201.15 185.855 201.448 186.21C201.747 186.555 201.976 186.966 202.134 187.442C202.302 187.918 202.386 188.436 202.386 188.996V189.304C202.386 189.864 202.302 190.382 202.134 190.858C201.976 191.334 201.738 191.754 201.42 192.118C201.112 192.473 200.739 192.753 200.3 192.958C199.862 193.154 199.367 193.252 198.816 193.252ZM198.228 191.376C198.611 191.376 198.942 191.283 199.222 191.096C199.512 190.909 199.736 190.648 199.894 190.312C200.053 189.967 200.132 189.579 200.132 189.15C200.132 188.711 200.053 188.329 199.894 188.002C199.736 187.675 199.512 187.423 199.222 187.246C198.942 187.059 198.611 186.966 198.228 186.966C197.892 186.966 197.575 187.045 197.276 187.204C196.978 187.363 196.735 187.591 196.548 187.89C196.371 188.179 196.282 188.534 196.282 188.954V189.472C196.282 189.873 196.376 190.219 196.562 190.508C196.758 190.788 197.006 191.003 197.304 191.152C197.603 191.301 197.911 191.376 198.228 191.376ZM204.04 193V182.78H206.294V193H204.04ZM203.13 184.432V182.78H206.294V184.432H203.13ZM211.872 193.266C211.219 193.266 210.64 193.154 210.136 192.93C209.641 192.706 209.226 192.407 208.89 192.034C208.563 191.651 208.311 191.227 208.134 190.76C207.966 190.284 207.882 189.799 207.882 189.304V189.024C207.882 188.511 207.966 188.021 208.134 187.554C208.311 187.078 208.563 186.653 208.89 186.28C209.217 185.907 209.623 185.613 210.108 185.398C210.603 185.174 211.163 185.062 211.788 185.062C212.609 185.062 213.3 185.249 213.86 185.622C214.429 185.986 214.863 186.467 215.162 187.064C215.461 187.652 215.61 188.296 215.61 188.996V189.752H208.82V188.478H214.252L213.524 189.066C213.524 188.609 213.459 188.217 213.328 187.89C213.197 187.563 213.001 187.316 212.74 187.148C212.488 186.971 212.171 186.882 211.788 186.882C211.396 186.882 211.065 186.971 210.794 187.148C210.523 187.325 210.318 187.587 210.178 187.932C210.038 188.268 209.968 188.683 209.968 189.178C209.968 189.635 210.033 190.037 210.164 190.382C210.295 190.718 210.5 190.979 210.78 191.166C211.06 191.353 211.424 191.446 211.872 191.446C212.283 191.446 212.619 191.367 212.88 191.208C213.141 191.049 213.319 190.853 213.412 190.62H215.47C215.358 191.133 215.139 191.591 214.812 191.992C214.485 192.393 214.075 192.706 213.58 192.93C213.085 193.154 212.516 193.266 211.872 193.266ZM223.52 193.098C222.745 193.098 222.12 193.005 221.644 192.818C221.168 192.622 220.818 192.3 220.594 191.852C220.379 191.395 220.272 190.779 220.272 190.004V183.256H222.358V190.088C222.358 190.452 222.451 190.732 222.638 190.928C222.834 191.115 223.109 191.208 223.464 191.208H224.598V193.098H223.52ZM219.11 186.966V185.328H224.598V186.966H219.11ZM229.815 193.266C229.143 193.266 228.545 193.163 228.023 192.958C227.5 192.743 227.057 192.454 226.693 192.09C226.338 191.726 226.067 191.311 225.881 190.844C225.694 190.368 225.601 189.869 225.601 189.346V189.024C225.601 188.492 225.694 187.988 225.881 187.512C226.077 187.027 226.357 186.602 226.721 186.238C227.094 185.874 227.542 185.589 228.065 185.384C228.587 185.169 229.171 185.062 229.815 185.062C230.477 185.062 231.065 185.169 231.579 185.384C232.101 185.589 232.545 185.874 232.909 186.238C233.273 186.602 233.553 187.027 233.749 187.512C233.945 187.988 234.043 188.492 234.043 189.024V189.346C234.043 189.869 233.949 190.368 233.763 190.844C233.576 191.311 233.301 191.726 232.937 192.09C232.582 192.454 232.143 192.743 231.621 192.958C231.098 193.163 230.496 193.266 229.815 193.266ZM229.815 191.376C230.253 191.376 230.617 191.283 230.907 191.096C231.196 190.909 231.415 190.648 231.565 190.312C231.723 189.976 231.803 189.603 231.803 189.192C231.803 188.753 231.723 188.371 231.565 188.044C231.406 187.708 231.177 187.442 230.879 187.246C230.589 187.05 230.235 186.952 229.815 186.952C229.404 186.952 229.049 187.05 228.751 187.246C228.452 187.442 228.223 187.708 228.065 188.044C227.915 188.371 227.841 188.753 227.841 189.192C227.841 189.603 227.915 189.976 228.065 190.312C228.214 190.648 228.438 190.909 228.737 191.096C229.035 191.283 229.395 191.376 229.815 191.376ZM114.022 209V201.328H115.8V204.618H115.758C115.758 203.535 115.987 202.7 116.444 202.112C116.911 201.524 117.583 201.23 118.46 201.23H118.754V203.162H118.194C117.578 203.162 117.102 203.33 116.766 203.666C116.43 203.993 116.262 204.469 116.262 205.094V209H114.022ZM123.388 209.266C122.734 209.266 122.156 209.154 121.652 208.93C121.157 208.706 120.742 208.407 120.406 208.034C120.079 207.651 119.827 207.227 119.65 206.76C119.482 206.284 119.398 205.799 119.398 205.304V205.024C119.398 204.511 119.482 204.021 119.65 203.554C119.827 203.078 120.079 202.653 120.406 202.28C120.732 201.907 121.138 201.613 121.624 201.398C122.118 201.174 122.678 201.062 123.304 201.062C124.125 201.062 124.816 201.249 125.376 201.622C125.945 201.986 126.379 202.467 126.678 203.064C126.976 203.652 127.126 204.296 127.126 204.996V205.752H120.336V204.478H125.768L125.04 205.066C125.04 204.609 124.974 204.217 124.844 203.89C124.713 203.563 124.517 203.316 124.256 203.148C124.004 202.971 123.686 202.882 123.304 202.882C122.912 202.882 122.58 202.971 122.31 203.148C122.039 203.325 121.834 203.587 121.694 203.932C121.554 204.268 121.484 204.683 121.484 205.178C121.484 205.635 121.549 206.037 121.68 206.382C121.81 206.718 122.016 206.979 122.296 207.166C122.576 207.353 122.94 207.446 123.388 207.446C123.798 207.446 124.134 207.367 124.396 207.208C124.657 207.049 124.834 206.853 124.928 206.62H126.986C126.874 207.133 126.654 207.591 126.328 207.992C126.001 208.393 125.59 208.706 125.096 208.93C124.601 209.154 124.032 209.266 123.388 209.266ZM130.026 209L127.73 201.328H130.04L132.196 209H130.026ZM130.726 209V207.138H132.98V209H130.726ZM131.552 209L133.414 201.328H135.57L133.582 209H131.552ZM137.259 209V201.328H139.499V209H137.259ZM136.237 202.98V201.328H139.499V202.98H136.237ZM138.127 200.572C137.707 200.572 137.394 200.465 137.189 200.25C136.993 200.026 136.895 199.746 136.895 199.41C136.895 199.065 136.993 198.785 137.189 198.57C137.394 198.346 137.707 198.234 138.127 198.234C138.547 198.234 138.855 198.346 139.051 198.57C139.256 198.785 139.359 199.065 139.359 199.41C139.359 199.746 139.256 200.026 139.051 200.25C138.855 200.465 138.547 200.572 138.127 200.572ZM145.085 209.266C144.431 209.266 143.853 209.154 143.349 208.93C142.854 208.706 142.439 208.407 142.103 208.034C141.776 207.651 141.524 207.227 141.347 206.76C141.179 206.284 141.095 205.799 141.095 205.304V205.024C141.095 204.511 141.179 204.021 141.347 203.554C141.524 203.078 141.776 202.653 142.103 202.28C142.429 201.907 142.835 201.613 143.321 201.398C143.815 201.174 144.375 201.062 145.001 201.062C145.822 201.062 146.513 201.249 147.073 201.622C147.642 201.986 148.076 202.467 148.375 203.064C148.673 203.652 148.823 204.296 148.823 204.996V205.752H142.033V204.478H147.465L146.737 205.066C146.737 204.609 146.671 204.217 146.541 203.89C146.41 203.563 146.214 203.316 145.953 203.148C145.701 202.971 145.383 202.882 145.001 202.882C144.609 202.882 144.277 202.971 144.007 203.148C143.736 203.325 143.531 203.587 143.391 203.932C143.251 204.268 143.181 204.683 143.181 205.178C143.181 205.635 143.246 206.037 143.377 206.382C143.507 206.718 143.713 206.979 143.993 207.166C144.273 207.353 144.637 207.446 145.085 207.446C145.495 207.446 145.831 207.367 146.093 207.208C146.354 207.049 146.531 206.853 146.625 206.62H148.683C148.571 207.133 148.351 207.591 148.025 207.992C147.698 208.393 147.287 208.706 146.793 208.93C146.298 209.154 145.729 209.266 145.085 209.266ZM153.053 209L154.453 201.58H156.903L158.527 209H156.791L155.125 201.636H156.119L154.621 209H153.053ZM152.521 209L152.507 207.138H154.047L154.061 209H152.521ZM151.513 209L149.455 201.328H151.653L153.571 209H151.513ZM157.365 209L157.379 207.138H158.919V209H157.365ZM157.995 209L159.703 201.328H161.761L159.913 209H157.995ZM169.571 209.098C168.796 209.098 168.171 209.005 167.695 208.818C167.219 208.622 166.869 208.3 166.645 207.852C166.43 207.395 166.323 206.779 166.323 206.004V199.256H168.409V206.088C168.409 206.452 168.502 206.732 168.689 206.928C168.885 207.115 169.16 207.208 169.515 207.208H170.649V209.098H169.571ZM165.161 202.966V201.328H170.649V202.966H165.161ZM172.155 209V198.78H174.395V204.674H174.059C174.059 203.899 174.157 203.246 174.353 202.714C174.549 202.182 174.838 201.781 175.221 201.51C175.603 201.23 176.084 201.09 176.663 201.09H176.761C177.61 201.09 178.259 201.393 178.707 202C179.155 202.597 179.379 203.475 179.379 204.632V209H177.139V204.492C177.139 204.072 177.013 203.736 176.761 203.484C176.518 203.223 176.196 203.092 175.795 203.092C175.375 203.092 175.034 203.227 174.773 203.498C174.521 203.769 174.395 204.128 174.395 204.576V209H172.155ZM184.802 209.266C184.148 209.266 183.57 209.154 183.066 208.93C182.571 208.706 182.156 208.407 181.82 208.034C181.493 207.651 181.241 207.227 181.064 206.76C180.896 206.284 180.812 205.799 180.812 205.304V205.024C180.812 204.511 180.896 204.021 181.064 203.554C181.241 203.078 181.493 202.653 181.82 202.28C182.146 201.907 182.552 201.613 183.038 201.398C183.532 201.174 184.092 201.062 184.718 201.062C185.539 201.062 186.23 201.249 186.79 201.622C187.359 201.986 187.793 202.467 188.092 203.064C188.39 203.652 188.54 204.296 188.54 204.996V205.752H181.75V204.478H187.182L186.454 205.066C186.454 204.609 186.388 204.217 186.258 203.89C186.127 203.563 185.931 203.316 185.67 203.148C185.418 202.971 185.1 202.882 184.718 202.882C184.326 202.882 183.994 202.971 183.724 203.148C183.453 203.325 183.248 203.587 183.108 203.932C182.968 204.268 182.898 204.683 182.898 205.178C182.898 205.635 182.963 206.037 183.094 206.382C183.224 206.718 183.43 206.979 183.71 207.166C183.99 207.353 184.354 207.446 184.802 207.446C185.212 207.446 185.548 207.367 185.81 207.208C186.071 207.049 186.248 206.853 186.342 206.62H188.4C188.288 207.133 188.068 207.591 187.742 207.992C187.415 208.393 187.004 208.706 186.51 208.93C186.015 209.154 185.446 209.266 184.802 209.266ZM196.127 209.252C195.586 209.252 195.091 209.154 194.643 208.958C194.205 208.762 193.822 208.491 193.495 208.146C193.169 207.791 192.917 207.376 192.739 206.9C192.571 206.424 192.487 205.911 192.487 205.36V205.038C192.487 204.487 192.567 203.974 192.725 203.498C192.893 203.022 193.131 202.607 193.439 202.252C193.757 201.888 194.135 201.608 194.573 201.412C195.012 201.207 195.502 201.104 196.043 201.104C196.659 201.104 197.191 201.239 197.639 201.51C198.087 201.771 198.437 202.163 198.689 202.686C198.941 203.199 199.081 203.834 199.109 204.59L198.521 204.044V198.78H200.775V209H198.997V205.822H199.305C199.277 206.55 199.123 207.171 198.843 207.684C198.573 208.197 198.204 208.589 197.737 208.86C197.271 209.121 196.734 209.252 196.127 209.252ZM196.687 207.376C197.033 207.376 197.345 207.301 197.625 207.152C197.915 206.993 198.143 206.765 198.311 206.466C198.489 206.167 198.577 205.808 198.577 205.388V204.87C198.577 204.459 198.489 204.114 198.311 203.834C198.134 203.554 197.901 203.339 197.611 203.19C197.322 203.041 197.009 202.966 196.673 202.966C196.3 202.966 195.964 203.064 195.665 203.26C195.376 203.447 195.147 203.708 194.979 204.044C194.811 204.371 194.727 204.753 194.727 205.192C194.727 205.64 194.811 206.027 194.979 206.354C195.147 206.681 195.381 206.933 195.679 207.11C195.978 207.287 196.314 207.376 196.687 207.376ZM206.321 209.266C205.668 209.266 205.089 209.154 204.585 208.93C204.09 208.706 203.675 208.407 203.339 208.034C203.012 207.651 202.76 207.227 202.583 206.76C202.415 206.284 202.331 205.799 202.331 205.304V205.024C202.331 204.511 202.415 204.021 202.583 203.554C202.76 203.078 203.012 202.653 203.339 202.28C203.666 201.907 204.072 201.613 204.557 201.398C205.052 201.174 205.612 201.062 206.237 201.062C207.058 201.062 207.749 201.249 208.309 201.622C208.878 201.986 209.312 202.467 209.611 203.064C209.91 203.652 210.059 204.296 210.059 204.996V205.752H203.269V204.478H208.701L207.973 205.066C207.973 204.609 207.908 204.217 207.777 203.89C207.646 203.563 207.45 203.316 207.189 203.148C206.937 202.971 206.62 202.882 206.237 202.882C205.845 202.882 205.514 202.971 205.243 203.148C204.972 203.325 204.767 203.587 204.627 203.932C204.487 204.268 204.417 204.683 204.417 205.178C204.417 205.635 204.482 206.037 204.613 206.382C204.744 206.718 204.949 206.979 205.229 207.166C205.509 207.353 205.873 207.446 206.321 207.446C206.732 207.446 207.068 207.367 207.329 207.208C207.59 207.049 207.768 206.853 207.861 206.62H209.919C209.807 207.133 209.588 207.591 209.261 207.992C208.934 208.393 208.524 208.706 208.029 208.93C207.534 209.154 206.965 209.266 206.321 209.266ZM215.029 209.098C214.255 209.098 213.629 209.005 213.153 208.818C212.677 208.622 212.327 208.3 212.103 207.852C211.889 207.395 211.781 206.779 211.781 206.004V199.256H213.867V206.088C213.867 206.452 213.961 206.732 214.147 206.928C214.343 207.115 214.619 207.208 214.973 207.208H216.107V209.098H215.029ZM210.619 202.966V201.328H216.107V202.966H210.619ZM222.22 209V206.732H221.842V204.268C221.842 203.876 221.749 203.582 221.562 203.386C221.376 203.19 221.077 203.092 220.666 203.092C220.461 203.092 220.19 203.097 219.854 203.106C219.518 203.115 219.173 203.129 218.818 203.148C218.464 203.167 218.142 203.185 217.852 203.204V201.314C218.067 201.295 218.319 201.277 218.608 201.258C218.898 201.239 219.196 201.225 219.504 201.216C219.812 201.207 220.102 201.202 220.372 201.202C221.156 201.202 221.814 201.314 222.346 201.538C222.888 201.762 223.298 202.103 223.578 202.56C223.858 203.008 223.998 203.587 223.998 204.296V209H222.22ZM219.77 209.196C219.22 209.196 218.734 209.098 218.314 208.902C217.904 208.706 217.582 208.426 217.348 208.062C217.115 207.689 216.998 207.245 216.998 206.732C216.998 206.172 217.143 205.715 217.432 205.36C217.722 204.996 218.128 204.73 218.65 204.562C219.173 204.385 219.775 204.296 220.456 204.296H222.094V205.542H220.442C220.05 205.542 219.747 205.64 219.532 205.836C219.327 206.023 219.224 206.279 219.224 206.606C219.224 206.914 219.327 207.166 219.532 207.362C219.747 207.549 220.05 207.642 220.442 207.642C220.694 207.642 220.918 207.6 221.114 207.516C221.32 207.423 221.488 207.269 221.618 207.054C221.749 206.839 221.824 206.541 221.842 206.158L222.374 206.718C222.328 207.25 222.197 207.698 221.982 208.062C221.777 208.426 221.488 208.706 221.114 208.902C220.75 209.098 220.302 209.196 219.77 209.196ZM226.263 209V201.328H228.503V209H226.263ZM225.241 202.98V201.328H228.503V202.98H225.241ZM227.131 200.572C226.711 200.572 226.398 200.465 226.193 200.25C225.997 200.026 225.899 199.746 225.899 199.41C225.899 199.065 225.997 198.785 226.193 198.57C226.398 198.346 226.711 198.234 227.131 198.234C227.551 198.234 227.859 198.346 228.055 198.57C228.26 198.785 228.363 199.065 228.363 199.41C228.363 199.746 228.26 200.026 228.055 200.25C227.859 200.465 227.551 200.572 227.131 200.572ZM230.673 209V198.78H232.927V209H230.673ZM229.763 200.432V198.78H232.927V200.432H229.763ZM237.903 209.238C236.811 209.238 235.957 209.014 235.341 208.566C234.725 208.118 234.398 207.488 234.361 206.676H236.349C236.386 206.919 236.531 207.138 236.783 207.334C237.044 207.521 237.431 207.614 237.945 207.614C238.337 207.614 238.659 207.549 238.911 207.418C239.172 207.278 239.303 207.082 239.303 206.83C239.303 206.606 239.205 206.429 239.009 206.298C238.813 206.158 238.463 206.06 237.959 206.004L237.357 205.948C236.433 205.855 235.737 205.598 235.271 205.178C234.813 204.758 234.585 204.221 234.585 203.568C234.585 203.027 234.72 202.574 234.991 202.21C235.261 201.846 235.635 201.571 236.111 201.384C236.596 201.197 237.147 201.104 237.763 201.104C238.752 201.104 239.55 201.323 240.157 201.762C240.763 202.191 241.081 202.817 241.109 203.638H239.121C239.083 203.386 238.953 203.176 238.729 203.008C238.505 202.831 238.173 202.742 237.735 202.742C237.389 202.742 237.114 202.807 236.909 202.938C236.703 203.069 236.601 203.246 236.601 203.47C236.601 203.685 236.689 203.848 236.867 203.96C237.044 204.072 237.333 204.151 237.735 204.198L238.337 204.254C239.279 204.357 240.012 204.618 240.535 205.038C241.057 205.458 241.319 206.023 241.319 206.732C241.319 207.245 241.179 207.693 240.899 208.076C240.619 208.449 240.222 208.739 239.709 208.944C239.195 209.14 238.593 209.238 237.903 209.238Z" fill="#616C74"/>
<rect x="73" y="242" width="24" height="24" rx="3" fill="#BBE0D9"/>
<path d="M85.0002 256.56L79.4402 251L77.5469 252.88L85.0002 260.333L101 244.333L99.1202 242.453L85.0002 256.56Z" fill="#128081"/>
<path d="M118.432 255.266C117.471 255.266 116.654 255.089 115.982 254.734C115.319 254.37 114.815 253.857 114.47 253.194C114.125 252.531 113.952 251.747 113.952 250.842V244.78H116.248V250.926C116.248 251.374 116.332 251.766 116.5 252.102C116.677 252.429 116.925 252.681 117.242 252.858C117.569 253.035 117.965 253.124 118.432 253.124C118.908 253.124 119.305 253.035 119.622 252.858C119.949 252.681 120.196 252.429 120.364 252.102C120.532 251.775 120.616 251.383 120.616 250.926V244.78H122.912V250.842C122.912 251.747 122.739 252.531 122.394 253.194C122.049 253.857 121.545 254.37 120.882 254.734C120.219 255.089 119.403 255.266 118.432 255.266ZM124.891 255V247.328H126.669V250.618H126.543C126.543 249.834 126.641 249.181 126.837 248.658C127.042 248.135 127.35 247.743 127.761 247.482C128.172 247.221 128.671 247.09 129.259 247.09H129.357C130.253 247.09 130.934 247.384 131.401 247.972C131.877 248.551 132.115 249.433 132.115 250.618V255H129.875V250.492C129.875 250.081 129.754 249.745 129.511 249.484C129.268 249.223 128.942 249.092 128.531 249.092C128.111 249.092 127.77 249.227 127.509 249.498C127.257 249.759 127.131 250.105 127.131 250.534V255H124.891ZM134.122 255V244.78H136.376V255H134.122ZM133.212 246.432V244.78H136.376V246.432H133.212ZM142.178 255.266C141.506 255.266 140.909 255.163 140.386 254.958C139.863 254.743 139.42 254.454 139.056 254.09C138.701 253.726 138.431 253.311 138.244 252.844C138.057 252.368 137.964 251.869 137.964 251.346V251.024C137.964 250.492 138.057 249.988 138.244 249.512C138.44 249.027 138.72 248.602 139.084 248.238C139.457 247.874 139.905 247.589 140.428 247.384C140.951 247.169 141.534 247.062 142.178 247.062C142.841 247.062 143.429 247.169 143.942 247.384C144.465 247.589 144.908 247.874 145.272 248.238C145.636 248.602 145.916 249.027 146.112 249.512C146.308 249.988 146.406 250.492 146.406 251.024V251.346C146.406 251.869 146.313 252.368 146.126 252.844C145.939 253.311 145.664 253.726 145.3 254.09C144.945 254.454 144.507 254.743 143.984 254.958C143.461 255.163 142.859 255.266 142.178 255.266ZM142.178 253.376C142.617 253.376 142.981 253.283 143.27 253.096C143.559 252.909 143.779 252.648 143.928 252.312C144.087 251.976 144.166 251.603 144.166 251.192C144.166 250.753 144.087 250.371 143.928 250.044C143.769 249.708 143.541 249.442 143.242 249.246C142.953 249.05 142.598 248.952 142.178 248.952C141.767 248.952 141.413 249.05 141.114 249.246C140.815 249.442 140.587 249.708 140.428 250.044C140.279 250.371 140.204 250.753 140.204 251.192C140.204 251.603 140.279 251.976 140.428 252.312C140.577 252.648 140.801 252.909 141.1 253.096C141.399 253.283 141.758 253.376 142.178 253.376ZM151.413 255.266C150.751 255.266 150.172 255.159 149.677 254.944C149.192 254.72 148.786 254.421 148.459 254.048C148.133 253.675 147.89 253.255 147.731 252.788C147.573 252.312 147.493 251.822 147.493 251.318V251.052C147.493 250.529 147.577 250.03 147.745 249.554C147.913 249.069 148.161 248.639 148.487 248.266C148.814 247.893 149.22 247.599 149.705 247.384C150.2 247.169 150.765 247.062 151.399 247.062C152.09 247.062 152.701 247.197 153.233 247.468C153.765 247.729 154.19 248.098 154.507 248.574C154.825 249.05 155.002 249.596 155.039 250.212H152.841C152.804 249.867 152.664 249.577 152.421 249.344C152.188 249.101 151.847 248.98 151.399 248.98C151.026 248.98 150.713 249.073 150.461 249.26C150.219 249.447 150.037 249.703 149.915 250.03C149.794 250.357 149.733 250.744 149.733 251.192C149.733 251.603 149.789 251.976 149.901 252.312C150.013 252.639 150.191 252.895 150.433 253.082C150.685 253.259 151.012 253.348 151.413 253.348C151.712 253.348 151.964 253.297 152.169 253.194C152.384 253.082 152.552 252.933 152.673 252.746C152.804 252.55 152.883 252.326 152.911 252.074H155.095C155.067 252.709 154.89 253.269 154.563 253.754C154.237 254.23 153.803 254.603 153.261 254.874C152.72 255.135 152.104 255.266 151.413 255.266ZM161.932 255L159.51 251.416H158.432L161.554 247.328H163.906L160.966 251.136L160.994 250.044L164.452 255H161.932ZM156.528 255V244.78H158.768V255H156.528ZM168.577 255V247.258C168.577 246.371 168.829 245.713 169.333 245.284C169.837 244.855 170.579 244.64 171.559 244.64H172.539V246.32H171.461C171.209 246.32 171.013 246.39 170.873 246.53C170.733 246.67 170.663 246.866 170.663 247.118V255H168.577ZM167.667 249.12V247.482H172.651V249.12H167.667ZM176.344 255.238C175.458 255.238 174.776 254.953 174.3 254.384C173.824 253.805 173.586 252.937 173.586 251.78V247.328H175.826V251.892C175.826 252.303 175.943 252.629 176.176 252.872C176.41 253.115 176.722 253.236 177.114 253.236C177.516 253.236 177.842 253.11 178.094 252.858C178.346 252.606 178.472 252.265 178.472 251.836V247.328H180.712V255H178.934V251.766H179.088C179.088 252.541 178.986 253.189 178.78 253.712C178.584 254.225 178.29 254.608 177.898 254.86C177.506 255.112 177.021 255.238 176.442 255.238H176.344ZM182.778 255V247.328H184.556V250.618H184.43C184.43 249.834 184.528 249.181 184.724 248.658C184.929 248.135 185.237 247.743 185.648 247.482C186.059 247.221 186.558 247.09 187.146 247.09H187.244C188.14 247.09 188.821 247.384 189.288 247.972C189.764 248.551 190.002 249.433 190.002 250.618V255H187.762V250.492C187.762 250.081 187.641 249.745 187.398 249.484C187.155 249.223 186.829 249.092 186.418 249.092C185.998 249.092 185.657 249.227 185.396 249.498C185.144 249.759 185.018 250.105 185.018 250.534V255H182.778ZM195.075 255.252C194.533 255.252 194.039 255.154 193.591 254.958C193.152 254.762 192.769 254.491 192.443 254.146C192.116 253.791 191.864 253.376 191.687 252.9C191.519 252.424 191.435 251.911 191.435 251.36V251.038C191.435 250.487 191.514 249.974 191.673 249.498C191.841 249.022 192.079 248.607 192.387 248.252C192.704 247.888 193.082 247.608 193.521 247.412C193.959 247.207 194.449 247.104 194.991 247.104C195.607 247.104 196.139 247.239 196.587 247.51C197.035 247.771 197.385 248.163 197.637 248.686C197.889 249.199 198.029 249.834 198.057 250.59L197.469 250.044V244.78H199.723V255H197.945V251.822H198.253C198.225 252.55 198.071 253.171 197.791 253.684C197.52 254.197 197.151 254.589 196.685 254.86C196.218 255.121 195.681 255.252 195.075 255.252ZM195.635 253.376C195.98 253.376 196.293 253.301 196.573 253.152C196.862 252.993 197.091 252.765 197.259 252.466C197.436 252.167 197.525 251.808 197.525 251.388V250.87C197.525 250.459 197.436 250.114 197.259 249.834C197.081 249.554 196.848 249.339 196.559 249.19C196.269 249.041 195.957 248.966 195.621 248.966C195.247 248.966 194.911 249.064 194.613 249.26C194.323 249.447 194.095 249.708 193.927 250.044C193.759 250.371 193.675 250.753 193.675 251.192C193.675 251.64 193.759 252.027 193.927 252.354C194.095 252.681 194.328 252.933 194.627 253.11C194.925 253.287 195.261 253.376 195.635 253.376ZM202.118 255V247.328H204.358V255H202.118ZM201.096 248.98V247.328H204.358V248.98H201.096ZM202.986 246.572C202.566 246.572 202.254 246.465 202.048 246.25C201.852 246.026 201.754 245.746 201.754 245.41C201.754 245.065 201.852 244.785 202.048 244.57C202.254 244.346 202.566 244.234 202.986 244.234C203.406 244.234 203.714 244.346 203.91 244.57C204.116 244.785 204.218 245.065 204.218 245.41C204.218 245.746 204.116 246.026 203.91 246.25C203.714 246.465 203.406 246.572 202.986 246.572ZM206.43 255V247.328H208.208V250.618H208.082C208.082 249.834 208.18 249.181 208.376 248.658C208.582 248.135 208.89 247.743 209.3 247.482C209.711 247.221 210.21 247.09 210.798 247.09H210.896C211.792 247.09 212.474 247.384 212.94 247.972C213.416 248.551 213.654 249.433 213.654 250.618V255H211.414V250.492C211.414 250.081 211.293 249.745 211.05 249.484C210.808 249.223 210.481 249.092 210.07 249.092C209.65 249.092 209.31 249.227 209.048 249.498C208.796 249.759 208.67 250.105 208.67 250.534V255H206.43ZM218.587 258.052C218.214 258.052 217.831 258.038 217.439 258.01C217.047 257.982 216.688 257.945 216.361 257.898V256.008C216.688 256.055 217.047 256.092 217.439 256.12C217.84 256.157 218.204 256.176 218.531 256.176C219.138 256.176 219.628 256.106 220.001 255.966C220.384 255.826 220.664 255.611 220.841 255.322C221.018 255.042 221.107 254.678 221.107 254.23V252.704L221.513 251.808C221.494 252.489 221.359 253.073 221.107 253.558C220.864 254.043 220.524 254.417 220.085 254.678C219.646 254.93 219.124 255.056 218.517 255.056C217.994 255.056 217.518 254.963 217.089 254.776C216.669 254.58 216.31 254.309 216.011 253.964C215.712 253.619 215.484 253.217 215.325 252.76C215.166 252.293 215.087 251.789 215.087 251.248V250.926C215.087 250.385 215.171 249.881 215.339 249.414C215.507 248.947 215.75 248.541 216.067 248.196C216.384 247.851 216.762 247.585 217.201 247.398C217.64 247.202 218.125 247.104 218.657 247.104C219.273 247.104 219.805 247.239 220.253 247.51C220.71 247.781 221.07 248.177 221.331 248.7C221.592 249.223 221.732 249.853 221.751 250.59L221.443 250.674V247.328H223.221V254.09C223.221 255.033 223.053 255.793 222.717 256.372C222.381 256.951 221.868 257.375 221.177 257.646C220.496 257.917 219.632 258.052 218.587 258.052ZM219.217 253.166C219.562 253.166 219.875 253.091 220.155 252.942C220.435 252.783 220.654 252.559 220.813 252.27C220.981 251.981 221.065 251.631 221.065 251.22V250.814C221.065 250.413 220.976 250.077 220.799 249.806C220.631 249.526 220.407 249.316 220.127 249.176C219.847 249.027 219.548 248.952 219.231 248.952C218.858 248.952 218.526 249.041 218.237 249.218C217.948 249.395 217.724 249.643 217.565 249.96C217.406 250.277 217.327 250.651 217.327 251.08C217.327 251.519 217.406 251.897 217.565 252.214C217.733 252.522 217.957 252.76 218.237 252.928C218.526 253.087 218.853 253.166 219.217 253.166ZM228.268 255V247.258C228.268 246.371 228.52 245.713 229.024 245.284C229.528 244.855 230.27 244.64 231.25 244.64H232.23V246.32H231.152C230.9 246.32 230.704 246.39 230.564 246.53C230.424 246.67 230.354 246.866 230.354 247.118V255H228.268ZM227.358 249.12V247.482H232.342V249.12H227.358ZM237.156 255.266C236.484 255.266 235.887 255.163 235.364 254.958C234.842 254.743 234.398 254.454 234.034 254.09C233.68 253.726 233.409 253.311 233.222 252.844C233.036 252.368 232.942 251.869 232.942 251.346V251.024C232.942 250.492 233.036 249.988 233.222 249.512C233.418 249.027 233.698 248.602 234.062 248.238C234.436 247.874 234.884 247.589 235.406 247.384C235.929 247.169 236.512 247.062 237.156 247.062C237.819 247.062 238.407 247.169 238.92 247.384C239.443 247.589 239.886 247.874 240.25 248.238C240.614 248.602 240.894 249.027 241.09 249.512C241.286 249.988 241.384 250.492 241.384 251.024V251.346C241.384 251.869 241.291 252.368 241.104 252.844C240.918 253.311 240.642 253.726 240.278 254.09C239.924 254.454 239.485 254.743 238.962 254.958C238.44 255.163 237.838 255.266 237.156 255.266ZM237.156 253.376C237.595 253.376 237.959 253.283 238.248 253.096C238.538 252.909 238.757 252.648 238.906 252.312C239.065 251.976 239.144 251.603 239.144 251.192C239.144 250.753 239.065 250.371 238.906 250.044C238.748 249.708 238.519 249.442 238.22 249.246C237.931 249.05 237.576 248.952 237.156 248.952C236.746 248.952 236.391 249.05 236.092 249.246C235.794 249.442 235.565 249.708 235.406 250.044C235.257 250.371 235.182 250.753 235.182 251.192C235.182 251.603 235.257 251.976 235.406 252.312C235.556 252.648 235.78 252.909 236.078 253.096C236.377 253.283 236.736 253.376 237.156 253.376ZM242.948 255V247.328H244.726V250.618H244.684C244.684 249.535 244.912 248.7 245.37 248.112C245.836 247.524 246.508 247.23 247.386 247.23H247.68V249.162H247.12C246.504 249.162 246.028 249.33 245.692 249.666C245.356 249.993 245.188 250.469 245.188 251.094V255H242.948ZM113.938 274.038V272.134H115.534C115.777 272.134 115.982 272.101 116.15 272.036C116.318 271.98 116.453 271.882 116.556 271.742C116.659 271.602 116.743 271.411 116.808 271.168L118.698 263.328H120.826L118.684 271.616C118.535 272.213 118.325 272.689 118.054 273.044C117.793 273.399 117.438 273.651 116.99 273.8C116.551 273.959 115.991 274.038 115.31 274.038H113.938ZM116.346 270.832V269.082H117.97V270.832H116.346ZM115.422 270.832L113.07 263.328H115.324L117.55 270.832H115.422ZM125.567 271.266C124.895 271.266 124.297 271.163 123.775 270.958C123.252 270.743 122.809 270.454 122.445 270.09C122.09 269.726 121.819 269.311 121.633 268.844C121.446 268.368 121.353 267.869 121.353 267.346V267.024C121.353 266.492 121.446 265.988 121.633 265.512C121.829 265.027 122.109 264.602 122.473 264.238C122.846 263.874 123.294 263.589 123.817 263.384C124.339 263.169 124.923 263.062 125.567 263.062C126.229 263.062 126.817 263.169 127.331 263.384C127.853 263.589 128.297 263.874 128.661 264.238C129.025 264.602 129.305 265.027 129.501 265.512C129.697 265.988 129.795 266.492 129.795 267.024V267.346C129.795 267.869 129.701 268.368 129.515 268.844C129.328 269.311 129.053 269.726 128.689 270.09C128.334 270.454 127.895 270.743 127.373 270.958C126.85 271.163 126.248 271.266 125.567 271.266ZM125.567 269.376C126.005 269.376 126.369 269.283 126.659 269.096C126.948 268.909 127.167 268.648 127.317 268.312C127.475 267.976 127.555 267.603 127.555 267.192C127.555 266.753 127.475 266.371 127.317 266.044C127.158 265.708 126.929 265.442 126.631 265.246C126.341 265.05 125.987 264.952 125.567 264.952C125.156 264.952 124.801 265.05 124.503 265.246C124.204 265.442 123.975 265.708 123.817 266.044C123.667 266.371 123.593 266.753 123.593 267.192C123.593 267.603 123.667 267.976 123.817 268.312C123.966 268.648 124.19 268.909 124.489 269.096C124.787 269.283 125.147 269.376 125.567 269.376ZM133.948 271.238C133.061 271.238 132.38 270.953 131.904 270.384C131.428 269.805 131.19 268.937 131.19 267.78V263.328H133.43V267.892C133.43 268.303 133.547 268.629 133.78 268.872C134.013 269.115 134.326 269.236 134.718 269.236C135.119 269.236 135.446 269.11 135.698 268.858C135.95 268.606 136.076 268.265 136.076 267.836V263.328H138.316V271H136.538V267.766H136.692C136.692 268.541 136.589 269.189 136.384 269.712C136.188 270.225 135.894 270.608 135.502 270.86C135.11 271.112 134.625 271.238 134.046 271.238H133.948ZM140.381 271V263.328H142.159V266.618H142.117C142.117 265.535 142.346 264.7 142.803 264.112C143.27 263.524 143.942 263.23 144.819 263.23H145.113V265.162H144.553C143.937 265.162 143.461 265.33 143.125 265.666C142.789 265.993 142.621 266.469 142.621 267.094V271H140.381ZM152.657 271.266C151.995 271.266 151.416 271.159 150.921 270.944C150.436 270.72 150.03 270.421 149.703 270.048C149.377 269.675 149.134 269.255 148.975 268.788C148.817 268.312 148.737 267.822 148.737 267.318V267.052C148.737 266.529 148.821 266.03 148.989 265.554C149.157 265.069 149.405 264.639 149.731 264.266C150.058 263.893 150.464 263.599 150.949 263.384C151.444 263.169 152.009 263.062 152.643 263.062C153.334 263.062 153.945 263.197 154.477 263.468C155.009 263.729 155.434 264.098 155.751 264.574C156.069 265.05 156.246 265.596 156.283 266.212H154.085C154.048 265.867 153.908 265.577 153.665 265.344C153.432 265.101 153.091 264.98 152.643 264.98C152.27 264.98 151.957 265.073 151.705 265.26C151.463 265.447 151.281 265.703 151.159 266.03C151.038 266.357 150.977 266.744 150.977 267.192C150.977 267.603 151.033 267.976 151.145 268.312C151.257 268.639 151.435 268.895 151.677 269.082C151.929 269.259 152.256 269.348 152.657 269.348C152.956 269.348 153.208 269.297 153.413 269.194C153.628 269.082 153.796 268.933 153.917 268.746C154.048 268.55 154.127 268.326 154.155 268.074H156.339C156.311 268.709 156.134 269.269 155.807 269.754C155.481 270.23 155.047 270.603 154.505 270.874C153.964 271.135 153.348 271.266 152.657 271.266ZM157.87 271V260.78H160.124V271H157.87ZM156.96 262.432V260.78H160.124V262.432H156.96ZM162.552 271V263.328H164.792V271H162.552ZM161.53 264.98V263.328H164.792V264.98H161.53ZM163.42 262.572C163 262.572 162.687 262.465 162.482 262.25C162.286 262.026 162.188 261.746 162.188 261.41C162.188 261.065 162.286 260.785 162.482 260.57C162.687 260.346 163 260.234 163.42 260.234C163.84 260.234 164.148 260.346 164.344 260.57C164.549 260.785 164.652 261.065 164.652 261.41C164.652 261.746 164.549 262.026 164.344 262.25C164.148 262.465 163.84 262.572 163.42 262.572ZM170.378 271.266C169.724 271.266 169.146 271.154 168.642 270.93C168.147 270.706 167.732 270.407 167.396 270.034C167.069 269.651 166.817 269.227 166.64 268.76C166.472 268.284 166.388 267.799 166.388 267.304V267.024C166.388 266.511 166.472 266.021 166.64 265.554C166.817 265.078 167.069 264.653 167.396 264.28C167.722 263.907 168.128 263.613 168.614 263.398C169.108 263.174 169.668 263.062 170.294 263.062C171.115 263.062 171.806 263.249 172.366 263.622C172.935 263.986 173.369 264.467 173.668 265.064C173.966 265.652 174.116 266.296 174.116 266.996V267.752H167.326V266.478H172.758L172.03 267.066C172.03 266.609 171.964 266.217 171.834 265.89C171.703 265.563 171.507 265.316 171.246 265.148C170.994 264.971 170.676 264.882 170.294 264.882C169.902 264.882 169.57 264.971 169.3 265.148C169.029 265.325 168.824 265.587 168.684 265.932C168.544 266.268 168.474 266.683 168.474 267.178C168.474 267.635 168.539 268.037 168.67 268.382C168.8 268.718 169.006 268.979 169.286 269.166C169.566 269.353 169.93 269.446 170.378 269.446C170.788 269.446 171.124 269.367 171.386 269.208C171.647 269.049 171.824 268.853 171.918 268.62H173.976C173.864 269.133 173.644 269.591 173.318 269.992C172.991 270.393 172.58 270.706 172.086 270.93C171.591 271.154 171.022 271.266 170.378 271.266ZM175.6 271V263.328H177.378V266.618H177.252C177.252 265.834 177.35 265.181 177.546 264.658C177.751 264.135 178.059 263.743 178.47 263.482C178.881 263.221 179.38 263.09 179.968 263.09H180.066C180.962 263.09 181.643 263.384 182.11 263.972C182.586 264.551 182.824 265.433 182.824 266.618V271H180.584V266.492C180.584 266.081 180.463 265.745 180.22 265.484C179.977 265.223 179.651 265.092 179.24 265.092C178.82 265.092 178.479 265.227 178.218 265.498C177.966 265.759 177.84 266.105 177.84 266.534V271H175.6ZM188.219 271.098C187.444 271.098 186.819 271.005 186.343 270.818C185.867 270.622 185.517 270.3 185.293 269.852C185.078 269.395 184.971 268.779 184.971 268.004V261.256H187.057V268.088C187.057 268.452 187.15 268.732 187.337 268.928C187.533 269.115 187.808 269.208 188.163 269.208H189.297V271.098H188.219ZM183.809 264.966V263.328H189.297V264.966H183.809ZM193.911 271V263.258C193.911 262.371 194.163 261.713 194.667 261.284C195.171 260.855 195.913 260.64 196.893 260.64H197.873V262.32H196.795C196.543 262.32 196.347 262.39 196.207 262.53C196.067 262.67 195.997 262.866 195.997 263.118V271H193.911ZM193.001 265.12V263.482H197.985V265.12H193.001ZM203.695 271V268.732H203.317V266.268C203.317 265.876 203.224 265.582 203.037 265.386C202.85 265.19 202.552 265.092 202.141 265.092C201.936 265.092 201.665 265.097 201.329 265.106C200.993 265.115 200.648 265.129 200.293 265.148C199.938 265.167 199.616 265.185 199.327 265.204V263.314C199.542 263.295 199.794 263.277 200.083 263.258C200.372 263.239 200.671 263.225 200.979 263.216C201.287 263.207 201.576 263.202 201.847 263.202C202.631 263.202 203.289 263.314 203.821 263.538C204.362 263.762 204.773 264.103 205.053 264.56C205.333 265.008 205.473 265.587 205.473 266.296V271H203.695ZM201.245 271.196C200.694 271.196 200.209 271.098 199.789 270.902C199.378 270.706 199.056 270.426 198.823 270.062C198.59 269.689 198.473 269.245 198.473 268.732C198.473 268.172 198.618 267.715 198.907 267.36C199.196 266.996 199.602 266.73 200.125 266.562C200.648 266.385 201.25 266.296 201.931 266.296H203.569V267.542H201.917C201.525 267.542 201.222 267.64 201.007 267.836C200.802 268.023 200.699 268.279 200.699 268.606C200.699 268.914 200.802 269.166 201.007 269.362C201.222 269.549 201.525 269.642 201.917 269.642C202.169 269.642 202.393 269.6 202.589 269.516C202.794 269.423 202.962 269.269 203.093 269.054C203.224 268.839 203.298 268.541 203.317 268.158L203.849 268.718C203.802 269.25 203.672 269.698 203.457 270.062C203.252 270.426 202.962 270.706 202.589 270.902C202.225 271.098 201.777 271.196 201.245 271.196ZM210.286 271.238C209.194 271.238 208.34 271.014 207.724 270.566C207.108 270.118 206.781 269.488 206.744 268.676H208.732C208.769 268.919 208.914 269.138 209.166 269.334C209.427 269.521 209.814 269.614 210.328 269.614C210.72 269.614 211.042 269.549 211.294 269.418C211.555 269.278 211.686 269.082 211.686 268.83C211.686 268.606 211.588 268.429 211.392 268.298C211.196 268.158 210.846 268.06 210.342 268.004L209.74 267.948C208.816 267.855 208.12 267.598 207.654 267.178C207.196 266.758 206.968 266.221 206.968 265.568C206.968 265.027 207.103 264.574 207.374 264.21C207.644 263.846 208.018 263.571 208.494 263.384C208.979 263.197 209.53 263.104 210.146 263.104C211.135 263.104 211.933 263.323 212.54 263.762C213.146 264.191 213.464 264.817 213.492 265.638H211.504C211.466 265.386 211.336 265.176 211.112 265.008C210.888 264.831 210.556 264.742 210.118 264.742C209.772 264.742 209.497 264.807 209.292 264.938C209.086 265.069 208.984 265.246 208.984 265.47C208.984 265.685 209.072 265.848 209.25 265.96C209.427 266.072 209.716 266.151 210.118 266.198L210.72 266.254C211.662 266.357 212.395 266.618 212.918 267.038C213.44 267.458 213.702 268.023 213.702 268.732C213.702 269.245 213.562 269.693 213.282 270.076C213.002 270.449 212.605 270.739 212.092 270.944C211.578 271.14 210.976 271.238 210.286 271.238ZM218.639 271.098C217.864 271.098 217.239 271.005 216.763 270.818C216.287 270.622 215.937 270.3 215.713 269.852C215.498 269.395 215.391 268.779 215.391 268.004V261.256H217.477V268.088C217.477 268.452 217.57 268.732 217.757 268.928C217.953 269.115 218.228 269.208 218.583 269.208H219.717V271.098H218.639ZM214.229 264.966V263.328H219.717V264.966H214.229ZM224.71 271.266C224.056 271.266 223.478 271.154 222.974 270.93C222.479 270.706 222.064 270.407 221.728 270.034C221.401 269.651 221.149 269.227 220.972 268.76C220.804 268.284 220.72 267.799 220.72 267.304V267.024C220.72 266.511 220.804 266.021 220.972 265.554C221.149 265.078 221.401 264.653 221.728 264.28C222.054 263.907 222.46 263.613 222.946 263.398C223.44 263.174 224 263.062 224.626 263.062C225.447 263.062 226.138 263.249 226.698 263.622C227.267 263.986 227.701 264.467 228 265.064C228.298 265.652 228.448 266.296 228.448 266.996V267.752H221.658V266.478H227.09L226.362 267.066C226.362 266.609 226.296 266.217 226.166 265.89C226.035 265.563 225.839 265.316 225.578 265.148C225.326 264.971 225.008 264.882 224.626 264.882C224.234 264.882 223.902 264.971 223.632 265.148C223.361 265.325 223.156 265.587 223.016 265.932C222.876 266.268 222.806 266.683 222.806 267.178C222.806 267.635 222.871 268.037 223.002 268.382C223.132 268.718 223.338 268.979 223.618 269.166C223.898 269.353 224.262 269.446 224.71 269.446C225.12 269.446 225.456 269.367 225.718 269.208C225.979 269.049 226.156 268.853 226.25 268.62H228.308C228.196 269.133 227.976 269.591 227.65 269.992C227.323 270.393 226.912 270.706 226.418 270.93C225.923 271.154 225.354 271.266 224.71 271.266ZM229.932 271V263.328H231.71V266.618H231.668C231.668 265.535 231.897 264.7 232.354 264.112C232.821 263.524 233.493 263.23 234.37 263.23H234.664V265.162H234.104C233.488 265.162 233.012 265.33 232.676 265.666C232.34 265.993 232.172 266.469 232.172 267.094V271H229.932ZM235.881 267.542V260.78H238.177V267.542H235.881ZM235.713 271V268.746H238.345V271H235.713Z" fill="#616C74"/>
<rect x="73" y="67" width="155" height="8" rx="4" fill="url(#paint1_linear_1941_42671)"/>
<rect x="73" y="87" width="94" height="8" rx="4" fill="url(#paint2_linear_1941_42671)"/>
<rect x="50.5" y="35.5" width="235" height="296" stroke="#108E8E" shape-rendering="crispEdges"/>
</g>
<defs>
<filter id="filter0_bdddd_1941_42671" x="0" y="0" width="336" height="397" filterUnits="userSpaceOnUse" color-interpolation-filters="sRGB">
<feFlood flood-opacity="0" result="BackgroundImageFix"/>
<feGaussianBlur in="BackgroundImageFix" stdDeviation="2.5"/>
<feComposite in2="SourceAlpha" operator="in" result="effect1_backgroundBlur_1941_42671"/>
<feColorMatrix in="SourceAlpha" type="matrix" values="0 0 0 0 0 0 0 0 0 0 0 0 0 0 0 0 0 0 127 0" result="hardAlpha"/>
<feOffset dy="1.18968"/>
<feGaussianBlur stdDeviation="1.18968"/>
<feComposite in2="hardAlpha" operator="out"/>
<feColorMatrix type="matrix" values="0 0 0 0 0 0 0 0 0 0.0966667 0 0 0 0 0.1 0 0 0 0.25 0"/>
<feBlend mode="normal" in2="effect1_backgroundBlur_1941_42671" result="effect2_dropShadow_1941_42671"/>
<feColorMatrix in="SourceAlpha" type="matrix" values="0 0 0 0 0 0 0 0 0 0 0 0 0 0 0 0 0 0 127 0" result="hardAlpha"/>
<feOffset dy="1.18968"/>
<feGaussianBlur stdDeviation="4.75871"/>
<feComposite in2="hardAlpha" operator="out"/>
<feColorMatrix type="matrix" values="0 0 0 0 0 0 0 0 0 0.0966667 0 0 0 0 0.1 0 0 0 0.2 0"/>
<feBlend mode="darken" in2="effect2_dropShadow_1941_42671" result="effect3_dropShadow_1941_42671"/>
<feColorMatrix in="SourceAlpha" type="matrix" values="0 0 0 0 0 0 0 0 0 0 0 0 0 0 0 0 0 0 127 0" result="hardAlpha"/>
<feOffset dy="10"/>
<feGaussianBlur stdDeviation="10"/>
<feComposite in2="hardAlpha" operator="out"/>
<feColorMatrix type="matrix" values="0 0 0 0 0 0 0 0 0 0.0966667 0 0 0 0 0.1 0 0 0 0.2 0"/>
<feBlend mode="normal" in2="effect3_dropShadow_1941_42671" result="effect4_dropShadow_1941_42671"/>
<feColorMatrix in="SourceAlpha" type="matrix" values="0 0 0 0 0 0 0 0 0 0 0 0 0 0 0 0 0 0 127 0" result="hardAlpha"/>
<feOffset dy="15"/>
<feGaussianBlur stdDeviation="25"/>
<feComposite in2="hardAlpha" operator="out"/>
<feColorMatrix type="matrix" values="0 0 0 0 0 0 0 0 0 0.193333 0 0 0 0 0.2 0 0 0 0.15 0"/>
<feBlend mode="normal" in2="effect4_dropShadow_1941_42671" result="effect5_dropShadow_1941_42671"/>
<feBlend mode="normal" in="SourceGraphic" in2="effect5_dropShadow_1941_42671" result="shape"/>
</filter>
<radialGradient id="paint0_radial_1941_42671" cx="0" cy="0" r="1" gradientUnits="userSpaceOnUse" gradientTransform="translate(73.9452 91.4801) rotate(50.6975) scale(334.466 316.083)">
<stop stop-color="#DADADA"/>
<stop offset="0.802083" stop-color="white"/>
</radialGradient>
<linearGradient id="paint1_linear_1941_42671" x1="74.2917" y1="71" x2="234.458" y2="71" gradientUnits="userSpaceOnUse">
<stop stop-color="#128081"/>
<stop offset="1" stop-color="#BBE0D9" stop-opacity="0.04"/>
</linearGradient>
<linearGradient id="paint2_linear_1941_42671" x1="73.7833" y1="91" x2="170.917" y2="91" gradientUnits="userSpaceOnUse">
<stop stop-color="#128081"/>
<stop offset="1" stop-color="#BBE0D9" stop-opacity="0.04"/>
</linearGradient>
</defs>
</svg>
