<svg xmlns="http://www.w3.org/2000/svg" width="159" height="40" fill="none" viewBox="0 0 159 40"><g clip-path="url(#clip0_10048_1839)"><path fill="#00022b" d="M106.341 36.839a4.3 4.3 0 0 1-.965.082 2.2 2.2 0 0 1-.844-.183 1.15 1.15 0 0 1-.56-.53 1.55 1.55 0 0 1-.183-.657 25 25 0 0 1-.01-.761v-4.605h1.013v4.556q0 .314.005.545.01.233.101.39.174.3.55.343.382.039.893-.033zm-3.561-4.398v-.81h3.561v.81zM99.386 36.979q-.54 0-.907-.174a1.7 1.7 0 0 1-.598-.453 2.2 2.2 0 0 1-.347-.617 3.2 3.2 0 0 1-.165-.651 4 4 0 0 1-.043-.56v-2.893h1.023v2.56q0 .304.048.628.054.318.193.593.145.274.4.443.261.17.676.169.27 0 .512-.087.24-.09.419-.29.184-.196.285-.52.106-.323.106-.786l.627.236q0 .709-.265 1.254a2 2 0 0 1-.762.844q-.497.303-1.202.304m1.723-.14v-1.505h-.121v-3.703h1.018v5.208zM93.93 36.984q-.783 0-1.356-.352a2.37 2.37 0 0 1-.888-.97q-.309-.622-.309-1.432 0-.814.318-1.432.319-.622.893-.964.575-.348 1.341-.347.783 0 1.356.352.575.351.888.969.314.617.314 1.422 0 .816-.319 1.437-.314.618-.888.97-.574.345-1.35.346m0-.95q.748 0 1.114-.502.371-.505.371-1.302 0-.814-.376-1.302-.372-.492-1.11-.491-.506 0-.834.231a1.34 1.34 0 0 0-.487.632q-.16.4-.16.93 0 .82.377 1.312.376.492 1.104.492M88.428 36.984q-.801 0-1.36-.357a2.33 2.33 0 0 1-.86-.98 3.3 3.3 0 0 1-.299-1.412q.005-.805.309-1.422.304-.623.868-.974.566-.352 1.356-.352.855 0 1.458.424.608.424.8 1.162l-1.003.29q-.15-.44-.493-.68a1.3 1.3 0 0 0-.776-.246q-.496 0-.816.236-.319.231-.472.636-.154.405-.16.926.006.805.367 1.302.367.497 1.08.497.489 0 .787-.222a1.4 1.4 0 0 0 .463-.646l1.023.24q-.256.764-.844 1.173-.588.405-1.428.404M82.507 36.984q-.748 0-1.351-.256a2.6 2.6 0 0 1-.989-.738 2.5 2.5 0 0 1-.502-1.143l1.052-.159q.159.637.666.994a2.02 2.02 0 0 0 1.182.352q.42 0 .772-.13.353-.136.564-.381a.88.88 0 0 0 .218-.598.78.78 0 0 0-.246-.584 1 1 0 0 0-.276-.188 2 2 0 0 0-.352-.14l-1.78-.525a4 4 0 0 1-.53-.198 2 2 0 0 1-.498-.323 1.6 1.6 0 0 1-.362-.497q-.14-.298-.14-.723 0-.641.329-1.085.332-.448.897-.675a3.3 3.3 0 0 1 1.264-.231q.705.01 1.26.25.559.241.926.695.371.448.511 1.09l-1.08.183a1.4 1.4 0 0 0-.31-.67 1.55 1.55 0 0 0-.579-.435 1.8 1.8 0 0 0-.742-.159 1.8 1.8 0 0 0-.71.116q-.318.126-.511.352a.8.8 0 0 0-.188.52q0 .291.169.468.168.18.414.285.252.102.497.169l1.284.361q.24.067.545.184.31.11.593.313.29.203.478.54.189.333.189.84 0 .525-.213.925a1.96 1.96 0 0 1-.584.665q-.366.265-.849.4a3.8 3.8 0 0 1-1.018.136M76.34 36.984q-.778 0-1.366-.338a2.4 2.4 0 0 1-.912-.95q-.324-.612-.324-1.417 0-.855.319-1.48.323-.628.897-.97t1.337-.342q.795 0 1.355.37.56.367.835 1.047.28.68.222 1.616h-1.008v-.367q-.01-.906-.347-1.34-.334-.434-1.019-.434-.757 0-1.138.477-.382.477-.382 1.38 0 .857.382 1.33.38.468 1.1.468.473 0 .815-.212.348-.217.54-.618l.99.314q-.304.7-.922 1.085-.618.38-1.375.38M74.48 34.52v-.786h3.72v.786zM71.731 36.839V29.75h1.009v7.088zM68.071 39.298q-.42 0-.815-.13a2.3 2.3 0 0 1-.714-.386 2.1 2.1 0 0 1-.536-.622l.932-.472q.168.332.482.487.315.154.661.154.429 0 .733-.154.304-.15.459-.453.159-.304.154-.753v-1.456h.12V31.63h.893v5.348q0 .207-.014.395t-.053.377q-.111.526-.425.867-.31.343-.791.511-.477.17-1.086.169m-.077-2.315q-.728 0-1.26-.361a2.4 2.4 0 0 1-.815-.984 3.4 3.4 0 0 1-.284-1.408q0-.785.29-1.403a2.34 2.34 0 0 1 .82-.979q.535-.36 1.268-.361.74 0 1.24.361.507.357.763.98a3.6 3.6 0 0 1 .26 1.402q0 .781-.26 1.404-.261.621-.767.988-.507.361-1.255.361m.14-.91q.497 0 .81-.237.314-.236.459-.651t.145-.955-.15-.954a1.33 1.33 0 0 0-.453-.647q-.305-.231-.777-.231-.502 0-.825.246a1.47 1.47 0 0 0-.483.66 2.6 2.6 0 0 0-.154.926q0 .516.154.936.16.414.473.66.319.246.801.246M63.646 36.839v-2.56q0-.304-.054-.623a1.9 1.9 0 0 0-.193-.597 1.13 1.13 0 0 0-.4-.444q-.255-.17-.671-.169-.27 0-.511.092-.242.087-.425.284a1.4 1.4 0 0 0-.285.521 2.7 2.7 0 0 0-.1.786l-.628-.236q0-.71.265-1.25.265-.543.763-.848.496-.303 1.201-.304.54 0 .907.174t.594.458q.23.28.352.613.12.332.164.65.043.32.043.56v2.893zm-3.663 0V31.63h.903v1.505h.12v3.703zM56.138 36.979q-.54 0-.907-.174a1.7 1.7 0 0 1-.598-.453 2.2 2.2 0 0 1-.347-.617 3.2 3.2 0 0 1-.165-.651 4 4 0 0 1-.043-.56v-2.893h1.023v2.56q0 .304.048.628.053.318.193.593.145.274.4.443.261.17.676.169.27 0 .511-.087.242-.09.42-.29.185-.196.285-.52.106-.323.106-.786l.627.236q0 .709-.265 1.254a2 2 0 0 1-.762.844q-.497.303-1.202.304m1.723-.14v-1.505h-.12v-3.703h1.017v5.208zM50.946 36.979q-.762 0-1.283-.405a2.07 2.07 0 0 1-.715-1.09l.999-.236q.068.323.343.554a.97.97 0 0 0 .622.227q.227 0 .473-.116a.75.75 0 0 0 .367-.376q.082-.174.096-.395.014-.227.014-.526v-4.72h1.023v4.72q0 .309-.004.55 0 .24-.049.453a1.5 1.5 0 0 1-.174.439 1.7 1.7 0 0 1-.723.7q-.45.22-.99.22M158.344 24.009q-1.457.285-2.856.243-1.4-.044-2.5-.543a3.4 3.4 0 0 1-1.657-1.57 4.6 4.6 0 0 1-.543-1.942 80 80 0 0 1-.029-2.255V4.309h3v13.49q0 .928.014 1.613.029.686.301 1.157.513.885 1.628 1.013 1.128.114 2.642-.1zm-10.541-13.02V8.592h10.541v2.399zM140.758 24.423q-2.814 0-4.586-1.242-1.771-1.242-2.171-3.498l3.057-.47q.285 1.199 1.314 1.898 1.043.685 2.585.685 1.4 0 2.186-.57.8-.572.8-1.571 0-.585-.286-.942-.271-.371-1.157-.7-.885-.328-2.7-.814-1.985-.513-3.157-1.099-1.156-.6-1.656-1.384-.486-.8-.486-1.928 0-1.399.743-2.44.742-1.043 2.085-1.614 1.357-.57 3.172-.57 1.77 0 3.156.556 1.386.557 2.243 1.585.857 1.013 1.028 2.383l-3.057.557q-.157-1.113-1.042-1.756-.886-.642-2.3-.7-1.357-.056-2.2.458-.843.5-.843 1.384 0 .514.314.871.33.357 1.258.685.928.33 2.742.786 1.943.5 3.086 1.113 1.143.6 1.628 1.442.5.828.5 2.013 0 2.283-1.671 3.583-1.657 1.299-4.585 1.299M121.923 30.861l2.986-8.122.043 2.398-6.728-16.545h3.114l5.028 12.776h-.915l4.8-12.776h3.028l-8.513 22.27zM113.222 24.009V3.024h2.985V24.01zM101.685 24.437q-1.714 0-2.87-.628-1.158-.642-1.758-1.684a4.7 4.7 0 0 1-.585-2.313q0-1.17.414-2.056.415-.885 1.228-1.499.815-.627 2-1.013 1.029-.3 2.328-.528a80 80 0 0 1 2.729-.429q1.442-.2 2.857-.4l-1.086.6q.028-1.813-.771-2.684-.786-.885-2.714-.885-1.215 0-2.229.571-1.014.557-1.414 1.856l-2.785-.856q.57-1.985 2.171-3.155 1.614-1.17 4.285-1.17 2.072 0 3.6.713a4.44 4.44 0 0 1 2.257 2.227q.371.756.457 1.599.086.842.086 1.813v9.493h-2.643v-3.526l.514.457q-.957 1.77-2.442 2.64-1.472.857-3.629.857m.529-2.441q1.272 0 2.185-.442.914-.457 1.472-1.157.557-.699.728-1.456.242-.685.272-1.542.043-.855.043-1.37l.971.357q-1.415.214-2.571.385-1.158.172-2.1.343-.928.156-1.657.385-.614.214-1.1.514-.471.3-.757.728-.272.429-.272 1.042 0 .6.3 1.114.3.5.915.8.614.3 1.571.299M94.735 24.009q-1.457.285-2.857.243-1.4-.044-2.5-.543a3.4 3.4 0 0 1-1.656-1.57 4.6 4.6 0 0 1-.543-1.942 80 80 0 0 1-.029-2.255V4.309h3v13.49q0 .928.014 1.613.03.686.3 1.157.515.885 1.628 1.013 1.13.114 2.643-.1zm-10.542-13.02V8.592h10.542v2.399zM74.657 24.437q-1.715 0-2.871-.628-1.157-.642-1.757-1.684a4.7 4.7 0 0 1-.586-2.313q0-1.17.415-2.056a3.96 3.96 0 0 1 1.228-1.499q.815-.627 2-1.013a22 22 0 0 1 2.328-.528 79 79 0 0 1 2.728-.429q1.444-.2 2.857-.4l-1.085.6q.028-1.813-.772-2.684-.785-.885-2.714-.885-1.214 0-2.228.571-1.014.557-1.414 1.856L70 12.49q.572-1.985 2.172-3.155 1.614-1.17 4.285-1.17 2.07 0 3.6.713a4.44 4.44 0 0 1 2.257 2.227q.371.756.457 1.599.085.842.085 1.813v9.493h-2.642v-3.526l.514.457q-.957 1.77-2.443 2.64-1.47.857-3.628.857m.529-2.441q1.271 0 2.185-.442.915-.457 1.471-1.157.558-.699.729-1.456.243-.685.271-1.542.043-.855.043-1.37l.971.357q-1.414.214-2.57.385a66 66 0 0 0-2.1.343q-.93.156-1.658.385-.614.214-1.1.514a2.5 2.5 0 0 0-.757.728q-.27.429-.27 1.042 0 .6.3 1.114.3.5.914.8t1.57.299M58.676 24.437q-3.086 0-5.257-1.342-2.17-1.356-3.328-3.768-1.143-2.413-1.143-5.596t1.143-5.596q1.156-2.413 3.328-3.755 2.172-1.356 5.257-1.356 3.557 0 5.885 1.799 2.343 1.798 3.257 4.84l-3.028.813q-.6-2.156-2.143-3.383-1.53-1.228-3.971-1.228-2.185 0-3.643.985-1.456.985-2.2 2.755-.728 1.77-.728 4.126-.014 2.355.714 4.125.743 1.77 2.2 2.755 1.472.985 3.657.985 2.442 0 3.97-1.227 1.544-1.242 2.144-3.384l3.028.814q-.915 3.04-3.257 4.84-2.328 1.798-5.885 1.798"/><path fill="#ff5e00" d="M.655 4.005A3.304 3.304 0 0 1 3.96.702h32.001a3.304 3.304 0 0 1 3.305 3.303v31.98a3.304 3.304 0 0 1-3.305 3.303h-32a3.304 3.304 0 0 1-3.306-3.302z"/><path fill="#fff" fill-rule="evenodd" d="M20.176 15.846a4.444 4.444 0 0 0-4.446 4.442 4.444 4.444 0 0 0 4.446 4.444 4.444 4.444 0 0 0 4.446-4.443v-4.42h8.098v4.42c0 6.923-5.616 12.535-12.544 12.535-6.927 0-12.543-5.612-12.543-12.535 0-6.924 5.616-12.536 12.543-12.536h4.464v8.092z" clip-rule="evenodd"/></g><defs><clipPath id="clip0_10048_1839"><path fill="#fff" d="M0 0h159v40H0z"/></clipPath></defs></svg>