<svg xmlns="http://www.w3.org/2000/svg" width="348" height="147" fill="none" viewBox="0 0 348 147"><mask id="path-1-inside-1_43_150" fill="#fff"><path d="M342.125 24.647h-10v157h10z"/></mask><path fill="url(#paint0_linear_43_150)" d="M342.125 24.647h-10v157h10z"/><path fill="#2cafb2" d="M342.125 24.647v1h-10v-2h10z" mask="url(#path-1-inside-1_43_150)"/><mask id="path-3-inside-2_43_150" fill="#fff"><path d="M320.375 11.647h-10v170h10z"/></mask><path fill="url(#paint1_linear_43_150)" d="M320.375 11.647h-10v170h10z"/><path fill="#2cafb2" d="M320.375 11.647v1h-10v-2h10z" mask="url(#path-3-inside-2_43_150)"/><mask id="path-5-inside-3_43_150" fill="#fff"><path d="M298.625 28.647h-10v153h10z"/></mask><path fill="url(#paint2_linear_43_150)" d="M298.625 28.647h-10v153h10z"/><path fill="#2cafb2" d="M298.625 28.647v1h-10v-2h10z" mask="url(#path-5-inside-3_43_150)"/><mask id="path-7-inside-4_43_150" fill="#fff"><path d="M276.875 64.647h-10v117h10z"/></mask><path fill="url(#paint3_linear_43_150)" d="M276.875 64.647h-10v117h10z"/><path fill="#2cafb2" d="M276.875 64.647v1h-10v-2h10z" mask="url(#path-7-inside-4_43_150)"/><mask id="path-9-inside-5_43_150" fill="#fff"><path d="M255.125 68.647h-10v113h10z"/></mask><path fill="url(#paint4_linear_43_150)" d="M255.125 68.647h-10v113h10z"/><path fill="#2cafb2" d="M255.125 68.647v1h-10v-2h10z" mask="url(#path-9-inside-5_43_150)"/><mask id="path-11-inside-6_43_150" fill="#fff"><path d="M233.375 45.647h-10v136h10z"/></mask><path fill="url(#paint5_linear_43_150)" d="M233.375 45.647h-10v136h10z"/><path fill="#2cafb2" d="M233.375 45.647v1h-10v-2h10z" mask="url(#path-11-inside-6_43_150)"/><mask id="path-13-inside-7_43_150" fill="#fff"><path d="M211.625 54.647h-10v127h10z"/></mask><path fill="url(#paint6_linear_43_150)" d="M211.625 54.647h-10v127h10z"/><path fill="#2cafb2" d="M211.625 54.647v1h-10v-2h10z" mask="url(#path-13-inside-7_43_150)"/><mask id="path-15-inside-8_43_150" fill="#fff"><path d="M189.875 73.647h-10v108h10z"/></mask><path fill="url(#paint7_linear_43_150)" d="M189.875 73.647h-10v108h10z"/><path fill="#2cafb2" d="M189.875 73.647v1h-10v-2h10z" mask="url(#path-15-inside-8_43_150)"/><mask id="path-17-inside-9_43_150" fill="#fff"><path d="M168.125 92.647h-10v89h10z"/></mask><path fill="url(#paint8_linear_43_150)" d="M168.125 92.647h-10v89h10z"/><path fill="#2cafb2" d="M168.125 92.647v1h-10v-2h10z" mask="url(#path-17-inside-9_43_150)"/><mask id="path-19-inside-10_43_150" fill="#fff"><path d="M146.375 43.647h-10v138h10z"/></mask><path fill="url(#paint9_linear_43_150)" d="M146.375 43.647h-10v138h10z"/><path fill="#2cafb2" d="M146.375 43.647v1h-10v-2h10z" mask="url(#path-19-inside-10_43_150)"/><mask id="path-21-inside-11_43_150" fill="#fff"><path d="M124.625 32.647h-10v149h10z"/></mask><path fill="url(#paint10_linear_43_150)" d="M124.625 32.647h-10v149h10z"/><path fill="#2cafb2" d="M124.625 32.647v1h-10v-2h10z" mask="url(#path-21-inside-11_43_150)"/><mask id="path-23-inside-12_43_150" fill="#fff"><path d="M102.875 10.647h-10v171h10z"/></mask><path fill="url(#paint11_linear_43_150)" d="M102.875 10.647h-10v171h10z"/><path fill="#2cafb2" d="M102.875 10.647v1h-10v-2h10z" mask="url(#path-23-inside-12_43_150)"/><mask id="path-25-inside-13_43_150" fill="#fff"><path d="M81.125 29.647h-10v152h10z"/></mask><path fill="url(#paint12_linear_43_150)" d="M81.125 29.647h-10v152h10z"/><path fill="#2cafb2" d="M81.125 29.647v1h-10v-2h10z" mask="url(#path-25-inside-13_43_150)"/><mask id="path-27-inside-14_43_150" fill="#fff"><path d="M59.375 66.647h-10v115h10z"/></mask><path fill="url(#paint13_linear_43_150)" d="M59.375 66.647h-10v115h10z"/><path fill="#2cafb2" d="M59.375 66.647v1h-10v-2h10z" mask="url(#path-27-inside-14_43_150)"/><mask id="path-29-inside-15_43_150" fill="#fff"><path d="M37.625 57.647h-10v124h10z"/></mask><path fill="url(#paint14_linear_43_150)" d="M37.625 57.647h-10v124h10z"/><path fill="#2cafb2" d="M37.625 57.647v1h-10v-2h10z" mask="url(#path-29-inside-15_43_150)"/><mask id="path-31-inside-16_43_150" fill="#fff"><path d="M15.875 47.647h-10v134h10z"/></mask><path fill="url(#paint15_linear_43_150)" d="M15.875 47.647h-10v134h10z"/><path fill="#2cafb2" d="M15.875 47.647v1h-10v-2h10z" mask="url(#path-31-inside-16_43_150)"/><path fill="#000" fill-opacity=".05" d="M348 45.5H0v1h348zm0 45.5H0v1h348zm0 45.5H0v1h348z"/><g clip-path="url(#clip0_43_150)"><g filter="url(#filter0_i_43_150)"><path fill="#ffad33" fill-opacity=".01" d="M-168.74 124.554c8.566-1.207 137.24-19.437 168.717-29.508C47 80 54.655 19.606 91.5 19.606c24 0 41.3 53.741 57.4 53.741s34.846-22.599 50.515-22.599 31.341 24.859 50.43 24.859S281.185 12 298.565 12s17.38 29.253 49.575 61.017c50.112 49.441 241.99 87.364 250.168 88.962.258.05.378.137.584.299l59.381 46.786c1.226.966.543 2.936-1.017 2.936h-924.782c-1.53 0-2.231-1.907-1.065-2.898l99.038-84.175c.238-.202.504-.329.813-.373"/></g><path stroke="#ffad33" stroke-linejoin="round" stroke-opacity=".8" stroke-width=".5" d="M-168.74 124.554c8.566-1.207 137.24-19.437 168.717-29.508C47 80 54.655 19.606 91.5 19.606c24 0 41.3 53.741 57.4 53.741s34.846-22.599 50.515-22.599 31.341 24.859 50.43 24.859S281.185 12 298.565 12s17.38 29.253 49.575 61.017c50.112 49.441 241.99 87.364 250.168 88.962.258.05.378.137.584.299l59.381 46.786c1.226.966.543 2.936-1.017 2.936h-924.782c-1.53 0-2.231-1.907-1.065-2.898l99.038-84.175c.238-.202.504-.329.813-.373Z"/></g><defs><linearGradient id="paint0_linear_43_150" x1="337.125" x2="337.125" y1="24.647" y2="181.647" gradientUnits="userSpaceOnUse"><stop stop-color="#2cb0b2" stop-opacity=".4"/><stop offset=".966" stop-color="#2cafb2" stop-opacity=".2"/></linearGradient><linearGradient id="paint1_linear_43_150" x1="315.375" x2="315.375" y1="11.647" y2="181.647" gradientUnits="userSpaceOnUse"><stop stop-color="#2cb0b2" stop-opacity=".4"/><stop offset=".966" stop-color="#2cafb2" stop-opacity=".2"/></linearGradient><linearGradient id="paint2_linear_43_150" x1="293.625" x2="293.625" y1="28.647" y2="181.647" gradientUnits="userSpaceOnUse"><stop stop-color="#2cb0b2" stop-opacity=".4"/><stop offset=".966" stop-color="#2cafb2" stop-opacity=".2"/></linearGradient><linearGradient id="paint3_linear_43_150" x1="271.875" x2="271.875" y1="64.647" y2="181.647" gradientUnits="userSpaceOnUse"><stop stop-color="#2cb0b2" stop-opacity=".4"/><stop offset=".966" stop-color="#2cafb2" stop-opacity=".2"/></linearGradient><linearGradient id="paint4_linear_43_150" x1="250.125" x2="250.125" y1="68.647" y2="181.647" gradientUnits="userSpaceOnUse"><stop stop-color="#2cb0b2" stop-opacity=".4"/><stop offset=".966" stop-color="#2cafb2" stop-opacity=".2"/></linearGradient><linearGradient id="paint5_linear_43_150" x1="228.375" x2="228.375" y1="45.647" y2="181.647" gradientUnits="userSpaceOnUse"><stop stop-color="#2cb0b2" stop-opacity=".4"/><stop offset=".966" stop-color="#2cafb2" stop-opacity=".2"/></linearGradient><linearGradient id="paint6_linear_43_150" x1="206.625" x2="206.625" y1="54.647" y2="181.647" gradientUnits="userSpaceOnUse"><stop stop-color="#2cb0b2" stop-opacity=".4"/><stop offset=".966" stop-color="#2cafb2" stop-opacity=".2"/></linearGradient><linearGradient id="paint7_linear_43_150" x1="184.875" x2="184.875" y1="73.647" y2="181.647" gradientUnits="userSpaceOnUse"><stop stop-color="#2cb0b2" stop-opacity=".4"/><stop offset=".966" stop-color="#2cafb2" stop-opacity=".2"/></linearGradient><linearGradient id="paint8_linear_43_150" x1="163.125" x2="163.125" y1="92.647" y2="181.647" gradientUnits="userSpaceOnUse"><stop stop-color="#2cb0b2" stop-opacity=".4"/><stop offset=".966" stop-color="#2cafb2" stop-opacity=".2"/></linearGradient><linearGradient id="paint9_linear_43_150" x1="141.375" x2="141.375" y1="43.647" y2="181.647" gradientUnits="userSpaceOnUse"><stop stop-color="#2cb0b2" stop-opacity=".4"/><stop offset=".966" stop-color="#2cafb2" stop-opacity=".2"/></linearGradient><linearGradient id="paint10_linear_43_150" x1="119.625" x2="119.625" y1="32.647" y2="181.647" gradientUnits="userSpaceOnUse"><stop stop-color="#2cb0b2" stop-opacity=".4"/><stop offset=".966" stop-color="#2cafb2" stop-opacity=".2"/></linearGradient><linearGradient id="paint11_linear_43_150" x1="97.875" x2="97.875" y1="10.647" y2="181.647" gradientUnits="userSpaceOnUse"><stop stop-color="#2cb0b2" stop-opacity=".4"/><stop offset=".966" stop-color="#2cafb2" stop-opacity=".2"/></linearGradient><linearGradient id="paint12_linear_43_150" x1="76.125" x2="76.125" y1="29.647" y2="181.647" gradientUnits="userSpaceOnUse"><stop stop-color="#2cb0b2" stop-opacity=".4"/><stop offset=".966" stop-color="#2cafb2" stop-opacity=".2"/></linearGradient><linearGradient id="paint13_linear_43_150" x1="54.375" x2="54.375" y1="66.647" y2="181.647" gradientUnits="userSpaceOnUse"><stop stop-color="#2cb0b2" stop-opacity=".4"/><stop offset=".966" stop-color="#2cafb2" stop-opacity=".2"/></linearGradient><linearGradient id="paint14_linear_43_150" x1="32.625" x2="32.625" y1="57.647" y2="181.647" gradientUnits="userSpaceOnUse"><stop stop-color="#2cb0b2" stop-opacity=".4"/><stop offset=".966" stop-color="#2cafb2" stop-opacity=".2"/></linearGradient><linearGradient id="paint15_linear_43_150" x1="10.875" x2="10.875" y1="47.647" y2="181.647" gradientUnits="userSpaceOnUse"><stop stop-color="#2cb0b2" stop-opacity=".4"/><stop offset=".966" stop-color="#2cafb2" stop-opacity=".2"/></linearGradient><clipPath id="clip0_43_150"><path fill="#fff" d="M348 5.422H0V183h348z"/></clipPath><filter id="filter0_i_43_150" width="928.578" height="200.5" x="-269.424" y="11.75" color-interpolation-filters="sRGB" filterUnits="userSpaceOnUse"><feFlood flood-opacity="0" result="BackgroundImageFix"/><feBlend in="SourceGraphic" in2="BackgroundImageFix" result="shape"/><feColorMatrix in="SourceAlpha" result="hardAlpha" values="0 0 0 0 0 0 0 0 0 0 0 0 0 0 0 0 0 0 127 0"/><feOffset/><feGaussianBlur stdDeviation="40"/><feComposite in2="hardAlpha" k2="-1" k3="1" operator="arithmetic"/><feColorMatrix values="0 0 0 0 1 0 0 0 0 0.678431 0 0 0 0 0.2 0 0 0 0.2 0"/><feBlend in2="shape" result="effect1_innerShadow_43_150"/></filter></defs></svg>