<svg width="495" height="255" viewBox="0 0 495 255" fill="none" xmlns="http://www.w3.org/2000/svg"><mask id="mask0_5663_23697" style="mask-type:alpha" maskUnits="userSpaceOnUse" x="0" y="0" width="495" height="255"><path transform="rotate(-90 0 255)" fill="url(#paint0_linear_5663_23697)" d="M0 255h255v495H0z"/></mask><g mask="url(#mask0_5663_23697)"><mask id="mask1_5663_23697" style="mask-type:alpha" maskUnits="userSpaceOnUse" x="0" y="0" width="495" height="255"><path fill="url(#paint1_linear_5663_23697)" d="M0 0h495v255H0z"/></mask><g mask="url(#mask1_5663_23697)"><g filter="url(#filter0_dd_5663_23697)"><path d="M224.984 10.516c0-6.628 5.306-11.155 11.851-10.111l465.234 74.172c6.544 1.043 11.85 7.262 11.85 13.89v47.938c0 6.628-5.305 11.155-11.85 10.111L236.835 72.344c-6.545-1.043-11.851-7.262-11.851-13.89V10.517z" fill="url(#paint2_linear_5663_23697)" fill-opacity=".85"/><path d="M224.984 10.516c0-6.628 5.306-11.155 11.851-10.111l465.234 74.172c6.544 1.043 11.85 7.262 11.85 13.89v47.938c0 6.628-5.305 11.155-11.85 10.111L236.835 72.344c-6.545-1.043-11.851-7.262-11.851-13.89V10.517z" stroke="#EDEDED"/><rect width="40" height="40" rx="8" transform="matrix(.98753 .15744 0 1 240.785 17.004)" fill="#FBECFD"/><path fill-rule="evenodd" clip-rule="evenodd" d="M260.536 50.9c-5.863-.935-10.616-6.506-10.616-12.443 0-5.937 4.753-9.992 10.616-9.058 5.863.935 10.616 6.506 10.616 12.443 0 5.937-4.753 9.992-10.616 9.058zm4.424-12.668c.478-.188.654-.768.393-1.294-.262-.527-.862-.8-1.341-.611-1.806.712-3.299 2.404-4.303 3.8-.371.517-.688 1.01-.941 1.432a12.277 12.277 0 00-1.382-1.334l-.311-.246c-.474-.349-1.077-.278-1.347.159-.27.436-.105 1.073.368 1.422l.208.165c.141.116.339.286.558.497.452.434.94.986 1.246 1.554.189.349.536.591.902.629.367.038.691-.135.844-.448l.097-.19a20.047 20.047 0 011.412-2.282c.971-1.351 2.243-2.719 3.597-3.253z" fill="#CF5BE1"/><rect width="135.888" height="13.72" rx="6.86" transform="matrix(.98753 .15744 0 1 292.137 38.332)" fill="url(#paint3_linear_5663_23697)"/></g><g filter="url(#filter1_dd_5663_23697)"><path d="M172.518 44.133c0-6.628 5.305-11.154 11.85-10.11l465.234 74.171c6.545 1.043 11.85 7.262 11.85 13.889v47.94c0 6.627-5.305 11.154-11.85 10.11l-465.234-74.172c-6.545-1.043-11.85-7.262-11.85-13.889v-47.94z" fill="url(#paint4_linear_5663_23697)" fill-opacity=".85"/><path d="M172.518 44.133c0-6.628 5.305-11.154 11.85-10.11l465.234 74.171c6.545 1.043 11.85 7.262 11.85 13.889v47.94c0 6.627-5.305 11.154-11.85 10.11l-465.234-74.172c-6.545-1.043-11.85-7.262-11.85-13.889v-47.94z" stroke="#EDEDED"/><rect width="40" height="40" rx="8" transform="matrix(.98753 .15744 0 1 188.318 50.621)" fill="#E8F4FC"/><path fill-rule="evenodd" clip-rule="evenodd" d="M208.069 84.517c-5.863-.935-10.616-6.506-10.616-12.443 0-5.937 4.753-9.992 10.616-9.057 5.863.934 10.616 6.505 10.616 12.442s-4.753 9.992-10.616 9.058zm4.424-12.667c.479-.19.654-.769.393-1.295-.262-.526-.862-.8-1.34-.611-1.806.712-3.3 2.404-4.304 3.8-.371.517-.688 1.01-.941 1.432a12.277 12.277 0 00-1.382-1.334l-.311-.245c-.473-.35-1.077-.279-1.347.158-.27.437-.105 1.073.369 1.423l.207.164c.141.116.339.286.558.497.452.434.94.986 1.247 1.554.188.349.535.591.902.63.366.037.691-.136.843-.45l.097-.189a19.988 19.988 0 011.412-2.282c.971-1.351 2.243-2.718 3.597-3.252z" fill="#33A5F1"/><rect width="135.888" height="13.72" rx="6.86" transform="matrix(.98753 .15744 0 1 239.67 71.95)" fill="url(#paint5_linear_5663_23697)"/></g><g filter="url(#filter2_dd_5663_23697)"><path d="M117.601 81.098c0-6.628 5.305-11.154 11.85-10.111l465.234 74.172c6.545 1.043 11.85 7.262 11.85 13.889v47.939c0 6.628-5.305 11.155-11.85 10.111l-465.234-74.172c-6.545-1.043-11.85-7.262-11.85-13.889v-47.94z" fill="url(#paint6_linear_5663_23697)" fill-opacity=".85"/><path d="M117.601 81.098c0-6.628 5.305-11.154 11.85-10.111l465.234 74.172c6.545 1.043 11.85 7.262 11.85 13.889v47.939c0 6.628-5.305 11.155-11.85 10.111l-465.234-74.172c-6.545-1.043-11.85-7.262-11.85-13.889v-47.94z" stroke="#EDEDED"/><rect width="40" height="40" rx="8" transform="matrix(.98753 .15744 0 1 133.401 87.586)" fill="#FFF0D6"/><path fill-rule="evenodd" clip-rule="evenodd" d="M153.152 121.482c-5.863-.935-10.616-6.506-10.616-12.443 0-5.937 4.753-9.992 10.616-9.057 5.863.934 10.616 6.505 10.616 12.442s-4.753 9.992-10.616 9.058zm4.424-12.668c.479-.188.654-.768.393-1.294-.262-.526-.862-.8-1.34-.611-1.806.712-3.3 2.404-4.304 3.8a21.248 21.248 0 00-.941 1.432 11.707 11.707 0 00-1.382-1.334l-.311-.246c-.473-.349-1.077-.278-1.347.159-.27.436-.105 1.073.369 1.422l.207.165c.141.116.339.286.558.497.452.434.94.986 1.247 1.554.188.349.535.591.902.629.366.038.691-.135.843-.448l.097-.19a19.93 19.93 0 011.412-2.282c.971-1.351 2.243-2.719 3.597-3.253z" fill="#FFAC30"/><rect width="135.888" height="13.72" rx="6.86" transform="matrix(.98753 .15744 0 1 184.753 108.914)" fill="url(#paint7_linear_5663_23697)"/></g><g filter="url(#filter3_dd_5663_23697)"><path d="M67.618 120.34c0-6.628 5.306-11.154 11.85-10.111l465.235 74.172c6.544 1.044 11.85 7.262 11.85 13.889v47.94c0 6.627-5.306 11.154-11.85 10.11L79.469 182.168c-6.545-1.043-11.85-7.262-11.85-13.889V120.34z" fill="url(#paint8_linear_5663_23697)" fill-opacity=".85"/><path d="M67.618 120.34c0-6.628 5.306-11.154 11.85-10.111l465.235 74.172c6.544 1.044 11.85 7.262 11.85 13.889v47.94c0 6.627-5.306 11.154-11.85 10.11L79.469 182.168c-6.545-1.043-11.85-7.262-11.85-13.889V120.34z" stroke="#EDEDED"/><rect width="40" height="40" rx="8" transform="matrix(.98753 .15744 0 1 83.419 126.828)" fill="#EAF6F6"/><path fill-rule="evenodd" clip-rule="evenodd" d="M103.17 160.724c-5.863-.935-10.616-6.506-10.616-12.443 0-5.937 4.753-9.992 10.616-9.057 5.863.934 10.616 6.505 10.616 12.442s-4.753 9.992-10.616 9.058zm4.424-12.667c.478-.189.654-.769.392-1.295-.261-.526-.861-.8-1.34-.611-1.806.712-3.299 2.404-4.303 3.801a21.43 21.43 0 00-.942 1.431 11.996 11.996 0 00-1.381-1.334l-.311-.245c-.474-.35-1.077-.279-1.347.158-.27.437-.105 1.073.368 1.423l.208.164c.14.116.338.286.558.497.452.434.939.986 1.246 1.554.189.349.536.591.902.629.366.038.691-.135.844-.448l.097-.19a19.737 19.737 0 011.412-2.282c.971-1.351 2.242-2.718 3.597-3.252z" fill="#1EBDC0"/><rect width="135.888" height="13.72" rx="6.86" transform="matrix(.98753 .15744 0 1 134.771 148.156)" fill="url(#paint9_linear_5663_23697)"/></g></g></g><defs><linearGradient id="paint0_linear_5663_23697" x1="127.5" y1="613.876" x2="127.5" y2="750" gradientUnits="userSpaceOnUse"><stop/><stop offset=".118" stop-opacity=".992"/><stop offset=".214" stop-opacity=".968"/><stop offset=".291" stop-opacity=".93"/><stop offset=".353" stop-opacity=".879"/><stop offset=".404" stop-opacity=".819"/><stop offset=".446" stop-opacity=".749"/><stop offset=".482" stop-opacity=".672"/><stop offset=".518" stop-opacity=".589"/><stop offset=".554" stop-opacity=".503"/><stop offset=".596" stop-opacity=".415"/><stop offset=".647" stop-opacity=".326"/><stop offset=".709" stop-opacity=".238"/><stop offset=".786" stop-opacity=".154"/><stop offset=".882" stop-opacity=".074"/><stop offset="1" stop-opacity="0"/></linearGradient><linearGradient id="paint1_linear_5663_23697" x1="247.5" y1="184.875" x2="247.5" y2="255" gradientUnits="userSpaceOnUse"><stop/><stop offset=".118" stop-opacity=".992"/><stop offset=".214" stop-opacity=".968"/><stop offset=".291" stop-opacity=".93"/><stop offset=".353" stop-opacity=".879"/><stop offset=".404" stop-opacity=".819"/><stop offset=".446" stop-opacity=".749"/><stop offset=".482" stop-opacity=".672"/><stop offset=".518" stop-opacity=".589"/><stop offset=".554" stop-opacity=".503"/><stop offset=".596" stop-opacity=".415"/><stop offset=".647" stop-opacity=".326"/><stop offset=".709" stop-opacity=".238"/><stop offset=".786" stop-opacity=".154"/><stop offset=".882" stop-opacity=".074"/><stop offset="1" stop-opacity="0"/></linearGradient><linearGradient id="paint2_linear_5663_23697" x1="469.452" y1="37.491" x2="458.267" y2="107.647" gradientUnits="userSpaceOnUse"><stop offset=".471" stop-color="#fff"/><stop offset="1" stop-color="#F8F8F8"/></linearGradient><linearGradient id="paint3_linear_5663_23697" x1="0" y1="6.86" x2="135.888" y2="6.86" gradientUnits="userSpaceOnUse"><stop stop-color="#F0F0F0"/><stop offset="1" stop-color="#F6F6F6"/></linearGradient><linearGradient id="paint4_linear_5663_23697" x1="416.985" y1="71.108" x2="405.8" y2="141.264" gradientUnits="userSpaceOnUse"><stop offset=".471" stop-color="#fff"/><stop offset="1" stop-color="#F8F8F8"/></linearGradient><linearGradient id="paint5_linear_5663_23697" x1="0" y1="6.86" x2="135.888" y2="6.86" gradientUnits="userSpaceOnUse"><stop stop-color="#F0F0F0"/><stop offset="1" stop-color="#F6F6F6"/></linearGradient><linearGradient id="paint6_linear_5663_23697" x1="362.068" y1="108.073" x2="350.883" y2="178.229" gradientUnits="userSpaceOnUse"><stop offset=".471" stop-color="#fff"/><stop offset="1" stop-color="#F8F8F8"/></linearGradient><linearGradient id="paint7_linear_5663_23697" x1="0" y1="6.86" x2="135.888" y2="6.86" gradientUnits="userSpaceOnUse"><stop stop-color="#F0F0F0"/><stop offset="1" stop-color="#F6F6F6"/></linearGradient><linearGradient id="paint8_linear_5663_23697" x1="312.086" y1="147.315" x2="300.901" y2="217.471" gradientUnits="userSpaceOnUse"><stop offset=".471" stop-color="#fff"/><stop offset="1" stop-color="#F8F8F8"/></linearGradient><linearGradient id="paint9_linear_5663_23697" x1="0" y1="6.86" x2="135.888" y2="6.86" gradientUnits="userSpaceOnUse"><stop stop-color="#F0F0F0"/><stop offset="1" stop-color="#F6F6F6"/></linearGradient><filter id="filter0_dd_5663_23697" x="188.49" y="-5.484" width="532.923" height="208.891" filterUnits="userSpaceOnUse" color-interpolation-filters="sRGB"><feFlood flood-opacity="0" result="BackgroundImageFix"/><feColorMatrix in="SourceAlpha" values="0 0 0 0 0 0 0 0 0 0 0 0 0 0 0 0 0 0 127 0" result="hardAlpha"/><feOffset dx="-1" dy="4"/><feGaussianBlur stdDeviation="4"/><feColorMatrix values="0 0 0 0 0.372549 0 0 0 0 0.286275 0 0 0 0 0.227451 0 0 0 0.08 0"/><feBlend in2="BackgroundImageFix" result="effect1_dropShadow_5663_23697"/><feColorMatrix in="SourceAlpha" values="0 0 0 0 0 0 0 0 0 0 0 0 0 0 0 0 0 0 127 0" result="hardAlpha"/><feOffset dx="-15" dy="34"/><feGaussianBlur stdDeviation="10.5"/><feColorMatrix values="0 0 0 0 0.372549 0 0 0 0 0.286275 0 0 0 0 0.227451 0 0 0 0.03 0"/><feBlend in2="effect1_dropShadow_5663_23697" result="effect2_dropShadow_5663_23697"/><feBlend in="SourceGraphic" in2="effect2_dropShadow_5663_23697" result="shape"/></filter><filter id="filter1_dd_5663_23697" x="136.023" y="28.133" width="532.923" height="208.891" filterUnits="userSpaceOnUse" color-interpolation-filters="sRGB"><feFlood flood-opacity="0" result="BackgroundImageFix"/><feColorMatrix in="SourceAlpha" values="0 0 0 0 0 0 0 0 0 0 0 0 0 0 0 0 0 0 127 0" result="hardAlpha"/><feOffset dx="-1" dy="4"/><feGaussianBlur stdDeviation="4"/><feColorMatrix values="0 0 0 0 0.372549 0 0 0 0 0.286275 0 0 0 0 0.227451 0 0 0 0.08 0"/><feBlend in2="BackgroundImageFix" result="effect1_dropShadow_5663_23697"/><feColorMatrix in="SourceAlpha" values="0 0 0 0 0 0 0 0 0 0 0 0 0 0 0 0 0 0 127 0" result="hardAlpha"/><feOffset dx="-15" dy="34"/><feGaussianBlur stdDeviation="10.5"/><feColorMatrix values="0 0 0 0 0.372549 0 0 0 0 0.286275 0 0 0 0 0.227451 0 0 0 0.03 0"/><feBlend in2="effect1_dropShadow_5663_23697" result="effect2_dropShadow_5663_23697"/><feBlend in="SourceGraphic" in2="effect2_dropShadow_5663_23697" result="shape"/></filter><filter id="filter2_dd_5663_23697" x="81.106" y="65.098" width="532.923" height="208.891" filterUnits="userSpaceOnUse" color-interpolation-filters="sRGB"><feFlood flood-opacity="0" result="BackgroundImageFix"/><feColorMatrix in="SourceAlpha" values="0 0 0 0 0 0 0 0 0 0 0 0 0 0 0 0 0 0 127 0" result="hardAlpha"/><feOffset dx="-1" dy="4"/><feGaussianBlur stdDeviation="4"/><feColorMatrix values="0 0 0 0 0.372549 0 0 0 0 0.286275 0 0 0 0 0.227451 0 0 0 0.08 0"/><feBlend in2="BackgroundImageFix" result="effect1_dropShadow_5663_23697"/><feColorMatrix in="SourceAlpha" values="0 0 0 0 0 0 0 0 0 0 0 0 0 0 0 0 0 0 127 0" result="hardAlpha"/><feOffset dx="-15" dy="34"/><feGaussianBlur stdDeviation="10.5"/><feColorMatrix values="0 0 0 0 0.372549 0 0 0 0 0.286275 0 0 0 0 0.227451 0 0 0 0.03 0"/><feBlend in2="effect1_dropShadow_5663_23697" result="effect2_dropShadow_5663_23697"/><feBlend in="SourceGraphic" in2="effect2_dropShadow_5663_23697" result="shape"/></filter><filter id="filter3_dd_5663_23697" x="31.124" y="104.34" width="532.923" height="208.891" filterUnits="userSpaceOnUse" color-interpolation-filters="sRGB"><feFlood flood-opacity="0" result="BackgroundImageFix"/><feColorMatrix in="SourceAlpha" values="0 0 0 0 0 0 0 0 0 0 0 0 0 0 0 0 0 0 127 0" result="hardAlpha"/><feOffset dx="-1" dy="4"/><feGaussianBlur stdDeviation="4"/><feColorMatrix values="0 0 0 0 0.372549 0 0 0 0 0.286275 0 0 0 0 0.227451 0 0 0 0.08 0"/><feBlend in2="BackgroundImageFix" result="effect1_dropShadow_5663_23697"/><feColorMatrix in="SourceAlpha" values="0 0 0 0 0 0 0 0 0 0 0 0 0 0 0 0 0 0 127 0" result="hardAlpha"/><feOffset dx="-15" dy="34"/><feGaussianBlur stdDeviation="10.5"/><feColorMatrix values="0 0 0 0 0.372549 0 0 0 0 0.286275 0 0 0 0 0.227451 0 0 0 0.03 0"/><feBlend in2="effect1_dropShadow_5663_23697" result="effect2_dropShadow_5663_23697"/><feBlend in="SourceGraphic" in2="effect2_dropShadow_5663_23697" result="shape"/></filter></defs></svg>