<svg xmlns="http://www.w3.org/2000/svg" width="103" height="114" fill="none" viewBox="0 0 103 114"><g filter="url(#filter0_ddd_32702_2876)"><g clip-path="url(#clip0_32702_2876)"><rect width="72" height="72" x="15.168" y="15.168" fill="#005052" rx="12"/><g filter="url(#filter1_fn_32702_2876)" opacity=".3"><circle cx="92.929" cy="87.167" r="44.64" fill="#cf5be1"/></g><g filter="url(#filter2_fn_32702_2876)" opacity=".5"><circle cx="15.169" cy="15.169" r="38.88" fill="#1ebdc0"/></g><path fill="#fff" d="M62.891 38.207c2.982 0 5.378 1.01 7.19 2.967 1.812 1.959 2.69 4.748 2.69 8.427v15.25h-5.32V50.193c0-2.315-.585-4.155-1.754-5.46s-2.806-1.899-4.852-1.899c-2.104 0-3.799.713-5.085 2.078q-1.6 1.699-1.872 4.744v15.135h-.058v.058h-5.32v-5.755c-.642 1.958-1.812 3.443-3.39 4.51-1.637 1.069-3.508 1.602-5.67 1.602-2.982 0-5.378-1.01-7.19-2.967s-2.69-4.748-2.69-8.427V38.622h5.32V53.22c0 2.373.585 4.213 1.754 5.46 1.169 1.304 2.806 1.898 4.851 1.898 2.105 0 3.8-.713 5.086-2.078s1.93-3.441 1.93-6.052V38.622h5.377v5.61c.704-1.889 1.796-3.383 3.39-4.424q2.457-1.602 5.613-1.601"/></g></g><defs><filter id="filter0_ddd_32702_2876" width="102.337" height="113.713" x="-.001" y="-.001" color-interpolation-filters="sRGB" filterUnits="userSpaceOnUse"><feFlood flood-opacity="0" result="BackgroundImageFix"/><feColorMatrix in="SourceAlpha" result="hardAlpha" values="0 0 0 0 0 0 0 0 0 0 0 0 0 0 0 0 0 0 127 0"/><feOffset dy="11.376"/><feGaussianBlur stdDeviation="7.584"/><feComposite in2="hardAlpha" operator="out"/><feColorMatrix values="0 0 0 0 0 0 0 0 0 0 0 0 0 0 0 0 0 0 0.15 0"/><feBlend in2="BackgroundImageFix" result="effect1_dropShadow_32702_2876"/><feColorMatrix in="SourceAlpha" result="hardAlpha" values="0 0 0 0 0 0 0 0 0 0 0 0 0 0 0 0 0 0 127 0"/><feOffset/><feGaussianBlur stdDeviation="7.584"/><feComposite in2="hardAlpha" operator="out"/><feColorMatrix values="0 0 0 0 0 0 0 0 0 0 0 0 0 0 0 0 0 0 0.15 0"/><feBlend in2="effect1_dropShadow_32702_2876" result="effect2_dropShadow_32702_2876"/><feColorMatrix in="SourceAlpha" result="hardAlpha" values="0 0 0 0 0 0 0 0 0 0 0 0 0 0 0 0 0 0 127 0"/><feOffset dy=".758"/><feGaussianBlur stdDeviation="1.517"/><feComposite in2="hardAlpha" operator="out"/><feColorMatrix values="0 0 0 0 0 0 0 0 0 0 0 0 0 0 0 0 0 0 0.21 0"/><feBlend in2="effect2_dropShadow_32702_2876" result="effect3_dropShadow_32702_2876"/><feBlend in="SourceGraphic" in2="effect3_dropShadow_32702_2876" result="shape"/></filter><filter id="filter1_fn_32702_2876" width="161.281" height="161.281" x="12.289" y="6.527" color-interpolation-filters="sRGB" filterUnits="userSpaceOnUse"><feFlood flood-opacity="0" result="BackgroundImageFix"/><feBlend in="SourceGraphic" in2="BackgroundImageFix" result="shape"/><feGaussianBlur result="effect1_foregroundBlur_32702_2876" stdDeviation="18"/><feTurbulence baseFrequency="1.6666667461395264 1.6666667461395264" numOctaves="3" result="noise" seed="149" stitchTiles="stitch" type="fractalNoise"/><feColorMatrix in="noise" result="alphaNoise" type="luminanceToAlpha"/><feComponentTransfer in="alphaNoise" result="coloredNoise1"><feFuncA tableValues="1 1 1 1 1 1 1 1 1 1 1 1 1 1 1 1 1 1 1 1 1 1 1 1 1 1 1 1 1 1 1 1 1 1 1 1 1 1 1 1 1 1 1 1 1 1 1 1 1 1 1 0 0 0 0 0 0 0 0 0 0 0 0 0 0 0 0 0 0 0 0 0 0 0 0 0 0 0 0 0 0 0 0 0 0 0 0 0 0 0 0 0 0 0 0 0 0 0 0 0" type="discrete"/></feComponentTransfer><feComposite in="coloredNoise1" in2="effect1_foregroundBlur_32702_2876" operator="in" result="noise1Clipped"/><feFlood flood-color="rgba(255, 255, 255, 0.2)" result="color1Flood"/><feComposite in="color1Flood" in2="noise1Clipped" operator="in" result="color1"/><feMerge result="effect2_noise_32702_2876"><feMergeNode in="effect1_foregroundBlur_32702_2876"/><feMergeNode in="color1"/></feMerge></filter><filter id="filter2_fn_32702_2876" width="140.469" height="140.471" x="-55.066" y="-55.066" color-interpolation-filters="sRGB" filterUnits="userSpaceOnUse"><feFlood flood-opacity="0" result="BackgroundImageFix"/><feBlend in="SourceGraphic" in2="BackgroundImageFix" result="shape"/><feGaussianBlur result="effect1_foregroundBlur_32702_2876" stdDeviation="15.677"/><feTurbulence baseFrequency="1.6666667461395264 1.6666667461395264" numOctaves="3" result="noise" seed="149" stitchTiles="stitch" type="fractalNoise"/><feColorMatrix in="noise" result="alphaNoise" type="luminanceToAlpha"/><feComponentTransfer in="alphaNoise" result="coloredNoise1"><feFuncA tableValues="1 1 1 1 1 1 1 1 1 1 1 1 1 1 1 1 1 1 1 1 1 1 1 1 1 1 1 1 1 1 1 1 1 1 1 1 1 1 1 1 1 1 1 1 1 1 1 1 1 1 1 0 0 0 0 0 0 0 0 0 0 0 0 0 0 0 0 0 0 0 0 0 0 0 0 0 0 0 0 0 0 0 0 0 0 0 0 0 0 0 0 0 0 0 0 0 0 0 0 0" type="discrete"/></feComponentTransfer><feComposite in="coloredNoise1" in2="effect1_foregroundBlur_32702_2876" operator="in" result="noise1Clipped"/><feFlood flood-color="rgba(255, 255, 255, 0.5)" result="color1Flood"/><feComposite in="color1Flood" in2="noise1Clipped" operator="in" result="color1"/><feMerge result="effect2_noise_32702_2876"><feMergeNode in="effect1_foregroundBlur_32702_2876"/><feMergeNode in="color1"/></feMerge></filter><clipPath id="clip0_32702_2876"><rect width="72" height="72" x="15.168" y="15.168" fill="#fff" rx="12"/></clipPath></defs></svg>