<svg xmlns="http://www.w3.org/2000/svg" width="286" height="46" fill="none" viewBox="0 0 286 46"><path fill="#193a43" d="M17.514 14.434V33.16H13.64v-4.077a6.1 6.1 0 0 1-2.442 3.227c-1.18.765-2.526 1.147-4.084 1.147-2.147 0-3.873-.722-5.178-2.123C.63 29.933 0 27.937 0 25.305V14.434h3.831V24.88c0 1.699.421 3.015 1.263 3.907.842.934 2.021 1.359 3.494 1.359 1.516 0 2.737-.51 3.663-1.487.927-.976 1.39-2.462 1.39-4.331v-9.894z"/><path fill="#193a43" d="M29.176 16.26c1.305 1.4 1.936 3.397 1.936 6.03v10.913h-3.83V22.714c0-1.656-.422-2.972-1.264-3.907-.842-.934-2.02-1.358-3.494-1.358-1.516 0-2.737.51-3.663 1.486q-1.39 1.465-1.39 4.331v9.937h-3.83v-18.77h3.83v4.12c.506-1.402 1.306-2.506 2.485-3.27q1.768-1.147 4.041-1.147c2.148 0 3.874.722 5.179 2.124M48.331 16.132c1.558 1.274 2.568 3.015 2.947 5.223h-4.084c-.21-1.189-.758-2.08-1.642-2.76s-1.936-1.019-3.241-1.019c-1.474 0-2.737.51-3.705 1.571-.969 1.062-1.474 2.59-1.474 4.629s.505 3.61 1.474 4.671c.968 1.062 2.231 1.614 3.705 1.614 1.305 0 2.4-.34 3.241-1.02.885-.679 1.39-1.613 1.642-2.802h4.084c-.379 2.208-1.347 3.95-2.947 5.223-1.558 1.274-3.579 1.954-5.978 1.954-1.81 0-3.368-.383-4.758-1.147a7.9 7.9 0 0 1-3.241-3.312c-.8-1.444-1.18-3.143-1.18-5.139 0-1.953.38-3.652 1.18-5.095.8-1.444 1.852-2.548 3.241-3.313 1.39-.764 2.99-1.146 4.758-1.146 2.4-.043 4.378.594 5.978 1.868M65.171 15.453a7 7 0 0 1 2.526 3.312v-4.331h3.832V33.16h-3.832v-4.332q-.758 2.103-2.526 3.313-1.767 1.273-4.294 1.273c-1.6 0-3.073-.382-4.336-1.146s-2.274-1.869-2.99-3.312c-.715-1.444-1.094-3.143-1.094-5.139 0-1.953.379-3.652 1.095-5.096.715-1.443 1.726-2.547 2.989-3.312s2.694-1.146 4.336-1.146c1.684-.043 3.116.382 4.294 1.189m-7.199 3.822c-1.01 1.104-1.515 2.59-1.515 4.543 0 1.911.505 3.44 1.515 4.544s2.4 1.656 4.084 1.656q1.642 0 2.905-.764 1.264-.765 2.02-2.166c.506-.934.759-1.996.759-3.27 0-1.231-.253-2.293-.758-3.227q-.758-1.401-2.021-2.166t-2.905-.764c-1.726-.043-3.073.51-4.084 1.613M89.211 15.368c1.263.764 2.274 1.868 2.99 3.312.715 1.444 1.094 3.143 1.094 5.096s-.379 3.694-1.094 5.138-1.727 2.548-2.99 3.312c-1.263.765-2.694 1.147-4.336 1.147q-2.526 0-4.294-1.274c-1.18-.85-2.021-1.953-2.484-3.312v13.249h-3.831V14.434h3.83v4.331a6.32 6.32 0 0 1 2.485-3.312q1.767-1.274 4.294-1.274c1.6.042 3.073.424 4.336 1.189m-8.42 3.015q-1.263.764-2.02 2.166c-.506.934-.758 2.038-.758 3.227 0 1.231.252 2.335.757 3.27q.76 1.401 2.021 2.165 1.263.765 2.905.765c1.726 0 3.073-.552 4.126-1.656 1.052-1.105 1.558-2.59 1.558-4.544 0-1.911-.505-3.397-1.558-4.501s-2.4-1.657-4.126-1.657q-1.641 0-2.905.765M110.43 15.368c1.263.764 2.273 1.868 2.989 3.312s1.095 3.143 1.095 5.096-.379 3.694-1.095 5.138-1.726 2.548-2.989 3.312c-1.263.765-2.694 1.147-4.336 1.147q-2.526 0-4.295-1.274c-1.178-.85-2.02-1.953-2.484-3.312v13.249h-3.83V14.434h3.83v4.331a6.33 6.33 0 0 1 2.484-3.312q1.769-1.274 4.295-1.274c1.6.042 3.073.424 4.336 1.189m-8.42 3.015q-1.264.764-2.02 2.166c-.506.934-.759 2.038-.759 3.227 0 1.231.253 2.335.758 3.27q.758 1.401 2.021 2.165 1.263.765 2.905.765c1.726 0 3.073-.552 4.126-1.656 1.052-1.105 1.557-2.59 1.557-4.544 0-1.911-.505-3.397-1.557-4.501s-2.4-1.657-4.126-1.657q-1.642 0-2.905.765M133.753 24.583h-14.272c.084 1.91.59 3.355 1.6 4.289.968.934 2.231 1.401 3.663 1.401 1.263 0 2.358-.34 3.242-.977s1.431-1.528 1.642-2.633h4.125c-.252 1.317-.757 2.464-1.557 3.483a7.83 7.83 0 0 1-3.074 2.378c-1.263.594-2.652.849-4.21.849-1.81 0-3.368-.382-4.757-1.147a7.9 7.9 0 0 1-3.242-3.312c-.8-1.444-1.179-3.142-1.179-5.138 0-1.953.379-3.652 1.179-5.096s1.853-2.548 3.242-3.312c1.389-.765 2.989-1.147 4.757-1.147 1.811 0 3.41.382 4.758 1.147 1.347.764 2.399 1.783 3.115 3.142.716 1.317 1.095 2.803 1.095 4.417q.063.956-.127 1.656m-4.336-4.841c-.463-.807-1.095-1.444-1.894-1.826a6.04 6.04 0 0 0-2.611-.595q-2.273 0-3.789 1.401c-1.01.935-1.558 2.294-1.642 4.12h10.525c.085-1.274-.126-2.293-.589-3.1M147.857 15.453c1.179.849 2.021 1.953 2.484 3.312V7.979h3.873v25.14h-3.873v-4.332a6.32 6.32 0 0 1-2.484 3.312q-1.768 1.275-4.294 1.274c-1.6 0-3.074-.382-4.337-1.147-1.263-.764-2.273-1.868-2.989-3.312s-1.094-3.142-1.094-5.138c0-1.954.378-3.652 1.094-5.096s1.726-2.548 2.989-3.312c1.263-.765 2.695-1.147 4.337-1.147s3.115.425 4.294 1.232m-7.241 3.822c-1.011 1.104-1.516 2.59-1.516 4.543 0 1.911.505 3.44 1.516 4.544 1.01 1.104 2.399 1.656 4.083 1.656q1.642 0 2.905-.764 1.263-.765 2.021-2.166c.505-.934.758-1.996.758-3.27 0-1.231-.253-2.293-.758-3.227q-.758-1.401-2.021-2.166t-2.905-.764c-1.684-.043-3.031.51-4.083 1.613"/><path fill="#cbc6c2" d="M167.715 8h-1.501v29h1.501z"/><g clip-path="url(#clip0_1493_20771)"><path fill="#f90" d="M245.475 39c-6.154 4.535-15.074 6.955-22.753 6.955-10.768 0-20.462-3.983-27.796-10.606-.576-.521-.06-1.231.632-.826 7.914 4.605 17.7 7.376 27.809 7.376 6.818 0 14.317-1.41 21.213-4.338 1.042-.442 1.913.682.895 1.438"/><path fill="#f90" d="M248.033 36.072c-.784-1.005-5.2-.474-7.182-.24-.604.074-.696-.451-.152-.83 3.517-2.474 9.288-1.76 9.961-.93.673.834-.175 6.62-3.48 9.38-.507.424-.991.199-.765-.364.742-1.853 2.406-6.006 1.618-7.016"/><path fill="#221f1f" d="M240.989 17.528v-2.406c0-.364.277-.609.609-.609h10.772c.346 0 .622.25.622.609v2.06c-.004.346-.295.798-.811 1.512l-5.582 7.97c2.074-.05 4.264.258 6.144 1.319.424.24.54.59.572.935v2.568c0 .35-.387.76-.793.548-3.314-1.737-7.716-1.926-11.381.019-.373.203-.765-.203-.765-.553V29.06c0-.392.005-1.06.396-1.655l6.468-9.274h-5.629c-.345 0-.622-.244-.622-.604M201.693 32.541h-3.278a.62.62 0 0 1-.585-.557v-16.82c0-.337.281-.604.632-.604h3.056a.62.62 0 0 1 .594.562v2.199h.06c.798-2.125 2.296-3.116 4.315-3.116 2.051 0 3.333.99 4.254 3.116.793-2.125 2.596-3.116 4.527-3.116 1.374 0 2.876.567 3.794 1.839 1.037 1.415.825 3.47.825 5.273l-.005 10.616a.62.62 0 0 1-.631.608h-3.273a.623.623 0 0 1-.59-.608v-8.915c0-.71.064-2.48-.092-3.153-.245-1.13-.978-1.447-1.927-1.447-.793 0-1.623.53-1.959 1.378s-.304 2.268-.304 3.222v8.915a.62.62 0 0 1-.632.608h-3.273a.62.62 0 0 1-.59-.608l-.004-8.915c0-1.876.309-4.637-2.019-4.637-2.356 0-2.264 2.692-2.264 4.637v8.915a.62.62 0 0 1-.631.608M262.267 14.205c4.863 0 7.495 4.176 7.495 9.486 0 5.13-2.909 9.2-7.495 9.2-4.776 0-7.375-4.175-7.375-9.38 0-5.236 2.632-9.306 7.375-9.306m.028 3.434c-2.416 0-2.568 3.29-2.568 5.342 0 2.056-.032 6.444 2.54 6.444 2.54 0 2.66-3.54 2.66-5.697 0-1.42-.06-3.116-.489-4.462-.369-1.17-1.102-1.627-2.143-1.627M276.068 32.541h-3.263a.62.62 0 0 1-.59-.608l-.005-16.825a.62.62 0 0 1 .631-.549h3.038a.63.63 0 0 1 .586.47v2.573h.059c.918-2.3 2.204-3.397 4.467-3.397 1.471 0 2.904.53 3.826 1.982.857 1.346.857 3.609.857 5.236v10.588c-.036.295-.308.53-.631.53h-3.287c-.299-.023-.548-.244-.58-.53v-9.136c0-1.839.212-4.531-2.052-4.531-.797 0-1.53.535-1.894 1.346-.461 1.028-.521 2.051-.521 3.185v9.058a.63.63 0 0 1-.641.608M232.401 24.507v-.71c-2.369 0-4.872.507-4.872 3.3 0 1.416.733 2.374 1.991 2.374.922 0 1.747-.567 2.268-1.488.645-1.134.613-2.2.613-3.476m3.305 7.988a.68.68 0 0 1-.774.079c-1.088-.904-1.282-1.323-1.881-2.185-1.798 1.834-3.07 2.383-5.402 2.383-2.757 0-4.905-1.701-4.905-5.107 0-2.66 1.443-4.472 3.494-5.357 1.779-.784 4.264-.922 6.163-1.138v-.425c0-.779.06-1.7-.396-2.373-.401-.604-1.166-.853-1.839-.853-1.25 0-2.365.64-2.637 1.968-.055.295-.272.586-.567.6l-3.181-.342c-.267-.06-.562-.276-.488-.687.733-3.853 4.213-5.015 7.329-5.015 1.595 0 3.678.424 4.937 1.632 1.595 1.489 1.442 3.476 1.442 5.637v5.108c0 1.535.637 2.208 1.236 3.038.212.295.258.65-.009.87-.669.559-1.858 1.596-2.513 2.177zM189.436 24.507v-.71c-2.369 0-4.872.507-4.872 3.3 0 1.416.733 2.374 1.991 2.374.922 0 1.747-.567 2.268-1.488.646-1.134.613-2.2.613-3.476m3.305 7.988a.68.68 0 0 1-.774.079c-1.088-.904-1.281-1.323-1.881-2.185-1.797 1.834-3.07 2.383-5.402 2.383-2.757 0-4.905-1.701-4.905-5.107 0-2.66 1.443-4.472 3.494-5.357 1.78-.784 4.264-.922 6.163-1.138v-.425c0-.779.06-1.7-.396-2.373-.401-.604-1.166-.853-1.839-.853-1.25 0-2.365.64-2.637 1.968-.055.295-.272.586-.567.6l-3.181-.342c-.267-.06-.562-.276-.488-.687.733-3.853 4.213-5.015 7.329-5.015 1.595 0 3.678.424 4.937 1.632 1.595 1.489 1.443 3.476 1.443 5.637v5.108c0 1.535.636 2.208 1.235 3.038.212.295.258.65-.009.87-.669.559-1.858 1.596-2.512 2.177z"/></g><defs><clipPath id="clip0_1493_20771"><path fill="#fff" d="M179.715 14h106.022v32H179.715z"/></clipPath></defs></svg>