<svg width="24" height="24" viewBox="0 0 24 24" fill="none" xmlns="http://www.w3.org/2000/svg">
<g id="Accounting">
<g id="Vector">
<path d="M20.99 14.14C21.36 14.14 21.68 14.42 21.73 14.78V20.58C21.72 21.95 19.79 22.72 17.48 22.72C15.24 22.72 13.36 21.99 13.23 20.7L13.22 20.56V14.85C13.22 14.43 13.55 14.1 13.97 14.1C14.34 14.1 14.66 14.38 14.71 14.74V20.53L14.8 20.59C14.81 20.6 14.83 20.61 14.85 20.62L15.01 20.7C15.07 20.73 15.15 20.76 15.24 20.8C15.79 21.02 16.58 21.15 17.43 21.15C18.28 21.15 19.06 21.01 19.62 20.79C19.7 20.75 19.78 20.71 19.85 20.68L20.01 20.59L20.16 20.49V14.77C20.16 14.35 20.49 14.02 20.91 14.02L20.99 14.14Z" fill="#128081"/>
<path d="M21 17C21.41 17 21.75 17.33 21.75 17.75C21.75 19.12 19.81 19.89 17.5 19.89C15.18 19.89 13.25 19.11 13.25 17.74C13.25 17.32 13.58 16.99 14 16.99C14.41 16.99 14.75 17.32 14.75 17.74L14.9 17.83C14.98 17.88 15.11 17.95 15.29 18.02C15.84 18.24 16.63 18.37 17.48 18.37C18.33 18.37 19.11 18.23 19.67 18.01C19.84 17.93 19.97 17.87 20.06 17.81L20.16 17.74L20.2 17.7C20.2 17.69 20.2 17.69 20.2 17.69C20.2 17.27 20.53 16.94 20.95 16.94L21 17Z" fill="#128081"/>
<path d="M7 10.25C7.41 10.25 7.75 10.58 7.75 11C7.75 11.37 7.46 11.69 7.1 11.74H5.99C5.57 11.74 5.24 11.4 5.24 10.99C5.24 10.61 5.52 10.29 5.88 10.24L5.98 10.23H6.98L7 10.25Z" fill="#128081"/>
<path d="M11 10.25C11.41 10.25 11.75 10.58 11.75 11C11.75 11.37 11.46 11.69 11.1 11.74H9.99C9.57 11.74 9.24 11.4 9.24 10.99C9.24 10.61 9.52 10.29 9.88 10.24L9.98 10.23H10.98L11 10.25Z" fill="#128081"/>
<path d="M7 13.25C7.41 13.25 7.75 13.58 7.75 14C7.75 14.37 7.46 14.69 7.1 14.74H5.99C5.57 14.74 5.24 14.4 5.24 13.99C5.24 13.61 5.52 13.29 5.88 13.24L5.98 13.23H6.98L7 13.25Z" fill="#128081"/>
<path d="M11 13.25C11.41 13.25 11.75 13.58 11.75 14C11.75 14.37 11.46 14.69 11.1 14.74H9.99C9.57 14.74 9.24 14.4 9.24 13.99C9.24 13.61 9.52 13.29 9.88 13.24L9.98 13.23H10.98L11 13.25Z" fill="#128081"/>
<path d="M7 10.25C7.41 10.25 7.75 10.58 7.75 11C7.75 11.37 7.46 11.69 7.1 11.74H5.99C5.57 11.74 5.24 11.4 5.24 10.99C5.24 10.61 5.52 10.29 5.88 10.24L5.98 10.23H6.98L7 10.25Z" fill="#128081"/>
<path d="M11 10.25C11.41 10.25 11.75 10.58 11.75 11C11.75 11.37 11.46 11.69 11.1 11.74H9.99C9.57 11.74 9.24 11.4 9.24 10.99C9.24 10.61 9.52 10.29 9.88 10.24L9.98 10.23H10.98L11 10.25Z" fill="#128081"/>
<path d="M7 16.25C7.41 16.25 7.75 16.58 7.75 17C7.75 17.37 7.46 17.69 7.1 17.74H5.99C5.57 17.74 5.24 17.4 5.24 16.99C5.24 16.61 5.52 16.29 5.88 16.24L5.98 16.23H6.98L7 16.25Z" fill="#128081"/>
<path d="M11 16.25C11.41 16.25 11.75 16.58 11.75 17C11.75 17.37 11.46 17.69 11.1 17.74H9.99C9.57 17.74 9.24 17.4 9.24 16.99C9.24 16.61 9.52 16.29 9.88 16.24L9.98 16.23H10.98L11 16.25Z" fill="#128081"/>
<path d="M7 16.25C7.41 16.25 7.75 16.58 7.75 17C7.75 17.37 7.46 17.69 7.1 17.74H5.99C5.57 17.74 5.24 17.4 5.24 16.99C5.24 16.61 5.52 16.29 5.88 16.24L5.98 16.23H6.98L7 16.25Z" fill="#128081"/>
<path d="M11 16.25C11.41 16.25 11.75 16.58 11.75 17C11.75 17.37 11.46 17.69 11.1 17.74H9.99C9.57 17.74 9.24 17.4 9.24 16.99C9.24 16.61 9.52 16.29 9.88 16.24L9.98 16.23H10.98L11 16.25Z" fill="#128081"/>
<path d="M18 7.25C18.41 7.25 18.74 7.58 18.74 8C18.74 8.37 18.45 8.69 18.09 8.74H2.98C2.56 8.74 2.23 8.4 2.23 7.99C2.23 7.61 2.51 7.29 2.87 7.24L2.97 7.23H17.97L18 7.25Z" fill="#128081"/>
<path d="M16 2.25C17.46 2.25 18.65 3.39 18.74 4.83V10.99C18.74 11.4 18.4 11.74 17.99 11.74C17.61 11.74 17.29 11.45 17.24 11.09L17.23 10.98V4.98C17.23 4.33 16.73 3.8 16.1 3.73L15.97 3.72H4.97C4.32 3.72 3.79 4.21 3.72 4.84L3.71 4.96V17.96C3.71 18.6 4.2 19.13 4.83 19.2H10.95C11.36 19.2 11.7 19.53 11.7 19.95C11.7 20.32 11.41 20.64 11.05 20.69H4.94C3.47 20.69 2.28 19.54 2.19 18.1L2.18 17.93V4.93C2.18 3.46 3.32 2.27 4.76 2.18L4.92 2.17H15.92L16 2.25Z" fill="#128081"/>
<path d="M7 10.25C7.41 10.25 7.75 10.58 7.75 11C7.75 11.37 7.46 11.69 7.1 11.74H5.99C5.57 11.74 5.24 11.4 5.24 10.99C5.24 10.61 5.52 10.29 5.88 10.24L5.98 10.23H6.98L7 10.25Z" fill="#128081"/>
<path d="M11 10.25C11.41 10.25 11.75 10.58 11.75 11C11.75 11.37 11.46 11.69 11.1 11.74H9.99C9.57 11.74 9.24 11.4 9.24 10.99C9.24 10.61 9.52 10.29 9.88 10.24L9.98 10.23H10.98L11 10.25Z" fill="#128081"/>
<path d="M15 10.25C15.41 10.25 15.75 10.58 15.75 11C15.75 11.37 15.46 11.69 15.1 11.74H13.99C13.57 11.74 13.24 11.4 13.24 10.99C13.24 10.61 13.52 10.29 13.88 10.24L13.98 10.23H14.98L15 10.25Z" fill="#128081"/>
<path d="M17.49 12.75C19.8 12.75 21.73 13.52 21.73 14.89C21.73 16.26 19.79 17.03 17.48 17.03C15.24 17.03 13.36 16.3 13.23 15.01L13.22 14.87V14.73C13.34 13.48 15.1 12.76 17.23 12.71L17.45 12.7L17.49 12.75ZM17.49 14.25C16.64 14.25 15.85 14.38 15.29 14.6C15.15 14.65 15.05 14.7 14.96 14.74L14.82 14.81L14.72 14.87L14.81 14.93L14.94 15C14.99 15.02 15.06 15.06 15.13 15.09L15.25 15.14C15.8 15.36 16.59 15.49 17.44 15.49C18.29 15.49 19.07 15.35 19.63 15.13C19.8 15.05 19.93 14.99 20.02 14.93L20.17 14.82L20.16 14.81L20.06 14.74L19.92 14.66C19.83 14.61 19.73 14.56 19.59 14.51C19.03 14.28 18.24 14.15 17.39 14.15L17.49 14.25Z" fill="#128081"/>
</g>
</g>
</svg>
