<svg width="34" height="34" viewBox="0 0 34 34" fill="none" xmlns="http://www.w3.org/2000/svg">
    <circle cx="17" cy="17" r="16.5" fill="#F5F7F8" stroke="#DFDFDF" />
    <mask id="mask0_1266_15399" style="mask-type:alpha" maskUnits="userSpaceOnUse" x="1" y="1" width="32" height="32">
        <circle cx="17" cy="17" r="16" fill="#F5F7F8" />
    </mask>
    <g mask="url(#mask0_1266_15399)">
        <path fill-rule="evenodd" clip-rule="evenodd" d="M14.3643 12.9119C14.3504 12.9119 14.3235 12.9119 14.3096 12.9119C14.0787 12.8837 13.8887 12.6721 13.8887 12.4324C13.8748 12.2067 13.7523 6.93192 16.7279 5.73317C17.4753 5.43696 18.1689 5.49334 18.753 5.93064C19.4726 6.45246 19.9891 7.4961 20.3015 9.01929C20.5185 10.0912 20.5593 11.022 20.5593 11.0643C20.5732 11.2899 20.3971 11.4593 20.1653 11.4169C19.9344 11.3887 19.7443 11.1772 19.7443 10.9515C19.7035 9.99244 19.391 7.3551 18.359 6.59345C18.0326 6.35372 17.6245 6.32548 17.1359 6.52296C14.5813 7.55248 14.7037 12.5029 14.7037 12.5593C14.7037 12.7567 14.5683 12.9119 14.3643 12.9119Z" fill="#595961" />
        <path opacity="0.46" fill-rule="evenodd" clip-rule="evenodd" d="M18.6027 5.95876C18.0594 5.56382 17.4214 5.50744 16.7278 5.77541C15.5187 6.26899 14.6628 7.56657 14.2418 9.54109C13.9294 10.9937 13.9701 12.3054 13.9701 12.3618C13.9701 12.4323 13.997 12.5029 14.0517 12.5593C14.1055 12.6156 14.1602 12.658 14.2279 12.658C14.2418 12.658 14.2557 12.658 14.2687 12.658C14.3911 12.658 14.4866 12.5593 14.4866 12.4323C14.4866 12.3759 14.3643 7.34087 16.9866 6.28311C17.516 6.07161 17.9778 6.09975 18.3589 6.38184C19.4586 7.18575 19.785 9.9078 19.8258 10.8809C19.8258 11.0219 19.9482 11.163 20.0975 11.1771C20.2338 11.1912 20.3423 11.0924 20.3423 10.9514C20.3284 10.7822 20.1791 7.11525 18.6027 5.95876Z" fill="#B2B2C2" />
        <path opacity="0.46" fill-rule="evenodd" clip-rule="evenodd" d="M14.2418 12.4887C14.2279 12.4887 14.2279 12.4887 14.215 12.4887C14.1334 12.4746 14.0647 12.39 14.0517 12.3054C14.0517 12.2489 14.011 10.9655 14.3234 9.51283C14.7305 7.58067 15.5873 6.2972 16.7686 5.81764C17.4344 5.54967 18.0325 5.60615 18.549 5.97285C20.0706 7.08699 20.2199 10.6976 20.2199 10.8527C20.2199 10.9373 20.1522 10.9937 20.0706 10.9797C19.989 10.9655 19.9213 10.895 19.9074 10.7963C19.9074 10.7539 19.7581 7.21396 18.3858 6.19847C17.9778 5.90235 17.4752 5.86 16.9049 6.08561C14.2418 7.19985 14.3643 12.3054 14.3643 12.3618C14.3772 12.4323 14.3234 12.4887 14.2418 12.4887Z" fill="#B2B2C2" />
        <path opacity="0.62" fill-rule="evenodd" clip-rule="evenodd" d="M15.3426 8.4551C15.4511 8.2436 15.5596 8.03201 15.6551 7.8064C15.6143 7.8769 15.3426 8.61031 14.5136 8.49745C14.4997 8.49745 15.0023 8.65257 15.3426 8.4551Z" fill="#595961" />
        <path opacity="0.62" fill-rule="evenodd" clip-rule="evenodd" d="M15.043 9.3578C15.1246 9.1321 15.2062 8.89236 15.2609 8.66675C15.234 8.75137 15.0977 9.51292 14.2279 9.51292C14.2279 9.51292 14.7305 9.61165 15.043 9.3578Z" fill="#595961" />
        <path opacity="0.62" fill-rule="evenodd" clip-rule="evenodd" d="M19.812 7.53854C19.7035 7.2846 19.581 7.04487 19.4586 6.79102C19.4994 6.87563 19.9075 7.67954 19.4457 8.25774C19.4457 8.25774 19.799 7.97575 19.812 7.53854Z" fill="#595961" />
        <path opacity="0.62" fill-rule="evenodd" clip-rule="evenodd" d="M19.0655 6.26918C18.8476 6.08583 18.6306 5.91659 18.4127 5.76147C18.4943 5.83197 19.2148 6.3538 19.174 7.14368C19.1601 7.14368 19.2825 6.67824 19.0655 6.26918Z" fill="#595961" />
        <path opacity="0.62" fill-rule="evenodd" clip-rule="evenodd" d="M15.7365 7.67921C15.8997 7.50997 16.0351 7.32662 16.1844 7.12915C16.1306 7.18553 15.6818 7.76382 14.8807 7.55224C14.8807 7.55224 15.3424 7.80618 15.7365 7.67921Z" fill="#595961" />
        <path opacity="0.62" fill-rule="evenodd" clip-rule="evenodd" d="M16.2391 7.03071C16.4292 6.88971 16.6053 6.74862 16.7824 6.59351C16.7148 6.63586 16.1575 7.10121 15.3832 6.76274C15.3832 6.76274 15.8311 7.08709 16.2391 7.03071Z" fill="#595961" />
        <path opacity="0.62" fill-rule="evenodd" clip-rule="evenodd" d="M16.9727 6.56496C17.2035 6.49447 17.4215 6.40985 17.6384 6.32523C17.5568 6.35338 16.8641 6.60723 16.1844 6.07129C16.1984 6.07129 16.5517 6.49447 16.9727 6.56496Z" fill="#595961" />
        <path opacity="0.62" fill-rule="evenodd" clip-rule="evenodd" d="M17.6384 6.31149C17.8285 6.33972 18.0186 6.35384 18.2087 6.36796C18.141 6.35384 17.5429 6.31149 17.2035 5.74731C17.2035 5.74731 17.3398 6.12813 17.6384 6.31149Z" fill="#595961" />
        <path opacity="0.62" fill-rule="evenodd" clip-rule="evenodd" d="M18.4267 6.62135C18.562 6.77656 18.7122 6.93168 18.8745 7.07268C18.8207 7.0163 18.359 6.55086 18.4675 5.97266C18.4536 5.97266 18.3043 6.29701 18.4267 6.62135Z" fill="#595961" />
        <path opacity="0.74" fill-rule="evenodd" clip-rule="evenodd" d="M20.0706 10.7822C20.0706 10.627 19.9213 7.05882 18.4405 5.97292C18.1549 5.76133 17.8424 5.6626 17.516 5.6626C17.2712 5.6626 17.0134 5.71898 16.7417 5.83183C15.5595 6.29727 14.7305 7.5525 14.3234 9.47055C14.011 10.9091 14.0517 12.1926 14.0517 12.249C14.0517 12.2913 14.0925 12.3336 14.1333 12.3336H14.1463C14.1871 12.3336 14.215 12.3054 14.215 12.2631C14.215 12.2067 14.0786 7.05882 16.8094 5.9588C17.4075 5.71898 17.924 5.76133 18.3589 6.08568C19.7711 7.1153 19.9213 10.7118 19.9213 10.754C19.9213 10.7964 19.9621 10.8386 20.0029 10.8386C20.0029 10.8386 20.0029 10.8386 20.0159 10.8386C20.0437 10.8527 20.0706 10.8245 20.0706 10.7822Z" fill="url(#paint0_linear_1266_15399)" />
        <path fill-rule="evenodd" clip-rule="evenodd" d="M20.3015 9.01948C19.9891 7.49628 19.4726 6.46667 18.753 5.93073C18.3589 5.64873 17.9371 5.52176 17.4753 5.55C17.8425 5.57814 18.1819 5.70511 18.4943 5.93073C19.2148 6.45264 19.7313 7.49628 20.0438 9.01948C20.2608 10.0914 20.3015 11.0221 20.3015 11.0645C20.3015 11.2337 20.22 11.3607 20.0836 11.403C20.1115 11.4171 20.1384 11.4171 20.1523 11.4171C20.3832 11.4453 20.5594 11.2901 20.5464 11.0645C20.5594 11.0221 20.5185 10.1055 20.3015 9.01948Z" fill="url(#paint1_linear_1266_15399)" />
        <path fill-rule="evenodd" clip-rule="evenodd" d="M16.878 6.52297C14.3234 7.55249 14.4458 12.5029 14.4458 12.5593C14.4458 12.7285 14.3642 12.8555 14.2279 12.8978C14.2557 12.9119 14.2687 12.9119 14.2966 12.9119C14.3095 12.9119 14.3373 12.9119 14.3503 12.9119C14.5543 12.9119 14.6897 12.7568 14.6897 12.5593C14.6897 12.5029 14.5682 7.56661 17.1219 6.53709C17.299 6.46659 17.4622 6.42423 17.6115 6.41012C17.3936 6.36785 17.1497 6.41012 16.878 6.52297Z" fill="url(#paint2_linear_1266_15399)" />
        <path fill-rule="evenodd" clip-rule="evenodd" d="M20.7494 7.74983L9.22824 11.4449C9.22824 11.4449 8.73957 11.586 8.61718 11.7411C8.49478 11.8963 8.46788 12.3335 8.46788 12.3335L6.6875 26.5782L20.0567 29.1733L21.0897 7.73571C20.9404 7.70748 20.7902 7.73572 20.7494 7.74983Z" fill="url(#paint3_linear_1266_15399)" />
        <path fill-rule="evenodd" clip-rule="evenodd" d="M24.731 9.58339C24.731 9.58339 24.7171 9.47053 24.6494 9.42827C24.5947 9.38592 24.527 9.38592 24.527 9.38592L22.6382 9.24492L21.2529 7.82046C21.1982 7.7781 21.1435 7.74996 21.0758 7.73584L20.0438 29.1734L27.2847 27.5514L24.731 9.58339Z" fill="url(#paint4_linear_1266_15399)" />
        <path fill-rule="evenodd" clip-rule="evenodd" d="M15.9944 19.6534C15.7904 19.3713 15.5465 19.1174 15.3017 18.8917C15.0569 18.6661 14.7991 18.4828 14.5404 18.3135C14.3643 18.2007 14.2011 18.0878 14.0647 17.975C13.9294 17.8622 13.8209 17.7494 13.7393 17.6506C13.6577 17.5378 13.59 17.439 13.5492 17.3263C13.5084 17.2134 13.4944 17.1006 13.4944 16.9877C13.4944 16.8326 13.5353 16.6775 13.59 16.5505C13.6437 16.4236 13.7393 16.3108 13.8338 16.212C13.9433 16.1133 14.0647 16.0428 14.215 15.9864C14.3642 15.93 14.5404 15.9018 14.7305 15.8877C14.9345 15.8736 15.1385 15.8877 15.3286 15.9018C15.5187 15.9158 15.6958 15.9582 15.872 16.0005C16.0351 16.0428 16.1983 16.0992 16.3337 16.1557C16.47 16.2121 16.6054 16.2684 16.7009 16.3249L17.5976 13.5606C17.4622 13.4901 17.299 13.4195 17.1219 13.3772C16.9318 13.3208 16.7278 13.2785 16.4969 13.2503C16.266 13.2221 16.0212 13.208 15.7635 13.208C15.5057 13.208 15.234 13.2221 14.9484 13.2644C14.3374 13.349 13.7931 13.5182 13.3044 13.7721C12.8426 14.0119 12.4346 14.3221 12.0952 14.703C11.7688 15.0697 11.511 15.4928 11.3209 15.9723C11.1438 16.4378 11.0354 16.9596 11.0085 17.5237C10.9946 17.8622 11.0215 18.1725 11.1031 18.4545C11.1707 18.7366 11.2802 19.0046 11.4294 19.2584C11.5648 19.5123 11.7419 19.738 11.932 19.9495C12.1221 20.1611 12.353 20.3586 12.5839 20.5419C12.774 20.6829 12.9372 20.8239 13.0735 20.9509C13.2089 21.0778 13.3183 21.2047 13.399 21.3458C13.4806 21.4727 13.5352 21.5997 13.576 21.7407C13.6168 21.8676 13.6308 22.0086 13.6169 22.1497C13.6169 22.2907 13.5761 22.4317 13.5214 22.5446C13.4676 22.6574 13.399 22.7703 13.2905 22.8549C13.1959 22.9395 13.0735 22.9959 12.9372 23.0241C12.8018 23.0523 12.6386 23.0664 12.4615 23.0383C12.2584 23.01 12.0544 22.9536 11.8643 22.8689C11.6742 22.7984 11.4833 22.6997 11.3071 22.601C11.1309 22.5023 10.9677 22.3895 10.8314 22.2907C10.6821 22.192 10.5597 22.0791 10.4651 21.9945L9.85309 24.096C9.9486 24.237 10.084 24.364 10.2333 24.4909C10.3835 24.6178 10.5597 24.7447 10.7637 24.8717C10.9677 24.9845 11.1847 25.0973 11.4156 25.196C11.6465 25.2948 11.9051 25.3794 12.1629 25.45H12.1768H12.1898H12.2037H12.2176C12.774 25.5769 13.3044 25.6051 13.807 25.5346C14.3234 25.464 14.7991 25.2806 15.2062 24.9987C15.6271 24.7024 15.9674 24.3075 16.2252 23.7857C16.4839 23.2639 16.6332 22.6292 16.6601 21.9099C16.674 21.4586 16.6193 21.0637 16.4969 20.697C16.3745 20.2739 16.1984 19.9495 15.9944 19.6534Z" fill="url(#paint5_linear_1266_15399)" />
        <path opacity="0.226763" fill-rule="evenodd" clip-rule="evenodd" d="M9.94121 24.2108C9.90968 24.1734 9.87998 24.1352 9.85309 24.096L10.4651 21.9945C10.4735 22.0023 10.4827 22.0105 10.492 22.0188C10.5829 22.1 10.696 22.2011 10.8314 22.2907C10.9677 22.3894 11.1309 22.5023 11.3071 22.601C11.4833 22.6997 11.6742 22.7984 11.8643 22.869C12.0544 22.9536 12.2584 23.01 12.4615 23.0382C12.6386 23.0664 12.8018 23.0523 12.9372 23.0241C13.0735 22.9959 13.1959 22.9395 13.2905 22.8549C13.399 22.7703 13.4676 22.6574 13.5214 22.5446C13.5761 22.4317 13.6169 22.2907 13.6169 22.1497C13.6308 22.0086 13.6168 21.8676 13.576 21.7406C13.5352 21.5996 13.4806 21.4727 13.399 21.3458C13.322 21.2117 13.22 21.0905 13.0929 20.9698C13.1597 21.0452 13.2163 21.1226 13.2636 21.2047C13.3452 21.3317 13.399 21.4586 13.4398 21.5996C13.4806 21.7265 13.4945 21.8676 13.4806 22.0086C13.4806 22.1497 13.4398 22.2907 13.386 22.4036C13.3313 22.5164 13.2636 22.6292 13.1551 22.7138C13.0596 22.7984 12.9372 22.8549 12.8018 22.883C12.6655 22.9113 12.5023 22.9254 12.3261 22.8971C12.1221 22.869 11.9181 22.8125 11.728 22.7279C11.5379 22.6574 11.3478 22.5587 11.1707 22.4599C10.9946 22.3612 10.8314 22.2484 10.696 22.1497C10.5597 22.0601 10.4466 21.959 10.3557 21.8778C10.3464 21.8695 10.338 21.8613 10.3288 21.8535L9.71771 23.9549C9.77798 24.0447 9.85497 24.1287 9.94121 24.2108ZM11.9432 19.9623C11.8922 19.9118 11.843 19.8606 11.7957 19.8085C11.6056 19.5969 11.4295 19.3713 11.2932 19.1174C11.1439 18.8635 11.0354 18.5955 10.9677 18.3135C10.8861 18.0314 10.8582 17.7211 10.8721 17.3826C10.899 16.8185 11.0085 16.2966 11.1847 15.8312C11.3748 15.3517 11.6335 14.9287 11.9589 14.5619C12.2993 14.1811 12.7063 13.8708 13.1681 13.6311C13.6576 13.3772 14.201 13.208 14.8121 13.1234C15.0977 13.081 15.3694 13.0669 15.6272 13.0669C15.8859 13.0669 16.1307 13.081 16.3616 13.1092C16.5924 13.1375 16.7965 13.1797 16.9865 13.2362C17.1627 13.2785 17.3259 13.349 17.4622 13.4195L17.4409 13.4855C17.3426 13.4427 17.235 13.4043 17.1219 13.3772C16.9318 13.3208 16.7278 13.2785 16.4969 13.2502C16.266 13.2221 16.0212 13.208 15.7635 13.208C15.5057 13.208 15.234 13.2221 14.9484 13.2644C14.3374 13.349 13.7931 13.5182 13.3044 13.7722C12.8426 14.0119 12.4346 14.3221 12.0952 14.7029C11.7688 15.0696 11.511 15.4927 11.3209 15.9723C11.1438 16.4377 11.0354 16.9596 11.0085 17.5236C10.9946 17.8622 11.0215 18.1724 11.1031 18.4545C11.1707 18.7366 11.2802 19.0046 11.4294 19.2584C11.5648 19.5123 11.7419 19.738 11.932 19.9495C11.9357 19.9537 11.9394 19.9581 11.9432 19.9623ZM13.7884 17.7084C13.8626 17.7923 13.9553 17.8836 14.0647 17.975C14.2011 18.0878 14.3643 18.2007 14.5404 18.3135C14.7991 18.4828 15.0569 18.6661 15.3017 18.8917C15.3731 18.9574 15.4436 19.0254 15.514 19.0959C15.4009 18.9743 15.2831 18.8592 15.1654 18.7507C14.9215 18.525 14.6628 18.3417 14.4051 18.1724C14.2279 18.0596 14.0648 17.9468 13.9294 17.834C13.8784 17.7919 13.832 17.7498 13.7884 17.7084Z" fill="black" />
        <path opacity="0.41" fill-rule="evenodd" clip-rule="evenodd" d="M23.0999 25.1821L22.6382 9.24496L22.5566 9.16035L22.7745 24.9564C22.7745 24.9564 20.8588 27.9746 20.5732 27.89C20.1522 27.7631 21.4021 7.97561 21.4021 7.97561L21.2659 7.83462C21.2121 7.79226 21.1435 7.76412 21.0897 7.75L20.0706 28.8913L20.0567 29.1875L20.41 28.7221L23.0999 25.1821Z" fill="url(#paint6_linear_1266_15399)" />
        <path fill-rule="evenodd" clip-rule="evenodd" d="M17.8961 8.66685C17.7339 9.32967 17.5299 9.95023 17.3806 10.331C17.2851 10.5568 17.3936 10.7683 17.5976 10.7965C17.8155 10.8247 18.0594 10.6695 18.141 10.4439C18.1549 10.4015 18.5211 9.48488 18.7529 8.39888V8.38477L17.8961 8.66685Z" fill="url(#paint7_linear_1266_15399)" />
        <path fill-rule="evenodd" clip-rule="evenodd" d="M11.7689 10.6411C11.5788 11.0642 11.3887 11.4309 11.2524 11.6847C11.1309 11.8963 11.1986 12.1219 11.4026 12.1783C11.6057 12.2489 11.8773 12.1219 11.9997 11.9103C12.0137 11.8822 12.4078 11.1911 12.7611 10.3167L11.7689 10.6411Z" fill="url(#paint8_linear_1266_15399)" />
        <path opacity="0.32" fill-rule="evenodd" clip-rule="evenodd" d="M20.0567 29.1733L23.0999 25.1819L27.3125 27.5513L20.0567 29.1733Z" fill="url(#paint9_linear_1266_15399)" />
        <path opacity="0.19" fill-rule="evenodd" clip-rule="evenodd" d="M20.0567 29.1733L23.0731 25.1819L27.3125 27.5513L20.0567 29.1733Z" fill="url(#paint10_linear_1266_15399)" />
        <path opacity="0.19" fill-rule="evenodd" clip-rule="evenodd" d="M20.0567 29.1733L23.0731 25.1819L27.3125 27.5513L20.0567 29.1733Z" fill="url(#paint11_linear_1266_15399)" />
        <path opacity="0.6" fill-rule="evenodd" clip-rule="evenodd" d="M17.095 18.0033C18.6714 20.2176 19.7312 22.6152 20.2606 24.9423L21.0897 7.72176C20.9404 7.69361 20.7901 7.72176 20.7493 7.73588L9.22817 11.4452C9.22817 11.4452 9.11964 11.4733 8.98334 11.5298C11.9051 12.5734 14.826 14.8159 17.095 18.0033Z" fill="url(#paint12_linear_1266_15399)" />
        <path fill-rule="evenodd" clip-rule="evenodd" d="M24.6623 9.44245C24.7309 9.49892 24.731 9.58354 24.731 9.58354L27.2577 27.5374L23.0999 25.168L22.6381 9.23096L24.5001 9.37195C24.513 9.38607 24.5946 9.38607 24.6623 9.44245Z" fill="url(#paint13_linear_1266_15399)" />
        <path fill-rule="evenodd" clip-rule="evenodd" d="M24.3639 9.48489C24.3639 9.48489 24.4455 9.48489 24.5132 9.55539C24.5809 9.61186 24.5947 9.69648 24.5947 9.69648L27.0817 27.453L27.2718 27.5658L24.744 9.59775C24.744 9.59775 24.7311 9.51313 24.6764 9.45675C24.6087 9.40028 24.5132 9.40028 24.5132 9.40028L22.6522 9.25928L24.3639 9.48489Z" fill="url(#paint14_linear_1266_15399)" />
        <path fill-rule="evenodd" clip-rule="evenodd" d="M6.6875 26.578L20.0567 29.1731L20.7095 14.4771L8.35005 14.8284L6.6875 26.578Z" fill="url(#paint15_linear_1266_15399)" />
        <path opacity="0.3" fill-rule="evenodd" clip-rule="evenodd" d="M11.0761 11.6504C10.9547 11.9932 11.0743 12.3533 11.345 12.455C11.6149 12.5566 11.932 12.3612 12.0544 12.0185C12.1759 11.6758 12.0553 11.3155 11.7855 11.2139C11.5157 11.1122 11.1976 11.3077 11.0761 11.6504Z" fill="white" />
        <path opacity="0.89" fill-rule="evenodd" clip-rule="evenodd" d="M11.0614 11.4879C10.9399 11.8306 11.0605 12.1908 11.3303 12.2924C11.6001 12.3941 11.9182 12.1987 12.0397 11.856C12.1611 11.5132 12.0415 11.1529 11.7708 11.0513C11.5009 10.9496 11.1838 11.1451 11.0614 11.4879Z" fill="black" />
        <path fill-rule="evenodd" clip-rule="evenodd" d="M22.6521 9.24492L21.2659 7.82046C21.2121 7.7781 21.1435 7.74996 21.0897 7.73584L20.0567 29.1734L23.1139 25.1679L22.6521 9.24492Z" fill="url(#paint16_linear_1266_15399)" />
        <path fill-rule="evenodd" clip-rule="evenodd" d="M20.7494 7.75015L9.22821 11.4452C9.22821 11.4452 8.73955 11.5863 8.61715 11.7415C8.60324 11.7556 8.60319 11.7697 8.59021 11.7838L20.206 8.45532C20.3015 8.42709 20.5324 8.34247 20.5055 9.03353L19.7989 29.1453L20.0438 29.1877L21.0758 7.75015C20.9404 7.7078 20.7902 7.73603 20.7494 7.75015Z" fill="url(#paint17_linear_1266_15399)" />
        <path fill-rule="evenodd" clip-rule="evenodd" d="M20.7494 7.75015L9.22821 11.4452C9.22821 11.4452 8.73955 11.5863 8.61715 11.7415C8.60324 11.7556 8.60319 11.7697 8.59021 11.7838L11.2802 11.008L20.5324 8.03224C20.5732 8.01812 20.7225 7.98989 20.8718 8.01812L19.8527 29.1453L20.0438 29.1877L21.0758 7.75015C20.9404 7.7078 20.7902 7.73603 20.7494 7.75015Z" fill="url(#paint18_linear_1266_15399)" />
        <path opacity="0.32" fill-rule="evenodd" clip-rule="evenodd" d="M23.712 25.5206L23.1 25.168L20.0438 29.1734L20.206 29.131C20.206 29.131 22.8969 25.5347 23.1408 25.4218C23.3179 25.3513 23.712 25.5206 23.712 25.5206Z" fill="url(#paint19_linear_1266_15399)" />
        <path opacity="0.57" fill-rule="evenodd" clip-rule="evenodd" d="M20.0567 29.1734L23.1139 25.168C23.1 25.1821 21.1713 27.3681 20.0567 29.1734Z" fill="url(#paint20_linear_1266_15399)" />
        <path opacity="0.46" fill-rule="evenodd" clip-rule="evenodd" d="M27.3124 27.5513L23.1138 25.1819C23.0999 25.1819 23.5895 25.2665 27.3124 27.5513Z" fill="url(#paint21_linear_1266_15399)" />
        <path opacity="0.3" fill-rule="evenodd" clip-rule="evenodd" d="M17.2879 10.2441C17.1655 10.5869 17.2861 10.9471 17.5559 11.0488C17.8267 11.1505 18.1438 10.9551 18.2653 10.6124C18.3877 10.2696 18.2671 9.90932 17.9973 9.80763C17.7275 9.70604 17.4094 9.90139 17.2879 10.2441Z" fill="white" />
        <path opacity="0.89" fill-rule="evenodd" clip-rule="evenodd" d="M17.2731 10.0823C17.1516 10.4251 17.2722 10.7853 17.542 10.887C17.8118 10.9886 18.1299 10.7933 18.2513 10.4504C18.3728 10.1077 18.2532 9.74749 17.9833 9.6458C17.7126 9.54411 17.3955 9.73955 17.2731 10.0823Z" fill="black" />
        <path fill-rule="evenodd" clip-rule="evenodd" d="M11.5519 12.1785C11.538 12.1785 11.511 12.1785 11.4971 12.1785C11.2802 12.1503 11.1309 11.9387 11.1578 11.699C11.1847 11.4733 11.9589 6.19852 15.1385 4.99977C15.9396 4.70356 16.6193 4.75994 17.1358 5.19724C17.7608 5.71906 18.1001 6.7627 18.1548 8.2859C18.1956 9.35777 18.0733 10.2886 18.0733 10.3309C18.0464 10.5565 17.8424 10.7259 17.6245 10.6835C17.4075 10.6553 17.2443 10.4438 17.2851 10.2181C17.4075 9.25904 17.5429 6.6217 16.6332 5.86006C16.3476 5.62032 15.9536 5.59209 15.4241 5.78956C12.6933 6.81908 11.9728 11.7695 11.9728 11.8118C11.9181 12.0233 11.7559 12.1785 11.5519 12.1785Z" fill="#595961" />
        <path opacity="0.46" fill-rule="evenodd" clip-rule="evenodd" d="M16.9726 5.22527C16.497 4.83042 15.872 4.77404 15.1246 5.04201C13.8339 5.5356 12.7471 6.83309 11.9997 8.79349C11.4434 10.2462 11.2524 11.5578 11.2524 11.6143C11.2394 11.6848 11.2663 11.7553 11.3071 11.8117C11.3479 11.8681 11.4026 11.9105 11.4703 11.9105C11.4832 11.9105 11.4972 11.9105 11.5111 11.9105C11.6335 11.9105 11.7419 11.8117 11.7558 11.6848C11.7688 11.6284 12.4893 6.59336 15.3017 5.5356C15.872 5.32401 16.3337 5.35225 16.6601 5.63433C17.6245 6.43824 17.4891 9.1602 17.3667 10.1333C17.3528 10.2744 17.4483 10.4154 17.5837 10.4295C17.72 10.4437 17.8554 10.3449 17.8693 10.2039C17.8832 10.0487 18.3589 6.38186 16.9726 5.22527Z" fill="#B2B2C2" />
        <path opacity="0.81" fill-rule="evenodd" clip-rule="evenodd" d="M11.4972 11.7553C11.4833 11.7553 11.4833 11.7553 11.4703 11.7553C11.3887 11.7412 11.334 11.6566 11.3479 11.572C11.3618 11.5155 11.538 10.2321 12.0953 8.77943C12.8427 6.84727 13.9025 5.5638 15.1655 5.08425C15.8859 4.81628 16.4701 4.87275 16.918 5.23945C18.2495 6.35359 17.7878 9.96416 17.7609 10.1193C17.747 10.2039 17.6793 10.2603 17.5838 10.2463C17.5031 10.2321 17.4484 10.1616 17.4484 10.0629C17.4484 10.0205 17.9102 6.48056 16.7149 5.46507C16.3616 5.1971 15.8721 5.16895 15.2749 5.39457C12.4078 6.48056 11.6604 11.572 11.6604 11.6284C11.6465 11.6989 11.5788 11.7553 11.4972 11.7553Z" fill="#B2B2C2" />
        <path opacity="0.42" fill-rule="evenodd" clip-rule="evenodd" d="M13.2905 7.7217C13.4398 7.5102 13.5761 7.29861 13.7115 7.073C13.6577 7.1435 13.2636 7.87691 12.4485 7.76405C12.4346 7.76405 12.9103 7.91917 13.2905 7.7217Z" fill="#595961" />
        <path opacity="0.42" fill-rule="evenodd" clip-rule="evenodd" d="M12.8288 8.62416C12.9512 8.39845 13.0735 8.15872 13.1681 7.93311C13.1273 8.01772 12.8556 8.77928 11.9998 8.77928C11.9998 8.77928 12.4755 8.87801 12.8288 8.62416Z" fill="#595961" />
        <path opacity="0.42" fill-rule="evenodd" clip-rule="evenodd" d="M12.4754 9.55523C12.5839 9.3154 12.6655 9.07567 12.7471 8.83594C12.7063 8.92055 12.5571 9.69622 11.6604 9.79496C11.6604 9.78084 12.149 9.83731 12.4754 9.55523Z" fill="#595961" />
        <path opacity="0.62" fill-rule="evenodd" clip-rule="evenodd" d="M17.91 6.8049C17.8423 6.55095 17.7746 6.31122 17.6791 6.05737C17.706 6.14199 17.9777 6.9459 17.4214 7.5241C17.4214 7.5241 17.8284 7.2421 17.91 6.8049Z" fill="#595961" />
        <path opacity="0.62" fill-rule="evenodd" clip-rule="evenodd" d="M17.3807 5.53553C17.1906 5.35218 16.9995 5.18295 16.8094 5.02783C16.8781 5.09833 17.516 5.62015 17.3399 6.40994C17.326 6.40994 17.53 5.9445 17.3807 5.53553Z" fill="#595961" />
        <path opacity="0.62" fill-rule="evenodd" clip-rule="evenodd" d="M18.0464 8.10242C18.0324 7.84857 17.9917 7.5806 17.9509 7.32666C17.9509 7.4254 18.0872 8.25754 17.4344 8.70886C17.4344 8.70886 17.8832 8.51139 18.0464 8.10242Z" fill="#595961" />
        <path opacity="0.62" fill-rule="evenodd" clip-rule="evenodd" d="M18.1141 9.42826C18.128 9.17441 18.128 8.90644 18.1141 8.65259C18.1141 8.75132 18.128 9.58347 17.4344 9.9642C17.4344 9.95017 17.9101 9.80908 18.1141 9.42826Z" fill="#595961" />
        <path opacity="0.42" fill-rule="evenodd" clip-rule="evenodd" d="M12.1629 10.5847C12.2445 10.3308 12.2992 10.077 12.353 9.83716C12.3261 9.92178 12.2037 10.7257 11.3748 10.9232C11.3887 10.9232 11.8773 10.909 12.1629 10.5847Z" fill="#595961" />
        <path opacity="0.42" fill-rule="evenodd" clip-rule="evenodd" d="M13.807 6.94581C13.9971 6.77657 14.1742 6.59322 14.3374 6.39575C14.2687 6.45213 13.7254 7.03043 12.965 6.81884C12.978 6.81884 13.399 7.07278 13.807 6.94581Z" fill="#595961" />
        <path opacity="0.42" fill-rule="evenodd" clip-rule="evenodd" d="M14.418 6.29731C14.6359 6.15631 14.8399 6.01522 15.043 5.86011C14.9623 5.90246 14.3373 6.36781 13.6168 6.02934C13.6168 6.02934 13.997 6.35369 14.418 6.29731Z" fill="#595961" />
        <path opacity="0.62" fill-rule="evenodd" clip-rule="evenodd" d="M15.247 5.83181C15.4918 5.76122 15.7227 5.6766 15.9536 5.59199C15.872 5.62022 15.1385 5.87407 14.5405 5.33813C14.5405 5.33813 14.826 5.76122 15.247 5.83181Z" fill="#595961" />
        <path opacity="0.62" fill-rule="evenodd" clip-rule="evenodd" d="M15.9397 5.57809C16.1307 5.60632 16.3208 5.62045 16.5109 5.63456C16.4432 5.62045 15.859 5.57809 15.6003 5.01392C15.6142 5.01392 15.6819 5.39474 15.9397 5.57809Z" fill="#595961" />
        <path opacity="0.62" fill-rule="evenodd" clip-rule="evenodd" d="M16.674 5.88805C16.7964 6.04316 16.9179 6.19828 17.0403 6.33937C16.9995 6.2829 16.6193 5.81755 16.8094 5.23926C16.8233 5.23926 16.6193 5.5637 16.674 5.88805Z" fill="#595961" />
        <path fill-rule="evenodd" clip-rule="evenodd" d="M17.6114 10.0488C17.6244 9.89364 18.0871 6.32543 16.7964 5.23943C16.5516 5.02794 16.253 4.9292 15.9266 4.9292C15.6818 4.9292 15.4102 4.98558 15.1246 5.09843C13.8746 5.56387 12.8286 6.8191 12.0952 8.73715C11.5379 10.1757 11.3617 11.4592 11.3478 11.5156C11.3478 11.5578 11.3747 11.6002 11.4155 11.6002H11.4294C11.4702 11.6002 11.4971 11.572 11.4971 11.5297C11.511 11.4732 12.2444 6.32543 15.1653 5.22531C15.7903 4.98558 16.3207 5.02793 16.7009 5.35228C17.9369 6.38181 17.4752 9.97826 17.4622 10.0206C17.4622 10.0629 17.4891 10.1052 17.5299 10.1052C17.5299 10.1052 17.5298 10.1052 17.5428 10.1052C17.5836 10.1194 17.6114 10.0911 17.6114 10.0488Z" fill="url(#paint22_linear_1266_15399)" />
        <path fill-rule="evenodd" clip-rule="evenodd" d="M18.1549 8.28583C18.1001 6.76264 17.7608 5.73302 17.1358 5.19708C16.7964 4.91509 16.3885 4.78812 15.9267 4.81635C16.28 4.8445 16.6055 4.97147 16.8781 5.19708C17.503 5.719 17.8424 6.76264 17.8962 8.28583C17.937 9.35771 17.8155 10.2885 17.8155 10.3309C17.7877 10.5001 17.6792 10.6271 17.5429 10.6693C17.5707 10.6834 17.5837 10.6834 17.6115 10.6834C17.8285 10.7117 18.0325 10.5565 18.0594 10.3309C18.0733 10.2885 18.1957 9.37183 18.1549 8.28583Z" fill="url(#paint23_linear_1266_15399)" />
        <path fill-rule="evenodd" clip-rule="evenodd" d="M15.1525 5.78941C12.4217 6.81893 11.7012 11.7693 11.7012 11.8257C11.6743 11.995 11.5649 12.1219 11.4295 12.1642C11.4564 12.1783 11.4703 12.1783 11.4972 12.1783C11.5111 12.1783 11.538 12.1783 11.5519 12.1783C11.7559 12.1783 11.9182 12.0232 11.946 11.8257C11.959 11.7693 12.6656 6.83305 15.3963 5.80344C15.5873 5.73294 15.7496 5.69068 15.8999 5.67656C15.6959 5.64832 15.4371 5.69067 15.1525 5.78941Z" fill="url(#paint24_linear_1266_15399)" />
    </g>
    <defs>
        <linearGradient id="paint0_linear_1266_15399" x1="14.7602" y1="5.69443" x2="14.3341" y2="11.4958" gradientUnits="userSpaceOnUse">
            <stop stop-color="white" stop-opacity="0.65" />
            <stop offset="1" stop-color="white" stop-opacity="0.01" />
        </linearGradient>
        <linearGradient id="paint1_linear_1266_15399" x1="17.874" y1="9.01523" x2="20.874" y2="11.6429" gradientUnits="userSpaceOnUse">
            <stop stop-opacity="0.01" />
            <stop offset="1" stop-opacity="0.4" />
        </linearGradient>
        <linearGradient id="paint2_linear_1266_15399" x1="16.6712" y1="12.0548" x2="19.8466" y2="9.09712" gradientUnits="userSpaceOnUse">
            <stop stop-opacity="0.01" />
            <stop offset="1" stop-opacity="0.4" />
        </linearGradient>
        <linearGradient id="paint3_linear_1266_15399" x1="12.6294" y1="3.42348" x2="0.295799" y2="17.6345" gradientUnits="userSpaceOnUse">
            <stop stop-color="#B8D26E" />
            <stop offset="1" stop-color="#7FB525" />
        </linearGradient>
        <linearGradient id="paint4_linear_1266_15399" x1="29.5008" y1="6.98139" x2="22.7319" y2="7.10709" gradientUnits="userSpaceOnUse">
            <stop stop-color="#B4E034" />
            <stop offset="1" stop-color="#60A927" />
        </linearGradient>
        <linearGradient id="paint5_linear_1266_15399" x1="9.3672" y1="16.4573" x2="3.81758" y2="29.9717" gradientUnits="userSpaceOnUse">
            <stop stop-color="white" />
            <stop offset="1" stop-color="#CECEEB" />
        </linearGradient>
        <linearGradient id="paint6_linear_1266_15399" x1="17.3241" y1="49.7391" x2="26.1135" y2="49.7213" gradientUnits="userSpaceOnUse">
            <stop stop-color="#1D1D1B" stop-opacity="0.5" />
            <stop offset="0.038033" stop-color="#1D1D1B" stop-opacity="0.4837" />
            <stop offset="0.4243" stop-color="#1D1D1B" stop-opacity="0.3185" />
            <stop offset="1" stop-color="#1D1D1B" stop-opacity="0.01" />
        </linearGradient>
        <linearGradient id="paint7_linear_1266_15399" x1="18.3449" y1="7.4382" x2="16.8868" y2="8.22299" gradientUnits="userSpaceOnUse">
            <stop stop-opacity="0.01" />
            <stop offset="1" stop-opacity="0.4" />
        </linearGradient>
        <linearGradient id="paint8_linear_1266_15399" x1="12.2316" y1="9.76567" x2="11.2066" y2="10.6466" gradientUnits="userSpaceOnUse">
            <stop stop-opacity="0.01" />
            <stop offset="1" stop-opacity="0.4" />
        </linearGradient>
        <linearGradient id="paint9_linear_1266_15399" x1="22.2302" y1="27.5619" x2="22.334" y2="28.9298" gradientUnits="userSpaceOnUse">
            <stop stop-opacity="0.01" />
            <stop offset="1" stop-opacity="0.4" />
        </linearGradient>
        <linearGradient id="paint10_linear_1266_15399" x1="19.8073" y1="25.5592" x2="20.0479" y2="29.1159" gradientUnits="userSpaceOnUse">
            <stop stop-color="white" stop-opacity="0.5" />
            <stop offset="0.0896271" stop-color="white" stop-opacity="0.4552" />
            <stop offset="1" stop-color="white" stop-opacity="0.01" />
        </linearGradient>
        <linearGradient id="paint11_linear_1266_15399" x1="19.3446" y1="26.1124" x2="19.7725" y2="29.9117" gradientUnits="userSpaceOnUse">
            <stop stop-opacity="0.01" />
            <stop offset="1" stop-opacity="0.4" />
        </linearGradient>
        <linearGradient id="paint12_linear_1266_15399" x1="17.6653" y1="4.25366" x2="6.68912" y2="10.6018" gradientUnits="userSpaceOnUse">
            <stop stop-color="white" stop-opacity="0.5" />
            <stop offset="1" stop-color="white" stop-opacity="0.01" />
        </linearGradient>
        <linearGradient id="paint13_linear_1266_15399" x1="19.7831" y1="37.4315" x2="29.4711" y2="37.4511" gradientUnits="userSpaceOnUse">
            <stop stop-color="#1D1D1B" stop-opacity="0.5" />
            <stop offset="0.0896271" stop-color="#1D1D1B" stop-opacity="0.4552" />
            <stop offset="1" stop-color="#1D1D1B" stop-opacity="0.01" />
        </linearGradient>
        <linearGradient id="paint14_linear_1266_15399" x1="26.721" y1="8.72482" x2="25.3447" y2="9.06203" gradientUnits="userSpaceOnUse">
            <stop stop-color="white" stop-opacity="0.4" />
            <stop offset="1" stop-color="white" stop-opacity="0.01" />
        </linearGradient>
        <linearGradient id="paint15_linear_1266_15399" x1="14.3736" y1="29.3301" x2="15.0892" y2="25.8799" gradientUnits="userSpaceOnUse">
            <stop stop-color="#1D1D1B" stop-opacity="0.5" />
            <stop offset="0.0896271" stop-color="#1D1D1B" stop-opacity="0.4552" />
            <stop offset="1" stop-color="#1D1D1B" stop-opacity="0.01" />
        </linearGradient>
        <linearGradient id="paint16_linear_1266_15399" x1="18.511" y1="49.3" x2="27.332" y2="49.3076" gradientUnits="userSpaceOnUse">
            <stop stop-color="#1D1D1B" stop-opacity="0.5" />
            <stop offset="1" stop-color="#1D1D1B" stop-opacity="0.01" />
        </linearGradient>
        <linearGradient id="paint17_linear_1266_15399" x1="10.4503" y1="6.50729" x2="6.17213" y2="22.9439" gradientUnits="userSpaceOnUse">
            <stop stop-color="white" stop-opacity="0.5" />
            <stop offset="1" stop-color="white" stop-opacity="0.01" />
        </linearGradient>
        <linearGradient id="paint18_linear_1266_15399" x1="10.4503" y1="6.50729" x2="6.17213" y2="22.9439" gradientUnits="userSpaceOnUse">
            <stop stop-color="white" stop-opacity="0.5" />
            <stop offset="1" stop-color="white" stop-opacity="0.01" />
        </linearGradient>
        <linearGradient id="paint19_linear_1266_15399" x1="20.8329" y1="23.7371" x2="17.4514" y2="28.3913" gradientUnits="userSpaceOnUse">
            <stop stop-color="white" stop-opacity="0.5" />
            <stop offset="0.0896271" stop-color="white" stop-opacity="0.4552" />
            <stop offset="1" stop-color="white" stop-opacity="0.01" />
        </linearGradient>
        <linearGradient id="paint20_linear_1266_15399" x1="21.8528" y1="24.8072" x2="21.518" y2="25.5577" gradientUnits="userSpaceOnUse">
            <stop stop-opacity="0.01" />
            <stop offset="1" stop-opacity="0.4" />
        </linearGradient>
        <linearGradient id="paint21_linear_1266_15399" x1="25.1733" y1="25.7994" x2="25.1567" y2="26.0011" gradientUnits="userSpaceOnUse">
            <stop stop-opacity="0.01" />
            <stop offset="1" stop-opacity="0.4" />
        </linearGradient>
        <linearGradient id="paint22_linear_1266_15399" x1="12.9964" y1="4.45444" x2="11.5346" y2="10.2294" gradientUnits="userSpaceOnUse">
            <stop stop-color="white" stop-opacity="0.65" />
            <stop offset="1" stop-color="white" stop-opacity="0.01" />
        </linearGradient>
        <linearGradient id="paint23_linear_1266_15399" x1="16.2679" y1="7.78579" x2="18.8109" y2="10.3711" gradientUnits="userSpaceOnUse">
            <stop stop-opacity="0.01" />
            <stop offset="1" stop-opacity="0.4" />
        </linearGradient>
        <linearGradient id="paint24_linear_1266_15399" x1="14.6425" y1="11.5929" x2="18.1559" y2="7.9846" gradientUnits="userSpaceOnUse">
            <stop stop-opacity="0.01" />
            <stop offset="1" stop-opacity="0.4" />
        </linearGradient>
    </defs>
</svg>
    