<svg width="175" height="100" viewBox="0 0 175 100" fill="none" xmlns="http://www.w3.org/2000/svg">
<path d="M50.8589 91V79.224H53.4829V91H50.8589ZM57.9469 91L54.5229 85.976H57.4029L60.9869 91H57.9469ZM52.7789 87.256V85.192H55.6589C56.0429 85.192 56.3735 85.1173 56.6509 84.968C56.9389 84.808 57.1575 84.5893 57.3069 84.312C57.4669 84.024 57.5469 83.6933 57.5469 83.32C57.5469 82.9467 57.4669 82.6213 57.3069 82.344C57.1575 82.056 56.9389 81.8373 56.6509 81.688C56.3735 81.528 56.0429 81.448 55.6589 81.448H52.7789V79.224H55.4509C56.4215 79.224 57.2642 79.3733 57.9789 79.672C58.6935 79.96 59.2429 80.392 59.6269 80.968C60.0109 81.544 60.2029 82.2693 60.2029 83.144V83.4C60.2029 84.264 60.0055 84.984 59.6109 85.56C59.2269 86.1253 58.6775 86.552 57.9629 86.84C57.2589 87.1173 56.4215 87.256 55.4509 87.256H52.7789ZM66.2621 91.304C65.5155 91.304 64.8541 91.176 64.2781 90.92C63.7128 90.664 63.2381 90.3227 62.8541 89.896C62.4808 89.4587 62.1928 88.9733 61.9901 88.44C61.7981 87.896 61.7021 87.3413 61.7021 86.776V86.456C61.7021 85.8693 61.7981 85.3093 61.9901 84.776C62.1928 84.232 62.4808 83.7467 62.8541 83.32C63.2275 82.8933 63.6915 82.5573 64.2461 82.312C64.8115 82.056 65.4515 81.928 66.1661 81.928C67.1048 81.928 67.8941 82.1413 68.5341 82.568C69.1848 82.984 69.6808 83.5333 70.0221 84.216C70.3635 84.888 70.5341 85.624 70.5341 86.424V87.288H62.7741V85.832H68.9821L68.1501 86.504C68.1501 85.9813 68.0755 85.5333 67.9261 85.16C67.7768 84.7867 67.5528 84.504 67.2541 84.312C66.9661 84.1093 66.6035 84.008 66.1661 84.008C65.7181 84.008 65.3395 84.1093 65.0301 84.312C64.7208 84.5147 64.4861 84.8133 64.3261 85.208C64.1661 85.592 64.0861 86.0667 64.0861 86.632C64.0861 87.1547 64.1608 87.6133 64.3101 88.008C64.4595 88.392 64.6941 88.6907 65.0141 88.904C65.3341 89.1173 65.7501 89.224 66.2621 89.224C66.7315 89.224 67.1155 89.1333 67.4141 88.952C67.7128 88.7707 67.9155 88.5467 68.0221 88.28H70.3741C70.2461 88.8667 69.9955 89.3893 69.6221 89.848C69.2488 90.3067 68.7795 90.664 68.2141 90.92C67.6488 91.176 66.9981 91.304 66.2621 91.304ZM76.1665 91.304C75.4092 91.304 74.7478 91.1813 74.1825 90.936C73.6278 90.68 73.1638 90.3387 72.7905 89.912C72.4172 89.4853 72.1398 89.0053 71.9585 88.472C71.7772 87.928 71.6865 87.368 71.6865 86.792V86.488C71.6865 85.8907 71.7825 85.32 71.9745 84.776C72.1665 84.2213 72.4492 83.7307 72.8225 83.304C73.1958 82.8773 73.6598 82.5413 74.2145 82.296C74.7798 82.0507 75.4252 81.928 76.1505 81.928C76.9398 81.928 77.6385 82.0827 78.2465 82.392C78.8545 82.6907 79.3398 83.112 79.7025 83.656C80.0652 84.2 80.2678 84.824 80.3105 85.528H77.7985C77.7558 85.1333 77.5958 84.8027 77.3185 84.536C77.0518 84.2587 76.6625 84.12 76.1505 84.12C75.7238 84.12 75.3665 84.2267 75.0785 84.44C74.8012 84.6533 74.5932 84.9467 74.4545 85.32C74.3158 85.6933 74.2465 86.136 74.2465 86.648C74.2465 87.1173 74.3105 87.544 74.4385 87.928C74.5665 88.3013 74.7692 88.5947 75.0465 88.808C75.3345 89.0107 75.7078 89.112 76.1665 89.112C76.5078 89.112 76.7958 89.0533 77.0305 88.936C77.2758 88.808 77.4678 88.6373 77.6065 88.424C77.7558 88.2 77.8465 87.944 77.8785 87.656H80.3745C80.3425 88.3813 80.1398 89.0213 79.7665 89.576C79.3932 90.12 78.8972 90.5467 78.2785 90.856C77.6598 91.1547 76.9558 91.304 76.1665 91.304ZM86.0278 91.304C85.2811 91.304 84.6198 91.176 84.0438 90.92C83.4784 90.664 83.0038 90.3227 82.6198 89.896C82.2464 89.4587 81.9584 88.9733 81.7558 88.44C81.5638 87.896 81.4678 87.3413 81.4678 86.776V86.456C81.4678 85.8693 81.5638 85.3093 81.7558 84.776C81.9584 84.232 82.2464 83.7467 82.6198 83.32C82.9931 82.8933 83.4571 82.5573 84.0118 82.312C84.5771 82.056 85.2171 81.928 85.9318 81.928C86.8704 81.928 87.6598 82.1413 88.2998 82.568C88.9504 82.984 89.4464 83.5333 89.7878 84.216C90.1291 84.888 90.2998 85.624 90.2998 86.424V87.288H82.5398V85.832H88.7478L87.9158 86.504C87.9158 85.9813 87.8411 85.5333 87.6918 85.16C87.5424 84.7867 87.3184 84.504 87.0198 84.312C86.7318 84.1093 86.3691 84.008 85.9318 84.008C85.4838 84.008 85.1051 84.1093 84.7958 84.312C84.4864 84.5147 84.2518 84.8133 84.0918 85.208C83.9318 85.592 83.8518 86.0667 83.8518 86.632C83.8518 87.1547 83.9264 87.6133 84.0758 88.008C84.2251 88.392 84.4598 88.6907 84.7798 88.904C85.0998 89.1173 85.5158 89.224 86.0278 89.224C86.4971 89.224 86.8811 89.1333 87.1798 88.952C87.4784 88.7707 87.6811 88.5467 87.7878 88.28H90.1398C90.0118 88.8667 89.7611 89.3893 89.3878 89.848C89.0144 90.3067 88.5451 90.664 87.9798 90.92C87.4144 91.176 86.7638 91.304 86.0278 91.304ZM92.4121 91V82.232H94.9721V91H92.4121ZM91.2441 84.12V82.232H94.9721V84.12H91.2441ZM93.4041 81.368C92.9241 81.368 92.5668 81.2453 92.3321 81C92.1081 80.744 91.9961 80.424 91.9961 80.04C91.9961 79.6453 92.1081 79.3253 92.3321 79.08C92.5668 78.824 92.9241 78.696 93.4041 78.696C93.8841 78.696 94.2361 78.824 94.4601 79.08C94.6948 79.3253 94.8121 79.6453 94.8121 80.04C94.8121 80.424 94.6948 80.744 94.4601 81C94.2361 81.2453 93.8841 81.368 93.4041 81.368ZM99.0359 91L96.4119 82.232H99.0519L101.516 91H99.0359ZM99.8359 91V88.872H102.412V91H99.8359ZM100.78 91L102.908 82.232H105.372L103.1 91H100.78ZM110.7 91.304C109.953 91.304 109.292 91.176 108.716 90.92C108.15 90.664 107.676 90.3227 107.292 89.896C106.918 89.4587 106.63 88.9733 106.428 88.44C106.236 87.896 106.14 87.3413 106.14 86.776V86.456C106.14 85.8693 106.236 85.3093 106.428 84.776C106.63 84.232 106.918 83.7467 107.292 83.32C107.665 82.8933 108.129 82.5573 108.684 82.312C109.249 82.056 109.889 81.928 110.604 81.928C111.542 81.928 112.332 82.1413 112.972 82.568C113.622 82.984 114.118 83.5333 114.46 84.216C114.801 84.888 114.972 85.624 114.972 86.424V87.288H107.212V85.832H113.42L112.588 86.504C112.588 85.9813 112.513 85.5333 112.364 85.16C112.214 84.7867 111.99 84.504 111.692 84.312C111.404 84.1093 111.041 84.008 110.604 84.008C110.156 84.008 109.777 84.1093 109.468 84.312C109.158 84.5147 108.924 84.8133 108.764 85.208C108.604 85.592 108.524 86.0667 108.524 86.632C108.524 87.1547 108.598 87.6133 108.748 88.008C108.897 88.392 109.132 88.6907 109.452 88.904C109.772 89.1173 110.188 89.224 110.7 89.224C111.169 89.224 111.553 89.1333 111.852 88.952C112.15 88.7707 112.353 88.5467 112.46 88.28H114.812C114.684 88.8667 114.433 89.3893 114.06 89.848C113.686 90.3067 113.217 90.664 112.652 90.92C112.086 91.176 111.436 91.304 110.7 91.304ZM120.284 91.288C119.665 91.288 119.1 91.176 118.588 90.952C118.087 90.728 117.649 90.4187 117.276 90.024C116.903 89.6187 116.615 89.144 116.412 88.6C116.22 88.056 116.124 87.4693 116.124 86.84V86.472C116.124 85.8427 116.215 85.256 116.396 84.712C116.588 84.168 116.86 83.6933 117.212 83.288C117.575 82.872 118.007 82.552 118.508 82.328C119.009 82.0933 119.569 81.976 120.188 81.976C120.892 81.976 121.5 82.1307 122.012 82.44C122.524 82.7387 122.924 83.1867 123.212 83.784C123.5 84.3707 123.66 85.096 123.692 85.96L123.02 85.336V79.32H125.596V91H123.564V87.368H123.916C123.884 88.2 123.708 88.9093 123.388 89.496C123.079 90.0827 122.657 90.5307 122.124 90.84C121.591 91.1387 120.977 91.288 120.284 91.288ZM120.924 89.144C121.319 89.144 121.676 89.0587 121.996 88.888C122.327 88.7067 122.588 88.4453 122.78 88.104C122.983 87.7627 123.084 87.352 123.084 86.872V86.28C123.084 85.8107 122.983 85.416 122.78 85.096C122.577 84.776 122.311 84.5307 121.98 84.36C121.649 84.1893 121.292 84.104 120.908 84.104C120.481 84.104 120.097 84.216 119.756 84.44C119.425 84.6533 119.164 84.952 118.972 85.336C118.78 85.7093 118.684 86.1467 118.684 86.648C118.684 87.16 118.78 87.6027 118.972 87.976C119.164 88.3493 119.431 88.6373 119.772 88.84C120.113 89.0427 120.497 89.144 120.924 89.144ZM131.853 91V83.224C131.853 81.8907 132.259 80.8773 133.069 80.184C133.891 79.4907 135.011 79.144 136.429 79.144C136.675 79.144 136.963 79.1547 137.293 79.176C137.624 79.1867 137.949 79.208 138.269 79.24C138.6 79.2613 138.867 79.2827 139.069 79.304V81.384C138.867 81.3627 138.595 81.3413 138.253 81.32C137.923 81.288 137.587 81.2667 137.245 81.256C136.915 81.2347 136.643 81.224 136.429 81.224C135.896 81.224 135.464 81.304 135.133 81.464C134.803 81.6133 134.563 81.848 134.413 82.168C134.264 82.488 134.189 82.8773 134.189 83.336V91H131.853ZM130.765 91V89.016H138.381V91H130.765ZM130.861 85.992V84.28H137.965V85.992H130.861ZM137.805 91V87.608H139.805V91H137.805ZM145.497 91.304C144.569 91.304 143.769 91.128 143.097 90.776C142.425 90.4133 141.908 89.928 141.545 89.32C141.193 88.712 141.017 88.04 141.017 87.304H143.545C143.545 87.6667 143.625 87.9867 143.785 88.264C143.956 88.5307 144.191 88.744 144.489 88.904C144.788 89.0533 145.129 89.128 145.513 89.128C145.94 89.128 146.297 89.0427 146.585 88.872C146.884 88.6907 147.113 88.4507 147.273 88.152C147.433 87.8427 147.513 87.496 147.513 87.112C147.513 86.7173 147.433 86.3707 147.273 86.072C147.124 85.7627 146.9 85.5173 146.601 85.336C146.313 85.1547 145.961 85.064 145.545 85.064C145.161 85.064 144.815 85.144 144.505 85.304C144.196 85.464 143.967 85.6667 143.817 85.912H141.353L141.945 79.32H149.033V81.56H142.985L143.993 80.888L143.641 84.68L143.033 84.52C143.353 84.136 143.737 83.816 144.185 83.56C144.644 83.2933 145.241 83.16 145.977 83.16C146.831 83.16 147.556 83.336 148.153 83.688C148.761 84.0293 149.225 84.4933 149.545 85.08C149.876 85.656 150.041 86.3013 150.041 87.016V87.224C150.041 87.9387 149.865 88.6053 149.513 89.224C149.161 89.8427 148.644 90.344 147.961 90.728C147.289 91.112 146.468 91.304 145.497 91.304ZM156.69 91.304C155.762 91.304 154.967 91.1547 154.306 90.856C153.645 90.5467 153.106 90.1307 152.69 89.608C152.285 89.0853 151.981 88.4827 151.778 87.8C151.586 87.1067 151.49 86.376 151.49 85.608V84.696C151.49 83.6293 151.677 82.664 152.05 81.8C152.423 80.936 152.994 80.248 153.762 79.736C154.53 79.224 155.506 78.968 156.69 78.968C157.874 78.968 158.845 79.224 159.602 79.736C160.37 80.248 160.941 80.936 161.314 81.8C161.687 82.664 161.874 83.6293 161.874 84.696V85.608C161.874 86.376 161.773 87.1067 161.57 87.8C161.378 88.4827 161.074 89.0853 160.658 89.608C160.253 90.1307 159.719 90.5467 159.058 90.856C158.407 91.1547 157.618 91.304 156.69 91.304ZM156.69 88.888C157.554 88.888 158.194 88.5893 158.61 87.992C159.037 87.384 159.25 86.4453 159.25 85.176C159.25 83.832 159.031 82.8667 158.594 82.28C158.167 81.6827 157.533 81.384 156.69 81.384C155.826 81.384 155.181 81.6827 154.754 82.28C154.327 82.8667 154.114 83.8213 154.114 85.144C154.114 86.424 154.322 87.368 154.738 87.976C155.165 88.584 155.815 88.888 156.69 88.888ZM170.125 91L167.357 86.904H166.125L169.693 82.232H172.381L169.021 86.584L169.053 85.336L173.005 91H170.125ZM163.949 91V79.32H166.509V91H163.949Z" fill="white"/>
<path d="M93.1197 39.9093C92.4331 39.9112 91.7466 39.9132 91.0606 39.9086C90.247 39.891 89.4791 40.3353 89.0875 41.0482C88.8952 41.3999 88.7991 41.7962 88.7967 42.196C88.7967 43.0417 88.7965 43.8881 88.7963 44.7347V44.741C88.7959 46.8642 88.7954 48.989 88.7979 51.109C88.7932 51.9168 89.2188 52.6742 89.9222 53.0752C90.3068 53.2968 90.7406 53.3789 91.1826 53.3742C92.0623 53.3705 92.9421 53.371 93.8217 53.3715H93.8221C94.6338 53.3719 95.4454 53.3723 96.2567 53.3695C96.2559 52.4321 96.257 51.4946 96.258 50.557V50.556C96.2601 48.6807 96.2622 46.8052 96.2497 44.9302C95.9219 44.9306 95.5939 44.9302 95.2659 44.9298H95.2635C94.7381 44.9291 94.2124 44.9285 93.6868 44.9313C93.6841 46.0482 93.6845 47.1655 93.6849 48.2827V48.2828C93.6852 49.1206 93.6855 49.9584 93.6844 50.796C93.0455 50.7995 92.4065 50.8018 91.7664 50.8018C91.5495 50.8077 91.3783 50.7936 91.3807 50.531C91.3755 49.3096 91.3765 48.0845 91.3775 46.8591V46.8575C91.3786 45.5768 91.3796 44.2957 91.3737 43.0179C91.3725 42.8362 91.403 42.6603 91.4381 42.4833C93.0443 42.4797 94.6517 42.4809 96.259 42.4821C96.2594 42.2266 96.2588 41.9711 96.2582 41.7155V41.715C96.2568 41.1183 96.2554 40.5213 96.2661 39.9238C95.218 39.9032 94.1687 39.9063 93.1197 39.9093Z" fill="white"/>
<path d="M108.813 39.9074C108.901 40.2075 108.999 40.503 109.118 40.7926C109.394 41.4933 109.664 42.1964 109.935 42.8994C110.332 43.9337 110.73 44.968 111.146 45.9948C111.169 44.824 111.166 43.6524 111.163 42.481V42.4804C111.16 41.6237 111.158 40.7671 111.166 39.9109C111.337 39.9107 111.508 39.9103 111.68 39.91C112.364 39.9087 113.049 39.9074 113.732 39.9121C113.732 41.4074 113.733 42.9026 113.733 44.3979C113.734 47.3883 113.735 50.3786 113.729 53.3683C113.248 53.3723 112.767 53.3718 112.286 53.3712C111.925 53.3707 111.564 53.3703 111.204 53.3718C111.071 52.9334 110.904 52.511 110.736 52.087C110.646 51.86 110.556 51.6326 110.471 51.4021C110.254 50.8604 110.046 50.3146 109.838 49.7688L109.838 49.7687C109.527 48.95 109.215 48.1314 108.872 47.3267C108.843 48.6106 108.848 49.896 108.852 51.181V51.1822C108.855 51.908 108.857 52.6337 108.854 53.3589C108.314 53.3766 107.773 53.3739 107.232 53.3712H107.231C106.912 53.3696 106.593 53.368 106.274 53.3706C106.271 51.5418 106.272 49.7125 106.273 47.8831V47.8828C106.274 45.23 106.276 42.5771 106.265 39.925C106.773 39.9053 107.281 39.9075 107.788 39.9097C108.13 39.9111 108.472 39.9126 108.813 39.9074Z" fill="white"/>
<path d="M126.3 39.9173C125.742 39.9143 125.183 39.9113 124.626 39.9261C124.609 40.1211 124.61 40.3182 124.612 40.5146V40.5147C124.612 40.5675 124.612 40.6203 124.612 40.673C124.615 42.5881 124.614 44.5035 124.614 46.4189V46.422C124.613 48.7469 124.612 51.0719 124.617 53.3965C124.996 53.3959 125.374 53.3961 125.753 53.3962C126.258 53.3964 126.762 53.3966 127.267 53.3953C127.274 51.7339 127.271 50.0714 127.268 48.41C127.262 48.2306 127.301 48.0618 127.345 47.8894C127.821 47.9072 128.297 47.9051 128.773 47.903C129.116 47.9015 129.459 47.9 129.801 47.9059C129.81 48.9136 129.809 49.9214 129.807 50.9292C129.806 51.7504 129.805 52.5717 129.81 53.3929C130.705 53.3976 131.602 53.4 132.498 53.3906C132.495 50.8243 132.496 48.2581 132.496 45.6921V45.6916C132.496 43.7677 132.497 41.8439 132.496 39.9203C131.825 39.915 131.154 39.9157 130.483 39.9163C130.259 39.9165 130.036 39.9168 129.812 39.9168C129.804 40.803 129.806 41.6889 129.807 42.5749C129.809 43.5162 129.81 44.4575 129.801 45.3991C129.455 45.4051 129.108 45.4035 128.762 45.4019H128.762C128.29 45.3997 127.819 45.3975 127.348 45.4144C127.257 45.1372 127.262 44.8711 127.268 44.5947C127.27 44.5005 127.272 44.4051 127.27 44.3076C127.27 43.7911 127.27 43.2747 127.271 42.7584V42.7579C127.271 41.8117 127.272 40.8657 127.268 39.9191C126.945 39.9208 126.623 39.9191 126.3 39.9173Z" fill="white"/>
<path d="M143.053 39.925C143.525 39.9118 143.998 39.9141 144.472 39.9163C144.883 39.9183 145.295 39.9203 145.706 39.9121C145.727 41.8597 145.724 43.8099 145.721 45.7601V45.7614C145.718 47.475 145.715 49.1885 145.728 50.9003C145.992 50.8999 146.256 50.9003 146.52 50.9006C147.092 50.9013 147.664 50.902 148.236 50.8956C148.238 49.3275 148.237 47.7594 148.237 46.1912C148.236 44.1001 148.236 42.009 148.24 39.9179C148.878 39.9154 149.516 39.9159 150.154 39.9164C150.409 39.9166 150.665 39.9168 150.92 39.9168C150.924 41.894 150.924 43.8717 150.923 45.8493C150.922 47.5631 150.922 49.277 150.924 50.9906C150.924 51.0584 150.924 51.127 150.925 51.1962C150.927 51.5432 150.93 51.9022 150.798 52.2228C150.484 52.924 149.757 53.3988 148.986 53.3941C147.655 53.3976 146.323 53.3976 144.991 53.3941C144.008 53.4117 143.017 52.6086 143.044 51.5815C143.045 50.2706 143.043 48.9556 143.042 47.6395V47.6301C143.039 45.0587 143.037 42.4829 143.053 39.925Z" fill="white"/>
<path d="M158.128 39.9167C156.798 39.9156 155.467 39.9156 154.139 39.9179C153.164 39.8945 152.182 40.7117 152.199 41.7223C152.191 42.3264 152.192 42.931 152.194 43.5354V43.5367C152.194 43.8727 152.195 44.2086 152.194 44.5444C152.188 45.2643 152.403 45.9678 152.862 46.5282C153.572 47.3829 154.678 47.8566 155.778 47.8918C155.857 47.8955 155.935 47.8976 156.012 47.8995L156.013 47.8995C156.367 47.9087 156.701 47.9173 157.034 48.0934C157.276 48.2306 157.402 48.4839 157.394 48.7606C157.404 49.4275 157.398 50.0965 157.392 50.7647V50.7666L157.391 50.8991C157.24 50.8993 157.088 50.8996 156.936 50.8999H156.935C156.251 50.9012 155.566 50.9025 154.882 50.8968C154.88 50.5527 154.88 50.2085 154.881 49.8644C154.881 49.5203 154.881 49.1762 154.879 48.8321C154.383 48.8288 153.886 48.8292 153.39 48.8296C152.993 48.8298 152.596 48.8301 152.199 48.8286C152.198 48.9948 152.197 49.1612 152.196 49.3276V49.3308C152.191 50.1125 152.186 50.8953 152.204 51.6765C152.235 52.6508 153.195 53.4058 154.136 53.3929C155.334 53.3993 156.533 53.397 157.731 53.3948L158.131 53.3941C159.07 53.4129 160.036 52.6566 160.071 51.6847C160.088 51.2569 160.085 50.8287 160.082 50.4006V50.4004C160.081 50.1281 160.079 49.8558 160.082 49.5836C160.081 49.4568 160.082 49.3316 160.082 49.2075C160.087 48.632 160.091 48.0829 159.855 47.5283C159.401 46.4028 158.235 45.6676 157.07 45.4742C156.835 45.4247 156.586 45.4181 156.339 45.4116C155.982 45.4021 155.628 45.3927 155.32 45.2549C155.037 45.1342 154.868 44.8493 154.882 44.5444C154.878 44.1053 154.88 43.6657 154.881 43.2265C154.882 42.9562 154.883 42.6862 154.882 42.4164C155.451 42.4084 156.019 42.4097 156.588 42.4109C156.856 42.4115 157.123 42.4121 157.391 42.4117C157.4 42.8619 157.399 43.3121 157.398 43.7623C157.397 43.9992 157.396 44.236 157.397 44.4729C157.819 44.4751 158.241 44.475 158.664 44.4748H158.664C159.133 44.4747 159.603 44.4745 160.071 44.4776C160.088 43.5607 160.087 42.6404 160.077 41.7235C160.095 40.7011 159.108 39.8956 158.128 39.9167Z" fill="white"/>
<path d="M164.146 39.9164H164.146C165.552 39.9159 166.958 39.9154 168.364 39.9203C168.371 40.6218 168.368 41.3241 168.366 42.0259C168.366 42.1534 168.365 42.2808 168.365 42.4082C167.743 42.4131 167.121 42.4117 166.499 42.4102C165.636 42.4081 164.774 42.4061 163.911 42.4211C163.907 42.8728 163.908 43.3243 163.908 43.7758C163.91 44.3133 163.911 44.8508 163.903 45.3886C164.633 45.4081 165.365 45.4052 166.096 45.4024H166.096C166.597 45.4005 167.098 45.3986 167.599 45.4038C167.603 46.2363 167.603 47.0687 167.599 47.9012C167.106 47.9068 166.612 47.9045 166.119 47.9023H166.119C165.379 47.8989 164.639 47.8955 163.901 47.9187C163.912 48.5022 163.91 49.0857 163.909 49.6692C163.908 50.0776 163.908 50.486 163.911 50.8944C164.73 50.9028 165.548 50.9016 166.367 50.9004H166.367C167.034 50.8994 167.701 50.8984 168.367 50.9026C168.366 51.2346 168.367 51.5665 168.368 51.8984V51.9002C168.368 52.3977 168.369 52.8949 168.365 53.3917C166.919 53.3982 165.474 53.3972 164.028 53.3963C163.092 53.3957 162.157 53.3951 161.222 53.3964L161.221 52.8327V52.8292C161.214 48.5252 161.207 44.2193 161.225 39.9156C162.199 39.917 163.172 39.9167 164.146 39.9164Z" fill="white"/>
<path fill-rule="evenodd" clip-rule="evenodd" d="M97.5569 39.9203C98.4671 39.9051 99.3801 39.9074 100.293 39.9097H100.293C100.93 39.9113 101.567 39.9129 102.203 39.9086C102.28 39.9091 102.355 39.9086 102.429 39.9081C102.837 39.9053 103.215 39.9027 103.61 40.0762C104.412 40.3986 104.984 41.2076 104.985 42.0776C104.985 42.3347 104.986 42.5919 104.987 42.8491V42.8494C104.99 43.493 104.992 44.1369 104.979 44.7801C104.954 45.5961 104.456 46.2328 103.78 46.6443C104.473 47.0441 104.964 47.7065 104.982 48.5261C104.992 50.1394 104.99 51.7538 104.983 53.3671C104.126 53.373 103.268 53.373 102.411 53.3683C102.411 52.923 102.41 52.4779 102.41 52.0328L102.41 52.0284C102.409 51.1354 102.408 50.2425 102.411 49.3491C102.41 49.2779 102.411 49.206 102.412 49.1336C102.414 48.9083 102.416 48.6797 102.379 48.4604C102.28 48.1204 101.966 47.9516 101.629 47.9316C101.13 47.9059 100.622 47.9094 100.123 47.9504C100.123 48.515 100.124 49.0795 100.124 49.644V49.6452C100.126 50.8866 100.127 52.1278 100.122 53.3695C99.2627 53.3718 98.4045 53.3718 97.5463 53.3695C97.5496 51.5982 97.5482 49.817 97.5469 48.0342V48.0336C97.5448 45.3228 97.5427 42.6085 97.5569 39.9203ZM100.137 42.4926C100.886 42.4692 101.643 42.4751 102.392 42.4962C102.419 43.1204 102.414 43.7466 102.41 44.3703C102.409 44.4284 102.409 44.4864 102.408 44.5444C102.441 44.9278 102.128 45.3265 101.734 45.3312C101.409 45.3461 101.082 45.3429 100.756 45.3396C100.547 45.3375 100.337 45.3354 100.128 45.3382C100.129 45.018 100.127 44.6974 100.125 44.3766C100.121 43.7481 100.117 43.119 100.137 42.4926Z" fill="white"/>
<path fill-rule="evenodd" clip-rule="evenodd" d="M118.409 39.9096C117.281 39.9073 116.152 39.905 115.027 39.9179C115.008 42.7887 115.011 45.6813 115.014 48.5693L115.014 48.5746C115.016 50.1763 115.017 51.7764 115.015 53.3706C115.699 53.3716 116.382 53.3714 117.065 53.3712C118.091 53.3709 119.116 53.3706 120.142 53.3742C120.606 53.3742 121.062 53.264 121.455 53.0107C122.088 52.6015 122.489 51.8676 122.462 51.1102C122.461 48.335 122.46 45.5574 122.462 42.7834C122.461 42.6844 122.462 42.5868 122.463 42.4905V42.4898C122.468 42.0879 122.473 41.7059 122.311 41.3155C121.985 40.4854 121.157 39.9109 120.263 39.9109C119.645 39.9121 119.027 39.9109 118.409 39.9096H118.409ZM119.328 42.4844C118.753 42.4785 118.176 42.4726 117.601 42.4915C117.583 44.2897 117.586 46.0979 117.589 47.9038V47.9065C117.591 48.8713 117.592 49.8355 117.591 50.7971C117.937 50.8009 118.284 50.7999 118.631 50.799H118.631C119.032 50.7978 119.433 50.7967 119.835 50.803C119.9 50.4896 119.896 50.1838 119.891 49.8718C119.89 49.7764 119.888 49.6805 119.889 49.5836V43.7214L119.889 43.6686C119.894 43.2748 119.898 42.8819 119.855 42.4891C119.679 42.488 119.504 42.4862 119.329 42.4844L119.328 42.4844Z" fill="white"/>
<path fill-rule="evenodd" clip-rule="evenodd" d="M135.615 39.9214C136.274 39.9133 136.933 39.915 137.592 39.9167C138.067 39.918 138.542 39.9192 139.016 39.9167C139.095 39.9167 139.173 39.9159 139.251 39.915C139.488 39.9124 139.725 39.9097 139.958 39.9308C140.665 40.0035 141.307 40.5065 141.563 41.1666C141.66 41.4191 141.663 41.6959 141.665 41.9654C141.665 42.0038 141.665 42.042 141.666 42.0799C141.663 43.5265 141.663 44.975 141.664 46.4236C141.665 48.1439 141.666 49.8642 141.66 51.5815C141.664 52.5945 140.707 53.4023 139.725 53.3929C138.394 53.3988 137.061 53.3964 135.729 53.3941C134.934 53.407 134.145 52.8958 133.867 52.1443C133.774 51.8987 133.771 51.6063 133.769 51.3374C133.768 51.2994 133.768 51.2619 133.768 51.2251C133.771 49.7785 133.77 48.3302 133.769 46.8819V46.8777C133.769 45.1591 133.768 43.4405 133.773 41.7247C133.759 40.748 134.671 39.9484 135.615 39.9214ZM136.47 42.4176L136.616 42.4162C137.401 42.4083 138.188 42.4004 138.973 42.4258C138.973 43.2151 138.972 44.0044 138.972 44.7937V44.7967C138.97 46.825 138.968 48.8533 138.978 50.8815C138.433 50.9075 137.887 50.9036 137.342 50.8997C137.051 50.8976 136.76 50.8955 136.47 50.898C136.463 48.0712 136.462 45.2444 136.47 42.4176Z" fill="white"/>
<path fill-rule="evenodd" clip-rule="evenodd" d="M84.4975 35.9832C84.6535 35.9738 84.8106 35.9668 84.9677 35.9632C104.143 35.964 123.319 35.9638 142.494 35.9635C152.082 35.9634 161.669 35.9632 171.257 35.9632C171.679 35.9574 172.099 35.9539 172.52 36.0031C172.517 39.1144 172.518 42.2262 172.519 45.3381C172.519 49.3383 172.52 53.3386 172.514 57.3382C172.117 57.3504 171.72 57.3497 171.323 57.349H171.322C171.183 57.3487 171.044 57.3485 170.906 57.3488C163.712 57.3488 156.518 57.3487 149.324 57.3486H149.324C127.718 57.3484 106.112 57.3482 84.5069 57.35C84.4766 56.967 84.4789 56.5853 84.4813 56.2029C84.4821 56.0679 84.4829 55.9329 84.4823 55.7976V37.2729C84.4788 36.8426 84.4788 36.4123 84.4975 35.9832ZM86.3066 37.7981C86.52 37.782 86.7365 37.7837 86.9521 37.7854C87.0337 37.7861 87.1152 37.7867 87.1964 37.7864H168.913C169.064 37.7867 169.215 37.7868 169.366 37.7868C169.819 37.7871 170.273 37.7873 170.726 37.7934C170.724 39.9426 170.726 42.0926 170.727 44.2428V44.248C170.73 48.0115 170.733 51.7756 170.716 55.5374C170.355 55.5301 169.994 55.5302 169.633 55.5303L169.499 55.5303C159.591 55.5299 149.683 55.5302 139.775 55.5306C121.949 55.5311 104.122 55.5317 86.296 55.528C86.2981 53.3694 86.2968 51.2012 86.2955 49.0309V49.0307C86.2932 45.2799 86.291 41.5227 86.3066 37.7981Z" fill="white"/>
</svg>
