<svg width="339" height="199" viewBox="0 0 339 199" fill="none" xmlns="http://www.w3.org/2000/svg">
<mask id="mask0_6324_71006" style="mask-type:alpha" maskUnits="userSpaceOnUse" x="0" y="0" width="339" height="199">
<rect y="0.375" width="339" height="198" fill="url(#paint0_linear_6324_71006)"/>
</mask>
<g mask="url(#mask0_6324_71006)">
<g filter="url(#filter0_ddd_6324_71006)">
<rect x="18.9434" y="17.375" width="269.206" height="220" rx="6" fill="white" fill-opacity="0.8" shape-rendering="crispEdges"/>
<path d="M36.1419 51.375C36.1419 50.7233 36.1419 50.0915 36.1419 49.4795C36.1419 48.8675 36.1419 48.1818 36.1419 47.4225V43.3085C36.1419 42.5265 36.1419 41.821 36.1419 41.192C36.1419 40.563 36.1419 39.917 36.1419 39.254C36.6179 39.254 37.1165 39.254 37.6379 39.254C38.1649 39.254 38.706 39.254 39.2614 39.254C39.8224 39.254 40.389 39.254 40.9614 39.254C41.885 39.254 42.7067 39.3872 43.4264 39.6535C44.146 39.9198 44.7524 40.3108 45.2454 40.8265C45.744 41.3422 46.1237 41.974 46.3844 42.722C46.645 43.4643 46.7754 44.3143 46.7754 45.272C46.7754 46.1277 46.6592 46.9267 46.4269 47.669C46.2002 48.4057 45.8347 49.0517 45.3304 49.607C44.8317 50.1623 44.1715 50.5958 43.3499 50.9075C42.5282 51.2192 41.5252 51.375 40.3409 51.375C39.7969 51.375 39.2869 51.375 38.8109 51.375C38.3349 51.375 37.8787 51.375 37.4424 51.375C37.006 51.375 36.5725 51.375 36.1419 51.375ZM38.9384 49.1395H40.3324C41.205 49.1395 41.8964 48.9695 42.4064 48.6295C42.922 48.2895 43.2932 47.8248 43.5199 47.2355C43.7465 46.6462 43.8599 45.9803 43.8599 45.238C43.8599 44.677 43.7919 44.167 43.6559 43.708C43.5255 43.249 43.3215 42.8552 43.0439 42.5265C42.7719 42.1922 42.4234 41.9372 41.9984 41.7615C41.5734 41.5802 41.0662 41.4895 40.4769 41.4895H38.9384C38.9384 41.8692 38.9384 42.2545 38.9384 42.6455C38.9384 43.0308 38.9384 43.47 38.9384 43.963V46.751C38.9384 47.2213 38.9384 47.6463 38.9384 48.026C38.9384 48.4057 38.9384 48.7768 38.9384 49.1395ZM48.4566 51.375C48.4566 50.7687 48.4566 50.1822 48.4566 49.6155C48.4566 49.0432 48.4566 48.4057 48.4566 47.703V46.853C48.4566 46.2013 48.4566 45.5468 48.4566 44.8895C48.4566 44.2322 48.4566 43.5663 48.4566 42.892L50.5901 42.7645L50.7006 44.3285H50.9131C51.1341 43.8695 51.3778 43.521 51.6441 43.283C51.9105 43.0393 52.1825 42.875 52.4601 42.79C52.7378 42.705 53.0041 42.6625 53.2591 42.6625C53.3895 42.6625 53.534 42.6738 53.6926 42.6965C53.857 42.7192 54.01 42.7588 54.1516 42.8155L53.9306 45.2805C53.7096 45.2635 53.5113 45.2493 53.3356 45.238C53.16 45.2267 52.973 45.221 52.7746 45.221C52.616 45.221 52.4516 45.238 52.2816 45.272C52.1173 45.306 51.9558 45.374 51.7971 45.476C51.6385 45.578 51.4911 45.7197 51.3551 45.901C51.2191 46.0823 51.1001 46.3175 50.9981 46.6065V47.839C50.9981 48.4737 50.9981 49.0715 50.9981 49.6325C50.9981 50.1878 50.9981 50.7687 50.9981 51.375H48.4566ZM57.294 51.579C56.8066 51.579 56.3816 51.477 56.019 51.273C55.6563 51.069 55.373 50.7828 55.169 50.4145C54.965 50.0405 54.863 49.5985 54.863 49.0885C54.863 48.6068 54.948 48.2045 55.118 47.8815C55.288 47.5528 55.5061 47.2865 55.7725 47.0825C56.0445 46.8785 56.3391 46.7227 56.6565 46.615C56.9795 46.5073 57.294 46.428 57.6 46.377L59.963 46.0115C59.9743 45.6828 59.912 45.4278 59.776 45.2465C59.64 45.0595 59.4416 44.9292 59.181 44.8555C58.926 44.7818 58.62 44.745 58.263 44.745C58.0703 44.745 57.8606 44.762 57.634 44.796C57.4073 44.8243 57.1693 44.8697 56.92 44.932C56.6763 44.9943 56.4213 45.0708 56.155 45.1615C55.8943 45.2522 55.6308 45.3627 55.3645 45.493L55.2455 43.3255C55.4551 43.2518 55.696 43.1753 55.968 43.096C56.24 43.0167 56.5346 42.9458 56.852 42.8835C57.1693 42.8155 57.5036 42.7617 57.855 42.722C58.212 42.6823 58.5775 42.6625 58.9515 42.6625C59.6598 42.6625 60.2633 42.7673 60.762 42.977C61.2663 43.181 61.6516 43.504 61.918 43.946C62.1843 44.388 62.3175 44.966 62.3175 45.68C62.3175 45.9577 62.3175 46.2977 62.3175 46.7C62.3175 47.1023 62.3175 47.4622 62.3175 47.7795V48.587C62.3175 49.0177 62.3175 49.4625 62.3175 49.9215C62.3175 50.3748 62.3175 50.8593 62.3175 51.375H60.15L59.9885 50.2445H59.793C59.64 50.4598 59.4473 50.6723 59.215 50.882C58.9826 51.086 58.705 51.2532 58.382 51.3835C58.0646 51.5138 57.702 51.579 57.294 51.579ZM58.3055 49.6155C58.5038 49.6155 58.7021 49.5702 58.9005 49.4795C59.0988 49.3832 59.283 49.25 59.453 49.08C59.623 48.9043 59.7703 48.6975 59.895 48.4595V47.159C59.827 47.21 59.7391 47.2582 59.6315 47.3035C59.5295 47.3432 59.3765 47.3885 59.1725 47.4395C58.9741 47.4848 58.6965 47.5443 58.3395 47.618C58.1355 47.6577 57.9598 47.7257 57.8125 47.822C57.6651 47.9183 57.549 48.043 57.464 48.196C57.3846 48.3433 57.345 48.519 57.345 48.723C57.345 49.046 57.4413 49.2755 57.634 49.4115C57.8323 49.5475 58.0561 49.6155 58.3055 49.6155ZM65.8815 51.375C65.7172 50.8423 65.55 50.3097 65.38 49.777C65.2157 49.2387 65.0485 48.6947 64.8785 48.145L64.411 46.6405C64.2127 46.0115 64.0172 45.3882 63.8245 44.7705C63.6375 44.1528 63.4448 43.5267 63.2465 42.892L65.9495 42.8155C66.0855 43.4048 66.23 44.0225 66.383 44.6685C66.5417 45.3088 66.6918 45.9265 66.8335 46.5215L67.369 48.7485H67.556L68.0745 46.4875C68.2105 45.8812 68.3465 45.2833 68.4825 44.694C68.6185 44.1047 68.7545 43.504 68.8905 42.892H71.2535C71.3895 43.47 71.5255 44.065 71.6615 44.677C71.8032 45.2833 71.942 45.8812 72.078 46.4705L72.605 48.7485H72.8005L73.3275 46.428C73.4578 45.8557 73.5938 45.255 73.7355 44.626C73.8828 43.997 74.016 43.419 74.135 42.892H76.872C76.6737 43.521 76.4753 44.1472 76.277 44.7705C76.0843 45.3938 75.8888 46.0172 75.6905 46.6405L75.223 48.128C75.0473 48.6777 74.8745 49.2245 74.7045 49.7685C74.5345 50.3125 74.3645 50.848 74.1945 51.375H71.3555C71.2252 50.865 71.0892 50.3352 70.9475 49.7855C70.8058 49.2358 70.6698 48.7117 70.5395 48.213L70.0465 46.292H69.8595L69.375 48.247C69.256 48.74 69.1285 49.2585 68.9925 49.8025C68.8565 50.3408 68.7262 50.865 68.6015 51.375H65.8815ZM81.4107 51.375C81.4107 50.7687 81.4107 50.1822 81.4107 49.6155C81.4107 49.0432 81.4107 48.4057 81.4107 47.703V46.853C81.4107 46.2013 81.4107 45.5468 81.4107 44.8895C81.4107 44.2322 81.4107 43.5663 81.4107 42.892L83.5442 42.7645L83.6547 44.3285H83.8672C84.0882 43.8695 84.3319 43.521 84.5982 43.283C84.8646 43.0393 85.1366 42.875 85.4142 42.79C85.6919 42.705 85.9582 42.6625 86.2132 42.6625C86.3436 42.6625 86.4881 42.6738 86.6467 42.6965C86.8111 42.7192 86.9641 42.7588 87.1057 42.8155L86.8847 45.2805C86.6637 45.2635 86.4654 45.2493 86.2897 45.238C86.1141 45.2267 85.9271 45.221 85.7287 45.221C85.5701 45.221 85.4057 45.238 85.2357 45.272C85.0714 45.306 84.9099 45.374 84.7512 45.476C84.5926 45.578 84.4452 45.7197 84.3092 45.901C84.1732 46.0823 84.0542 46.3175 83.9522 46.6065V47.839C83.9522 48.4737 83.9522 49.0715 83.9522 49.6325C83.9522 50.1878 83.9522 50.7687 83.9522 51.375H81.4107ZM92.4342 51.596C91.3405 51.596 90.4452 51.4033 89.7482 51.018C89.0568 50.6327 88.5468 50.1028 88.2182 49.4285C87.8952 48.7542 87.7337 47.9807 87.7337 47.108C87.7337 46.2353 87.8867 45.4647 88.1927 44.796C88.4987 44.1273 88.9548 43.606 89.5612 43.232C90.1732 42.8523 90.9325 42.6625 91.8392 42.6625C92.6098 42.6625 93.27 42.8013 93.8197 43.079C94.3693 43.351 94.7915 43.7647 95.0862 44.32C95.3808 44.8753 95.5282 45.5752 95.5282 46.4195C95.5282 46.6462 95.5225 46.8473 95.5112 47.023C95.4998 47.1987 95.48 47.3743 95.4517 47.55L93.2757 46.7255C93.287 46.6518 93.2955 46.5753 93.3012 46.496C93.3068 46.4167 93.3097 46.343 93.3097 46.275C93.3097 45.7027 93.1737 45.255 92.9017 44.932C92.6353 44.6033 92.2897 44.439 91.8647 44.439C91.5417 44.439 91.2555 44.5353 91.0062 44.728C90.7568 44.915 90.5613 45.1785 90.4197 45.5185C90.278 45.8585 90.2072 46.2637 90.2072 46.734V47.1505C90.2072 47.6435 90.295 48.0657 90.4707 48.417C90.652 48.7683 90.9297 49.0375 91.3037 49.2245C91.6777 49.4115 92.1565 49.505 92.7402 49.505C92.9668 49.505 93.2275 49.4852 93.5222 49.4455C93.8225 49.4002 94.1257 49.335 94.4317 49.25C94.7433 49.1593 95.0323 49.046 95.2987 48.91L95.3837 51.052C95.1627 51.154 94.9048 51.2475 94.6102 51.3325C94.3212 51.4118 93.9925 51.4742 93.6242 51.5195C93.2558 51.5705 92.8592 51.596 92.4342 51.596ZM88.7112 47.55V46.19L93.9727 46.0795L95.4517 46.496V47.55H88.7112ZM102.572 54.7155C102.572 54.1092 102.572 53.5142 102.572 52.9305C102.572 52.3468 102.572 51.7377 102.572 51.103V50.4485H102.419C102.232 50.6865 102.026 50.8933 101.799 51.069C101.572 51.239 101.317 51.3693 101.034 51.46C100.756 51.5563 100.447 51.6045 100.107 51.6045C99.3311 51.6045 98.6907 51.3948 98.1864 50.9755C97.6821 50.5562 97.3081 50.0065 97.0644 49.3265C96.8207 48.6465 96.6989 47.9127 96.6989 47.125C96.6989 46.2807 96.8264 45.5213 97.0814 44.847C97.3421 44.1727 97.7274 43.64 98.2374 43.249C98.7474 42.858 99.3792 42.6625 100.133 42.6625C100.501 42.6625 100.838 42.7135 101.144 42.8155C101.45 42.9118 101.722 43.0563 101.96 43.249C102.198 43.436 102.402 43.6627 102.572 43.929H102.785L102.853 42.892L105.105 42.7645C105.105 43.4672 105.105 44.15 105.105 44.813C105.105 45.476 105.105 46.156 105.105 46.853V50.967C105.105 51.6697 105.105 52.3043 105.105 52.871C105.105 53.4433 105.105 54.0327 105.105 54.639L102.572 54.7155ZM101.068 49.4455C101.3 49.4455 101.51 49.4058 101.697 49.3265C101.89 49.2472 102.057 49.1367 102.198 48.995C102.346 48.8533 102.47 48.6862 102.572 48.4935V45.6035C102.459 45.4448 102.323 45.3088 102.164 45.1955C102.011 45.0822 101.841 44.9972 101.654 44.9405C101.467 44.8782 101.275 44.847 101.076 44.847C100.68 44.847 100.348 44.9518 100.082 45.1615C99.8212 45.3712 99.6229 45.6517 99.4869 46.003C99.3566 46.3487 99.2914 46.7283 99.2914 47.142C99.2914 47.5387 99.3537 47.9127 99.4784 48.264C99.6087 48.6097 99.8042 48.893 100.065 49.114C100.331 49.335 100.666 49.4455 101.068 49.4455ZM109.574 51.6045C108.724 51.6045 108.081 51.3523 107.645 50.848C107.208 50.3437 106.99 49.5928 106.99 48.5955C106.99 48.2158 106.99 47.8872 106.99 47.6095C106.99 47.3318 106.99 47.0457 106.99 46.751C106.99 46.19 106.99 45.697 106.99 45.272C106.99 44.8413 106.99 44.439 106.99 44.065C106.99 43.6853 106.99 43.2943 106.99 42.892L109.532 42.8155C109.532 43.4218 109.532 44.0197 109.532 44.609C109.532 45.1927 109.532 45.799 109.532 46.428V47.839C109.532 48.332 109.614 48.706 109.778 48.961C109.942 49.2103 110.237 49.335 110.662 49.335C110.894 49.335 111.11 49.2868 111.308 49.1905C111.512 49.0885 111.696 48.9553 111.861 48.791C112.025 48.621 112.175 48.434 112.311 48.23V46.428C112.311 45.799 112.311 45.204 112.311 44.643C112.311 44.0763 112.311 43.4927 112.311 42.892H114.853C114.853 43.4927 114.853 44.0877 114.853 44.677C114.853 45.2663 114.853 45.9577 114.853 46.751V47.703C114.853 48.4057 114.853 49.0432 114.853 49.6155C114.853 50.1822 114.853 50.7687 114.853 51.375H112.719L112.609 50.0235H112.388C112.201 50.2955 111.971 50.5533 111.699 50.797C111.433 51.035 111.121 51.2277 110.764 51.375C110.413 51.528 110.016 51.6045 109.574 51.6045ZM121.088 51.596C119.995 51.596 119.099 51.4033 118.402 51.018C117.711 50.6327 117.201 50.1028 116.872 49.4285C116.549 48.7542 116.388 47.9807 116.388 47.108C116.388 46.2353 116.541 45.4647 116.847 44.796C117.153 44.1273 117.609 43.606 118.215 43.232C118.827 42.8523 119.587 42.6625 120.493 42.6625C121.264 42.6625 121.924 42.8013 122.474 43.079C123.024 43.351 123.446 43.7647 123.74 44.32C124.035 44.8753 124.182 45.5752 124.182 46.4195C124.182 46.6462 124.177 46.8473 124.165 47.023C124.154 47.1987 124.134 47.3743 124.106 47.55L121.93 46.7255C121.941 46.6518 121.95 46.5753 121.955 46.496C121.961 46.4167 121.964 46.343 121.964 46.275C121.964 45.7027 121.828 45.255 121.556 44.932C121.29 44.6033 120.944 44.439 120.519 44.439C120.196 44.439 119.91 44.5353 119.66 44.728C119.411 44.915 119.216 45.1785 119.074 45.5185C118.932 45.8585 118.861 46.2637 118.861 46.734V47.1505C118.861 47.6435 118.949 48.0657 119.125 48.417C119.306 48.7683 119.584 49.0375 119.958 49.2245C120.332 49.4115 120.811 49.505 121.394 49.505C121.621 49.505 121.882 49.4852 122.176 49.4455C122.477 49.4002 122.78 49.335 123.086 49.25C123.398 49.1593 123.687 49.046 123.953 48.91L124.038 51.052C123.817 51.154 123.559 51.2475 123.264 51.3325C122.975 51.4118 122.647 51.4742 122.278 51.5195C121.91 51.5705 121.513 51.596 121.088 51.596ZM117.365 47.55V46.19L122.627 46.0795L124.106 46.496V47.55H117.365ZM128.558 51.596C128.138 51.596 127.739 51.5705 127.359 51.5195C126.98 51.4742 126.631 51.409 126.314 51.324C125.996 51.2333 125.719 51.1313 125.481 51.018L125.642 48.8675C125.892 49.0205 126.169 49.1565 126.475 49.2755C126.787 49.3888 127.104 49.4767 127.427 49.539C127.756 49.6013 128.076 49.6325 128.388 49.6325C128.614 49.6325 128.818 49.6127 129 49.573C129.181 49.5277 129.323 49.4512 129.425 49.3435C129.527 49.2302 129.578 49.063 129.578 48.842C129.578 48.6833 129.521 48.553 129.408 48.451C129.3 48.349 129.116 48.2555 128.855 48.1705C128.6 48.0798 128.249 47.9778 127.801 47.8645C127.297 47.7342 126.872 47.5698 126.526 47.3715C126.181 47.1675 125.92 46.9068 125.744 46.5895C125.569 46.2722 125.481 45.867 125.481 45.374C125.481 44.5183 125.758 43.8553 126.314 43.385C126.875 42.909 127.637 42.671 128.6 42.671C129.02 42.671 129.422 42.6993 129.807 42.756C130.193 42.8127 130.541 42.8892 130.853 42.9855C131.17 43.0762 131.436 43.1697 131.652 43.266L131.482 45.4335C131.221 45.2692 130.938 45.1332 130.632 45.0255C130.326 44.9122 130.031 44.8272 129.748 44.7705C129.47 44.7138 129.241 44.6855 129.059 44.6855C128.878 44.6855 128.711 44.711 128.558 44.762C128.41 44.8073 128.294 44.8838 128.209 44.9915C128.124 45.0992 128.082 45.2408 128.082 45.4165C128.082 45.5638 128.119 45.6942 128.192 45.8075C128.266 45.9152 128.405 46.0172 128.609 46.1135C128.813 46.2042 129.11 46.3033 129.501 46.411C130.113 46.5753 130.615 46.7538 131.006 46.9465C131.397 47.1335 131.686 47.3743 131.873 47.669C132.065 47.9637 132.162 48.3547 132.162 48.842C132.162 49.386 132.037 49.8677 131.788 50.287C131.544 50.7007 131.156 51.0237 130.623 51.256C130.096 51.4827 129.408 51.596 128.558 51.596ZM137.236 51.6045C136.607 51.6045 136.068 51.511 135.621 51.324C135.179 51.1313 134.839 50.8253 134.601 50.406C134.368 49.9867 134.252 49.4342 134.252 48.7485C134.252 48.3802 134.252 48.0033 134.252 47.618C134.252 47.227 134.252 46.819 134.252 46.394C134.252 45.969 134.252 45.5213 134.252 45.051C134.252 44.5807 134.252 44.0735 134.252 43.5295C134.252 42.8892 134.252 42.3027 134.252 41.77C134.252 41.2373 134.252 40.6933 134.252 40.138L136.751 39.6875C136.751 40.1295 136.751 40.5488 136.751 40.9455C136.751 41.3365 136.751 41.7417 136.751 42.161C136.751 42.5747 136.751 43.0308 136.751 43.5295V47.9495C136.751 48.4652 136.845 48.859 137.032 49.131C137.224 49.3973 137.536 49.5305 137.967 49.5305C138.148 49.5305 138.346 49.4993 138.562 49.437C138.777 49.369 138.984 49.2642 139.182 49.1225L139.327 51.1795C139.179 51.2702 138.992 51.3467 138.766 51.409C138.539 51.4713 138.292 51.5195 138.026 51.5535C137.76 51.5875 137.496 51.6045 137.236 51.6045ZM132.875 44.8045V42.892H139.284V44.8045C138.751 44.8045 138.216 44.8045 137.678 44.8045C137.145 44.8045 136.629 44.8045 136.131 44.8045H135H132.875Z" fill="#193A43"/>
<rect x="34.9434" y="57" width="214" height="5.06596" rx="2.53298" fill="#F0F3F4"/>
<rect x="34.9434" y="67.967" width="165.162" height="5.06596" rx="2.53298" fill="#F0F3F4"/>
<rect x="34.9434" y="78.9341" width="190.025" height="5.06596" rx="2.53298" fill="#F0F3F4"/>
<rect x="34.9434" y="78.9341" width="190.025" height="5.06596" rx="2.53298" fill="#F0F3F4"/>
<rect x="34.9434" y="100.677" width="190.025" height="5.06596" rx="2.53298" fill="#F0F3F4"/>
<rect x="34.9434" y="116.044" width="190.025" height="5.06596" rx="2.53298" fill="#F0F3F4"/>
</g>
<g opacity="0.74" filter="url(#filter1_ddd_6324_71006)">
<rect x="143.855" y="69.375" width="168.706" height="89" rx="7.76471" fill="#1A1A1A" shape-rendering="crispEdges"/>
<g opacity="0.8" clip-path="url(#clip0_6324_71006)">
<path d="M160.057 83.9336V85.8086C160.057 86.3211 160.469 86.7461 160.994 86.7461C161.507 86.7461 161.932 86.3211 161.932 85.8086V83.9336C161.932 83.4086 161.507 82.9961 160.994 82.9961C160.469 82.9961 160.057 83.4086 160.057 83.9336Z" fill="white"/>
<path d="M171.307 83.9336V85.8086C171.307 86.3211 171.719 86.7461 172.244 86.7461C172.757 86.7461 173.182 86.3211 173.182 85.8086V83.9336C173.182 83.4086 172.757 82.9961 172.244 82.9961C171.719 82.9961 171.307 83.4086 171.307 83.9336Z" fill="white"/>
<path d="M165.369 90.5173H165.994C167.194 90.5173 168.182 89.5298 168.182 88.3298V83.9548C168.182 83.4298 167.757 83.0173 167.244 83.0173C166.719 83.0173 166.307 83.4298 166.307 83.9548V88.3298C166.307 88.4923 166.157 88.6423 165.994 88.6423H165.369C164.844 88.6423 164.432 89.0548 164.432 89.5798C164.432 90.0923 164.844 90.5173 165.369 90.5173Z" fill="white"/>
<path d="M170.006 92.1084C168.131 93.9709 165.093 93.9709 163.218 92.1084C162.843 91.7334 162.256 91.7334 161.881 92.1084C161.506 92.4709 161.506 93.0584 161.881 93.4334C164.481 96.0334 168.706 96.0334 171.306 93.4334C171.668 93.0584 171.668 92.4709 171.306 92.0959C170.931 91.7209 170.343 91.7209 169.968 92.0946L170.006 92.1084Z" fill="white"/>
<path d="M161.095 75.396H157.857C155.957 75.396 154.42 76.9335 154.42 78.8335V82.0585C154.42 82.571 154.832 82.996 155.357 82.996C155.87 82.996 156.295 82.571 156.295 82.0585V78.821C156.295 77.946 156.982 77.2585 157.857 77.2585H161.082C161.595 77.2585 162.02 76.8335 162.02 76.321C162.02 75.796 161.595 75.3835 161.082 75.3835L161.095 75.396Z" fill="white"/>
<path d="M172.134 99.7709H175.359C177.247 99.7709 178.797 98.2209 178.797 96.3334V93.0959C178.797 92.5709 178.372 92.1584 177.859 92.1584C177.334 92.1584 176.922 92.5709 176.922 93.0959V96.3209C176.922 97.1834 176.222 97.8834 175.359 97.8834H172.119C171.594 97.8834 171.182 98.2959 171.182 98.8209C171.182 99.3334 171.594 99.7584 172.119 99.7584L172.134 99.7709Z" fill="white"/>
<path d="M154.432 93.0985V96.3235C154.432 98.211 155.97 99.761 157.87 99.761H161.095C161.607 99.761 162.032 99.336 162.032 98.8235C162.032 98.2985 161.607 97.886 161.095 97.886H157.857C156.982 97.886 156.295 97.186 156.295 96.3235V93.0835C156.295 92.5585 155.87 92.146 155.357 92.146C154.832 92.146 154.42 92.5585 154.42 93.0835L154.432 93.0985Z" fill="white"/>
<path d="M178.808 82.0585V78.821C178.808 76.921 177.258 75.3835 175.37 75.3835H172.133C171.608 75.3835 171.195 75.796 171.195 76.321C171.195 76.8335 171.608 77.2585 172.133 77.2585H175.358C176.22 77.2585 176.92 77.946 176.92 78.821V82.046C176.92 82.5585 177.333 82.9835 177.858 82.9835C178.37 82.9835 178.795 82.5585 178.795 82.046L178.808 82.0585Z" fill="white"/>
</g>
<path d="M197.808 88.9504C197.808 89.1678 197.842 89.3266 197.911 89.4267C197.98 89.5233 198.089 89.5958 198.237 89.6441L198.004 90.3274C197.756 90.2963 197.54 90.2221 197.357 90.1048C197.174 89.9874 197.038 89.808 196.948 89.5664C196.752 89.8183 196.503 90.0099 196.203 90.141C195.903 90.2687 195.577 90.3325 195.225 90.3325C194.676 90.3325 194.243 90.1772 193.925 89.8667C193.608 89.5561 193.449 89.1471 193.449 88.6398C193.449 88.0704 193.67 87.6339 194.112 87.3302C194.557 87.0265 195.195 86.8747 196.027 86.8747H196.819V86.4605C196.819 86.0844 196.707 85.8169 196.483 85.6582C196.262 85.4994 195.953 85.4201 195.556 85.4201C195.376 85.4201 195.163 85.4425 194.914 85.4874C194.666 85.5322 194.402 85.603 194.122 85.6996L193.868 84.9749C194.207 84.8472 194.529 84.7558 194.836 84.7005C195.147 84.6453 195.437 84.6177 195.706 84.6177C196.41 84.6177 196.936 84.7782 197.285 85.0991C197.633 85.4166 197.808 85.8532 197.808 86.4088V88.9504ZM195.504 89.5871C195.76 89.5871 196.005 89.5216 196.239 89.3904C196.474 89.2593 196.667 89.0764 196.819 88.8417V87.5217H196.094C195.518 87.5217 195.109 87.6201 194.867 87.8168C194.626 88.01 194.505 88.2758 194.505 88.6139C194.505 88.9314 194.588 89.173 194.754 89.3387C194.919 89.5043 195.169 89.5871 195.504 89.5871ZM200.987 84.7471V88.5881C200.987 88.9332 201.058 89.1816 201.199 89.3335C201.341 89.4819 201.557 89.5561 201.846 89.5561C202.126 89.5561 202.392 89.475 202.644 89.3128C202.896 89.1506 203.092 88.9573 203.234 88.733V84.7471H204.228V90.2031H203.374L203.301 89.4836C203.094 89.7562 202.833 89.9667 202.519 90.1151C202.205 90.2601 201.888 90.3325 201.567 90.3325C201.039 90.3325 200.644 90.1893 200.382 89.9029C200.123 89.6165 199.993 89.2196 199.993 88.7123V84.7471H200.987ZM210.632 89.9236C210.439 90.0478 210.206 90.1462 209.933 90.2187C209.661 90.2946 209.388 90.3325 209.115 90.3325C208.508 90.3325 208.042 90.1738 207.718 89.8563C207.397 89.5388 207.236 89.1264 207.236 88.6191V85.4925H205.999V84.7471H207.236V83.5151L208.23 83.3961V84.7471H210.094L209.98 85.4925H208.23V88.6088C208.23 88.909 208.306 89.135 208.458 89.2869C208.613 89.4387 208.87 89.5147 209.229 89.5147C209.433 89.5147 209.619 89.4905 209.788 89.4422C209.957 89.3939 210.114 89.3318 210.259 89.2558L210.632 89.9236ZM213.403 82.4539V85.4563C213.62 85.1768 213.881 84.968 214.184 84.8299C214.491 84.6885 214.804 84.6177 215.121 84.6177C215.646 84.6177 216.032 84.7609 216.281 85.0474C216.529 85.3303 216.653 85.7255 216.653 86.2328V90.2031H215.66V86.3208C215.66 85.9929 215.589 85.7565 215.447 85.6116C215.309 85.4632 215.088 85.389 214.785 85.389C214.591 85.389 214.407 85.4321 214.231 85.5184C214.058 85.6047 213.901 85.7151 213.76 85.8497C213.618 85.9809 213.499 86.1172 213.403 86.2587V90.2031H212.409V82.5627L213.403 82.4539ZM219.419 87.8116C219.44 88.2119 219.521 88.5398 219.662 88.7951C219.804 89.047 219.988 89.2334 220.216 89.3542C220.444 89.4715 220.696 89.5302 220.972 89.5302C221.244 89.5302 221.495 89.4888 221.722 89.4059C221.95 89.3231 222.181 89.2023 222.416 89.0436L222.866 89.6699C222.611 89.8736 222.316 90.0358 221.981 90.1565C221.646 90.2739 221.3 90.3325 220.941 90.3325C220.395 90.3325 219.931 90.2135 219.548 89.9754C219.169 89.7338 218.879 89.399 218.679 88.9711C218.482 88.5432 218.384 88.0463 218.384 87.4803C218.384 86.9316 218.482 86.4416 218.679 86.0102C218.879 85.5788 219.16 85.2389 219.522 84.9904C219.885 84.7419 220.316 84.6177 220.816 84.6177C221.286 84.6177 221.69 84.7264 222.028 84.9438C222.369 85.1612 222.632 85.4718 222.815 85.8756C222.997 86.2759 223.089 86.7556 223.089 87.3147C223.089 87.4078 223.087 87.4976 223.084 87.5838C223.08 87.6701 223.075 87.746 223.068 87.8116H219.419ZM220.827 85.3942C220.44 85.3942 220.118 85.5322 219.859 85.8083C219.603 86.0844 219.457 86.5106 219.419 87.0869H222.131C222.121 86.5347 222 86.1154 221.769 85.829C221.541 85.5391 221.227 85.3942 220.827 85.3942ZM224.824 90.2031V84.7471H225.678L225.751 85.4822C225.975 85.2027 226.248 84.9887 226.569 84.8403C226.893 84.6919 227.216 84.6177 227.537 84.6177C228.061 84.6177 228.448 84.7609 228.696 85.0474C228.945 85.3303 229.069 85.7255 229.069 86.2328V90.2031H228.075V86.8436C228.075 86.4985 228.054 86.219 228.013 86.005C227.975 85.7876 227.894 85.6306 227.77 85.5339C227.645 85.4373 227.457 85.389 227.205 85.389C227.009 85.389 226.822 85.4321 226.646 85.5184C226.47 85.6047 226.312 85.7134 226.17 85.8445C226.032 85.9757 225.915 86.112 225.818 86.2535V90.2031H224.824ZM235.463 89.9236C235.27 90.0478 235.037 90.1462 234.764 90.2187C234.492 90.2946 234.219 90.3325 233.946 90.3325C233.339 90.3325 232.873 90.1738 232.549 89.8563C232.228 89.5388 232.067 89.1264 232.067 88.6191V85.4925H230.83V84.7471H232.067V83.5151L233.061 83.3961V84.7471H234.925L234.811 85.4925H233.061V88.6088C233.061 88.909 233.137 89.135 233.289 89.2869C233.444 89.4387 233.701 89.5147 234.06 89.5147C234.264 89.5147 234.45 89.4905 234.619 89.4422C234.788 89.3939 234.945 89.3318 235.09 89.2558L235.463 89.9236ZM240.097 84.7471V89.4474H241.614V90.2031H237.442V89.4474H239.103V85.5029H237.493V84.7471H240.097ZM239.357 82.1382C239.564 82.1382 239.73 82.202 239.854 82.3297C239.981 82.4574 240.045 82.6127 240.045 82.7956C240.045 82.9854 239.981 83.1459 239.854 83.277C239.73 83.4047 239.564 83.4685 239.357 83.4685C239.153 83.4685 238.988 83.4047 238.86 83.277C238.736 83.1459 238.674 82.9854 238.674 82.7956C238.674 82.6127 238.736 82.4574 238.86 82.3297C238.988 82.202 239.153 82.1382 239.357 82.1382ZM245.984 89.4939C246.25 89.4939 246.496 89.4491 246.724 89.3594C246.955 89.2696 247.171 89.1558 247.371 89.0177L247.847 89.6648C247.609 89.8684 247.321 90.0306 246.983 90.1514C246.645 90.2721 246.306 90.3325 245.968 90.3325C245.42 90.3325 244.95 90.2152 244.56 89.9805C244.174 89.7459 243.879 89.4163 243.675 88.9918C243.471 88.5674 243.37 88.0704 243.37 87.501C243.37 86.9489 243.471 86.4554 243.675 86.0205C243.882 85.5857 244.181 85.2441 244.571 84.9956C244.961 84.7437 245.432 84.6177 245.984 84.6177C246.343 84.6177 246.676 84.6729 246.983 84.7834C247.293 84.8903 247.578 85.0491 247.837 85.2596L247.366 85.9067C247.142 85.7514 246.916 85.634 246.688 85.5547C246.46 85.4718 246.227 85.4304 245.989 85.4304C245.533 85.4304 245.161 85.5995 244.871 85.9377C244.581 86.2759 244.436 86.797 244.436 87.501C244.436 87.9703 244.502 88.3517 244.633 88.645C244.767 88.9383 244.952 89.154 245.187 89.2921C245.421 89.4267 245.687 89.4939 245.984 89.4939ZM253.677 88.9504C253.677 89.1678 253.712 89.3266 253.781 89.4267C253.85 89.5233 253.958 89.5958 254.107 89.6441L253.874 90.3274C253.625 90.2963 253.41 90.2221 253.227 90.1048C253.044 89.9874 252.908 89.808 252.818 89.5664C252.621 89.8183 252.373 90.0099 252.072 90.141C251.772 90.2687 251.446 90.3325 251.094 90.3325C250.545 90.3325 250.112 90.1772 249.795 89.8667C249.477 89.5561 249.319 89.1471 249.319 88.6398C249.319 88.0704 249.539 87.6339 249.981 87.3302C250.426 87.0265 251.065 86.8747 251.896 86.8747H252.688V86.4605C252.688 86.0844 252.576 85.8169 252.352 85.6582C252.131 85.4994 251.822 85.4201 251.425 85.4201C251.246 85.4201 251.032 85.4425 250.784 85.4874C250.535 85.5322 250.271 85.603 249.992 85.6996L249.738 84.9749C250.076 84.8472 250.399 84.7558 250.706 84.7005C251.016 84.6453 251.306 84.6177 251.576 84.6177C252.28 84.6177 252.806 84.7782 253.154 85.0991C253.503 85.4166 253.677 85.8532 253.677 86.4088V88.9504ZM251.374 89.5871C251.629 89.5871 251.874 89.5216 252.109 89.3904C252.343 89.2593 252.537 89.0764 252.688 88.8417V87.5217H251.964C251.387 87.5217 250.979 87.6201 250.737 87.8168C250.495 88.01 250.375 88.2758 250.375 88.6139C250.375 88.9314 250.457 89.173 250.623 89.3387C250.789 89.5043 251.039 89.5871 251.374 89.5871ZM260.294 89.9236C260.101 90.0478 259.868 90.1462 259.595 90.2187C259.322 90.2946 259.05 90.3325 258.777 90.3325C258.17 90.3325 257.704 90.1738 257.379 89.8563C257.059 89.5388 256.898 89.1264 256.898 88.6191V85.4925H255.661V84.7471H256.898V83.5151L257.892 83.3961V84.7471H259.755L259.642 85.4925H257.892V88.6088C257.892 88.909 257.968 89.135 258.12 89.2869C258.275 89.4387 258.532 89.5147 258.891 89.5147C259.095 89.5147 259.281 89.4905 259.45 89.4422C259.619 89.3939 259.776 89.3318 259.921 89.2558L260.294 89.9236ZM264.928 84.7471V89.4474H266.445V90.2031H262.272V89.4474H263.934V85.5029H262.324V84.7471H264.928ZM264.188 82.1382C264.395 82.1382 264.56 82.202 264.685 82.3297C264.812 82.4574 264.876 82.6127 264.876 82.7956C264.876 82.9854 264.812 83.1459 264.685 83.277C264.56 83.4047 264.395 83.4685 264.188 83.4685C263.984 83.4685 263.818 83.4047 263.691 83.277C263.567 83.1459 263.504 82.9854 263.504 82.7956C263.504 82.6127 263.567 82.4574 263.691 82.3297C263.818 82.202 263.984 82.1382 264.188 82.1382ZM270.406 84.6177C270.927 84.6177 271.363 84.735 271.715 84.9697C272.071 85.2044 272.338 85.5357 272.518 85.9636C272.701 86.3881 272.792 86.8902 272.792 87.4699C272.792 88.0325 272.699 88.5294 272.513 88.9608C272.33 89.3887 272.061 89.7252 271.705 89.9702C271.35 90.2118 270.913 90.3325 270.395 90.3325C269.878 90.3325 269.439 90.2152 269.081 89.9805C268.725 89.7459 268.456 89.4146 268.273 88.9867C268.09 88.5587 267.999 88.0566 267.999 87.4803C267.999 86.9143 268.09 86.4174 268.273 85.9895C268.459 85.5581 268.732 85.2216 269.091 84.9801C269.45 84.7385 269.888 84.6177 270.406 84.6177ZM270.406 85.4097C269.957 85.4097 269.619 85.5788 269.391 85.917C269.163 86.2518 269.05 86.7729 269.05 87.4803C269.05 88.1809 269.162 88.7002 269.386 89.0384C269.61 89.3732 269.947 89.5405 270.395 89.5405C270.844 89.5405 271.181 89.3732 271.405 89.0384C271.629 88.7002 271.741 88.1774 271.741 87.4699C271.741 86.7659 271.629 86.2466 271.405 85.9118C271.184 85.5771 270.851 85.4097 270.406 85.4097ZM274.486 90.2031V84.7471H275.34L275.413 85.4822C275.637 85.2027 275.909 84.9887 276.23 84.8403C276.555 84.6919 276.877 84.6177 277.198 84.6177C277.723 84.6177 278.109 84.7609 278.358 85.0474C278.606 85.3303 278.731 85.7255 278.731 86.2328V90.2031H277.737V86.8436C277.737 86.4985 277.716 86.219 277.675 86.005C277.637 85.7876 277.556 85.6306 277.431 85.5339C277.307 85.4373 277.119 85.389 276.867 85.389C276.67 85.389 276.484 85.4321 276.308 85.5184C276.132 85.6047 275.973 85.7134 275.832 85.8445C275.694 85.9757 275.576 86.112 275.48 86.2535V90.2031H274.486ZM281.926 89.4474C281.926 89.2127 282.01 89.0091 282.179 88.8365C282.348 88.664 282.555 88.5777 282.8 88.5777C283.052 88.5777 283.263 88.664 283.432 88.8365C283.601 89.0091 283.686 89.2127 283.686 89.4474C283.686 89.6924 283.601 89.9012 283.432 90.0737C283.263 90.2463 283.052 90.3325 282.8 90.3325C282.555 90.3325 282.348 90.2463 282.179 90.0737C282.01 89.9012 281.926 89.6924 281.926 89.4474ZM281.926 85.741C281.926 85.5754 281.964 85.427 282.04 85.2958C282.119 85.1647 282.224 85.0612 282.355 84.9852C282.49 84.9059 282.638 84.8662 282.8 84.8662C283.052 84.8662 283.263 84.9525 283.432 85.125C283.601 85.2941 283.686 85.4994 283.686 85.741C283.686 85.9791 283.601 86.1862 283.432 86.3622C283.263 86.5347 283.052 86.621 282.8 86.621C282.555 86.621 282.348 86.5347 282.179 86.3622C282.01 86.1862 281.926 85.9791 281.926 85.741ZM226.931 102.438C227.186 102.438 227.397 102.522 227.563 102.692C227.732 102.861 227.816 103.066 227.816 103.308C227.816 103.442 227.797 103.58 227.759 103.722C227.721 103.863 227.659 104.029 227.573 104.219L226.755 106.098H225.922L226.419 104.032C226.177 103.863 226.056 103.622 226.056 103.308C226.056 103.066 226.141 102.861 226.31 102.692C226.479 102.522 226.686 102.438 226.931 102.438ZM226.931 98.8662C227.183 98.8662 227.393 98.9525 227.563 99.125C227.732 99.2941 227.816 99.4994 227.816 99.741C227.816 99.9791 227.732 100.186 227.563 100.362C227.393 100.535 227.183 100.621 226.931 100.621C226.686 100.621 226.479 100.535 226.31 100.362C226.141 100.186 226.056 99.9791 226.056 99.741C226.056 99.5754 226.094 99.427 226.17 99.2958C226.249 99.1647 226.355 99.0612 226.486 98.9852C226.62 98.9059 226.769 98.8662 226.931 98.8662ZM197.808 116.95C197.808 117.168 197.842 117.327 197.911 117.427C197.98 117.523 198.089 117.596 198.237 117.644L198.004 118.327C197.756 118.296 197.54 118.222 197.357 118.105C197.174 117.987 197.038 117.808 196.948 117.566C196.752 117.818 196.503 118.01 196.203 118.141C195.903 118.269 195.577 118.333 195.225 118.333C194.676 118.333 194.243 118.177 193.925 117.867C193.608 117.556 193.449 117.147 193.449 116.64C193.449 116.07 193.67 115.634 194.112 115.33C194.557 115.026 195.195 114.875 196.027 114.875H196.819V114.461C196.819 114.084 196.707 113.817 196.483 113.658C196.262 113.499 195.953 113.42 195.556 113.42C195.376 113.42 195.163 113.442 194.914 113.487C194.666 113.532 194.402 113.603 194.122 113.7L193.868 112.975C194.207 112.847 194.529 112.756 194.836 112.701C195.147 112.645 195.437 112.618 195.706 112.618C196.41 112.618 196.936 112.778 197.285 113.099C197.633 113.417 197.808 113.853 197.808 114.409V116.95ZM195.504 117.587C195.76 117.587 196.005 117.522 196.239 117.39C196.474 117.259 196.667 117.076 196.819 116.842V115.522H196.094C195.518 115.522 195.109 115.62 194.867 115.817C194.626 116.01 194.505 116.276 194.505 116.614C194.505 116.931 194.588 117.173 194.754 117.339C194.919 117.504 195.169 117.587 195.504 117.587ZM202.53 112.618C203.013 112.618 203.399 112.737 203.689 112.975C203.979 113.21 204.188 113.541 204.316 113.969C204.443 114.393 204.507 114.894 204.507 115.47C204.507 116.022 204.43 116.514 204.274 116.945C204.119 117.377 203.886 117.717 203.575 117.965C203.265 118.21 202.875 118.333 202.406 118.333C201.815 118.333 201.343 118.125 200.987 117.711V120.294L199.993 120.413V112.747H200.847L200.92 113.482C201.123 113.203 201.363 112.989 201.639 112.84C201.915 112.692 202.212 112.618 202.53 112.618ZM202.276 113.399C201.993 113.399 201.743 113.486 201.526 113.658C201.308 113.827 201.129 114.021 200.987 114.238V116.878C201.125 117.082 201.294 117.242 201.494 117.359C201.695 117.473 201.917 117.53 202.162 117.53C202.59 117.53 202.913 117.365 203.13 117.033C203.348 116.698 203.456 116.177 203.456 115.47C203.456 114.997 203.413 114.609 203.327 114.305C203.241 113.998 203.11 113.77 202.934 113.622C202.761 113.474 202.542 113.399 202.276 113.399ZM208.737 112.618C209.221 112.618 209.607 112.737 209.897 112.975C210.187 113.21 210.396 113.541 210.523 113.969C210.651 114.393 210.715 114.894 210.715 115.47C210.715 116.022 210.637 116.514 210.482 116.945C210.327 117.377 210.094 117.717 209.783 117.965C209.473 118.21 209.083 118.333 208.613 118.333C208.023 118.333 207.55 118.125 207.195 117.711V120.294L206.201 120.413V112.747H207.055L207.128 113.482C207.331 113.203 207.571 112.989 207.847 112.84C208.123 112.692 208.42 112.618 208.737 112.618ZM208.484 113.399C208.201 113.399 207.951 113.486 207.733 113.658C207.516 113.827 207.336 114.021 207.195 114.238V116.878C207.333 117.082 207.502 117.242 207.702 117.359C207.902 117.473 208.125 117.53 208.37 117.53C208.798 117.53 209.121 117.365 209.338 117.033C209.555 116.698 209.664 116.177 209.664 115.47C209.664 114.997 209.621 114.609 209.535 114.305C209.448 113.998 209.317 113.77 209.141 113.622C208.969 113.474 208.75 113.399 208.484 113.399ZM212.461 118.203V117.468H213.289V113.482H212.461V112.747H214.05L214.231 114.026C214.438 113.574 214.692 113.227 214.992 112.985C215.295 112.74 215.689 112.618 216.172 112.618C216.331 112.618 216.471 112.63 216.591 112.654C216.716 112.678 216.842 112.709 216.969 112.747L216.674 113.617C216.56 113.582 216.457 113.558 216.364 113.544C216.27 113.53 216.163 113.524 216.043 113.524C215.632 113.524 215.28 113.672 214.987 113.969C214.693 114.266 214.459 114.702 214.283 115.278V117.468H215.39V118.203H212.461ZM216.048 114.662V113.41L216.162 112.747H216.969L216.814 114.662H216.048ZM220.744 112.618C221.265 112.618 221.702 112.735 222.054 112.97C222.409 113.204 222.677 113.536 222.856 113.964C223.039 114.388 223.13 114.89 223.13 115.47C223.13 116.032 223.037 116.529 222.851 116.961C222.668 117.389 222.399 117.725 222.043 117.97C221.688 118.212 221.251 118.333 220.734 118.333C220.216 118.333 219.778 118.215 219.419 117.981C219.063 117.746 218.794 117.415 218.611 116.987C218.428 116.559 218.337 116.057 218.337 115.48C218.337 114.914 218.428 114.417 218.611 113.989C218.798 113.558 219.07 113.222 219.429 112.98C219.788 112.738 220.226 112.618 220.744 112.618ZM220.744 113.41C220.295 113.41 219.957 113.579 219.729 113.917C219.502 114.252 219.388 114.773 219.388 115.48C219.388 116.181 219.5 116.7 219.724 117.038C219.949 117.373 220.285 117.541 220.734 117.541C221.182 117.541 221.519 117.373 221.743 117.038C221.967 116.7 222.08 116.177 222.08 115.47C222.08 114.766 221.967 114.247 221.743 113.912C221.522 113.577 221.189 113.41 220.744 113.41ZM229.473 112.747L227.516 118.203H226.356L224.41 112.747H225.466L226.962 117.339L228.453 112.747H229.473ZM231.834 115.812C231.855 116.212 231.936 116.54 232.078 116.795C232.219 117.047 232.404 117.233 232.631 117.354C232.859 117.472 233.111 117.53 233.387 117.53C233.66 117.53 233.91 117.489 234.138 117.406C234.366 117.323 234.597 117.202 234.831 117.044L235.282 117.67C235.026 117.874 234.731 118.036 234.397 118.157C234.062 118.274 233.715 118.333 233.356 118.333C232.811 118.333 232.347 118.213 231.964 117.975C231.584 117.734 231.294 117.399 231.094 116.971C230.897 116.543 230.799 116.046 230.799 115.48C230.799 114.932 230.897 114.442 231.094 114.01C231.294 113.579 231.575 113.239 231.938 112.99C232.3 112.742 232.732 112.618 233.232 112.618C233.701 112.618 234.105 112.726 234.443 112.944C234.785 113.161 235.047 113.472 235.23 113.876C235.413 114.276 235.504 114.756 235.504 115.315C235.504 115.408 235.503 115.498 235.499 115.584C235.496 115.67 235.491 115.746 235.484 115.812H231.834ZM233.242 113.394C232.856 113.394 232.533 113.532 232.274 113.808C232.019 114.084 231.872 114.511 231.834 115.087H234.547C234.536 114.535 234.416 114.115 234.184 113.829C233.957 113.539 233.643 113.394 233.242 113.394ZM240.92 114.6C240.92 114 240.858 113.52 240.734 113.161C240.61 112.799 240.446 112.526 240.242 112.343C240.042 112.16 239.819 112.038 239.574 111.976C239.333 111.914 239.091 111.883 238.85 111.883H238.089V117.401H238.86C239.112 117.401 239.36 117.361 239.605 117.282C239.85 117.202 240.071 117.061 240.268 116.857C240.465 116.654 240.622 116.369 240.739 116.003C240.86 115.637 240.92 115.17 240.92 114.6ZM242.007 114.6C242.007 115.194 241.943 115.699 241.816 116.117C241.691 116.535 241.519 116.88 241.298 117.152C241.081 117.425 240.832 117.639 240.553 117.794C240.273 117.946 239.978 118.053 239.667 118.115C239.357 118.174 239.05 118.203 238.746 118.203H237.064V111.07H238.632C239.053 111.07 239.464 111.117 239.864 111.21C240.268 111.299 240.63 111.47 240.951 111.722C241.276 111.974 241.533 112.331 241.722 112.794C241.912 113.256 242.007 113.858 242.007 114.6ZM243.499 118.203V117.468H244.327V113.482H243.499V112.747H245.088L245.269 114.026C245.477 113.574 245.73 113.227 246.03 112.985C246.334 112.74 246.727 112.618 247.211 112.618C247.369 112.618 247.509 112.63 247.63 112.654C247.754 112.678 247.88 112.709 248.008 112.747L247.713 113.617C247.599 113.582 247.495 113.558 247.402 113.544C247.309 113.53 247.202 113.524 247.081 113.524C246.671 113.524 246.319 113.672 246.025 113.969C245.732 114.266 245.497 114.702 245.321 115.278V117.468H246.429V118.203H243.499ZM247.086 114.662V113.41L247.2 112.747H248.008L247.853 114.662H247.086ZM253.677 116.95C253.677 117.168 253.712 117.327 253.781 117.427C253.85 117.523 253.958 117.596 254.107 117.644L253.874 118.327C253.625 118.296 253.41 118.222 253.227 118.105C253.044 117.987 252.908 117.808 252.818 117.566C252.621 117.818 252.373 118.01 252.072 118.141C251.772 118.269 251.446 118.333 251.094 118.333C250.545 118.333 250.112 118.177 249.795 117.867C249.477 117.556 249.319 117.147 249.319 116.64C249.319 116.07 249.539 115.634 249.981 115.33C250.426 115.026 251.065 114.875 251.896 114.875H252.688V114.461C252.688 114.084 252.576 113.817 252.352 113.658C252.131 113.499 251.822 113.42 251.425 113.42C251.246 113.42 251.032 113.442 250.784 113.487C250.535 113.532 250.271 113.603 249.992 113.7L249.738 112.975C250.076 112.847 250.399 112.756 250.706 112.701C251.016 112.645 251.306 112.618 251.576 112.618C252.28 112.618 252.806 112.778 253.154 113.099C253.503 113.417 253.677 113.853 253.677 114.409V116.95ZM251.374 117.587C251.629 117.587 251.874 117.522 252.109 117.39C252.343 117.259 252.537 117.076 252.688 116.842V115.522H251.964C251.387 115.522 250.979 115.62 250.737 115.817C250.495 116.01 250.375 116.276 250.375 116.614C250.375 116.931 250.457 117.173 250.623 117.339C250.789 117.504 251.039 117.587 251.374 117.587ZM260.004 118.203H258.679L258.011 114.253L257.291 118.203H255.997L255.029 112.747H256.018L256.66 117.587L257.483 113.441H258.57L259.341 117.587L259.983 112.747H260.931L260.004 118.203ZM195.08 128.58C195.08 129.101 195.123 129.57 195.209 129.988C195.299 130.402 195.432 130.785 195.608 131.137C195.787 131.485 196.013 131.822 196.286 132.146C196.562 132.471 196.885 132.804 197.254 133.145L196.715 133.684C196.16 133.225 195.682 132.752 195.282 132.265C194.881 131.779 194.574 131.239 194.36 130.645C194.15 130.048 194.044 129.36 194.044 128.58C194.044 127.796 194.15 127.108 194.36 126.514C194.574 125.921 194.881 125.381 195.282 124.894C195.682 124.407 196.16 123.935 196.715 123.476L197.254 124.014C196.885 124.352 196.564 124.683 196.291 125.008C196.018 125.332 195.792 125.67 195.613 126.022C195.433 126.371 195.299 126.754 195.209 127.172C195.123 127.586 195.08 128.055 195.08 128.58ZM296.049 128.58C296.049 128.055 296.004 127.586 295.915 127.172C295.828 126.754 295.696 126.371 295.516 126.022C295.337 125.67 295.111 125.332 294.838 125.008C294.565 124.683 294.244 124.352 293.875 124.014L294.414 123.476C294.973 123.935 295.451 124.407 295.847 124.894C296.248 125.381 296.553 125.921 296.764 126.514C296.978 127.108 297.085 127.796 297.085 128.58C297.085 129.36 296.978 130.048 296.764 130.645C296.553 131.239 296.248 131.779 295.847 132.265C295.451 132.752 294.973 133.225 294.414 133.684L293.875 133.145C294.244 132.804 294.565 132.471 294.838 132.146C295.114 131.822 295.34 131.485 295.516 131.137C295.696 130.785 295.828 130.402 295.915 129.988C296.004 129.57 296.049 129.101 296.049 128.58Z" fill="white"/>
<path d="M197.228 102.428H194.526L193.987 104.203H192.957L195.256 97.0699H196.55L198.853 104.203H197.766L197.228 102.428ZM194.764 101.605H196.99L195.882 97.8982L194.764 101.605ZM200.987 98.7471V102.588C200.987 102.933 201.058 103.182 201.199 103.333C201.341 103.482 201.557 103.556 201.846 103.556C202.126 103.556 202.392 103.475 202.644 103.313C202.896 103.151 203.092 102.957 203.234 102.733V98.7471H204.228V104.203H203.374L203.301 103.484C203.094 103.756 202.833 103.967 202.519 104.115C202.205 104.26 201.888 104.333 201.567 104.333C201.039 104.333 200.644 104.189 200.382 103.903C200.123 103.616 199.993 103.22 199.993 102.712V98.7471H200.987ZM210.632 103.924C210.439 104.048 210.206 104.146 209.933 104.219C209.661 104.295 209.388 104.333 209.115 104.333C208.508 104.333 208.042 104.174 207.718 103.856C207.397 103.539 207.236 103.126 207.236 102.619V99.4925H205.999V98.7471H207.236V97.5151L208.23 97.3961V98.7471H210.094L209.98 99.4925H208.23V102.609C208.23 102.909 208.306 103.135 208.458 103.287C208.613 103.439 208.87 103.515 209.229 103.515C209.433 103.515 209.619 103.49 209.788 103.442C209.957 103.394 210.114 103.332 210.259 103.256L210.632 103.924ZM213.403 96.4539V99.4563C213.62 99.1768 213.881 98.968 214.184 98.8299C214.491 98.6885 214.804 98.6177 215.121 98.6177C215.646 98.6177 216.032 98.7609 216.281 99.0474C216.529 99.3303 216.653 99.7255 216.653 100.233V104.203H215.66V100.321C215.66 99.9929 215.589 99.7565 215.447 99.6116C215.309 99.4632 215.088 99.389 214.785 99.389C214.591 99.389 214.407 99.4321 214.231 99.5184C214.058 99.6047 213.901 99.7151 213.76 99.8497C213.618 99.9809 213.499 100.117 213.403 100.259V104.203H212.409V96.5627L213.403 96.4539ZM220.734 96.9405C221.517 96.9405 222.109 97.2615 222.509 97.9034C222.909 98.5418 223.11 99.4511 223.11 100.631C223.11 101.815 222.909 102.728 222.509 103.37C222.109 104.012 221.517 104.333 220.734 104.333C219.95 104.333 219.358 104.012 218.958 103.37C218.558 102.728 218.358 101.815 218.358 100.631C218.358 99.4511 218.558 98.5418 218.958 97.9034C219.358 97.2615 219.95 96.9405 220.734 96.9405ZM220.734 97.7222C220.309 97.7222 219.976 97.9482 219.735 98.4003C219.496 98.8524 219.377 99.5961 219.377 100.631C219.377 101.166 219.403 101.62 219.455 101.993C219.507 102.365 219.586 102.666 219.693 102.893C219.804 103.121 219.945 103.289 220.118 103.396C220.29 103.499 220.496 103.551 220.734 103.551C221.02 103.551 221.265 103.453 221.469 103.256C221.672 103.059 221.826 102.745 221.929 102.314C222.036 101.882 222.09 101.322 222.09 100.631C222.09 99.9205 222.043 99.3528 221.95 98.9283C221.86 98.5004 221.715 98.1932 221.515 98.0069C221.315 97.8171 221.055 97.7222 220.734 97.7222ZM221.748 97.9707L222.007 98.7523L219.797 103.24L219.45 102.614L221.748 97.9707Z" fill="#58C9CB"/>
<path d="M201.727 126.53C201.727 126.747 201.646 126.932 201.484 127.084C201.325 127.235 201.134 127.311 200.91 127.311C200.678 127.311 200.485 127.235 200.33 127.084C200.178 126.932 200.102 126.747 200.102 126.53C200.102 126.433 200.114 126.33 200.138 126.219C200.166 126.105 200.221 125.959 200.304 125.779L201.127 124.035H201.852L201.427 125.924C201.517 125.99 201.589 126.076 201.645 126.183C201.7 126.286 201.727 126.402 201.727 126.53ZM203.99 126.53C203.99 126.747 203.908 126.932 203.746 127.084C203.587 127.235 203.396 127.311 203.172 127.311C202.947 127.311 202.756 127.235 202.597 127.084C202.442 126.932 202.364 126.747 202.364 126.53C202.364 126.433 202.376 126.33 202.4 126.219C202.428 126.105 202.485 125.959 202.571 125.779L203.405 124.035H204.119L203.694 125.924C203.784 125.99 203.855 126.076 203.907 126.183C203.962 126.286 203.99 126.402 203.99 126.53ZM207.619 125.877V128.279H210.368V129.082H207.619V132.203H206.594V125.07H210.875L210.756 125.877H207.619ZM216.431 130.95C216.431 131.168 216.465 131.327 216.534 131.427C216.603 131.523 216.712 131.596 216.861 131.644L216.628 132.327C216.379 132.296 216.163 132.222 215.981 132.105C215.798 131.987 215.661 131.808 215.572 131.566C215.375 131.818 215.126 132.01 214.826 132.141C214.526 132.269 214.2 132.333 213.848 132.333C213.299 132.333 212.866 132.177 212.549 131.867C212.231 131.556 212.072 131.147 212.072 130.64C212.072 130.07 212.293 129.634 212.735 129.33C213.18 129.026 213.818 128.875 214.65 128.875H215.442V128.461C215.442 128.084 215.33 127.817 215.106 127.658C214.885 127.499 214.576 127.42 214.179 127.42C214 127.42 213.786 127.442 213.537 127.487C213.289 127.532 213.025 127.603 212.745 127.7L212.492 126.975C212.83 126.847 213.152 126.756 213.46 126.701C213.77 126.645 214.06 126.618 214.329 126.618C215.033 126.618 215.559 126.778 215.908 127.099C216.257 127.417 216.431 127.853 216.431 128.409V130.95ZM214.127 131.587C214.383 131.587 214.628 131.522 214.862 131.39C215.097 131.259 215.29 131.076 215.442 130.842V129.522H214.717C214.141 129.522 213.732 129.62 213.491 129.817C213.249 130.01 213.128 130.276 213.128 130.614C213.128 130.931 213.211 131.173 213.377 131.339C213.542 131.504 213.793 131.587 214.127 131.587ZM221.153 131.494C221.419 131.494 221.665 131.449 221.893 131.359C222.124 131.27 222.34 131.156 222.54 131.018L223.016 131.665C222.778 131.868 222.49 132.031 222.152 132.151C221.814 132.272 221.476 132.333 221.137 132.333C220.589 132.333 220.119 132.215 219.729 131.981C219.343 131.746 219.048 131.416 218.844 130.992C218.641 130.567 218.539 130.07 218.539 129.501C218.539 128.949 218.641 128.455 218.844 128.021C219.051 127.586 219.35 127.244 219.74 126.996C220.13 126.744 220.601 126.618 221.153 126.618C221.512 126.618 221.845 126.673 222.152 126.783C222.463 126.89 222.747 127.049 223.006 127.26L222.535 127.907C222.311 127.751 222.085 127.634 221.857 127.555C221.629 127.472 221.396 127.43 221.158 127.43C220.703 127.43 220.33 127.6 220.04 127.938C219.75 128.276 219.605 128.797 219.605 129.501C219.605 129.97 219.671 130.352 219.802 130.645C219.936 130.938 220.121 131.154 220.356 131.292C220.59 131.427 220.856 131.494 221.153 131.494ZM225.627 129.812C225.647 130.212 225.728 130.54 225.87 130.795C226.011 131.047 226.196 131.233 226.424 131.354C226.651 131.472 226.903 131.53 227.179 131.53C227.452 131.53 227.702 131.489 227.93 131.406C228.158 131.323 228.389 131.202 228.624 131.044L229.074 131.67C228.819 131.874 228.524 132.036 228.189 132.157C227.854 132.274 227.507 132.333 227.148 132.333C226.603 132.333 226.139 132.213 225.756 131.975C225.376 131.734 225.086 131.399 224.886 130.971C224.69 130.543 224.591 130.046 224.591 129.48C224.591 128.932 224.69 128.442 224.886 128.01C225.086 127.579 225.368 127.239 225.73 126.99C226.092 126.742 226.524 126.618 227.024 126.618C227.494 126.618 227.897 126.726 228.235 126.944C228.577 127.161 228.839 127.472 229.022 127.876C229.205 128.276 229.297 128.756 229.297 129.315C229.297 129.408 229.295 129.498 229.291 129.584C229.288 129.67 229.283 129.746 229.276 129.812H225.627ZM227.035 127.394C226.648 127.394 226.325 127.532 226.067 127.808C225.811 128.084 225.664 128.511 225.627 129.087H228.339C228.329 128.535 228.208 128.115 227.977 127.829C227.749 127.539 227.435 127.394 227.035 127.394ZM241.443 125.07V125.872H239.874V131.396H241.443V132.203H237.271V131.396H238.839V125.872H237.271V125.07H241.443ZM247.128 128.6C247.128 128 247.066 127.52 246.941 127.161C246.817 126.799 246.653 126.526 246.45 126.343C246.25 126.16 246.027 126.038 245.782 125.976C245.54 125.914 245.299 125.883 245.057 125.883H244.296V131.401H245.068C245.319 131.401 245.568 131.361 245.813 131.282C246.058 131.202 246.279 131.061 246.476 130.857C246.672 130.654 246.829 130.369 246.947 130.003C247.067 129.637 247.128 129.17 247.128 128.6ZM248.215 128.6C248.215 129.194 248.151 129.699 248.023 130.117C247.899 130.535 247.727 130.88 247.506 131.152C247.288 131.425 247.04 131.639 246.76 131.794C246.481 131.946 246.186 132.053 245.875 132.115C245.565 132.174 245.257 132.203 244.954 132.203H243.271V125.07H244.84C245.261 125.07 245.671 125.117 246.072 125.21C246.476 125.299 246.838 125.47 247.159 125.722C247.483 125.974 247.74 126.331 247.93 126.794C248.12 127.256 248.215 127.858 248.215 128.6ZM258.104 124.552V130.795C258.104 131.057 258.185 131.244 258.347 131.354C258.51 131.461 258.718 131.515 258.974 131.515C259.136 131.515 259.29 131.497 259.435 131.463C259.579 131.428 259.724 131.384 259.869 131.328L260.128 132.037C259.976 132.113 259.787 132.181 259.559 132.239C259.331 132.301 259.074 132.333 258.787 132.333C258.277 132.333 257.87 132.189 257.566 131.903C257.262 131.616 257.11 131.223 257.11 130.723V125.308H255.449V124.552H258.104ZM264.198 126.618C264.719 126.618 265.156 126.735 265.508 126.97C265.863 127.204 266.131 127.536 266.31 127.964C266.493 128.388 266.584 128.89 266.584 129.47C266.584 130.032 266.491 130.529 266.305 130.961C266.122 131.389 265.853 131.725 265.497 131.97C265.142 132.212 264.705 132.333 264.188 132.333C263.67 132.333 263.232 132.215 262.873 131.981C262.517 131.746 262.248 131.415 262.065 130.987C261.882 130.559 261.791 130.057 261.791 129.48C261.791 128.914 261.882 128.417 262.065 127.989C262.252 127.558 262.524 127.222 262.883 126.98C263.242 126.738 263.68 126.618 264.198 126.618ZM264.198 127.41C263.749 127.41 263.411 127.579 263.183 127.917C262.956 128.252 262.842 128.773 262.842 129.48C262.842 130.181 262.954 130.7 263.178 131.038C263.403 131.373 263.739 131.541 264.188 131.541C264.636 131.541 264.973 131.373 265.197 131.038C265.421 130.7 265.534 130.177 265.534 129.47C265.534 128.766 265.421 128.247 265.197 127.912C264.976 127.577 264.643 127.41 264.198 127.41ZM272.782 126.116L273.072 126.996C272.844 127.068 272.599 127.115 272.337 127.135C272.078 127.156 271.791 127.166 271.477 127.166C271.798 127.311 272.04 127.498 272.202 127.725C272.364 127.953 272.445 128.226 272.445 128.543C272.445 128.902 272.361 129.221 272.192 129.501C272.026 129.781 271.786 130 271.472 130.158C271.162 130.317 270.787 130.397 270.349 130.397C270.176 130.397 270.03 130.39 269.909 130.376C269.791 130.359 269.676 130.333 269.562 130.298C269.486 130.35 269.422 130.421 269.37 130.51C269.322 130.6 269.298 130.695 269.298 130.795C269.298 130.916 269.346 131.019 269.443 131.106C269.54 131.189 269.728 131.23 270.007 131.23H270.975C271.351 131.23 271.686 131.296 271.979 131.427C272.276 131.558 272.509 131.736 272.678 131.96C272.847 132.184 272.932 132.44 272.932 132.726C272.932 133.268 272.701 133.684 272.238 133.973C271.776 134.267 271.12 134.413 270.271 134.413C269.671 134.413 269.198 134.351 268.853 134.227C268.511 134.103 268.268 133.918 268.123 133.673C267.981 133.428 267.911 133.121 267.911 132.752H268.806C268.806 132.955 268.846 133.123 268.925 133.254C269.005 133.385 269.15 133.483 269.36 133.549C269.571 133.615 269.874 133.647 270.271 133.647C270.665 133.647 270.982 133.615 271.224 133.549C271.465 133.483 271.643 133.387 271.757 133.259C271.871 133.131 271.928 132.976 271.928 132.793C271.928 132.552 271.819 132.367 271.602 132.239C271.384 132.112 271.106 132.048 270.768 132.048H269.81C269.32 132.048 268.96 131.944 268.729 131.737C268.501 131.527 268.387 131.285 268.387 131.013C268.387 130.833 268.437 130.659 268.537 130.49C268.641 130.321 268.791 130.172 268.987 130.045C268.67 129.875 268.435 129.668 268.283 129.423C268.135 129.178 268.061 128.88 268.061 128.528C268.061 128.152 268.154 127.82 268.34 127.534C268.53 127.248 268.792 127.023 269.127 126.861C269.462 126.699 269.847 126.618 270.282 126.618C270.734 126.618 271.103 126.597 271.389 126.556C271.679 126.511 271.929 126.452 272.14 126.38C272.354 126.304 272.568 126.216 272.782 126.116ZM270.287 127.322C269.879 127.322 269.576 127.436 269.376 127.663C269.175 127.888 269.075 128.176 269.075 128.528C269.075 128.883 269.177 129.175 269.381 129.403C269.584 129.627 269.893 129.739 270.307 129.739C270.673 129.739 270.953 129.634 271.146 129.423C271.339 129.209 271.436 128.907 271.436 128.517C271.436 128.124 271.339 127.827 271.146 127.627C270.953 127.424 270.666 127.322 270.287 127.322ZM277.343 126.747V131.447H278.86V132.203H274.688V131.447H276.349V127.503H274.74V126.747H277.343ZM276.603 124.138C276.81 124.138 276.976 124.202 277.1 124.33C277.228 124.457 277.292 124.613 277.292 124.796C277.292 124.985 277.228 125.146 277.1 125.277C276.976 125.405 276.81 125.469 276.603 125.469C276.4 125.469 276.234 125.405 276.106 125.277C275.982 125.146 275.92 124.985 275.92 124.796C275.92 124.613 275.982 124.457 276.106 124.33C276.234 124.202 276.4 124.138 276.603 124.138ZM280.694 132.203V126.747H281.548L281.62 127.482C281.845 127.203 282.117 126.989 282.438 126.84C282.763 126.692 283.085 126.618 283.406 126.618C283.931 126.618 284.317 126.761 284.566 127.047C284.814 127.33 284.938 127.725 284.938 128.233V132.203H283.944V128.844C283.944 128.498 283.924 128.219 283.882 128.005C283.844 127.788 283.763 127.631 283.639 127.534C283.515 127.437 283.327 127.389 283.075 127.389C282.878 127.389 282.692 127.432 282.516 127.518C282.34 127.605 282.181 127.713 282.04 127.845C281.902 127.976 281.784 128.112 281.688 128.253V132.203H280.694ZM287.129 124.816C287.129 124.595 287.21 124.409 287.372 124.257C287.535 124.105 287.726 124.029 287.947 124.029C288.171 124.029 288.363 124.105 288.522 124.257C288.684 124.409 288.765 124.595 288.765 124.816C288.765 124.923 288.748 125.03 288.713 125.137C288.682 125.241 288.623 125.382 288.537 125.562L287.714 127.306H287L287.414 125.417C287.328 125.351 287.259 125.267 287.207 125.163C287.155 125.06 287.129 124.944 287.129 124.816ZM289.391 124.816C289.391 124.595 289.472 124.409 289.635 124.257C289.8 124.105 289.992 124.029 290.209 124.029C290.437 124.029 290.63 124.105 290.789 124.257C290.948 124.409 291.027 124.595 291.027 124.816C291.027 124.923 291.013 125.03 290.986 125.137C290.958 125.241 290.901 125.382 290.815 125.562L289.981 127.306H289.267L289.692 125.417C289.602 125.351 289.529 125.267 289.474 125.163C289.419 125.06 289.391 124.944 289.391 124.816Z" fill="#58C9CB"/>
</g>
</g>
<defs>
<filter id="filter0_ddd_6324_71006" x="3.94336" y="10.375" width="299.205" height="250" filterUnits="userSpaceOnUse" color-interpolation-filters="sRGB">
<feFlood flood-opacity="0" result="BackgroundImageFix"/>
<feColorMatrix in="SourceAlpha" type="matrix" values="0 0 0 0 0 0 0 0 0 0 0 0 0 0 0 0 0 0 127 0" result="hardAlpha"/>
<feMorphology radius="1" operator="dilate" in="SourceAlpha" result="effect1_dropShadow_6324_71006"/>
<feOffset/>
<feGaussianBlur stdDeviation="2.5"/>
<feComposite in2="hardAlpha" operator="out"/>
<feColorMatrix type="matrix" values="0 0 0 0 0 0 0 0 0 0 0 0 0 0 0 0 0 0 0.05 0"/>
<feBlend mode="normal" in2="BackgroundImageFix" result="effect1_dropShadow_6324_71006"/>
<feColorMatrix in="SourceAlpha" type="matrix" values="0 0 0 0 0 0 0 0 0 0 0 0 0 0 0 0 0 0 127 0" result="hardAlpha"/>
<feOffset dy="4"/>
<feGaussianBlur stdDeviation="5"/>
<feComposite in2="hardAlpha" operator="out"/>
<feColorMatrix type="matrix" values="0 0 0 0 0 0 0 0 0 0 0 0 0 0 0 0 0 0 0.03 0"/>
<feBlend mode="normal" in2="effect1_dropShadow_6324_71006" result="effect2_dropShadow_6324_71006"/>
<feColorMatrix in="SourceAlpha" type="matrix" values="0 0 0 0 0 0 0 0 0 0 0 0 0 0 0 0 0 0 127 0" result="hardAlpha"/>
<feOffset dy="8"/>
<feGaussianBlur stdDeviation="7.5"/>
<feComposite in2="hardAlpha" operator="out"/>
<feColorMatrix type="matrix" values="0 0 0 0 0 0 0 0 0 0 0 0 0 0 0 0 0 0 0.02 0"/>
<feBlend mode="normal" in2="effect2_dropShadow_6324_71006" result="effect3_dropShadow_6324_71006"/>
<feBlend mode="normal" in="SourceGraphic" in2="effect3_dropShadow_6324_71006" result="shape"/>
</filter>
<filter id="filter1_ddd_6324_71006" x="124.444" y="49.9632" width="207.529" height="127.824" filterUnits="userSpaceOnUse" color-interpolation-filters="sRGB">
<feFlood flood-opacity="0" result="BackgroundImageFix"/>
<feColorMatrix in="SourceAlpha" type="matrix" values="0 0 0 0 0 0 0 0 0 0 0 0 0 0 0 0 0 0 127 0" result="hardAlpha"/>
<feMorphology radius="1.29412" operator="dilate" in="SourceAlpha" result="effect1_dropShadow_6324_71006"/>
<feOffset/>
<feGaussianBlur stdDeviation="1"/>
<feComposite in2="hardAlpha" operator="out"/>
<feColorMatrix type="matrix" values="0 0 0 0 0 0 0 0 0 0 0 0 0 0 0 0 0 0 0.8 0"/>
<feBlend mode="normal" in2="BackgroundImageFix" result="effect1_dropShadow_6324_71006"/>
<feColorMatrix in="SourceAlpha" type="matrix" values="0 0 0 0 0 0 0 0 0 0 0 0 0 0 0 0 0 0 127 0" result="hardAlpha"/>
<feOffset/>
<feGaussianBlur stdDeviation="6.47059"/>
<feComposite in2="hardAlpha" operator="out"/>
<feColorMatrix type="matrix" values="0 0 0 0 0 0 0 0 0 0 0 0 0 0 0 0 0 0 0.08 0"/>
<feBlend mode="normal" in2="effect1_dropShadow_6324_71006" result="effect2_dropShadow_6324_71006"/>
<feColorMatrix in="SourceAlpha" type="matrix" values="0 0 0 0 0 0 0 0 0 0 0 0 0 0 0 0 0 0 127 0" result="hardAlpha"/>
<feOffset/>
<feGaussianBlur stdDeviation="9.70588"/>
<feComposite in2="hardAlpha" operator="out"/>
<feColorMatrix type="matrix" values="0 0 0 0 0 0 0 0 0 0 0 0 0 0 0 0 0 0 0.08 0"/>
<feBlend mode="normal" in2="effect2_dropShadow_6324_71006" result="effect3_dropShadow_6324_71006"/>
<feBlend mode="normal" in="SourceGraphic" in2="effect3_dropShadow_6324_71006" result="shape"/>
</filter>
<linearGradient id="paint0_linear_6324_71006" x1="169.5" y1="0.375" x2="169.5" y2="198.375" gradientUnits="userSpaceOnUse">
<stop offset="0.56"/>
<stop offset="0.9" stop-opacity="0"/>
</linearGradient>
<clipPath id="clip0_6324_71006">
<rect width="30" height="30" fill="white" transform="translate(151.621 78.9631)"/>
</clipPath>
</defs>
</svg>
