<svg width="175" height="100" viewBox="0 0 175 100" fill="none" xmlns="http://www.w3.org/2000/svg">
<path d="M7.96825 91V79.224H10.5923V91H7.96825ZM15.0563 91L11.6323 85.976H14.5123L18.0963 91H15.0563ZM9.88825 87.256V85.192H12.7683C13.1523 85.192 13.4829 85.1173 13.7603 84.968C14.0483 84.808 14.2669 84.5893 14.4163 84.312C14.5763 84.024 14.6562 83.6933 14.6562 83.32C14.6562 82.9467 14.5763 82.6213 14.4163 82.344C14.2669 82.056 14.0483 81.8373 13.7603 81.688C13.4829 81.528 13.1523 81.448 12.7683 81.448H9.88825V79.224H12.5603C13.5309 79.224 14.3736 79.3733 15.0883 79.672C15.8029 79.96 16.3523 80.392 16.7363 80.968C17.1203 81.544 17.3123 82.2693 17.3123 83.144V83.4C17.3123 84.264 17.1149 84.984 16.7203 85.56C16.3363 86.1253 15.7869 86.552 15.0723 86.84C14.3683 87.1173 13.5309 87.256 12.5603 87.256H9.88825ZM23.3715 91.304C22.6248 91.304 21.9635 91.176 21.3875 90.92C20.8222 90.664 20.3475 90.3227 19.9635 89.896C19.5902 89.4587 19.3022 88.9733 19.0995 88.44C18.9075 87.896 18.8115 87.3413 18.8115 86.776V86.456C18.8115 85.8693 18.9075 85.3093 19.0995 84.776C19.3022 84.232 19.5902 83.7467 19.9635 83.32C20.3368 82.8933 20.8008 82.5573 21.3555 82.312C21.9208 82.056 22.5608 81.928 23.2755 81.928C24.2142 81.928 25.0035 82.1413 25.6435 82.568C26.2942 82.984 26.7902 83.5333 27.1315 84.216C27.4728 84.888 27.6435 85.624 27.6435 86.424V87.288H19.8835V85.832H26.0915L25.2595 86.504C25.2595 85.9813 25.1848 85.5333 25.0355 85.16C24.8862 84.7867 24.6622 84.504 24.3635 84.312C24.0755 84.1093 23.7128 84.008 23.2755 84.008C22.8275 84.008 22.4488 84.1093 22.1395 84.312C21.8302 84.5147 21.5955 84.8133 21.4355 85.208C21.2755 85.592 21.1955 86.0667 21.1955 86.632C21.1955 87.1547 21.2702 87.6133 21.4195 88.008C21.5688 88.392 21.8035 88.6907 22.1235 88.904C22.4435 89.1173 22.8595 89.224 23.3715 89.224C23.8408 89.224 24.2248 89.1333 24.5235 88.952C24.8222 88.7707 25.0248 88.5467 25.1315 88.28H27.4835C27.3555 88.8667 27.1048 89.3893 26.7315 89.848C26.3582 90.3067 25.8888 90.664 25.3235 90.92C24.7582 91.176 24.1075 91.304 23.3715 91.304ZM33.2759 91.304C32.5185 91.304 31.8572 91.1813 31.2919 90.936C30.7372 90.68 30.2732 90.3387 29.8999 89.912C29.5265 89.4853 29.2492 89.0053 29.0679 88.472C28.8865 87.928 28.7959 87.368 28.7959 86.792V86.488C28.7959 85.8907 28.8919 85.32 29.0839 84.776C29.2759 84.2213 29.5585 83.7307 29.9319 83.304C30.3052 82.8773 30.7692 82.5413 31.3239 82.296C31.8892 82.0507 32.5345 81.928 33.2599 81.928C34.0492 81.928 34.7479 82.0827 35.3559 82.392C35.9639 82.6907 36.4492 83.112 36.8119 83.656C37.1745 84.2 37.3772 84.824 37.4199 85.528H34.9079C34.8652 85.1333 34.7052 84.8027 34.4279 84.536C34.1612 84.2587 33.7719 84.12 33.2599 84.12C32.8332 84.12 32.4759 84.2267 32.1879 84.44C31.9105 84.6533 31.7025 84.9467 31.5639 85.32C31.4252 85.6933 31.3559 86.136 31.3559 86.648C31.3559 87.1173 31.4199 87.544 31.5479 87.928C31.6759 88.3013 31.8785 88.5947 32.1559 88.808C32.4439 89.0107 32.8172 89.112 33.2759 89.112C33.6172 89.112 33.9052 89.0533 34.1399 88.936C34.3852 88.808 34.5772 88.6373 34.7159 88.424C34.8652 88.2 34.9559 87.944 34.9879 87.656H37.4839C37.4519 88.3813 37.2492 89.0213 36.8759 89.576C36.5025 90.12 36.0065 90.5467 35.3879 90.856C34.7692 91.1547 34.0652 91.304 33.2759 91.304ZM43.1371 91.304C42.3905 91.304 41.7291 91.176 41.1531 90.92C40.5878 90.664 40.1131 90.3227 39.7291 89.896C39.3558 89.4587 39.0678 88.9733 38.8651 88.44C38.6731 87.896 38.5771 87.3413 38.5771 86.776V86.456C38.5771 85.8693 38.6731 85.3093 38.8651 84.776C39.0678 84.232 39.3558 83.7467 39.7291 83.32C40.1025 82.8933 40.5665 82.5573 41.1211 82.312C41.6865 82.056 42.3265 81.928 43.0411 81.928C43.9798 81.928 44.7691 82.1413 45.4091 82.568C46.0598 82.984 46.5558 83.5333 46.8971 84.216C47.2385 84.888 47.4091 85.624 47.4091 86.424V87.288H39.6491V85.832H45.8571L45.0251 86.504C45.0251 85.9813 44.9505 85.5333 44.8011 85.16C44.6518 84.7867 44.4278 84.504 44.1291 84.312C43.8411 84.1093 43.4785 84.008 43.0411 84.008C42.5931 84.008 42.2145 84.1093 41.9051 84.312C41.5958 84.5147 41.3611 84.8133 41.2011 85.208C41.0411 85.592 40.9611 86.0667 40.9611 86.632C40.9611 87.1547 41.0358 87.6133 41.1851 88.008C41.3345 88.392 41.5691 88.6907 41.8891 88.904C42.2091 89.1173 42.6251 89.224 43.1371 89.224C43.6065 89.224 43.9905 89.1333 44.2891 88.952C44.5878 88.7707 44.7905 88.5467 44.8971 88.28H47.2491C47.1211 88.8667 46.8705 89.3893 46.4971 89.848C46.1238 90.3067 45.6545 90.664 45.0891 90.92C44.5238 91.176 43.8731 91.304 43.1371 91.304ZM49.5215 91V82.232H52.0815V91H49.5215ZM48.3535 84.12V82.232H52.0815V84.12H48.3535ZM50.5135 81.368C50.0335 81.368 49.6762 81.2453 49.4415 81C49.2175 80.744 49.1055 80.424 49.1055 80.04C49.1055 79.6453 49.2175 79.3253 49.4415 79.08C49.6762 78.824 50.0335 78.696 50.5135 78.696C50.9935 78.696 51.3455 78.824 51.5695 79.08C51.8042 79.3253 51.9215 79.6453 51.9215 80.04C51.9215 80.424 51.8042 80.744 51.5695 81C51.3455 81.2453 50.9935 81.368 50.5135 81.368ZM56.1453 91L53.5213 82.232H56.1613L58.6253 91H56.1453ZM56.9453 91V88.872H59.5213V91H56.9453ZM57.8893 91L60.0173 82.232H62.4813L60.2093 91H57.8893ZM67.809 91.304C67.0623 91.304 66.401 91.176 65.825 90.92C65.2597 90.664 64.785 90.3227 64.401 89.896C64.0277 89.4587 63.7397 88.9733 63.537 88.44C63.345 87.896 63.249 87.3413 63.249 86.776V86.456C63.249 85.8693 63.345 85.3093 63.537 84.776C63.7397 84.232 64.0277 83.7467 64.401 83.32C64.7743 82.8933 65.2383 82.5573 65.793 82.312C66.3583 82.056 66.9983 81.928 67.713 81.928C68.6517 81.928 69.441 82.1413 70.081 82.568C70.7317 82.984 71.2277 83.5333 71.569 84.216C71.9103 84.888 72.081 85.624 72.081 86.424V87.288H64.321V85.832H70.529L69.697 86.504C69.697 85.9813 69.6223 85.5333 69.473 85.16C69.3237 84.7867 69.0997 84.504 68.801 84.312C68.513 84.1093 68.1503 84.008 67.713 84.008C67.265 84.008 66.8863 84.1093 66.577 84.312C66.2677 84.5147 66.033 84.8133 65.873 85.208C65.713 85.592 65.633 86.0667 65.633 86.632C65.633 87.1547 65.7077 87.6133 65.857 88.008C66.0063 88.392 66.241 88.6907 66.561 88.904C66.881 89.1173 67.297 89.224 67.809 89.224C68.2783 89.224 68.6623 89.1333 68.961 88.952C69.2597 88.7707 69.4623 88.5467 69.569 88.28H71.921C71.793 88.8667 71.5423 89.3893 71.169 89.848C70.7957 90.3067 70.3263 90.664 69.761 90.92C69.1957 91.176 68.545 91.304 67.809 91.304ZM77.3934 91.288C76.7747 91.288 76.2094 91.176 75.6974 90.952C75.196 90.728 74.7587 90.4187 74.3854 90.024C74.012 89.6187 73.724 89.144 73.5214 88.6C73.3294 88.056 73.2334 87.4693 73.2334 86.84V86.472C73.2334 85.8427 73.324 85.256 73.5054 84.712C73.6974 84.168 73.9694 83.6933 74.3214 83.288C74.684 82.872 75.116 82.552 75.6174 82.328C76.1187 82.0933 76.6787 81.976 77.2974 81.976C78.0014 81.976 78.6094 82.1307 79.1214 82.44C79.6334 82.7387 80.0334 83.1867 80.3214 83.784C80.6094 84.3707 80.7694 85.096 80.8014 85.96L80.1294 85.336V79.32H82.7054V91H80.6734V87.368H81.0254C80.9934 88.2 80.8174 88.9093 80.4974 89.496C80.188 90.0827 79.7667 90.5307 79.2334 90.84C78.7 91.1387 78.0867 91.288 77.3934 91.288ZM78.0334 89.144C78.428 89.144 78.7854 89.0587 79.1054 88.888C79.436 88.7067 79.6974 88.4453 79.8894 88.104C80.092 87.7627 80.1934 87.352 80.1934 86.872V86.28C80.1934 85.8107 80.092 85.416 79.8894 85.096C79.6867 84.776 79.42 84.5307 79.0894 84.36C78.7587 84.1893 78.4014 84.104 78.0174 84.104C77.5907 84.104 77.2067 84.216 76.8654 84.44C76.5347 84.6533 76.2734 84.952 76.0814 85.336C75.8894 85.7093 75.7934 86.1467 75.7934 86.648C75.7934 87.16 75.8894 87.6027 76.0814 87.976C76.2734 88.3493 76.54 88.6373 76.8814 88.84C77.2227 89.0427 77.6067 89.144 78.0334 89.144ZM92.6588 91.304C91.8908 91.304 91.2081 91.1867 90.6108 90.952C90.0134 90.7067 89.5068 90.376 89.0908 89.96C88.6854 89.544 88.3761 89.0693 88.1628 88.536C87.9494 87.992 87.8428 87.4213 87.8428 86.824V86.456C87.8428 85.848 87.9494 85.272 88.1628 84.728C88.3868 84.1733 88.7068 83.688 89.1228 83.272C89.5494 82.856 90.0614 82.5307 90.6588 82.296C91.2561 82.0507 91.9228 81.928 92.6588 81.928C93.4161 81.928 94.0881 82.0507 94.6748 82.296C95.2721 82.5307 95.7788 82.856 96.1948 83.272C96.6108 83.688 96.9308 84.1733 97.1548 84.728C97.3788 85.272 97.4908 85.848 97.4908 86.456V86.824C97.4908 87.4213 97.3841 87.992 97.1708 88.536C96.9574 89.0693 96.6428 89.544 96.2268 89.96C95.8214 90.376 95.3201 90.7067 94.7228 90.952C94.1254 91.1867 93.4374 91.304 92.6588 91.304ZM92.6588 89.144C93.1601 89.144 93.5761 89.0373 93.9068 88.824C94.2374 88.6107 94.4881 88.312 94.6588 87.928C94.8401 87.544 94.9308 87.1173 94.9308 86.648C94.9308 86.1467 94.8401 85.7093 94.6588 85.336C94.4774 84.952 94.2161 84.648 93.8748 84.424C93.5441 84.2 93.1388 84.088 92.6588 84.088C92.1894 84.088 91.7841 84.2 91.4427 84.424C91.1014 84.648 90.8401 84.952 90.6588 85.336C90.4881 85.7093 90.4028 86.1467 90.4028 86.648C90.4028 87.1173 90.4881 87.544 90.6588 87.928C90.8294 88.312 91.0854 88.6107 91.4268 88.824C91.7681 89.0373 92.1788 89.144 92.6588 89.144ZM100.77 91L98.1463 82.232H100.786L103.25 91H100.77ZM101.57 91V88.872H104.146V91H101.57ZM102.514 91L104.642 82.232H107.106L104.834 91H102.514ZM112.434 91.304C111.687 91.304 111.026 91.176 110.45 90.92C109.885 90.664 109.41 90.3227 109.026 89.896C108.653 89.4587 108.365 88.9733 108.162 88.44C107.97 87.896 107.874 87.3413 107.874 86.776V86.456C107.874 85.8693 107.97 85.3093 108.162 84.776C108.365 84.232 108.653 83.7467 109.026 83.32C109.399 82.8933 109.863 82.5573 110.418 82.312C110.983 82.056 111.623 81.928 112.338 81.928C113.277 81.928 114.066 82.1413 114.706 82.568C115.357 82.984 115.853 83.5333 116.194 84.216C116.535 84.888 116.706 85.624 116.706 86.424V87.288H108.946V85.832H115.154L114.322 86.504C114.322 85.9813 114.247 85.5333 114.098 85.16C113.949 84.7867 113.725 84.504 113.426 84.312C113.138 84.1093 112.775 84.008 112.338 84.008C111.89 84.008 111.511 84.1093 111.202 84.312C110.893 84.5147 110.658 84.8133 110.498 85.208C110.338 85.592 110.258 86.0667 110.258 86.632C110.258 87.1547 110.333 87.6133 110.482 88.008C110.631 88.392 110.866 88.6907 111.186 88.904C111.506 89.1173 111.922 89.224 112.434 89.224C112.903 89.224 113.287 89.1333 113.586 88.952C113.885 88.7707 114.087 88.5467 114.194 88.28H116.546C116.418 88.8667 116.167 89.3893 115.794 89.848C115.421 90.3067 114.951 90.664 114.386 90.92C113.821 91.176 113.17 91.304 112.434 91.304ZM118.402 91V82.232H120.434V85.992H120.386C120.386 84.7547 120.648 83.8 121.17 83.128C121.704 82.456 122.472 82.12 123.474 82.12H123.81V84.328H123.17C122.466 84.328 121.922 84.52 121.538 84.904C121.154 85.2773 120.962 85.8213 120.962 86.536V91H118.402ZM129.072 91V83.224C129.072 81.8907 129.477 80.8773 130.288 80.184C131.109 79.4907 132.229 79.144 133.648 79.144C133.893 79.144 134.181 79.1547 134.512 79.176C134.843 79.1867 135.168 79.208 135.488 79.24C135.819 79.2613 136.085 79.2827 136.288 79.304V81.384C136.085 81.3627 135.813 81.3413 135.472 81.32C135.141 81.288 134.805 81.2667 134.464 81.256C134.133 81.2347 133.861 81.224 133.648 81.224C133.115 81.224 132.683 81.304 132.352 81.464C132.021 81.6133 131.781 81.848 131.632 82.168C131.483 82.488 131.408 82.8773 131.408 83.336V91H129.072ZM127.984 91V89.016H135.6V91H127.984ZM128.08 85.992V84.28H135.184V85.992H128.08ZM135.024 91V87.608H137.024V91H135.024ZM140.316 91V81.048L141.02 81.592H138.028V79.32H142.924V91H140.316ZM145.112 91V88.136H147.928V91H145.112ZM149.247 88.76V86.024L153.679 78.984L155.711 80.312L151.919 86.344L152.143 86.68H159.135V88.76H149.247ZM155.375 91V82.584H157.791V91H155.375ZM160.781 91V79.32H164.397L167.069 85.88H167.373L170.013 79.32H173.693V91H171.101V81.032L171.469 81.064L168.381 88.632H165.885L162.781 81.064L163.181 81.032V91H160.781Z" fill="white"/>
<g clip-path="url(#clip0_18711_120525)">
<path d="M104.351 33.4827C104.698 33.4799 105.042 33.4883 105.382 33.5666C106.491 33.7518 107.574 34.2983 108.331 35.1373C108.85 35.7045 109.248 36.4093 109.419 37.1616C109.594 37.8283 109.598 38.5493 109.52 39.2312C109.356 40.8365 108.773 42.3076 107.982 43.7015C107.101 45.2386 106.014 46.6185 104.843 47.942C104.767 48.026 104.691 48.1103 104.615 48.1947C104.285 48.5621 103.954 48.9301 103.599 49.2727C103.529 49.343 103.465 49.4189 103.401 49.4948L103.401 49.495C103.329 49.5807 103.257 49.6665 103.176 49.7442C102.505 50.4099 101.835 51.0804 101.166 51.7495L100.88 52.0359C100.678 52.2851 100.454 52.5053 100.227 52.7283C100.19 52.7645 100.153 52.8009 100.116 52.8374C99.1652 53.8616 98.3581 55.029 97.7512 56.288C97.2366 57.3156 96.9032 58.403 96.6453 59.52L96.5996 59.5181L96.5419 59.5155C96.5076 59.514 96.4733 59.5124 96.4389 59.511C96.0871 59.1307 95.9842 58.5775 95.9227 58.0791C95.8197 57.3648 95.9042 56.6119 96.0631 55.9116C96.2952 54.9663 96.7539 54.101 97.2701 53.2827C97.9637 52.2428 98.7502 51.2819 99.5853 50.3539C99.7769 50.1303 99.9781 49.9149 100.179 49.6995L100.179 49.6992C100.394 49.4695 100.609 49.2398 100.811 49.0003C101.985 47.7468 103.128 46.5128 104.199 45.1693C105.035 44.1127 105.841 42.9609 106.421 41.7416C106.89 40.8293 107.219 39.8381 107.413 38.8313C107.506 38.3497 107.551 37.8742 107.534 37.3831C107.571 36.6593 107.312 35.9047 106.766 35.4147C106.238 34.9544 105.491 34.743 104.798 34.7709C104.704 34.7723 104.612 34.7717 104.52 34.7711C104.235 34.7693 103.959 34.7675 103.67 34.8246C103.094 34.9337 102.527 35.0691 101.985 35.2995C101.023 35.6586 100.118 36.185 99.3084 36.8148C98.7513 37.2505 98.2758 37.745 97.7926 38.2574C97.4172 38.6925 97.0732 39.1512 96.7427 39.6205C96.2577 40.3482 95.8572 41.1302 95.5524 41.9496C95.3997 42.3926 95.2939 42.8485 95.2156 43.3105C95.1859 43.5659 95.1896 43.8254 95.1933 44.0845C95.1961 44.2784 95.1989 44.4721 95.1877 44.6636C94.9958 44.9763 94.611 44.7777 94.4303 44.5618C94.4236 44.3274 94.394 44.0976 94.3363 43.8705C94.159 43.1383 93.8413 42.4352 93.4526 41.7919C93.1114 41.2024 92.7053 40.6497 92.25 40.1429C91.7588 39.5545 91.1654 39.0483 90.5367 38.6126C90.0092 38.2423 89.4057 37.9777 88.7887 37.797C88.0565 37.6163 87.2348 37.6068 86.5188 37.8625C86.4417 37.4329 86.2727 37.1375 85.9354 36.8612C85.9741 36.853 86.0127 36.8448 86.0511 36.8365C86.4446 36.7521 86.8251 36.6705 87.2348 36.6822C88.1348 36.6509 89.0275 36.892 89.8503 37.241C90.8113 37.6689 91.6845 38.3301 92.4122 39.0858C93.1214 39.8263 93.6942 40.6676 94.1859 41.5654L94.1906 41.5738C94.3075 41.7834 94.4235 41.9913 94.5008 42.2198L94.6065 42.2349C94.8599 41.4669 95.1357 40.7241 95.5104 40.0048C96.1128 38.805 96.873 37.6824 97.7982 36.7074C97.9623 36.4866 98.1623 36.3136 98.364 36.139C98.471 36.0465 98.5785 35.9535 98.6814 35.8527C99.408 35.2246 100.194 34.6826 101.061 34.2642C102.069 33.7826 103.226 33.4458 104.351 33.4827Z" fill="white"/>
<path d="M85.1954 37.2064C85.4074 37.109 85.5831 37.1521 85.7615 37.2886C86.0485 37.5224 86.148 37.9229 86.1486 38.2781C86.1603 38.6747 86.0188 39.0684 85.7224 39.3386C85.5982 39.4522 85.4472 39.517 85.2771 39.5036C85.05 39.5064 84.8984 39.3375 84.7815 39.1641C84.5237 38.7166 84.5343 38.1522 84.7379 37.6869C84.8291 37.4754 84.9784 37.2947 85.1954 37.2064Z" fill="white"/>
<path d="M84.0549 38.0465C83.8071 37.778 83.5067 37.5666 83.1219 37.6443C82.9183 37.698 82.7729 37.8653 82.718 38.065C82.6162 38.3872 82.7158 38.7216 82.8646 39.0119C83.0285 39.3369 83.2858 39.6127 83.6225 39.7604C83.8267 39.8471 84.056 39.8364 84.2311 39.6916C84.4229 39.5361 84.4643 39.2961 84.466 39.0617C84.4862 38.6937 84.2921 38.3172 84.0549 38.0465Z" fill="white"/>
<path d="M86.6442 38.6406C86.8114 38.5667 87.0061 38.579 87.1487 38.6982C87.3646 38.8828 87.4994 39.1686 87.5061 39.4527C87.5212 39.846 87.4603 40.2207 87.1733 40.5099C87.005 40.7023 86.6554 40.7409 86.4702 40.5541C86.237 40.341 86.1184 40.049 86.1324 39.7324C86.11 39.3364 86.28 38.8408 86.6442 38.6406Z" fill="white"/>
<path d="M83.4296 40.1843C83.146 39.9131 82.6599 39.729 82.2812 39.8756C82.0776 39.9617 81.973 40.1899 82.006 40.4036C82.0334 40.657 82.1621 40.8695 82.3343 41.0519C82.5972 41.3293 82.9256 41.5313 83.3222 41.5016C83.5571 41.5094 83.7713 41.3646 83.8295 41.133C83.8865 40.7588 83.6975 40.4293 83.4296 40.1843Z" fill="white"/>
<path d="M85.6591 40.1396C86.129 40.3717 86.4836 40.8337 86.7722 41.2583L86.7803 41.2708C86.9874 41.5898 87.193 41.9067 87.1643 42.3059C87.1632 42.5638 86.9484 42.7081 86.7297 42.7864C86.4949 42.8642 86.2207 42.8515 85.9599 42.8394C85.7953 42.8317 85.6359 42.8243 85.4952 42.8401C85.349 42.8715 85.2141 42.9566 85.0796 43.0413C84.9938 43.0954 84.9083 43.1493 84.8201 43.1891C84.5762 43.3094 84.2775 43.4067 84.018 43.2742C83.8278 43.1478 83.717 42.9235 83.698 42.6992C83.6404 42.1213 83.8233 41.5374 84.0443 41.0099C84.2098 40.6189 84.485 40.2425 84.8833 40.0674C85.1311 39.9432 85.4219 40.0288 85.6591 40.1396Z" fill="white"/>
<path d="M91.4797 40.969C91.3349 40.8409 91.1598 40.7291 90.9595 40.7984C90.6195 40.8706 90.3996 41.1838 90.285 41.4909C90.1311 41.9283 90.111 42.5 90.3991 42.8876C90.5585 43.1181 90.8684 43.1846 91.1117 43.0509C91.5922 42.7785 91.7902 42.222 91.7438 41.6906C91.7404 41.435 91.652 41.1603 91.4797 40.969Z" fill="white"/>
<path d="M88.7182 41.0597C89.121 40.9646 89.4213 41.204 89.6596 41.4977C89.8688 41.7891 90.0338 42.1639 89.9997 42.5303C89.9785 42.7842 89.9175 43.0404 89.6954 43.1936C89.4885 43.3435 89.2161 43.2865 89.0147 43.1578C88.7585 42.985 88.5493 42.7355 88.4335 42.448C88.3138 42.1555 88.2254 41.8467 88.3194 41.5324C88.372 41.3198 88.5085 41.1352 88.7182 41.0597Z" fill="white"/>
<path d="M143.44 41.5877C143.118 41.3298 142.691 41.2778 142.3 41.3875C141.793 41.5474 141.445 42.0536 141.484 42.5861C141.492 43.2109 142.043 43.7378 142.667 43.7272C143.296 43.7535 143.889 43.2266 143.878 42.585C143.909 42.194 143.745 41.8305 143.44 41.5877Z" fill="white"/>
<path d="M82.5508 41.703C82.8143 41.8081 83.0632 41.8898 83.3513 41.8904C83.2464 42.1608 83.2765 42.4886 83.3028 42.7759L83.3059 42.8105C83.3406 43.1534 83.5448 43.4621 83.8496 43.6232C83.9281 43.6622 84.0127 43.6851 84.0971 43.708C84.1692 43.7276 84.2411 43.7471 84.3089 43.7765C84.3335 43.8056 84.3525 43.8392 84.3648 43.8777C84.7871 45.3807 85.6368 46.7696 86.5586 48.0164C86.8931 48.4398 87.2337 48.8694 87.6275 49.2397C87.722 49.3315 87.8134 49.4249 87.9045 49.5179C88.0998 49.7172 88.2933 49.9148 88.5107 50.091C89.3492 50.8517 90.2436 51.5381 91.1676 52.1908C92.0576 52.796 92.9391 53.385 93.9017 53.8728C94.0522 53.9483 94.2032 54.0082 94.3688 54.0412L94.3718 54.0596L94.3806 54.1157L94.3823 54.1262L94.385 54.143C94.3348 54.1427 94.2833 54.1435 94.2313 54.1443C94.042 54.1473 93.8449 54.1503 93.6685 54.1038C93.1755 53.9835 92.6849 53.7603 92.218 53.5478L92.216 53.5468C92.1755 53.5284 92.1352 53.5101 92.095 53.4919C92.0093 53.4497 91.9231 53.408 91.8369 53.3663L91.8355 53.3656L91.8351 53.3654L91.8346 53.3651L91.8342 53.365C91.5969 53.2501 91.3591 53.135 91.1279 53.0086C90.4724 52.6333 89.8112 52.2529 89.2026 51.8038C88.2254 51.1253 87.3165 50.3377 86.4736 49.4992C86.3864 49.4026 86.298 49.3072 86.2096 49.2119C86.01 48.9965 85.8105 48.7814 85.6256 48.5522C85.278 48.169 84.9749 47.7418 84.6749 47.3191C84.6452 47.2772 84.6154 47.2353 84.5857 47.1936C83.9956 46.3249 83.4922 45.3902 83.1147 44.4097C82.8025 43.5584 82.5402 42.6147 82.5508 41.703Z" fill="white"/>
<path d="M119.71 45.0468C119.585 44.2464 119.267 43.4828 118.673 42.9173C117.889 42.1499 116.78 41.8104 115.697 41.9144C115.187 41.9715 114.755 42.184 114.309 42.4234C114.104 42.5342 113.938 42.688 113.77 42.8474C113.771 42.766 113.771 42.6846 113.771 42.6033C113.771 42.4408 113.771 42.2785 113.772 42.1163C113.519 42.1161 113.267 42.1163 113.014 42.1165H113.013C112.559 42.1167 112.105 42.117 111.651 42.1152C111.65 43.2412 111.65 44.3673 111.651 45.4933C111.651 47.5214 111.651 49.5496 111.649 51.5778C112.205 51.5747 112.761 51.5754 113.317 51.5761C113.469 51.5763 113.62 51.5765 113.772 51.5767C113.77 50.4648 113.77 49.3529 113.77 48.2411C113.771 47.605 113.771 46.9689 113.77 46.3327C113.763 45.8892 113.832 45.4299 114.002 45.0188C114.215 44.5232 114.653 44.1065 115.174 43.9527C115.62 43.8196 116.105 43.8185 116.543 43.9835C116.864 44.1088 117.124 44.3386 117.29 44.6413C117.584 45.1531 117.639 45.8092 117.645 46.3881C117.646 48.1176 117.646 49.8477 117.645 51.5772C118.161 51.5752 118.676 51.5755 119.191 51.5758C119.384 51.576 119.577 51.5761 119.77 51.5761C119.766 50.5609 119.767 49.5456 119.767 48.5305C119.768 47.8538 119.768 47.1771 119.767 46.5005C119.766 46.3911 119.767 46.2831 119.768 46.176C119.77 45.7977 119.772 45.4304 119.71 45.0468Z" fill="white"/>
<path d="M130.522 42.1169C130.866 42.1158 131.21 42.1161 131.554 42.1164C131.897 42.1167 132.241 42.1169 132.585 42.1158C132.582 42.4859 132.582 42.8562 132.582 43.2264C132.583 43.5813 132.583 43.9363 132.58 44.2911C133.066 44.2953 133.552 44.2941 134.038 44.293L134.35 44.2923C134.352 44.8276 134.352 45.3634 134.35 45.8987C133.761 45.897 133.171 45.897 132.581 45.8987C132.583 46.4699 132.583 47.0421 132.582 47.6142V47.6145C132.582 48.0826 132.582 48.5508 132.583 49.0182C132.588 49.2957 132.656 49.5613 132.875 49.7482C133.058 49.9204 133.319 49.9227 133.552 49.8835C133.861 49.8214 134.084 49.6307 134.281 49.3952C134.398 49.6102 134.512 49.8266 134.626 50.0431L134.626 50.0434L134.626 50.0442C134.763 50.3049 134.901 50.5658 135.043 50.8238C134.729 51.1219 134.355 51.3792 133.948 51.5325C133.106 51.8457 132.076 51.7232 131.382 51.1292C130.919 50.7595 130.647 50.2141 130.562 49.6329C130.518 49.3629 130.52 49.0985 130.522 48.8296V48.8266C130.523 48.7601 130.523 48.6933 130.523 48.6261C130.523 47.7094 130.523 46.7926 130.523 45.8759V45.8342C130.523 44.5951 130.523 43.356 130.522 42.1169Z" fill="white"/>
<path d="M92.7254 42.5203C92.5816 42.3625 92.3836 42.3088 92.1828 42.3955C91.958 42.4928 91.7879 42.7283 91.6928 42.947C91.5647 43.2799 91.5055 43.6994 91.6761 44.0266C91.7532 44.1826 91.8752 44.3644 92.0547 44.4081C92.1991 44.4271 92.3842 44.4299 92.5017 44.3298C92.7383 44.1452 92.8921 43.8873 92.9424 43.5914C93.0263 43.2105 92.9928 42.8217 92.7254 42.5203Z" fill="white"/>
<path d="M87.7617 43.1785C88.382 43.0756 88.9733 43.5471 89.1517 44.1216C89.1914 44.3498 89.216 44.6474 89.0023 44.8006C88.7635 44.9841 88.3736 44.898 88.1303 44.7671C87.7556 44.5428 87.3987 44.1037 87.4149 43.6461C87.406 43.4375 87.5631 43.2339 87.7617 43.1785Z" fill="white"/>
<path fill-rule="evenodd" clip-rule="evenodd" d="M145.974 42.1158C146.49 42.1168 147.005 42.1166 147.521 42.1164C148.178 42.1161 148.834 42.1159 149.491 42.1181C150.238 42.136 151.03 42.2389 151.722 42.5365C152.295 42.7798 152.776 43.2205 153.039 43.7877C153.352 44.4455 153.409 45.2247 153.358 45.9418C153.296 46.5442 153.152 47.117 152.776 47.6047C152.466 48.0142 152.04 48.2743 151.569 48.4622C150.951 48.7061 150.316 48.7777 149.658 48.8163C149.369 48.8179 149.081 48.8174 148.792 48.8169H148.791C148.384 48.8162 147.977 48.8155 147.57 48.8208C147.57 49.2382 147.57 49.6558 147.57 50.0734V50.0805C147.57 50.5792 147.57 51.078 147.571 51.5767C147.038 51.5756 146.506 51.575 145.973 51.5772C145.975 48.8738 145.975 46.1699 145.974 43.4663L145.974 42.1158ZM149.435 43.5729L149.474 43.5759C150.034 43.6179 150.629 43.6626 151.108 43.9823C151.471 44.2229 151.66 44.6206 151.705 45.0451C151.743 45.4898 151.721 45.9625 151.544 46.3781C151.409 46.6902 151.192 46.9587 150.878 47.103C150.472 47.2926 149.99 47.3452 149.547 47.3586C148.961 47.3611 148.375 47.36 147.79 47.359L147.57 47.3586C147.571 46.8862 147.571 46.4135 147.57 45.9408V45.9404C147.569 45.1521 147.568 44.3633 147.574 43.5757C148.012 43.569 148.451 43.5704 148.89 43.5718L148.891 43.5718C149.072 43.5723 149.254 43.5729 149.435 43.5729Z" fill="white"/>
<path d="M90.8578 43.6669C91.2102 43.8061 91.5021 44.1171 91.7186 44.4203C91.9317 44.7386 92.1286 45.0742 92.2752 45.4288C92.3658 45.6755 92.448 45.9731 92.3221 46.2214C92.1583 46.4759 91.8847 46.5447 91.5978 46.5414C91.4307 46.5504 91.2697 46.5242 91.1117 46.4986C90.9064 46.4653 90.7062 46.4328 90.5043 46.4793C90.3935 46.5201 90.2912 46.5691 90.191 46.6171C89.9506 46.7324 89.7218 46.842 89.4146 46.8199C89.1411 46.8216 88.9599 46.6102 88.8922 46.3635C88.8223 45.8338 88.966 45.3471 89.187 44.8717C89.3962 44.4158 89.644 43.9706 90.0987 43.7211C90.3269 43.5802 90.6117 43.5673 90.8578 43.6669Z" fill="white"/>
<path d="M140.335 45.4032C140.338 44.9918 140.34 44.58 140.311 44.1709C139.46 44.1999 138.742 44.6262 138.146 45.2079C138.146 45.0728 138.146 44.9379 138.146 44.8029C138.147 44.6345 138.147 44.4662 138.148 44.2978C137.752 44.2917 137.356 44.2925 136.96 44.2932C136.671 44.2938 136.382 44.2944 136.093 44.2922C136.092 45.3329 136.092 46.3735 136.093 47.4141V47.4208C136.093 48.8061 136.093 50.1914 136.091 51.5767C136.385 51.5745 136.679 51.5751 136.973 51.5757C137.365 51.5766 137.757 51.5774 138.149 51.5716C138.145 50.7769 138.145 49.9822 138.146 49.1874C138.146 48.9071 138.146 48.6267 138.146 48.3464C138.139 47.8503 138.234 47.3357 138.475 46.8988C138.66 46.5654 138.964 46.2818 139.337 46.1806C139.645 46.0901 139.95 46.0886 140.265 46.087L140.336 46.0866C140.332 45.8594 140.334 45.6314 140.335 45.4032Z" fill="white"/>
<path d="M121.773 44.2978C122.291 44.2893 122.812 44.2917 123.331 44.2942L123.332 44.2942C123.499 44.2949 123.667 44.2957 123.834 44.2961C123.833 45.7023 123.831 47.1091 123.834 48.5153C123.846 48.974 123.989 49.5188 124.405 49.775C124.923 50.0759 125.645 49.9512 126.066 49.5328C126.403 49.2307 126.535 48.7888 126.538 48.3469C126.54 47.5164 126.539 46.6854 126.539 45.8545C126.539 45.3346 126.539 44.8147 126.539 44.295C126.902 44.2923 127.265 44.2928 127.629 44.2932C127.956 44.2937 128.283 44.2941 128.61 44.2922C128.61 44.9666 128.61 45.6409 128.61 46.3153C128.609 48.0691 128.608 49.8228 128.612 51.5766C128.315 51.575 128.019 51.5754 127.722 51.5759C127.327 51.5766 126.932 51.5772 126.537 51.5727C126.539 51.3706 126.539 51.1682 126.538 50.9659C126.538 50.8648 126.538 50.7637 126.538 50.6627C126.243 51.0704 125.864 51.4105 125.38 51.5722C124.799 51.7718 124.186 51.7226 123.605 51.5537C122.942 51.3434 122.343 50.8629 122.049 50.2247C121.847 49.7822 121.76 49.2788 121.769 48.7939C121.769 48.2597 121.769 47.723 121.768 47.1857V47.1804C121.767 46.2179 121.766 45.2533 121.773 44.2978Z" fill="white"/>
<path d="M142.839 44.2933C142.45 44.2922 142.061 44.2911 141.674 44.2972C141.66 44.3587 141.652 44.4214 141.65 44.4852C141.65 44.985 141.651 45.486 141.651 45.9876V46.0011C141.651 47.8579 141.652 49.7231 141.649 51.5727C142.115 51.5769 142.581 51.5762 143.046 51.5754C143.267 51.5751 143.487 51.5748 143.708 51.5749C143.706 50.4005 143.706 49.2259 143.707 48.0513C143.707 46.7985 143.707 45.5456 143.705 44.2927C143.417 44.2949 143.128 44.2941 142.839 44.2933Z" fill="white"/>
<path d="M174.305 44.3902H174.306C174.595 44.3897 174.884 44.3893 175.173 44.3918C174.973 45.0172 174.755 45.6367 174.536 46.2563L174.536 46.2573C174.35 46.7851 174.164 47.313 173.99 47.8447C173.711 48.6316 173.439 49.421 173.167 50.2104L173.167 50.211C173.01 50.6665 172.853 51.1221 172.695 51.5772C172.215 51.5745 171.734 51.5751 171.253 51.5757L170.933 51.5761C170.681 50.8465 170.428 50.1174 170.175 49.3885L170.155 49.3302L170.153 49.3247C169.849 48.4481 169.545 47.5717 169.241 46.6946C169.103 47.0523 168.979 47.4153 168.855 47.7783L168.855 47.7786C168.796 47.9531 168.736 48.1277 168.675 48.3017C168.525 48.7543 168.365 49.2048 168.206 49.6553L168.205 49.6562C167.981 50.291 167.756 50.926 167.557 51.5677C166.963 51.5806 166.361 51.5806 165.767 51.5677C165.711 51.361 165.64 51.1598 165.569 50.9584L165.568 50.9562C165.549 50.9022 165.53 50.8482 165.512 50.7941C165.279 50.1364 165.052 49.4771 164.825 48.8178L164.825 48.8163C164.574 48.0883 164.323 47.3604 164.066 46.6348C163.941 46.2524 163.808 45.8731 163.675 45.4938C163.546 45.1274 163.417 44.7609 163.297 44.3918C163.827 44.3896 164.357 44.389 164.887 44.3918C165.047 44.9148 165.221 45.434 165.394 45.953C165.452 46.1262 165.51 46.2993 165.567 46.4726L165.615 46.6196C165.961 47.6809 166.307 48.7421 166.663 49.8007C166.818 49.3032 166.984 48.8088 167.149 48.3145L167.149 48.3141C167.276 47.9354 167.403 47.5566 167.525 47.1768C167.672 46.7061 167.829 46.2384 167.986 45.7708L167.986 45.7702L167.986 45.7682C168.14 45.3097 168.294 44.8513 168.439 44.3901L168.638 44.3903C169.104 44.3909 169.569 44.3914 170.034 44.389C170.27 45.111 170.508 45.8323 170.746 46.5537C171.103 47.6359 171.46 48.7182 171.81 49.803C171.959 49.3774 172.097 48.9482 172.236 48.5191C172.32 48.2567 172.405 47.9943 172.492 47.7328C172.707 47.0975 172.915 46.4595 173.122 45.8214L173.123 45.8209L173.123 45.8193C173.278 45.3424 173.433 44.8654 173.592 44.3896C173.83 44.3908 174.068 44.3905 174.305 44.3902Z" fill="white"/>
<path fill-rule="evenodd" clip-rule="evenodd" d="M157.656 44.291C157.69 44.2899 157.724 44.2887 157.759 44.2875C158.137 44.2739 158.532 44.2597 158.887 44.3828C159.521 44.5746 160.061 45.0607 160.425 45.6033C160.425 45.4946 160.425 45.3858 160.426 45.2771V45.2766C160.427 44.9831 160.428 44.6895 160.421 44.3962C160.723 44.3879 161.026 44.3891 161.329 44.3902C161.537 44.391 161.745 44.3918 161.954 44.3895C161.954 45.0479 161.953 45.7063 161.953 46.3647L161.953 46.418C161.952 48.1366 161.951 49.8553 161.956 51.5738C161.539 51.5765 161.121 51.5759 160.703 51.5753L160.424 51.5749C160.426 51.1946 160.426 50.8142 160.425 50.4344C160.061 50.9624 159.52 51.345 158.913 51.5447C158.269 51.7662 157.568 51.741 156.923 51.533C156.225 51.2941 155.612 50.7974 155.193 50.1939C154.722 49.512 154.554 48.6596 154.565 47.8429C154.594 47.0867 154.772 46.3148 155.236 45.7017C155.802 44.9399 156.703 44.3805 157.656 44.291ZM157.855 45.652C158.266 45.5832 158.724 45.5893 159.109 45.7689C159.864 46.1062 160.374 46.8697 160.433 47.6908C160.456 48.1601 160.452 48.6121 160.258 49.0489C159.989 49.6877 159.379 50.2023 158.691 50.3192C158.257 50.3824 157.815 50.3427 157.415 50.1537C156.919 49.9165 156.498 49.5003 156.283 48.9902C156.095 48.555 156.075 48.0835 156.125 47.6176C156.243 46.6952 156.936 45.8578 157.855 45.652Z" fill="white"/>
</g>
<defs>
<clipPath id="clip0_18711_120525">
<rect width="93" height="93" fill="white" transform="translate(82)"/>
</clipPath>
</defs>
</svg>
