<svg xmlns="http://www.w3.org/2000/svg" width="313" height="197" fill="none" viewBox="0 0 313 197"><mask id="mask0_32702_2882" width="313" height="197" x="0" y="0" maskUnits="userSpaceOnUse" style="mask-type:alpha"><path fill="url(#paint0_linear_32702_2882)" d="M0 0h313v196.354H0z"/></mask><g mask="url(#mask0_32702_2882)"><g filter="url(#filter0_ddd_32702_2882)"><g clip-path="url(#clip0_32702_2882)"><rect width="262.453" height="158.38" x="26.246" y="35.68" fill="url(#paint1_linear_32702_2882)" fill-opacity=".2" rx="11.796" shape-rendering="crispEdges"/><path fill="#000" fill-opacity=".2" d="M26.246 94.656H288.7v99.402H26.246z"/><path fill="#fff" d="m38.194 126.824 2.843-8.611h3.126l2.949 8.611h-2.005l-2.383-7.278.613.248h-1.521l.637-.248-2.324 7.278zm2.159-2.135.59-1.604h3.373l.602 1.604zm7.776 2.135v-6.464h1.498v2.784h-.106q0-.991.248-1.651.247-.661.743-.991.495-.342 1.215-.342h.082q.732 0 1.215.342.495.33.743.991.26.66.26 1.651h-.46q0-.991.248-1.651.258-.661.754-.991.496-.342 1.215-.342h.083q.731 0 1.227.342.507.33.766.991.26.66.26 1.651v3.68h-1.887v-3.786q0-.531-.283-.861-.271-.33-.779-.331-.507 0-.802.343-.295.33-.295.884v3.751h-1.9v-3.786q0-.531-.282-.861-.272-.33-.767-.331-.519 0-.814.343-.294.33-.295.884v3.751zm14.75.224q-.85 0-1.51-.259a3.4 3.4 0 0 1-1.121-.731 3.2 3.2 0 0 1-.684-1.05 3.4 3.4 0 0 1-.236-1.262v-.272q0-.672.236-1.274.247-.613.707-1.073a3.4 3.4 0 0 1 1.133-.72q.66-.27 1.474-.271.838 0 1.487.271.66.26 1.12.72t.708 1.073q.248.602.248 1.274v.272q-.001.66-.236 1.262-.237.59-.696 1.05-.45.46-1.11.731-.66.26-1.52.259m0-1.592q.553 0 .92-.236.365-.235.554-.661.2-.424.2-.943 0-.555-.2-.967a1.6 1.6 0 0 0-.578-.673q-.366-.248-.897-.248-.52 0-.896.248a1.6 1.6 0 0 0-.578.673 2.3 2.3 0 0 0-.189.967q0 .519.189.943.188.426.566.661t.908.236m7.06 1.569q-1.12 0-1.721-.72-.602-.731-.602-2.194v-3.751h1.887v3.846q0 .519.295.825.295.307.79.307.508 0 .826-.319.32-.318.319-.861v-3.798h1.887v6.464h-1.498v-2.725h.13q0 .98-.26 1.64-.248.65-.743.967-.495.32-1.227.319zm5.421-.201v-6.464h1.498v2.772h-.106q0-.99.248-1.651.26-.661.778-.991.519-.33 1.263-.33h.082q1.133 0 1.722.743.602.73.602 2.229v3.692H79.56v-3.798q0-.519-.307-.849-.306-.33-.826-.331-.53 0-.86.343-.32.33-.32.872v3.763zm10.632.083q-.979 0-1.58-.236a1.66 1.66 0 0 1-.885-.814q-.27-.577-.271-1.557v-5.686h1.757v5.757q0 .46.236.707.248.237.696.236h.956v1.593zm-3.715-5.167v-1.38H86.9v1.38z" opacity=".8"/><rect width="238.862" height="7.372" x="38.041" y="137.723" fill="#000" fill-opacity=".13" rx="3.686"/><path fill="#128081" d="M38.043 141.409a3.686 3.686 0 0 1 3.686-3.686h154.818v7.372H41.729a3.686 3.686 0 0 1-3.686-3.686"/><g filter="url(#filter1_dd_32702_2882)"><circle cx="196.915" cy="141.778" r="6.266" fill="#128081"/></g><path fill="#fff" d="M40.719 163.992v-7.16h1.934v7.16zm-2.419-6.924v-1.687h6.783v1.687zm10.037 7.148q-.825 0-1.463-.283a3.1 3.1 0 0 1-1.05-.755 3.6 3.6 0 0 1-.637-1.073 3.7 3.7 0 0 1-.212-1.227v-.236q0-.648.212-1.238.225-.601.637-1.074a2.9 2.9 0 0 1 1.026-.743 3.4 3.4 0 0 1 1.416-.283q1.038 0 1.746.472.72.46 1.097 1.215.377.743.377 1.628v.637h-5.72v-1.074h4.576l-.614.496q0-.579-.165-.991a1.28 1.28 0 0 0-.495-.625q-.318-.225-.802-.225-.495 0-.838.225a1.4 1.4 0 0 0-.519.66q-.177.424-.177 1.05 0 .577.166 1.014.165.425.518.661.354.236.92.236.52 0 .85-.201.33-.2.448-.495h1.734q-.142.649-.554 1.156a2.8 2.8 0 0 1-1.038.79q-.626.283-1.44.283m4.4-.224v-6.464h1.498v2.772h-.036q0-1.368.578-2.111.59-.744 1.699-.743h.248v1.627h-.472q-.78 0-1.203.425-.425.412-.425 1.203v3.291zm4.964 0v-6.464H59.2v2.784h-.107q0-.991.248-1.651.248-.661.743-.991.495-.342 1.215-.342h.083q.73 0 1.215.342.495.33.743.991.26.66.26 1.651h-.46q0-.991.247-1.651.26-.661.755-.991.495-.342 1.215-.342h.082q.732 0 1.227.342.507.33.767.991.26.66.26 1.651v3.68h-1.888v-3.786q0-.531-.283-.861-.27-.33-.779-.331-.507 0-.802.342-.294.332-.295.885v3.751h-1.899v-3.786q0-.531-.283-.861-.27-.33-.767-.331-.519 0-.813.342-.295.332-.295.885v3.751z" opacity=".8"/><rect width="238.862" height="7.372" x="38.041" y="174.891" fill="#000" fill-opacity=".13" rx="3.686"/><path fill="#128081" d="M38.043 178.577a3.686 3.686 0 0 1 3.686-3.686h121.643v7.372H41.729a3.686 3.686 0 0 1-3.686-3.686"/><g filter="url(#filter2_dd_32702_2882)"><circle cx="167.421" cy="178.946" r="6.266" fill="#128081"/></g></g><rect width="261.967" height="157.894" x="26.489" y="35.923" stroke="#000" stroke-opacity=".27" stroke-width=".486" rx="11.553" shape-rendering="crispEdges"/></g><path fill="#fff" d="M75.662 82.812q-1.747 0-3.574-.284a26 26 0 0 1-3.37-.751q-1.543-.467-2.538-.954l.487-5.36q1.341.71 2.802 1.238 1.462.508 2.904.792 1.461.264 2.781.264t2.294-.345q.975-.345 1.523-1.097.548-.75.548-1.969 0-1.096-.73-1.807-.712-.711-2.031-1.218a35 35 0 0 0-3.045-1.056q-2.538-.73-4.325-1.705-1.767-.975-2.7-2.497-.934-1.523-.934-3.858 0-2.436 1.056-4.284 1.055-1.868 3.207-2.923 2.152-1.056 5.421-1.056 1.26 0 2.558.162 1.32.163 2.538.447t2.274.63 1.827.73l-.467 5.441a13.8 13.8 0 0 0-2.578-1.258 15.7 15.7 0 0 0-2.62-.751q-1.257-.244-2.314-.244a6.2 6.2 0 0 0-2.111.345q-.954.325-1.523 1.015-.548.69-.548 1.787 0 .994.528 1.644.528.63 1.624 1.117 1.117.488 2.883 1.035 3.289.995 5.177 2.091 1.909 1.077 2.72 2.579.813 1.482.813 3.654 0 2.559-1.117 4.467-1.096 1.888-3.43 2.944-2.335 1.035-6.01 1.035m-1.868 5.056v-8.04H78.3v8.04zm0-31.185v-6.984H78.3v6.983z" opacity=".9"/><path fill="#fff" d="M102.265 13.325q-3.776 0-6.314-1.604-2.517-1.604-3.796-4.751-1.28-3.167-1.28-7.837 0-3.877.853-6.7.853-2.822 2.437-4.608a9.6 9.6 0 0 1 3.776-2.66q2.193-.873 4.852-.873 1.137 0 2.213.122a16.5 16.5 0 0 1 2.071.365q.994.224 1.929.528.954.304 1.827.67l-.548 5.624a12 12 0 0 0-1.726-.873 13 13 0 0 0-1.807-.63 14 14 0 0 0-1.807-.365 11 11 0 0 0-1.746-.142q-2.315 0-3.674 1.056-1.36 1.035-1.97 3.187-.588 2.153-.589 5.441 0 3.087.61 5.035.608 1.93 1.725 2.843 1.137.913 2.68.913 1.482 0 2.437-.629a3.94 3.94 0 0 0 1.441-1.685q.467-1.035.467-2.254 0-1.218-.467-2.172a3.37 3.37 0 0 0-1.381-1.502q-.934-.57-2.395-.569-.61 0-1.259.102-.63.101-1.3.365-.649.264-1.32.73-.669.448-1.339 1.178-.73-.933-.975-1.543a1.83 1.83 0 0 1 0-1.258q.244-.65.934-1.625l.69.041a7.4 7.4 0 0 1 1.3-1.035 8.5 8.5 0 0 1 1.523-.792 9 9 0 0 1 1.766-.487 10 10 0 0 1 1.949-.183q2.517 0 4.426 1.056a7.37 7.37 0 0 1 2.985 2.984q1.076 1.93 1.076 4.568 0 2.559-1.097 4.852-1.096 2.274-3.37 3.696-2.273 1.42-5.807 1.42" opacity=".2"/><path fill="#fff" d="M101.316 48.079q-1.42 0-2.801-.163a26 26 0 0 1-2.62-.446 23 23 0 0 1-2.334-.69 18 18 0 0 1-1.929-.813l.467-5.684q1.096.568 2.193 1.035 1.116.467 2.213.812 1.116.325 2.172.508 1.055.182 2.051.182 2.599 0 3.796-1.157 1.198-1.157 1.198-3.248 0-1.503-.629-2.437-.609-.954-1.746-1.4-1.117-.447-2.619-.447-1.219 0-2.437.284-1.197.284-2.416 1.056l-2.68-.203V19.614h17.542v5.36H97.114l1.868-1.97q0 1.544-.041 3.087-.021 1.543-.06 3.066l-.021 1.441h.487q1.035-.507 2.152-.771a10.3 10.3 0 0 1 2.335-.264q2.315 0 4.203.974 1.908.975 3.025 2.944 1.116 1.95 1.116 4.852 0 2.904-1.198 5.096-1.177 2.193-3.593 3.432-2.396 1.218-6.071 1.218" opacity=".5"/><path fill="#fff" d="M103.192 82.305v-8.162l.345-.893V57.069l4.365-1.726q-1.075 1.542-2.091 3.005-1.015 1.44-2.051 2.883l-4.466 6.354q-.915 1.28-1.807 2.538-.873 1.26-1.766 2.558l-.204-1.36h9.238l.65-.244h8.06v5.36h-22.86v-4.182q.79-1.137 1.766-2.518l1.99-2.801 1.867-2.62 3.35-4.77a947 947 0 0 0 1.847-2.579l1.828-2.599h6.172v27.937z" opacity=".9"/><path fill="#fff" d="M101.459 117.583q-1.463 0-2.863-.163a26 26 0 0 1-2.66-.447 24 24 0 0 1-2.355-.69 19 19 0 0 1-1.949-.812l.467-5.685q1.096.568 2.213 1.036 1.116.467 2.213.812 1.116.325 2.193.507 1.096.183 2.091.183 2.639 0 3.776-.974 1.137-.995 1.137-2.538 0-1.807-1.462-2.721-1.461-.933-4.182-.934h-3.431v-4.588h3.045q1.847 0 3.005-.426 1.157-.447 1.685-1.239.549-.792.548-1.847 0-1.625-1.198-2.416-1.177-.812-3.126-.812-.954 0-1.97.203-.995.202-2.01.568-1.014.346-2.01.832-.995.487-1.928 1.097l-.569-5.766a22 22 0 0 1 4.345-1.564 25 25 0 0 1 2.558-.487q1.32-.182 2.64-.183 3.086 0 5.258.894 2.172.873 3.309 2.497 1.158 1.605 1.157 3.797 0 1.746-.69 3.025a5.9 5.9 0 0 1-1.868 2.091 7.2 7.2 0 0 1-2.578 1.096v.488a8.6 8.6 0 0 1 2.132.71q1.056.488 1.908 1.34a6.3 6.3 0 0 1 1.36 2.071q.508 1.218.508 2.863 0 2.354-1.157 4.223-1.137 1.847-3.513 2.903-2.355 1.056-6.029 1.056" opacity=".3"/><path fill="#fff" d="m121.424 6.218-1.442-4.852q2.762-1.34 5.523-2.66l5.522-2.68-.223 5.583q-2.356 1.158-4.69 2.315-2.335 1.137-4.69 2.294m6.375 17.907V-1.213l3.228-2.76 3.025.182v27.916z" opacity=".2"/><path fill="#fff" d="M128.712 59.387q-3.167 0-5.441-1.097-2.253-1.116-3.675-3.086-1.4-1.97-2.071-4.609-.65-2.64-.649-5.684 0-4.284 1.238-7.553 1.239-3.289 3.817-5.136 2.6-1.848 6.639-1.848 3.065 0 5.279 1.076a9.63 9.63 0 0 1 3.654 3.005q1.442 1.929 2.132 4.588.71 2.66.71 5.847 0 4.365-1.279 7.634t-3.857 5.076q-2.579 1.785-6.497 1.786m-.081-5.198q1.929 0 3.066-1.198 1.157-1.218 1.685-3.31.528-2.11.528-4.79 0-2.823-.569-4.893-.548-2.092-1.726-3.249-1.157-1.157-2.984-1.157-1.868 0-3.045 1.177-1.157 1.178-1.706 3.27-.548 2.09-.548 4.851 0 2.721.507 4.812.528 2.09 1.686 3.29 1.177 1.197 3.106 1.197" opacity=".9"/><path fill="#fff" d="M126.979 94.157q-1.137 0-2.213-.122a17 17 0 0 1-2.091-.365 23 23 0 0 1-1.949-.528 21 21 0 0 1-1.787-.67l.548-5.624q.833.488 1.706.873.892.386 1.807.65.913.243 1.806.365.915.122 1.746.122 2.314 0 3.675-1.036 1.381-1.056 1.97-3.207.588-2.153.588-5.441 0-3.087-.609-5.015-.609-1.95-1.725-2.863-1.117-.914-2.68-.914-1.483 0-2.437.65-.954.63-1.421 1.665a5.4 5.4 0 0 0-.467 2.254q0 1.218.447 2.172a3.6 3.6 0 0 0 1.401 1.523q.933.548 2.375.548a8 8 0 0 0 1.239-.102q.65-.101 1.319-.365a6.6 6.6 0 0 0 1.32-.71q.67-.468 1.34-1.199.752.934.974 1.564a1.68 1.68 0 0 1 0 1.258q-.222.63-.913 1.604l-.711-.04a9 9 0 0 1-1.299 1.035 8.5 8.5 0 0 1-1.523.792 9.7 9.7 0 0 1-1.746.507q-.933.163-1.949.163-2.517 0-4.446-1.056a7.54 7.54 0 0 1-2.985-2.984q-1.055-1.93-1.055-4.568 0-2.559 1.096-4.832 1.096-2.294 3.35-3.716 2.274-1.42 5.827-1.42 3.756 0 6.293 1.603 2.538 1.605 3.817 4.771 1.28 3.147 1.279 7.817 0 3.877-.873 6.7-.852 2.821-2.436 4.628a9.7 9.7 0 0 1-3.756 2.66q-2.193.853-4.852.853" opacity=".3"/><path fill="#fff" d="M128.177 128.911q-3.756 0-6.193-1.097-2.415-1.096-3.593-2.984-1.158-1.889-1.157-4.304 0-2.234.852-3.675.853-1.462 2.132-2.254 1.299-.811 2.619-1.116v-.467a7.1 7.1 0 0 1-2.416-1.097 6 6 0 0 1-1.746-1.969q-.67-1.218-.67-2.863 0-2.172 1.198-3.796 1.218-1.645 3.492-2.538 2.294-.893 5.482-.893 3.187 0 5.461.893t3.472 2.538q1.218 1.624 1.218 3.796 0 1.645-.67 2.863a5.6 5.6 0 0 1-1.766 1.969q-1.097.772-2.396 1.097v.467q1.32.305 2.599 1.116 1.299.813 2.152 2.274.852 1.441.852 3.655 0 2.415-1.177 4.304-1.158 1.888-3.573 2.984t-6.172 1.097m0-5.218q1.644 0 2.68-.508 1.055-.507 1.543-1.36.487-.873.487-1.969 0-1.239-.609-2.091-.589-.853-1.685-1.28-1.077-.446-2.457-.446-1.36 0-2.436.446-1.056.427-1.665 1.28-.59.852-.589 2.091 0 1.096.487 1.969.488.853 1.543 1.36 1.056.508 2.701.508m0-12.161q1.948 0 3.025-.955 1.076-.954 1.076-2.456 0-1.584-1.137-2.416-1.118-.833-2.964-.833-1.848 0-2.964.833-1.117.832-1.117 2.416 0 1.015.467 1.786.487.772 1.401 1.198.913.427 2.213.427" opacity=".1"/><path fill="#fff" d="M145.355 12.797V8.574q1.117-.955 2.213-1.888l2.234-1.868q2.598-2.193 4.466-4.101t2.863-3.675.995-3.553q0-1.95-1.097-2.923-1.096-.995-3.309-.995-.954 0-1.969.223-.995.202-2.01.61-1.016.384-2.031.913a21 21 0 0 0-1.949 1.177l-.548-5.969a20 20 0 0 1 2.051-.832q1.137-.406 2.396-.71a24 24 0 0 1 2.619-.508 20 20 0 0 1 2.72-.183q3.086 0 5.218 1.015 2.152.995 3.248 2.883 1.117 1.868 1.117 4.487 0 2.153-.893 4.284-.894 2.112-2.721 4.243-1.807 2.132-4.588 4.304l-4 3.147-.771-1.218h13.298v5.36z" opacity=".05"/><path fill="#fff" d="m148.424 29.644-1.442-4.852q2.762-1.34 5.523-2.66l5.522-2.68-.223 5.583q-2.355 1.157-4.69 2.315-2.335 1.136-4.69 2.294m6.375 17.907V22.213l3.228-2.761 3.025.183V47.55z" opacity=".2"/><path fill="#fff" d="M155.712 82.812q-3.167 0-5.441-1.096-2.253-1.116-3.675-3.086-1.4-1.97-2.071-4.609-.65-2.64-.649-5.684 0-4.284 1.238-7.553 1.239-3.29 3.817-5.137 2.6-1.847 6.639-1.847 3.065 0 5.279 1.076a9.63 9.63 0 0 1 3.654 3.005q1.442 1.928 2.132 4.588.71 2.66.71 5.847 0 4.365-1.279 7.634t-3.857 5.076q-2.579 1.785-6.497 1.786m-.081-5.197q1.929 0 3.066-1.198 1.157-1.218 1.685-3.31.528-2.11.528-4.79 0-2.823-.569-4.894-.548-2.091-1.726-3.248-1.157-1.157-2.984-1.157-1.867 0-3.045 1.177-1.157 1.178-1.706 3.269-.548 2.09-.548 4.852 0 2.721.507 4.812.528 2.09 1.686 3.289 1.177 1.198 3.106 1.198" opacity=".8"/><path fill="#fff" d="M153.979 117.583q-1.137 0-2.213-.122a17 17 0 0 1-2.091-.366 23 23 0 0 1-1.949-.528 21 21 0 0 1-1.787-.67l.548-5.623q.833.486 1.706.873.892.385 1.807.649.913.245 1.806.366.915.122 1.746.122 2.314 0 3.675-1.036 1.381-1.056 1.97-3.208.588-2.151.588-5.441 0-3.086-.609-5.014-.609-1.95-1.725-2.863-1.117-.915-2.68-.914-1.482 0-2.437.65-.954.63-1.421 1.665a5.4 5.4 0 0 0-.467 2.253q0 1.218.447 2.173a3.6 3.6 0 0 0 1.401 1.522q.933.549 2.375.549.609 0 1.239-.102a6.2 6.2 0 0 0 1.319-.365 6.6 6.6 0 0 0 1.32-.711 8.2 8.2 0 0 0 1.34-1.198q.752.934.974 1.563.245.61 0 1.259-.222.63-.913 1.604l-.711-.04a9 9 0 0 1-1.299 1.035 8.6 8.6 0 0 1-1.523.792 9.8 9.8 0 0 1-1.746.507q-.933.163-1.949.163-2.517 0-4.446-1.056a7.55 7.55 0 0 1-2.985-2.984q-1.055-1.929-1.055-4.569 0-2.558 1.096-4.832 1.096-2.295 3.35-3.715 2.274-1.42 5.827-1.421 3.756 0 6.293 1.604t3.817 4.77q1.28 3.148 1.279 7.817 0 3.879-.873 6.7-.852 2.823-2.436 4.629a9.7 9.7 0 0 1-3.756 2.66q-2.193.853-4.852.853" opacity=".3"/><path fill="#fff" d="M170.404 88.68q.73-1.158 1.197-2.376t.691-2.598q.223-1.36.223-2.904v-5.137l2.721-.223q1.684.183 2.416 1.3.75 1.095.751 2.7 0 1.442-.447 2.802a11.6 11.6 0 0 1-1.198 2.558q-.75 1.218-1.664 2.172a13 13 0 0 1-1.787 1.645z"/><path fill="#fff" d="M184.85 12.797V8.574q1.116-.955 2.213-1.888l2.233-1.868q2.598-2.193 4.466-4.101t2.863-3.675.995-3.553q0-1.95-1.096-2.923-1.096-.995-3.31-.995-.954 0-1.969.223-.995.202-2.01.61a19 19 0 0 0-2.03.913q-.995.528-1.949 1.177l-.549-5.969a20 20 0 0 1 2.051-.832 24 24 0 0 1 2.396-.71 24 24 0 0 1 2.619-.508 20 20 0 0 1 2.72-.183q3.087 0 5.218 1.015 2.153.995 3.248 2.883 1.117 1.868 1.117 4.487 0 2.153-.893 4.284-.894 2.112-2.721 4.243-1.807 2.132-4.588 4.304l-4 3.147-.771-1.218h13.298v5.36z" opacity=".05"/><path fill="#fff" d="m187.918 29.644-1.441-4.852a994 994 0 0 1 5.522-2.66l5.522-2.68-.223 5.583q-2.356 1.157-4.69 2.315-2.335 1.136-4.69 2.294m6.375 17.907V22.213l3.228-2.761 3.025.183V47.55z" opacity=".2"/><path fill="#fff" d="M195.206 82.812q-3.167 0-5.441-1.096-2.253-1.116-3.675-3.086-1.401-1.97-2.07-4.609-.65-2.64-.65-5.684 0-4.284 1.238-7.553 1.239-3.29 3.817-5.137 2.6-1.847 6.639-1.847 3.066 0 5.279 1.076a9.63 9.63 0 0 1 3.654 3.005q1.442 1.928 2.132 4.588.711 2.66.711 5.847 0 4.365-1.279 7.634-1.28 3.27-3.858 5.076-2.578 1.785-6.497 1.786m-.081-5.197q1.929 0 3.066-1.198 1.157-1.218 1.685-3.31.528-2.11.528-4.79 0-2.823-.569-4.894-.548-2.091-1.725-3.248-1.158-1.157-2.985-1.157-1.868 0-3.045 1.177-1.157 1.178-1.706 3.269-.548 2.09-.548 4.852 0 2.721.508 4.812.527 2.09 1.685 3.289 1.177 1.198 3.106 1.198" opacity=".9"/><path fill="#fff" d="M193.473 117.583q-1.137 0-2.213-.122a17 17 0 0 1-2.091-.366 23 23 0 0 1-1.949-.528 21 21 0 0 1-1.787-.67l.548-5.623q.833.486 1.706.873.893.385 1.807.649.913.245 1.807.366a13 13 0 0 0 1.746.122q2.315 0 3.674-1.036 1.381-1.056 1.97-3.208.589-2.151.589-5.441 0-3.086-.61-5.014-.609-1.95-1.725-2.863-1.117-.915-2.68-.914-1.482 0-2.437.65a3.86 3.86 0 0 0-1.421 1.665 5.4 5.4 0 0 0-.467 2.253q0 1.218.447 2.173a3.6 3.6 0 0 0 1.401 1.522q.933.549 2.375.549.609 0 1.239-.102a6.2 6.2 0 0 0 1.319-.365 6.6 6.6 0 0 0 1.32-.711 8.2 8.2 0 0 0 1.34-1.198q.751.934.975 1.563.243.61 0 1.259-.224.63-.914 1.604l-.711-.04a9 9 0 0 1-1.299 1.035 8.6 8.6 0 0 1-1.523.792 9.8 9.8 0 0 1-1.746.507q-.933.163-1.949.163-2.517 0-4.446-1.056a7.55 7.55 0 0 1-2.985-2.984q-1.055-1.929-1.055-4.569 0-2.558 1.096-4.832 1.097-2.295 3.35-3.715 2.274-1.42 5.827-1.421 3.756 0 6.294 1.604t3.817 4.77q1.279 3.148 1.279 7.817 0 3.879-.873 6.7-.853 2.823-2.437 4.629a9.7 9.7 0 0 1-3.756 2.66q-2.193.853-4.852.853" opacity=".3"/><path fill="#fff" d="M211.85 12.797V8.574q1.116-.955 2.213-1.888l2.233-1.868q2.598-2.193 4.466-4.101t2.863-3.675.995-3.553q0-1.95-1.096-2.923-1.096-.995-3.31-.995-.954 0-1.969.223-.995.202-2.01.61a19 19 0 0 0-2.03.913q-.995.528-1.949 1.177l-.549-5.969a20 20 0 0 1 2.051-.832 24 24 0 0 1 2.396-.71 24 24 0 0 1 2.619-.508 20 20 0 0 1 2.72-.183q3.087 0 5.218 1.015 2.153.995 3.248 2.883 1.117 1.868 1.117 4.487 0 2.153-.893 4.284-.894 2.112-2.721 4.243-1.807 2.132-4.588 4.304l-4 3.147-.771-1.218h13.298v5.36z" opacity=".05"/><path fill="#fff" d="m214.918 29.644-1.441-4.852a994 994 0 0 1 5.522-2.66l5.522-2.68-.223 5.583q-2.356 1.157-4.69 2.315-2.335 1.136-4.69 2.294m6.375 17.907V22.213l3.228-2.761 3.025.183V47.55z" opacity=".2"/><path fill="#fff" d="M222.206 82.812q-3.167 0-5.441-1.096-2.253-1.116-3.675-3.086-1.401-1.97-2.07-4.609-.65-2.64-.65-5.684 0-4.284 1.238-7.553 1.239-3.29 3.817-5.137 2.6-1.847 6.639-1.847 3.066 0 5.279 1.076a9.63 9.63 0 0 1 3.654 3.005q1.442 1.928 2.132 4.588.711 2.66.711 5.847 0 4.365-1.279 7.634-1.28 3.27-3.858 5.076-2.578 1.785-6.497 1.786m-.081-5.197q1.929 0 3.066-1.198 1.157-1.218 1.685-3.31.528-2.11.528-4.79 0-2.823-.569-4.894-.548-2.091-1.725-3.248-1.158-1.157-2.985-1.157-1.868 0-3.045 1.177-1.157 1.178-1.706 3.269-.548 2.09-.548 4.852 0 2.721.508 4.812.527 2.09 1.685 3.289 1.177 1.198 3.106 1.198" opacity=".9"/><path fill="#fff" d="M220.473 117.583q-1.137 0-2.213-.122a17 17 0 0 1-2.091-.366 23 23 0 0 1-1.949-.528 21 21 0 0 1-1.787-.67l.548-5.623q.833.486 1.706.873.893.385 1.807.649.913.245 1.807.366a13 13 0 0 0 1.746.122q2.315 0 3.674-1.036 1.381-1.056 1.97-3.208.589-2.151.589-5.441 0-3.086-.61-5.014-.609-1.95-1.725-2.863-1.117-.915-2.68-.914-1.482 0-2.437.65a3.86 3.86 0 0 0-1.421 1.665 5.4 5.4 0 0 0-.467 2.253q0 1.218.447 2.173a3.6 3.6 0 0 0 1.401 1.522q.933.549 2.375.549.609 0 1.239-.102a6.2 6.2 0 0 0 1.319-.365 6.6 6.6 0 0 0 1.32-.711 8.2 8.2 0 0 0 1.34-1.198q.751.934.975 1.563.243.61 0 1.259-.224.63-.914 1.604l-.711-.04a9 9 0 0 1-1.299 1.035 8.6 8.6 0 0 1-1.523.792 9.8 9.8 0 0 1-1.746.507q-.933.163-1.949.163-2.517 0-4.446-1.056a7.55 7.55 0 0 1-2.985-2.984q-1.055-1.929-1.055-4.569 0-2.558 1.096-4.832 1.097-2.295 3.35-3.715 2.274-1.42 5.827-1.421 3.756 0 6.294 1.604t3.817 4.77q1.279 3.148 1.279 7.817 0 3.879-.873 6.7-.853 2.823-2.437 4.629a9.7 9.7 0 0 1-3.756 2.66q-2.193.853-4.852.853" opacity=".3"/><path fill="#fff" d="M249.206 82.812q-3.167 0-5.441-1.096-2.253-1.116-3.675-3.086-1.401-1.97-2.07-4.609-.65-2.64-.65-5.684 0-4.284 1.238-7.553 1.239-3.29 3.817-5.137 2.6-1.847 6.639-1.847 3.066 0 5.279 1.076a9.63 9.63 0 0 1 3.654 3.005q1.442 1.928 2.132 4.588.711 2.66.711 5.847 0 4.365-1.279 7.634-1.28 3.27-3.858 5.076-2.578 1.785-6.497 1.786m-.081-5.197q1.929 0 3.066-1.198 1.157-1.218 1.685-3.31.528-2.11.528-4.79 0-2.823-.569-4.894-.548-2.091-1.725-3.248-1.158-1.157-2.985-1.157-1.868 0-3.045 1.177-1.157 1.178-1.706 3.269-.548 2.09-.548 4.852 0 2.721.508 4.812.527 2.09 1.685 3.289 1.177 1.198 3.106 1.198" opacity=".9"/></g><defs><filter id="filter0_ddd_32702_2882" width="291.942" height="198.926" x="11.502" y="20.935" color-interpolation-filters="sRGB" filterUnits="userSpaceOnUse"><feFlood flood-opacity="0" result="BackgroundImageFix"/><feColorMatrix in="SourceAlpha" result="hardAlpha" values="0 0 0 0 0 0 0 0 0 0 0 0 0 0 0 0 0 0 127 0"/><feOffset dy="11.058"/><feGaussianBlur stdDeviation="7.372"/><feComposite in2="hardAlpha" operator="out"/><feColorMatrix values="0 0 0 0 0 0 0 0 0 0 0 0 0 0 0 0 0 0 0.15 0"/><feBlend in2="BackgroundImageFix" result="effect1_dropShadow_32702_2882"/><feColorMatrix in="SourceAlpha" result="hardAlpha" values="0 0 0 0 0 0 0 0 0 0 0 0 0 0 0 0 0 0 127 0"/><feOffset/><feGaussianBlur stdDeviation="7.372"/><feComposite in2="hardAlpha" operator="out"/><feColorMatrix values="0 0 0 0 0 0 0 0 0 0 0 0 0 0 0 0 0 0 0.15 0"/><feBlend in2="effect1_dropShadow_32702_2882" result="effect2_dropShadow_32702_2882"/><feColorMatrix in="SourceAlpha" result="hardAlpha" values="0 0 0 0 0 0 0 0 0 0 0 0 0 0 0 0 0 0 127 0"/><feOffset dy=".737"/><feGaussianBlur stdDeviation="1.474"/><feComposite in2="hardAlpha" operator="out"/><feColorMatrix values="0 0 0 0 0 0 0 0 0 0 0 0 0 0 0 0 0 0 0.21 0"/><feBlend in2="effect2_dropShadow_32702_2882" result="effect3_dropShadow_32702_2882"/><feBlend in="SourceGraphic" in2="effect3_dropShadow_32702_2882" result="shape"/></filter><filter id="filter1_dd_32702_2882" width="24.533" height="24.531" x="184.648" y="129.512" color-interpolation-filters="sRGB" filterUnits="userSpaceOnUse"><feFlood flood-opacity="0" result="BackgroundImageFix"/><feColorMatrix in="SourceAlpha" result="hardAlpha" values="0 0 0 0 0 0 0 0 0 0 0 0 0 0 0 0 0 0 127 0"/><feOffset/><feGaussianBlur stdDeviation="3"/><feComposite in2="hardAlpha" operator="out"/><feColorMatrix values="0 0 0 0 0 0 0 0 0 0 0 0 0 0 0 0 0 0 0.16 0"/><feBlend in2="BackgroundImageFix" result="effect1_dropShadow_32702_2882"/><feColorMatrix in="SourceAlpha" result="hardAlpha" values="0 0 0 0 0 0 0 0 0 0 0 0 0 0 0 0 0 0 127 0"/><feOffset dy="1"/><feGaussianBlur stdDeviation="1"/><feComposite in2="hardAlpha" operator="out"/><feColorMatrix values="0 0 0 0 0 0 0 0 0 0 0 0 0 0 0 0 0 0 0.2 0"/><feBlend in2="effect1_dropShadow_32702_2882" result="effect2_dropShadow_32702_2882"/><feBlend in="SourceGraphic" in2="effect2_dropShadow_32702_2882" result="shape"/></filter><filter id="filter2_dd_32702_2882" width="24.533" height="24.531" x="155.154" y="166.68" color-interpolation-filters="sRGB" filterUnits="userSpaceOnUse"><feFlood flood-opacity="0" result="BackgroundImageFix"/><feColorMatrix in="SourceAlpha" result="hardAlpha" values="0 0 0 0 0 0 0 0 0 0 0 0 0 0 0 0 0 0 127 0"/><feOffset/><feGaussianBlur stdDeviation="3"/><feComposite in2="hardAlpha" operator="out"/><feColorMatrix values="0 0 0 0 0 0 0 0 0 0 0 0 0 0 0 0 0 0 0.16 0"/><feBlend in2="BackgroundImageFix" result="effect1_dropShadow_32702_2882"/><feColorMatrix in="SourceAlpha" result="hardAlpha" values="0 0 0 0 0 0 0 0 0 0 0 0 0 0 0 0 0 0 127 0"/><feOffset dy="1"/><feGaussianBlur stdDeviation="1"/><feComposite in2="hardAlpha" operator="out"/><feColorMatrix values="0 0 0 0 0 0 0 0 0 0 0 0 0 0 0 0 0 0 0.2 0"/><feBlend in2="effect1_dropShadow_32702_2882" result="effect2_dropShadow_32702_2882"/><feBlend in="SourceGraphic" in2="effect2_dropShadow_32702_2882" result="shape"/></filter><linearGradient id="paint0_linear_32702_2882" x1="156.5" x2="156.5" y1="-13.41" y2="196.354" gradientUnits="userSpaceOnUse"><stop stop-opacity="0"/><stop offset=".31"/><stop offset=".62"/><stop offset=".976" stop-opacity="0"/></linearGradient><linearGradient id="paint1_linear_32702_2882" x1="288.699" x2="148.576" y1="35.68" y2="267.881" gradientUnits="userSpaceOnUse"><stop stop-color="#fff"/><stop offset="1"/></linearGradient><clipPath id="clip0_32702_2882"><rect width="262.453" height="158.38" x="26.246" y="35.68" fill="#fff" rx="11.796"/></clipPath></defs></svg>